<?xml version="1.0"?>
<!DOCTYPE svg PUBLIC "-//W3C//DTD SVG 1.1//EN" "http://www.w3.org/Graphics/SVG/1.1/DTD/svg11.dtd">
<svg width="255.67379117918432mm" height="116.85575888933268mm" viewBox="0 0 255.67379117918432 116.85575888933268" xmlns="http://www.w3.org/2000/svg" version="1.1">
<g id="Sketch157" transform="translate(127.836896,2.372616) scale(1,-1)">
<path id="Sketch157_w0000"  d="M -123.56189169360906 -41.69857104072697 L -121.32475535297328 -41.77669356307182 L -123.56189169360906 -41.69857104072697 A 1 1 0 0 1 -124.596 -42.6631L -125.32907144776 -63.650269765277116 A 2 2 0 0 1 -123.4 -65.7189L -103.40766356682587 -66.41700128415896 A 2 2 0 0 1 -101.339 -64.488L -101.22429501184206 -61.20092302070084 L -83.3672605186795 -64.996552822686 A 1 1 0 0 1 -82.1812 -64.2263L -81.87698663630954 -62.795099756369424 L -73.51035051052641 -64.57348313987848 L -82.74204705057639 -82.6917076682623 A 2 2 0 0 1 -81.868 -85.3817L -30.10053603001647 -111.75854983598137 A 2 2 0 0 1 -27.4105 -110.885L -15.122360760295063 -86.76760434864978 L 0.0 -86.76760434864978 L 15.122360760295063 -86.76760434864978 L 27.4105419805068 -110.8845177921738 A 2 2 0 0 1 30.1005 -111.759L 81.86801500676881 -85.38170171777197 A 2 2 0 0 1 82.742 -82.6917L 73.51035051052641 -64.57348313987848 L 81.87698663630954 -62.795099756369424 L 82.18120122925347 -64.22631690949692 A 1 1 0 0 1 83.3673 -64.9966L 101.22429501184206 -61.20092302070084 L 101.33908291949311 -64.48801862340736 A 2 2 0 0 1 103.408 -66.417L 123.40008878700839 -65.71885041260988 A 2 2 0 0 1 125.329 -63.6503L 124.59618201727544 -42.663062371102775 A 1 1 0 0 1 123.562 -41.6986L 121.32475535297328 -41.776693563071944 L 120.72972737886107 -24.737321758006342 A 2 2 0 0 1 118.661 -22.8083L 116.85224931131913 -22.87150718699639 L 116.21066597368667 -4.498964198299055 A 2 2 0 0 1 114.142 -2.56998L 94.93156251464774 -3.240827775369907 L 94.76573251208364 -1.8902508021219058 A 2 2 0 0 1 92.5369 -0.148897L 74.10281632285555 -2.412318271776398 L 74.0126460983789 -1.988100712968732 A 1 1 0 0 1 72.8266 -1.21786L 52.2824584205714 -5.584654033266778 A 2 2 0 0 1 50.742 -7.95677L 51.65586896494016 -12.256251188397707 L 31.404510002576906 -17.682426241427407 A 1 1 0 0 1 30.6974 -18.9072L 30.931661719035336 -19.78146426024258 L 13.958245819076556 -24.326083070823984 A 3 3 0 0 1 11.8049 -26.5762L 9.989189147964316 -34.78686146593503 L 6.190381621830836 -34.784422991604835 A 1.18962 1.18962 0 0 1 5 -35.974L 5.0 -45.439468 A 1.34495 1.34495 0 0 0 3.65505 -46.7844L 0.0 -46.784422991604835 L -3.6550450083951653 -46.784422991604835 A 1.34495 1.34495 0 0 0 -5 -45.4395L -5.0 -35.97404074651845 A 1.18962 1.18962 0 0 1 -6.19038 -34.7844L -9.989189147964316 -34.78686146593503 L -11.804934644196393 -26.57622018714289 A 3 3 0 0 1 -13.9582 -24.3261L -30.931661719035336 -19.78146426024258 L -30.69739609022114 -18.90717302044511 A 1 1 0 0 1 -31.4045 -17.6824L -51.65586896494016 -12.256251188397707 L -50.74198659419324 -7.956772612118843 A 2 2 0 0 1 -52.2825 -5.58465L -72.82658680895287 -1.2178647997796501 A 1 1 0 0 1 -74.0126 -1.9881L -74.10281632285555 -2.4123182717763973 L -92.53690151952874 -0.1488971888007269 A 2 2 0 0 1 -94.7657 -1.89025L -94.93156251464774 -3.240827775369907 L -114.1420853263539 -2.569981537547444 A 2 2 0 0 1 -116.211 -4.49896L -116.85224931131913 -22.87150718699639 L -118.6611467315283 -22.80833909725473 A 2 2 0 0 1 -120.73 -24.7373L -121.32475535297328 -41.77669356307182 M 123.56189169360906 -41.69857104072697 L 121.32475535297328 -41.776693563071944 " stroke="#000000" stroke-width="0.35 px" style="stroke-width:0.35;stroke-miterlimit:4;stroke-dasharray:none;fill:none;fill-opacity:1;fill-rule: evenodd"/>
<title>b'Sketch157'</title>
</g>
</svg>