M48
; DRILL file {KiCad (6.0.6)} date 2022年07月30日 19時55分30秒
; FORMAT={-:-/ absolute / metric / decimal}
; #@! TF.CreationDate,2022-07-30T19:55:30+09:00
; #@! TF.GenerationSoftware,Kicad,Pcbnew,(6.0.6)
; #@! TF.FileFunction,MixedPlating,1,2
FMAT,2
METRIC
; #@! TA.AperFunction,Plated,PTH,ViaDrill
T1C0.400
; #@! TA.AperFunction,Plated,PTH,ComponentDrill
T2C0.813
; #@! TA.AperFunction,Plated,PTH,ComponentDrill
T3C1.300
; #@! TA.AperFunction,NonPlated,NPTH,ComponentDrill
T4C1.900
; #@! TA.AperFunction,NonPlated,NPTH,ComponentDrill
T5C3.000
; #@! TA.AperFunction,NonPlated,NPTH,ComponentDrill
T6C4.100
; #@! TA.AperFunction,NonPlated,NPTH,ComponentDrill
T7C4.300
%
G90
G05
T1
X46.272Y-59.848
X47.11Y-71.02
X51.43Y-58.62
X51.44Y-50.96
X51.59Y-55.4
X52.94Y-58.9
X57.299Y-71.26
X57.61Y-64.68
X57.749Y-72.34
X58.97Y-70.42
X59.23Y-65.03
X59.256Y-68.844
X77.73Y-72.34
X80.71Y-61.69
X81.9Y-68.89
X82.153Y-71.557
X83.38Y-71.76
X84.378Y-71.415
X95.73Y-57.11
X96.01Y-81.11
X96.81Y-59.54
X97.248Y-78.882
X97.61Y-56.47
X99.4Y-81.29
X101.19Y-62.45
X101.81Y-60.61
X102.44Y-57.6
X102.84Y-81.24
X110.11Y-61.72
X115.88Y-82.954
X116.641Y-84.559
X124.21Y-89.22
X128.2Y-68.77
X130.28Y-91.35
X131.18Y-94.74
X131.79Y-95.99
X132.897Y-92.548
X133.64Y-93.29
X140.33Y-74.816
X142.12Y-73.117
X146.81Y-72.04
X151.84Y-88.22
X167.359Y-104.015
X168.301Y-91.249
X181.577Y-94.313
X182.301Y-93.579
X182.57Y-92.225
X187.75Y-107.93
X189.82Y-111.95
X194.09Y-87.611
X195.42Y-114.11
X200.315Y-87.105
X202.22Y-87.9
X203.934Y-89.634
X204.802Y-87.742
X207.59Y-83.929
X214.61Y-76.77
X215.11Y-78.4
X215.594Y-76.51
X216.455Y-82.725
X216.64Y-78.66
X218.796Y-79.826
X219.387Y-81.418
X224.8Y-72.319
X231.19Y-68.795
X237.673Y-71.644
X238.868Y-73.427
X239.22Y-71.7
X248.86Y-69.89
X256.83Y-71.66
X258.26Y-60.64
X258.344Y-57.51
X258.67Y-72.43
X259.11Y-58.87
X260.48Y-75.29
X264.038Y-55.364
X265.28Y-71.19
T2
X150.252Y-74.927
X150.252Y-77.467
X150.252Y-80.007
X150.252Y-82.547
X150.252Y-85.087
X150.252Y-87.627
X150.252Y-90.167
X150.252Y-92.707
X150.252Y-95.247
X150.252Y-97.787
X150.252Y-100.327
X150.252Y-102.867
X165.472Y-74.927
X165.472Y-77.467
X165.472Y-80.007
X165.472Y-82.547
X165.472Y-85.087
X165.472Y-87.627
X165.472Y-90.167
X165.472Y-92.707
X165.472Y-95.247
X165.472Y-97.787
X165.472Y-100.327
X165.472Y-102.867
T3
X144.831Y-73.966
X144.831Y-80.466
T4
X39.805Y-86.259
X43.64Y-67.311
X48.187Y-47.067
X49.959Y-86.613
X53.794Y-67.665
X58.341Y-47.421
X61.249Y-82.281
X65.211Y-63.638
X68.719Y-45.025
X71.187Y-84.394
X75.149Y-65.75
X78.804Y-46.263
X80.375Y-83.831
X84.363Y-65.187
X85.796Y-109.301
X88.325Y-46.543
X90.313Y-85.943
X94.301Y-67.299
X94.849Y-113.914
X98.263Y-48.656
X99.436Y-94.672
X102.789Y-117.937
X103.805Y-76.104
X107.818Y-57.486
X109.25Y-97.301
X111.841Y-122.55
X113.619Y-78.734
X117.318Y-101.428
X117.632Y-60.116
X119.737Y-126.578
X121.687Y-82.886
X126.055Y-64.344
X127.132Y-104.058
X128.79Y-131.191
X131.501Y-85.516
X135.869Y-66.974
X179.802Y-66.974
X184.171Y-85.516
X186.863Y-131.211
X188.539Y-104.083
X189.616Y-64.344
X193.985Y-82.886
X195.915Y-126.599
X198.064Y-60.09
X198.353Y-101.454
X202.078Y-78.759
X203.83Y-122.55
X206.476Y-97.278
X207.878Y-57.461
X211.892Y-76.13
X212.883Y-117.937
X216.29Y-94.648
X217.433Y-48.681
X220.822Y-113.888
X221.37Y-67.299
X225.358Y-85.943
X227.371Y-46.569
X229.875Y-109.276
X231.308Y-65.187
X235.296Y-83.831
X236.867Y-46.237
X240.522Y-65.725
X244.459Y-84.368
X246.952Y-44.999
X250.46Y-63.612
X254.397Y-82.256
X257.33Y-47.421
X261.852Y-67.64
X265.738Y-86.613
X267.484Y-47.067
X272.006Y-67.285
X275.892Y-86.259
T5
X41.163Y-83.765
X44.998Y-64.816
X47.598Y-81.448
X49.545Y-44.573
X51.433Y-62.5
X55.98Y-42.256
X63.019Y-80.061
X66.982Y-61.417
X69.758Y-78.897
X70.29Y-42.658
X73.721Y-60.253
X76.902Y-40.911
X82.145Y-81.61
X86.133Y-62.967
X88.081Y-107.615
X88.885Y-80.446
X90.096Y-44.323
X92.872Y-61.802
X94.892Y-108.234
X96.835Y-43.159
X101.32Y-92.547
X105.073Y-116.251
X105.689Y-73.98
X108.111Y-91.737
X109.702Y-55.361
X111.884Y-116.87
X112.48Y-73.17
X116.493Y-54.551
X119.202Y-99.303
X122.022Y-124.892
X123.571Y-80.761
X125.993Y-98.493
X127.94Y-62.219
X128.833Y-125.512
X130.362Y-79.951
X134.731Y-61.409
X180.371Y-64.192
X184.74Y-82.734
X185.847Y-60.095
X186.841Y-128.372
X189.109Y-101.301
X190.216Y-78.637
X191.346Y-123.226
X194.585Y-97.204
X198.634Y-57.308
X202.647Y-75.977
X203.808Y-119.71
X204.11Y-53.211
X207.046Y-94.496
X208.123Y-71.88
X208.313Y-114.564
X212.522Y-90.399
X218.148Y-45.933
X220.801Y-111.049
X222.085Y-64.551
X223.831Y-42.128
X225.306Y-105.903
X226.072Y-83.194
X227.768Y-60.746
X231.756Y-79.39
X237.818Y-43.562
X241.236Y-62.976
X243.812Y-40.267
X245.173Y-81.62
X246.919Y-59.171
X250.856Y-77.815
X258.511Y-44.839
X263.032Y-65.057
X264.769Y-42.078
X266.918Y-84.031
X269.29Y-62.297
X273.176Y-81.271
T6
X44.882Y-86.436
X48.717Y-67.488
X53.264Y-47.244
X66.218Y-83.337
X70.18Y-64.694
X73.762Y-45.644
X85.344Y-84.887
X89.332Y-66.243
X90.322Y-111.608
X93.294Y-47.6
X104.343Y-95.987
X107.315Y-120.244
X108.712Y-77.419
X112.725Y-58.801
X122.225Y-102.743
X124.263Y-128.885
X126.594Y-84.201
X130.962Y-65.659
X184.709Y-65.659
X189.078Y-84.201
X191.389Y-128.905
X193.446Y-102.768
X202.971Y-58.776
X206.985Y-77.445
X208.356Y-120.244
X211.383Y-95.963
X222.402Y-47.625
X225.349Y-111.582
X226.339Y-66.243
X230.327Y-84.887
X241.91Y-45.618
X245.491Y-64.668
X249.428Y-83.312
X262.407Y-47.244
X266.929Y-67.462
X270.815Y-86.436
T7
X54.56Y-89.24
X63.2Y-53.45
X101.2Y-105.47
X119.28Y-70.03
X131.87Y-120.19
X135.357Y-110.871
X142.011Y-86.157
X173.685Y-86.208
X180.315Y-110.947
X183.79Y-120.21
X196.38Y-70.04
X214.44Y-105.47
X252.43Y-53.45
X261.12Y-89.27
T0
M30
