<?xml version="1.0"?>
<!DOCTYPE svg PUBLIC "-//W3C//DTD SVG 1.1//EN" "http://www.w3.org/Graphics/SVG/1.1/DTD/svg11.dtd">
<svg width="255.6713057534304mm" height="116.84476548054089mm" viewBox="0 0 255.6713057534304 116.84476548054089" xmlns="http://www.w3.org/2000/svg" version="1.1">
<g id="Sketch167" transform="translate(127.835653,2.362151) scale(1,-1)">
<path id="Sketch167_w0000"  d="M 97.81553167745804 -22.15169872158279 L 97.32693872349053 -8.160227116556285 L 111.31841032851705 -7.671634162588777 L 111.80700328248457 -21.66310576761529 L 97.81553167745804 -22.15169872158279 " stroke="#000000" stroke-width="0.35 px" style="stroke-width:0.35;stroke-miterlimit:4;stroke-dasharray:none;fill:none;fill-opacity:1;fill-rule: evenodd"/>
<path id="Sketch167_w0001"  d="M 102.3345846399331 -42.389814514012876 L 101.84599168596559 -28.398342908986372 L 115.8374632909921 -27.909749955018846 L 116.32605624495962 -41.90122156004536 L 102.3345846399331 -42.38981451401288 " stroke="#000000" stroke-width="0.35 px" style="stroke-width:0.35;stroke-miterlimit:4;stroke-dasharray:none;fill:none;fill-opacity:1;fill-rule: evenodd"/>
<path id="Sketch167_w0002"  d="M 106.23594721769213 -61.31518772140779 L 105.74735426372462 -47.323716116381284 L 119.73882586875112 -46.83512316241376 L 120.22741882271865 -60.82659476744028 L 106.23594721769214 -61.31518772140778 " stroke="#000000" stroke-width="0.35 px" style="stroke-width:0.35;stroke-miterlimit:4;stroke-dasharray:none;fill:none;fill-opacity:1;fill-rule: evenodd"/>
<path id="Sketch167_w0003"  d="M 77.97913453016047 -21.07905288462397 L 76.27296370763571 -7.183406803095856 L 90.16860978916382 -5.477235980571121 L 91.87478061168858 -19.372882062099233 L 77.97913453016047 -21.079052884623966 " stroke="#000000" stroke-width="0.35 px" style="stroke-width:0.35;stroke-miterlimit:4;stroke-dasharray:none;fill:none;fill-opacity:1;fill-rule: evenodd"/>
<path id="Sketch167_w0004"  d="M 59.17025204216176 -23.54507963771281 L 56.25948840377764 -9.851013197175469 L 69.95355484431497 -6.9402495587913435 L 72.86431848269909 -20.634315999328685 L 59.170252042161756 -23.54507963771281 " stroke="#000000" stroke-width="0.35 px" style="stroke-width:0.35;stroke-miterlimit:4;stroke-dasharray:none;fill:none;fill-opacity:1;fill-rule: evenodd"/>
<path id="Sketch167_w0005"  d="M 63.130969742568524 -42.1787914403908 L 60.2202061041844 -28.484724999853462 L 73.91427254472174 -25.573961361469337 L 76.82503618310587 -39.26802780200667 L 63.130969742568524 -42.178791440390796 " stroke="#000000" stroke-width="0.35 px" style="stroke-width:0.35;stroke-miterlimit:4;stroke-dasharray:none;fill:none;fill-opacity:1;fill-rule: evenodd"/>
<path id="Sketch167_w0006"  d="M 82.27957478291047 -40.64045626099638 L 79.36881114452635 -26.94638982045904 L 93.06287758506369 -24.035626182074914 L 95.97364122344781 -37.729692622612255 L 82.27957478291049 -40.64045626099639 " stroke="#000000" stroke-width="0.35 px" style="stroke-width:0.35;stroke-miterlimit:4;stroke-dasharray:none;fill:none;fill-opacity:1;fill-rule: evenodd"/>
<path id="Sketch167_w0007"  d="M 67.0916874429753 -60.8125032430688 L 64.18092380459117 -47.11843680253147 L 77.8749902451285 -44.207673164147344 L 80.78575388351263 -57.90173960468467 L 67.0916874429753 -60.8125032430688 " stroke="#000000" stroke-width="0.35 px" style="stroke-width:0.35;stroke-miterlimit:4;stroke-dasharray:none;fill:none;fill-opacity:1;fill-rule: evenodd"/>
<path id="Sketch167_w0008"  d="M 86.24029248331725 -59.274168063674374 L 83.32952884493312 -45.58010162313703 L 97.02359528547046 -42.66933798475291 L 99.93435892385457 -56.36340442529025 L 86.24029248331723 -59.274168063674374 " stroke="#000000" stroke-width="0.35 px" style="stroke-width:0.35;stroke-miterlimit:4;stroke-dasharray:none;fill:none;fill-opacity:1;fill-rule: evenodd"/>
<path id="Sketch167_w0009"  d="M 36.5623090334952 -21.4769165760704 L 40.185775639949064 -34.999878214774625 L 53.70873727865329 -31.376411608320744 L 50.085270672199414 -17.85344996961654 L 36.56230903349854 -21.476809627769246 " stroke="#000000" stroke-width="0.35 px" style="stroke-width:0.35;stroke-miterlimit:4;stroke-dasharray:none;fill:none;fill-opacity:1;fill-rule: evenodd"/>
<path id="Sketch167_w0010"  d="M 18.286455715441917 -28.34611815894855 L 21.909921183120026 -41.86907979765276 L 35.43288282182425 -38.24561319119889 L 31.80941621537039 -24.72265155249469 L 18.286454576666166 -28.34611815894856 " stroke="#000000" stroke-width="0.35 px" style="stroke-width:0.35;stroke-miterlimit:4;stroke-dasharray:none;fill:none;fill-opacity:1;fill-rule: evenodd"/>
<path id="Sketch167_w0011"  d="M 44.196234089736265 -53.647290322928185 L 40.57276748328239 -40.124328684223975 L 54.09572912198661 -36.500862077770115 L 57.719195728440475 -50.023823716474325 L 44.196234089736265 -53.6472903229282 " stroke="#000000" stroke-width="0.35 px" style="stroke-width:0.35;stroke-miterlimit:4;stroke-dasharray:none;fill:none;fill-opacity:1;fill-rule: evenodd"/>
<path id="Sketch167_w0012"  d="M 26.288397341375653 -60.417881822801775 L 22.664930734921768 -46.89492018409755 L 36.187892373625985 -43.271453577643676 L 39.81135898007985 -56.794415216347886 L 26.288397341375642 -60.417881822801775 " stroke="#000000" stroke-width="0.35 px" style="stroke-width:0.35;stroke-miterlimit:4;stroke-dasharray:none;fill:none;fill-opacity:1;fill-rule: evenodd"/>
<path id="Sketch167_w0013"  d="M 48.57471024275826 -72.19609244794015 L 44.95124363630438 -58.673130809235936 L 58.4742052750086 -55.04966420278205 L 62.09767188146246 -68.57262584148629 L 48.57471024275826 -72.19609244794015 " stroke="#000000" stroke-width="0.35 px" style="stroke-width:0.35;stroke-miterlimit:4;stroke-dasharray:none;fill:none;fill-opacity:1;fill-rule: evenodd"/>
<path id="Sketch167_w0014"  d="M 40.56636862651092 -61.820255707889224 L 27.043406987806716 -65.44372231434309 L 30.66687359426059 -78.9666839530473 L 44.189835232964796 -75.34321734659343 L 40.56636862651092 -61.820255707889224 " stroke="#000000" stroke-width="0.35 px" style="stroke-width:0.35;stroke-miterlimit:4;stroke-dasharray:none;fill:none;fill-opacity:1;fill-rule: evenodd"/>
<path id="Sketch167_w0015"  d="M 64.45095164392558 -88.6445076045285 L 58.095084644799044 -76.17041631880087 L 70.56917593052667 -69.81454931967434 L 76.92504292965319 -82.28864060540198 L 64.45095164392558 -88.64450760452851 " stroke="#000000" stroke-width="0.35 px" style="stroke-width:0.35;stroke-miterlimit:4;stroke-dasharray:none;fill:none;fill-opacity:1;fill-rule: evenodd"/>
<path id="Sketch167_w0016"  d="M 47.477277400173016 -97.29302662676984 L 41.12141040104649 -84.81893534104222 L 53.595501686774114 -78.46306834191572 L 59.95136868590065 -90.93715962764333 L 47.47727740017302 -97.29302662676986 " stroke="#000000" stroke-width="0.35 px" style="stroke-width:0.35;stroke-miterlimit:4;stroke-dasharray:none;fill:none;fill-opacity:1;fill-rule: evenodd"/>
<path id="Sketch167_w0017"  d="M 30.503603056557516 -105.94154564377764 L 24.14773605743099 -93.46745435805002 L 36.62182734315863 -87.11158735892349 L 42.97769434228516 -99.5856786446511 L 30.50360305655753 -105.94154564377763 " stroke="#000000" stroke-width="0.35 px" style="stroke-width:0.35;stroke-miterlimit:4;stroke-dasharray:none;fill:none;fill-opacity:1;fill-rule: evenodd"/>
<path id="Sketch167_w0018"  d="M 123.56189169360906 -41.69857104072709 L 121.32475535297326 -41.77669356307182 L 123.56189169360903 -41.69857104072722 M -121.32475535297326 -41.776693563071944 L -123.56189169360903 -41.69857104072722 L -121.32475535297326 -41.77669356307182 L -120.72972737886107 -24.737321758006342 A 2 2 0 0 0 -118.661 -22.8083L -116.85224931131913 -22.87150718699639 L -116.21066597368667 -4.4989641982990545 A 2 2 0 0 0 -114.142 -2.56998L -94.93156251464774 -3.240827775369907 L -94.76573251208364 -1.890250802121907 A 2 2 0 0 0 -92.5369 -0.148897L -74.10281632285555 -2.412318271776397 L -74.0126460983789 -1.9881007129687318 A 1 1 0 0 0 -72.8266 -1.21786L -52.2824584205714 -5.584654033266778 A 2 2 0 0 0 -50.742 -7.95677L -51.65586896494016 -12.256251188397707 L -31.404510002576902 -17.682426241427407 A 1 1 0 0 0 -30.6974 -18.9072L -30.931661719035336 -19.78146426024258 L -13.968640832442187 -24.32608307082399 A 3 3 0 0 0 -11.8158 -26.5761L -10.0 -34.786868405477236 L -10.0 -73.78686840547724 L 0.0 -73.78686840547724 L 10.0 -73.78686840547724 L 10.0 -34.786868405477236 L 11.815773308147914 -26.576101363650192 A 3 3 0 0 0 13.9686 -24.3261L 30.931661719035336 -19.78146426024258 L 30.69739609022114 -18.90717302044511 A 1 1 0 0 0 31.4045 -17.6824L 51.65586896494016 -12.256251188397707 L 50.74198659419324 -7.956772612118843 A 2 2 0 0 0 52.2825 -5.58465L 72.82658680895285 -1.2178647997796532 A 1 1 0 0 0 74.0126 -1.9881L 74.10281632285555 -2.412318271776397 L 92.53690151952875 -0.14889718880072578 A 2 2 0 0 0 94.7657 -1.89025L 94.93156251464774 -3.240827775369907 L 114.14208532635391 -2.5699815375474437 A 2 2 0 0 0 116.211 -4.49896L 116.85224931131913 -22.87150718699639 L 118.6611467315283 -22.80833909725473 A 2 2 0 0 0 120.73 -24.7373L 121.32475535297326 -41.77669356307182 M -123.56189169360906 -41.69857104072709 A 1 1 0 0 1 -124.596 -42.6631L -125.32907144776 -63.65026976527712 A 2 2 0 0 1 -123.4 -65.7189L -103.40766356682587 -66.41700128415896 A 2 2 0 0 1 -101.339 -64.488L -101.22429501184206 -61.20092302070084 L -83.3672605186795 -64.996552822686 A 1 1 0 0 1 -82.1812 -64.2263L -81.87698663630954 -62.795099756369424 L -73.51035051052641 -64.57348313987848 L -82.74204705057639 -82.6917076682623 A 2 2 0 0 1 -81.868 -85.3817L -30.10053603001647 -111.75854983598137 A 2 2 0 0 1 -27.4105 -110.885L -15.122360760295063 -86.76760434864978 L 0.0 -86.76760434864978 L 15.122360760295063 -86.76760434864978 L 27.4105419805068 -110.8845177921738 A 2 2 0 0 1 30.1005 -111.759L 81.86801500676881 -85.38170171777197 A 2 2 0 0 1 82.742 -82.6917L 73.51035051052641 -64.57348313987848 L 81.87698663630954 -62.795099756369424 L 82.18120122925347 -64.22631690949693 A 1 1 0 0 1 83.3673 -64.9966L 101.22429501184206 -61.20092302070084 L 101.33908291949311 -64.48801862340734 A 2 2 0 0 1 103.408 -66.417L 123.40008878700839 -65.71885041260988 A 2 2 0 0 1 125.329 -63.6503L 124.59618201727544 -42.663062371102775 A 1 1 0 0 1 123.562 -41.6986" stroke="#000000" stroke-width="0.35 px" style="stroke-width:0.35;stroke-miterlimit:4;stroke-dasharray:none;fill:none;fill-opacity:1;fill-rule: evenodd"/>
<path id="Sketch167_w0019"  d="M 100.25783888554751 -22.066411474681086 L 107.15363559199305 -21.825604947828616 L 100.25783888554751 -22.066411474681086 M 100.25783888554751 -22.066411474681086 L 100.44978611709658 -27.563061023297102 L 107.34558282354212 -27.32225449644463 L 107.15363559199305 -21.825604947828616 " stroke="#000000" stroke-width="0.35 px" style="stroke-width:0.35;stroke-miterlimit:4;stroke-dasharray:none;fill:none;fill-opacity:1;fill-rule: evenodd"/>
<path id="Sketch167_w0020"  d="M 9.0 -34.874840000000006 L 9.0 -70.87484 L 0.0 -70.87484 L -9.0 -70.87484 L -9.0 -34.874840000000006 " stroke="#000000" stroke-width="0.35 px" style="stroke-width:0.35;stroke-miterlimit:4;stroke-dasharray:none;fill:none;fill-opacity:1;fill-rule: evenodd"/>
<path id="Sketch167_w0021"  d="M 14.888471666582806 -34.79000634089271 L 0.0 -34.78044935341047 L -14.888471666582802 -34.79000634089271 " stroke="#000000" stroke-width="0.35 px" style="stroke-width:0.35;stroke-miterlimit:4;stroke-dasharray:none;fill:none;fill-opacity:1;fill-rule: evenodd"/>
<path id="Sketch167_w0022"  d="M 5.0 -34.783658879443855 L 5.0 -46.783658879443855 L 0.0 -46.783658879443855 L -5.0 -46.783658879443855 L -5.0 -34.783658879443855 " stroke="#000000" stroke-width="0.35 px" style="stroke-width:0.35;stroke-miterlimit:4;stroke-dasharray:none;fill:none;fill-opacity:1;fill-rule: evenodd"/>
<path id="Sketch167_w0023"  d="M 54.16274850519347 -24.14940407362611 L 55.30626278984508 -29.529215880817667 L 62.055481238867216 -28.094625232800194 L 60.91196695421561 -22.714813425608632 L 54.16274850519347 -24.14940407362611 " stroke="#000000" stroke-width="0.35 px" style="stroke-width:0.35;stroke-miterlimit:4;stroke-dasharray:none;fill:none;fill-opacity:1;fill-rule: evenodd"/>
<path id="Sketch167_w0024"  d="M 101.78064607788762 -41.958884124688076 L 101.97259330949832 -47.45553367333386 L 108.86839001588363 -47.21472714648269 L 108.67644278433316 -41.71807759783499 L 101.78064607788762 -41.958884124688076 " stroke="#000000" stroke-width="0.35 px" style="stroke-width:0.35;stroke-miterlimit:4;stroke-dasharray:none;fill:none;fill-opacity:1;fill-rule: evenodd"/>
<path id="Sketch167_w0025"  d="M 66.93371864545087 -60.14902626867569 L 68.4219977901829 -65.4438374255873 L 61.815025973120235 -67.30094206516092 L 60.38081793720077 -62.19849825494013 L 67.0233992067808 -60.33138441882175 " stroke="#000000" stroke-width="0.35 px" style="stroke-width:0.35;stroke-miterlimit:4;stroke-dasharray:none;fill:none;fill-opacity:1;fill-rule: evenodd"/>
<path id="Sketch167_w0026"  d="M 38.75526648999877 -82.49342368712873 L 32.09037805594564 -84.27927423004235 L 30.666874 -78.966682 L 37.331762434053125 -77.18083145708638 L 38.75526648999877 -82.49342368712873 " stroke="#000000" stroke-width="0.35 px" style="stroke-width:0.35;stroke-miterlimit:4;stroke-dasharray:none;fill:none;fill-opacity:1;fill-rule: evenodd"/>
<circle cx="24.14773605743099" cy="-93.46745435805002" r="1.0" stroke="#000000" stroke-width="0.35 px" style="stroke-width:0.35;stroke-miterlimit:4;stroke-dasharray:none;fill:none"/>
<path id="Sketch167_w0028"  d="M 92.37751022263748 -17.97278121902415 L 96.45010885893338 -23.746125369220792 " stroke="#000000" stroke-width="0.35 px" style="stroke-width:0.35;stroke-miterlimit:4;stroke-dasharray:none;fill:none;fill-opacity:1;fill-rule: evenodd"/>
<path id="Sketch167_w0029"  d="M 97.31331673761511 -17.921594346830116 L 92.16621699543599 -24.005841774656215 " stroke="#000000" stroke-width="0.35 px" style="stroke-width:0.35;stroke-miterlimit:4;stroke-dasharray:none;fill:none;fill-opacity:1;fill-rule: evenodd"/>
<path id="Sketch167_w0030"  d="M 100.55375736850435 -53.37961439711172 L 105.20925157861797 -59.41661509312281 " stroke="#000000" stroke-width="0.35 px" style="stroke-width:0.35;stroke-miterlimit:4;stroke-dasharray:none;fill:none;fill-opacity:1;fill-rule: evenodd"/>
<path id="Sketch167_w0031"  d="M 105.23230920144422 -54.18630995290968 L 101.64252536570348 -59.20640109436758 " stroke="#000000" stroke-width="0.35 px" style="stroke-width:0.35;stroke-miterlimit:4;stroke-dasharray:none;fill:none;fill-opacity:1;fill-rule: evenodd"/>
<path id="Sketch167_w0032"  d="M 52.4892909762129 -71.0036570413299 L 58.90656067884001 -74.26295739744887 " stroke="#000000" stroke-width="0.35 px" style="stroke-width:0.35;stroke-miterlimit:4;stroke-dasharray:none;fill:none;fill-opacity:1;fill-rule: evenodd"/>
<path id="Sketch167_w0033"  d="M 57.93128170759444 -68.45484820613378 L 55.93240748133689 -75.49093833901505 " stroke="#000000" stroke-width="0.35 px" style="stroke-width:0.35;stroke-miterlimit:4;stroke-dasharray:none;fill:none;fill-opacity:1;fill-rule: evenodd"/>
<path id="Sketch167_w0034"  d="M 21.61632869750142 -86.14270807721 L 28.433303899881462 -88.8238129848024 " stroke="#000000" stroke-width="0.35 px" style="stroke-width:0.35;stroke-miterlimit:4;stroke-dasharray:none;fill:none;fill-opacity:1;fill-rule: evenodd"/>
<path id="Sketch167_w0035"  d="M 28.493818248099423 -85.37044405662823 L 23.414037579928777 -90.32417298039292 " stroke="#000000" stroke-width="0.35 px" style="stroke-width:0.35;stroke-miterlimit:4;stroke-dasharray:none;fill:none;fill-opacity:1;fill-rule: evenodd"/>
<path id="Sketch167_w0036"  d="M 19.70424937953536 -75.95406830819286 L 23.98658598751176 -79.99011676000048 " stroke="#000000" stroke-width="0.35 px" style="stroke-width:0.35;stroke-miterlimit:4;stroke-dasharray:none;fill:none;fill-opacity:1;fill-rule: evenodd"/>
<path id="Sketch167_w0037"  d="M 24.023071636986533 -75.76063724768505 L 21.297942581547836 -80.7108334081759 " stroke="#000000" stroke-width="0.35 px" style="stroke-width:0.35;stroke-miterlimit:4;stroke-dasharray:none;fill:none;fill-opacity:1;fill-rule: evenodd"/>
<path id="Sketch167_w0038"  d="M 12.502755166232006 -52.14332986241707 L 17.844035215490603 -54.84955953292762 " stroke="#000000" stroke-width="0.35 px" style="stroke-width:0.35;stroke-miterlimit:4;stroke-dasharray:none;fill:none;fill-opacity:1;fill-rule: evenodd"/>
<path id="Sketch167_w0039"  d="M 16.68700775524621 -50.56243731352506 L 15.18560670734806 -56.45498348750539 " stroke="#000000" stroke-width="0.35 px" style="stroke-width:0.35;stroke-miterlimit:4;stroke-dasharray:none;fill:none;fill-opacity:1;fill-rule: evenodd"/>
<path id="Sketch167_w0040"  d="M 35.1129010198364 -36.21761794984964 L 41.62222531635355 -39.01608433420722 " stroke="#000000" stroke-width="0.35 px" style="stroke-width:0.35;stroke-miterlimit:4;stroke-dasharray:none;fill:none;fill-opacity:1;fill-rule: evenodd"/>
<path id="Sketch167_w0041"  d="M 38.79370775722691 -34.009057719433976 L 38.327400303107254 -40.91731673633198 " stroke="#000000" stroke-width="0.35 px" style="stroke-width:0.35;stroke-miterlimit:4;stroke-dasharray:none;fill:none;fill-opacity:1;fill-rule: evenodd"/>
<path id="Sketch167_w0042"  d="M -15.0 -39.78751134078954 L -11.0 -39.78751134078954 L -11.0 -49.78751134078954 L -15.0 -49.78751134078954 L -15.0 -39.78751134078954 " stroke="#000000" stroke-width="0.35 px" style="stroke-width:0.35;stroke-miterlimit:4;stroke-dasharray:none;fill:none;fill-opacity:1;fill-rule: evenodd"/>
<path id="Sketch167_w0043"  d="M -97.81553167745804 -22.15169872158279 L -97.32693872349053 -8.160227116556285 L -111.31841032851705 -7.671634162588777 L -111.80700328248457 -21.66310576761529 L -97.81553167745804 -22.15169872158279 " stroke="#000000" stroke-width="0.35 px" style="stroke-width:0.35;stroke-miterlimit:4;stroke-dasharray:none;fill:none;fill-opacity:1;fill-rule: evenodd"/>
<path id="Sketch167_w0044"  d="M -102.3345846399331 -42.389814514012876 L -101.84599168596559 -28.398342908986372 L -115.8374632909921 -27.909749955018846 L -116.32605624495962 -41.90122156004536 L -102.3345846399331 -42.38981451401288 " stroke="#000000" stroke-width="0.35 px" style="stroke-width:0.35;stroke-miterlimit:4;stroke-dasharray:none;fill:none;fill-opacity:1;fill-rule: evenodd"/>
<path id="Sketch167_w0045"  d="M -106.23594721769213 -61.31518772140779 L -105.74735426372462 -47.323716116381284 L -119.73882586875112 -46.83512316241376 L -120.22741882271865 -60.82659476744028 L -106.23594721769214 -61.31518772140778 " stroke="#000000" stroke-width="0.35 px" style="stroke-width:0.35;stroke-miterlimit:4;stroke-dasharray:none;fill:none;fill-opacity:1;fill-rule: evenodd"/>
<path id="Sketch167_w0046"  d="M -77.97913453016047 -21.07905288462397 L -76.27296370763571 -7.183406803095856 L -90.16860978916382 -5.477235980571121 L -91.87478061168858 -19.372882062099233 L -77.97913453016047 -21.079052884623966 " stroke="#000000" stroke-width="0.35 px" style="stroke-width:0.35;stroke-miterlimit:4;stroke-dasharray:none;fill:none;fill-opacity:1;fill-rule: evenodd"/>
<path id="Sketch167_w0047"  d="M -59.17025204216176 -23.54507963771281 L -56.25948840377764 -9.851013197175469 L -69.95355484431497 -6.9402495587913435 L -72.86431848269909 -20.634315999328685 L -59.170252042161756 -23.54507963771281 " stroke="#000000" stroke-width="0.35 px" style="stroke-width:0.35;stroke-miterlimit:4;stroke-dasharray:none;fill:none;fill-opacity:1;fill-rule: evenodd"/>
<path id="Sketch167_w0048"  d="M -63.130969742568524 -42.1787914403908 L -60.2202061041844 -28.484724999853462 L -73.91427254472174 -25.573961361469337 L -76.82503618310587 -39.26802780200667 L -63.130969742568524 -42.178791440390796 " stroke="#000000" stroke-width="0.35 px" style="stroke-width:0.35;stroke-miterlimit:4;stroke-dasharray:none;fill:none;fill-opacity:1;fill-rule: evenodd"/>
<path id="Sketch167_w0049"  d="M -82.27957478291047 -40.64045626099638 L -79.36881114452635 -26.94638982045904 L -93.06287758506369 -24.035626182074914 L -95.97364122344781 -37.729692622612255 L -82.27957478291049 -40.64045626099639 " stroke="#000000" stroke-width="0.35 px" style="stroke-width:0.35;stroke-miterlimit:4;stroke-dasharray:none;fill:none;fill-opacity:1;fill-rule: evenodd"/>
<path id="Sketch167_w0050"  d="M -67.0916874429753 -60.8125032430688 L -64.18092380459117 -47.11843680253147 L -77.8749902451285 -44.207673164147344 L -80.78575388351263 -57.90173960468467 L -67.0916874429753 -60.8125032430688 " stroke="#000000" stroke-width="0.35 px" style="stroke-width:0.35;stroke-miterlimit:4;stroke-dasharray:none;fill:none;fill-opacity:1;fill-rule: evenodd"/>
<path id="Sketch167_w0051"  d="M -86.24029248331725 -59.274168063674374 L -83.32952884493312 -45.58010162313703 L -97.02359528547046 -42.66933798475291 L -99.93435892385457 -56.36340442529025 L -86.24029248331723 -59.274168063674374 " stroke="#000000" stroke-width="0.35 px" style="stroke-width:0.35;stroke-miterlimit:4;stroke-dasharray:none;fill:none;fill-opacity:1;fill-rule: evenodd"/>
<path id="Sketch167_w0052"  d="M -36.5623090334952 -21.4769165760704 L -40.185775639949064 -34.999878214774625 L -53.70873727865329 -31.376411608320744 L -50.085270672199414 -17.85344996961654 L -36.56230903349854 -21.476809627769246 " stroke="#000000" stroke-width="0.35 px" style="stroke-width:0.35;stroke-miterlimit:4;stroke-dasharray:none;fill:none;fill-opacity:1;fill-rule: evenodd"/>
<path id="Sketch167_w0053"  d="M -18.286455715441917 -28.34611815894855 L -21.909921183120026 -41.86907979765276 L -35.43288282182425 -38.24561319119889 L -31.80941621537039 -24.72265155249469 L -18.286454576666166 -28.34611815894856 " stroke="#000000" stroke-width="0.35 px" style="stroke-width:0.35;stroke-miterlimit:4;stroke-dasharray:none;fill:none;fill-opacity:1;fill-rule: evenodd"/>
<path id="Sketch167_w0054"  d="M -44.196234089736265 -53.647290322928185 L -40.57276748328239 -40.124328684223975 L -54.09572912198661 -36.500862077770115 L -57.719195728440475 -50.023823716474325 L -44.196234089736265 -53.6472903229282 " stroke="#000000" stroke-width="0.35 px" style="stroke-width:0.35;stroke-miterlimit:4;stroke-dasharray:none;fill:none;fill-opacity:1;fill-rule: evenodd"/>
<path id="Sketch167_w0055"  d="M -26.288397341375653 -60.417881822801775 L -22.664930734921768 -46.89492018409755 L -36.187892373625985 -43.271453577643676 L -39.81135898007985 -56.794415216347886 L -26.288397341375642 -60.417881822801775 " stroke="#000000" stroke-width="0.35 px" style="stroke-width:0.35;stroke-miterlimit:4;stroke-dasharray:none;fill:none;fill-opacity:1;fill-rule: evenodd"/>
<path id="Sketch167_w0056"  d="M -48.57471024275826 -72.19609244794015 L -44.95124363630438 -58.673130809235936 L -58.4742052750086 -55.04966420278205 L -62.09767188146246 -68.57262584148629 L -48.57471024275826 -72.19609244794015 " stroke="#000000" stroke-width="0.35 px" style="stroke-width:0.35;stroke-miterlimit:4;stroke-dasharray:none;fill:none;fill-opacity:1;fill-rule: evenodd"/>
<path id="Sketch167_w0057"  d="M -40.56636862651092 -61.820255707889224 L -27.043406987806716 -65.44372231434309 L -30.66687359426059 -78.9666839530473 L -44.189835232964796 -75.34321734659343 L -40.56636862651092 -61.820255707889224 " stroke="#000000" stroke-width="0.35 px" style="stroke-width:0.35;stroke-miterlimit:4;stroke-dasharray:none;fill:none;fill-opacity:1;fill-rule: evenodd"/>
<path id="Sketch167_w0058"  d="M -64.45095164392558 -88.6445076045285 L -58.095084644799044 -76.17041631880087 L -70.56917593052667 -69.81454931967434 L -76.92504292965319 -82.28864060540198 L -64.45095164392558 -88.64450760452851 " stroke="#000000" stroke-width="0.35 px" style="stroke-width:0.35;stroke-miterlimit:4;stroke-dasharray:none;fill:none;fill-opacity:1;fill-rule: evenodd"/>
<path id="Sketch167_w0059"  d="M -47.477277400173016 -97.29302662676984 L -41.12141040104649 -84.81893534104222 L -53.595501686774114 -78.46306834191572 L -59.95136868590065 -90.93715962764333 L -47.47727740017302 -97.29302662676986 " stroke="#000000" stroke-width="0.35 px" style="stroke-width:0.35;stroke-miterlimit:4;stroke-dasharray:none;fill:none;fill-opacity:1;fill-rule: evenodd"/>
<path id="Sketch167_w0060"  d="M -30.503603056557516 -105.94154564377764 L -24.14773605743099 -93.46745435805002 L -36.62182734315863 -87.11158735892349 L -42.97769434228516 -99.5856786446511 L -30.50360305655753 -105.94154564377763 " stroke="#000000" stroke-width="0.35 px" style="stroke-width:0.35;stroke-miterlimit:4;stroke-dasharray:none;fill:none;fill-opacity:1;fill-rule: evenodd"/>
<path id="Sketch167_w0061"  d="M -100.25783888554751 -22.066411474681086 L -107.15363559199305 -21.825604947828616 L -100.25783888554751 -22.066411474681086 M -100.25783888554751 -22.066411474681086 L -100.44978611709658 -27.563061023297102 L -107.34558282354212 -27.32225449644463 L -107.15363559199305 -21.825604947828616 " stroke="#000000" stroke-width="0.35 px" style="stroke-width:0.35;stroke-miterlimit:4;stroke-dasharray:none;fill:none;fill-opacity:1;fill-rule: evenodd"/>
<path id="Sketch167_w0062"  d="M -54.16274850519347 -24.14940407362611 L -55.30626278984508 -29.529215880817667 L -62.055481238867216 -28.094625232800194 L -60.91196695421561 -22.714813425608632 L -54.16274850519347 -24.14940407362611 " stroke="#000000" stroke-width="0.35 px" style="stroke-width:0.35;stroke-miterlimit:4;stroke-dasharray:none;fill:none;fill-opacity:1;fill-rule: evenodd"/>
<path id="Sketch167_w0063"  d="M -101.78064607788762 -41.958884124688076 L -101.97259330949832 -47.45553367333386 L -108.86839001588363 -47.21472714648269 L -108.67644278433316 -41.71807759783499 L -101.78064607788762 -41.958884124688076 " stroke="#000000" stroke-width="0.35 px" style="stroke-width:0.35;stroke-miterlimit:4;stroke-dasharray:none;fill:none;fill-opacity:1;fill-rule: evenodd"/>
<path id="Sketch167_w0064"  d="M -66.93371864545087 -60.14902626867569 L -68.4219977901829 -65.4438374255873 L -61.815025973120235 -67.30094206516092 L -60.38081793720077 -62.19849825494013 L -67.0233992067808 -60.33138441882175 " stroke="#000000" stroke-width="0.35 px" style="stroke-width:0.35;stroke-miterlimit:4;stroke-dasharray:none;fill:none;fill-opacity:1;fill-rule: evenodd"/>
<path id="Sketch167_w0065"  d="M -38.75526648999877 -82.49342368712873 L -32.09037805594564 -84.27927423004235 L -30.666874 -78.966682 L -37.331762434053125 -77.18083145708638 L -38.75526648999877 -82.49342368712873 " stroke="#000000" stroke-width="0.35 px" style="stroke-width:0.35;stroke-miterlimit:4;stroke-dasharray:none;fill:none;fill-opacity:1;fill-rule: evenodd"/>
<circle cx="-24.14773605743099" cy="-93.46745435805002" r="1.0" stroke="#000000" stroke-width="0.35 px" style="stroke-width:0.35;stroke-miterlimit:4;stroke-dasharray:none;fill:none"/>
<path id="Sketch167_w0067"  d="M -92.37751022263748 -17.97278121902415 L -96.45010885893338 -23.746125369220792 " stroke="#000000" stroke-width="0.35 px" style="stroke-width:0.35;stroke-miterlimit:4;stroke-dasharray:none;fill:none;fill-opacity:1;fill-rule: evenodd"/>
<path id="Sketch167_w0068"  d="M -97.31331673761511 -17.921594346830116 L -92.16621699543599 -24.005841774656215 " stroke="#000000" stroke-width="0.35 px" style="stroke-width:0.35;stroke-miterlimit:4;stroke-dasharray:none;fill:none;fill-opacity:1;fill-rule: evenodd"/>
<path id="Sketch167_w0069"  d="M -100.55375736850435 -53.37961439711172 L -105.20925157861797 -59.41661509312281 " stroke="#000000" stroke-width="0.35 px" style="stroke-width:0.35;stroke-miterlimit:4;stroke-dasharray:none;fill:none;fill-opacity:1;fill-rule: evenodd"/>
<path id="Sketch167_w0070"  d="M -105.23230920144422 -54.18630995290968 L -101.64252536570348 -59.20640109436758 " stroke="#000000" stroke-width="0.35 px" style="stroke-width:0.35;stroke-miterlimit:4;stroke-dasharray:none;fill:none;fill-opacity:1;fill-rule: evenodd"/>
<path id="Sketch167_w0071"  d="M -52.4892909762129 -71.0036570413299 L -58.90656067884001 -74.26295739744887 " stroke="#000000" stroke-width="0.35 px" style="stroke-width:0.35;stroke-miterlimit:4;stroke-dasharray:none;fill:none;fill-opacity:1;fill-rule: evenodd"/>
<path id="Sketch167_w0072"  d="M -57.93128170759444 -68.45484820613378 L -55.93240748133689 -75.49093833901505 " stroke="#000000" stroke-width="0.35 px" style="stroke-width:0.35;stroke-miterlimit:4;stroke-dasharray:none;fill:none;fill-opacity:1;fill-rule: evenodd"/>
<path id="Sketch167_w0073"  d="M -21.61632869750142 -86.14270807721 L -28.433303899881462 -88.8238129848024 " stroke="#000000" stroke-width="0.35 px" style="stroke-width:0.35;stroke-miterlimit:4;stroke-dasharray:none;fill:none;fill-opacity:1;fill-rule: evenodd"/>
<path id="Sketch167_w0074"  d="M -28.493818248099423 -85.37044405662823 L -23.414037579928777 -90.32417298039292 " stroke="#000000" stroke-width="0.35 px" style="stroke-width:0.35;stroke-miterlimit:4;stroke-dasharray:none;fill:none;fill-opacity:1;fill-rule: evenodd"/>
<path id="Sketch167_w0075"  d="M -19.70424937953536 -75.95406830819286 L -23.98658598751176 -79.99011676000048 " stroke="#000000" stroke-width="0.35 px" style="stroke-width:0.35;stroke-miterlimit:4;stroke-dasharray:none;fill:none;fill-opacity:1;fill-rule: evenodd"/>
<path id="Sketch167_w0076"  d="M -24.023071636986533 -75.76063724768505 L -21.297942581547836 -80.7108334081759 " stroke="#000000" stroke-width="0.35 px" style="stroke-width:0.35;stroke-miterlimit:4;stroke-dasharray:none;fill:none;fill-opacity:1;fill-rule: evenodd"/>
<path id="Sketch167_w0077"  d="M -12.502755166232006 -52.14332986241707 L -17.844035215490603 -54.84955953292762 " stroke="#000000" stroke-width="0.35 px" style="stroke-width:0.35;stroke-miterlimit:4;stroke-dasharray:none;fill:none;fill-opacity:1;fill-rule: evenodd"/>
<path id="Sketch167_w0078"  d="M -16.68700775524621 -50.56243731352506 L -15.18560670734806 -56.45498348750539 " stroke="#000000" stroke-width="0.35 px" style="stroke-width:0.35;stroke-miterlimit:4;stroke-dasharray:none;fill:none;fill-opacity:1;fill-rule: evenodd"/>
<path id="Sketch167_w0079"  d="M -35.1129010198364 -36.21761794984964 L -41.62222531635355 -39.01608433420722 " stroke="#000000" stroke-width="0.35 px" style="stroke-width:0.35;stroke-miterlimit:4;stroke-dasharray:none;fill:none;fill-opacity:1;fill-rule: evenodd"/>
<path id="Sketch167_w0080"  d="M -38.79370775722691 -34.009057719433976 L -38.327400303107254 -40.91731673633198 " stroke="#000000" stroke-width="0.35 px" style="stroke-width:0.35;stroke-miterlimit:4;stroke-dasharray:none;fill:none;fill-opacity:1;fill-rule: evenodd"/>
<title>b'Sketch167'</title>
</g>
</svg>