<?xml version="1.0"?>
<!DOCTYPE svg PUBLIC "-//W3C//DTD SVG 1.1//EN" "http://www.w3.org/Graphics/SVG/1.1/DTD/svg11.dtd">
<svg width="255.6713057534304mm" height="116.84476548054089mm" viewBox="0 0 255.6713057534304 116.84476548054089" xmlns="http://www.w3.org/2000/svg" version="1.1">
<g id="Sketch168" transform="translate(127.835653,2.362151) scale(1,-1)">
<path id="Sketch168_w0000"  d="M -114.14208532635391 -2.5699815375474433 A 2 2 0 0 1 -116.211 -4.49896L -116.85224931131913 -22.87150718699639 L -118.6611467315283 -22.80833909725473 A 2 2 0 0 1 -120.73 -24.7373L -121.32475535297328 -41.77669356307169 L -123.56189169360907 -41.69857104072697 A 1 1 0 0 1 -124.596 -42.6631L -125.32907144776 -63.65026976527712 A 2 2 0 0 1 -123.4 -65.7189L -103.40766356682587 -66.41700128415896 A 2 2 0 0 1 -101.339 -64.488L -101.22429501184206 -61.20092302070084 L -83.3672605186795 -64.996552822686 A 1 1 0 0 1 -82.1812 -64.2263L -81.87698663630954 -62.795099756369424 L -73.51035051052641 -64.57348313987848 L -82.74204705057639 -82.6917076682623 A 2 2 0 0 1 -81.868 -85.3817L -30.10053603001647 -111.75854983598137 A 2 2 0 0 1 -27.4105 -110.885L -15.122360760295063 -86.76760434864978 L 0.0 -86.76760434864978 L 15.122360760295063 -86.76760434864978 L 27.4105419805068 -110.8845177921738 A 2 2 0 0 1 30.1005 -111.759L 81.86801500676881 -85.38170171777197 A 2 2 0 0 1 82.742 -82.6917L 73.51035051052641 -64.57348313987848 L 81.87698663630954 -62.795099756369424 L 82.18120122925347 -64.22631690949693 A 1 1 0 0 1 83.3673 -64.9966L 101.22429501184206 -61.20092302070084 L 101.33908291949311 -64.48801862340734 A 2 2 0 0 1 103.408 -66.417L 123.40008878700839 -65.71885041260988 A 2 2 0 0 1 125.329 -63.6503L 124.59618201727544 -42.663062371102775 A 1 1 0 0 1 123.562 -41.6986L 121.32475535297328 -41.77669356307169 L 120.72972737886107 -24.737321758006342 A 2 2 0 0 1 118.661 -22.8083L 116.85224931131913 -22.87150718699639 L 116.21066597368667 -4.4989641982990545 A 2 2 0 0 1 114.142 -2.56998L 94.93156251464774 -3.240827775369907 L 94.76573251208364 -1.8902508021219073 A 2 2 0 0 1 92.5369 -0.148897L 74.10281632285555 -2.412318271776397 L 74.0126460983789 -1.9881007129687316 A 1 1 0 0 1 72.8266 -1.21786L 52.2824584205714 -5.584654033266778 A 2 2 0 0 1 50.742 -7.95677L 51.65586896494016 -12.256251188397707 L 31.404510002576902 -17.682426241427407 A 1 1 0 0 1 30.6974 -18.9072L 30.931661719035336 -19.78146426024258 L 13.968596738088362 -24.326206667809544 A 3 3 0 0 1 11.8157 -26.5762L 10.0 -34.786868405477236 L 10.0 -73.78686840547724 L 0.0 -73.78686840547724 L -10.0 -73.78686840547724 L -10.0 -34.786868405477236 L -11.81574703087987 -26.576220187142887 A 3 3 0 0 1 -13.9686 -24.3262L -30.931661719035336 -19.78146426024258 L -30.69739609022114 -18.90717302044511 A 1 1 0 0 1 -31.4045 -17.6824L -51.65586896494016 -12.256251188397707 L -50.74198659419324 -7.956772612118843 A 2 2 0 0 1 -52.2825 -5.58465L -72.82658680895285 -1.2178647997796523 A 1 1 0 0 1 -74.0126 -1.9881L -74.10281632285555 -2.412318271776397 L -92.53690151952875 -0.14889718880072667 A 2 2 0 0 1 -94.7657 -1.89025L -94.93156251464774 -3.240827775369907 L -114.14208532635391 -2.5699815375474433 " stroke="#000000" stroke-width="0.35 px" style="stroke-width:0.35;stroke-miterlimit:4;stroke-dasharray:none;fill:none;fill-opacity:1;fill-rule: evenodd"/>
<title>b'Sketch168'</title>
</g>
</svg>