%TF.GenerationSoftware,KiCad,Pcbnew,(6.0.6)*%
%TF.CreationDate,2022-07-10T22:01:45+09:00*%
%TF.ProjectId,nowt,6e6f7774-2e6b-4696-9361-645f70636258,rev?*%
%TF.SameCoordinates,Original*%
%TF.FileFunction,Soldermask,Top*%
%TF.FilePolarity,Negative*%
%FSLAX46Y46*%
G04 Gerber Fmt 4.6, Leading zero omitted, Abs format (unit mm)*
G04 Created by KiCad (PCBNEW (6.0.6)) date 2022-07-10 22:01:45*
%MOMM*%
%LPD*%
G01*
G04 APERTURE LIST*
%TA.AperFunction,Profile*%
%ADD10C,0.349999*%
%TD*%
%ADD11R,1.500000X1.000000*%
%ADD12C,4.300000*%
%ADD13C,1.900000*%
%ADD14C,3.000000*%
%ADD15C,4.100000*%
%ADD16C,2.000000*%
G04 APERTURE END LIST*
D10*
X72732052Y-26633205D02*
X72684562Y-26643585D01*
X179229312Y-137667739D02*
X179229312Y-137667739D01*
X270294066Y-91684858D02*
X270321484Y-91591155D01*
X196459436Y-32146363D02*
X196458571Y-32196008D01*
X230533221Y-108676893D02*
X230556741Y-108580901D01*
X262154177Y-29918351D02*
X262154177Y-29918351D01*
X31517647Y-28000906D02*
X31420438Y-28014372D01*
X239057900Y-26212028D02*
X239004616Y-26130299D01*
X239312655Y-26847300D02*
X239312655Y-26847300D01*
X197104277Y-31254241D02*
X197057938Y-31273081D01*
X30308662Y-28594722D02*
X30241604Y-28667264D01*
X266173669Y-50734683D02*
X266105080Y-50667580D01*
X115182141Y-43611429D02*
X115158412Y-43567870D01*
X95089535Y-31428482D02*
X95051952Y-31397916D01*
X140961129Y-70437724D02*
X140954768Y-70387679D01*
X61312380Y-107899411D02*
X61302364Y-107996489D01*
X158350196Y-50718048D02*
X158267650Y-50819922D01*
X26536623Y-50228640D02*
X26444609Y-50261262D01*
X115292264Y-44083444D02*
X115291830Y-44034582D01*
X246454202Y-92234775D02*
X246479056Y-92329472D01*
X140919427Y-60041605D02*
X140906354Y-59994511D01*
X115283828Y-43937348D02*
X115276284Y-43889153D01*
X159215351Y-50134709D02*
X159090155Y-50182210D01*
X260959039Y-28156219D02*
X260869103Y-28119283D01*
X238606083Y-25701634D02*
X238527461Y-25641840D01*
X157961692Y-51404106D02*
X157923999Y-51533734D01*
X23082637Y-69067515D02*
X23034527Y-69076596D01*
X150332259Y-71209324D02*
X150286748Y-71226887D01*
X21719967Y-91967790D02*
X21765159Y-92053167D01*
X270184942Y-91956298D02*
X270225732Y-91867596D01*
X261926812Y-29058686D02*
X261879662Y-28974045D01*
X22355374Y-69595762D02*
X22334060Y-69639653D01*
X22115069Y-92509003D02*
X22185383Y-92574359D01*
X151121017Y-59727217D02*
X151094989Y-59767715D01*
X133937526Y-51404093D02*
X133891589Y-51278317D01*
X270388610Y-91105950D02*
X270387606Y-91006736D01*
X176607371Y-44034612D02*
X176606939Y-44083476D01*
X45123022Y-92941581D02*
X45178184Y-92860700D01*
X196464389Y-32296279D02*
X196471169Y-32346757D01*
X140753275Y-59690353D02*
X140723020Y-59651530D01*
X115428202Y-137033728D02*
X127074427Y-118396346D01*
X115203592Y-43655914D02*
X115182141Y-43611429D01*
X23034527Y-69076596D02*
X22987000Y-69088000D01*
X270139818Y-92043001D02*
X270184942Y-91956298D01*
X115289014Y-43985854D02*
X115283828Y-43937348D01*
X150853716Y-70712723D02*
X150831790Y-70756332D01*
X219850350Y-27125968D02*
X219825312Y-27083788D01*
X196676131Y-31566918D02*
X196647174Y-31605205D01*
X72192515Y-26930397D02*
X72160257Y-26966351D01*
X265717927Y-50384675D02*
X265632564Y-50339464D01*
X266685037Y-51658970D02*
X266659348Y-51563062D01*
X247792500Y-93679900D02*
X247886202Y-93707303D01*
X132929984Y-50237615D02*
X132809048Y-50182236D01*
X159090155Y-50182210D02*
X158969219Y-50237593D01*
X248371389Y-93774355D02*
X248470599Y-93773337D01*
X72336989Y-26803832D02*
X72298703Y-26832788D01*
X237527444Y-25270441D02*
X237429897Y-25264460D01*
X150781583Y-70840244D02*
X150753369Y-70880384D01*
X31714403Y-27988342D02*
X31615691Y-27992209D01*
X53453532Y-25585768D02*
X53371694Y-25641844D01*
X177208207Y-43150756D02*
X177163704Y-43171411D01*
X176998061Y-43274526D02*
X176960094Y-43305158D01*
X114939113Y-43305142D02*
X114901148Y-43274510D01*
X114893202Y-137602513D02*
X114971278Y-137543905D01*
X30530817Y-28397626D02*
X30453761Y-28459444D01*
X246433973Y-92138751D02*
X246454202Y-92234775D01*
X261773790Y-28812742D02*
X261715327Y-28736324D01*
X239193221Y-26471921D02*
X239152303Y-26382985D01*
X219637436Y-26863558D02*
X219600545Y-26832779D01*
X94886303Y-31294074D02*
X94841302Y-31273092D01*
X141847361Y-71280237D02*
X141797317Y-71273879D01*
X145949603Y-71285399D02*
X141949603Y-71285399D01*
X150286748Y-71226887D02*
X150240408Y-71242218D01*
X140938638Y-60137704D02*
X140930200Y-60089363D01*
X22247560Y-69970004D02*
X22244601Y-70019530D01*
X177345170Y-137797033D02*
X177435668Y-137835152D01*
X22668216Y-92890970D02*
X22757716Y-92929939D01*
X220263125Y-28851722D02*
X219956149Y-27407487D01*
X265362947Y-50228750D02*
X265268999Y-50200556D01*
X23039268Y-93020588D02*
X23137067Y-93041620D01*
X94381060Y-126216544D02*
X112670657Y-137669425D01*
X115187462Y-137345843D02*
X115253027Y-137272754D01*
X73129115Y-26637251D02*
X73129115Y-26637251D01*
X52951753Y-26051269D02*
X52894548Y-26130303D01*
X268943344Y-92998125D02*
X269036563Y-92968736D01*
X177816101Y-137942532D02*
X177913822Y-137957446D01*
X177300430Y-43115971D02*
X177253806Y-43132258D01*
X150807735Y-70798866D02*
X150781583Y-70840244D01*
X218871195Y-26621047D02*
X218820719Y-26627828D01*
X140504178Y-59453294D02*
X140462782Y-59427148D01*
X61552420Y-109132568D02*
X61602451Y-109216748D01*
X62217312Y-109837216D02*
X62301801Y-109888442D01*
X140949603Y-60285399D02*
X140948373Y-60235804D01*
X268458163Y-93075324D02*
X268557205Y-93069429D01*
X29797051Y-29527887D02*
X29776817Y-29623916D01*
X22244601Y-70019530D02*
X22244601Y-70019530D01*
X115118553Y-137415467D02*
X115187462Y-137345843D01*
X158061496Y-51156710D02*
X158007627Y-51278328D01*
X29851319Y-29339973D02*
X29821909Y-29433185D01*
X178876335Y-137843293D02*
X178967259Y-137806200D01*
X164824786Y-118396346D02*
X176470996Y-137034179D01*
X140462782Y-59427148D02*
X140420230Y-59403099D01*
X22297966Y-69730316D02*
X22283260Y-69776925D01*
X178499446Y-137945570D02*
X178595296Y-137926974D01*
X115276284Y-43889153D02*
X115266393Y-43841357D01*
X248077439Y-93748304D02*
X248174642Y-93761776D01*
X141028196Y-70674672D02*
X141010290Y-70629262D01*
X261447666Y-28461694D02*
X261372948Y-28401404D01*
X150891043Y-70622609D02*
X150873479Y-70668121D01*
X269299612Y-69290022D02*
X269261076Y-69259113D01*
X239261986Y-26655976D02*
X239229815Y-26562966D01*
X177913822Y-137957446D02*
X178011802Y-137967483D01*
X113209932Y-137904890D02*
X113304821Y-137928071D01*
X176780956Y-137415745D02*
X176853122Y-137481756D01*
X45672885Y-86820426D02*
X69356166Y-91854468D01*
X115158412Y-43567870D02*
X115132554Y-43525540D01*
X230471809Y-108865618D02*
X230504855Y-108772017D01*
X176711987Y-137346163D02*
X176780956Y-137415745D01*
X150620761Y-71026747D02*
X150583343Y-71058982D01*
X95051952Y-31397916D02*
X95012789Y-31369118D01*
X260683118Y-28058482D02*
X260587328Y-28034860D01*
X269494489Y-69511261D02*
X269466900Y-69470816D01*
X140873441Y-59902645D02*
X140853670Y-59858037D01*
X151473461Y-59407678D02*
X151431616Y-59431704D01*
X266555503Y-51287900D02*
X266512395Y-51200771D01*
X23440608Y-93075339D02*
X23440608Y-93075339D01*
X114645407Y-43132242D02*
X114598783Y-43115955D01*
X30864014Y-28191826D02*
X30777302Y-28236931D01*
X114974765Y-45384867D02*
X114974765Y-45384867D01*
X30610536Y-28339893D02*
X30530817Y-28397626D01*
X61296583Y-108191587D02*
X61300846Y-108289253D01*
X248470599Y-93773337D02*
X248470599Y-93773337D01*
X269128133Y-92934870D02*
X269217892Y-92896599D01*
X141390504Y-71114626D02*
X141351298Y-71086747D01*
X53012778Y-25975076D02*
X52951753Y-26051269D01*
X21512065Y-91006743D02*
X21511073Y-91109676D01*
X141177966Y-70921511D02*
X141148279Y-70883736D01*
X44106924Y-93679847D02*
X44199121Y-93647921D01*
X150970238Y-60084182D02*
X150961375Y-60133354D01*
X72025857Y-27169584D02*
X72004876Y-27214584D01*
X52841264Y-26212031D02*
X52792002Y-26296309D01*
X23279246Y-69055037D02*
X23229635Y-69054517D01*
X219956149Y-27407487D02*
X219944177Y-27357423D01*
X248174642Y-93761776D02*
X248272681Y-93770481D01*
X71943103Y-27407483D02*
X71636073Y-28851722D01*
X268458163Y-93075324D02*
X268458163Y-93075324D01*
X21609315Y-91698138D02*
X21641924Y-91790146D01*
X230122960Y-109453058D02*
X230184579Y-109377345D01*
X95012789Y-31369118D02*
X94972095Y-31342162D01*
X266594451Y-51377406D02*
X266555503Y-51287900D01*
X151949603Y-59287265D02*
X151898208Y-59288563D01*
X247110844Y-93303191D02*
X247187893Y-93365010D01*
X54763267Y-25275298D02*
X54665214Y-25266857D01*
X21538593Y-91410930D02*
X21557528Y-91508400D01*
X145949603Y-112396346D02*
X145949603Y-112396346D01*
X22047981Y-92440397D02*
X22115069Y-92509003D01*
X61342415Y-108580593D02*
X61365912Y-108676563D01*
X237233945Y-25266856D02*
X237135890Y-25275297D01*
X112670657Y-137669425D02*
X112756081Y-137719996D01*
X133264176Y-50447946D02*
X133157854Y-50370781D01*
X269645899Y-69920900D02*
X269638131Y-69872298D01*
X269180093Y-69203455D02*
X269137812Y-69178767D01*
X113497318Y-137960397D02*
X113594575Y-137969484D01*
X229916846Y-109661084D02*
X229988978Y-109595063D01*
X158191814Y-50927198D02*
X158122994Y-51039564D01*
X157923999Y-51533734D02*
X155949603Y-59287265D01*
X265544860Y-50298325D02*
X265454944Y-50261380D01*
X150656695Y-70992553D02*
X150656695Y-70992553D01*
X72160257Y-26966351D02*
X72129692Y-27003934D01*
X266300965Y-50878440D02*
X266239007Y-50805010D01*
X45063825Y-93019842D02*
X45123022Y-92941581D01*
X43528069Y-93774327D02*
X43626771Y-93770447D01*
X140853670Y-59858037D02*
X140831733Y-59814422D01*
X45491674Y-91943369D02*
X45497592Y-91844336D01*
X247609764Y-93611596D02*
X247700299Y-93647977D01*
X52792002Y-26296309D02*
X52746861Y-26382988D01*
X151797501Y-59298759D02*
X151748313Y-59307532D01*
X72977762Y-26616866D02*
X72927767Y-26615232D01*
X266739703Y-52060307D02*
X266733510Y-51957559D01*
X262099500Y-29516948D02*
X262073804Y-29421026D01*
X238753273Y-25831794D02*
X238681388Y-25765001D01*
X22335202Y-92694801D02*
X22414466Y-92749628D01*
X72298703Y-26832788D02*
X72261812Y-26863567D01*
X140286457Y-59343876D02*
X140240100Y-59328556D01*
X22848752Y-69135837D02*
X22804390Y-69156220D01*
X128682116Y-112396346D02*
X145949603Y-112396346D01*
X151314130Y-59515102D02*
X151277860Y-59546467D01*
X176960094Y-43305158D02*
X176923646Y-43337623D01*
X269474688Y-92756095D02*
X269555588Y-92700942D01*
X264774532Y-50130367D02*
X264671603Y-50131333D01*
X247349815Y-93476333D02*
X247434356Y-93525712D01*
X72073941Y-27083793D02*
X72048903Y-27125971D01*
X25940783Y-50543395D02*
X25866068Y-50603686D01*
X261828611Y-28892023D02*
X261773790Y-28812742D01*
X95348682Y-31770834D02*
X95327499Y-31727711D01*
X140949603Y-60285399D02*
X140949603Y-60285399D01*
X112932800Y-137807635D02*
X113023746Y-137844643D01*
X269217892Y-92896599D02*
X269305679Y-92853997D01*
X269654238Y-70019530D02*
X269654238Y-70019530D01*
X151048774Y-59852556D02*
X151028712Y-59896776D01*
X133157854Y-50370781D02*
X133046355Y-50300567D01*
X261715327Y-28736324D02*
X261653353Y-28662888D01*
X115253027Y-137272754D02*
X115315101Y-137196304D01*
X140656558Y-59578173D02*
X140656558Y-59578173D01*
X62301801Y-109888442D02*
X62389102Y-109935630D01*
X265800820Y-50433838D02*
X265717927Y-50384675D01*
X95252051Y-31605223D02*
X95223095Y-31566935D01*
X25386945Y-51200681D02*
X25343828Y-51287821D01*
X43822001Y-93748261D02*
X43918198Y-93730079D01*
X266239007Y-50805010D02*
X266173669Y-50734683D01*
X269305679Y-92853997D02*
X269391331Y-92807138D01*
X261587999Y-28592557D02*
X261519393Y-28525452D01*
X239706683Y-28701015D02*
X239706683Y-28701015D01*
X176606939Y-44083476D02*
X176608899Y-44132386D01*
X270225732Y-91867596D02*
X270262128Y-91777060D01*
X237429897Y-25264460D02*
X237332006Y-25263255D01*
X219929842Y-27308552D02*
X219913217Y-27260923D01*
X114861734Y-43245766D02*
X114820942Y-43218963D01*
X133631557Y-50819922D02*
X133549010Y-50718051D01*
X45229237Y-92777362D02*
X45276108Y-92691728D01*
X53988458Y-25341472D02*
X53895246Y-25370843D01*
X230499626Y-107518401D02*
X230466082Y-107425818D01*
X176525722Y-137117016D02*
X176584226Y-137196695D01*
X72048903Y-27125971D02*
X72025857Y-27169584D01*
X230556741Y-108580901D02*
X230575429Y-108484219D01*
X45480912Y-92041559D02*
X45491674Y-91943369D01*
X150949603Y-70285399D02*
X150949603Y-70285399D01*
X176853122Y-137481756D02*
X176928342Y-137544091D01*
X95327499Y-31727711D02*
X95304301Y-31685685D01*
X25304873Y-51377337D02*
X25270208Y-51469110D01*
X266512395Y-51200771D02*
X266465258Y-51116139D01*
X270262128Y-91777060D02*
X270294066Y-91684858D01*
X115428202Y-137033728D02*
X115428202Y-137033728D01*
X140950905Y-70336896D02*
X140949603Y-70285437D01*
X237135890Y-25275297D02*
X237038015Y-25288610D01*
X197487612Y-126216643D02*
X229509402Y-109935973D01*
X145949603Y-112396346D02*
X163217089Y-112396346D01*
X158122994Y-51039564D02*
X158061496Y-51156710D01*
X150949603Y-60285434D02*
X150949603Y-70285399D01*
X95440628Y-32196018D02*
X95439765Y-32146374D01*
X230552663Y-107707165D02*
X230528490Y-107612242D01*
X141094387Y-70803959D02*
X141070307Y-70762083D01*
X140331985Y-59361429D02*
X140286457Y-59343876D01*
X133549010Y-50718051D02*
X133460060Y-50621891D01*
X266659348Y-51563062D02*
X266629109Y-51469167D01*
X114554688Y-137797130D02*
X114642959Y-137754655D01*
X22894029Y-69117651D02*
X22848752Y-69135837D01*
X178690178Y-137903709D02*
X178783916Y-137875806D01*
X22849472Y-92964618D02*
X22943363Y-92994878D01*
X114901148Y-43274510D02*
X114861734Y-43245766D01*
X52894548Y-26130303D02*
X52841264Y-26212031D01*
X25725741Y-50734551D02*
X25660389Y-50804882D01*
X158267650Y-50819922D02*
X158191814Y-50927198D01*
X114642959Y-137754655D02*
X114728898Y-137707991D01*
X230184579Y-109377345D02*
X230242463Y-109298670D01*
X29966118Y-29070885D02*
X29923497Y-29158661D01*
X265268999Y-50200556D02*
X265173229Y-50176919D01*
X115075086Y-43445461D02*
X115043617Y-43407821D01*
X95192318Y-31530043D02*
X95159766Y-31494620D01*
X219070327Y-26619406D02*
X219021109Y-26616091D01*
X61309896Y-108386761D02*
X61323748Y-108483933D01*
X264976744Y-50143801D02*
X264876289Y-50134563D01*
X25598418Y-50878318D02*
X25539959Y-50954737D01*
X246401766Y-91844329D02*
X246407681Y-91943366D01*
X22718747Y-69203458D02*
X22677632Y-69230251D01*
X248272681Y-93770481D02*
X248371389Y-93774355D01*
X150981465Y-60035876D02*
X150970238Y-60084182D01*
X30241604Y-28667264D02*
X30178435Y-28742749D01*
X72878124Y-26616097D02*
X72828907Y-26619413D01*
X219706736Y-26930389D02*
X219672858Y-26896111D01*
X25270208Y-51469110D02*
X25239964Y-51563018D01*
X61981866Y-109660660D02*
X62057229Y-109723190D01*
X158969219Y-50237593D02*
X158852848Y-50300548D01*
X230575429Y-108484219D02*
X230589300Y-108387023D01*
X72591831Y-26671069D02*
X72546738Y-26688076D01*
X176645029Y-43794071D02*
X176632804Y-43841382D01*
X115258303Y-44326695D02*
X115269951Y-44278480D01*
X150994996Y-59988498D02*
X150981465Y-60035876D01*
X151277860Y-59546467D02*
X151243140Y-59579510D01*
X270362514Y-91399912D02*
X270376002Y-91302704D01*
X269615582Y-69776925D02*
X269600875Y-69730314D01*
X237038015Y-25288610D02*
X236940493Y-25306828D01*
X25660389Y-50804882D02*
X25598418Y-50878318D01*
X140145231Y-59304752D02*
X140096883Y-59296335D01*
X25177055Y-51856337D02*
X25165793Y-51957572D01*
X176629254Y-44278517D02*
X176640902Y-44326733D01*
X73129115Y-26637251D02*
X73078511Y-26627828D01*
X151010766Y-59942110D02*
X150994996Y-59988498D01*
X246226321Y-86820426D02*
X246401766Y-91844329D01*
X196460206Y-32246005D02*
X196464389Y-32296279D01*
X269600875Y-69730314D02*
X269583929Y-69684530D01*
X177163704Y-43171411D02*
X177120368Y-43194170D01*
X72502594Y-26707196D02*
X72459472Y-26728380D01*
X151028712Y-59896776D02*
X151010766Y-59942110D01*
X45672885Y-86820426D02*
X45672885Y-86820426D01*
X196847282Y-31397901D02*
X196809697Y-31428466D01*
X26726375Y-50176830D02*
X26630588Y-50200456D01*
X260390803Y-28001776D02*
X260290328Y-27992558D01*
X72226391Y-26896119D02*
X72192515Y-26930397D01*
X26823853Y-50157884D02*
X26726375Y-50176830D01*
X114728898Y-137707991D02*
X114812361Y-137657243D01*
X115010418Y-43371851D02*
X114975560Y-43337607D01*
X261046763Y-28197350D02*
X260959039Y-28156219D01*
X53371694Y-25641844D02*
X53293074Y-25701638D01*
X61300846Y-108289253D02*
X61309896Y-108386761D01*
X246776340Y-92941621D02*
X246835541Y-93019886D01*
X30379534Y-28525285D02*
X30379534Y-28525285D01*
X150690891Y-70956620D02*
X150656695Y-70992553D01*
X52192523Y-28701015D02*
X52192523Y-28701015D01*
X269261076Y-69259113D02*
X269221208Y-69230247D01*
X177622634Y-137898095D02*
X177718814Y-137922713D01*
X270387606Y-91006736D02*
X269654238Y-70019530D01*
X269543466Y-69595760D02*
X269520023Y-69552936D01*
X150544522Y-71089222D02*
X150504382Y-71117434D01*
X29923497Y-29158661D02*
X29885206Y-29248411D01*
X31324229Y-28032544D02*
X31229187Y-28055361D01*
X177256857Y-137754620D02*
X177345170Y-137797033D01*
X22562113Y-69322947D02*
X22526672Y-69357667D01*
X115158412Y-43567870D02*
X115158412Y-43567870D01*
X247700299Y-93647977D02*
X247792500Y-93679900D01*
X115239617Y-43747311D02*
X115222755Y-43701237D01*
X261969931Y-29145826D02*
X261926812Y-29058686D01*
X179056514Y-137764557D02*
X179143923Y-137718393D01*
X21515244Y-91211439D02*
X21524458Y-91311900D01*
X149949572Y-71285434D02*
X149949572Y-71285434D01*
X133365013Y-50531753D02*
X133264176Y-50447946D01*
X230427873Y-107334672D02*
X230385012Y-107245139D01*
X219352503Y-26688066D02*
X219307409Y-26671059D01*
X95279135Y-31644831D02*
X95252051Y-31605223D01*
X246479056Y-92329472D02*
X246508462Y-92422680D01*
X151094989Y-59767715D02*
X151070887Y-59809515D01*
X53538047Y-25533815D02*
X53453532Y-25585768D01*
X219956149Y-27407487D02*
X219956149Y-27407487D01*
X114551203Y-43101933D02*
X114551203Y-43101933D01*
X238185991Y-25443293D02*
X238095736Y-25404792D01*
X114598783Y-43115955D02*
X114551203Y-43101933D01*
X141652241Y-71240445D02*
X141605777Y-71224724D01*
X268911839Y-69087996D02*
X268864314Y-69076592D01*
X268752604Y-93043175D02*
X268848637Y-93022962D01*
X114975560Y-43337607D02*
X114939113Y-43305142D01*
X140906354Y-59994511D02*
X140891014Y-59948164D01*
X219214676Y-26643576D02*
X219167185Y-26633197D01*
X54274691Y-25281167D02*
X54178355Y-25296602D01*
X239152303Y-26382985D02*
X239107163Y-26296305D01*
X135949603Y-59287265D02*
X135949603Y-59287265D01*
X115266393Y-43841357D02*
X115254167Y-43794047D01*
X266359413Y-50954852D02*
X266300965Y-50878440D01*
X269004809Y-69117647D02*
X268958699Y-69101691D01*
X163217089Y-112396346D02*
X164824786Y-118396346D01*
X22493138Y-69393940D02*
X22461548Y-69431684D01*
X140981092Y-70535347D02*
X140969924Y-70486967D01*
X72129692Y-27003934D02*
X72100895Y-27043097D01*
X176676441Y-43701259D02*
X176659579Y-43747334D01*
X26018359Y-50486693D02*
X25940783Y-50543395D01*
X266465258Y-51116139D02*
X266414220Y-51034126D01*
X29744601Y-29918353D02*
X29744601Y-29918353D01*
X45497592Y-91844336D02*
X45672885Y-86820426D01*
X23229635Y-69054517D02*
X23180274Y-69056444D01*
X269633868Y-92641753D02*
X269709369Y-92578601D01*
X150949603Y-70285399D02*
X150948374Y-70334994D01*
X196571720Y-31727694D02*
X196550535Y-31770818D01*
X95439765Y-32146374D02*
X95436452Y-32097156D01*
X94648402Y-31211313D02*
X73129115Y-26637251D01*
X266629109Y-51469167D02*
X266594451Y-51377406D01*
X53077523Y-25901870D02*
X53012778Y-25975076D01*
X22496470Y-92800685D02*
X22581093Y-92847842D01*
X54082886Y-25316714D02*
X53988458Y-25341472D01*
X230589300Y-108387023D02*
X230598367Y-108289491D01*
X140583173Y-59511743D02*
X140544336Y-59481504D01*
X196499561Y-31906026D02*
X196486923Y-31952794D01*
X239229815Y-26562966D02*
X239193221Y-26471921D01*
X179229312Y-137667739D02*
X197487612Y-126216643D01*
X61346595Y-107707082D02*
X61327129Y-107802883D01*
X26266955Y-50339334D02*
X26181575Y-50384541D01*
X177435668Y-137835152D02*
X177528204Y-137868874D01*
X158852848Y-50300548D02*
X158741348Y-50370765D01*
X22677632Y-69230251D02*
X22637766Y-69259117D01*
X21984239Y-92368671D02*
X22047981Y-92440397D01*
X196594920Y-31685668D02*
X196571720Y-31727694D01*
X140891014Y-59948164D02*
X140873441Y-59902645D01*
X151652583Y-59332115D02*
X151606167Y-59347800D01*
X71969411Y-27308551D02*
X71955075Y-27357420D01*
X261879662Y-28974045D02*
X261828611Y-28892023D01*
X94841302Y-31273092D02*
X94794964Y-31254251D01*
X246401766Y-91844329D02*
X246401766Y-91844329D01*
X237816278Y-25316711D02*
X237720809Y-25296599D01*
X115104756Y-43484719D02*
X115075086Y-43445461D01*
X177078268Y-43218978D02*
X177037476Y-43245781D01*
X176924441Y-45384867D02*
X159344500Y-50095401D01*
X150930210Y-70481425D02*
X150919442Y-70529179D01*
X44465051Y-93525653D02*
X44549586Y-93476274D01*
X115279160Y-44229959D02*
X115285940Y-44181220D01*
X270376002Y-91302704D02*
X270384721Y-91204662D01*
X23440608Y-93075339D02*
X43428866Y-93773314D01*
X21678848Y-91880073D02*
X21719967Y-91967790D01*
X159344500Y-50095401D02*
X159215351Y-50134709D01*
X44711499Y-93364952D02*
X44788543Y-93303135D01*
X262043557Y-29327117D02*
X262008890Y-29235344D01*
X219522650Y-26776736D02*
X219481797Y-26751569D01*
X114820942Y-43218963D02*
X114778844Y-43194155D01*
X22761027Y-69178771D02*
X22718747Y-69203458D01*
X23137067Y-93041620D02*
X23236637Y-93057842D01*
X26181575Y-50384541D02*
X26098666Y-50433701D01*
X176928342Y-137544091D02*
X177006470Y-137602649D01*
X219307409Y-26671059D02*
X219261442Y-26656213D01*
X94794964Y-31254251D02*
X94747335Y-31237624D01*
X177087362Y-137657325D02*
X177170873Y-137708016D01*
X219167185Y-26633197D02*
X219119043Y-26625125D01*
X238361108Y-25533811D02*
X238274506Y-25486310D01*
X113116181Y-137877071D02*
X113209932Y-137904890D01*
X196620087Y-31644814D02*
X196594920Y-31685668D01*
X61323748Y-108483933D02*
X61342415Y-108580593D01*
X128682116Y-112396346D02*
X128682116Y-112396346D01*
X158635027Y-50447933D02*
X158534191Y-50531744D01*
X95159766Y-31494620D02*
X95125489Y-31460742D01*
X158534191Y-50531744D02*
X158439145Y-50621885D01*
X43428866Y-93773314D02*
X43528069Y-93774327D01*
X140048035Y-59290287D02*
X139998769Y-59286642D01*
X151178602Y-59650382D02*
X151148909Y-59688085D01*
X69356166Y-91854468D02*
X69356166Y-91854468D01*
X269466900Y-69470816D02*
X269437293Y-69431680D01*
X150961375Y-60133354D02*
X150954939Y-60183328D01*
X197487612Y-126216643D02*
X197487612Y-126216643D01*
X197602359Y-37674814D02*
X177348010Y-43101950D01*
X62057229Y-109723190D02*
X62135750Y-109782087D01*
X45276108Y-92691728D02*
X45318722Y-92603959D01*
X229509402Y-109935973D02*
X229596744Y-109888808D01*
X22637766Y-69259117D02*
X22599232Y-69290026D01*
X114551203Y-43101933D02*
X94296847Y-37674814D01*
X246226321Y-86820426D02*
X246226321Y-86820426D01*
X230598367Y-108289491D02*
X230602644Y-108191800D01*
X267334750Y-69099917D02*
X267334750Y-69099917D01*
X237720809Y-25296599D02*
X237624473Y-25281165D01*
X219439771Y-26728370D02*
X219396648Y-26707186D01*
X52609528Y-26750805D02*
X52586505Y-26847303D01*
X196647174Y-31605205D02*
X196620087Y-31644814D01*
X139998769Y-59286642D02*
X139949168Y-59285434D01*
X150919442Y-70529179D02*
X150906376Y-70576267D01*
X178207836Y-137973049D02*
X178305540Y-137968637D01*
X61399625Y-107518371D02*
X61370765Y-107612186D01*
X238003916Y-25370840D02*
X237910705Y-25341469D01*
X114464231Y-137835314D02*
X114554688Y-137797130D01*
X151391071Y-59457658D02*
X151351888Y-59485478D01*
X61427269Y-108865249D02*
X61464713Y-108956683D01*
X196471169Y-32346757D02*
X196480593Y-32397362D01*
X141949603Y-71285399D02*
X141949603Y-71285399D01*
X247267606Y-93422745D02*
X247349815Y-93476333D01*
X22461548Y-69431684D02*
X22431940Y-69470819D01*
X176740786Y-43567889D02*
X176740786Y-43567889D01*
X141699693Y-71253920D02*
X141652241Y-71240445D01*
X230528490Y-107612242D02*
X230499626Y-107518401D01*
X269437293Y-69431680D02*
X269405705Y-69393936D01*
X72004876Y-27214584D02*
X71986036Y-27260923D01*
X196458571Y-32196008D02*
X196460206Y-32246005D01*
X61841073Y-109525241D02*
X61909775Y-109594632D01*
X140954768Y-70387679D02*
X140950905Y-70336896D01*
X269372173Y-69357663D02*
X269336734Y-69322943D01*
X267334750Y-69099917D02*
X266739703Y-52060307D01*
X155949603Y-59287265D02*
X155949603Y-59287265D01*
X72780192Y-26625132D02*
X72732052Y-26633205D01*
X150873479Y-70668121D02*
X150853716Y-70712723D01*
X158741348Y-50370765D02*
X158635027Y-50447933D01*
X229841442Y-109723604D02*
X229916846Y-109661084D01*
X43626771Y-93770447D02*
X43724803Y-93761738D01*
X54567155Y-25263256D02*
X54469265Y-25264462D01*
X61433162Y-107425814D02*
X61399625Y-107518371D01*
X238527461Y-25641840D02*
X238445620Y-25585764D01*
X268864314Y-69076592D02*
X268816205Y-69067511D01*
X247187893Y-93365010D02*
X247267606Y-93422745D01*
X95422663Y-32000299D02*
X95412286Y-31952808D01*
X140620608Y-59543977D02*
X140583173Y-59511743D01*
X177006470Y-137602649D02*
X177087362Y-137657325D01*
X236940493Y-25306828D02*
X236940493Y-25306828D01*
X269094449Y-69156216D02*
X269050087Y-69135833D01*
X219481797Y-26751569D02*
X219439771Y-26728370D01*
X31135478Y-28082759D02*
X31043269Y-28114678D01*
X113304821Y-137928071D02*
X113400675Y-137946583D01*
X22526672Y-69357667D02*
X22493138Y-69393940D01*
X246508462Y-92422680D02*
X246542344Y-92514238D01*
X45357007Y-92514217D02*
X45390889Y-92422663D01*
X45497592Y-91844336D02*
X45497592Y-91844336D01*
X22599232Y-69290026D02*
X22562113Y-69322947D01*
X270344321Y-91496117D02*
X270362514Y-91399912D01*
X196969322Y-31317109D02*
X196927142Y-31342148D01*
X114371731Y-137869104D02*
X114464231Y-137835314D01*
X269651281Y-69970004D02*
X269645899Y-69920900D01*
X43428866Y-93773314D02*
X43428866Y-93773314D01*
X21557528Y-91508400D02*
X21581143Y-91604179D01*
X196480593Y-32397362D02*
X197602359Y-37674814D01*
X268619601Y-69055033D02*
X268619601Y-69055033D01*
X237624473Y-25281165D02*
X237527444Y-25270441D01*
X44199121Y-93647921D02*
X44289652Y-93611539D01*
X115132554Y-43525540D02*
X115104756Y-43484719D01*
X197012936Y-31294062D02*
X196969322Y-31317109D01*
X29036982Y-50194493D02*
X29036982Y-50194493D01*
X150376860Y-71189564D02*
X150332259Y-71209324D01*
X176659579Y-43747334D02*
X176645029Y-43794071D01*
X127074427Y-118396346D02*
X127074427Y-118396346D01*
X196468470Y-32048427D02*
X196462752Y-32097144D01*
X177348010Y-43101950D02*
X177348010Y-43101950D01*
X72828907Y-26619413D02*
X72780192Y-26625132D01*
X219600545Y-26832779D02*
X219562258Y-26803822D01*
X141148279Y-70883736D02*
X141120398Y-70844531D01*
X113888274Y-137968088D02*
X113986232Y-137957972D01*
X150583343Y-71058982D02*
X150544522Y-71089222D01*
X196550535Y-31770818D02*
X196531415Y-31814964D01*
X150240408Y-71242218D02*
X150193323Y-71255283D01*
X266722248Y-51856340D02*
X266706048Y-51756770D01*
X176470996Y-137034179D02*
X176525722Y-137117016D01*
X197057938Y-31273081D02*
X197012936Y-31294062D01*
X140969924Y-70486967D02*
X140961129Y-70437724D01*
X158439145Y-50621885D02*
X158350196Y-50718048D01*
X22404351Y-69511264D02*
X22378817Y-69552939D01*
X140192997Y-59315504D02*
X140145231Y-59304752D01*
X61602451Y-109216748D02*
X61656448Y-109298241D01*
X95418597Y-32397368D02*
X95428024Y-32346764D01*
X140831733Y-59814422D02*
X140807666Y-59771882D01*
X30952726Y-28151054D02*
X30864014Y-28191826D01*
X151351888Y-59485478D02*
X151314130Y-59515102D01*
X197602359Y-37674814D02*
X197602359Y-37674814D01*
X30379534Y-28525285D02*
X30308662Y-28594722D01*
X45318722Y-92603959D02*
X45357007Y-92514217D01*
X197250842Y-31211308D02*
X197250842Y-31211308D01*
X62389102Y-109935630D02*
X62389102Y-109935630D01*
X72100895Y-27043097D02*
X72073941Y-27083793D01*
X220263125Y-28851722D02*
X220263125Y-28851722D01*
X95412286Y-31952808D02*
X95399651Y-31906041D01*
X218770114Y-26637253D02*
X197250842Y-31211308D01*
X52586505Y-26847303D02*
X52586505Y-26847303D01*
X248470599Y-93773337D02*
X268458163Y-93075324D01*
X238821639Y-25901866D02*
X238753273Y-25831794D01*
X219873396Y-27169582D02*
X219850350Y-27125968D01*
X45420294Y-92329458D02*
X45445149Y-92234766D01*
X262136720Y-29714349D02*
X262120515Y-29614763D01*
X115046443Y-137481522D02*
X115118553Y-137415467D01*
X150145573Y-71266048D02*
X150097241Y-71274480D01*
X61327129Y-107802883D02*
X61312380Y-107899411D01*
X21867279Y-92216379D02*
X21923965Y-92293955D01*
X25485140Y-51034018D02*
X25434092Y-51116040D01*
X268557205Y-93069429D02*
X268655406Y-93058688D01*
X219894377Y-27214583D02*
X219873396Y-27169582D01*
X246542344Y-92514238D02*
X246580630Y-92603985D01*
X176610186Y-43985883D02*
X176607371Y-44034612D01*
X140544336Y-59481504D02*
X140504178Y-59453294D01*
X25794344Y-50667445D02*
X25725741Y-50734551D01*
X94972095Y-31342162D02*
X94929916Y-31317122D01*
X269564780Y-69639651D02*
X269543466Y-69595760D01*
X151949603Y-59287265D02*
X151949603Y-59287265D01*
X26444609Y-50261262D02*
X26354676Y-50298200D01*
X29761282Y-29721111D02*
X29750519Y-29819310D01*
X151847487Y-59292415D02*
X151797501Y-59298759D01*
X45465379Y-92138745D02*
X45480912Y-92041559D01*
X246623246Y-92691758D02*
X246670119Y-92777396D01*
X151560799Y-59365664D02*
X151516543Y-59385644D01*
X140807666Y-59771882D02*
X140781502Y-59730498D01*
X139949168Y-59285434D02*
X139949168Y-59285434D01*
X269851382Y-92440703D02*
X269917238Y-92366492D01*
X158007627Y-51278328D02*
X157961692Y-51404106D01*
X141313521Y-71057061D02*
X141277237Y-71025632D01*
X52705943Y-26471924D02*
X52669348Y-26562970D01*
X141797317Y-71273879D02*
X141748073Y-71265085D01*
X53713168Y-25443296D02*
X53624651Y-25486314D01*
X176640902Y-44326733D02*
X176640902Y-44326733D01*
X45390889Y-92422663D02*
X45420294Y-92329458D01*
X133707395Y-50927194D02*
X133631557Y-50819922D01*
X269917238Y-92366492D02*
X269979072Y-92289450D01*
X30064058Y-28901900D02*
X30012996Y-28985244D01*
X269221208Y-69230247D02*
X269180093Y-69203455D01*
X43918198Y-93730079D02*
X44013228Y-93707253D01*
X230504855Y-108772017D02*
X230504855Y-108772017D01*
X27228083Y-50131324D02*
X27228083Y-50131324D01*
X61656448Y-109298241D02*
X61714294Y-109376910D01*
X196514407Y-31860058D02*
X196499561Y-31906026D01*
X53145888Y-25831798D02*
X53077523Y-25901870D01*
X31813616Y-27989368D02*
X31714403Y-27988342D01*
X176622914Y-43889180D02*
X176615370Y-43937376D01*
X72546738Y-26688076D02*
X72502594Y-26707196D01*
X73028035Y-26621049D02*
X72977762Y-26616866D01*
X114735508Y-43171396D02*
X114691006Y-43150740D01*
X176924441Y-45384867D02*
X176924441Y-45384867D01*
X71636073Y-28851722D02*
X54958659Y-25306828D01*
X269391331Y-92807138D02*
X269474688Y-92756095D01*
X177253806Y-43132258D02*
X177208207Y-43150756D01*
X246835541Y-93019886D02*
X246898705Y-93095370D01*
X115222755Y-43701237D02*
X115203592Y-43655914D01*
X145949603Y-71285399D02*
X145949603Y-71285399D01*
X176794445Y-43484737D02*
X176766645Y-43525558D01*
X176608899Y-44132386D02*
X176613264Y-44181255D01*
X23337857Y-93069125D02*
X23440608Y-93075339D01*
X25539959Y-50954737D02*
X25485140Y-51034018D01*
X196739463Y-31494603D02*
X196706910Y-31530026D01*
X159344500Y-50095401D02*
X159344500Y-50095401D01*
X178305540Y-137968637D02*
X178402802Y-137959467D01*
X141431077Y-71140635D02*
X141390504Y-71114626D01*
X94296847Y-37674814D02*
X94296847Y-37674814D01*
X72927767Y-26615232D02*
X72878124Y-26616097D01*
X52669348Y-26562970D02*
X52637176Y-26655979D01*
X22562113Y-69322947D02*
X22562113Y-69322947D01*
X45178184Y-92860700D02*
X45229237Y-92777362D01*
X196809697Y-31428466D02*
X196773742Y-31460726D01*
X61909775Y-109594632D02*
X61981866Y-109660660D01*
X268718570Y-69056440D02*
X268669211Y-69054513D01*
X197200778Y-31223280D02*
X197151907Y-31237616D01*
X176620045Y-44229994D02*
X176629254Y-44278517D01*
X230385012Y-107245139D02*
X230385012Y-107245139D01*
X114691006Y-43150740D02*
X114645407Y-43132242D01*
X22283260Y-69776925D02*
X22270829Y-69824280D01*
X238947411Y-26051265D02*
X238886385Y-25975072D01*
X141120398Y-70844531D02*
X141094387Y-70803959D01*
X260085604Y-27989373D02*
X239706683Y-28701015D01*
X113790228Y-137973359D02*
X113888274Y-137968088D01*
X25434092Y-51116040D02*
X25386945Y-51200681D01*
X21581143Y-91604179D02*
X21609315Y-91698138D01*
X114812361Y-137657243D02*
X114893202Y-137602513D01*
X229509402Y-109935973D02*
X229509402Y-109935973D01*
X23279246Y-69055037D02*
X23279246Y-69055037D01*
X266733510Y-51957559D02*
X266722248Y-51856340D01*
X22378817Y-69552939D02*
X22355374Y-69595762D01*
X61297094Y-108093940D02*
X61296583Y-108191587D01*
X219913217Y-27260923D02*
X219894377Y-27214583D01*
X72417448Y-26751579D02*
X72376595Y-26776746D01*
X261519393Y-28525452D02*
X261447666Y-28461694D01*
X237910705Y-25341469D02*
X237816278Y-25316711D01*
X114974765Y-45384867D02*
X115258303Y-44326695D01*
X21524458Y-91311900D02*
X21538593Y-91410930D01*
X150954939Y-60183328D02*
X150950995Y-60234042D01*
X229681275Y-109837601D02*
X229762879Y-109782488D01*
X177718814Y-137922713D02*
X177718814Y-137922713D01*
X196886446Y-31369103D02*
X196847282Y-31397901D01*
X151699986Y-59318671D02*
X151652583Y-59332115D01*
X176717056Y-43611449D02*
X176695604Y-43655935D01*
X266414220Y-51034126D02*
X266359413Y-50954852D01*
X95304301Y-31685685D02*
X95279135Y-31644831D01*
X54665214Y-25266857D02*
X54567155Y-25263256D01*
X270090424Y-92127538D02*
X270139818Y-92043001D01*
X150504382Y-71117434D02*
X150463003Y-71143585D01*
X54861140Y-25288611D02*
X54763267Y-25275298D01*
X22270829Y-69824280D02*
X22260711Y-69872299D01*
X247521060Y-93570821D02*
X247609764Y-93611596D01*
X246721175Y-92860737D02*
X246776340Y-92941621D01*
X94381060Y-126216544D02*
X94381060Y-126216544D01*
X150048409Y-71280544D02*
X149999159Y-71284207D01*
X54958659Y-25306828D02*
X54958659Y-25306828D01*
X247036624Y-93237349D02*
X247110844Y-93303191D01*
X219119043Y-26625125D02*
X219070327Y-26619406D01*
X270387606Y-91006736D02*
X270387606Y-91006736D01*
X114083928Y-137942981D02*
X114181185Y-137923087D01*
X247434356Y-93525712D02*
X247521060Y-93570821D01*
X114971278Y-137543905D02*
X115046443Y-137481522D01*
X264671603Y-50131333D02*
X264671603Y-50131333D01*
X178595296Y-137926974D02*
X178690178Y-137903709D01*
X219672858Y-26896111D02*
X219637436Y-26863558D01*
X25239964Y-51563018D02*
X25214270Y-51658939D01*
X115290304Y-44132353D02*
X115292264Y-44083444D01*
X269654238Y-70019530D02*
X269651281Y-69970004D01*
X196927142Y-31342148D02*
X196886446Y-31369103D01*
X23236637Y-93057842D02*
X23337857Y-93069125D01*
X133460060Y-50621891D02*
X133365013Y-50531753D01*
X22185383Y-92574359D02*
X22258801Y-92636335D01*
X266033371Y-50603823D02*
X265958671Y-50543533D01*
X114181185Y-137923087D02*
X114181185Y-137923087D01*
X22581093Y-92847842D02*
X22668216Y-92890970D01*
X26098666Y-50433701D02*
X26018359Y-50486693D01*
X31420438Y-28014372D02*
X31324229Y-28032544D01*
X238095736Y-25404792D02*
X238003916Y-25370840D01*
X238274506Y-25486310D02*
X238185991Y-25443293D01*
X115258303Y-44326695D02*
X115258303Y-44326695D01*
X24564463Y-69099917D02*
X23279246Y-69055037D01*
X140948373Y-60235804D02*
X140944707Y-60186545D01*
X141949603Y-71285399D02*
X141898144Y-71284098D01*
X238681388Y-25765001D02*
X238606083Y-25701634D01*
X230346562Y-109132981D02*
X230392547Y-109046235D01*
X150906376Y-70576267D02*
X150891043Y-70622609D01*
X261132146Y-28242555D02*
X261046763Y-28197350D01*
X53453532Y-25585768D02*
X53453532Y-25585768D01*
X94929916Y-31317122D02*
X94886303Y-31294074D01*
X176632804Y-43841382D02*
X176622914Y-43889180D01*
X218820719Y-26627828D02*
X218770114Y-26637253D01*
X27023365Y-50134517D02*
X26922893Y-50143739D01*
X150656695Y-70992553D02*
X150620761Y-71026747D01*
X44549586Y-93476274D02*
X44631791Y-93422686D01*
X261295368Y-28344704D02*
X261215058Y-28291714D01*
X260869103Y-28119283D02*
X260777086Y-28086664D01*
X140949603Y-70285437D02*
X140949603Y-70285437D01*
X61471361Y-107334693D02*
X61433162Y-107425814D01*
X25193257Y-51756753D02*
X25177055Y-51856337D01*
X30777302Y-28236931D02*
X30692754Y-28286307D01*
X150097241Y-71274480D02*
X150048409Y-71280544D01*
X246898705Y-93095370D02*
X246965757Y-93167912D01*
X95223095Y-31566935D02*
X95192318Y-31530043D01*
X230057721Y-109525676D02*
X230122960Y-109453058D01*
X22258801Y-92636335D02*
X22335202Y-92694801D01*
X140240100Y-59328556D02*
X140192997Y-59315504D01*
X95438991Y-32246014D02*
X95440628Y-32196018D01*
X22414466Y-92749628D02*
X22496470Y-92800685D01*
X230392547Y-109046235D02*
X230434334Y-108957069D01*
X157923999Y-51533734D02*
X157923999Y-51533734D01*
X95430735Y-32048440D02*
X95422663Y-32000299D01*
X219021109Y-26616091D02*
X218971465Y-26615227D01*
X30692754Y-28286307D02*
X30610536Y-28339893D01*
X151070887Y-59809515D02*
X151048774Y-59852556D01*
X61370765Y-107612186D02*
X61346595Y-107707082D01*
X151148909Y-59688085D02*
X151121017Y-59727217D01*
X237332006Y-25263255D02*
X237233945Y-25266856D01*
X176855586Y-43407837D02*
X176824116Y-43445478D01*
X133837717Y-51156702D02*
X133776217Y-51039557D01*
X61775874Y-109452622D02*
X61841073Y-109525241D01*
X61464713Y-108956683D02*
X61506469Y-109045834D01*
X22252942Y-69920900D02*
X22247560Y-69970004D01*
X239107163Y-26296305D02*
X239057900Y-26212028D01*
X265454944Y-50261380D02*
X265362947Y-50228750D01*
X95418597Y-32397368D02*
X95418597Y-32397368D01*
X115269951Y-44278480D02*
X115279160Y-44229959D01*
X22757716Y-92929939D02*
X22849472Y-92964618D01*
X30119228Y-28821015D02*
X30064058Y-28901900D01*
X150831790Y-70756332D02*
X150807735Y-70798866D01*
X62389102Y-109935630D02*
X94381060Y-126216544D01*
X177348010Y-43101950D02*
X177300430Y-43115971D01*
X141560366Y-71206820D02*
X141516071Y-71186795D01*
X178011802Y-137967483D02*
X178109865Y-137972675D01*
X178967259Y-137806200D02*
X179056514Y-137764557D01*
X151748313Y-59307532D02*
X151699986Y-59318671D01*
X239004616Y-26130299D02*
X238947411Y-26051265D01*
X176695604Y-43655935D02*
X176676441Y-43701259D01*
X196531415Y-31814964D02*
X196514407Y-31860058D01*
X61514209Y-107245185D02*
X61514209Y-107245185D01*
X141209396Y-70957794D02*
X141177966Y-70921511D01*
X71955075Y-27357420D02*
X71943103Y-27407483D01*
X31043269Y-28114678D02*
X30952726Y-28151054D01*
X236940493Y-25306828D02*
X220263125Y-28851722D01*
X44631791Y-93422686D02*
X44711499Y-93364952D01*
X265632564Y-50339464D02*
X265544860Y-50298325D01*
X29821909Y-29433185D02*
X29797051Y-29527887D01*
X261372948Y-28401404D02*
X261295368Y-28344704D01*
X133891589Y-51278317D02*
X133837717Y-51156702D01*
X260587328Y-28034860D02*
X260489846Y-28015917D01*
X141898144Y-71284098D02*
X141847361Y-71280237D01*
X22244601Y-70019530D02*
X21512065Y-91006743D01*
X151210033Y-59614169D02*
X151178602Y-59650382D01*
X115373542Y-137116594D02*
X115428202Y-137033728D01*
X196476544Y-32000285D02*
X196468470Y-32048427D01*
X219769559Y-27003928D02*
X219738994Y-26966344D01*
X150193323Y-71255283D02*
X150145573Y-71266048D01*
X114778844Y-43194155D02*
X114735508Y-43171396D01*
X141048223Y-70718967D02*
X141028196Y-70674672D01*
X29776817Y-29623916D02*
X29761282Y-29721111D01*
X230242463Y-109298670D02*
X230296496Y-109217171D01*
X95125489Y-31460742D02*
X95089535Y-31428482D01*
X269709369Y-92578601D02*
X269781927Y-92511560D01*
X53293074Y-25701638D02*
X53217772Y-25765005D01*
X114277335Y-137898396D02*
X114371731Y-137869104D01*
X230602144Y-108094128D02*
X230596883Y-107996650D01*
X268816205Y-69067511D02*
X268767596Y-69060783D01*
X140949603Y-70285437D02*
X140949603Y-60285399D01*
X140376604Y-59381182D02*
X140331985Y-59361429D01*
X269050087Y-69135833D02*
X269004809Y-69117647D01*
X141277237Y-71025632D02*
X141242508Y-70992522D01*
X176613264Y-44181255D02*
X176620045Y-44229994D01*
X197250842Y-31211308D02*
X197200778Y-31223280D01*
X230385012Y-107245139D02*
X222543032Y-91854468D01*
X22943363Y-92994878D02*
X23039268Y-93020588D01*
X265075767Y-50157960D02*
X264976744Y-50143801D01*
X266105080Y-50667580D02*
X266033371Y-50603823D01*
X196773742Y-31460726D02*
X196739463Y-31494603D01*
X141351298Y-71086747D02*
X141313521Y-71057061D01*
X140420230Y-59403099D02*
X140376604Y-59381182D01*
X230296496Y-109217171D02*
X230346562Y-109132981D01*
X164824786Y-118396346D02*
X164824786Y-118396346D01*
X260188552Y-27988383D02*
X260085604Y-27989373D01*
X52192523Y-28701015D02*
X31813616Y-27989368D01*
X95399651Y-31906041D02*
X95384806Y-31860074D01*
X218770114Y-26637253D02*
X218770114Y-26637253D01*
X95367800Y-31814980D02*
X95348682Y-31770834D01*
X268958699Y-69101691D02*
X268911839Y-69087996D01*
X22804390Y-69156220D02*
X22761027Y-69178771D01*
X230504855Y-108772017D02*
X230533221Y-108676893D01*
X150753369Y-70880384D02*
X150723127Y-70919203D01*
X247981236Y-93730125D02*
X248077439Y-93748304D01*
X269583929Y-69684530D02*
X269564780Y-69639651D01*
X246407681Y-91943366D02*
X246418441Y-92041560D01*
X230466082Y-107425818D02*
X230427873Y-107334672D01*
X230596883Y-107996650D02*
X230586872Y-107899546D01*
X266706048Y-51756770D02*
X266685037Y-51658970D01*
X27228083Y-50131324D02*
X27125138Y-50130338D01*
X115285940Y-44181220D02*
X115290304Y-44132353D01*
X151606167Y-59347800D02*
X151560799Y-59365664D01*
X24564463Y-69099917D02*
X24564463Y-69099917D01*
X141070307Y-70762083D02*
X141048223Y-70718967D01*
X72376595Y-26776746D02*
X72336989Y-26803832D01*
X218921469Y-26616863D02*
X218871195Y-26621047D01*
X45000666Y-93095323D02*
X45063825Y-93019842D01*
X141748073Y-71265085D02*
X141699693Y-71253920D01*
X270036821Y-92209744D02*
X270090424Y-92127538D01*
X178109865Y-137972675D02*
X178207836Y-137973049D01*
X176888786Y-43371867D02*
X176855586Y-43407837D01*
X21923965Y-92293955D02*
X21984239Y-92368671D01*
X230572128Y-107802992D02*
X230552663Y-107707165D01*
X219396648Y-26707186D02*
X219352503Y-26688066D01*
X21641924Y-91790146D02*
X21678848Y-91880073D01*
X150420469Y-71167639D02*
X150376860Y-71189564D01*
X26354676Y-50298200D02*
X26266955Y-50339334D01*
X261215058Y-28291714D02*
X261132146Y-28242555D01*
X61506469Y-109045834D02*
X61552420Y-109132568D01*
X54469265Y-25264462D02*
X54371719Y-25270443D01*
X140690769Y-59614109D02*
X140656558Y-59578173D01*
X150938643Y-70433089D02*
X150930210Y-70481425D01*
X150949603Y-60285434D02*
X150949603Y-60285434D01*
X112843520Y-137766076D02*
X112932800Y-137807635D01*
X61365912Y-108676563D02*
X61394252Y-108771666D01*
X222543032Y-91854468D02*
X246226321Y-86820426D01*
X113594575Y-137969484D02*
X113692270Y-137973814D01*
X262862216Y-50194493D02*
X262862216Y-50194493D01*
X238886385Y-25975072D02*
X238821639Y-25901866D01*
X178783916Y-137875806D02*
X178876335Y-137843293D01*
X260290328Y-27992558D02*
X260188552Y-27988383D01*
X230602644Y-108191800D02*
X230602144Y-108094128D01*
X218971465Y-26615227D02*
X218921469Y-26616863D01*
X21512065Y-91006743D02*
X21512065Y-91006743D01*
X261653353Y-28662888D02*
X261587999Y-28592557D01*
X112756081Y-137719996D02*
X112843520Y-137766076D01*
X22987000Y-69088000D02*
X22940140Y-69101695D01*
X141605777Y-71224724D02*
X141560366Y-71206820D01*
X44378351Y-93570762D02*
X44465051Y-93525653D01*
X150463003Y-71143585D02*
X150420469Y-71167639D01*
X246965757Y-93167912D02*
X247036624Y-93237349D01*
X61394252Y-108771666D02*
X61394252Y-108771666D01*
X262147984Y-29815586D02*
X262136720Y-29714349D01*
X73078511Y-26627828D02*
X73028035Y-26621049D01*
X43724803Y-93761738D02*
X43822001Y-93748261D01*
X21765159Y-92053167D02*
X21814304Y-92136073D01*
X133975222Y-51533719D02*
X133937526Y-51404093D01*
X269137812Y-69178767D02*
X269094449Y-69156216D01*
X260489846Y-28015917D02*
X260390803Y-28001776D01*
X25343828Y-51287821D02*
X25304873Y-51377337D01*
X269851382Y-92440703D02*
X269851382Y-92440703D01*
X94698465Y-31223286D02*
X94648402Y-31211313D01*
X176740786Y-43567889D02*
X176717056Y-43611449D01*
X140781502Y-59730498D02*
X140753275Y-59690353D01*
X268669211Y-69054513D02*
X268619601Y-69055033D01*
X22940140Y-69101695D02*
X22894029Y-69117651D01*
X270321484Y-91591155D02*
X270344321Y-91496117D01*
X260085604Y-27989373D02*
X260085604Y-27989373D01*
X219944177Y-27357423D02*
X219929842Y-27308552D01*
X176923646Y-43337623D02*
X176888786Y-43371867D01*
X22260711Y-69872299D02*
X22252942Y-69920900D01*
X113023746Y-137844643D02*
X113116181Y-137877071D01*
X30453761Y-28459444D02*
X30379534Y-28525285D01*
X176615370Y-43937376D02*
X176610186Y-43985883D01*
X269336734Y-69322943D02*
X269299612Y-69290022D01*
X229988978Y-109595063D02*
X230057721Y-109525676D01*
X269555588Y-92700942D02*
X269633868Y-92641753D01*
X25866068Y-50603686D02*
X25794344Y-50667445D01*
X262073804Y-29421026D02*
X262043557Y-29327117D01*
X176646362Y-137273112D02*
X176711987Y-137346163D01*
X265881111Y-50486831D02*
X265800820Y-50433838D01*
X72637797Y-26656222D02*
X72591831Y-26671069D01*
X230434334Y-108957069D02*
X230471809Y-108865618D01*
X52586505Y-26847303D02*
X52192523Y-28701015D01*
X155949603Y-59287265D02*
X151949603Y-59287265D01*
X149949572Y-71285434D02*
X145949603Y-71285399D01*
X269781927Y-92511560D02*
X269851382Y-92440703D01*
X149999159Y-71284207D02*
X149949572Y-71285434D01*
X230586872Y-107899546D02*
X230572128Y-107802992D01*
X177037476Y-43245781D02*
X176998061Y-43274526D01*
X22314912Y-69684531D02*
X22297966Y-69730316D01*
X140656558Y-59578173D02*
X140620608Y-59543977D01*
X95384806Y-31860074D02*
X95367800Y-31814980D01*
X196480593Y-32397362D02*
X196480593Y-32397362D01*
X94648402Y-31211313D02*
X94648402Y-31211313D01*
X239312655Y-26847300D02*
X239289633Y-26750802D01*
X219738994Y-26966344D02*
X219706736Y-26930389D01*
X262008890Y-29235344D02*
X261969931Y-29145826D01*
X238445620Y-25585764D02*
X238445620Y-25585764D01*
X61514209Y-107245185D02*
X61471361Y-107334693D01*
X27125138Y-50130338D02*
X27023365Y-50134517D01*
X44013228Y-93707253D02*
X44106924Y-93679847D01*
X151898208Y-59288563D02*
X151847487Y-59292415D01*
X115043617Y-43407821D02*
X115010418Y-43371851D01*
X71943103Y-27407483D02*
X71943103Y-27407483D01*
X115254167Y-43794047D02*
X115239617Y-43747311D01*
X127074427Y-118396346D02*
X128682116Y-112396346D01*
X269979072Y-92289450D02*
X270036821Y-92209744D01*
X260777086Y-28086664D02*
X260683118Y-28058482D01*
X53217772Y-25765005D02*
X53145888Y-25831798D01*
X268619601Y-69055033D02*
X267334750Y-69099917D01*
X94296847Y-37674814D02*
X95418597Y-32397368D01*
X269638131Y-69872298D02*
X269628013Y-69824279D01*
X269336734Y-69322943D02*
X269336734Y-69322943D01*
X246418441Y-92041560D02*
X246433973Y-92138751D01*
X219562258Y-26803822D02*
X219522650Y-26776736D01*
X140096883Y-59296335D02*
X140048035Y-59290287D01*
X246580630Y-92603985D02*
X246623246Y-92691758D01*
X265173229Y-50176919D02*
X265075767Y-50157960D01*
X247886202Y-93707303D02*
X247981236Y-93730125D01*
X238445620Y-25585764D02*
X238361108Y-25533811D01*
X25214270Y-51658939D02*
X25193257Y-51756753D01*
X115291830Y-44034582D02*
X115289014Y-43985854D01*
X196486923Y-31952794D02*
X196476544Y-32000285D01*
X264876289Y-50134563D02*
X264774532Y-50130367D01*
X45445149Y-92234766D02*
X45465379Y-92138745D01*
X176766645Y-43525558D02*
X176740786Y-43567889D01*
X222543032Y-91854468D02*
X222543032Y-91854468D01*
X197151907Y-31237616D02*
X197104277Y-31254241D01*
X262154177Y-29918351D02*
X262147984Y-29815586D01*
X132554705Y-50095433D02*
X114974765Y-45384867D01*
X246670119Y-92777396D02*
X246721175Y-92860737D01*
X62135750Y-109782087D02*
X62217312Y-109837216D01*
X44788543Y-93303135D02*
X44862757Y-93237296D01*
X31615691Y-27992209D02*
X31517647Y-28000906D01*
X268848637Y-93022962D02*
X268943344Y-92998125D01*
X22334060Y-69639653D02*
X22314912Y-69684531D01*
X29036982Y-50194493D02*
X27228083Y-50131324D01*
X140994568Y-70582799D02*
X140981092Y-70535347D01*
X54178355Y-25296602D02*
X54082886Y-25316714D01*
X151243140Y-59579510D02*
X151210033Y-59614169D01*
X95436452Y-32097156D02*
X95430735Y-32048440D01*
X61394252Y-108771666D02*
X61427269Y-108865249D01*
X264671603Y-50131333D02*
X262862216Y-50194493D01*
X150944709Y-70384251D02*
X150938643Y-70433089D01*
X239289633Y-26750802D02*
X239261986Y-26655976D01*
X141516071Y-71186795D02*
X141472953Y-71164713D01*
X23131247Y-69060787D02*
X23082637Y-69067515D01*
X133776217Y-51039557D02*
X133707395Y-50927194D01*
X268767596Y-69060783D02*
X268718570Y-69056440D01*
X140930200Y-60089363D02*
X140919427Y-60041605D01*
X266739703Y-52060307D02*
X266739703Y-52060307D01*
X25159602Y-52060336D02*
X24564463Y-69099917D01*
X133975222Y-51533719D02*
X133975222Y-51533719D01*
X25159602Y-52060336D02*
X25159602Y-52060336D01*
X29744601Y-29918353D02*
X29036982Y-50194493D01*
X61302364Y-107996489D02*
X61297094Y-108093940D01*
X21511073Y-91109676D02*
X21515244Y-91211439D01*
X177170873Y-137708016D02*
X177256857Y-137754620D01*
X150723127Y-70919203D02*
X150690891Y-70956620D01*
X23180274Y-69056444D02*
X23131247Y-69060787D01*
X177718814Y-137922713D02*
X177816101Y-137942532D01*
X219825312Y-27083788D02*
X219798357Y-27043092D01*
X269036563Y-92968736D02*
X269128133Y-92934870D01*
X95428024Y-32346764D02*
X95434805Y-32296287D01*
X269520023Y-69552936D02*
X269494489Y-69511261D01*
X26922893Y-50143739D02*
X26823853Y-50157884D01*
X141010290Y-70629262D02*
X140994568Y-70582799D01*
X52637176Y-26655979D02*
X52609528Y-26750805D01*
X113986232Y-137957972D02*
X114083928Y-137942981D01*
X44862757Y-93237296D02*
X44933619Y-93167861D01*
X196706910Y-31530026D02*
X196676131Y-31566918D01*
X31229187Y-28055361D02*
X31135478Y-28082759D01*
X54958659Y-25306828D02*
X54861140Y-25288611D01*
X44933619Y-93167861D02*
X45000666Y-93095323D01*
X22431940Y-69470819D02*
X22404351Y-69511264D01*
X176584226Y-137196695D02*
X176646362Y-137273112D01*
X176824116Y-43445478D02*
X176794445Y-43484737D01*
X179143923Y-137718393D02*
X179229312Y-137667739D01*
X219798357Y-27043092D02*
X219769559Y-27003928D01*
X269405705Y-69393936D02*
X269372173Y-69357663D01*
X247036624Y-93237349D02*
X247036624Y-93237349D01*
X150950995Y-60234042D02*
X150949603Y-60285434D01*
X219261442Y-26656213D02*
X219214676Y-26643576D01*
X54371719Y-25270443D02*
X54274691Y-25281167D01*
X177528204Y-137868874D02*
X177622634Y-137898095D01*
X132809048Y-50182236D02*
X132683853Y-50134738D01*
X270384721Y-91204662D02*
X270388610Y-91105950D01*
X94747335Y-31237624D02*
X94698465Y-31223286D01*
X72684562Y-26643585D02*
X72637797Y-26656222D01*
X135949603Y-59287265D02*
X133975222Y-51533719D01*
X133046355Y-50300567D02*
X132929984Y-50237615D01*
X113692270Y-137973814D02*
X113790228Y-137973359D01*
X71986036Y-27260923D02*
X71969411Y-27308551D01*
X196462752Y-32097144D02*
X196459436Y-32146363D01*
X132554705Y-50095433D02*
X132554705Y-50095433D01*
X262862216Y-50194493D02*
X262154177Y-29918351D01*
X44289652Y-93611539D02*
X44378351Y-93570762D01*
X151516543Y-59385644D02*
X151473461Y-59407678D01*
X29750519Y-29819310D02*
X29744601Y-29918353D01*
X150948374Y-70334994D02*
X150944709Y-70384251D01*
X265958671Y-50543533D02*
X265881111Y-50486831D01*
X163217089Y-112396346D02*
X163217089Y-112396346D01*
X114181185Y-137923087D02*
X114277335Y-137898396D01*
X176640902Y-44326733D02*
X176924441Y-45384867D01*
X53624651Y-25486314D02*
X53538047Y-25533815D01*
X268655406Y-93058688D02*
X268752604Y-93043175D01*
X239706683Y-28701015D02*
X239312655Y-26847300D01*
X151431616Y-59431704D02*
X151391071Y-59457658D01*
X115315101Y-137196304D02*
X115373542Y-137116594D01*
X21814304Y-92136073D02*
X21867279Y-92216379D01*
X30178435Y-28742749D02*
X30119228Y-28821015D01*
X95434805Y-32296287D02*
X95438991Y-32246014D01*
X178402802Y-137959467D02*
X178499446Y-137945570D01*
X30012996Y-28985244D02*
X29966118Y-29070885D01*
X53803425Y-25404795D02*
X53713168Y-25443296D01*
X69356166Y-91854468D02*
X61514209Y-107245185D01*
X53895246Y-25370843D02*
X53803425Y-25404795D01*
X269628013Y-69824279D02*
X269615582Y-69776925D01*
X141242508Y-70992522D02*
X141209396Y-70957794D01*
X61714294Y-109376910D02*
X61775874Y-109452622D01*
X113400675Y-137946583D02*
X113497318Y-137960397D01*
X26630588Y-50200456D02*
X26536623Y-50228640D01*
X44862757Y-93237296D02*
X44862757Y-93237296D01*
X229596744Y-109888808D02*
X229681275Y-109837601D01*
X72261812Y-26863567D02*
X72226391Y-26896119D01*
X141472953Y-71164713D02*
X141431077Y-71140635D01*
X25165793Y-51957572D02*
X25159602Y-52060336D01*
X176470996Y-137034179D02*
X176470996Y-137034179D01*
X71636073Y-28851722D02*
X71636073Y-28851722D01*
X52746861Y-26382988D02*
X52705943Y-26471924D01*
X262120515Y-29614763D02*
X262099500Y-29516948D01*
X139949168Y-59285434D02*
X135949603Y-59287265D01*
X132683853Y-50134738D02*
X132554705Y-50095433D01*
X72459472Y-26728380D02*
X72417448Y-26751579D01*
X112670657Y-137669425D02*
X112670657Y-137669425D01*
X140723020Y-59651530D02*
X140690769Y-59614109D01*
X177120368Y-43194170D02*
X177078268Y-43218978D01*
X140944707Y-60186545D02*
X140938638Y-60137704D01*
X229762879Y-109782488D02*
X229841442Y-109723604D01*
X29885206Y-29248411D02*
X29851319Y-29339973D01*
D11*
%TO.C,D46*%
X143422200Y-103225800D03*
X143422200Y-106425800D03*
X148322200Y-106425800D03*
X148322200Y-103225800D03*
%TD*%
D12*
%TO.C,2*%
X43640000Y-72840000D03*
%TD*%
%TO.C,4*%
X79860000Y-93140000D03*
%TD*%
%TO.C,6*%
X123930000Y-104700000D03*
%TD*%
%TO.C,3*%
X107770000Y-63140000D03*
%TD*%
D13*
%TO.C,SW16*%
X182146903Y-76145199D03*
D14*
X172902422Y-75992649D03*
D13*
X172333097Y-78774801D03*
D14*
X178378651Y-71895696D03*
D15*
X177240000Y-77460000D03*
%TD*%
D14*
%TO.C,SW17*%
X190752422Y-69052649D03*
D15*
X195090000Y-70520000D03*
D14*
X196228651Y-64955696D03*
D13*
X199996903Y-69205199D03*
X190183097Y-71834801D03*
%TD*%
D16*
%TO.C,SW37*%
X132867400Y-75233600D03*
X132867400Y-68733600D03*
%TD*%
D14*
%TO.C,SW9*%
X225385162Y-37437649D03*
D13*
X224671010Y-40186191D03*
X234608990Y-38073809D03*
D14*
X231068304Y-33632914D03*
D15*
X229640000Y-39130000D03*
%TD*%
D12*
%TO.C,5*%
X130030000Y-81850000D03*
%TD*%
D13*
%TO.C,SW29*%
X232581010Y-77476191D03*
X242518990Y-75363809D03*
D14*
X238978304Y-70922914D03*
D15*
X237550000Y-76420000D03*
D14*
X233295162Y-74727649D03*
%TD*%
D13*
%TO.C,SW18*%
X219408990Y-58223809D03*
D14*
X210185162Y-57587649D03*
D15*
X214440000Y-59280000D03*
D13*
X209471010Y-60336191D03*
D14*
X215868304Y-53782914D03*
%TD*%
D13*
%TO.C,SW1*%
X46478905Y-40512489D03*
D15*
X41402000Y-40335200D03*
D14*
X44117742Y-35346939D03*
X37682966Y-37663780D03*
D13*
X36325095Y-40157911D03*
%TD*%
D12*
%TO.C,7*%
X118180000Y-112800000D03*
%TD*%
D13*
%TO.C,SW19*%
X228651010Y-58806191D03*
D14*
X229365162Y-56057649D03*
D15*
X233620000Y-57750000D03*
D14*
X235048304Y-52252914D03*
D13*
X238588990Y-56693809D03*
%TD*%
%TO.C,SW10*%
X255571705Y-40157911D03*
D14*
X252855963Y-35169650D03*
D13*
X245417895Y-40512489D03*
D14*
X246598476Y-37929714D03*
D15*
X250494800Y-40335200D03*
%TD*%
D13*
%TO.C,SW35*%
X202706313Y-110123728D03*
D14*
X193632129Y-111896547D03*
X198136885Y-106750551D03*
D15*
X198180000Y-112430000D03*
D13*
X193653687Y-114736272D03*
%TD*%
D14*
%TO.C,SW12*%
X61833686Y-53293306D03*
D13*
X63261990Y-58790391D03*
D15*
X58293000Y-57734200D03*
D13*
X53324010Y-56678009D03*
D14*
X55094353Y-54457562D03*
%TD*%
D13*
%TO.C,SW26*%
X186536903Y-94685199D03*
X176723097Y-97314801D03*
D15*
X181630000Y-96000000D03*
D14*
X177292422Y-94532649D03*
X182768651Y-90435696D03*
%TD*%
%TO.C,SW4*%
X97800000Y-48410000D03*
D13*
X95915874Y-50534751D03*
X105729680Y-53164353D03*
D14*
X104591029Y-47600049D03*
D15*
X100822777Y-51849552D03*
%TD*%
D14*
%TO.C,SW32*%
X91478401Y-108447140D03*
D13*
X89193687Y-110133728D03*
D15*
X93720000Y-112440000D03*
D14*
X98289428Y-109066823D03*
D13*
X98246313Y-114746272D03*
%TD*%
D14*
%TO.C,SW24*%
X89407223Y-85600448D03*
D13*
X97336903Y-90354801D03*
D15*
X92430000Y-89040000D03*
D14*
X96198252Y-84790497D03*
D13*
X87523097Y-87725199D03*
%TD*%
%TO.C,SW36*%
X210633687Y-106096272D03*
X219686313Y-101483728D03*
D15*
X215160000Y-103790000D03*
D14*
X210612129Y-103256547D03*
X215116885Y-98110551D03*
%TD*%
D13*
%TO.C,SW15*%
X119576903Y-78774801D03*
D14*
X118438252Y-73210497D03*
D15*
X114670000Y-77460000D03*
D13*
X109763097Y-76145199D03*
D14*
X111647223Y-74020448D03*
%TD*%
D12*
%TO.C,1*%
X51310000Y-46520000D03*
%TD*%
D14*
%TO.C,SW20*%
X257453363Y-57318450D03*
D13*
X260169105Y-62306711D03*
D14*
X251195876Y-60078514D03*
D15*
X255092200Y-62484000D03*
D13*
X250015295Y-62661289D03*
%TD*%
D12*
%TO.C,10*%
X173720000Y-112810000D03*
%TD*%
D13*
%TO.C,SW13*%
X72475610Y-58227409D03*
D15*
X77444600Y-59283600D03*
D14*
X74245953Y-56006962D03*
X80985286Y-54842706D03*
D13*
X82413590Y-60339791D03*
%TD*%
D14*
%TO.C,SW7*%
X186732422Y-50372649D03*
D13*
X195976903Y-50525199D03*
D15*
X191070000Y-51840000D03*
D13*
X186163097Y-53154801D03*
D14*
X192208651Y-46275696D03*
%TD*%
D13*
%TO.C,SW23*%
X68487810Y-76896409D03*
D15*
X73456800Y-77952600D03*
D13*
X78425790Y-79008791D03*
D14*
X70258153Y-74675962D03*
X76997486Y-73511706D03*
%TD*%
D13*
%TO.C,SW22*%
X59299590Y-77459391D03*
X49361610Y-75347009D03*
D15*
X54330600Y-76403200D03*
D14*
X51131953Y-73126562D03*
X57871286Y-71962306D03*
%TD*%
D13*
%TO.C,SW34*%
X185668084Y-119508010D03*
D15*
X181360000Y-122200000D03*
D14*
X180822052Y-116545921D03*
D13*
X177051916Y-124891990D03*
D14*
X176782942Y-122064950D03*
%TD*%
D12*
%TO.C,12*%
X211990000Y-93130000D03*
%TD*%
%TO.C,13*%
X240550000Y-46520000D03*
%TD*%
%TO.C,11*%
X184110000Y-63170000D03*
%TD*%
D14*
%TO.C,SW6*%
X173448651Y-53475696D03*
X167972422Y-57572649D03*
D13*
X167403097Y-60354801D03*
X177216903Y-57725199D03*
D15*
X172310000Y-59040000D03*
%TD*%
D13*
%TO.C,SW5*%
X124496903Y-60364801D03*
D14*
X116567223Y-55610448D03*
D15*
X119590000Y-59050000D03*
D14*
X123358252Y-54800497D03*
D13*
X114683097Y-57735199D03*
%TD*%
D14*
%TO.C,SW3*%
X78182953Y-37363362D03*
D15*
X81381600Y-40640000D03*
D14*
X84922286Y-36199106D03*
D13*
X86350590Y-41696191D03*
X76412610Y-39583809D03*
%TD*%
D14*
%TO.C,SW11*%
X39494942Y-57495739D03*
D13*
X41856105Y-62661289D03*
D15*
X36779200Y-62484000D03*
D14*
X33060166Y-59812580D03*
D13*
X31702295Y-62306711D03*
%TD*%
D15*
%TO.C,SW33*%
X110530000Y-122210000D03*
D13*
X114838084Y-124901990D03*
D14*
X115376032Y-119247911D03*
D13*
X106221916Y-119518010D03*
D14*
X108644932Y-118036965D03*
%TD*%
D13*
%TO.C,SW8*%
X215458990Y-39603809D03*
D14*
X211918304Y-35162914D03*
D15*
X210490000Y-40660000D03*
D13*
X205521010Y-41716191D03*
D14*
X206235162Y-38967649D03*
%TD*%
D15*
%TO.C,SW14*%
X96800000Y-70510000D03*
D14*
X100568252Y-66260497D03*
X93777223Y-67070448D03*
D13*
X91893097Y-69195199D03*
X101706903Y-71824801D03*
%TD*%
D12*
%TO.C,8*%
X161840000Y-81870000D03*
%TD*%
D14*
%TO.C,SW28*%
X219868304Y-72432914D03*
D13*
X223408990Y-76873809D03*
X213471010Y-78986191D03*
D15*
X218440000Y-77930000D03*
D14*
X214185162Y-76237649D03*
%TD*%
D15*
%TO.C,SW21*%
X33858200Y-81432400D03*
D13*
X28781295Y-81255111D03*
D14*
X30139166Y-78760980D03*
X36573942Y-76444139D03*
D13*
X38935105Y-81609689D03*
%TD*%
D14*
%TO.C,SW31*%
X81289428Y-100406823D03*
X74478401Y-99787140D03*
D13*
X81246313Y-106086272D03*
X72193687Y-101473728D03*
D15*
X76720000Y-103780000D03*
%TD*%
%TO.C,SW25*%
X110280000Y-95990000D03*
D13*
X105373097Y-94675199D03*
D14*
X114048252Y-91740497D03*
X107257223Y-92550448D03*
D13*
X115186903Y-97304801D03*
%TD*%
%TO.C,SW30*%
X263115505Y-81255111D03*
D14*
X260399763Y-76266850D03*
D13*
X252961695Y-81609689D03*
D14*
X254142276Y-79026914D03*
D15*
X258038600Y-81432400D03*
%TD*%
D13*
%TO.C,SW2*%
X57235610Y-38059809D03*
D14*
X65745286Y-34675106D03*
D13*
X67173590Y-40172191D03*
D15*
X62204600Y-39116000D03*
D14*
X59005953Y-35839362D03*
%TD*%
D12*
%TO.C,14*%
X248240000Y-72820000D03*
%TD*%
D13*
%TO.C,SW27*%
X204386903Y-87705199D03*
D15*
X199480000Y-89020000D03*
D14*
X195142422Y-87552649D03*
X200618651Y-83455696D03*
D13*
X194573097Y-90334801D03*
%TD*%
D12*
%TO.C,9*%
X167970000Y-104700000D03*
%TD*%
M02*
