999
FreeCAD v0.19 24415 (Git)
  0
SECTION
  2
HEADER
  9
$ACADVER
  1
AC1014
  9
$ACADMAINTVER
 70
     9
  9
$DWGCODEPAGE
  3
ANSI_1252
  9
$TEXTSTYLE
  7
STANDARD
  9
$DIMSTYLE
  2
STANDARD
  9
$DIMTXSTY
  7
STANDARD
  9
$CMLSTYLE
  2
STANDARD
  9
$PEXTMAX
 10
50
 20
50
 30
50
  9
$PEXTMIN
 10
0
 20
0
 30
0
  9
$HANDSEED
  5
FFFF
  0
ENDSEC
  0
SECTION
  2
CLASSES
  0
CLASS
  1
ACDBDICTIONARYWDFLT
  2
AcDbDictionaryWithDefault
  3
ObjectDBX Classes
 90
        0
280
     0
281
     0
  0
CLASS
  1
XRECORD
  2
AcDbXrecord
  3
ObjectDBX Classes
 90
        0
280
     0
281
     0
  0
CLASS
  1
LWPOLYLINE
  2
AcDbPolyline
  3
ObjectDBX Classes
 90
        0
280
     0
281
     1
  0
ENDSEC
  0
SECTION
  2
TABLES
  0
TABLE
  2
VPORT
  5
20
330
0
100
AcDbSymbolTable
 70
     1
  0
VPORT
  5
21
330
20
100
AcDbSymbolTableRecord
100
AcDbViewportTableRecord
  2
*ACTIVE
 70
     0
  0
ENDTAB
  0
TABLE
  2
LTYPE
  5
22
330
0
100
AcDbSymbolTable
 70
     1
  0
LTYPE
  5
23
330
21
100
AcDbSymbolTableRecord
100
AcDbLinetypeTableRecord
  2
BYBLOCK
 70
     0
  3

 72
    65
 73
     0
 40
0.0
  0
LTYPE
  5
24
330
21
100
AcDbSymbolTableRecord
100
AcDbLinetypeTableRecord
  2
BYLAYER
 70
     0
  3

 72
    65
 73
     0
 40
0.0
  0
LTYPE
  5
25
330
21
100
AcDbSymbolTableRecord
100
AcDbLinetypeTableRecord
  2
CONTINUOUS
 70
     0
  3
Solid line
 72
    65
 73
     0
 40
0.0
  0
ENDTAB
  0
TABLE
  2
LAYER
  5
B10
330
0
100
AcDbSymbolTable
 70
3
  0
LAYER
  5
B11
330
B10
100
AcDbSymbolTableRecord
100
AcDbLayerTableRecord
  2
0
 70
   0
 62
   7
  6
CONTINUOUS
  0
LAYER
  5
B12
330
B10
100
AcDbSymbolTableRecord
100
AcDbLayerTableRecord
  2
none
 70
    0
 62
    7
  6
CONTINUOUS
  0
LAYER
  5
B13
330
B10
100
AcDbSymbolTableRecord
100
AcDbLayerTableRecord
  2
Sketch221
 70
    0
 62
    7
  6
CONTINUOUS
  0
ENDTAB
  0
TABLE
  2
STYLE
  5
70
330
0
100
AcDbSymbolTable
 70
     2
  0
STYLE
  5
71
330
70
100
AcDbSymbolTableRecord
100
AcDbTextStyleTableRecord
  2
STANDARD
 70
     0
 40
0.0
 41
1.0
 50
0.0
 71
     0
 42
2.5
  3
arial.ttf
  4

  0
STYLE
  5
72
330
70
100
AcDbSymbolTableRecord
100
AcDbTextStyleTableRecord
  2
ANNOTATIVE
 70
     0
 40
0.0
 41
1.0
 50
0.0
 71
     0
 42
2.5
  3
arial.ttf
  4

  0
ENDTAB
  0
TABLE
  2
VIEW
  5
73
330
0
100
AcDbSymbolTable
 70
     0
  0
ENDTAB
  0
TABLE
  2
UCS
  5
74
330
0
100
AcDbSymbolTable
 70
     0
  0
ENDTAB
  0
TABLE
  2
APPID
  5
75
330
0
100
AcDbSymbolTable
 70
     2
  0
APPID
  5
76
330
75
100
AcDbSymbolTableRecord
100
AcDbRegAppTableRecord
  2
ACAD
 70
     0
  0
APPID
  5
77
330
75
100
AcDbSymbolTableRecord
100
AcDbRegAppTableRecord
  2
ACADANNOTATIVE
 70
     0
  0
ENDTAB
  0
TABLE
  2
DIMSTYLE
  5
78
330
0
100
AcDbSymbolTable
 70
     2
  0
DIMSTYLE
105
79
330
78
100
AcDbSymbolTableRecord
100
AcDbDimStyleTableRecord
  2
STANDARD
 70
     0
  3

  4

  5

  6

  7

 40
0.0
 41
2.5
 42
0.625
 43
3.75
 44
1.25
 45
0.0
 46
0.0
 47
0.0
 48
0.0
140
2.5
141
2.5
142
0.0
143
0.03937007874016
144
1.0
145
0.0
146
1.0
147
0.625
 71
     0
 72
     0
 73
     0
 74
     0
 75
     0
 76
     0
 77
     1
 78
     8
170
     0
171
     3
172
     1
173
     0
174
     0
175
     0
176
     0
177
     0
178
     0
270
     2
271
     2
272
     2
273
     2
274
     3
340
71
275
     0
280
     0
281
     0
282
     0
283
     0
284
     8
285
     0
286
     0
287
     3
288
     0
  0
ENDTAB
  0
TABLE
  2
BLOCK_RECORD
  5
A01
330
0
100
AcDbSymbolTable
  70
5
  0
BLOCK_RECORD
  5
A02
330
A01
100
AcDbSymbolTableRecord
100
AcDbBlockTableRecord
  2
*MODEL_SPACE
  0
BLOCK_RECORD
  5
A03
330
A01
100
AcDbSymbolTableRecord
100
AcDbBlockTableRecord
  2
*PAPER_SPACE
  0
ENDTAB
  0
ENDSEC
  0
SECTION
  2
BLOCKS
  0
BLOCK
  5
A04
330
A02
100
AcDbEntity
  8
0
100
AcDbBlockBegin
  2
*MODEL_SPACE
 70
   0
 10
0
 20
0
 30
0
  3
*MODEL_SPACE
  1
 
  0
ENDBLK
  5
A05
330
A02
100
AcDbEntity
  8
0
100
AcDbBlockEnd
  0
BLOCK
  5
A06
330
A03
100
AcDbEntity
 67
1
  8
0
100
AcDbBlockBegin
  2
*PAPER_SPACE
 70
   0
 10
0
 20
0
 30
0
  3
*PAPER_SPACE
  1
 
  0
ENDBLK
  5
A07
330
A03
100
AcDbEntity
 67
    1
  8
0
100
AcDbBlockEnd
  0
ENDSEC
  0
SECTION
  2
ENTITIES
  0
LINE
  5
A08
330
A02
100
AcDbEntity
  8
Sketch221
100
AcDbLine
 10
111.795
 20
-7.17814
 30
0
 11
96.8037
 21
-7.70164
 31
0
  0
LINE
  5
A09
330
A02
100
AcDbEntity
  8
Sketch221
100
AcDbLine
 10
96.8037
 20
-7.70164
 30
0
 11
97.2203
 21
-19.6309
 31
0
  0
ARC
  5
A0A
330
A02
100
AcDbEntity
  8
Sketch221
100
AcDbCircle
 10
94.6205
 20
-21.1278
 30
0
 40
3
100
AcDbArc
 50
29.9334
 51
135.116
  0
LINE
  5
A0B
330
A02
100
AcDbEntity
  8
Sketch221
100
AcDbLine
 10
89.4812
 20
-4.83254
 30
0
 11
92.4949
 21
-19.0108
 31
0
  0
LINE
  5
A0C
330
A02
100
AcDbEntity
  8
Sketch221
100
AcDbLine
 10
89.4812
 20
-4.83254
 30
0
 11
74.809
 21
-7.95121
 31
0
  0
LINE
  5
A0D
330
A02
100
AcDbEntity
  8
Sketch221
100
AcDbLine
 10
74.809
 20
-7.95121
 30
0
 11
77.9276
 21
-22.6234
 31
0
  0
LINE
  5
A0E
330
A02
100
AcDbEntity
  8
Sketch221
100
AcDbLine
 10
92.0226
 20
-19.6275
 30
0
 11
77.9276
 21
-22.6234
 31
0
  0
ARC
  5
A0F
330
A02
100
AcDbEntity
  8
Sketch221
100
AcDbCircle
 10
94.6205
 20
-21.1278
 30
0
 40
3
100
AcDbArc
 50
149.991
 51
-125.097
  0
LINE
  5
A10
330
A02
100
AcDbEntity
  8
Sketch221
100
AcDbLine
 10
92.8956
 20
-23.5824
 30
0
 11
78.7697
 21
-26.5849
 31
0
  0
LINE
  5
A11
330
A02
100
AcDbEntity
  8
Sketch221
100
AcDbLine
 10
78.7697
 20
-26.5849
 30
0
 11
81.8884
 21
-41.2571
 31
0
  0
LINE
  5
A12
330
A02
100
AcDbEntity
  8
Sketch221
100
AcDbLine
 10
96.5606
 20
-38.1385
 30
0
 11
81.8884
 21
-41.2571
 31
0
  0
LINE
  5
A13
330
A02
100
AcDbEntity
  8
Sketch221
100
AcDbLine
 10
93.5397
 20
-23.9264
 30
0
 11
96.5606
 21
-38.1385
 31
0
  0
ARC
  5
A14
330
A02
100
AcDbEntity
  8
Sketch221
100
AcDbCircle
 10
94.6205
 20
-21.1278
 30
0
 40
3
100
AcDbArc
 50
-111.116
 51
-25.9334
  0
LINE
  5
A15
330
A02
100
AcDbEntity
  8
Sketch221
100
AcDbLine
 10
97.3184
 20
-22.4398
 30
0
 11
97.3272
 21
-22.6925
 31
0
  0
LINE
  5
A16
330
A02
100
AcDbEntity
  8
Sketch221
100
AcDbLine
 10
112.318
 20
-22.169
 30
0
 11
97.3272
 21
-22.6925
 31
0
  0
LINE
  5
A17
330
A02
100
AcDbEntity
  8
Sketch221
100
AcDbLine
 10
111.795
 20
-7.17814
 30
0
 11
112.318
 21
-22.169
 31
0
  0
LINE
  5
A18
330
A02
100
AcDbEntity
  8
Sketch221
100
AcDbLine
 10
119.33
 20
-48.2787
 30
0
 11
105.016
 21
-48.7785
 31
0
  0
ARC
  5
A19
330
A02
100
AcDbEntity
  8
Sketch221
100
AcDbCircle
 10
102.325
 20
-47.4534
 30
0
 40
3
100
AcDbArc
 50
-26.2132
 51
63.3119
  0
LINE
  5
A1A
330
A02
100
AcDbEntity
  8
Sketch221
100
AcDbLine
 10
116.904
 20
-44.311
 30
0
 11
103.672
 21
-44.773
 31
0
  0
LINE
  5
A1B
330
A02
100
AcDbEntity
  8
Sketch221
100
AcDbLine
 10
116.38
 20
-29.3201
 30
0
 11
116.904
 21
-44.311
 31
0
  0
LINE
  5
A1C
330
A02
100
AcDbEntity
  8
Sketch221
100
AcDbLine
 10
116.38
 20
-29.3201
 30
0
 11
101.389
 21
-29.8436
 31
0
  0
LINE
  5
A1D
330
A02
100
AcDbEntity
  8
Sketch221
100
AcDbLine
 10
101.389
 20
-29.8436
 30
0
 11
101.9
 21
-44.4836
 31
0
  0
ARC
  5
A1E
330
A02
100
AcDbEntity
  8
Sketch221
100
AcDbCircle
 10
102.325
 20
-47.4534
 30
0
 40
3
100
AcDbArc
 50
98.1317
 51
-47.0662
  0
LINE
  5
A1F
330
A02
100
AcDbEntity
  8
Sketch221
100
AcDbLine
 10
104.368
 20
-49.6498
 30
0
 11
104.862
 21
-63.7931
 31
0
  0
LINE
  5
A20
330
A02
100
AcDbEntity
  8
Sketch221
100
AcDbLine
 10
119.853
 20
-63.2696
 30
0
 11
104.862
 21
-63.7931
 31
0
  0
LINE
  5
A21
330
A02
100
AcDbEntity
  8
Sketch221
100
AcDbLine
 10
119.33
 20
-48.2787
 30
0
 11
119.853
 21
-63.2696
 31
0
  0
LINE
  5
A22
330
A02
100
AcDbEntity
  8
Sketch221
100
AcDbLine
 10
50.4327
 20
-17.2647
 30
0
 11
35.9438
 21
-21.147
 31
0
  0
LINE
  5
A23
330
A02
100
AcDbEntity
  8
Sketch221
100
AcDbLine
 10
35.9438
 20
-21.147
 30
0
 11
39.6987
 21
-35.1604
 31
0
  0
ARC
  5
A24
330
A02
100
AcDbEntity
  8
Sketch221
100
AcDbCircle
 10
38.1701
 20
-37.7417
 30
0
 40
3
100
AcDbArc
 50
59.3668
 51
177.293
  0
LINE
  5
A25
330
A02
100
AcDbEntity
  8
Sketch221
100
AcDbLine
 10
31.6541
 20
-24.4659
 30
0
 11
35.1734
 21
-37.6
 31
0
  0
LINE
  5
A26
330
A02
100
AcDbEntity
  8
Sketch221
100
AcDbLine
 10
31.6541
 20
-24.4659
 30
0
 11
17.1653
 21
-28.3481
 31
0
  0
LINE
  5
A27
330
A02
100
AcDbEntity
  8
Sketch221
100
AcDbLine
 10
17.1653
 20
-28.3481
 30
0
 11
21.0475
 21
-42.837
 31
0
  0
LINE
  5
A28
330
A02
100
AcDbEntity
  8
Sketch221
100
AcDbLine
 10
35.4381
 20
-38.9811
 30
0
 11
21.0475
 21
-42.837
 31
0
  0
ARC
  5
A29
330
A02
100
AcDbEntity
  8
Sketch221
100
AcDbCircle
 10
38.1701
 20
-37.7417
 30
0
 40
3
100
AcDbArc
 50
-155.599
 51
-51.5856
  0
LINE
  5
A2A
330
A02
100
AcDbEntity
  8
Sketch221
100
AcDbLine
 10
40.0341
 20
-40.0924
 30
0
 11
43.8366
 21
-54.2833
 31
0
  0
LINE
  5
A2B
330
A02
100
AcDbEntity
  8
Sketch221
100
AcDbLine
 10
58.3255
 20
-50.401
 30
0
 11
43.8366
 21
-54.2833
 31
0
  0
LINE
  5
A2C
330
A02
100
AcDbEntity
  8
Sketch221
100
AcDbLine
 10
54.4432
 20
-35.9121
 30
0
 11
58.3255
 21
-50.401
 31
0
  0
LINE
  5
A2D
330
A02
100
AcDbEntity
  8
Sketch221
100
AcDbLine
 10
54.4432
 20
-35.9121
 30
0
 11
40.4826
 21
-39.6529
 31
0
  0
ARC
  5
A2E
330
A02
100
AcDbEntity
  8
Sketch221
100
AcDbCircle
 10
38.1701
 20
-37.7417
 30
0
 40
3
100
AcDbArc
 50
-39.5719
 51
47.3545
  0
LINE
  5
A2F
330
A02
100
AcDbEntity
  8
Sketch221
100
AcDbLine
 10
54.315
 20
-31.7536
 30
0
 11
40.2025
 21
-35.5351
 31
0
  0
LINE
  5
A30
330
A02
100
AcDbEntity
  8
Sketch221
100
AcDbLine
 10
50.4327
 20
-17.2647
 30
0
 11
54.315
 21
-31.7536
 31
0
  0
CIRCLE
  5
A31
330
A02
100
AcDbEntity
  8
Sketch221
100
AcDbCircle
 10
27.7478
 20
-87.4297
 40
3
  0
CIRCLE
  5
A32
330
A02
100
AcDbEntity
  8
Sketch221
100
AcDbCircle
 10
22.0215
 20
-79.3133
 40
3
  0
CIRCLE
  5
A33
330
A02
100
AcDbEntity
  8
Sketch221
100
AcDbCircle
 10
15.8998
 20
-56.4668
 40
3
  0
LINE
  5
A34
330
A02
100
AcDbEntity
  8
Sketch221
100
AcDbLine
 10
70.3326
 20
-6.37087
 30
0
 11
73.4512
 21
-21.0431
 31
0
  0
LINE
  5
A35
330
A02
100
AcDbEntity
  8
Sketch221
100
AcDbLine
 10
73.4512
 20
-21.0431
 30
0
 11
58.779
 21
-24.1618
 31
0
  0
LINE
  5
A36
330
A02
100
AcDbEntity
  8
Sketch221
100
AcDbLine
 10
55.6604
 20
-9.48955
 30
0
 11
58.779
 21
-24.1618
 31
0
  0
LINE
  5
A37
330
A02
100
AcDbEntity
  8
Sketch221
100
AcDbLine
 10
70.3326
 20
-6.37087
 30
0
 11
55.6604
 21
-9.48955
 31
0
  0
LINE
  5
A38
330
A02
100
AcDbEntity
  8
Sketch221
100
AcDbLine
 10
74.2933
 20
-25.0046
 30
0
 11
77.412
 21
-39.6768
 31
0
  0
LINE
  5
A39
330
A02
100
AcDbEntity
  8
Sketch221
100
AcDbLine
 10
77.412
 20
-39.6768
 30
0
 11
62.7398
 21
-42.7955
 31
0
  0
LINE
  5
A3A
330
A02
100
AcDbEntity
  8
Sketch221
100
AcDbLine
 10
59.6211
 20
-28.1233
 30
0
 11
62.7398
 21
-42.7955
 31
0
  0
LINE
  5
A3B
330
A02
100
AcDbEntity
  8
Sketch221
100
AcDbLine
 10
74.2933
 20
-25.0046
 30
0
 11
59.6211
 21
-28.1233
 31
0
  0
LINE
  5
A3C
330
A02
100
AcDbEntity
  8
Sketch221
100
AcDbLine
 10
78.254
 20
-43.6383
 30
0
 11
81.3727
 21
-58.3105
 31
0
  0
LINE
  5
A3D
330
A02
100
AcDbEntity
  8
Sketch221
100
AcDbLine
 10
81.3727
 20
-58.3105
 30
0
 11
66.7005
 21
-61.4292
 31
0
  0
LINE
  5
A3E
330
A02
100
AcDbEntity
  8
Sketch221
100
AcDbLine
 10
63.5818
 20
-46.757
 30
0
 11
66.7005
 21
-61.4292
 31
0
  0
LINE
  5
A3F
330
A02
100
AcDbEntity
  8
Sketch221
100
AcDbLine
 10
78.254
 20
-43.6383
 30
0
 11
63.5818
 21
-46.757
 31
0
  0
LINE
  5
A40
330
A02
100
AcDbEntity
  8
Sketch221
100
AcDbLine
 10
97.4026
 20
-42.1
 30
0
 11
100.521
 21
-56.7722
 31
0
  0
LINE
  5
A41
330
A02
100
AcDbEntity
  8
Sketch221
100
AcDbLine
 10
100.521
 20
-56.7722
 30
0
 11
85.8491
 21
-59.8909
 31
0
  0
LINE
  5
A42
330
A02
100
AcDbEntity
  8
Sketch221
100
AcDbLine
 10
82.7304
 20
-45.2186
 30
0
 11
85.8491
 21
-59.8909
 31
0
  0
LINE
  5
A43
330
A02
100
AcDbEntity
  8
Sketch221
100
AcDbLine
 10
97.4026
 20
-42.1
 30
0
 11
82.7304
 21
-45.2186
 31
0
  0
LINE
  5
A44
330
A02
100
AcDbEntity
  8
Sketch221
100
AcDbLine
 10
36.5847
 20
-42.8667
 30
0
 11
40.4669
 21
-57.3556
 31
0
  0
LINE
  5
A45
330
A02
100
AcDbEntity
  8
Sketch221
100
AcDbLine
 10
40.4669
 20
-57.3556
 30
0
 11
25.978
 21
-61.2379
 31
0
  0
LINE
  5
A46
330
A02
100
AcDbEntity
  8
Sketch221
100
AcDbLine
 10
22.0958
 20
-46.749
 30
0
 11
25.978
 21
-61.2379
 31
0
  0
LINE
  5
A47
330
A02
100
AcDbEntity
  8
Sketch221
100
AcDbLine
 10
36.5847
 20
-42.8667
 30
0
 11
22.0958
 21
-46.749
 31
0
  0
LINE
  5
A48
330
A02
100
AcDbEntity
  8
Sketch221
100
AcDbLine
 10
58.8217
 20
-54.4609
 30
0
 11
44.3328
 21
-58.3432
 31
0
  0
LINE
  5
A49
330
A02
100
AcDbEntity
  8
Sketch221
100
AcDbLine
 10
58.8217
 20
-54.4609
 30
0
 11
62.4751
 21
-68.0958
 31
0
  0
ARC
  5
A4A
330
A02
100
AcDbEntity
  8
Sketch221
100
AcDbCircle
 10
66.0598
 20
-67.7645
 30
0
 40
3.6
100
AcDbArc
 50
-43.4324
 51
-174.72
  0
LINE
  5
A4B
330
A02
100
AcDbEntity
  8
Sketch221
100
AcDbLine
 10
72.479
 20
-68.3009
 30
0
 11
68.6741
 21
-70.2395
 31
0
  0
LINE
  5
A4C
330
A02
100
AcDbEntity
  8
Sketch221
100
AcDbLine
 10
72.479
 20
-68.3009
 30
0
 11
79.2888
 21
-81.666
 31
0
  0
LINE
  5
A4D
330
A02
100
AcDbEntity
  8
Sketch221
100
AcDbLine
 10
79.2888
 20
-81.666
 30
0
 11
65.9237
 21
-88.4758
 31
0
  0
LINE
  5
A4E
330
A02
100
AcDbEntity
  8
Sketch221
100
AcDbLine
 10
59.1139
 20
-75.1107
 30
0
 11
65.9237
 21
-88.4758
 31
0
  0
LINE
  5
A4F
330
A02
100
AcDbEntity
  8
Sketch221
100
AcDbLine
 10
66.5255
 20
-71.3343
 30
0
 11
59.1139
 21
-75.1107
 31
0
  0
ARC
  5
A50
330
A02
100
AcDbEntity
  8
Sketch221
100
AcDbCircle
 10
66.0598
 20
-67.7645
 30
0
 40
3.6
100
AcDbArc
 50
-160.597
 51
-82.5676
  0
LINE
  5
A51
330
A02
100
AcDbEntity
  8
Sketch221
100
AcDbLine
 10
62.6643
 20
-68.9605
 30
0
 11
48.2151
 21
-72.8321
 31
0
  0
LINE
  5
A52
330
A02
100
AcDbEntity
  8
Sketch221
100
AcDbLine
 10
44.3328
 20
-58.3432
 30
0
 11
48.2151
 21
-72.8321
 31
0
  0
LINE
  5
A53
330
A02
100
AcDbEntity
  8
Sketch221
100
AcDbLine
 10
40.9631
 20
-61.4155
 30
0
 11
44.8454
 21
-75.9044
 31
0
  0
LINE
  5
A54
330
A02
100
AcDbEntity
  8
Sketch221
100
AcDbLine
 10
44.8454
 20
-75.9044
 30
0
 11
30.3565
 21
-79.7867
 31
0
  0
LINE
  5
A55
330
A02
100
AcDbEntity
  8
Sketch221
100
AcDbLine
 10
26.4742
 20
-65.2978
 30
0
 11
30.3565
 21
-79.7867
 31
0
  0
LINE
  5
A56
330
A02
100
AcDbEntity
  8
Sketch221
100
AcDbLine
 10
40.9631
 20
-61.4155
 30
0
 11
26.4742
 21
-65.2978
 31
0
  0
LINE
  5
A57
330
A02
100
AcDbEntity
  8
Sketch221
100
AcDbLine
 10
55.5053
 20
-76.9494
 30
0
 11
62.3151
 21
-90.3145
 31
0
  0
LINE
  5
A58
330
A02
100
AcDbEntity
  8
Sketch221
100
AcDbLine
 10
62.3151
 20
-90.3145
 30
0
 11
48.95
 21
-97.1243
 31
0
  0
LINE
  5
A59
330
A02
100
AcDbEntity
  8
Sketch221
100
AcDbLine
 10
42.1402
 20
-83.7592
 30
0
 11
48.95
 21
-97.1243
 31
0
  0
LINE
  5
A5A
330
A02
100
AcDbEntity
  8
Sketch221
100
AcDbLine
 10
55.5053
 20
-76.9494
 30
0
 11
42.1402
 21
-83.7592
 31
0
  0
LINE
  5
A5B
330
A02
100
AcDbEntity
  8
Sketch221
100
AcDbLine
 10
37.7847
 20
-86.4642
 30
0
 11
45.7335
 21
-99.1849
 31
0
  0
LINE
  5
A5C
330
A02
100
AcDbEntity
  8
Sketch221
100
AcDbLine
 10
45.7335
 20
-99.1849
 30
0
 11
33.0128
 21
-107.134
 31
0
  0
LINE
  5
A5D
330
A02
100
AcDbEntity
  8
Sketch221
100
AcDbLine
 10
25.064
 20
-94.413
 30
0
 11
33.0128
 21
-107.134
 31
0
  0
LINE
  5
A5E
330
A02
100
AcDbEntity
  8
Sketch221
100
AcDbLine
 10
37.7847
 20
-86.4642
 30
0
 11
25.064
 21
-94.413
 31
0
  0
ARC
  5
A5F
330
A02
100
AcDbEntity
  8
Sketch221
100
AcDbCircle
 10
73.0284
 20
-2.21967
 30
0
 40
1
100
AcDbArc
 50
12
 51
102
  0
LINE
  5
A60
330
A02
100
AcDbEntity
  8
Sketch221
100
AcDbLine
 10
72.8205
 20
-1.24152
 30
0
 11
51.3012
 21
-5.81558
 31
0
  0
ARC
  5
A61
330
A02
100
AcDbEntity
  8
Sketch221
100
AcDbCircle
 10
51.5092
 20
-6.79372
 30
0
 40
1
100
AcDbArc
 50
102
 51
-168
  0
LINE
  5
A62
330
A02
100
AcDbEntity
  8
Sketch221
100
AcDbLine
 10
50.531
 20
-7.00163
 30
0
 11
51.6528
 21
-12.2791
 31
0
  0
LINE
  5
A63
330
A02
100
AcDbEntity
  8
Sketch221
100
AcDbLine
 10
51.6528
 20
-12.2791
 30
0
 11
31.3984
 21
-17.7062
 31
0
  0
ARC
  5
A64
330
A02
100
AcDbEntity
  8
Sketch221
100
AcDbCircle
 10
31.6572
 20
-18.6721
 30
0
 40
1
100
AcDbArc
 50
105
 51
-165
  0
LINE
  5
A65
330
A02
100
AcDbEntity
  8
Sketch221
100
AcDbLine
 10
30.6913
 20
-18.931
 30
0
 11
30.9748
 21
-19.9891
 31
0
  0
LINE
  5
A66
330
A02
100
AcDbEntity
  8
Sketch221
100
AcDbLine
 10
30.9748
 20
-19.9891
 30
0
 11
13.3949
 21
-24.6997
 31
0
  0
ARC
  5
A67
330
A02
100
AcDbEntity
  8
Sketch221
100
AcDbCircle
 10
13.9125
 20
-26.6315
 30
0
 40
2
100
AcDbArc
 50
105
 51
165.714
  0
LINE
  5
A68
330
A02
100
AcDbEntity
  8
Sketch221
100
AcDbLine
 10
11.9744
 20
-26.138
 30
0
 11
10
 21
-33.8915
 31
0
  0
LINE
  5
A69
330
A02
100
AcDbEntity
  8
Sketch221
100
AcDbLine
 10
10
 20
-33.8915
 30
0
 11
10
 21
-71.8915
 31
0
  0
LINE
  5
A6A
330
A02
100
AcDbEntity
  8
Sketch221
100
AcDbLine
 10
10
 20
-71.8915
 30
0
 11
0
 21
-71.8915
 31
0
  0
LINE
  5
A6B
330
A02
100
AcDbEntity
  8
Sketch221
100
AcDbLine
 10
-10
 20
-71.8915
 30
0
 11
0
 21
-71.8915
 31
0
  0
LINE
  5
A6C
330
A02
100
AcDbEntity
  8
Sketch221
100
AcDbLine
 10
-10
 20
-33.8915
 30
0
 11
-10
 21
-71.8915
 31
0
  0
LINE
  5
A6D
330
A02
100
AcDbEntity
  8
Sketch221
100
AcDbLine
 10
-11.9744
 20
-26.138
 30
0
 11
-10
 21
-33.8915
 31
0
  0
ARC
  5
A6E
330
A02
100
AcDbEntity
  8
Sketch221
100
AcDbCircle
 10
-13.9125
 20
-26.6315
 30
0
 40
2
100
AcDbArc
 50
14.2863
 51
75
  0
LINE
  5
A6F
330
A02
100
AcDbEntity
  8
Sketch221
100
AcDbLine
 10
-30.9748
 20
-19.9891
 30
0
 11
-13.3949
 21
-24.6997
 31
0
  0
LINE
  5
A70
330
A02
100
AcDbEntity
  8
Sketch221
100
AcDbLine
 10
-30.6913
 20
-18.931
 30
0
 11
-30.9748
 21
-19.9891
 31
0
  0
ARC
  5
A71
330
A02
100
AcDbEntity
  8
Sketch221
100
AcDbCircle
 10
-31.6572
 20
-18.6721
 30
0
 40
1
100
AcDbArc
 50
-15
 51
75
  0
LINE
  5
A72
330
A02
100
AcDbEntity
  8
Sketch221
100
AcDbLine
 10
-51.6528
 20
-12.2791
 30
0
 11
-31.3984
 21
-17.7062
 31
0
  0
LINE
  5
A73
330
A02
100
AcDbEntity
  8
Sketch221
100
AcDbLine
 10
-50.531
 20
-7.00163
 30
0
 11
-51.6528
 21
-12.2791
 31
0
  0
ARC
  5
A74
330
A02
100
AcDbEntity
  8
Sketch221
100
AcDbCircle
 10
-51.5092
 20
-6.79372
 30
0
 40
1
100
AcDbArc
 50
-12
 51
78
  0
LINE
  5
A75
330
A02
100
AcDbEntity
  8
Sketch221
100
AcDbLine
 10
-72.8205
 20
-1.24152
 30
0
 11
-51.3012
 21
-5.81558
 31
0
  0
ARC
  5
A76
330
A02
100
AcDbEntity
  8
Sketch221
100
AcDbCircle
 10
-73.0284
 20
-2.21967
 30
0
 40
1
100
AcDbArc
 50
78
 51
168
  0
LINE
  5
A77
330
A02
100
AcDbEntity
  8
Sketch221
100
AcDbLine
 10
-74.0065
 20
-2.01175
 30
0
 11
-74.3135
 21
-3.45599
 31
0
  0
LINE
  5
A78
330
A02
100
AcDbEntity
  8
Sketch221
100
AcDbLine
 10
-90.9909
 20
0.0889051
 30
0
 11
-74.3135
 21
-3.45599
 31
0
  0
ARC
  5
A79
330
A02
100
AcDbEntity
  8
Sketch221
100
AcDbCircle
 10
-91.4068
 20
-1.86739
 30
0
 40
2
100
AcDbArc
 50
78
 51
168
  0
LINE
  5
A7A
330
A02
100
AcDbEntity
  8
Sketch221
100
AcDbLine
 10
-93.3631
 20
-1.45157
 30
0
 11
-93.7571
 21
-3.30528
 31
0
  0
LINE
  5
A7B
330
A02
100
AcDbEntity
  8
Sketch221
100
AcDbLine
 10
-114.136
 20
-2.59364
 30
0
 11
-93.7571
 21
-3.30528
 31
0
  0
ARC
  5
A7C
330
A02
100
AcDbEntity
  8
Sketch221
100
AcDbCircle
 10
-114.206
 20
-4.59242
 30
0
 40
2
100
AcDbArc
 50
88
 51
178
  0
LINE
  5
A7D
330
A02
100
AcDbEntity
  8
Sketch221
100
AcDbLine
 10
-116.205
 20
-4.52262
 30
0
 11
-116.913
 21
-24.7988
 31
0
  0
LINE
  5
A7E
330
A02
100
AcDbEntity
  8
Sketch221
100
AcDbLine
 10
-118.722
 20
-24.7356
 30
0
 11
-116.913
 21
-24.7988
 31
0
  0
ARC
  5
A7F
330
A02
100
AcDbEntity
  8
Sketch221
100
AcDbCircle
 10
-118.791
 20
-26.7344
 30
0
 40
2
100
AcDbArc
 50
88
 51
178
  0
LINE
  5
A80
330
A02
100
AcDbEntity
  8
Sketch221
100
AcDbLine
 10
-120.79
 20
-26.6646
 30
0
 11
-121.385
 21
-43.7042
 31
0
  0
LINE
  5
A81
330
A02
100
AcDbEntity
  8
Sketch221
100
AcDbLine
 10
-122.67
 20
-43.6593
 30
0
 11
-121.385
 21
-43.7042
 31
0
  0
ARC
  5
A82
330
A02
100
AcDbEntity
  8
Sketch221
100
AcDbCircle
 10
-122.705
 20
-44.6587
 30
0
 40
1
100
AcDbArc
 50
88
 51
178
  0
LINE
  5
A83
330
A02
100
AcDbEntity
  8
Sketch221
100
AcDbLine
 10
-123.705
 20
-44.6238
 30
0
 11
-124.438
 21
-65.611
 31
0
  0
ARC
  5
A84
330
A02
100
AcDbEntity
  8
Sketch221
100
AcDbCircle
 10
-122.439
 20
-65.6808
 30
0
 40
2
100
AcDbArc
 50
178
 51
-92
  0
LINE
  5
A85
330
A02
100
AcDbEntity
  8
Sketch221
100
AcDbLine
 10
-122.509
 20
-67.6796
 30
0
 11
-102.521
 21
-68.3776
 31
0
  0
ARC
  5
A86
330
A02
100
AcDbEntity
  8
Sketch221
100
AcDbCircle
 10
-102.451
 20
-66.3788
 30
0
 40
2
100
AcDbArc
 50
-92
 51
-2
  0
LINE
  5
A87
330
A02
100
AcDbEntity
  8
Sketch221
100
AcDbLine
 10
-100.277
 20
-61.4247
 30
0
 11
-100.452
 21
-66.4486
 31
0
  0
LINE
  5
A88
330
A02
100
AcDbEntity
  8
Sketch221
100
AcDbLine
 10
-100.277
 20
-61.4247
 30
0
 11
-76.5934
 21
-66.4587
 31
0
  0
LINE
  5
A89
330
A02
100
AcDbEntity
  8
Sketch221
100
AcDbLine
 10
-76.5934
 20
-66.4587
 30
0
 11
-84.4354
 21
-81.8494
 31
0
  0
ARC
  5
A8A
330
A02
100
AcDbEntity
  8
Sketch221
100
AcDbCircle
 10
-82.6534
 20
-82.7574
 30
0
 40
2
100
AcDbArc
 50
153
 51
-116.972
  0
LINE
  5
A8B
330
A02
100
AcDbEntity
  8
Sketch221
100
AcDbLine
 10
-83.5605
 20
-84.5399
 30
0
 11
-51.5685
 21
-100.821
 31
0
  0
LINE
  5
A8C
330
A02
100
AcDbEntity
  8
Sketch221
100
AcDbLine
 10
-51.5685
 20
-100.821
 30
0
 11
-33.2789
 21
-112.274
 31
0
  0
ARC
  5
A8D
330
A02
100
AcDbEntity
  8
Sketch221
100
AcDbCircle
 10
-32.2175
 20
-110.579
 30
0
 40
2
100
AcDbArc
 50
-122.055
 51
-32
  0
LINE
  5
A8E
330
A02
100
AcDbEntity
  8
Sketch221
100
AcDbLine
 10
-18.8752
 20
-93.0006
 30
0
 11
-30.5214
 21
-111.638
 31
0
  0
LINE
  5
A8F
330
A02
100
AcDbEntity
  8
Sketch221
100
AcDbLine
 10
-18.8752
 20
-93.0006
 30
0
 11
-17.2675
 21
-87.0006
 31
0
  0
LINE
  5
A90
330
A02
100
AcDbEntity
  8
Sketch221
100
AcDbLine
 10
-17.2675
 20
-87.0006
 30
0
 11
0
 21
-87.0006
 31
0
  0
LINE
  5
A91
330
A02
100
AcDbEntity
  8
Sketch221
100
AcDbLine
 10
17.2675
 20
-87.0006
 30
0
 11
0
 21
-87.0006
 31
0
  0
LINE
  5
A92
330
A02
100
AcDbEntity
  8
Sketch221
100
AcDbLine
 10
18.8752
 20
-93.0006
 30
0
 11
17.2675
 21
-87.0006
 31
0
  0
LINE
  5
A93
330
A02
100
AcDbEntity
  8
Sketch221
100
AcDbLine
 10
18.8752
 20
-93.0006
 30
0
 11
30.5214
 21
-111.638
 31
0
  0
ARC
  5
A94
330
A02
100
AcDbEntity
  8
Sketch221
100
AcDbCircle
 10
32.2175
 20
-110.579
 30
0
 40
2
100
AcDbArc
 50
-148
 51
-57.9454
  0
LINE
  5
A95
330
A02
100
AcDbEntity
  8
Sketch221
100
AcDbLine
 10
51.5685
 20
-100.821
 30
0
 11
33.2789
 21
-112.274
 31
0
  0
LINE
  5
A96
330
A02
100
AcDbEntity
  8
Sketch221
100
AcDbLine
 10
83.5605
 20
-84.5399
 30
0
 11
51.5685
 21
-100.821
 31
0
  0
ARC
  5
A97
330
A02
100
AcDbEntity
  8
Sketch221
100
AcDbCircle
 10
82.6534
 20
-82.7574
 30
0
 40
2
100
AcDbArc
 50
-63.0281
 51
27
  0
LINE
  5
A98
330
A02
100
AcDbEntity
  8
Sketch221
100
AcDbLine
 10
76.5934
 20
-66.4587
 30
0
 11
84.4354
 21
-81.8494
 31
0
  0
LINE
  5
A99
330
A02
100
AcDbEntity
  8
Sketch221
100
AcDbLine
 10
100.277
 20
-61.4247
 30
0
 11
76.5934
 21
-66.4587
 31
0
  0
LINE
  5
A9A
330
A02
100
AcDbEntity
  8
Sketch221
100
AcDbLine
 10
100.277
 20
-61.4247
 30
0
 11
100.452
 21
-66.4486
 31
0
  0
ARC
  5
A9B
330
A02
100
AcDbEntity
  8
Sketch221
100
AcDbCircle
 10
102.451
 20
-66.3788
 30
0
 40
2
100
AcDbArc
 50
-178
 51
-88
  0
LINE
  5
A9C
330
A02
100
AcDbEntity
  8
Sketch221
100
AcDbLine
 10
122.509
 20
-67.6796
 30
0
 11
102.521
 21
-68.3776
 31
0
  0
ARC
  5
A9D
330
A02
100
AcDbEntity
  8
Sketch221
100
AcDbCircle
 10
122.439
 20
-65.6808
 30
0
 40
2
100
AcDbArc
 50
-88
 51
2
  0
LINE
  5
A9E
330
A02
100
AcDbEntity
  8
Sketch221
100
AcDbLine
 10
123.705
 20
-44.6238
 30
0
 11
124.438
 21
-65.611
 31
0
  0
ARC
  5
A9F
330
A02
100
AcDbEntity
  8
Sketch221
100
AcDbCircle
 10
122.705
 20
-44.6587
 30
0
 40
1
100
AcDbArc
 50
2
 51
92
  0
LINE
  5
AA0
330
A02
100
AcDbEntity
  8
Sketch221
100
AcDbLine
 10
122.67
 20
-43.6593
 30
0
 11
121.385
 21
-43.7042
 31
0
  0
LINE
  5
AA1
330
A02
100
AcDbEntity
  8
Sketch221
100
AcDbLine
 10
120.79
 20
-26.6646
 30
0
 11
121.385
 21
-43.7042
 31
0
  0
ARC
  5
AA2
330
A02
100
AcDbEntity
  8
Sketch221
100
AcDbCircle
 10
118.791
 20
-26.7344
 30
0
 40
2
100
AcDbArc
 50
2
 51
92
  0
LINE
  5
AA3
330
A02
100
AcDbEntity
  8
Sketch221
100
AcDbLine
 10
118.722
 20
-24.7356
 30
0
 11
116.913
 21
-24.7988
 31
0
  0
LINE
  5
AA4
330
A02
100
AcDbEntity
  8
Sketch221
100
AcDbLine
 10
116.205
 20
-4.52262
 30
0
 11
116.913
 21
-24.7988
 31
0
  0
ARC
  5
AA5
330
A02
100
AcDbEntity
  8
Sketch221
100
AcDbCircle
 10
114.206
 20
-4.59242
 30
0
 40
2
100
AcDbArc
 50
2
 51
92
  0
LINE
  5
AA6
330
A02
100
AcDbEntity
  8
Sketch221
100
AcDbLine
 10
114.136
 20
-2.59364
 30
0
 11
93.7571
 21
-3.30528
 31
0
  0
LINE
  5
AA7
330
A02
100
AcDbEntity
  8
Sketch221
100
AcDbLine
 10
93.3631
 20
-1.45157
 30
0
 11
93.7571
 21
-3.30528
 31
0
  0
ARC
  5
AA8
330
A02
100
AcDbEntity
  8
Sketch221
100
AcDbCircle
 10
91.4068
 20
-1.86739
 30
0
 40
2
100
AcDbArc
 50
12
 51
102
  0
LINE
  5
AA9
330
A02
100
AcDbEntity
  8
Sketch221
100
AcDbLine
 10
90.9909
 20
0.0889051
 30
0
 11
74.3135
 21
-3.45599
 31
0
  0
LINE
  5
AAA
330
A02
100
AcDbEntity
  8
Sketch221
100
AcDbLine
 10
74.0065
 20
-2.01175
 30
0
 11
74.3135
 21
-3.45599
 31
0
  0
ARC
  5
AAB
330
A02
100
AcDbEntity
  8
Sketch221
100
AcDbCircle
 10
3.99918
 20
-77.0015
 30
0
 40
1
100
AcDbArc
 50
0
 51
90
  0
LINE
  5
AAC
330
A02
100
AcDbEntity
  8
Sketch221
100
AcDbLine
 10
4.99918
 20
-77.0015
 30
0
 11
4.99918
 21
-81.4646
 31
0
  0
ARC
  5
AAD
330
A02
100
AcDbEntity
  8
Sketch221
100
AcDbCircle
 10
3.99918
 20
-81.4646
 30
0
 40
1
100
AcDbArc
 50
-90
 51
0
  0
LINE
  5
AAE
330
A02
100
AcDbEntity
  8
Sketch221
100
AcDbLine
 10
3.99918
 20
-82.4646
 30
0
 11
4.44089e-16
 21
-82.4646
 31
0
  0
LINE
  5
AAF
330
A02
100
AcDbEntity
  8
Sketch221
100
AcDbLine
 10
-3.99918
 20
-82.4646
 30
0
 11
-4.44089e-16
 21
-82.4646
 31
0
  0
ARC
  5
AB0
330
A02
100
AcDbEntity
  8
Sketch221
100
AcDbCircle
 10
-3.99918
 20
-81.4646
 30
0
 40
1
100
AcDbArc
 50
180
 51
-90
  0
LINE
  5
AB1
330
A02
100
AcDbEntity
  8
Sketch221
100
AcDbLine
 10
-4.99918
 20
-77.0015
 30
0
 11
-4.99918
 21
-81.4646
 31
0
  0
ARC
  5
AB2
330
A02
100
AcDbEntity
  8
Sketch221
100
AcDbCircle
 10
-3.99918
 20
-77.0015
 30
0
 40
1
100
AcDbArc
 50
90
 51
180
  0
LINE
  5
AB3
330
A02
100
AcDbEntity
  8
Sketch221
100
AcDbLine
 10
-3.99918
 20
-76.0015
 30
0
 11
0
 21
-76.0015
 31
0
  0
LINE
  5
AB4
330
A02
100
AcDbEntity
  8
Sketch221
100
AcDbLine
 10
3.99918
 20
-76.0015
 30
0
 11
0
 21
-76.0015
 31
0
  0
LINE
  5
AB5
330
A02
100
AcDbEntity
  8
Sketch221
100
AcDbLine
 10
-11
 20
-40.8915
 30
0
 11
-15
 21
-40.8915
 31
0
  0
LINE
  5
AB6
330
A02
100
AcDbEntity
  8
Sketch221
100
AcDbLine
 10
-15
 20
-40.8915
 30
0
 11
-15
 21
-51.8915
 31
0
  0
LINE
  5
AB7
330
A02
100
AcDbEntity
  8
Sketch221
100
AcDbLine
 10
-15
 20
-51.8915
 30
0
 11
-11
 21
-51.8915
 31
0
  0
LINE
  5
AB8
330
A02
100
AcDbEntity
  8
Sketch221
100
AcDbLine
 10
-11
 20
-40.8915
 30
0
 11
-11
 21
-51.8915
 31
0
  0
LINE
  5
AB9
330
A02
100
AcDbEntity
  8
Sketch221
100
AcDbLine
 10
-89.4812
 20
-4.83254
 30
0
 11
-92.4949
 21
-19.0108
 31
0
  0
ARC
  5
ABA
330
A02
100
AcDbEntity
  8
Sketch221
100
AcDbCircle
 10
-94.6205
 20
-21.1278
 30
0
 40
3
100
AcDbArc
 50
44.8845
 51
150.067
  0
LINE
  5
ABB
330
A02
100
AcDbEntity
  8
Sketch221
100
AcDbLine
 10
-96.8037
 20
-7.70164
 30
0
 11
-97.2203
 21
-19.6309
 31
0
  0
LINE
  5
ABC
330
A02
100
AcDbEntity
  8
Sketch221
100
AcDbLine
 10
-111.795
 20
-7.17814
 30
0
 11
-96.8037
 21
-7.70164
 31
0
  0
LINE
  5
ABD
330
A02
100
AcDbEntity
  8
Sketch221
100
AcDbLine
 10
-111.795
 20
-7.17814
 30
0
 11
-112.318
 21
-22.169
 31
0
  0
LINE
  5
ABE
330
A02
100
AcDbEntity
  8
Sketch221
100
AcDbLine
 10
-112.318
 20
-22.169
 30
0
 11
-97.3272
 21
-22.6925
 31
0
  0
LINE
  5
ABF
330
A02
100
AcDbEntity
  8
Sketch221
100
AcDbLine
 10
-97.3184
 20
-22.4398
 30
0
 11
-97.3272
 21
-22.6925
 31
0
  0
ARC
  5
AC0
330
A02
100
AcDbEntity
  8
Sketch221
100
AcDbCircle
 10
-94.6205
 20
-21.1278
 30
0
 40
3
100
AcDbArc
 50
-154.067
 51
-68.8845
  0
LINE
  5
AC1
330
A02
100
AcDbEntity
  8
Sketch221
100
AcDbLine
 10
-93.5397
 20
-23.9264
 30
0
 11
-96.5606
 21
-38.1385
 31
0
  0
LINE
  5
AC2
330
A02
100
AcDbEntity
  8
Sketch221
100
AcDbLine
 10
-96.5606
 20
-38.1385
 30
0
 11
-81.8884
 21
-41.2571
 31
0
  0
LINE
  5
AC3
330
A02
100
AcDbEntity
  8
Sketch221
100
AcDbLine
 10
-78.7697
 20
-26.5849
 30
0
 11
-81.8884
 21
-41.2571
 31
0
  0
LINE
  5
AC4
330
A02
100
AcDbEntity
  8
Sketch221
100
AcDbLine
 10
-92.8956
 20
-23.5824
 30
0
 11
-78.7697
 21
-26.5849
 31
0
  0
ARC
  5
AC5
330
A02
100
AcDbEntity
  8
Sketch221
100
AcDbCircle
 10
-94.6205
 20
-21.1278
 30
0
 40
3
100
AcDbArc
 50
-54.9029
 51
30.0086
  0
LINE
  5
AC6
330
A02
100
AcDbEntity
  8
Sketch221
100
AcDbLine
 10
-92.0226
 20
-19.6275
 30
0
 11
-77.9276
 21
-22.6234
 31
0
  0
LINE
  5
AC7
330
A02
100
AcDbEntity
  8
Sketch221
100
AcDbLine
 10
-74.809
 20
-7.95121
 30
0
 11
-77.9276
 21
-22.6234
 31
0
  0
LINE
  5
AC8
330
A02
100
AcDbEntity
  8
Sketch221
100
AcDbLine
 10
-89.4812
 20
-4.83254
 30
0
 11
-74.809
 21
-7.95121
 31
0
  0
LINE
  5
AC9
330
A02
100
AcDbEntity
  8
Sketch221
100
AcDbLine
 10
-116.38
 20
-29.3201
 30
0
 11
-116.904
 21
-44.311
 31
0
  0
LINE
  5
ACA
330
A02
100
AcDbEntity
  8
Sketch221
100
AcDbLine
 10
-116.904
 20
-44.311
 30
0
 11
-103.672
 21
-44.773
 31
0
  0
ARC
  5
ACB
330
A02
100
AcDbEntity
  8
Sketch221
100
AcDbCircle
 10
-102.325
 20
-47.4534
 30
0
 40
3
100
AcDbArc
 50
116.688
 51
-153.787
  0
LINE
  5
ACC
330
A02
100
AcDbEntity
  8
Sketch221
100
AcDbLine
 10
-119.33
 20
-48.2787
 30
0
 11
-105.016
 21
-48.7785
 31
0
  0
LINE
  5
ACD
330
A02
100
AcDbEntity
  8
Sketch221
100
AcDbLine
 10
-119.33
 20
-48.2787
 30
0
 11
-119.853
 21
-63.2696
 31
0
  0
LINE
  5
ACE
330
A02
100
AcDbEntity
  8
Sketch221
100
AcDbLine
 10
-119.853
 20
-63.2696
 30
0
 11
-104.862
 21
-63.7931
 31
0
  0
LINE
  5
ACF
330
A02
100
AcDbEntity
  8
Sketch221
100
AcDbLine
 10
-104.368
 20
-49.6498
 30
0
 11
-104.862
 21
-63.7931
 31
0
  0
ARC
  5
AD0
330
A02
100
AcDbEntity
  8
Sketch221
100
AcDbCircle
 10
-102.325
 20
-47.4534
 30
0
 40
3
100
AcDbArc
 50
-132.934
 51
81.8683
  0
LINE
  5
AD1
330
A02
100
AcDbEntity
  8
Sketch221
100
AcDbLine
 10
-101.389
 20
-29.8436
 30
0
 11
-101.9
 21
-44.4836
 31
0
  0
LINE
  5
AD2
330
A02
100
AcDbEntity
  8
Sketch221
100
AcDbLine
 10
-116.38
 20
-29.3201
 30
0
 11
-101.389
 21
-29.8436
 31
0
  0
LINE
  5
AD3
330
A02
100
AcDbEntity
  8
Sketch221
100
AcDbLine
 10
-31.6541
 20
-24.4659
 30
0
 11
-35.1734
 21
-37.6
 31
0
  0
ARC
  5
AD4
330
A02
100
AcDbEntity
  8
Sketch221
100
AcDbCircle
 10
-38.1701
 20
-37.7417
 30
0
 40
3
100
AcDbArc
 50
2.70742
 51
120.633
  0
LINE
  5
AD5
330
A02
100
AcDbEntity
  8
Sketch221
100
AcDbLine
 10
-35.9438
 20
-21.147
 30
0
 11
-39.6987
 21
-35.1604
 31
0
  0
LINE
  5
AD6
330
A02
100
AcDbEntity
  8
Sketch221
100
AcDbLine
 10
-50.4327
 20
-17.2647
 30
0
 11
-35.9438
 21
-21.147
 31
0
  0
LINE
  5
AD7
330
A02
100
AcDbEntity
  8
Sketch221
100
AcDbLine
 10
-50.4327
 20
-17.2647
 30
0
 11
-54.315
 21
-31.7536
 31
0
  0
LINE
  5
AD8
330
A02
100
AcDbEntity
  8
Sketch221
100
AcDbLine
 10
-54.315
 20
-31.7536
 30
0
 11
-40.2025
 21
-35.5351
 31
0
  0
ARC
  5
AD9
330
A02
100
AcDbEntity
  8
Sketch221
100
AcDbCircle
 10
-38.1701
 20
-37.7417
 30
0
 40
3
100
AcDbArc
 50
132.645
 51
-140.428
  0
LINE
  5
ADA
330
A02
100
AcDbEntity
  8
Sketch221
100
AcDbLine
 10
-54.4432
 20
-35.9121
 30
0
 11
-40.4826
 21
-39.6529
 31
0
  0
LINE
  5
ADB
330
A02
100
AcDbEntity
  8
Sketch221
100
AcDbLine
 10
-54.4432
 20
-35.9121
 30
0
 11
-58.3255
 21
-50.401
 31
0
  0
LINE
  5
ADC
330
A02
100
AcDbEntity
  8
Sketch221
100
AcDbLine
 10
-58.3255
 20
-50.401
 30
0
 11
-43.8366
 21
-54.2833
 31
0
  0
LINE
  5
ADD
330
A02
100
AcDbEntity
  8
Sketch221
100
AcDbLine
 10
-40.0341
 20
-40.0924
 30
0
 11
-43.8366
 21
-54.2833
 31
0
  0
ARC
  5
ADE
330
A02
100
AcDbEntity
  8
Sketch221
100
AcDbCircle
 10
-38.1701
 20
-37.7417
 30
0
 40
3
100
AcDbArc
 50
-128.414
 51
-24.401
  0
LINE
  5
ADF
330
A02
100
AcDbEntity
  8
Sketch221
100
AcDbLine
 10
-35.4381
 20
-38.9811
 30
0
 11
-21.0475
 21
-42.837
 31
0
  0
LINE
  5
AE0
330
A02
100
AcDbEntity
  8
Sketch221
100
AcDbLine
 10
-17.1653
 20
-28.3481
 30
0
 11
-21.0475
 21
-42.837
 31
0
  0
LINE
  5
AE1
330
A02
100
AcDbEntity
  8
Sketch221
100
AcDbLine
 10
-31.6541
 20
-24.4659
 30
0
 11
-17.1653
 21
-28.3481
 31
0
  0
CIRCLE
  5
AE2
330
A02
100
AcDbEntity
  8
Sketch221
100
AcDbCircle
 10
-27.7478
 20
-87.4297
 40
3
  0
CIRCLE
  5
AE3
330
A02
100
AcDbEntity
  8
Sketch221
100
AcDbCircle
 10
-22.0215
 20
-79.3133
 40
3
  0
CIRCLE
  5
AE4
330
A02
100
AcDbEntity
  8
Sketch221
100
AcDbCircle
 10
-15.8998
 20
-56.4668
 40
3
  0
LINE
  5
AE5
330
A02
100
AcDbEntity
  8
Sketch221
100
AcDbLine
 10
-70.3326
 20
-6.37087
 30
0
 11
-73.4512
 21
-21.0431
 31
0
  0
LINE
  5
AE6
330
A02
100
AcDbEntity
  8
Sketch221
100
AcDbLine
 10
-73.4512
 20
-21.0431
 30
0
 11
-58.779
 21
-24.1618
 31
0
  0
LINE
  5
AE7
330
A02
100
AcDbEntity
  8
Sketch221
100
AcDbLine
 10
-55.6604
 20
-9.48955
 30
0
 11
-58.779
 21
-24.1618
 31
0
  0
LINE
  5
AE8
330
A02
100
AcDbEntity
  8
Sketch221
100
AcDbLine
 10
-70.3326
 20
-6.37087
 30
0
 11
-55.6604
 21
-9.48955
 31
0
  0
LINE
  5
AE9
330
A02
100
AcDbEntity
  8
Sketch221
100
AcDbLine
 10
-74.2933
 20
-25.0046
 30
0
 11
-77.412
 21
-39.6768
 31
0
  0
LINE
  5
AEA
330
A02
100
AcDbEntity
  8
Sketch221
100
AcDbLine
 10
-77.412
 20
-39.6768
 30
0
 11
-62.7398
 21
-42.7955
 31
0
  0
LINE
  5
AEB
330
A02
100
AcDbEntity
  8
Sketch221
100
AcDbLine
 10
-59.6211
 20
-28.1233
 30
0
 11
-62.7398
 21
-42.7955
 31
0
  0
LINE
  5
AEC
330
A02
100
AcDbEntity
  8
Sketch221
100
AcDbLine
 10
-74.2933
 20
-25.0046
 30
0
 11
-59.6211
 21
-28.1233
 31
0
  0
LINE
  5
AED
330
A02
100
AcDbEntity
  8
Sketch221
100
AcDbLine
 10
-78.254
 20
-43.6383
 30
0
 11
-81.3727
 21
-58.3105
 31
0
  0
LINE
  5
AEE
330
A02
100
AcDbEntity
  8
Sketch221
100
AcDbLine
 10
-81.3727
 20
-58.3105
 30
0
 11
-66.7005
 21
-61.4292
 31
0
  0
LINE
  5
AEF
330
A02
100
AcDbEntity
  8
Sketch221
100
AcDbLine
 10
-63.5818
 20
-46.757
 30
0
 11
-66.7005
 21
-61.4292
 31
0
  0
LINE
  5
AF0
330
A02
100
AcDbEntity
  8
Sketch221
100
AcDbLine
 10
-78.254
 20
-43.6383
 30
0
 11
-63.5818
 21
-46.757
 31
0
  0
LINE
  5
AF1
330
A02
100
AcDbEntity
  8
Sketch221
100
AcDbLine
 10
-97.4026
 20
-42.1
 30
0
 11
-100.521
 21
-56.7722
 31
0
  0
LINE
  5
AF2
330
A02
100
AcDbEntity
  8
Sketch221
100
AcDbLine
 10
-100.521
 20
-56.7722
 30
0
 11
-85.8491
 21
-59.8909
 31
0
  0
LINE
  5
AF3
330
A02
100
AcDbEntity
  8
Sketch221
100
AcDbLine
 10
-82.7304
 20
-45.2186
 30
0
 11
-85.8491
 21
-59.8909
 31
0
  0
LINE
  5
AF4
330
A02
100
AcDbEntity
  8
Sketch221
100
AcDbLine
 10
-97.4026
 20
-42.1
 30
0
 11
-82.7304
 21
-45.2186
 31
0
  0
LINE
  5
AF5
330
A02
100
AcDbEntity
  8
Sketch221
100
AcDbLine
 10
-36.5847
 20
-42.8667
 30
0
 11
-40.4669
 21
-57.3556
 31
0
  0
LINE
  5
AF6
330
A02
100
AcDbEntity
  8
Sketch221
100
AcDbLine
 10
-40.4669
 20
-57.3556
 30
0
 11
-25.978
 21
-61.2379
 31
0
  0
LINE
  5
AF7
330
A02
100
AcDbEntity
  8
Sketch221
100
AcDbLine
 10
-22.0958
 20
-46.749
 30
0
 11
-25.978
 21
-61.2379
 31
0
  0
LINE
  5
AF8
330
A02
100
AcDbEntity
  8
Sketch221
100
AcDbLine
 10
-36.5847
 20
-42.8667
 30
0
 11
-22.0958
 21
-46.749
 31
0
  0
LINE
  5
AF9
330
A02
100
AcDbEntity
  8
Sketch221
100
AcDbLine
 10
-58.8217
 20
-54.4609
 30
0
 11
-44.3328
 21
-58.3432
 31
0
  0
LINE
  5
AFA
330
A02
100
AcDbEntity
  8
Sketch221
100
AcDbLine
 10
-58.8217
 20
-54.4609
 30
0
 11
-62.4751
 21
-68.0958
 31
0
  0
ARC
  5
AFB
330
A02
100
AcDbEntity
  8
Sketch221
100
AcDbCircle
 10
-66.0598
 20
-67.7645
 30
0
 40
3.6
100
AcDbArc
 50
-5.27954
 51
-136.568
  0
LINE
  5
AFC
330
A02
100
AcDbEntity
  8
Sketch221
100
AcDbLine
 10
-72.479
 20
-68.3009
 30
0
 11
-68.6741
 21
-70.2395
 31
0
  0
LINE
  5
AFD
330
A02
100
AcDbEntity
  8
Sketch221
100
AcDbLine
 10
-72.479
 20
-68.3009
 30
0
 11
-79.2888
 21
-81.666
 31
0
  0
LINE
  5
AFE
330
A02
100
AcDbEntity
  8
Sketch221
100
AcDbLine
 10
-79.2888
 20
-81.666
 30
0
 11
-65.9237
 21
-88.4758
 31
0
  0
LINE
  5
AFF
330
A02
100
AcDbEntity
  8
Sketch221
100
AcDbLine
 10
-59.1139
 20
-75.1107
 30
0
 11
-65.9237
 21
-88.4758
 31
0
  0
LINE
  5
B00
330
A02
100
AcDbEntity
  8
Sketch221
100
AcDbLine
 10
-66.5255
 20
-71.3343
 30
0
 11
-59.1139
 21
-75.1107
 31
0
  0
ARC
  5
B01
330
A02
100
AcDbEntity
  8
Sketch221
100
AcDbCircle
 10
-66.0598
 20
-67.7645
 30
0
 40
3.6
100
AcDbArc
 50
-97.4324
 51
-19.4026
  0
LINE
  5
B02
330
A02
100
AcDbEntity
  8
Sketch221
100
AcDbLine
 10
-62.6643
 20
-68.9605
 30
0
 11
-48.2151
 21
-72.8321
 31
0
  0
LINE
  5
B03
330
A02
100
AcDbEntity
  8
Sketch221
100
AcDbLine
 10
-44.3328
 20
-58.3432
 30
0
 11
-48.2151
 21
-72.8321
 31
0
  0
LINE
  5
B04
330
A02
100
AcDbEntity
  8
Sketch221
100
AcDbLine
 10
-40.9631
 20
-61.4155
 30
0
 11
-44.8454
 21
-75.9044
 31
0
  0
LINE
  5
B05
330
A02
100
AcDbEntity
  8
Sketch221
100
AcDbLine
 10
-44.8454
 20
-75.9044
 30
0
 11
-30.3565
 21
-79.7867
 31
0
  0
LINE
  5
B06
330
A02
100
AcDbEntity
  8
Sketch221
100
AcDbLine
 10
-26.4742
 20
-65.2978
 30
0
 11
-30.3565
 21
-79.7867
 31
0
  0
LINE
  5
B07
330
A02
100
AcDbEntity
  8
Sketch221
100
AcDbLine
 10
-40.9631
 20
-61.4155
 30
0
 11
-26.4742
 21
-65.2978
 31
0
  0
LINE
  5
B08
330
A02
100
AcDbEntity
  8
Sketch221
100
AcDbLine
 10
-55.5053
 20
-76.9494
 30
0
 11
-62.3151
 21
-90.3145
 31
0
  0
LINE
  5
B09
330
A02
100
AcDbEntity
  8
Sketch221
100
AcDbLine
 10
-62.3151
 20
-90.3145
 30
0
 11
-48.95
 21
-97.1243
 31
0
  0
LINE
  5
B0A
330
A02
100
AcDbEntity
  8
Sketch221
100
AcDbLine
 10
-42.1402
 20
-83.7592
 30
0
 11
-48.95
 21
-97.1243
 31
0
  0
LINE
  5
B0B
330
A02
100
AcDbEntity
  8
Sketch221
100
AcDbLine
 10
-55.5053
 20
-76.9494
 30
0
 11
-42.1402
 21
-83.7592
 31
0
  0
LINE
  5
B0C
330
A02
100
AcDbEntity
  8
Sketch221
100
AcDbLine
 10
-37.7847
 20
-86.4642
 30
0
 11
-45.7335
 21
-99.1849
 31
0
  0
LINE
  5
B0D
330
A02
100
AcDbEntity
  8
Sketch221
100
AcDbLine
 10
-45.7335
 20
-99.1849
 30
0
 11
-33.0128
 21
-107.134
 31
0
  0
LINE
  5
B0E
330
A02
100
AcDbEntity
  8
Sketch221
100
AcDbLine
 10
-25.064
 20
-94.413
 30
0
 11
-33.0128
 21
-107.134
 31
0
  0
LINE
  5
B0F
330
A02
100
AcDbEntity
  8
Sketch221
100
AcDbLine
 10
-37.7847
 20
-86.4642
 30
0
 11
-25.064
 21
-94.413
 31
0
  0
ENDSEC
  0
SECTION
  2
OBJECTS
  0
DICTIONARY
  5
F000
330
0
100
AcDbDictionary
  3
ACAD_GROUP
350
F001
  0
DICTIONARY
  5
F001
330
F000
100
AcDbDictionary
  0
ENDSEC
  0
EOF