<?xml version="1.0"?>
<!DOCTYPE svg PUBLIC "-//W3C//DTD SVG 1.1//EN" "http://www.w3.org/Graphics/SVG/1.1/DTD/svg11.dtd">
<svg width="253.8525703106762mm" height="117.67631889613138mm" viewBox="0 0 253.8525703106762 117.67631889613138" xmlns="http://www.w3.org/2000/svg" version="1.1">
<g id="Sketch175" transform="translate(126.926285,2.621137) scale(1,-1)">
<path id="Sketch175_w0000"  d="M -114.13598460896341 -2.5936351768600816 A 2 2 0 0 1 -116.205 -4.52262L -116.91262369237388 -24.7987585855183 L -118.7215211227016 -24.7355904954233 A 2 2 0 0 1 -120.79 -26.6646L -121.38513818860885 -43.70418677900089 L -122.67035471186684 -43.65930602911887 A 1 1 0 0 1 -123.705 -44.6238L -124.43753446601775 -65.61100475366915 A 2 2 0 0 1 -122.509 -67.6796L -102.52073523811279 -68.37757533484118 A 2 2 0 0 1 -100.452 -66.4486L -100.27671618377829 -61.42469400739034 L -76.59343477230709 -66.45873080496733 L -84.4353969033631 -81.84944799515638 A 2 2 0 0 1 -83.5605 -84.5399L -51.56854623760049 -100.82081004778715 L -33.27894115163277 -112.27368926392344 A 2 2 0 0 1 -30.5214 -111.638L -18.875177877637665 -93.00060826998231 L -17.267482742535105 -87.00060826998231 L 0.0 -87.00060826998231 L 17.267482742535105 -87.00060826998231 L 18.875177877637665 -93.00060826998231 L 30.521389506600386 -111.63844302982709 A 2 2 0 0 1 33.2797 -112.272L 51.538013998135824 -100.82090497900846 L 83.55980471093272 -84.54023615144203 A 2 2 0 0 1 84.4354 -81.8494L 76.59343473953925 -66.45873082180148 L 100.27671618377829 -61.42469400739034 L 100.45215459078003 -66.44859267408955 A 2 2 0 0 1 102.521 -68.3776L 122.50855180526614 -67.67958540100192 A 2 2 0 0 1 124.438 -65.611L 123.70464503553322 -44.62379735949468 A 1 1 0 0 1 122.67 -43.6593L 121.38513818860885 -43.70418677900089 L 120.79010177003437 -26.66457315617491 A 2 2 0 0 1 118.722 -24.7356L 116.91262369237388 -24.7987585855183 L 116.20456525629618 -4.522617837611692 A 2 2 0 0 1 114.136 -2.59364L 93.75708147168527 -3.3052821546435633 L 93.36306210944879 -1.4515667741945042 A 2 2 0 0 1 90.9909 0.0889051L 74.3135269746317 -3.455989220388873 L 74.00654538098837 -2.01175435228137 A 1 1 0 0 1 72.8205 -1.24152L 51.30123884056455 -5.815575582424227 A 1 1 0 0 1 50.531 -7.00163L 51.6527586911245 -12.279080885076715 L 31.398409796932082 -17.706217248720538 A 1 1 0 0 1 30.6913 -18.931L 30.974839294738672 -19.989133943634233 L 13.394890311062571 -24.699667019702904 A 2 2 0 0 1 11.9744 -26.138L 10.0 -33.891534562477005 L 6.0 -33.891534562477005 A 1 1 0 0 1 5 -34.8897L 5.000001743857499 -44.88966701963107 A 1 1 0 0 0 4 -45.8897L 0.0 -45.889667019702905 L -4.0 -45.889667019702905 A 1 1 0 0 0 -5 -44.8897L -5.0 -34.88966701970289 A 1 1 0 0 1 -6.00047 -33.8897L -10.0 -33.891534562477005 L -11.974378743528789 -26.137984554567584 A 2 2 0 0 1 -13.3949 -24.6997L -30.974839294738672 -19.989133943634233 L -30.691303012034766 -18.93096211796971 A 1 1 0 0 1 -31.3984 -17.7062L -51.6527586911245 -12.279080885076715 L -50.531002927375475 -7.001634871850259 A 1 1 0 0 1 -51.3012 -5.81558L -72.82048609156233 -1.2415184390922895 A 1 1 0 0 1 -74.0065 -2.01175L -74.3135269746317 -3.455989220388873 L -90.99094353059672 0.08890505218365718 A 2 2 0 0 1 -93.3631 -1.45157L -93.75708147168527 -3.3052821546435633 L -114.13598460896341 -2.5936351768600816 " stroke="#000000" stroke-width="0.35 px" style="stroke-width:0.35;stroke-miterlimit:4;stroke-dasharray:none;fill:none;fill-opacity:1;fill-rule: evenodd"/>
<title>b'Sketch175'</title>
</g>
</svg>