<?xml version="1.0"?>
<!DOCTYPE svg PUBLIC "-//W3C//DTD SVG 1.1//EN" "http://www.w3.org/Graphics/SVG/1.1/DTD/svg11.dtd">
<svg width="253.8525703106762mm" height="117.67631889613138mm" viewBox="0 0 253.8525703106762 117.67631889613138" xmlns="http://www.w3.org/2000/svg" version="1.1">
<g id="Sketch181" transform="translate(126.926285,2.621137) scale(1,-1)">
<path id="Sketch181_w0000"  d="M 105.85876791243929 -60.23819230098144 L 105.24290170501168 -60.3690987027047 " stroke="#000000" stroke-width="0.35 px" style="stroke-width:0.35;stroke-miterlimit:4;stroke-dasharray:none;fill:none;fill-opacity:1;fill-rule: evenodd"/>
<path id="Sketch181_w0001"  d="M 97.80943096006757 -22.175352360895424 L 97.32083800610006 -8.18388075586892 L 111.31230961112658 -7.695287801901415 L 111.80090256509408 -21.686759406927923 L 97.80943096006757 -22.175352360895424 " stroke="#000000" stroke-width="0.35 px" style="stroke-width:0.35;stroke-miterlimit:4;stroke-dasharray:none;fill:none;fill-opacity:1;fill-rule: evenodd"/>
<path id="Sketch181_w0002"  d="M 102.39496747380574 -44.31730767945872 L 101.90637451983822 -30.325836074432203 L 115.89784612486474 -29.83724312046472 L 116.38643907883225 -43.82871472549122 L 102.39496747380574 -44.31730767945872 " stroke="#000000" stroke-width="0.35 px" style="stroke-width:0.35;stroke-miterlimit:4;stroke-dasharray:none;fill:none;fill-opacity:1;fill-rule: evenodd"/>
<path id="Sketch181_w0003"  d="M 105.34441023594988 -63.275922709799886 L 104.85581728198237 -49.28445110477337 L 118.84728888700889 -48.79585815080584 L 119.33588184097638 -62.78732975583236 L 105.34441023594988 -63.275922709799886 " stroke="#000000" stroke-width="0.35 px" style="stroke-width:0.35;stroke-miterlimit:4;stroke-dasharray:none;fill:none;fill-opacity:1;fill-rule: evenodd"/>
<path id="Sketch181_w0004"  d="M 59.1641513247713 -23.568733277025444 L 56.25338768638717 -9.874666836488103 L 69.9474541269245 -6.963903198103978 L 72.85821776530862 -20.65796963864132 L 59.16415132477128 -23.568733277025444 " stroke="#000000" stroke-width="0.35 px" style="stroke-width:0.35;stroke-miterlimit:4;stroke-dasharray:none;fill:none;fill-opacity:1;fill-rule: evenodd"/>
<path id="Sketch181_w0005"  d="M 78.31275636511324 -22.030398097631014 L 75.40199272672912 -8.336331657093673 L 89.09605916726646 -5.425568018709548 L 92.00682280565059 -19.119634459246885 L 78.31275636511324 -22.030398097631014 " stroke="#000000" stroke-width="0.35 px" style="stroke-width:0.35;stroke-miterlimit:4;stroke-dasharray:none;fill:none;fill-opacity:1;fill-rule: evenodd"/>
<path id="Sketch181_w0006"  d="M 63.12486902517806 -42.20244507970344 L 60.21410538679393 -28.508378639166096 L 73.90817182733127 -25.59761500078197 L 76.8189354657154 -39.291681441319305 L 63.12486902517806 -42.20244507970343 " stroke="#000000" stroke-width="0.35 px" style="stroke-width:0.35;stroke-miterlimit:4;stroke-dasharray:none;fill:none;fill-opacity:1;fill-rule: evenodd"/>
<path id="Sketch181_w0007"  d="M 82.27347406552 -40.664109900309015 L 79.36271042713588 -26.970043459771674 L 93.05677686767322 -24.05927982138755 L 95.96754050605735 -37.75334626192489 L 82.27347406552002 -40.664109900309015 " stroke="#000000" stroke-width="0.35 px" style="stroke-width:0.35;stroke-miterlimit:4;stroke-dasharray:none;fill:none;fill-opacity:1;fill-rule: evenodd"/>
<path id="Sketch181_w0008"  d="M 67.08558672558483 -60.83615688238143 L 64.1748230872007 -47.142090441844104 L 77.86888952773803 -44.23132680345998 L 80.77965316612216 -57.925393243997306 L 67.08558672558483 -60.83615688238143 " stroke="#000000" stroke-width="0.35 px" style="stroke-width:0.35;stroke-miterlimit:4;stroke-dasharray:none;fill:none;fill-opacity:1;fill-rule: evenodd"/>
<path id="Sketch181_w0009"  d="M 86.23419176592678 -59.29782170298701 L 83.32342812754266 -45.60375526244967 L 97.01749456808 -42.69299162406554 L 99.92825820646411 -56.38705806460288 L 86.23419176592677 -59.29782170298701 " stroke="#000000" stroke-width="0.35 px" style="stroke-width:0.35;stroke-miterlimit:4;stroke-dasharray:none;fill:none;fill-opacity:1;fill-rule: evenodd"/>
<path id="Sketch181_w0010"  d="M 40.1796749225586 -35.02353185408726 L 36.55620831610441 -21.500570215383036 L 50.07916995480895 -17.877103608929175 L 53.70263656126283 -31.400065247633382 L 40.1796749225586 -35.02353185408726 " stroke="#000000" stroke-width="0.35 px" style="stroke-width:0.35;stroke-miterlimit:4;stroke-dasharray:none;fill:none;fill-opacity:1;fill-rule: evenodd"/>
<path id="Sketch181_w0011"  d="M 21.40109884466632 -42.22465741047288 L 17.777632238212448 -28.70169577176867 L 31.30059387691665 -25.078229165314767 L 34.924060483370525 -38.601190804019 L 21.401098844666322 -42.22465741047287 " stroke="#000000" stroke-width="0.35 px" style="stroke-width:0.35;stroke-miterlimit:4;stroke-dasharray:none;fill:none;fill-opacity:1;fill-rule: evenodd"/>
<path id="Sketch181_w0012"  d="M 44.1901333723458 -53.67094396224082 L 40.566666765891924 -40.14798232353661 L 54.08962840459614 -36.52451571708275 L 57.71309501105001 -50.04747735578697 L 44.1901333723458 -53.67094396224083 " stroke="#000000" stroke-width="0.35 px" style="stroke-width:0.35;stroke-miterlimit:4;stroke-dasharray:none;fill:none;fill-opacity:1;fill-rule: evenodd"/>
<path id="Sketch181_w0013"  d="M 26.33160171280215 -60.62554436889686 L 22.708135106348266 -47.10258273019265 L 36.23109674505248 -43.47911612373879 L 39.85456335150636 -57.002077762442994 L 26.331601712802147 -60.62554436889687 " stroke="#000000" stroke-width="0.35 px" style="stroke-width:0.35;stroke-miterlimit:4;stroke-dasharray:none;fill:none;fill-opacity:1;fill-rule: evenodd"/>
<path id="Sketch181_w0014"  d="M 48.56860952536779 -72.21974608725277 L 44.945142918913916 -58.69678444854857 L 58.46810455761813 -55.07331784209468 L 62.09157116407199 -68.5962794807989 L 48.56860952536779 -72.21974608725279 " stroke="#000000" stroke-width="0.35 px" style="stroke-width:0.35;stroke-miterlimit:4;stroke-dasharray:none;fill:none;fill-opacity:1;fill-rule: evenodd"/>
<path id="Sketch181_w0015"  d="M 30.71007787105773 -79.17434639404586 L 27.086611264603846 -65.65138475534164 L 40.60957290330806 -62.02791814888778 L 44.23303950976195 -75.55087978759201 L 30.710077871057734 -79.17434639404587 " stroke="#000000" stroke-width="0.35 px" style="stroke-width:0.35;stroke-miterlimit:4;stroke-dasharray:none;fill:none;fill-opacity:1;fill-rule: evenodd"/>
<path id="Sketch181_w0016"  d="M 72.26392037182949 -68.97502668062819 L 59.78635136177013 -75.32921805641271 L 66.14221836089666 -87.80330934214035 L 78.61630964662427 -81.44744234301382 L 72.26044264749775 -68.9733510572862 " stroke="#000000" stroke-width="0.35 px" style="stroke-width:0.35;stroke-miterlimit:4;stroke-dasharray:none;fill:none;fill-opacity:1;fill-rule: evenodd"/>
<path id="Sketch181_w0017"  d="M 49.1685441171441 -96.45182836438171 L 42.812677118017575 -83.97773707865409 L 55.2867684037452 -77.62187007952757 L 61.64263540287173 -90.0959613652552 L 49.16854411714411 -96.45182836438173 " stroke="#000000" stroke-width="0.35 px" style="stroke-width:0.35;stroke-miterlimit:4;stroke-dasharray:none;fill:none;fill-opacity:1;fill-rule: evenodd"/>
<path id="Sketch181_w0018"  d="M 33.17187221440605 -106.44470243025648 L 25.753002528232383 -94.57202900468855 L 37.62567595379602 -87.15315931851057 L 45.04454563997399 -99.02583274407853 L 33.17187221440605 -106.44470243025648 " stroke="#000000" stroke-width="0.35 px" style="stroke-width:0.35;stroke-miterlimit:4;stroke-dasharray:none;fill:none;fill-opacity:1;fill-rule: evenodd"/>
<path id="Sketch181_w0019"  d="M 74.00654538098837 -2.01175435228137 A 1 1 0 0 1 72.8205 -1.24152L 51.30123884056455 -5.815575582424227 A 1 1 0 0 1 50.531 -7.00163L 51.6527586911245 -12.279080885076715 L 31.398409796932082 -17.706217248720538 A 1 1 0 0 1 30.6913 -18.931L 30.974839294738672 -19.989133943634233 L 13.394890311062571 -24.699667019702904 A 2 2 0 0 1 11.9744 -26.138L 10.0 -33.89153456247648 L 10.0 -71.89153456247595 L 0.0 -71.89153456247595 L -10.0 -71.89153456247595 L -10.0 -33.891534562475954 L -11.974378743528789 -26.137984554567588 A 2 2 0 0 1 -13.3949 -24.6997L -30.974839294738672 -19.989133943634233 L -30.691303012034766 -18.93096211796971 A 1 1 0 0 1 -31.3984 -17.7062L -51.6527586911245 -12.279080885076715 L -50.531002927375475 -7.001634871850259 A 1 1 0 0 1 -51.3012 -5.81558L -72.82048609156233 -1.2415184390922895 A 1 1 0 0 1 -74.0065 -2.01175L -74.3135269746317 -3.455989220388873 L -90.99094353059672 0.08890505218365718 A 2 2 0 0 1 -93.3631 -1.45157L -93.75708147168527 -3.3052821546435633 L -114.13598460896341 -2.5936351768600816 A 2 2 0 0 1 -116.205 -4.52262L -116.91262369237388 -24.7987585855183 L -118.7215211227016 -24.7355904954233 A 2 2 0 0 1 -120.79 -26.6646L -121.38513818860885 -43.70418677900089 L -122.67035471186684 -43.65930602911887 A 1 1 0 0 1 -123.705 -44.6238L -124.43753446601775 -65.61100475366915 A 2 2 0 0 1 -122.509 -67.6796L -102.52073523811279 -68.37757533484118 A 2 2 0 0 1 -100.452 -66.4486L -100.27671618377829 -61.42469400739034 L -76.59343477230709 -66.45873080496733 L -84.4353969033631 -81.84944799515638 A 2 2 0 0 1 -83.5605 -84.5399L -51.56854623760049 -100.82081004778715 L -33.27894115163277 -112.27368926392344 A 2 2 0 0 1 -30.5214 -111.638L -18.875177877637665 -93.00060826998231 L -17.267482742535105 -87.00060826998231 L 0.0 -87.00060826998231 L 17.267482742535105 -87.00060826998231 L 18.875177877637665 -93.00060826998231 L 30.521389506600386 -111.63844302982709 A 2 2 0 0 1 33.2789 -112.274L 51.56854623760049 -100.82081004778715 L 83.56048951922364 -84.53988778211034 A 2 2 0 0 1 84.4354 -81.8494L 76.59343477230709 -66.45873080496733 L 100.27671618377829 -61.42469400739034 L 100.45215459078003 -66.44859267408955 A 2 2 0 0 1 102.521 -68.3776L 122.50855180526614 -67.67958540100192 A 2 2 0 0 1 124.438 -65.611L 123.70464503553322 -44.62379735949468 A 1 1 0 0 1 122.67 -43.6593L 121.38513818860885 -43.70418677900089 L 120.79010177003437 -26.66457315617491 A 2 2 0 0 1 118.722 -24.7356L 116.91262369237388 -24.7987585855183 L 116.20456525629618 -4.522617837611692 A 2 2 0 0 1 114.136 -2.59364L 93.75708147168527 -3.3052821546435633 L 93.36306210944879 -1.4515667741945042 A 2 2 0 0 1 90.9909 0.0889051L 74.3135269746317 -3.455989220388873 L 74.00654538098837 -2.01175435228137 " stroke="#000000" stroke-width="0.35 px" style="stroke-width:0.35;stroke-miterlimit:4;stroke-dasharray:none;fill:none;fill-opacity:1;fill-rule: evenodd"/>
<path id="Sketch181_w0020"  d="M 92.43152151155338 -16.580747564696765 L 96.34867445707015 -24.717892518462406 " stroke="#000000" stroke-width="0.35 px" style="stroke-width:0.35;stroke-miterlimit:4;stroke-dasharray:none;fill:none;fill-opacity:1;fill-rule: evenodd"/>
<path id="Sketch181_w0021"  d="M 99.03500482700055 -18.443609673131633 L 90.37856467830477 -23.707085874287262 " stroke="#000000" stroke-width="0.35 px" style="stroke-width:0.35;stroke-miterlimit:4;stroke-dasharray:none;fill:none;fill-opacity:1;fill-rule: evenodd"/>
<path id="Sketch181_w0022"  d="M 98.19252282119922 -45.89196257957213 L 106.9747780821662 -49.21045536322954 " stroke="#000000" stroke-width="0.35 px" style="stroke-width:0.35;stroke-miterlimit:4;stroke-dasharray:none;fill:none;fill-opacity:1;fill-rule: evenodd"/>
<path id="Sketch181_w0023"  d="M 106.75989343670801 -45.56579545827708 L 95.9853678570042 -50.15152689542208 " stroke="#000000" stroke-width="0.35 px" style="stroke-width:0.35;stroke-miterlimit:4;stroke-dasharray:none;fill:none;fill-opacity:1;fill-rule: evenodd"/>
<path id="Sketch181_w0024"  d="M 31.881250199172342 -36.671729892190875 L 43.57935092902541 -38.66209429667305 " stroke="#000000" stroke-width="0.35 px" style="stroke-width:0.35;stroke-miterlimit:4;stroke-dasharray:none;fill:none;fill-opacity:1;fill-rule: evenodd"/>
<path id="Sketch181_w0025"  d="M 39.961893726807844 -33.56185407047148 L 36.04220210347382 -42.70563743479032 " stroke="#000000" stroke-width="0.35 px" style="stroke-width:0.35;stroke-miterlimit:4;stroke-dasharray:none;fill:none;fill-opacity:1;fill-rule: evenodd"/>
<path id="Sketch181_w0026"  d="M 61.01555915628099 -66.61908910598335 L 75.46287014000202 -69.89974207768483 " stroke="#000000" stroke-width="0.35 px" style="stroke-width:0.35;stroke-miterlimit:4;stroke-dasharray:none;fill:none;fill-opacity:1;fill-rule: evenodd"/>
<path id="Sketch181_w0027"  d="M 68.78279060324236 -62.766161842576736 L 63.684889230461614 -72.12404922064195 " stroke="#000000" stroke-width="0.35 px" style="stroke-width:0.35;stroke-miterlimit:4;stroke-dasharray:none;fill:none;fill-opacity:1;fill-rule: evenodd"/>
<path id="Sketch181_w0028"  d="M 23.482426051882552 -86.36081381789735 L 33.011113341384565 -88.74864426516386 " stroke="#000000" stroke-width="0.35 px" style="stroke-width:0.35;stroke-miterlimit:4;stroke-dasharray:none;fill:none;fill-opacity:1;fill-rule: evenodd"/>
<path id="Sketch181_w0029"  d="M 30.185667640118666 -82.85561185746943 L 26.156210213320776 -90.41576475011536 " stroke="#000000" stroke-width="0.35 px" style="stroke-width:0.35;stroke-miterlimit:4;stroke-dasharray:none;fill:none;fill-opacity:1;fill-rule: evenodd"/>
<path id="Sketch181_w0030"  d="M 17.273857720834023 -76.80762219450686 L 25.70203934265441 -81.25575703583111 " stroke="#000000" stroke-width="0.35 px" style="stroke-width:0.35;stroke-miterlimit:4;stroke-dasharray:none;fill:none;fill-opacity:1;fill-rule: evenodd"/>
<path id="Sketch181_w0031"  d="M 25.07213484026221 -76.68338955551229 L 18.14833646208829 -82.65218659457166 " stroke="#000000" stroke-width="0.35 px" style="stroke-width:0.35;stroke-miterlimit:4;stroke-dasharray:none;fill:none;fill-opacity:1;fill-rule: evenodd"/>
<path id="Sketch181_w0032"  d="M 11.821113608393718 -54.393069201275544 L 19.254282222620418 -58.172323448832955 " stroke="#000000" stroke-width="0.35 px" style="stroke-width:0.35;stroke-miterlimit:4;stroke-dasharray:none;fill:none;fill-opacity:1;fill-rule: evenodd"/>
<path id="Sketch181_w0033"  d="M 18.412251202486637 -53.55877414874431 L 13.016262061900006 -59.80427293065617 " stroke="#000000" stroke-width="0.35 px" style="stroke-width:0.35;stroke-miterlimit:4;stroke-dasharray:none;fill:none;fill-opacity:1;fill-rule: evenodd"/>
<path id="Sketch181_w0034"  d="M -105.85876791243929 -60.23819230098144 L -105.24290170501168 -60.3690987027047 " stroke="#000000" stroke-width="0.35 px" style="stroke-width:0.35;stroke-miterlimit:4;stroke-dasharray:none;fill:none;fill-opacity:1;fill-rule: evenodd"/>
<path id="Sketch181_w0035"  d="M -97.80943096006757 -22.175352360895424 L -97.32083800610006 -8.18388075586892 L -111.31230961112658 -7.695287801901415 L -111.80090256509408 -21.686759406927923 L -97.80943096006757 -22.175352360895424 " stroke="#000000" stroke-width="0.35 px" style="stroke-width:0.35;stroke-miterlimit:4;stroke-dasharray:none;fill:none;fill-opacity:1;fill-rule: evenodd"/>
<path id="Sketch181_w0036"  d="M -102.39496747380574 -44.31730767945872 L -101.90637451983822 -30.325836074432203 L -115.89784612486474 -29.83724312046472 L -116.38643907883225 -43.82871472549122 L -102.39496747380574 -44.31730767945872 " stroke="#000000" stroke-width="0.35 px" style="stroke-width:0.35;stroke-miterlimit:4;stroke-dasharray:none;fill:none;fill-opacity:1;fill-rule: evenodd"/>
<path id="Sketch181_w0037"  d="M -105.34441023594988 -63.275922709799886 L -104.85581728198237 -49.28445110477337 L -118.84728888700889 -48.79585815080584 L -119.33588184097638 -62.78732975583236 L -105.34441023594988 -63.275922709799886 " stroke="#000000" stroke-width="0.35 px" style="stroke-width:0.35;stroke-miterlimit:4;stroke-dasharray:none;fill:none;fill-opacity:1;fill-rule: evenodd"/>
<path id="Sketch181_w0038"  d="M -59.1641513247713 -23.568733277025444 L -56.25338768638717 -9.874666836488103 L -69.9474541269245 -6.963903198103978 L -72.85821776530862 -20.65796963864132 L -59.16415132477128 -23.568733277025444 " stroke="#000000" stroke-width="0.35 px" style="stroke-width:0.35;stroke-miterlimit:4;stroke-dasharray:none;fill:none;fill-opacity:1;fill-rule: evenodd"/>
<path id="Sketch181_w0039"  d="M -78.31275636511324 -22.030398097631014 L -75.40199272672912 -8.336331657093673 L -89.09605916726646 -5.425568018709548 L -92.00682280565059 -19.119634459246885 L -78.31275636511324 -22.030398097631014 " stroke="#000000" stroke-width="0.35 px" style="stroke-width:0.35;stroke-miterlimit:4;stroke-dasharray:none;fill:none;fill-opacity:1;fill-rule: evenodd"/>
<path id="Sketch181_w0040"  d="M -63.12486902517806 -42.20244507970344 L -60.21410538679393 -28.508378639166096 L -73.90817182733127 -25.59761500078197 L -76.8189354657154 -39.291681441319305 L -63.12486902517806 -42.20244507970343 " stroke="#000000" stroke-width="0.35 px" style="stroke-width:0.35;stroke-miterlimit:4;stroke-dasharray:none;fill:none;fill-opacity:1;fill-rule: evenodd"/>
<path id="Sketch181_w0041"  d="M -82.27347406552 -40.664109900309015 L -79.36271042713588 -26.970043459771674 L -93.05677686767322 -24.05927982138755 L -95.96754050605735 -37.75334626192489 L -82.27347406552002 -40.664109900309015 " stroke="#000000" stroke-width="0.35 px" style="stroke-width:0.35;stroke-miterlimit:4;stroke-dasharray:none;fill:none;fill-opacity:1;fill-rule: evenodd"/>
<path id="Sketch181_w0042"  d="M -67.08558672558483 -60.83615688238143 L -64.1748230872007 -47.142090441844104 L -77.86888952773803 -44.23132680345998 L -80.77965316612216 -57.925393243997306 L -67.08558672558483 -60.83615688238143 " stroke="#000000" stroke-width="0.35 px" style="stroke-width:0.35;stroke-miterlimit:4;stroke-dasharray:none;fill:none;fill-opacity:1;fill-rule: evenodd"/>
<path id="Sketch181_w0043"  d="M -86.23419176592678 -59.29782170298701 L -83.32342812754266 -45.60375526244967 L -97.01749456808 -42.69299162406554 L -99.92825820646411 -56.38705806460288 L -86.23419176592677 -59.29782170298701 " stroke="#000000" stroke-width="0.35 px" style="stroke-width:0.35;stroke-miterlimit:4;stroke-dasharray:none;fill:none;fill-opacity:1;fill-rule: evenodd"/>
<path id="Sketch181_w0044"  d="M -40.1796749225586 -35.02353185408726 L -36.55620831610441 -21.500570215383036 L -50.07916995480895 -17.877103608929175 L -53.70263656126283 -31.400065247633382 L -40.1796749225586 -35.02353185408726 " stroke="#000000" stroke-width="0.35 px" style="stroke-width:0.35;stroke-miterlimit:4;stroke-dasharray:none;fill:none;fill-opacity:1;fill-rule: evenodd"/>
<path id="Sketch181_w0045"  d="M -21.40109884466632 -42.22465741047288 L -17.777632238212448 -28.70169577176867 L -31.30059387691665 -25.078229165314767 L -34.924060483370525 -38.601190804019 L -21.401098844666322 -42.22465741047287 " stroke="#000000" stroke-width="0.35 px" style="stroke-width:0.35;stroke-miterlimit:4;stroke-dasharray:none;fill:none;fill-opacity:1;fill-rule: evenodd"/>
<path id="Sketch181_w0046"  d="M -44.1901333723458 -53.67094396224082 L -40.566666765891924 -40.14798232353661 L -54.08962840459614 -36.52451571708275 L -57.71309501105001 -50.04747735578697 L -44.1901333723458 -53.67094396224083 " stroke="#000000" stroke-width="0.35 px" style="stroke-width:0.35;stroke-miterlimit:4;stroke-dasharray:none;fill:none;fill-opacity:1;fill-rule: evenodd"/>
<path id="Sketch181_w0047"  d="M -26.33160171280215 -60.62554436889686 L -22.708135106348266 -47.10258273019265 L -36.23109674505248 -43.47911612373879 L -39.85456335150636 -57.002077762442994 L -26.331601712802147 -60.62554436889687 " stroke="#000000" stroke-width="0.35 px" style="stroke-width:0.35;stroke-miterlimit:4;stroke-dasharray:none;fill:none;fill-opacity:1;fill-rule: evenodd"/>
<path id="Sketch181_w0048"  d="M -48.56860952536779 -72.21974608725277 L -44.945142918913916 -58.69678444854857 L -58.46810455761813 -55.07331784209468 L -62.09157116407199 -68.5962794807989 L -48.56860952536779 -72.21974608725279 " stroke="#000000" stroke-width="0.35 px" style="stroke-width:0.35;stroke-miterlimit:4;stroke-dasharray:none;fill:none;fill-opacity:1;fill-rule: evenodd"/>
<path id="Sketch181_w0049"  d="M -30.71007787105773 -79.17434639404586 L -27.086611264603846 -65.65138475534164 L -40.60957290330806 -62.02791814888778 L -44.23303950976195 -75.55087978759201 L -30.710077871057734 -79.17434639404587 " stroke="#000000" stroke-width="0.35 px" style="stroke-width:0.35;stroke-miterlimit:4;stroke-dasharray:none;fill:none;fill-opacity:1;fill-rule: evenodd"/>
<path id="Sketch181_w0050"  d="M -72.26392037182949 -68.97502668062819 L -59.78635136177013 -75.32921805641271 L -66.14221836089666 -87.80330934214035 L -78.61630964662427 -81.44744234301382 L -72.26044264749775 -68.9733510572862 " stroke="#000000" stroke-width="0.35 px" style="stroke-width:0.35;stroke-miterlimit:4;stroke-dasharray:none;fill:none;fill-opacity:1;fill-rule: evenodd"/>
<path id="Sketch181_w0051"  d="M -49.1685441171441 -96.45182836438171 L -42.812677118017575 -83.97773707865409 L -55.2867684037452 -77.62187007952757 L -61.64263540287173 -90.0959613652552 L -49.16854411714411 -96.45182836438173 " stroke="#000000" stroke-width="0.35 px" style="stroke-width:0.35;stroke-miterlimit:4;stroke-dasharray:none;fill:none;fill-opacity:1;fill-rule: evenodd"/>
<path id="Sketch181_w0052"  d="M -33.17187221440605 -106.44470243025648 L -25.753002528232383 -94.57202900468855 L -37.62567595379602 -87.15315931851057 L -45.04454563997399 -99.02583274407853 L -33.17187221440605 -106.44470243025648 " stroke="#000000" stroke-width="0.35 px" style="stroke-width:0.35;stroke-miterlimit:4;stroke-dasharray:none;fill:none;fill-opacity:1;fill-rule: evenodd"/>
<path id="Sketch181_w0053"  d="M -92.43152151155338 -16.580747564696765 L -96.34867445707015 -24.717892518462406 " stroke="#000000" stroke-width="0.35 px" style="stroke-width:0.35;stroke-miterlimit:4;stroke-dasharray:none;fill:none;fill-opacity:1;fill-rule: evenodd"/>
<path id="Sketch181_w0054"  d="M -99.03500482700055 -18.443609673131633 L -90.37856467830477 -23.707085874287262 " stroke="#000000" stroke-width="0.35 px" style="stroke-width:0.35;stroke-miterlimit:4;stroke-dasharray:none;fill:none;fill-opacity:1;fill-rule: evenodd"/>
<path id="Sketch181_w0055"  d="M -98.19252282119922 -45.89196257957213 L -106.9747780821662 -49.21045536322954 " stroke="#000000" stroke-width="0.35 px" style="stroke-width:0.35;stroke-miterlimit:4;stroke-dasharray:none;fill:none;fill-opacity:1;fill-rule: evenodd"/>
<path id="Sketch181_w0056"  d="M -106.75989343670801 -45.56579545827708 L -95.9853678570042 -50.15152689542208 " stroke="#000000" stroke-width="0.35 px" style="stroke-width:0.35;stroke-miterlimit:4;stroke-dasharray:none;fill:none;fill-opacity:1;fill-rule: evenodd"/>
<path id="Sketch181_w0057"  d="M -31.881250199172342 -36.671729892190875 L -43.57935092902541 -38.66209429667305 " stroke="#000000" stroke-width="0.35 px" style="stroke-width:0.35;stroke-miterlimit:4;stroke-dasharray:none;fill:none;fill-opacity:1;fill-rule: evenodd"/>
<path id="Sketch181_w0058"  d="M -39.961893726807844 -33.56185407047148 L -36.04220210347382 -42.70563743479032 " stroke="#000000" stroke-width="0.35 px" style="stroke-width:0.35;stroke-miterlimit:4;stroke-dasharray:none;fill:none;fill-opacity:1;fill-rule: evenodd"/>
<path id="Sketch181_w0059"  d="M -61.01555915628099 -66.61908910598335 L -75.46287014000202 -69.89974207768483 " stroke="#000000" stroke-width="0.35 px" style="stroke-width:0.35;stroke-miterlimit:4;stroke-dasharray:none;fill:none;fill-opacity:1;fill-rule: evenodd"/>
<path id="Sketch181_w0060"  d="M -68.78279060324236 -62.766161842576736 L -63.684889230461614 -72.12404922064195 " stroke="#000000" stroke-width="0.35 px" style="stroke-width:0.35;stroke-miterlimit:4;stroke-dasharray:none;fill:none;fill-opacity:1;fill-rule: evenodd"/>
<path id="Sketch181_w0061"  d="M -23.482426051882552 -86.36081381789735 L -33.011113341384565 -88.74864426516386 " stroke="#000000" stroke-width="0.35 px" style="stroke-width:0.35;stroke-miterlimit:4;stroke-dasharray:none;fill:none;fill-opacity:1;fill-rule: evenodd"/>
<path id="Sketch181_w0062"  d="M -30.185667640118666 -82.85561185746943 L -26.156210213320776 -90.41576475011536 " stroke="#000000" stroke-width="0.35 px" style="stroke-width:0.35;stroke-miterlimit:4;stroke-dasharray:none;fill:none;fill-opacity:1;fill-rule: evenodd"/>
<path id="Sketch181_w0063"  d="M -17.273857720834023 -76.80762219450686 L -25.70203934265441 -81.25575703583111 " stroke="#000000" stroke-width="0.35 px" style="stroke-width:0.35;stroke-miterlimit:4;stroke-dasharray:none;fill:none;fill-opacity:1;fill-rule: evenodd"/>
<path id="Sketch181_w0064"  d="M -25.07213484026221 -76.68338955551229 L -18.14833646208829 -82.65218659457166 " stroke="#000000" stroke-width="0.35 px" style="stroke-width:0.35;stroke-miterlimit:4;stroke-dasharray:none;fill:none;fill-opacity:1;fill-rule: evenodd"/>
<path id="Sketch181_w0065"  d="M -11.821113608393718 -54.393069201275544 L -19.254282222620418 -58.172323448832955 " stroke="#000000" stroke-width="0.35 px" style="stroke-width:0.35;stroke-miterlimit:4;stroke-dasharray:none;fill:none;fill-opacity:1;fill-rule: evenodd"/>
<path id="Sketch181_w0066"  d="M -18.412251202486637 -53.55877414874431 L -13.016262061900006 -59.80427293065617 " stroke="#000000" stroke-width="0.35 px" style="stroke-width:0.35;stroke-miterlimit:4;stroke-dasharray:none;fill:none;fill-opacity:1;fill-rule: evenodd"/>
<circle cx="-2.665848999999997" cy="-75.26453273506795" r="0.6" stroke="#000000" stroke-width="0.35 px" style="stroke-width:0.35;stroke-miterlimit:4;stroke-dasharray:none;fill:none"/>
<circle cx="-4.384598999999998" cy="-77.07999367860268" r="0.6" stroke="#000000" stroke-width="0.35 px" style="stroke-width:0.35;stroke-miterlimit:4;stroke-dasharray:none;fill:none"/>
<circle cx="-5.009599" cy="-79.50060826998231" r="0.6" stroke="#000000" stroke-width="0.35 px" style="stroke-width:0.35;stroke-miterlimit:4;stroke-dasharray:none;fill:none"/>
<circle cx="0.0" cy="-74.5006174840709" r="0.6" stroke="#000000" stroke-width="0.35 px" style="stroke-width:0.35;stroke-miterlimit:4;stroke-dasharray:none;fill:none"/>
<circle cx="-4.3845990000000015" cy="-81.92122286136194" r="0.6" stroke="#000000" stroke-width="0.35 px" style="stroke-width:0.35;stroke-miterlimit:4;stroke-dasharray:none;fill:none"/>
<circle cx="-2.665849000004177" cy="-83.73668380490172" r="0.6" stroke="#000000" stroke-width="0.35 px" style="stroke-width:0.35;stroke-miterlimit:4;stroke-dasharray:none;fill:none"/>
<circle cx="0.0" cy="-84.5005990559425" r="0.6" stroke="#000000" stroke-width="0.35 px" style="stroke-width:0.35;stroke-miterlimit:4;stroke-dasharray:none;fill:none"/>
<circle cx="4.231568197349312" cy="-76.8524955827788" r="0.6" stroke="#000000" stroke-width="0.35 px" style="stroke-width:0.35;stroke-miterlimit:4;stroke-dasharray:none;fill:none"/>
<circle cx="2.8664896678382585" cy="-83.59060997838444" r="0.6" stroke="#000000" stroke-width="0.35 px" style="stroke-width:0.35;stroke-miterlimit:4;stroke-dasharray:none;fill:none"/>
<circle cx="2.419410255628178" cy="-75.13026342820235" r="0.6" stroke="#000000" stroke-width="0.35 px" style="stroke-width:0.35;stroke-miterlimit:4;stroke-dasharray:none;fill:none"/>
<circle cx="4.983434339733117" cy="-79.23675590915612" r="0.6" stroke="#000000" stroke-width="0.35 px" style="stroke-width:0.35;stroke-miterlimit:4;stroke-dasharray:none;fill:none"/>
<circle cx="4.487042147183644" cy="-81.68697932574" r="0.6" stroke="#000000" stroke-width="0.35 px" style="stroke-width:0.35;stroke-miterlimit:4;stroke-dasharray:none;fill:none"/>
<title>b'Sketch181'</title>
</g>
</svg>