<?xml version="1.0"?>
<!DOCTYPE svg PUBLIC "-//W3C//DTD SVG 1.1//EN" "http://www.w3.org/Graphics/SVG/1.1/DTD/svg11.dtd">
<svg width="253.85505573643013mm" height="117.68876446984929mm" viewBox="0 0 253.85505573643013 117.68876446984929" xmlns="http://www.w3.org/2000/svg" version="1.1">
<g id="Sketch225" transform="translate(126.927528,2.621385) scale(1,-1)">
<path id="Sketch225_w0000"  d="M 97.62045375332538 -22.68225636250884 L 112.31804772692729 -22.169005072115837 L 111.79455527631448 -7.1781426400682244 L 96.80369284426686 -7.701635090681011 L 97.16778396354438 -18.12784061748534 " stroke="#000000" stroke-width="0.35 px" style="stroke-width:0.35;stroke-miterlimit:4;stroke-dasharray:none;fill:none;fill-opacity:1;fill-rule: evenodd"/>
<path id="Sketch225_w0001"  d="M 104.81362760393286 -44.733150978862724 L 116.90358424066545 -44.310960390679114 L 116.38009179005265 -29.32009795863153 L 101.38922935800503 -29.843590409244324 L 101.9004686047707 -44.48356699182233 " stroke="#000000" stroke-width="0.35 px" style="stroke-width:0.35;stroke-miterlimit:4;stroke-dasharray:none;fill:none;fill-opacity:1;fill-rule: evenodd"/>
<path id="Sketch225_w0002"  d="M 104.38339359774459 -50.08286100129627 L 104.86216457076199 -63.79306787163307 L 119.8530270028096 -63.26957542102027 L 119.32953455219679 -48.27871298897265 L 105.66865979975285 -48.75576124647538 " stroke="#000000" stroke-width="0.35 px" style="stroke-width:0.35;stroke-miterlimit:4;stroke-dasharray:none;fill:none;fill-opacity:1;fill-rule: evenodd"/>
<path id="Sketch225_w0003"  d="M 70.33257208351903 -6.370873553390963 L 73.45124741002165 -21.04308759523586 L 58.77903336817676 -24.16176292173846 L 55.66035804167416 -9.48954887989358 L 70.33257208351903 -6.370873553390963 " stroke="#000000" stroke-width="0.35 px" style="stroke-width:0.35;stroke-miterlimit:4;stroke-dasharray:none;fill:none;fill-opacity:1;fill-rule: evenodd"/>
<path id="Sketch225_w0004"  d="M 91.62045375332538 -19.71293003256313 L 77.9276384085187 -22.623427742344028 L 74.8089630820161 -7.951213700499128 L 89.481177123861 -4.832538373996532 L 92.30718081675354 -18.12784061748534 " stroke="#000000" stroke-width="0.35 px" style="stroke-width:0.35;stroke-miterlimit:4;stroke-dasharray:none;fill:none;fill-opacity:1;fill-rule: evenodd"/>
<path id="Sketch225_w0005"  d="M 74.2932897839258 -25.004585356068954 L 77.41196511042841 -39.67679939791384 L 62.73975106858354 -42.79547472441644 L 59.62107574208092 -28.12326068257156 L 74.2932897839258 -25.004585356068954 " stroke="#000000" stroke-width="0.35 px" style="stroke-width:0.35;stroke-miterlimit:4;stroke-dasharray:none;fill:none;fill-opacity:1;fill-rule: evenodd"/>
<path id="Sketch225_w0006"  d="M 93.58252021169207 -24.12784061748536 L 96.56057015077037 -38.13846421851943 L 81.88835610892546 -41.257139545022035 L 78.76968078242285 -26.58492550317713 L 91.62045375332538 -23.85340942274509 " stroke="#000000" stroke-width="0.35 px" style="stroke-width:0.35;stroke-miterlimit:4;stroke-dasharray:none;fill:none;fill-opacity:1;fill-rule: evenodd"/>
<path id="Sketch225_w0007"  d="M 78.25400748433256 -43.638297158746965 L 81.37268281083519 -58.31051120059183 L 66.7004687689903 -61.429186527094444 L 63.581793442487694 -46.75697248524958 L 78.25400748433256 -43.638297158746965 " stroke="#000000" stroke-width="0.35 px" style="stroke-width:0.35;stroke-miterlimit:4;stroke-dasharray:none;fill:none;fill-opacity:1;fill-rule: evenodd"/>
<path id="Sketch225_w0008"  d="M 97.40261252467452 -42.09996197935253 L 100.52128785117715 -56.77217602119744 L 85.84907380933225 -59.89085134770002 L 82.73039848282963 -45.21863730585512 L 97.40261252467452 -42.09996197935253 " stroke="#000000" stroke-width="0.35 px" style="stroke-width:0.35;stroke-miterlimit:4;stroke-dasharray:none;fill:none;fill-opacity:1;fill-rule: evenodd"/>
<path id="Sketch225_w0009"  d="M 40.65234199542791 -35.41451920791856 L 54.315008995887425 -31.753618640082045 L 50.43272334725761 -17.264731174304586 L 35.94383588148014 -21.147016822934386 L 39.46519020918354 -34.28889024464669 " stroke="#000000" stroke-width="0.35 px" style="stroke-width:0.35;stroke-miterlimit:4;stroke-dasharray:none;fill:none;fill-opacity:1;fill-rule: evenodd"/>
<path id="Sketch225_w0010"  d="M 35.39914231885346 -38.99153111371189 L 21.047545452217665 -42.83702984509746 L 17.165259803587855 -28.34814237932 L 31.65414726936531 -24.465856730690177 L 34.633146272188874 -35.5836324996647 " stroke="#000000" stroke-width="0.35 px" style="stroke-width:0.35;stroke-miterlimit:4;stroke-dasharray:none;fill:none;fill-opacity:1;fill-rule: evenodd"/>
<path id="Sketch225_w0011"  d="M 40.09806016426783 -40.33097045932955 L 43.836579979897124 -54.28331639686543 L 58.32546744567461 -50.401030748235634 L 54.4431817970448 -35.91214328245816 L 41.70055901915212 -39.326518726640124 " stroke="#000000" stroke-width="0.35 px" style="stroke-width:0.35;stroke-miterlimit:4;stroke-dasharray:none;fill:none;fill-opacity:1;fill-rule: evenodd"/>
<path id="Sketch225_w0012"  d="M 36.58465013750114 -42.8667436891142 L 40.466935786130946 -57.355631154891654 L 25.978048320353487 -61.23791680352146 L 22.09576267172368 -46.749029337744005 L 36.58465013750114 -42.8667436891142 " stroke="#000000" stroke-width="0.35 px" style="stroke-width:0.35;stroke-miterlimit:4;stroke-dasharray:none;fill:none;fill-opacity:1;fill-rule: evenodd"/>
<path id="Sketch225_w0013"  d="M 62.7039435986966 -68.94983287324757 L 48.21505613291912 -72.83211852187738 L 44.33277048428933 -58.34323105609991 L 58.82165795006679 -54.46094540747009 L 62.03382107375963 -66.44890153257688 " stroke="#000000" stroke-width="0.35 px" style="stroke-width:0.35;stroke-miterlimit:4;stroke-dasharray:none;fill:none;fill-opacity:1;fill-rule: evenodd"/>
<path id="Sketch225_w0014"  d="M 40.96312629575672 -61.41554571426319 L 44.845411944386534 -75.90443318004067 L 30.35652447860905 -79.78671882867049 L 26.47423882997926 -65.29783136289299 L 40.96312629575672 -61.41554571426319 " stroke="#000000" stroke-width="0.35 px" style="stroke-width:0.35;stroke-miterlimit:4;stroke-dasharray:none;fill:none;fill-opacity:1;fill-rule: evenodd"/>
<path id="Sketch225_w0015"  d="M 72.47895065844965 -68.30085254490878 L 79.28880815900169 -81.66595035396571 L 65.92371034994477 -88.47580785451777 L 59.113852849392714 -75.11071004546082 L 72.47895065844965 -68.30085254490878 " stroke="#000000" stroke-width="0.35 px" style="stroke-width:0.35;stroke-miterlimit:4;stroke-dasharray:none;fill:none;fill-opacity:1;fill-rule: evenodd"/>
<path id="Sketch225_w0016"  d="M 55.5052764146971 -76.94937156715015 L 62.31513391524916 -90.31446937620711 L 48.95003610619219 -97.12432687675918 L 42.14017860564016 -83.7592290677022 L 55.5052764146971 -76.94937156715015 " stroke="#000000" stroke-width="0.35 px" style="stroke-width:0.35;stroke-miterlimit:4;stroke-dasharray:none;fill:none;fill-opacity:1;fill-rule: evenodd"/>
<path id="Sketch225_w0017"  d="M 37.78474037237391 -86.46417563891977 L 45.73352931956481 -99.18489716265644 L 33.01280779582816 -107.1336861098473 L 25.06401884863727 -94.41296458611063 L 37.78474037237391 -86.46417563891977 " stroke="#000000" stroke-width="0.35 px" style="stroke-width:0.35;stroke-miterlimit:4;stroke-dasharray:none;fill:none;fill-opacity:1;fill-rule: evenodd"/>
<path id="Sketch225_w0018"  d="M 74.00654538098837 -2.01175435228137 A 1 1 0 0 1 72.8205 -1.24152L 51.30123884056455 -5.815575582424227 A 1 1 0 0 1 50.531 -7.00163L 51.6527586911245 -12.279080885076715 L 31.398409796932082 -17.706217248720538 A 1 1 0 0 1 30.6913 -18.931L 30.974839294738672 -19.989133943634233 L 13.394890311062571 -24.699667019702904 A 2 2 0 0 1 11.9744 -26.138L 10.0 -33.89153456247648 L 10.0 -71.89153456247595 L 0.0 -71.89153456247595 L -10.0 -71.89153456247595 L -10.0 -33.891534562475954 L -11.974378743528789 -26.137984554567588 A 2 2 0 0 1 -13.3949 -24.6997L -30.974839294738672 -19.989133943634233 L -30.691303012034766 -18.93096211796971 A 1 1 0 0 1 -31.3984 -17.7062L -51.6527586911245 -12.279080885076715 L -50.531002927375475 -7.001634871850259 A 1 1 0 0 1 -51.3012 -5.81558L -72.82048609156233 -1.2415184390922895 A 1 1 0 0 1 -74.0065 -2.01175L -74.3135269746317 -3.455989220388873 L -90.99094353059672 0.08890505218365718 A 2 2 0 0 1 -93.3631 -1.45157L -93.75708147168527 -3.3052821546435633 L -114.13598460896341 -2.5936351768600816 A 2 2 0 0 1 -116.205 -4.52262L -116.91262369237388 -24.7987585855183 L -118.7215211227016 -24.7355904954233 A 2 2 0 0 1 -120.79 -26.6646L -121.38513818860885 -43.70418677900089 L -122.67035471186684 -43.65930602911887 A 1 1 0 0 1 -123.705 -44.6238L -124.43753446601775 -65.61100475366915 A 2 2 0 0 1 -122.509 -67.6796L -102.52073523811279 -68.37757533484118 A 2 2 0 0 1 -100.452 -66.4486L -100.27671618377829 -61.42469400739034 L -76.59343477230709 -66.45873080496733 L -84.4353969033631 -81.84944799515638 A 2 2 0 0 1 -83.5605 -84.5399L -51.56854623760049 -100.82081004778715 L -33.27894115163277 -112.27368926392344 A 2 2 0 0 1 -30.5214 -111.638L -18.875177877637665 -93.00060826998231 L -17.267482742535105 -87.00060826998231 L 0.0 -87.00060826998231 L 17.267482742535105 -87.00060826998231 L 18.875177877637665 -93.00060826998231 L 30.521389506600386 -111.63844302982709 A 2 2 0 0 1 33.2789 -112.274L 51.56854623760049 -100.82081004778715 L 83.56048951922364 -84.53988778211034 A 2 2 0 0 1 84.4354 -81.8494L 76.59343477230709 -66.45873080496733 L 100.27671618377829 -61.42469400739034 L 100.45215459078003 -66.44859267408955 A 2 2 0 0 1 102.521 -68.3776L 122.50855180526614 -67.67958540100192 A 2 2 0 0 1 124.438 -65.611L 123.70464503553322 -44.62379735949468 A 1 1 0 0 1 122.67 -43.6593L 121.38513818860885 -43.70418677900089 L 120.79010177003437 -26.66457315617491 A 2 2 0 0 1 118.722 -24.7356L 116.91262369237388 -24.7987585855183 L 116.20456525629618 -4.522617837611692 A 2 2 0 0 1 114.136 -2.59364L 93.75708147168527 -3.3052821546435633 L 93.36306210944879 -1.4515667741945042 A 2 2 0 0 1 90.9909 0.0889051L 74.3135269746317 -3.455989220388873 L 74.00654538098837 -2.01175435228137 " stroke="#000000" stroke-width="0.35 px" style="stroke-width:0.35;stroke-miterlimit:4;stroke-dasharray:none;fill:none;fill-opacity:1;fill-rule: evenodd"/>
<path id="Sketch225_w0019"  d="M 0.0 -76.00153456247595 L -3.999179524961607 -76.00153456247595 A 1 1 0 0 1 -4.99918 -77.0015L -4.9991795249616064 -81.46462739127587 A 1 1 0 0 1 -3.99918 -82.4646L 0.0 -82.46462739127587 L 3.9991795249616064 -82.46462739127587 A 1 1 0 0 1 4.99918 -81.4646L 4.9991795249616064 -77.00153456247595 A 1 1 0 0 1 3.99918 -76.0015L 0.0 -76.00153456247595 " stroke="#000000" stroke-width="0.35 px" style="stroke-width:0.35;stroke-miterlimit:4;stroke-dasharray:none;fill:none;fill-opacity:1;fill-rule: evenodd"/>
<path id="Sketch225_w0020"  d="M -97.62045375332538 -22.68225636250884 L -112.31804772692729 -22.169005072115837 L -111.79455527631448 -7.1781426400682244 L -96.80369284426686 -7.701635090681011 L -97.16778396354438 -18.12784061748534 " stroke="#000000" stroke-width="0.35 px" style="stroke-width:0.35;stroke-miterlimit:4;stroke-dasharray:none;fill:none;fill-opacity:1;fill-rule: evenodd"/>
<path id="Sketch225_w0021"  d="M -104.81362760393286 -44.733150978862724 L -116.90358424066545 -44.310960390679114 L -116.38009179005265 -29.32009795863153 L -101.38922935800503 -29.843590409244324 L -101.9004686047707 -44.48356699182233 " stroke="#000000" stroke-width="0.35 px" style="stroke-width:0.35;stroke-miterlimit:4;stroke-dasharray:none;fill:none;fill-opacity:1;fill-rule: evenodd"/>
<path id="Sketch225_w0022"  d="M -104.38339359774459 -50.08286100129627 L -104.86216457076199 -63.79306787163307 L -119.8530270028096 -63.26957542102027 L -119.32953455219679 -48.27871298897265 L -105.66865979975285 -48.75576124647537 " stroke="#000000" stroke-width="0.35 px" style="stroke-width:0.35;stroke-miterlimit:4;stroke-dasharray:none;fill:none;fill-opacity:1;fill-rule: evenodd"/>
<path id="Sketch225_w0023"  d="M -70.33257208351903 -6.370873553390963 L -73.45124741002165 -21.04308759523586 L -58.77903336817676 -24.16176292173846 L -55.66035804167416 -9.48954887989358 L -70.33257208351903 -6.370873553390963 " stroke="#000000" stroke-width="0.35 px" style="stroke-width:0.35;stroke-miterlimit:4;stroke-dasharray:none;fill:none;fill-opacity:1;fill-rule: evenodd"/>
<path id="Sketch225_w0024"  d="M -91.62045375332538 -19.71293003256313 L -77.9276384085187 -22.623427742344028 L -74.8089630820161 -7.951213700499128 L -89.481177123861 -4.832538373996532 L -92.30718081675354 -18.12784061748534 " stroke="#000000" stroke-width="0.35 px" style="stroke-width:0.35;stroke-miterlimit:4;stroke-dasharray:none;fill:none;fill-opacity:1;fill-rule: evenodd"/>
<path id="Sketch225_w0025"  d="M -74.2932897839258 -25.004585356068954 L -77.41196511042841 -39.67679939791384 L -62.73975106858354 -42.79547472441644 L -59.62107574208092 -28.12326068257156 L -74.2932897839258 -25.004585356068954 " stroke="#000000" stroke-width="0.35 px" style="stroke-width:0.35;stroke-miterlimit:4;stroke-dasharray:none;fill:none;fill-opacity:1;fill-rule: evenodd"/>
<path id="Sketch225_w0026"  d="M -93.58252021169207 -24.12784061748536 L -96.56057015077037 -38.13846421851943 L -81.88835610892546 -41.257139545022035 L -78.76968078242285 -26.58492550317713 L -91.62045375332538 -23.85340942274509 " stroke="#000000" stroke-width="0.35 px" style="stroke-width:0.35;stroke-miterlimit:4;stroke-dasharray:none;fill:none;fill-opacity:1;fill-rule: evenodd"/>
<path id="Sketch225_w0027"  d="M -78.25400748433256 -43.638297158746965 L -81.37268281083519 -58.31051120059183 L -66.7004687689903 -61.429186527094444 L -63.581793442487694 -46.75697248524958 L -78.25400748433256 -43.638297158746965 " stroke="#000000" stroke-width="0.35 px" style="stroke-width:0.35;stroke-miterlimit:4;stroke-dasharray:none;fill:none;fill-opacity:1;fill-rule: evenodd"/>
<path id="Sketch225_w0028"  d="M -97.40261252467452 -42.09996197935253 L -100.52128785117715 -56.77217602119744 L -85.84907380933225 -59.89085134770002 L -82.73039848282963 -45.21863730585512 L -97.40261252467452 -42.09996197935253 " stroke="#000000" stroke-width="0.35 px" style="stroke-width:0.35;stroke-miterlimit:4;stroke-dasharray:none;fill:none;fill-opacity:1;fill-rule: evenodd"/>
<path id="Sketch225_w0029"  d="M -40.65234190968148 -35.41451920791856 L -54.315008995887425 -31.753618640082045 L -50.43272334725761 -17.264731174304586 L -35.94383588148014 -21.147016822934386 L -39.46519020918354 -34.28889024464669 " stroke="#000000" stroke-width="0.35 px" style="stroke-width:0.35;stroke-miterlimit:4;stroke-dasharray:none;fill:none;fill-opacity:1;fill-rule: evenodd"/>
<path id="Sketch225_w0030"  d="M -35.39914227212188 -38.99153111371189 L -21.047545452217665 -42.83702984509746 L -17.165259803587855 -28.34814237932 L -31.65414726936531 -24.465856730690177 L -34.633146272188874 -35.5836324996647 " stroke="#000000" stroke-width="0.35 px" style="stroke-width:0.35;stroke-miterlimit:4;stroke-dasharray:none;fill:none;fill-opacity:1;fill-rule: evenodd"/>
<path id="Sketch225_w0031"  d="M -40.09806016426783 -40.33097033074075 L -43.836579979897124 -54.28331639686543 L -58.32546744567461 -50.401030748235634 L -54.4431817970448 -35.91214328245816 L -41.70055900881018 -39.326518726640124 " stroke="#000000" stroke-width="0.35 px" style="stroke-width:0.35;stroke-miterlimit:4;stroke-dasharray:none;fill:none;fill-opacity:1;fill-rule: evenodd"/>
<path id="Sketch225_w0032"  d="M -36.58465013750114 -42.8667436891142 L -40.466935786130946 -57.355631154891654 L -25.978048320353487 -61.23791680352146 L -22.09576267172368 -46.749029337744005 L -36.58465013750114 -42.8667436891142 " stroke="#000000" stroke-width="0.35 px" style="stroke-width:0.35;stroke-miterlimit:4;stroke-dasharray:none;fill:none;fill-opacity:1;fill-rule: evenodd"/>
<path id="Sketch225_w0033"  d="M -62.7039435986966 -68.94983287324757 L -48.21505613291912 -72.83211852187738 L -44.33277048428933 -58.34323105609991 L -58.82165795006679 -54.46094540747009 L -62.03382107375963 -66.44890153257688 " stroke="#000000" stroke-width="0.35 px" style="stroke-width:0.35;stroke-miterlimit:4;stroke-dasharray:none;fill:none;fill-opacity:1;fill-rule: evenodd"/>
<path id="Sketch225_w0034"  d="M -40.96312629575672 -61.41554571426319 L -44.845411944386534 -75.90443318004067 L -30.35652447860905 -79.78671882867049 L -26.47423882997926 -65.29783136289299 L -40.96312629575672 -61.41554571426319 " stroke="#000000" stroke-width="0.35 px" style="stroke-width:0.35;stroke-miterlimit:4;stroke-dasharray:none;fill:none;fill-opacity:1;fill-rule: evenodd"/>
<path id="Sketch225_w0035"  d="M -72.47895065844965 -68.30085254490878 L -79.28880815900169 -81.66595035396571 L -65.92371034994477 -88.47580785451777 L -59.113852849392714 -75.11071004546082 L -72.47895065844965 -68.30085254490878 " stroke="#000000" stroke-width="0.35 px" style="stroke-width:0.35;stroke-miterlimit:4;stroke-dasharray:none;fill:none;fill-opacity:1;fill-rule: evenodd"/>
<path id="Sketch225_w0036"  d="M -55.5052764146971 -76.94937156715015 L -62.31513391524916 -90.31446937620711 L -48.95003610619219 -97.12432687675918 L -42.14017860564016 -83.7592290677022 L -55.5052764146971 -76.94937156715015 " stroke="#000000" stroke-width="0.35 px" style="stroke-width:0.35;stroke-miterlimit:4;stroke-dasharray:none;fill:none;fill-opacity:1;fill-rule: evenodd"/>
<path id="Sketch225_w0037"  d="M -37.78474037237391 -86.46417563891977 L -45.73352931956481 -99.18489716265644 L -33.01280779582816 -107.1336861098473 L -25.06401884863727 -94.41296458611063 L -37.78474037237391 -86.46417563891977 " stroke="#000000" stroke-width="0.35 px" style="stroke-width:0.35;stroke-miterlimit:4;stroke-dasharray:none;fill:none;fill-opacity:1;fill-rule: evenodd"/>
<path id="Sketch225_w0038"  d="M 15.0 -51.891534562475854 L 15.0 -40.891534562475854 L 10.0 -40.891534562475854 L 15.0 -40.891534562475854 L 15.0 -51.891534562475854 L 18.899782 -51.891534562475854 L 15.0 -51.891534562475854 M 12.899781 -51.891534562475854 L 10.0 -51.891534562475854 L 12.899781 -51.891534562475854 L 12.899781 -59.46679087195838 L 18.899782 -59.46679087195838 L 18.899782 -51.891534562475854 M 12.899781 -53.466789 L 12.899781 -59.46679087195838 L 18.899782 -59.46679087195838 L 18.899782 -53.466789 " stroke="#000000" stroke-width="0.35 px" style="stroke-width:0.35;stroke-miterlimit:4;stroke-dasharray:none;fill:none;fill-opacity:1;fill-rule: evenodd"/>
<path id="Sketch225_w0039"  d="M 100.01410568900494 -51.0115818035222 L 105.8829912968501 -49.76411167481137 L 104.6355211681392 -43.895226066965904 L 98.76663556029403 -45.142696195676734 L 98.08037125958727 -45.28856617385248 L 98.76663556029403 -45.142696195676734 L 104.6355211681392 -43.895226066965904 L 105.8829912968501 -49.76411167481137 L 100.01410568900494 -51.0115818035222 M 100.01410568900494 -51.0115818035222 L 99.32784138829814 -51.15745178169795 L 100.01410568900494 -51.0115818035222 " stroke="#000000" stroke-width="0.35 px" style="stroke-width:0.35;stroke-miterlimit:4;stroke-dasharray:none;fill:none;fill-opacity:1;fill-rule: evenodd"/>
<path id="Sketch225_w0040"  d="M 67.37087658369677 -63.72953591217874 L 61.554178422930434 -66.69329167098054 L 64.45612659010591 -72.3886856036685 L 61.554178422930434 -66.69329167098054 L 67.37087658369677 -63.72953591217874 M 67.37087658369677 -63.72953591217874 L 70.27282475087225 -69.4249298448667 L 67.37087658369677 -63.72953591217874 " stroke="#000000" stroke-width="0.35 px" style="stroke-width:0.35;stroke-miterlimit:4;stroke-dasharray:none;fill:none;fill-opacity:1;fill-rule: evenodd"/>
<path id="Sketch225_w0041"  d="M 28.70213957121476 -83.29577646300413 L 23.613850982202607 -86.47529202908159 L 27.588245439799415 -92.83565276534677 L 23.613850982202607 -86.47529202908159 L 28.70213957121476 -83.29577646300413 M 28.70213957121476 -83.29577646300413 L 32.67653402881157 -89.6561371992693 L 28.70213957121476 -83.29577646300413 " stroke="#000000" stroke-width="0.35 px" style="stroke-width:0.35;stroke-miterlimit:4;stroke-dasharray:none;fill:none;fill-opacity:1;fill-rule: evenodd"/>
<path id="Sketch225_w0042"  d="M -97.62045375332538 -18.12784061748534 L -91.62045375332538 -18.12784061748534 L -91.62045375332538 -24.12784061748536 L -97.62045375332538 -24.12784061748536 L -97.62045375332538 -18.12784061748534 " stroke="#000000" stroke-width="0.35 px" style="stroke-width:0.35;stroke-miterlimit:4;stroke-dasharray:none;fill:none;fill-opacity:1;fill-rule: evenodd"/>
<path id="Sketch225_w0043"  d="M -98.08037125958727 -45.28856617385248 L -98.76663556029403 -45.142696195676734 L -104.6355211681392 -43.895226066965904 L -105.8829912968501 -49.76411167481137 L -100.01410568900494 -51.0115818035222 L -99.32784138829814 -51.15745178169795 " stroke="#000000" stroke-width="0.35 px" style="stroke-width:0.35;stroke-miterlimit:4;stroke-dasharray:none;fill:none;fill-opacity:1;fill-rule: evenodd"/>
<path id="Sketch225_w0044"  d="M -40.291410588755085 -34.0675051638534 L -34.495855626315645 -35.62041941690895 L -36.04876987937122 -41.41597437934847 L -41.84432484181066 -39.86306012629291 L -40.291410588755085 -34.0675051638534 " stroke="#000000" stroke-width="0.35 px" style="stroke-width:0.35;stroke-miterlimit:4;stroke-dasharray:none;fill:none;fill-opacity:1;fill-rule: evenodd"/>
<path id="Sketch225_w0045"  d="M -18.899782 -53.466789 L -12.899781 -53.466789 L -12.899781 -59.46679087195838 L -18.899782 -59.46679087195838 L -18.899782 -53.466789 " stroke="#000000" stroke-width="0.35 px" style="stroke-width:0.35;stroke-miterlimit:4;stroke-dasharray:none;fill:none;fill-opacity:1;fill-rule: evenodd"/>
<path id="Sketch225_w0046"  d="M -70.27282475087225 -69.4249298448667 L -67.37087658369677 -63.72953591217874 L -61.554178422930434 -66.69329167098054 L -64.45612659010591 -72.3886856036685 " stroke="#000000" stroke-width="0.35 px" style="stroke-width:0.35;stroke-miterlimit:4;stroke-dasharray:none;fill:none;fill-opacity:1;fill-rule: evenodd"/>
<path id="Sketch225_w0047"  d="M -32.67653402881157 -89.6561371992693 L -28.70213957121476 -83.29577646300413 L -23.613850982202607 -86.47529202908159 L -27.588245439799415 -92.83565276534677 " stroke="#000000" stroke-width="0.35 px" style="stroke-width:0.35;stroke-miterlimit:4;stroke-dasharray:none;fill:none;fill-opacity:1;fill-rule: evenodd"/>
<path id="Sketch225_w0048"  d="M -22.975863392981037 -75.17936737867785 L -26.155378959058485 -80.26765596768999 L -21.067090370046316 -83.44717153376746 L -17.887574803968867 -78.35888294475532 L -22.975863392981037 -75.17936737867785 " stroke="#000000" stroke-width="0.35 px" style="stroke-width:0.35;stroke-miterlimit:4;stroke-dasharray:none;fill:none;fill-opacity:1;fill-rule: evenodd"/>
<path id="Sketch225_w0049"  d="M 34.495857 -35.620419 L 40.291412 -34.067505 L 41.844326 -39.86306 L 36.048771 -41.415974 L 34.495857 -35.620419 " stroke="#000000" stroke-width="0.35 px" style="stroke-width:0.35;stroke-miterlimit:4;stroke-dasharray:none;fill:none;fill-opacity:1;fill-rule: evenodd"/>
<path id="Sketch225_w0050"  d="M 91.620453 -18.12784 L 97.620453 -18.12784 L 97.620453 -24.12784 L 91.620453 -24.12784 L 91.620453 -18.12784 " stroke="#000000" stroke-width="0.35 px" style="stroke-width:0.35;stroke-miterlimit:4;stroke-dasharray:none;fill:none;fill-opacity:1;fill-rule: evenodd"/>
<path id="Sketch225_w0051"  d="M 22.975863 -75.179367 L 26.155378 -80.267654 L 21.067091 -83.447174 L 17.887575 -78.358887 L 22.975863 -75.179367 " stroke="#000000" stroke-width="0.35 px" style="stroke-width:0.35;stroke-miterlimit:4;stroke-dasharray:none;fill:none;fill-opacity:1;fill-rule: evenodd"/>
<title>b'Sketch225'</title>
</g>
</svg>