M48
; DRILL file {KiCad (6.0.6)} date 2022年07月30日 19時55分31秒
; FORMAT={-:-/ absolute / metric / decimal}
; #@! TF.CreationDate,2022-07-30T19:55:31+09:00
; #@! TF.GenerationSoftware,Kicad,Pcbnew,(6.0.6)
; #@! TF.FileFunction,Plated,1,2,PTH
FMAT,2
METRIC
; #@! TA.AperFunction,Plated,PTH,ViaDrill
T1C0.400
; #@! TA.AperFunction,Plated,PTH,ComponentDrill
T2C0.813
; #@! TA.AperFunction,Plated,PTH,ComponentDrill
T3C1.300
%
G90
G05
T1
X46.272Y-59.848
X47.11Y-71.02
X51.43Y-58.62
X51.44Y-50.96
X51.59Y-55.4
X52.94Y-58.9
X57.299Y-71.26
X57.61Y-64.68
X57.749Y-72.34
X58.97Y-70.42
X59.23Y-65.03
X59.256Y-68.844
X77.73Y-72.34
X80.71Y-61.69
X81.9Y-68.89
X82.153Y-71.557
X83.38Y-71.76
X84.378Y-71.415
X95.73Y-57.11
X96.01Y-81.11
X96.81Y-59.54
X97.248Y-78.882
X97.61Y-56.47
X99.4Y-81.29
X101.19Y-62.45
X101.81Y-60.61
X102.44Y-57.6
X102.84Y-81.24
X110.11Y-61.72
X115.88Y-82.954
X116.641Y-84.559
X124.21Y-89.22
X128.2Y-68.77
X130.28Y-91.35
X131.18Y-94.74
X131.79Y-95.99
X132.897Y-92.548
X133.64Y-93.29
X140.33Y-74.816
X142.12Y-73.117
X146.81Y-72.04
X151.84Y-88.22
X167.359Y-104.015
X168.301Y-91.249
X181.577Y-94.313
X182.301Y-93.579
X182.57Y-92.225
X187.75Y-107.93
X189.82Y-111.95
X194.09Y-87.611
X195.42Y-114.11
X200.315Y-87.105
X202.22Y-87.9
X203.934Y-89.634
X204.802Y-87.742
X207.59Y-83.929
X214.61Y-76.77
X215.11Y-78.4
X215.594Y-76.51
X216.455Y-82.725
X216.64Y-78.66
X218.796Y-79.826
X219.387Y-81.418
X224.8Y-72.319
X231.19Y-68.795
X237.673Y-71.644
X238.868Y-73.427
X239.22Y-71.7
X248.86Y-69.89
X256.83Y-71.66
X258.26Y-60.64
X258.344Y-57.51
X258.67Y-72.43
X259.11Y-58.87
X260.48Y-75.29
X264.038Y-55.364
X265.28Y-71.19
T2
X150.252Y-74.927
X150.252Y-77.467
X150.252Y-80.007
X150.252Y-82.547
X150.252Y-85.087
X150.252Y-87.627
X150.252Y-90.167
X150.252Y-92.707
X150.252Y-95.247
X150.252Y-97.787
X150.252Y-100.327
X150.252Y-102.867
X165.472Y-74.927
X165.472Y-77.467
X165.472Y-80.007
X165.472Y-82.547
X165.472Y-85.087
X165.472Y-87.627
X165.472Y-90.167
X165.472Y-92.707
X165.472Y-95.247
X165.472Y-97.787
X165.472Y-100.327
X165.472Y-102.867
T3
X144.831Y-73.966
X144.831Y-80.466
T0
M30
