%TF.GenerationSoftware,KiCad,Pcbnew,(6.0.6)*%
%TF.CreationDate,2022-07-30T19:54:08+09:00*%
%TF.ProjectId,nowt36_top_plate,6e6f7774-3336-45f7-946f-705f706c6174,rev?*%
%TF.SameCoordinates,Original*%
%TF.FileFunction,Legend,Bot*%
%TF.FilePolarity,Positive*%
%FSLAX46Y46*%
G04 Gerber Fmt 4.6, Leading zero omitted, Abs format (unit mm)*
G04 Created by KiCad (PCBNEW (6.0.6)) date 2022-07-30 19:54:08*
%MOMM*%
%LPD*%
G01*
G04 APERTURE LIST*
%TA.AperFunction,Profile*%
%ADD10C,0.349999*%
%TD*%
%ADD11C,0.300000*%
%TA.AperFunction,Profile*%
%ADD12C,0.120000*%
%TD*%
%ADD13C,0.350000*%
%ADD14C,2.200000*%
%ADD15C,4.300000*%
G04 APERTURE END LIST*
D10*
X231725116Y-33993476D02*
X231698161Y-33952779D01*
X34443311Y-98047982D02*
X34443311Y-98047982D01*
X231381600Y-33661253D02*
X231339574Y-33638053D01*
X282189087Y-74364459D02*
X282156413Y-74329296D01*
X56504308Y-96817078D02*
X56619009Y-93530003D01*
X74573737Y-97341395D02*
X74622764Y-97345614D01*
X32676057Y-96840127D02*
X32716838Y-96928823D01*
X43116816Y-34965076D02*
X43023111Y-34992477D01*
X281740706Y-97967544D02*
X281834611Y-97937295D01*
X278466334Y-56488066D02*
X278432453Y-56396511D01*
X33982693Y-74062248D02*
X33935715Y-74076345D01*
X282869975Y-97108798D02*
X282919131Y-97025888D01*
X277365101Y-55299160D02*
X277274570Y-55262777D01*
X106766270Y-38698897D02*
X106706475Y-38620279D01*
X63831356Y-32887059D02*
X63757163Y-32947929D01*
X106822347Y-38780734D02*
X106766270Y-38698897D01*
X281656130Y-74050443D02*
X281607395Y-74040969D01*
X33935715Y-74076345D02*
X33889713Y-74092659D01*
X231946127Y-34741396D02*
X231946127Y-34741396D01*
X106433034Y-38339988D02*
X106356841Y-38278964D01*
X62911741Y-35569906D02*
X43701223Y-34899060D01*
X33637830Y-74233739D02*
X33600478Y-74263886D01*
X43405264Y-34910611D02*
X43308058Y-34924081D01*
X42930907Y-35024397D02*
X42840368Y-35060775D01*
X273875105Y-36068436D02*
X273832491Y-35980669D01*
X278009069Y-55742852D02*
X277938207Y-55673415D01*
X63988054Y-32776246D02*
X63908366Y-32829795D01*
X281456763Y-74027190D02*
X281405294Y-74027680D01*
X188519844Y-51139539D02*
X188529052Y-51188061D01*
X126708547Y-50128505D02*
X126666448Y-50103697D01*
X56619009Y-93530003D02*
X74476041Y-97325631D01*
X239720296Y-95124176D02*
X240024496Y-96555397D01*
X185972710Y-143999883D02*
X186056876Y-144049890D01*
X84966117Y-33537519D02*
X84915641Y-33530739D01*
X33256028Y-74890189D02*
X33250399Y-74940802D01*
X170719309Y-57206315D02*
X170565305Y-57337723D01*
X260301739Y-98543597D02*
X260390446Y-98584370D01*
X75508086Y-96913882D02*
X75534728Y-96873017D01*
X55020000Y-98680000D02*
X55113695Y-98652592D01*
X240668953Y-115207669D02*
X240629723Y-115113666D01*
X129448191Y-144140040D02*
X129535397Y-144099693D01*
X188576253Y-50610808D02*
X188559390Y-50656882D01*
X274695547Y-55200585D02*
X274053976Y-36828042D01*
X240597126Y-116813485D02*
X240637489Y-116726282D01*
X105560796Y-37913728D02*
X85016721Y-33546943D01*
X74476041Y-97325631D02*
X74476041Y-97325631D01*
X41900691Y-35894960D02*
X41853815Y-35980598D01*
X188774969Y-52110541D02*
X188774969Y-52110541D01*
X208549603Y-39685414D02*
X208542973Y-39783850D01*
X74929389Y-116355782D02*
X74952859Y-116451727D01*
X55471812Y-98498393D02*
X55556345Y-98449012D01*
X277625036Y-55434430D02*
X277540500Y-55385049D01*
X33264127Y-74840400D02*
X33256028Y-74890189D01*
X278198471Y-55969138D02*
X278139274Y-55890875D01*
X64609077Y-32514634D02*
X64514567Y-32539110D01*
X210125768Y-37913732D02*
X210125768Y-37913732D01*
X32922664Y-97261958D02*
X32984486Y-97338998D01*
X64421755Y-32568067D02*
X64330780Y-32601396D01*
X147843305Y-67115948D02*
X147843305Y-67115948D01*
X106576314Y-38473096D02*
X106506241Y-38404732D01*
X37822416Y-55607543D02*
X37748197Y-55673382D01*
X209103006Y-38480330D02*
X209037901Y-38551176D01*
X32716838Y-96928823D02*
X32761951Y-97015521D01*
X231813019Y-34170613D02*
X231794179Y-34124273D01*
X259214603Y-97111531D02*
X259234834Y-97207557D01*
X282086254Y-74263867D02*
X282048899Y-74233723D01*
X75020234Y-115201363D02*
X74986706Y-115293890D01*
X85016721Y-33546943D02*
X84966117Y-33537519D01*
X185253851Y-143213601D02*
X185253851Y-143213601D01*
X240394349Y-117141396D02*
X240451133Y-117062891D01*
X142720945Y-119096680D02*
X142720945Y-119096680D01*
X84305051Y-33661269D02*
X84264198Y-33686436D01*
X34344278Y-98042069D02*
X34443311Y-98047982D01*
X147843305Y-106115944D02*
X147843305Y-106115944D01*
X170047664Y-57957488D02*
X169945318Y-58133381D01*
X186899990Y-144301336D02*
X186997631Y-144305597D01*
X126749340Y-50155308D02*
X126708547Y-50128505D01*
X209499166Y-44585329D02*
X209499166Y-44585329D01*
X260761932Y-98702889D02*
X260858137Y-98721064D01*
X240458013Y-97186203D02*
X240500272Y-97212181D01*
X241063880Y-97345664D02*
X241112908Y-97341443D01*
X106874301Y-38865247D02*
X106822347Y-38780734D01*
X42418483Y-35307352D02*
X42341431Y-35369170D01*
X106196076Y-38168478D02*
X106111798Y-38119217D01*
X278556355Y-56869174D02*
X278540822Y-56771987D01*
X252593904Y-34117494D02*
X252573860Y-34017623D01*
X230669912Y-33546938D02*
X230669912Y-33546938D01*
X281447393Y-98030465D02*
X281546976Y-98014259D01*
X273419149Y-35435104D02*
X273344940Y-35369264D01*
X105845134Y-37996567D02*
X105752124Y-37964397D01*
X259188309Y-96916141D02*
X259199070Y-97014338D01*
X241014848Y-97347465D02*
X241063880Y-97345664D01*
X129703879Y-144006491D02*
X129784817Y-143953746D01*
X145741252Y-58133401D02*
X145638908Y-57957507D01*
X240304188Y-97063181D02*
X240340130Y-97096580D01*
X106356841Y-38278964D02*
X106277806Y-38221761D01*
X277863993Y-55607574D02*
X277786948Y-55545754D01*
X126826720Y-50214684D02*
X126788754Y-50184053D01*
X240270005Y-97028143D02*
X240304188Y-97063181D01*
X261251302Y-98746087D02*
X281243398Y-98047928D01*
X74961140Y-97308301D02*
X75007745Y-97293614D01*
X208566450Y-40184637D02*
X208585302Y-40285848D01*
X188540701Y-51236277D02*
X188540701Y-51236277D01*
X128604809Y-144305663D02*
X128701693Y-144305475D01*
X126931227Y-50317363D02*
X126898027Y-50281394D01*
X56007408Y-98068055D02*
X56070564Y-97992573D01*
X43308058Y-34924081D02*
X43211853Y-34942256D01*
X64241783Y-32638988D02*
X64154902Y-32680734D01*
X105657296Y-37936750D02*
X105560796Y-37913728D01*
X147843305Y-106115944D02*
X147843305Y-67115948D01*
X209649953Y-38079244D02*
X209562723Y-38125339D01*
X127141779Y-50703593D02*
X127127230Y-50656857D01*
X169776558Y-58506696D02*
X169711133Y-58703086D01*
X273557057Y-35577078D02*
X273490010Y-35504539D01*
X208542973Y-39783850D02*
X208541246Y-39883140D01*
X239720296Y-95124176D02*
X239720296Y-95124176D01*
X42664954Y-35146655D02*
X42580410Y-35196033D01*
X283169122Y-96184089D02*
X283173297Y-96082316D01*
X273021467Y-35146743D02*
X272934771Y-35101633D01*
X188694254Y-50394287D02*
X188666456Y-50435108D01*
X107111527Y-39505547D02*
X107091413Y-39410079D01*
X33339398Y-74605947D02*
X33319924Y-74650703D01*
X282436390Y-74940764D02*
X282430757Y-74890150D01*
X56129758Y-97914312D02*
X56184918Y-97833431D01*
X281885824Y-74131696D02*
X281841966Y-74111130D01*
X240678879Y-97293671D02*
X240725487Y-97308357D01*
X75888060Y-117663564D02*
X75975309Y-117710778D01*
X37610280Y-55815357D02*
X37547117Y-55890838D01*
X144267714Y-56790298D02*
X144074401Y-56716275D01*
X127179872Y-50992995D02*
X127179439Y-50944132D01*
X189020171Y-50103722D02*
X188978071Y-50128530D01*
X209832636Y-37999600D02*
X209739956Y-38037282D01*
X277707241Y-55488019D02*
X277625036Y-55434430D01*
X281969962Y-74178879D02*
X281928511Y-74154299D01*
X208597940Y-39396712D02*
X208577183Y-39491696D01*
X240732900Y-116454836D02*
X240755963Y-116361639D01*
X84434342Y-33597765D02*
X84390198Y-33616885D01*
X55556345Y-98449012D02*
X55638547Y-98395424D01*
X37381692Y-56133323D02*
X37334818Y-56218960D01*
X250685329Y-32463729D02*
X250584432Y-32463303D01*
X41638224Y-36728999D02*
X41632307Y-36828038D01*
X189108014Y-50060309D02*
X189063509Y-50080964D01*
X33274631Y-74791496D02*
X33264127Y-74840400D01*
X38411871Y-55262770D02*
X38321335Y-55299149D01*
X128507695Y-144301115D02*
X128604809Y-144305663D01*
X63239321Y-33639988D02*
X63201005Y-33730903D01*
X188666456Y-50435108D02*
X188640600Y-50477438D01*
X240917126Y-97343872D02*
X240965901Y-97346863D01*
X55795293Y-98275870D02*
X55869505Y-98210030D01*
X130432806Y-143214081D02*
X142720945Y-119096680D01*
X231829643Y-34218243D02*
X231813019Y-34170613D01*
X277938207Y-55673415D02*
X277938207Y-55673415D01*
X282816987Y-97189107D02*
X282869975Y-97108798D01*
X282122114Y-74295745D02*
X282086254Y-74263867D01*
X75496284Y-117369682D02*
X75568326Y-117435717D01*
X54534847Y-98747087D02*
X54633548Y-98743204D01*
X63328466Y-33465804D02*
X63281854Y-33551585D01*
X187763215Y-144169087D02*
X187854317Y-144130907D01*
X250584432Y-32463303D02*
X250482679Y-32468015D01*
X83857010Y-34218245D02*
X83842674Y-34267115D01*
X169945318Y-58133381D02*
X169854784Y-58316622D01*
X279168050Y-74105774D02*
X278573034Y-57066399D01*
X32580330Y-96563709D02*
X32607741Y-96657404D01*
X130432806Y-143214081D02*
X130432806Y-143214081D01*
X260048273Y-98395527D02*
X260130487Y-98449113D01*
X37253911Y-56396476D02*
X37220026Y-56488032D01*
X252774862Y-35569906D02*
X252774862Y-35569906D01*
X126911642Y-52110541D02*
X127145910Y-51236250D01*
X74914215Y-115578310D02*
X74899463Y-115674807D01*
X282276708Y-74479020D02*
X282249300Y-74439382D01*
X189247823Y-50011504D02*
X189200241Y-50025525D01*
X129083545Y-144258454D02*
X129176742Y-144235407D01*
X63077596Y-34219328D02*
X63077596Y-34219328D01*
X75416598Y-97028099D02*
X75448971Y-96991496D01*
X143874708Y-56655278D02*
X143874708Y-56655278D01*
X231698161Y-33952779D02*
X231669364Y-33913615D01*
X283103198Y-96576868D02*
X283126820Y-96481081D01*
X240127245Y-96830910D02*
X240151876Y-96873052D01*
X186056876Y-144049890D02*
X186143593Y-144095818D01*
X75479483Y-96953399D02*
X75508086Y-96913882D01*
X74884160Y-115869274D02*
X74883637Y-115966891D01*
X63201005Y-33730903D02*
X63167047Y-33824220D01*
X208918429Y-38701535D02*
X208864257Y-38780752D01*
X84765730Y-33525786D02*
X84716513Y-33529102D01*
X282187671Y-97773397D02*
X282269689Y-97722346D01*
X107066653Y-39315652D02*
X107037279Y-39222441D01*
X282964335Y-96940506D02*
X283005464Y-96852784D01*
X186232725Y-144137552D02*
X186324139Y-144174977D01*
X33716762Y-74178889D02*
X33676613Y-74205387D01*
X33426940Y-97728616D02*
X33510280Y-97779665D01*
X75243139Y-117073292D02*
X75300941Y-117151957D01*
X63077596Y-34219328D02*
X62911741Y-35569906D01*
X157843305Y-119096680D02*
X172965673Y-119096680D01*
X74883637Y-115966891D02*
X74887884Y-116064526D01*
X240207120Y-96953439D02*
X240237633Y-96991538D01*
X145400758Y-57629829D02*
X145265938Y-57479077D01*
X208552888Y-40083682D02*
X208566450Y-40184637D01*
X240732104Y-115398364D02*
X240703062Y-115302625D01*
X64154902Y-32680734D02*
X64070280Y-32726523D01*
X188515176Y-50846923D02*
X188509990Y-50895429D01*
X187943807Y-144088082D02*
X187943807Y-144088082D01*
X56325449Y-97576691D02*
X56363732Y-97486950D01*
X75662107Y-96555382D02*
X75662107Y-96555382D01*
X240104675Y-96787568D02*
X240127245Y-96830910D01*
X42341431Y-35369170D02*
X42267210Y-35435010D01*
X273734571Y-35811698D02*
X273679411Y-35730819D01*
X75007745Y-97293614D02*
X75053655Y-97276637D01*
X209243474Y-38348056D02*
X209171563Y-38412574D01*
X83740491Y-34741396D02*
X83740491Y-34741396D01*
X32525830Y-96275287D02*
X32539312Y-96372485D01*
X37220026Y-56488032D02*
X37190618Y-56581239D01*
X281557878Y-74033895D02*
X281507646Y-74029281D01*
X240587836Y-97257443D02*
X240632967Y-97276694D01*
X84332952Y-96902565D02*
X75101255Y-115020791D01*
X32514234Y-95979348D02*
X32513229Y-96078552D01*
X167843313Y-67115948D02*
X167843313Y-106115944D01*
X127173548Y-51090773D02*
X127177912Y-51041905D01*
X74933682Y-115482541D02*
X74914215Y-115578310D01*
X259616196Y-97992676D02*
X259679361Y-98068160D01*
X188522721Y-50798727D02*
X188515176Y-50846923D01*
X37119228Y-56967342D02*
X37113309Y-57066378D01*
X42006918Y-35730734D02*
X41951750Y-35811618D01*
X240024496Y-96555397D02*
X240024496Y-96555397D01*
X37487915Y-55969101D02*
X37432749Y-56049983D01*
X74910746Y-116259149D02*
X74929389Y-116355782D01*
X240803244Y-115882889D02*
X240798709Y-115785770D01*
X240637489Y-116726282D02*
X240673608Y-116637327D01*
X189063509Y-50080964D02*
X189020171Y-50103722D01*
X127157558Y-51188034D02*
X127166767Y-51139512D01*
X240552576Y-116898767D02*
X240597126Y-116813485D01*
X276897448Y-55162433D02*
X276800249Y-55148956D01*
X75101255Y-115020791D02*
X75058422Y-115110271D01*
X129620683Y-144055159D02*
X129703879Y-144006491D01*
X75051563Y-116731783D02*
X75093281Y-116820918D01*
X241112908Y-97341443D02*
X241161846Y-97334786D01*
X277786948Y-55545754D02*
X277707241Y-55488019D01*
X127742773Y-144087632D02*
X127835645Y-144132047D01*
X64514567Y-32539110D02*
X64421755Y-32568067D01*
X126962697Y-50355004D02*
X126931227Y-50317363D01*
X128313452Y-144277590D02*
X128410520Y-144291776D01*
X33683686Y-97869143D02*
X33773429Y-97907424D01*
X42267210Y-35435010D02*
X42196341Y-35504446D01*
X208585302Y-40285848D02*
X209499166Y-44585329D01*
X282249300Y-74439382D02*
X282220071Y-74401175D01*
X251264865Y-32568057D02*
X251172052Y-32539100D01*
X41853815Y-35980598D02*
X41811196Y-36068372D01*
X239888834Y-117608739D02*
X239972240Y-117551964D01*
X33958188Y-97970704D02*
X34052882Y-97995555D01*
X64070280Y-32726523D02*
X63988054Y-32776246D01*
X83961541Y-33993484D02*
X83936503Y-34035663D01*
X129863327Y-143896978D02*
X129939241Y-143836241D01*
X32811335Y-97100053D02*
X32864927Y-97182254D01*
X41632307Y-36828038D02*
X40991056Y-55200585D01*
X33302595Y-74696587D02*
X33287475Y-74743538D01*
X75014153Y-116640367D02*
X75051563Y-116731783D01*
X32517115Y-96177254D02*
X32525830Y-96275287D01*
X282269689Y-97722346D02*
X282348967Y-97667524D01*
X231066985Y-33542881D02*
X231018844Y-33534808D01*
X42840368Y-35060775D02*
X42751662Y-35101549D01*
X281797003Y-74092661D02*
X281751000Y-74076349D01*
X127929639Y-144171287D02*
X128024586Y-144205407D01*
X126666448Y-50103697D02*
X126623111Y-50080938D01*
X259817281Y-98210137D02*
X259891505Y-98275977D01*
X240151876Y-96873052D02*
X240178518Y-96913919D01*
X127069755Y-50520973D02*
X127046026Y-50477414D01*
X84390198Y-33616885D02*
X84347076Y-33638069D01*
X54828776Y-98721012D02*
X54924972Y-98702828D01*
X32639671Y-96749599D02*
X32676057Y-96840127D01*
X74913927Y-97320680D02*
X74961140Y-97308301D01*
X272281243Y-34910644D02*
X272183212Y-34901932D01*
X186417699Y-144207978D02*
X186417699Y-144207978D01*
X75966322Y-95124176D02*
X75966322Y-95124176D01*
X41739021Y-36249677D02*
X41709613Y-36342887D01*
X274053976Y-36828042D02*
X274048056Y-36729012D01*
X231537241Y-33773243D02*
X231500350Y-33742464D01*
X74887884Y-116064526D02*
X74896916Y-116162005D01*
X33864984Y-97941302D02*
X33958188Y-97970704D01*
X271985311Y-34899058D02*
X271985311Y-34899058D01*
X240820440Y-97330793D02*
X240868610Y-97338510D01*
X33889713Y-74092659D02*
X33844752Y-74111131D01*
X145975427Y-58703107D02*
X145910005Y-58506717D01*
X272663354Y-34992544D02*
X272569661Y-34965136D01*
X231750154Y-34035656D02*
X231725116Y-33993476D01*
X276800249Y-55148956D02*
X276702215Y-55140246D01*
X41664522Y-36533611D02*
X41648987Y-36630802D01*
X128410520Y-144291776D02*
X128507695Y-144301115D01*
X37334818Y-56218960D02*
X37292200Y-56306731D01*
X84047857Y-33876042D02*
X84017293Y-33913625D01*
X273679411Y-35730819D02*
X273620215Y-35652558D01*
X208652905Y-39211242D02*
X208623213Y-39303178D01*
X282399297Y-74743501D02*
X282384174Y-74696550D01*
X187192678Y-144299818D02*
X187289731Y-144289807D01*
X63552889Y-33151083D02*
X63491367Y-33225284D01*
X240128083Y-117427751D02*
X240200410Y-117360649D01*
X185528846Y-143620652D02*
X185594871Y-143692709D01*
X189153614Y-50041811D02*
X189108014Y-50060309D01*
X128989272Y-144277040D02*
X129083545Y-144258454D01*
X240756135Y-115494717D02*
X240732104Y-115398364D01*
X126438802Y-50011477D02*
X126438802Y-50011477D01*
X240585317Y-115020783D02*
X240585317Y-115020783D01*
X63908366Y-32829795D02*
X63831356Y-32887059D01*
X84716513Y-33529102D02*
X84667797Y-33534821D01*
X106706475Y-38620279D02*
X106643107Y-38544978D01*
X240632967Y-97276694D02*
X240678879Y-97293671D01*
X170565305Y-57337723D02*
X170420644Y-57479061D01*
X186997631Y-144305597D02*
X187095252Y-144305086D01*
X167843313Y-106115944D02*
X167843313Y-106115944D01*
X272846076Y-35060855D02*
X272755548Y-35024471D01*
X32514234Y-95979348D02*
X32514234Y-95979348D01*
X37292200Y-56306731D02*
X37253911Y-56396476D01*
X259361272Y-97576773D02*
X259403892Y-97664547D01*
X185594871Y-143692709D02*
X185664257Y-143761379D01*
X107144883Y-39894345D02*
X107143674Y-39796456D01*
X240543576Y-97235933D02*
X240587836Y-97257443D01*
X65001286Y-32463734D02*
X64901388Y-32469190D01*
X83913456Y-34079277D02*
X83892475Y-34124277D01*
X171053373Y-56975351D02*
X170882163Y-57085352D01*
X240237633Y-96991538D02*
X240270005Y-97028143D01*
X282325805Y-74562345D02*
X282302232Y-74520028D01*
X240377782Y-97128265D02*
X240417093Y-97158164D01*
X147843305Y-67115948D02*
X146027555Y-58905297D01*
X261251302Y-98746087D02*
X261251302Y-98746087D01*
X260858137Y-98721064D02*
X260955343Y-98734534D01*
X107137690Y-39698910D02*
X107126964Y-39601882D01*
X56504308Y-96817078D02*
X56504308Y-96817078D01*
X43602012Y-34898039D02*
X43503304Y-34901910D01*
X188755391Y-50317388D02*
X188723922Y-50355029D01*
X259199070Y-97014338D02*
X259214603Y-97111531D01*
X282439489Y-74992142D02*
X282436390Y-74940764D01*
X187576886Y-144231452D02*
X187670679Y-144202607D01*
X63112766Y-34017625D02*
X63092722Y-34117494D01*
X278567117Y-56967365D02*
X278556355Y-56869174D01*
X240200410Y-117360649D02*
X240268932Y-117290444D01*
X38061386Y-55434407D02*
X37979177Y-55487993D01*
X273832491Y-35980669D02*
X273785622Y-35895036D01*
X54435644Y-98746079D02*
X54435644Y-98746079D01*
X107037279Y-39222441D02*
X107003325Y-39130621D01*
X42580410Y-35196033D02*
X42498198Y-35249619D01*
X239972240Y-117551964D02*
X240052009Y-117491579D01*
X37190618Y-56581239D02*
X37165761Y-56675935D01*
X130383746Y-143304587D02*
X130432806Y-143214081D01*
X252195258Y-33225274D02*
X252133736Y-33151073D01*
X107143674Y-39796456D02*
X107137690Y-39698910D01*
X39082951Y-55136397D02*
X38984246Y-55140271D01*
X171418885Y-56790297D02*
X171232445Y-56876827D01*
X252068835Y-33080040D02*
X252000697Y-33012285D01*
X252133736Y-33151073D02*
X252068835Y-33080040D01*
X259817281Y-98210137D02*
X259817281Y-98210137D01*
X65203933Y-32468017D02*
X65102181Y-32463306D01*
X276504308Y-55137377D02*
X276504308Y-55137377D01*
X105752124Y-37964397D02*
X105657296Y-37936750D01*
X126533009Y-50041785D02*
X126486383Y-50025498D01*
X83830701Y-34317178D02*
X83740491Y-34741396D01*
X84264198Y-33686436D02*
X84224591Y-33713522D01*
X208623213Y-39303178D02*
X208597940Y-39396712D01*
X83892475Y-34124277D02*
X83873635Y-34170616D01*
X171811895Y-56655283D02*
X171612200Y-56716277D01*
X188774969Y-52110541D02*
X171811895Y-56655283D01*
X34443311Y-98047982D02*
X54435644Y-98746079D01*
X240798709Y-115785770D02*
X240789383Y-115688589D01*
X240775210Y-115591515D02*
X240756135Y-115494717D01*
X33192310Y-97551109D02*
X33267793Y-97614264D01*
X240451133Y-117062891D02*
X240503893Y-116981959D01*
X74720738Y-97346810D02*
X74769511Y-97343819D01*
X56184918Y-97833431D02*
X56235968Y-97750093D01*
X33119768Y-97484066D02*
X33192310Y-97551109D01*
X186705361Y-144278445D02*
X186802508Y-144292290D01*
X231353658Y-96902565D02*
X239720296Y-95124176D01*
X260215031Y-98498491D02*
X260301739Y-98543597D01*
X75803622Y-117612317D02*
X75888060Y-117663564D01*
X65102181Y-32463306D02*
X65001286Y-32463734D01*
X252573860Y-34017623D02*
X252549038Y-33919828D01*
X208544519Y-39983134D02*
X208552888Y-40083682D01*
X259182394Y-96817101D02*
X259188309Y-96916141D01*
X283126820Y-96481081D02*
X283145762Y-96383602D01*
X231018844Y-33534808D02*
X230970126Y-33529090D01*
X33510280Y-97779665D02*
X33595916Y-97826532D01*
X188859896Y-50214709D02*
X188823449Y-50247174D01*
X240705431Y-116546789D02*
X240732900Y-116454836D01*
X252549038Y-33919828D02*
X252519578Y-33824216D01*
X34281416Y-74027649D02*
X34229947Y-74027163D01*
X84865368Y-33526556D02*
X84815373Y-33524921D01*
X145525246Y-57789478D02*
X145400758Y-57629829D01*
X33050329Y-97413208D02*
X33119768Y-97484066D01*
X127163895Y-50798701D02*
X127154005Y-50750904D01*
X41648987Y-36630802D02*
X41638224Y-36728999D01*
X75189184Y-116991807D02*
X75243139Y-117073292D01*
X56397611Y-97395397D02*
X56427015Y-97302194D01*
X33410042Y-74479050D02*
X33384522Y-74520060D01*
X75559359Y-96830878D02*
X75581930Y-96787538D01*
X283159903Y-96284561D02*
X283169122Y-96184089D01*
X231794179Y-34124273D02*
X231773200Y-34079271D01*
X34246088Y-98031311D02*
X34344278Y-98042069D01*
X209037901Y-38551176D02*
X208976343Y-38624960D01*
X259679361Y-98068160D02*
X259746414Y-98140700D01*
X282700001Y-97341402D02*
X282760288Y-97266685D01*
X188513064Y-51090800D02*
X188519844Y-51139539D01*
X74986706Y-115293890D02*
X74957850Y-115387675D01*
X281644787Y-97993241D02*
X281740706Y-97967544D01*
X83830701Y-34317178D02*
X83830701Y-34317178D01*
X75966322Y-95124176D02*
X84332952Y-96902565D01*
X185891231Y-143945914D02*
X185972710Y-143999883D01*
X126623111Y-50080938D02*
X126578608Y-50060283D01*
X230770994Y-33530731D02*
X230720517Y-33537512D01*
X251355841Y-32601386D02*
X251264865Y-32568057D01*
X55296418Y-98584281D02*
X55385114Y-98543503D01*
X252253263Y-33302535D02*
X252195258Y-33225274D01*
X128798177Y-144300605D02*
X128894093Y-144291108D01*
X43211853Y-34942256D02*
X43116816Y-34965076D01*
X281243398Y-98047928D02*
X281243398Y-98047928D01*
X281405294Y-74027680D02*
X279168050Y-74105774D01*
X75643640Y-117498258D02*
X75722110Y-117557170D01*
X278351555Y-56218996D02*
X278304685Y-56133360D01*
X231422454Y-33686421D02*
X231381600Y-33661253D01*
X170285822Y-57629812D02*
X170161330Y-57789459D01*
X281834611Y-97937295D02*
X281926382Y-97902627D01*
X39182157Y-55137415D02*
X39182157Y-55137415D01*
X251172052Y-32539100D02*
X251077542Y-32514625D01*
X188532612Y-50750930D02*
X188522721Y-50798727D01*
X251698569Y-32776235D02*
X251616343Y-32726511D01*
X278394168Y-56306767D02*
X278351555Y-56218996D01*
X106822347Y-38780734D02*
X106822347Y-38780734D01*
X63281854Y-33551585D02*
X63239321Y-33639988D01*
X37129992Y-56869148D02*
X37119228Y-56967342D01*
X84815373Y-33524921D02*
X84765730Y-33525786D01*
X167843313Y-67115948D02*
X167843313Y-67115948D01*
X188506740Y-50993021D02*
X188508700Y-51041931D01*
X277088676Y-55203443D02*
X276993646Y-55180616D01*
X75568326Y-117435717D02*
X75643640Y-117498258D01*
X170420644Y-57479061D02*
X170285822Y-57629812D01*
X84525402Y-33565911D02*
X84479435Y-33580758D01*
X277540500Y-55385049D02*
X277453800Y-55339938D01*
X208686918Y-39121053D02*
X208652905Y-39211242D01*
X34281416Y-74027649D02*
X34281416Y-74027649D01*
X240500272Y-97212181D02*
X240543576Y-97235933D01*
X33530324Y-74329319D02*
X33497653Y-74364485D01*
X281751000Y-74076349D02*
X281704020Y-74062257D01*
X33676613Y-74205387D02*
X33637830Y-74233739D01*
X260390446Y-98584370D02*
X260480985Y-98620748D01*
X33360952Y-74562379D02*
X33339398Y-74605947D01*
X251855268Y-32887047D02*
X251778257Y-32829783D01*
X209396971Y-38229327D02*
X209318642Y-38286924D01*
X251616343Y-32726511D02*
X251531720Y-32680722D01*
X129176742Y-144235407D02*
X129268695Y-144207952D01*
X146027555Y-58905297D02*
X146027555Y-58905297D01*
X126788754Y-50184053D02*
X126749340Y-50155308D01*
X276702215Y-55140246D02*
X276603513Y-55136366D01*
X260130487Y-98449113D02*
X260215031Y-98498491D01*
X281704020Y-74062257D02*
X281656130Y-74050443D01*
X279168050Y-74105774D02*
X279168050Y-74105774D01*
X188595417Y-50565484D02*
X188576253Y-50610808D01*
X127110368Y-50610783D02*
X127091206Y-50565459D01*
X230669912Y-33546938D02*
X210125768Y-37913732D01*
X231353658Y-96902565D02*
X231353658Y-96902565D01*
X208577183Y-39491696D02*
X208561038Y-39587979D01*
X209562723Y-38125339D02*
X209478363Y-38175416D01*
X106506241Y-38404732D02*
X106433034Y-38339988D01*
X273785622Y-35895036D02*
X273734571Y-35811698D01*
X282156413Y-74329296D02*
X282122114Y-74295745D01*
X272474634Y-34942308D02*
X272378439Y-34924124D01*
X230871264Y-33524911D02*
X230821268Y-33526547D01*
X74818025Y-97338456D02*
X74866192Y-97330738D01*
X56498391Y-96916110D02*
X56504308Y-96817078D01*
X33497653Y-74364485D02*
X33466672Y-74401202D01*
X278432453Y-56396511D02*
X278394168Y-56306767D01*
X144967280Y-57206327D02*
X144804429Y-57085361D01*
X240798157Y-116076265D02*
X240803041Y-115979777D01*
X240585317Y-115020783D02*
X231353658Y-96902565D01*
X187482012Y-144255610D02*
X187576886Y-144231452D01*
X186143593Y-144095818D02*
X186232725Y-144137552D01*
X74957850Y-115387675D02*
X74933682Y-115482541D01*
X240868610Y-97338510D02*
X240917126Y-97343872D01*
X55385114Y-98543503D02*
X55471812Y-98498393D01*
X33564621Y-74295766D02*
X33530324Y-74329319D01*
X187386235Y-144275067D02*
X187482012Y-144255610D01*
X240417093Y-97158164D02*
X240458013Y-97186203D01*
X281507646Y-74029281D02*
X281456763Y-74027190D01*
X39182157Y-55137415D02*
X39082951Y-55136397D01*
X74769511Y-97343819D02*
X74818025Y-97338456D01*
X261152092Y-98747107D02*
X261251302Y-98746087D01*
X157843305Y-106115944D02*
X147843305Y-106115944D01*
X37145528Y-56771959D02*
X37129992Y-56869148D01*
X271985311Y-34899058D02*
X252774862Y-35569906D01*
X250380209Y-32477975D02*
X231946127Y-34741396D01*
X252609029Y-34219329D02*
X252593904Y-34117494D01*
X208585302Y-40285848D02*
X208585302Y-40285848D01*
X282366841Y-74650667D02*
X282347363Y-74605912D01*
X143874708Y-56655278D02*
X126911642Y-52110541D01*
X186324139Y-144174977D02*
X186417699Y-144207978D01*
X167843313Y-106115944D02*
X157843305Y-106115944D01*
X240178518Y-96913919D02*
X240207120Y-96953439D01*
X186417699Y-144207978D02*
X186512780Y-144236303D01*
X83873635Y-34170616D02*
X83857010Y-34218245D01*
X83740491Y-34741396D02*
X65306402Y-32477975D01*
X282103032Y-97820548D02*
X282187671Y-97773397D01*
X84667797Y-33534821D02*
X84619657Y-33542895D01*
X32513229Y-96078552D02*
X32517115Y-96177254D01*
X282569143Y-97481734D02*
X282636245Y-97413128D01*
X38232632Y-55339923D02*
X38145927Y-55385030D01*
X106187437Y-44585329D02*
X107101324Y-40285851D01*
X75300941Y-117151957D02*
X75362476Y-117227666D01*
X84572167Y-33553274D02*
X84525402Y-33565911D01*
X42751662Y-35101549D02*
X42664954Y-35146655D01*
X38886210Y-55148975D02*
X38789008Y-55162447D01*
X64802627Y-32479564D02*
X64705143Y-32494749D01*
X259968557Y-98337794D02*
X260048273Y-98395527D01*
X84915641Y-33530739D02*
X84865368Y-33526556D01*
X259501826Y-97833528D02*
X259556993Y-97914412D01*
X126898027Y-50281394D02*
X126863168Y-50247149D01*
X240703062Y-115302625D02*
X240668953Y-115207669D01*
X75101255Y-115020791D02*
X75101255Y-115020791D01*
X278540822Y-56771987D02*
X278520592Y-56675966D01*
X127176624Y-50895403D02*
X127171439Y-50846897D01*
X272934771Y-35101633D02*
X272846076Y-35060855D01*
X252485621Y-33730898D02*
X252447305Y-33639982D01*
X187289731Y-144289807D02*
X187386235Y-144275067D01*
X240965901Y-97346863D02*
X241014848Y-97347465D01*
X260480985Y-98620748D02*
X260573190Y-98652668D01*
X107141285Y-39992404D02*
X107144883Y-39894345D01*
X63433362Y-33302544D02*
X63379015Y-33382754D01*
X281841966Y-74111130D02*
X281797003Y-74092661D01*
X187943807Y-144088082D02*
X239711324Y-117710778D01*
X241161846Y-97334786D02*
X241210607Y-97325676D01*
X84332952Y-96902565D02*
X84332952Y-96902565D01*
X127020167Y-50435083D02*
X126992367Y-50394262D01*
X75602389Y-96743071D02*
X75620686Y-96697548D01*
X56235968Y-97750093D02*
X56282836Y-97664460D01*
X282919131Y-97025888D02*
X282964335Y-96940506D01*
X259067602Y-93530003D02*
X259182394Y-96817101D01*
X106025118Y-38074078D02*
X105936181Y-38033161D01*
X84017293Y-33913625D02*
X83988495Y-33952789D01*
X40991056Y-55200585D02*
X39182157Y-55137415D01*
X170161330Y-57789459D02*
X170047664Y-57957488D01*
X274037292Y-36630824D02*
X274021758Y-36533641D01*
X208541246Y-39883140D02*
X208544519Y-39983134D01*
X231500350Y-33742464D02*
X231462062Y-33713507D01*
X127177912Y-51041905D02*
X127179872Y-50992995D01*
X231843977Y-34267114D02*
X231829643Y-34218243D01*
X33844752Y-74111131D02*
X33800896Y-74131701D01*
X107132847Y-40090458D02*
X107141285Y-39992404D01*
X231161243Y-33565896D02*
X231114476Y-33553260D01*
X208725157Y-39032761D02*
X208686918Y-39121053D01*
X171811895Y-56655283D02*
X171811895Y-56655283D01*
X274001527Y-36437623D02*
X273976673Y-36342932D01*
X260666895Y-98680069D02*
X260761932Y-98702889D01*
X187854317Y-144130907D02*
X187943807Y-144088082D01*
X38145927Y-55385030D02*
X38061386Y-55434407D01*
X42066121Y-35652470D02*
X42006918Y-35730734D01*
X75382416Y-97063135D02*
X75416598Y-97028099D01*
X75186341Y-97212126D02*
X75228597Y-97186150D01*
X188544839Y-50703618D02*
X188532612Y-50750930D01*
X209318642Y-38286924D02*
X209243474Y-38348056D01*
X169711133Y-58703086D02*
X169659002Y-58905276D01*
X127046026Y-50477414D02*
X127020167Y-50435083D01*
X74622764Y-97345614D02*
X74671793Y-97347414D01*
X208767524Y-38946514D02*
X208725157Y-39032761D01*
X272569661Y-34965136D02*
X272474634Y-34942308D01*
X157843305Y-119096680D02*
X157843305Y-119096680D01*
X282430757Y-74890150D02*
X282422654Y-74840361D01*
X106277806Y-38221761D02*
X106196076Y-38168478D01*
X55869505Y-98210030D02*
X55940363Y-98140594D01*
X126992367Y-50394262D02*
X126962697Y-50355004D01*
X186802508Y-144292290D02*
X186899990Y-144301336D01*
X273490010Y-35504539D02*
X273419149Y-35435104D01*
X231946127Y-34741396D02*
X231855947Y-34317179D01*
X277182373Y-55230850D02*
X277088676Y-55203443D01*
X259746414Y-98140700D02*
X259817281Y-98210137D01*
X274048056Y-36729012D02*
X274037292Y-36630824D01*
X127145910Y-51236250D02*
X127145910Y-51236250D01*
X129268695Y-144207952D02*
X129359234Y-144176145D01*
X43023111Y-34992477D02*
X42930907Y-35024397D01*
X34079317Y-74040953D02*
X34030582Y-74050431D01*
X281405294Y-74027680D02*
X281405294Y-74027680D01*
X42267210Y-35435010D02*
X42267210Y-35435010D01*
X272183212Y-34901932D02*
X272084513Y-34898049D01*
X273105998Y-35196124D02*
X273021467Y-35146743D01*
X56487630Y-97014298D02*
X56498391Y-96916110D01*
X63092722Y-34117494D02*
X63077596Y-34219328D01*
X55113695Y-98652592D02*
X55205889Y-98620665D01*
X185736869Y-143826546D02*
X185812572Y-143888096D01*
X32539312Y-96372485D02*
X32557500Y-96468681D01*
X62911741Y-35569906D02*
X62911741Y-35569906D01*
X272755548Y-35024471D02*
X272663354Y-34992544D01*
X37432749Y-56049983D02*
X37381692Y-56133323D01*
X210125768Y-37913732D02*
X210025639Y-37937676D01*
X75139194Y-116907637D02*
X75189184Y-116991807D01*
X208976343Y-38624960D02*
X208918429Y-38701535D01*
X188823449Y-50247174D02*
X188788590Y-50281419D01*
X172965673Y-119096680D02*
X172965673Y-119096680D01*
X283042399Y-96762850D02*
X283075017Y-96670835D01*
X252519578Y-33824216D02*
X252485621Y-33730898D01*
X231114476Y-33553260D02*
X231066985Y-33542881D01*
X63379015Y-33382754D02*
X63328466Y-33465804D01*
X241210607Y-97325676D02*
X241210607Y-97325676D01*
X278495738Y-56581272D02*
X278466334Y-56488066D01*
X273947269Y-36249729D02*
X273913388Y-36158177D01*
X278304685Y-56133360D02*
X278253632Y-56050020D01*
X169659002Y-58905276D02*
X169659002Y-58905276D01*
X106921804Y-38951849D02*
X106874301Y-38865247D01*
X259891505Y-98275977D02*
X259968557Y-98337794D01*
X273267901Y-35307446D02*
X273188198Y-35249712D01*
X36518552Y-74105774D02*
X36518552Y-74105774D01*
X188540701Y-51236277D02*
X188774969Y-52110541D01*
X75975309Y-117710778D02*
X127742773Y-144087632D01*
X188616870Y-50520998D02*
X188595417Y-50565484D01*
X83988495Y-33952789D02*
X83961541Y-33993484D01*
X274053976Y-36828042D02*
X274053976Y-36828042D01*
X75269515Y-97158112D02*
X75308824Y-97128215D01*
X65306402Y-32477975D02*
X65306402Y-32477975D01*
X106111798Y-38119217D02*
X106025118Y-38074078D01*
X240458013Y-97186203D02*
X240458013Y-97186203D01*
X240065919Y-96697572D02*
X240084216Y-96743097D01*
X252000697Y-33012285D02*
X251929461Y-32947918D01*
X75448971Y-96991496D02*
X75479483Y-96953399D01*
X33773429Y-97907424D02*
X33864984Y-97941302D01*
X240333597Y-117217303D02*
X240394349Y-117141396D01*
X240755963Y-116361639D02*
X240774563Y-116267365D01*
X240503893Y-116981959D02*
X240552576Y-116898767D01*
X169854784Y-58316622D02*
X169776558Y-58506696D01*
X55205889Y-98620665D02*
X55296418Y-98584281D01*
X239801843Y-117661733D02*
X239888834Y-117608739D01*
X75534728Y-96873017D02*
X75559359Y-96830878D01*
X185301049Y-143300863D02*
X185352282Y-143385314D01*
X75346475Y-97096532D02*
X75382416Y-97063135D01*
X240629723Y-115113666D02*
X240585317Y-115020783D01*
X41709613Y-36342887D02*
X41684755Y-36437585D01*
X252447305Y-33639982D02*
X252404771Y-33551578D01*
X209927896Y-37966349D02*
X209832636Y-37999600D01*
X259556993Y-97914412D02*
X259616196Y-97992676D01*
X283075017Y-96670835D02*
X283103198Y-96576868D01*
X37165761Y-56675935D02*
X37145528Y-56771959D01*
X75362476Y-117227666D02*
X75427629Y-117300286D01*
X84186305Y-33742478D02*
X84149414Y-33773257D01*
X250785228Y-32469184D02*
X250685329Y-32463729D01*
X33758211Y-74154307D02*
X33716762Y-74178889D01*
X75308824Y-97128215D02*
X75346475Y-97096532D01*
X231606541Y-33840075D02*
X231572663Y-33805796D01*
X188529052Y-51188061D02*
X188540701Y-51236277D01*
X107003325Y-39130621D02*
X106964823Y-39040365D01*
X282439489Y-74992142D02*
X282439489Y-74992142D01*
X185664257Y-143761379D02*
X185736869Y-143826546D01*
X282302232Y-74520028D02*
X282276708Y-74479020D01*
X54435644Y-98746079D02*
X54534847Y-98747087D01*
X169659002Y-58905276D02*
X167843313Y-67115948D01*
X283173297Y-96082316D02*
X283172308Y-95979371D01*
X146027555Y-58905297D02*
X145975427Y-58703107D01*
X75620686Y-96697548D02*
X75636772Y-96651043D01*
X250380209Y-32477975D02*
X250380209Y-32477975D01*
X74866192Y-97330738D02*
X74913927Y-97320680D01*
X189200241Y-50025525D02*
X189153614Y-50041811D01*
X83842674Y-34267115D02*
X83830701Y-34317178D01*
X208813924Y-38862461D02*
X208767524Y-38946514D01*
X127091206Y-50565459D02*
X127069755Y-50520973D01*
X42196341Y-35504446D02*
X42129287Y-35576987D01*
X259289098Y-97395466D02*
X259322983Y-97487026D01*
X251531720Y-32680722D02*
X251444839Y-32638977D01*
X250883990Y-32479558D02*
X250785228Y-32469184D01*
X240036008Y-96603649D02*
X240049833Y-96651064D01*
X145265938Y-57479077D02*
X145121281Y-57337737D01*
X127145910Y-51236250D02*
X127157558Y-51188034D01*
X37677331Y-55742818D02*
X37610280Y-55815357D01*
X281346160Y-98041732D02*
X281447393Y-98030465D01*
X38984246Y-55140271D02*
X38886210Y-55148975D01*
X33287475Y-74743538D02*
X33274631Y-74791496D01*
X240673608Y-116637327D02*
X240705431Y-116546789D01*
X145831782Y-58316643D02*
X145741252Y-58133401D01*
X37979177Y-55487993D02*
X37899465Y-55545726D01*
X188559390Y-50656882D02*
X188544839Y-50703618D01*
X144804429Y-57085361D02*
X144633222Y-56975358D01*
X273620215Y-35652558D02*
X273557057Y-35577078D01*
X283005464Y-96852784D02*
X283042399Y-96762850D01*
X240084216Y-96743097D02*
X240104675Y-96787568D01*
X63491367Y-33225284D02*
X63433362Y-33302544D01*
X84113993Y-33805809D02*
X84080116Y-33840087D01*
X63167047Y-33824220D02*
X63137588Y-33919831D01*
X34148902Y-98015781D02*
X34246088Y-98031311D01*
X75662107Y-96555382D02*
X75966322Y-95124176D01*
X38504072Y-55230848D02*
X38411871Y-55262770D01*
X127166767Y-51139512D02*
X127173548Y-51090773D01*
X282384174Y-74696550D02*
X282366841Y-74650667D01*
X276603513Y-55136366D02*
X276504308Y-55137377D01*
X230970126Y-33529090D02*
X230920908Y-33525775D01*
X129939241Y-143836241D02*
X130012390Y-143771591D01*
X189247823Y-50011504D02*
X189247823Y-50011504D01*
X38597773Y-55203445D02*
X38504072Y-55230848D01*
X75581930Y-96787538D02*
X75602389Y-96743071D01*
X105560796Y-37913728D02*
X105560796Y-37913728D01*
X278253632Y-56050020D02*
X278198471Y-55969138D01*
X55940363Y-98140594D02*
X56007408Y-98068055D01*
X127171439Y-50846897D02*
X127163895Y-50798701D01*
X171612200Y-56716277D02*
X171418885Y-56790297D01*
X240024496Y-96555397D02*
X240036008Y-96603649D01*
X230720517Y-33537512D02*
X230669912Y-33546938D01*
X260955343Y-98734534D02*
X261053383Y-98743236D01*
X276504308Y-55137377D02*
X274695547Y-55200585D01*
X126578608Y-50060283D02*
X126533009Y-50041785D01*
X54924972Y-98702828D02*
X55020000Y-98680000D01*
X188507175Y-50944158D02*
X188506740Y-50993021D01*
X170882163Y-57085352D02*
X170719309Y-57206315D01*
X107119537Y-40188331D02*
X107132847Y-40090458D01*
X282347363Y-74605912D02*
X282325805Y-74562345D01*
X259067602Y-93530003D02*
X259067602Y-93530003D01*
X185253851Y-143213601D02*
X185301049Y-143300863D01*
X128894093Y-144291108D02*
X128989272Y-144277040D01*
X282422654Y-74840361D02*
X282412145Y-74791458D01*
X37748197Y-55673382D02*
X37677331Y-55742818D01*
X74671793Y-97347414D02*
X74720738Y-97346810D01*
X32607741Y-96657404D02*
X32639671Y-96749599D01*
X209171563Y-38412574D02*
X209103006Y-38480330D01*
X240049833Y-96651064D02*
X240065919Y-96697572D01*
X33267793Y-97614264D02*
X33346057Y-97673457D01*
X172965673Y-119096680D02*
X185253851Y-143213601D01*
X75975309Y-117710778D02*
X75975309Y-117710778D01*
X252404771Y-33551578D02*
X252358160Y-33465797D01*
X283145762Y-96383602D02*
X283159903Y-96284561D01*
X127154005Y-50750904D02*
X127141779Y-50703593D01*
X278573034Y-57066399D02*
X278567117Y-56967365D01*
X231252305Y-33597750D02*
X231207211Y-33580742D01*
X208561038Y-39587979D02*
X208549603Y-39685414D01*
X127127230Y-50656857D02*
X127110368Y-50610783D01*
X239711324Y-117710778D02*
X239801843Y-117661733D01*
X37899465Y-55545726D02*
X37822416Y-55607543D01*
X56282836Y-97664460D02*
X56325449Y-97576691D01*
X130330739Y-143391564D02*
X130383746Y-143304587D01*
X74524801Y-97334739D02*
X74573737Y-97341395D01*
X282425383Y-97609061D02*
X282498815Y-97547088D01*
X274695547Y-55200585D02*
X274695547Y-55200585D01*
X83936503Y-34035663D02*
X83913456Y-34079277D01*
X84149414Y-33773257D02*
X84113993Y-33805809D01*
X84347076Y-33638069D02*
X84305051Y-33661269D01*
X240803041Y-115979777D02*
X240803244Y-115882889D01*
X145910005Y-58506717D02*
X145831782Y-58316643D01*
X230821268Y-33526547D02*
X230770994Y-33530731D01*
X283172308Y-95979371D02*
X283172308Y-95979371D01*
X185352282Y-143385314D02*
X185407416Y-143466840D01*
X75053655Y-97276637D02*
X75098783Y-97257386D01*
X37547117Y-55890838D02*
X37487915Y-55969101D01*
X231207211Y-33580742D02*
X231161243Y-33565896D01*
X64705143Y-32494749D02*
X64609077Y-32514634D01*
X41811196Y-36068372D02*
X41772907Y-36158118D01*
X84080116Y-33840087D02*
X84047857Y-33876042D01*
X37748197Y-55673382D02*
X37748197Y-55673382D01*
X130273952Y-143474957D02*
X130330739Y-143391564D01*
X259182394Y-96817101D02*
X259182394Y-96817101D01*
X65306402Y-32477975D02*
X65203933Y-32468017D01*
X56619009Y-93530003D02*
X56619009Y-93530003D01*
X259234834Y-97207557D02*
X259259691Y-97302256D01*
X128120316Y-144234460D02*
X128216661Y-144258503D01*
X209499166Y-44585329D02*
X189247823Y-50011504D01*
X240788646Y-116172184D02*
X240798157Y-116076265D01*
X282010113Y-74205373D02*
X281969962Y-74178879D01*
X273419149Y-35435104D02*
X273419149Y-35435104D01*
X128701693Y-144305475D02*
X128798177Y-144300605D01*
X106964823Y-39040365D02*
X106921804Y-38951849D01*
X33437447Y-74439411D02*
X33410042Y-74479050D01*
X251929461Y-32947918D02*
X251855268Y-32887047D01*
X208864257Y-38780752D02*
X208813924Y-38862461D01*
X282760288Y-97266685D02*
X282816987Y-97189107D01*
X252358160Y-33465797D02*
X252307610Y-33382746D01*
X240052009Y-117491579D02*
X240128083Y-117427751D01*
X282412145Y-74791458D02*
X282399297Y-74743501D01*
X209478363Y-38175416D02*
X209396971Y-38229327D01*
X32864927Y-97182254D02*
X32922664Y-97261958D01*
X250981474Y-32494741D02*
X250883990Y-32479558D01*
X38789008Y-55162447D02*
X38692807Y-55180624D01*
X231773200Y-34079271D02*
X231750154Y-34035656D01*
X130012390Y-143771591D02*
X130082604Y-143703083D01*
X33247305Y-74992180D02*
X33247305Y-74992180D01*
X276993646Y-55180616D02*
X276897448Y-55162433D01*
X130213554Y-143554711D02*
X130273952Y-143474957D01*
X240340130Y-97096580D02*
X240377782Y-97128265D01*
X33247305Y-74992180D02*
X32514234Y-95979348D01*
X56472097Y-97111483D02*
X56487630Y-97014298D01*
X251778257Y-32829783D02*
X251698569Y-32776235D01*
X130082604Y-143703083D02*
X130149716Y-143630771D01*
X75722110Y-117557170D02*
X75803622Y-117612317D01*
X129784817Y-143953746D02*
X129863327Y-143896978D01*
X34179064Y-74029259D02*
X34128832Y-74033876D01*
X188788590Y-50281419D02*
X188755391Y-50317388D01*
X38321335Y-55299149D02*
X38232632Y-55339923D01*
X36518552Y-74105774D02*
X34281416Y-74027649D01*
X186608726Y-144259788D02*
X186705361Y-144278445D01*
X281607395Y-74040969D02*
X281557878Y-74033895D01*
X259322983Y-97487026D02*
X259361272Y-97576773D01*
X75650596Y-96603631D02*
X75662107Y-96555382D01*
X34229947Y-74027163D02*
X34179064Y-74029259D01*
X273976673Y-36342932D02*
X273947269Y-36249729D01*
X277938207Y-55673415D02*
X277863993Y-55607574D01*
X188937278Y-50155333D02*
X188897863Y-50184078D01*
X281243398Y-98047928D02*
X281346160Y-98041732D01*
X74981168Y-116546807D02*
X74981168Y-116546807D01*
X127742773Y-144087632D02*
X127742773Y-144087632D01*
X32761951Y-97015521D02*
X32811335Y-97100053D01*
X63685927Y-33012296D02*
X63617790Y-33080051D01*
X241210607Y-97325676D02*
X259067602Y-93530003D01*
X259450767Y-97750186D02*
X259501826Y-97833528D01*
X231572663Y-33805796D02*
X231537241Y-33773243D01*
X40991056Y-55200585D02*
X40991056Y-55200585D01*
X273188198Y-35249712D02*
X273105998Y-35196124D01*
X33050329Y-97413208D02*
X33050329Y-97413208D01*
X63757163Y-32947929D02*
X63685927Y-33012296D01*
X126863168Y-50247149D02*
X126826720Y-50214684D01*
X231855947Y-34317179D02*
X231855947Y-34317179D01*
X74896916Y-116162005D02*
X74910746Y-116259149D01*
X33595916Y-97826532D02*
X33683686Y-97869143D01*
X33600478Y-74263886D02*
X33564621Y-74295766D01*
X278520592Y-56675966D02*
X278495738Y-56581272D01*
X240268932Y-117290444D02*
X240333597Y-117217303D01*
X282348967Y-97667524D02*
X282425383Y-97609061D01*
X188640600Y-50477438D02*
X188640600Y-50477438D01*
X64901388Y-32469190D02*
X64802627Y-32479564D01*
X277453800Y-55339938D02*
X277365101Y-55299160D01*
X188723922Y-50355029D02*
X188694254Y-50394287D01*
X188978071Y-50128530D02*
X188937278Y-50155333D01*
X282048899Y-74233723D02*
X282010113Y-74205373D01*
X84224591Y-33713522D02*
X84186305Y-33742478D01*
X186512780Y-144236303D02*
X186608726Y-144259788D01*
X34128832Y-74033876D02*
X34079317Y-74040953D01*
X240789383Y-115688589D02*
X240775210Y-115591515D01*
X240725487Y-97308357D02*
X240772703Y-97320736D01*
X185466316Y-143545324D02*
X185528846Y-143620652D01*
X107126964Y-39601882D02*
X107111527Y-39505547D01*
X43701223Y-34899060D02*
X43602012Y-34898039D01*
X75228597Y-97186150D02*
X75228597Y-97186150D01*
X251444839Y-32638977D02*
X251355841Y-32601386D01*
X41772907Y-36158118D02*
X41739021Y-36249677D01*
X56451868Y-97207502D02*
X56472097Y-97111483D01*
X231638799Y-33876030D02*
X231606541Y-33840075D01*
X84479435Y-33580758D02*
X84434342Y-33597765D01*
X74899463Y-115674807D02*
X74889440Y-115771854D01*
X56427015Y-97302194D02*
X56451868Y-97207502D01*
X281546976Y-98014259D02*
X281644787Y-97993241D01*
X277274570Y-55262777D02*
X277182373Y-55230850D01*
X272378439Y-34924124D02*
X272281243Y-34910644D01*
X261053383Y-98743236D02*
X261152092Y-98747107D01*
X281926382Y-97902627D02*
X282015896Y-97863667D01*
X185812572Y-143888096D02*
X185891231Y-143945914D01*
X130149716Y-143630771D02*
X130213554Y-143554711D01*
X231339574Y-33638053D02*
X231296451Y-33616869D01*
X231462062Y-33713507D02*
X231422454Y-33686421D01*
X171232445Y-56876827D02*
X171053373Y-56975351D01*
X210025639Y-37937676D02*
X209927896Y-37966349D01*
X251077542Y-32514625D02*
X250981474Y-32494741D01*
X33800896Y-74131701D02*
X33758211Y-74154307D01*
X126486383Y-50025498D02*
X126438802Y-50011477D01*
X41684755Y-36437585D02*
X41664522Y-36533611D01*
X34030582Y-74050431D02*
X33982693Y-74062248D01*
X32557500Y-96468681D02*
X32580330Y-96563709D01*
X33319924Y-74650703D02*
X33302595Y-74696587D01*
X188508700Y-51041931D02*
X188513064Y-51090800D01*
X106187437Y-44585329D02*
X106187437Y-44585329D01*
X75228597Y-97186150D02*
X75269515Y-97158112D01*
X84619657Y-33542895D02*
X84572167Y-33553274D01*
X33346057Y-97673457D02*
X33426940Y-97728616D01*
X75427629Y-117300286D02*
X75496284Y-117369682D01*
X64330780Y-32601396D02*
X64241783Y-32638988D01*
X188509990Y-50895429D02*
X188507175Y-50944158D01*
X42498198Y-35249619D02*
X42418483Y-35307352D01*
X41632307Y-36828038D02*
X41632307Y-36828038D01*
X55638547Y-98395424D02*
X55718251Y-98337689D01*
X282015896Y-97863667D02*
X282103032Y-97820548D01*
X54633548Y-98743204D02*
X54731579Y-98734492D01*
X144074401Y-56716275D02*
X143874708Y-56655278D01*
X55718251Y-98337689D02*
X55795293Y-98275870D01*
X127835645Y-144132047D02*
X127929639Y-144171287D01*
X107091413Y-39410079D02*
X107066653Y-39315652D01*
X75098783Y-97257386D02*
X75143040Y-97235877D01*
X55869505Y-98210030D02*
X55869505Y-98210030D01*
X282220071Y-74401175D02*
X282189087Y-74364459D01*
X273344940Y-35369264D02*
X273267901Y-35307446D01*
X54731579Y-98734492D02*
X54828776Y-98721012D01*
X144633222Y-56975358D02*
X144454152Y-56876831D01*
X107101324Y-40285851D02*
X107101324Y-40285851D01*
X282498815Y-97547088D02*
X282569143Y-97481734D01*
X56070564Y-97992573D02*
X56129758Y-97914312D01*
X74476041Y-97325631D02*
X74524801Y-97334739D01*
X105936181Y-38033161D02*
X105845134Y-37996567D01*
X187095252Y-144305086D02*
X187192678Y-144299818D01*
X32984486Y-97338998D02*
X33050329Y-97413208D01*
X127046026Y-50477414D02*
X127046026Y-50477414D01*
X185407416Y-143466840D02*
X185466316Y-143545324D01*
X74952859Y-116451727D02*
X74981168Y-116546807D01*
X231669364Y-33913615D02*
X231638799Y-33876030D01*
X75093281Y-116820918D02*
X75139194Y-116907637D01*
X278076116Y-55815392D02*
X278009069Y-55742852D01*
X33466672Y-74401202D02*
X33437447Y-74439411D01*
X274021758Y-36533641D02*
X274001527Y-36437623D01*
X252774862Y-35569906D02*
X252609029Y-34219329D01*
X38692807Y-55180624D02*
X38597773Y-55203445D01*
X259259691Y-97302256D02*
X259289098Y-97395466D01*
X33250399Y-74940802D02*
X33247305Y-74992180D01*
X63137588Y-33919831D02*
X63112766Y-34017625D01*
X37113309Y-57066378D02*
X36518552Y-74105774D01*
X188897863Y-50184078D02*
X188859896Y-50214709D01*
X127179439Y-50944132D02*
X127176624Y-50895403D01*
X278139274Y-55890875D02*
X278076116Y-55815392D01*
X187670679Y-144202607D02*
X187763215Y-144169087D01*
X231855947Y-34317179D02*
X231843977Y-34267114D01*
X106643107Y-38544978D02*
X106576314Y-38473096D01*
X75636772Y-96651043D02*
X75650596Y-96603631D01*
X240772703Y-97320736D02*
X240820440Y-97330793D01*
X250482679Y-32468015D02*
X250380209Y-32477975D01*
X231296451Y-33616869D02*
X231252305Y-33597750D01*
X281928511Y-74154299D02*
X281885824Y-74131696D01*
X273913388Y-36158177D02*
X273875105Y-36068436D01*
X56363732Y-97486950D02*
X56397611Y-97395397D01*
X43503304Y-34901910D02*
X43405264Y-34910611D01*
X128024586Y-144205407D02*
X128120316Y-144234460D01*
X145638908Y-57957507D02*
X145525246Y-57789478D01*
X107101324Y-40285851D02*
X107119537Y-40188331D01*
X126438802Y-50011477D02*
X106187437Y-44585329D01*
X63617790Y-33080051D02*
X63552889Y-33151083D01*
X209739956Y-38037282D02*
X209649953Y-38079244D01*
X145121281Y-57337737D02*
X144967280Y-57206327D01*
X283172308Y-95979371D02*
X282439489Y-74992142D01*
X74981168Y-116546807D02*
X75014153Y-116640367D01*
X188640600Y-50477438D02*
X188616870Y-50520998D01*
X75058422Y-115110271D02*
X75020234Y-115201363D01*
X41951750Y-35811618D02*
X41900691Y-35894960D01*
X144454152Y-56876831D02*
X144267714Y-56790298D01*
X239711324Y-117710778D02*
X239711324Y-117710778D01*
X142720945Y-119096680D02*
X157843305Y-119096680D01*
X75143040Y-97235877D02*
X75186341Y-97212126D01*
X278573034Y-57066399D02*
X278573034Y-57066399D01*
X230920908Y-33525775D02*
X230871264Y-33524911D01*
X128216661Y-144258503D02*
X128313452Y-144277590D01*
X260573190Y-98652668D02*
X260666895Y-98680069D01*
X129535397Y-144099693D02*
X129620683Y-144055159D01*
X252609029Y-34219329D02*
X252609029Y-34219329D01*
X240774563Y-116267365D02*
X240788646Y-116172184D01*
X37113309Y-57066378D02*
X37113309Y-57066378D01*
X74889440Y-115771854D02*
X74884160Y-115869274D01*
X129359234Y-144176145D02*
X129448191Y-144140040D01*
X252307610Y-33382746D02*
X252253263Y-33302535D01*
X85016721Y-33546943D02*
X85016721Y-33546943D01*
X259403892Y-97664547D02*
X259450767Y-97750186D01*
X42129287Y-35576987D02*
X42066121Y-35652470D01*
X126911642Y-52110541D02*
X126911642Y-52110541D01*
X157843305Y-106115944D02*
X157843305Y-106115944D01*
X33384522Y-74520060D02*
X33360952Y-74562379D01*
X282636245Y-97413128D02*
X282700001Y-97341402D01*
X272084513Y-34898049D02*
X271985311Y-34899058D01*
X34052882Y-97995555D02*
X34148902Y-98015781D01*
D11*
X164662571Y-107763571D02*
X164662571Y-108835000D01*
X164734000Y-109049285D01*
X164876857Y-109192142D01*
X165091142Y-109263571D01*
X165234000Y-109263571D01*
X163234000Y-109263571D02*
X163948285Y-109263571D01*
X163948285Y-107763571D01*
X161876857Y-109120714D02*
X161948285Y-109192142D01*
X162162571Y-109263571D01*
X162305428Y-109263571D01*
X162519714Y-109192142D01*
X162662571Y-109049285D01*
X162734000Y-108906428D01*
X162805428Y-108620714D01*
X162805428Y-108406428D01*
X162734000Y-108120714D01*
X162662571Y-107977857D01*
X162519714Y-107835000D01*
X162305428Y-107763571D01*
X162162571Y-107763571D01*
X161948285Y-107835000D01*
X161876857Y-107906428D01*
X160805428Y-107763571D02*
X160805428Y-108835000D01*
X160876857Y-109049285D01*
X161019714Y-109192142D01*
X161234000Y-109263571D01*
X161376857Y-109263571D01*
X159376857Y-109263571D02*
X160091142Y-109263571D01*
X160091142Y-107763571D01*
X158019714Y-109120714D02*
X158091142Y-109192142D01*
X158305428Y-109263571D01*
X158448285Y-109263571D01*
X158662571Y-109192142D01*
X158805428Y-109049285D01*
X158876857Y-108906428D01*
X158948285Y-108620714D01*
X158948285Y-108406428D01*
X158876857Y-108120714D01*
X158805428Y-107977857D01*
X158662571Y-107835000D01*
X158448285Y-107763571D01*
X158305428Y-107763571D01*
X158091142Y-107835000D01*
X158019714Y-107906428D01*
X156948285Y-107763571D02*
X156948285Y-108835000D01*
X157019714Y-109049285D01*
X157162571Y-109192142D01*
X157376857Y-109263571D01*
X157519714Y-109263571D01*
X155519714Y-109263571D02*
X156234000Y-109263571D01*
X156234000Y-107763571D01*
X154162571Y-109120714D02*
X154234000Y-109192142D01*
X154448285Y-109263571D01*
X154591142Y-109263571D01*
X154805428Y-109192142D01*
X154948285Y-109049285D01*
X155019714Y-108906428D01*
X155091142Y-108620714D01*
X155091142Y-108406428D01*
X155019714Y-108120714D01*
X154948285Y-107977857D01*
X154805428Y-107835000D01*
X154591142Y-107763571D01*
X154448285Y-107763571D01*
X154234000Y-107835000D01*
X154162571Y-107906428D01*
X153091142Y-107763571D02*
X153091142Y-108835000D01*
X153162571Y-109049285D01*
X153305428Y-109192142D01*
X153519714Y-109263571D01*
X153662571Y-109263571D01*
X151662571Y-109263571D02*
X152376857Y-109263571D01*
X152376857Y-107763571D01*
X150305428Y-109120714D02*
X150376857Y-109192142D01*
X150591142Y-109263571D01*
X150734000Y-109263571D01*
X150948285Y-109192142D01*
X151091142Y-109049285D01*
X151162571Y-108906428D01*
X151234000Y-108620714D01*
X151234000Y-108406428D01*
X151162571Y-108120714D01*
X151091142Y-107977857D01*
X150948285Y-107835000D01*
X150734000Y-107763571D01*
X150591142Y-107763571D01*
X150376857Y-107835000D01*
X150305428Y-107906428D01*
X164595142Y-114867571D02*
X164595142Y-115867571D01*
X164595142Y-115010428D02*
X164523714Y-114939000D01*
X164380857Y-114867571D01*
X164166571Y-114867571D01*
X164023714Y-114939000D01*
X163952285Y-115081857D01*
X163952285Y-115867571D01*
X163023714Y-115867571D02*
X163166571Y-115796142D01*
X163238000Y-115724714D01*
X163309428Y-115581857D01*
X163309428Y-115153285D01*
X163238000Y-115010428D01*
X163166571Y-114939000D01*
X163023714Y-114867571D01*
X162809428Y-114867571D01*
X162666571Y-114939000D01*
X162595142Y-115010428D01*
X162523714Y-115153285D01*
X162523714Y-115581857D01*
X162595142Y-115724714D01*
X162666571Y-115796142D01*
X162809428Y-115867571D01*
X163023714Y-115867571D01*
X162023714Y-114867571D02*
X161738000Y-115867571D01*
X161452285Y-115153285D01*
X161166571Y-115867571D01*
X160880857Y-114867571D01*
X160523714Y-114867571D02*
X159952285Y-114867571D01*
X160309428Y-114367571D02*
X160309428Y-115653285D01*
X160238000Y-115796142D01*
X160095142Y-115867571D01*
X159952285Y-115867571D01*
X159595142Y-114367571D02*
X158666571Y-114367571D01*
X159166571Y-114939000D01*
X158952285Y-114939000D01*
X158809428Y-115010428D01*
X158738000Y-115081857D01*
X158666571Y-115224714D01*
X158666571Y-115581857D01*
X158738000Y-115724714D01*
X158809428Y-115796142D01*
X158952285Y-115867571D01*
X159380857Y-115867571D01*
X159523714Y-115796142D01*
X159595142Y-115724714D01*
X157380857Y-114367571D02*
X157666571Y-114367571D01*
X157809428Y-114439000D01*
X157880857Y-114510428D01*
X158023714Y-114724714D01*
X158095142Y-115010428D01*
X158095142Y-115581857D01*
X158023714Y-115724714D01*
X157952285Y-115796142D01*
X157809428Y-115867571D01*
X157523714Y-115867571D01*
X157380857Y-115796142D01*
X157309428Y-115724714D01*
X157238000Y-115581857D01*
X157238000Y-115224714D01*
X157309428Y-115081857D01*
X157380857Y-115010428D01*
X157523714Y-114939000D01*
X157809428Y-114939000D01*
X157952285Y-115010428D01*
X158023714Y-115081857D01*
X158095142Y-115224714D01*
X155452285Y-115867571D02*
X155452285Y-114867571D01*
X155452285Y-115153285D02*
X155380857Y-115010428D01*
X155309428Y-114939000D01*
X155166571Y-114867571D01*
X155023714Y-114867571D01*
X153952285Y-115796142D02*
X154095142Y-115867571D01*
X154380857Y-115867571D01*
X154523714Y-115796142D01*
X154595142Y-115653285D01*
X154595142Y-115081857D01*
X154523714Y-114939000D01*
X154380857Y-114867571D01*
X154095142Y-114867571D01*
X153952285Y-114939000D01*
X153880857Y-115081857D01*
X153880857Y-115224714D01*
X154595142Y-115367571D01*
X153380857Y-114867571D02*
X153023714Y-115867571D01*
X152666571Y-114867571D01*
X151309428Y-115867571D02*
X152166571Y-115867571D01*
X151738000Y-115867571D02*
X151738000Y-114367571D01*
X151880857Y-114581857D01*
X152023714Y-114724714D01*
X152166571Y-114796142D01*
D12*
%TO.C,SW5*%
X122389186Y-70608747D02*
X135912147Y-74232214D01*
X139535614Y-60709253D02*
X126012653Y-57085786D01*
X135912147Y-74232214D02*
X139535614Y-60709253D01*
X126012653Y-57085786D02*
X122389186Y-70608747D01*
%TO.C,SW4*%
X117674947Y-67374214D02*
X121298414Y-53851253D01*
X121298414Y-53851253D02*
X107775453Y-50227786D01*
X104151986Y-63750747D02*
X117674947Y-67374214D01*
X107775453Y-50227786D02*
X104151986Y-63750747D01*
%TO.C,SW22*%
X60826149Y-75034985D02*
X57915385Y-88729051D01*
X71609451Y-91639815D02*
X74520215Y-77945749D01*
X74520215Y-77945749D02*
X60826149Y-75034985D01*
X57915385Y-88729051D02*
X71609451Y-91639815D01*
%TO.C,SW29*%
X241125585Y-77920349D02*
X244036349Y-91614415D01*
X254819651Y-75009585D02*
X241125585Y-77920349D01*
X244036349Y-91614415D02*
X257730415Y-88703651D01*
X257730415Y-88703651D02*
X254819651Y-75009585D01*
%TO.C,SW26*%
X198396147Y-94195186D02*
X184873186Y-97818653D01*
X184873186Y-97818653D02*
X188496653Y-111341614D01*
X202019614Y-107718147D02*
X198396147Y-94195186D01*
X188496653Y-111341614D02*
X202019614Y-107718147D01*
%TO.C,SW15*%
X131543347Y-92774214D02*
X135166814Y-79251253D01*
X121643853Y-75627786D02*
X118020386Y-89150747D01*
X118020386Y-89150747D02*
X131543347Y-92774214D01*
X135166814Y-79251253D02*
X121643853Y-75627786D01*
%TO.C,SW34*%
X188329888Y-138319979D02*
X200803979Y-131964112D01*
X194448112Y-119490021D02*
X181974021Y-125845888D01*
X200803979Y-131964112D02*
X194448112Y-119490021D01*
X181974021Y-125845888D02*
X188329888Y-138319979D01*
%TO.C,SW25*%
X117275053Y-94169786D02*
X113651586Y-107692747D01*
X113651586Y-107692747D02*
X127174547Y-111316214D01*
X130798014Y-97793253D02*
X117275053Y-94169786D01*
X127174547Y-111316214D02*
X130798014Y-97793253D01*
%TO.C,SW36*%
X215933821Y-108523088D02*
X222289688Y-120997179D01*
X222289688Y-120997179D02*
X234763779Y-114641312D01*
X228407912Y-102167221D02*
X215933821Y-108523088D01*
X234763779Y-114641312D02*
X228407912Y-102167221D01*
%TO.C,SW11*%
X55957232Y-60736361D02*
X41965761Y-60247768D01*
X41965761Y-60247768D02*
X41477168Y-74239239D01*
X55468639Y-74727832D02*
X55957232Y-60736361D01*
X41477168Y-74239239D02*
X55468639Y-74727832D01*
%TO.C,SW12*%
X78482615Y-59302149D02*
X64788549Y-56391385D01*
X64788549Y-56391385D02*
X61877785Y-70085451D01*
X75571851Y-72996215D02*
X78482615Y-59302149D01*
X61877785Y-70085451D02*
X75571851Y-72996215D01*
%TO.C,SW13*%
X97634215Y-60851549D02*
X83940149Y-57940785D01*
X81029385Y-71634851D02*
X94723451Y-74545615D01*
X83940149Y-57940785D02*
X81029385Y-71634851D01*
X94723451Y-74545615D02*
X97634215Y-60851549D01*
%TO.C,SW6*%
X179759053Y-74232214D02*
X193282014Y-70608747D01*
X176135586Y-60709253D02*
X179759053Y-74232214D01*
X193282014Y-70608747D02*
X189658547Y-57085786D01*
X189658547Y-57085786D02*
X176135586Y-60709253D01*
%TO.C,SW20*%
X260177161Y-74702432D02*
X274168632Y-74213839D01*
X259688568Y-60710961D02*
X260177161Y-74702432D01*
X273680039Y-60222368D02*
X259688568Y-60710961D01*
X274168632Y-74213839D02*
X273680039Y-60222368D01*
%TO.C,SW35*%
X217771179Y-123302712D02*
X211415312Y-110828621D01*
X211415312Y-110828621D02*
X198941221Y-117184488D01*
X198941221Y-117184488D02*
X205297088Y-129658579D01*
X205297088Y-129658579D02*
X217771179Y-123302712D01*
%TO.C,SW27*%
X202809886Y-91013153D02*
X206433353Y-104536114D01*
X216332847Y-87389686D02*
X202809886Y-91013153D01*
X219956314Y-100912647D02*
X216332847Y-87389686D01*
X206433353Y-104536114D02*
X219956314Y-100912647D01*
%TO.C,SW23*%
X79952349Y-76584385D02*
X77041585Y-90278451D01*
X90735651Y-93189215D02*
X93646415Y-79495149D01*
X77041585Y-90278451D02*
X90735651Y-93189215D01*
X93646415Y-79495149D02*
X79952349Y-76584385D01*
%TO.C,SW1*%
X60503832Y-40492561D02*
X46512361Y-40003968D01*
X60015239Y-54484032D02*
X60503832Y-40492561D01*
X46512361Y-40003968D02*
X46023768Y-53995439D01*
X46023768Y-53995439D02*
X60015239Y-54484032D01*
%TO.C,SW8*%
X217010749Y-55927415D02*
X230704815Y-53016651D01*
X230704815Y-53016651D02*
X227794051Y-39322585D01*
X214099985Y-42233349D02*
X217010749Y-55927415D01*
X227794051Y-39322585D02*
X214099985Y-42233349D01*
%TO.C,SW24*%
X95769986Y-100936347D02*
X109292947Y-104559814D01*
X109292947Y-104559814D02*
X112916414Y-91036853D01*
X99393453Y-87413386D02*
X95769986Y-100936347D01*
X112916414Y-91036853D02*
X99393453Y-87413386D01*
%TO.C,SW2*%
X65960692Y-51738538D02*
X79856338Y-53444708D01*
X81562508Y-39549062D02*
X67666862Y-37842892D01*
X67666862Y-37842892D02*
X65960692Y-51738538D01*
X79856338Y-53444708D02*
X81562508Y-39549062D01*
%TO.C,SW3*%
X101596615Y-42207949D02*
X87902549Y-39297185D01*
X87902549Y-39297185D02*
X84991785Y-52991251D01*
X84991785Y-52991251D02*
X98685851Y-55902015D01*
X98685851Y-55902015D02*
X101596615Y-42207949D01*
%TO.C,SW9*%
X248004338Y-37817492D02*
X234108692Y-39523662D01*
X249710508Y-51713138D02*
X248004338Y-37817492D01*
X234108692Y-39523662D02*
X235814862Y-53419308D01*
X235814862Y-53419308D02*
X249710508Y-51713138D01*
%TO.C,SW19*%
X253793415Y-70060051D02*
X250882651Y-56365985D01*
X240099349Y-72970815D02*
X253793415Y-70060051D01*
X237188585Y-59276749D02*
X240099349Y-72970815D01*
X250882651Y-56365985D02*
X237188585Y-59276749D01*
%TO.C,SW30*%
X277566239Y-79196168D02*
X263574768Y-79684761D01*
X264063361Y-93676232D02*
X278054832Y-93187639D01*
X278054832Y-93187639D02*
X277566239Y-79196168D01*
X263574768Y-79684761D02*
X264063361Y-93676232D01*
%TO.C,SW18*%
X234641815Y-71634851D02*
X231731051Y-57940785D01*
X218036985Y-60851549D02*
X220947749Y-74545615D01*
X231731051Y-57940785D02*
X218036985Y-60851549D01*
X220947749Y-74545615D02*
X234641815Y-71634851D01*
%TO.C,SW31*%
X87263288Y-102192621D02*
X80907421Y-114666712D01*
X99737379Y-108548488D02*
X87263288Y-102192621D01*
X80907421Y-114666712D02*
X93381512Y-121022579D01*
X93381512Y-121022579D02*
X99737379Y-108548488D01*
%TO.C,SW21*%
X52121832Y-79684761D02*
X38130361Y-79196168D01*
X37641768Y-93187639D02*
X51633239Y-93676232D01*
X38130361Y-79196168D02*
X37641768Y-93187639D01*
X51633239Y-93676232D02*
X52121832Y-79684761D01*
%TO.C,SW10*%
X255655961Y-54484032D02*
X269647432Y-53995439D01*
X269158839Y-40003968D02*
X255167368Y-40492561D01*
X269647432Y-53995439D02*
X269158839Y-40003968D01*
X255167368Y-40492561D02*
X255655961Y-54484032D01*
%TO.C,SW7*%
X207921147Y-50202386D02*
X194398186Y-53825853D01*
X194398186Y-53825853D02*
X198021653Y-67348814D01*
X198021653Y-67348814D02*
X211544614Y-63725347D01*
X211544614Y-63725347D02*
X207921147Y-50202386D01*
%TO.C,SW32*%
X97900021Y-123302712D02*
X110374112Y-129658579D01*
X116729979Y-117184488D02*
X104255888Y-110828621D01*
X110374112Y-129658579D02*
X116729979Y-117184488D01*
X104255888Y-110828621D02*
X97900021Y-123302712D01*
%TO.C,SW17*%
X202034853Y-86017814D02*
X215557814Y-82394347D01*
X198411386Y-72494853D02*
X202034853Y-86017814D01*
X215557814Y-82394347D02*
X211934347Y-68871386D01*
X211934347Y-68871386D02*
X198411386Y-72494853D01*
%TO.C,SW33*%
X114848221Y-131943812D02*
X127322312Y-138299679D01*
X133678179Y-125825588D02*
X121204088Y-119469721D01*
X127322312Y-138299679D02*
X133678179Y-125825588D01*
X121204088Y-119469721D02*
X114848221Y-131943812D01*
%TO.C,SW28*%
X224935549Y-93189215D02*
X238629615Y-90278451D01*
X222024785Y-79495149D02*
X224935549Y-93189215D01*
X235718851Y-76584385D02*
X222024785Y-79495149D01*
X238629615Y-90278451D02*
X235718851Y-76584385D01*
%TO.C,SW16*%
X197650814Y-89150747D02*
X194027347Y-75627786D01*
X184127853Y-92774214D02*
X197650814Y-89150747D01*
X194027347Y-75627786D02*
X180504386Y-79251253D01*
X180504386Y-79251253D02*
X184127853Y-92774214D01*
%TO.C,SW14*%
X103762253Y-68845986D02*
X100138786Y-82368947D01*
X117285214Y-72469453D02*
X103762253Y-68845986D01*
X113661747Y-85992414D02*
X117285214Y-72469453D01*
X100138786Y-82368947D02*
X113661747Y-85992414D01*
%TD*%
D13*
X196380000Y-70040000D03*
X119280000Y-70030000D03*
X173685200Y-86207600D03*
X183790000Y-120210000D03*
X131870000Y-120190000D03*
X63200000Y-53450000D03*
X252430000Y-53450000D03*
X142011400Y-86156800D03*
X261120000Y-89270000D03*
X54560000Y-89240000D03*
X101200000Y-105470000D03*
X135356600Y-110871000D03*
X214440000Y-105470000D03*
X180314600Y-110947200D03*
%LPC*%
D14*
%TO.C,HOLE6*%
X196380000Y-70040000D03*
%TD*%
%TO.C,HOLE14*%
X119280000Y-70030000D03*
%TD*%
D15*
%TO.C,HOLE5*%
X173685200Y-86207600D03*
%TD*%
D14*
%TO.C,HOLE3*%
X183790000Y-120210000D03*
%TD*%
%TO.C,HOLE10*%
X131870000Y-120190000D03*
%TD*%
%TO.C,HOLE13*%
X63200000Y-53450000D03*
%TD*%
%TO.C,HOLE7*%
X252430000Y-53450000D03*
%TD*%
D15*
%TO.C,HOLE8*%
X142011400Y-86156800D03*
%TD*%
D14*
%TO.C,HOLE1*%
X261120000Y-89270000D03*
%TD*%
%TO.C,HOLE12*%
X54560000Y-89240000D03*
%TD*%
%TO.C,HOLE11*%
X101200000Y-105470000D03*
%TD*%
D15*
%TO.C,HOLE9*%
X135356600Y-110871000D03*
%TD*%
D14*
%TO.C,HOLE2*%
X214440000Y-105470000D03*
%TD*%
D15*
%TO.C,HOLE4*%
X180314600Y-110947200D03*
%TD*%
M02*
