%TF.GenerationSoftware,KiCad,Pcbnew,(6.0.6)*%
%TF.CreationDate,2022-07-10T10:04:06+09:00*%
%TF.ProjectId,nowt_promicro_plate_C,6e6f7774-5f70-4726-9f6d-6963726f5f70,rev?*%
%TF.SameCoordinates,Original*%
%TF.FileFunction,Legend,Top*%
%TF.FilePolarity,Positive*%
%FSLAX46Y46*%
G04 Gerber Fmt 4.6, Leading zero omitted, Abs format (unit mm)*
G04 Created by KiCad (PCBNEW (6.0.6)) date 2022-07-10 10:04:06*
%MOMM*%
%LPD*%
G01*
G04 APERTURE LIST*
%TA.AperFunction,Profile*%
%ADD10C,0.349999*%
%TD*%
%ADD11C,0.350000*%
%ADD12C,1.200000*%
%ADD13C,2.300000*%
G04 APERTURE END LIST*
D10*
X46110529Y-61985703D02*
X46110529Y-61985703D01*
X46110529Y-61985703D02*
X46110529Y-61985703D01*
X46109748Y-62016579D02*
X46110529Y-61985703D01*
X46107431Y-62047049D02*
X46109748Y-62016579D01*
X46103616Y-62077076D02*
X46107431Y-62047049D01*
X46098339Y-62106623D02*
X46103616Y-62077076D01*
X46091639Y-62135651D02*
X46098339Y-62106623D01*
X46083554Y-62164123D02*
X46091639Y-62135651D01*
X46074121Y-62192002D02*
X46083554Y-62164123D01*
X46063378Y-62219249D02*
X46074121Y-62192002D01*
X46051363Y-62245826D02*
X46063378Y-62219249D01*
X46038113Y-62271697D02*
X46051363Y-62245826D01*
X46023665Y-62296823D02*
X46038113Y-62271697D01*
X46008059Y-62321167D02*
X46023665Y-62296823D01*
X45991331Y-62344691D02*
X46008059Y-62321167D01*
X45973519Y-62367357D02*
X45991331Y-62344691D01*
X45954661Y-62389128D02*
X45973519Y-62367357D01*
X45934794Y-62409965D02*
X45954661Y-62389128D01*
X45913956Y-62429832D02*
X45934794Y-62409965D01*
X45892186Y-62448690D02*
X45913956Y-62429832D01*
X45869520Y-62466502D02*
X45892186Y-62448690D01*
X45845996Y-62483231D02*
X45869520Y-62466502D01*
X45821652Y-62498837D02*
X45845996Y-62483231D01*
X45796526Y-62513285D02*
X45821652Y-62498837D01*
X45770655Y-62526535D02*
X45796526Y-62513285D01*
X45744077Y-62538550D02*
X45770655Y-62526535D01*
X45716831Y-62549294D02*
X45744077Y-62538550D01*
X45688952Y-62558727D02*
X45716831Y-62549294D01*
X45660480Y-62566812D02*
X45688952Y-62558727D01*
X45631451Y-62573512D02*
X45660480Y-62566812D01*
X45601905Y-62578788D02*
X45631451Y-62573512D01*
X45571877Y-62582604D02*
X45601905Y-62578788D01*
X45541406Y-62584921D02*
X45571877Y-62582604D01*
X45510530Y-62585702D02*
X45541406Y-62584921D01*
X45510530Y-62585702D02*
X45510530Y-62585702D01*
X45479654Y-62584921D02*
X45510530Y-62585702D01*
X45449184Y-62582604D02*
X45479654Y-62584921D01*
X45419156Y-62578788D02*
X45449184Y-62582604D01*
X45389609Y-62573512D02*
X45419156Y-62578788D01*
X45360581Y-62566812D02*
X45389609Y-62573512D01*
X45332109Y-62558727D02*
X45360581Y-62566812D01*
X45304230Y-62549294D02*
X45332109Y-62558727D01*
X45276983Y-62538550D02*
X45304230Y-62549294D01*
X45250406Y-62526535D02*
X45276983Y-62538550D01*
X45224535Y-62513285D02*
X45250406Y-62526535D01*
X45199409Y-62498837D02*
X45224535Y-62513285D01*
X45175065Y-62483231D02*
X45199409Y-62498837D01*
X45151541Y-62466502D02*
X45175065Y-62483231D01*
X45128875Y-62448690D02*
X45151541Y-62466502D01*
X45107104Y-62429832D02*
X45128875Y-62448690D01*
X45086267Y-62409965D02*
X45107104Y-62429832D01*
X45066400Y-62389128D02*
X45086267Y-62409965D01*
X45047542Y-62367357D02*
X45066400Y-62389128D01*
X45029730Y-62344691D02*
X45047542Y-62367357D01*
X45013002Y-62321167D02*
X45029730Y-62344691D01*
X44997395Y-62296823D02*
X45013002Y-62321167D01*
X44982948Y-62271697D02*
X44997395Y-62296823D01*
X44969698Y-62245826D02*
X44982948Y-62271697D01*
X44957683Y-62219249D02*
X44969698Y-62245826D01*
X44946940Y-62192002D02*
X44957683Y-62219249D01*
X44937507Y-62164123D02*
X44946940Y-62192002D01*
X44929421Y-62135651D02*
X44937507Y-62164123D01*
X44922722Y-62106623D02*
X44929421Y-62135651D01*
X44917445Y-62077076D02*
X44922722Y-62106623D01*
X44913630Y-62047049D02*
X44917445Y-62077076D01*
X44911313Y-62016579D02*
X44913630Y-62047049D01*
X44910532Y-61985703D02*
X44911313Y-62016579D01*
X44910532Y-61985703D02*
X44910532Y-61985703D01*
X44911313Y-61954828D02*
X44910532Y-61985703D01*
X44913630Y-61924357D02*
X44911313Y-61954828D01*
X44917445Y-61894330D02*
X44913630Y-61924357D01*
X44922722Y-61864783D02*
X44917445Y-61894330D01*
X44929421Y-61835755D02*
X44922722Y-61864783D01*
X44937507Y-61807283D02*
X44929421Y-61835755D01*
X44946940Y-61779405D02*
X44937507Y-61807283D01*
X44957683Y-61752158D02*
X44946940Y-61779405D01*
X44969698Y-61725580D02*
X44957683Y-61752158D01*
X44982948Y-61699709D02*
X44969698Y-61725580D01*
X44997395Y-61674583D02*
X44982948Y-61699709D01*
X45013002Y-61650239D02*
X44997395Y-61674583D01*
X45029730Y-61626716D02*
X45013002Y-61650239D01*
X45047542Y-61604049D02*
X45029730Y-61626716D01*
X45066400Y-61582279D02*
X45047542Y-61604049D01*
X45086267Y-61561441D02*
X45066400Y-61582279D01*
X45107104Y-61541574D02*
X45086267Y-61561441D01*
X45128875Y-61522716D02*
X45107104Y-61541574D01*
X45151541Y-61504904D02*
X45128875Y-61522716D01*
X45175065Y-61488176D02*
X45151541Y-61504904D01*
X45199409Y-61472569D02*
X45175065Y-61488176D01*
X45224535Y-61458122D02*
X45199409Y-61472569D01*
X45250406Y-61444871D02*
X45224535Y-61458122D01*
X45276983Y-61432856D02*
X45250406Y-61444871D01*
X45304230Y-61422113D02*
X45276983Y-61432856D01*
X45332109Y-61412680D02*
X45304230Y-61422113D01*
X45360581Y-61404594D02*
X45332109Y-61412680D01*
X45389609Y-61397895D02*
X45360581Y-61404594D01*
X45419156Y-61392618D02*
X45389609Y-61397895D01*
X45449184Y-61388802D02*
X45419156Y-61392618D01*
X45479654Y-61386485D02*
X45449184Y-61388802D01*
X45510530Y-61385705D02*
X45479654Y-61386485D01*
X45510530Y-61385705D02*
X45510530Y-61385705D01*
X45541406Y-61386485D02*
X45510530Y-61385705D01*
X45571877Y-61388802D02*
X45541406Y-61386485D01*
X45601905Y-61392618D02*
X45571877Y-61388802D01*
X45631451Y-61397895D02*
X45601905Y-61392618D01*
X45660480Y-61404594D02*
X45631451Y-61397895D01*
X45688952Y-61412680D02*
X45660480Y-61404594D01*
X45716831Y-61422113D02*
X45688952Y-61412680D01*
X45744077Y-61432856D02*
X45716831Y-61422113D01*
X45770655Y-61444871D02*
X45744077Y-61432856D01*
X45796526Y-61458122D02*
X45770655Y-61444871D01*
X45821652Y-61472569D02*
X45796526Y-61458122D01*
X45845996Y-61488176D02*
X45821652Y-61472569D01*
X45869520Y-61504904D02*
X45845996Y-61488176D01*
X45892186Y-61522716D02*
X45869520Y-61504904D01*
X45913956Y-61541574D02*
X45892186Y-61522716D01*
X45934794Y-61561441D02*
X45913956Y-61541574D01*
X45954661Y-61582279D02*
X45934794Y-61561441D01*
X45973519Y-61604049D02*
X45954661Y-61582279D01*
X45991331Y-61626716D02*
X45973519Y-61604049D01*
X46008059Y-61650239D02*
X45991331Y-61626716D01*
X46023665Y-61674583D02*
X46008059Y-61650239D01*
X46038113Y-61699709D02*
X46023665Y-61674583D01*
X46051363Y-61725580D02*
X46038113Y-61699709D01*
X46063378Y-61752158D02*
X46051363Y-61725580D01*
X46074121Y-61779405D02*
X46063378Y-61752158D01*
X46083554Y-61807283D02*
X46074121Y-61779405D01*
X46091639Y-61835755D02*
X46083554Y-61807283D01*
X46098339Y-61864783D02*
X46091639Y-61835755D01*
X46103616Y-61894330D02*
X46098339Y-61864783D01*
X46107431Y-61924357D02*
X46103616Y-61894330D01*
X46109748Y-61954828D02*
X46107431Y-61924357D01*
X46110529Y-61985703D02*
X46109748Y-61954828D01*
X44042898Y-55428986D02*
X44042898Y-55428986D01*
X44042898Y-55428986D02*
X44042898Y-55428986D01*
X44042117Y-55459862D02*
X44042898Y-55428986D01*
X44039800Y-55490332D02*
X44042117Y-55459862D01*
X44035985Y-55520359D02*
X44039800Y-55490332D01*
X44030708Y-55549906D02*
X44035985Y-55520359D01*
X44024009Y-55578934D02*
X44030708Y-55549906D01*
X44015923Y-55607406D02*
X44024009Y-55578934D01*
X44006491Y-55635285D02*
X44015923Y-55607406D01*
X43995747Y-55662532D02*
X44006491Y-55635285D01*
X43983732Y-55689109D02*
X43995747Y-55662532D01*
X43970482Y-55714980D02*
X43983732Y-55689109D01*
X43956035Y-55740106D02*
X43970482Y-55714980D01*
X43940428Y-55764450D02*
X43956035Y-55740106D01*
X43923700Y-55787974D02*
X43940428Y-55764450D01*
X43905888Y-55810640D02*
X43923700Y-55787974D01*
X43887030Y-55832411D02*
X43905888Y-55810640D01*
X43867163Y-55853248D02*
X43887030Y-55832411D01*
X43846326Y-55873115D02*
X43867163Y-55853248D01*
X43824555Y-55891973D02*
X43846326Y-55873115D01*
X43801889Y-55909786D02*
X43824555Y-55891973D01*
X43778365Y-55926514D02*
X43801889Y-55909786D01*
X43754021Y-55942120D02*
X43778365Y-55926514D01*
X43728895Y-55956568D02*
X43754021Y-55942120D01*
X43703024Y-55969818D02*
X43728895Y-55956568D01*
X43676447Y-55981833D02*
X43703024Y-55969818D01*
X43649200Y-55992577D02*
X43676447Y-55981833D01*
X43621321Y-56002010D02*
X43649200Y-55992577D01*
X43592849Y-56010095D02*
X43621321Y-56002010D01*
X43563821Y-56016795D02*
X43592849Y-56010095D01*
X43534274Y-56022071D02*
X43563821Y-56016795D01*
X43504246Y-56025887D02*
X43534274Y-56022071D01*
X43473776Y-56028204D02*
X43504246Y-56025887D01*
X43442900Y-56028985D02*
X43473776Y-56028204D01*
X43442900Y-56028985D02*
X43442900Y-56028985D01*
X43412024Y-56028204D02*
X43442900Y-56028985D01*
X43381553Y-56025887D02*
X43412024Y-56028204D01*
X43351525Y-56022071D02*
X43381553Y-56025887D01*
X43321979Y-56016795D02*
X43351525Y-56022071D01*
X43292950Y-56010095D02*
X43321979Y-56016795D01*
X43264478Y-56002010D02*
X43292950Y-56010095D01*
X43236599Y-55992577D02*
X43264478Y-56002010D01*
X43209352Y-55981833D02*
X43236599Y-55992577D01*
X43182775Y-55969818D02*
X43209352Y-55981833D01*
X43156904Y-55956568D02*
X43182775Y-55969818D01*
X43131778Y-55942120D02*
X43156904Y-55956568D01*
X43107434Y-55926514D02*
X43131778Y-55942120D01*
X43083910Y-55909786D02*
X43107434Y-55926514D01*
X43061244Y-55891973D02*
X43083910Y-55909786D01*
X43039473Y-55873115D02*
X43061244Y-55891973D01*
X43018635Y-55853248D02*
X43039473Y-55873115D01*
X42998768Y-55832411D02*
X43018635Y-55853248D01*
X42979910Y-55810640D02*
X42998768Y-55832411D01*
X42962098Y-55787974D02*
X42979910Y-55810640D01*
X42945370Y-55764450D02*
X42962098Y-55787974D01*
X42929763Y-55740106D02*
X42945370Y-55764450D01*
X42915316Y-55714980D02*
X42929763Y-55740106D01*
X42902066Y-55689109D02*
X42915316Y-55714980D01*
X42890050Y-55662532D02*
X42902066Y-55689109D01*
X42879307Y-55635285D02*
X42890050Y-55662532D01*
X42869874Y-55607406D02*
X42879307Y-55635285D01*
X42861789Y-55578934D02*
X42869874Y-55607406D01*
X42855089Y-55549906D02*
X42861789Y-55578934D01*
X42849813Y-55520359D02*
X42855089Y-55549906D01*
X42845997Y-55490332D02*
X42849813Y-55520359D01*
X42843680Y-55459862D02*
X42845997Y-55490332D01*
X42842899Y-55428986D02*
X42843680Y-55459862D01*
X42842899Y-55428986D02*
X42842899Y-55428986D01*
X42843680Y-55398111D02*
X42842899Y-55428986D01*
X42845997Y-55367640D02*
X42843680Y-55398111D01*
X42849813Y-55337613D02*
X42845997Y-55367640D01*
X42855089Y-55308066D02*
X42849813Y-55337613D01*
X42861789Y-55279038D02*
X42855089Y-55308066D01*
X42869874Y-55250566D02*
X42861789Y-55279038D01*
X42879307Y-55222688D02*
X42869874Y-55250566D01*
X42890050Y-55195441D02*
X42879307Y-55222688D01*
X42902066Y-55168863D02*
X42890050Y-55195441D01*
X42915316Y-55142992D02*
X42902066Y-55168863D01*
X42929763Y-55117866D02*
X42915316Y-55142992D01*
X42945370Y-55093522D02*
X42929763Y-55117866D01*
X42962098Y-55069999D02*
X42945370Y-55093522D01*
X42979910Y-55047333D02*
X42962098Y-55069999D01*
X42998768Y-55025562D02*
X42979910Y-55047333D01*
X43018635Y-55004724D02*
X42998768Y-55025562D01*
X43039473Y-54984857D02*
X43018635Y-55004724D01*
X43061244Y-54965999D02*
X43039473Y-54984857D01*
X43083910Y-54948187D02*
X43061244Y-54965999D01*
X43107434Y-54931459D02*
X43083910Y-54948187D01*
X43131778Y-54915852D02*
X43107434Y-54931459D01*
X43156904Y-54901405D02*
X43131778Y-54915852D01*
X43182775Y-54888155D02*
X43156904Y-54901405D01*
X43209352Y-54876139D02*
X43182775Y-54888155D01*
X43236599Y-54865396D02*
X43209352Y-54876139D01*
X43264478Y-54855963D02*
X43236599Y-54865396D01*
X43292950Y-54847877D02*
X43264478Y-54855963D01*
X43321979Y-54841178D02*
X43292950Y-54847877D01*
X43351525Y-54835901D02*
X43321979Y-54841178D01*
X43381553Y-54832085D02*
X43351525Y-54835901D01*
X43412024Y-54829768D02*
X43381553Y-54832085D01*
X43442900Y-54828988D02*
X43412024Y-54829768D01*
X43442900Y-54828988D02*
X43442900Y-54828988D01*
X43473776Y-54829768D02*
X43442900Y-54828988D01*
X43504246Y-54832085D02*
X43473776Y-54829768D01*
X43534274Y-54835901D02*
X43504246Y-54832085D01*
X43563821Y-54841178D02*
X43534274Y-54835901D01*
X43592849Y-54847877D02*
X43563821Y-54841178D01*
X43621321Y-54855963D02*
X43592849Y-54847877D01*
X43649200Y-54865396D02*
X43621321Y-54855963D01*
X43676447Y-54876139D02*
X43649200Y-54865396D01*
X43703024Y-54888155D02*
X43676447Y-54876139D01*
X43728895Y-54901405D02*
X43703024Y-54888155D01*
X43754021Y-54915852D02*
X43728895Y-54901405D01*
X43778365Y-54931459D02*
X43754021Y-54915852D01*
X43801889Y-54948187D02*
X43778365Y-54931459D01*
X43824555Y-54965999D02*
X43801889Y-54948187D01*
X43846326Y-54984857D02*
X43824555Y-54965999D01*
X43867163Y-55004724D02*
X43846326Y-54984857D01*
X43887030Y-55025562D02*
X43867163Y-55004724D01*
X43905888Y-55047333D02*
X43887030Y-55025562D01*
X43923700Y-55069999D02*
X43905888Y-55047333D01*
X43940428Y-55093522D02*
X43923700Y-55069999D01*
X43956035Y-55117866D02*
X43940428Y-55093522D01*
X43970482Y-55142992D02*
X43956035Y-55117866D01*
X43983732Y-55168863D02*
X43970482Y-55142992D01*
X43995747Y-55195441D02*
X43983732Y-55168863D01*
X44006491Y-55222688D02*
X43995747Y-55195441D01*
X44015923Y-55250566D02*
X44006491Y-55222688D01*
X44024009Y-55279038D02*
X44015923Y-55250566D01*
X44030708Y-55308066D02*
X44024009Y-55279038D01*
X44035985Y-55337613D02*
X44030708Y-55308066D01*
X44039800Y-55367640D02*
X44035985Y-55337613D01*
X44042117Y-55398111D02*
X44039800Y-55367640D01*
X44042898Y-55428986D02*
X44042117Y-55398111D01*
X44489979Y-63889329D02*
X44489979Y-63889329D01*
X44489979Y-63889329D02*
X44489979Y-63889329D01*
X44489198Y-63920204D02*
X44489979Y-63889329D01*
X44486881Y-63950675D02*
X44489198Y-63920204D01*
X44483065Y-63980702D02*
X44486881Y-63950675D01*
X44477789Y-64010249D02*
X44483065Y-63980702D01*
X44471089Y-64039277D02*
X44477789Y-64010249D01*
X44463004Y-64067749D02*
X44471089Y-64039277D01*
X44453571Y-64095627D02*
X44463004Y-64067749D01*
X44442828Y-64122874D02*
X44453571Y-64095627D01*
X44430812Y-64149452D02*
X44442828Y-64122874D01*
X44417562Y-64175322D02*
X44430812Y-64149452D01*
X44403115Y-64200449D02*
X44417562Y-64175322D01*
X44387508Y-64224792D02*
X44403115Y-64200449D01*
X44370780Y-64248316D02*
X44387508Y-64224792D01*
X44352968Y-64270982D02*
X44370780Y-64248316D01*
X44334110Y-64292753D02*
X44352968Y-64270982D01*
X44314243Y-64313591D02*
X44334110Y-64292753D01*
X44293405Y-64333457D02*
X44314243Y-64313591D01*
X44271634Y-64352316D02*
X44293405Y-64333457D01*
X44248968Y-64370128D02*
X44271634Y-64352316D01*
X44225444Y-64386856D02*
X44248968Y-64370128D01*
X44201100Y-64402463D02*
X44225444Y-64386856D01*
X44175974Y-64416910D02*
X44201100Y-64402463D01*
X44150103Y-64430160D02*
X44175974Y-64416910D01*
X44123526Y-64442176D02*
X44150103Y-64430160D01*
X44096279Y-64452919D02*
X44123526Y-64442176D01*
X44068400Y-64462352D02*
X44096279Y-64452919D01*
X44039928Y-64470437D02*
X44068400Y-64462352D01*
X44010899Y-64477137D02*
X44039928Y-64470437D01*
X43981353Y-64482414D02*
X44010899Y-64477137D01*
X43951325Y-64486229D02*
X43981353Y-64482414D01*
X43920854Y-64488546D02*
X43951325Y-64486229D01*
X43889978Y-64489327D02*
X43920854Y-64488546D01*
X43889978Y-64489327D02*
X43889978Y-64489327D01*
X43859102Y-64488546D02*
X43889978Y-64489327D01*
X43828632Y-64486229D02*
X43859102Y-64488546D01*
X43798604Y-64482414D02*
X43828632Y-64486229D01*
X43769057Y-64477137D02*
X43798604Y-64482414D01*
X43740029Y-64470437D02*
X43769057Y-64477137D01*
X43711557Y-64462352D02*
X43740029Y-64470437D01*
X43683678Y-64452919D02*
X43711557Y-64462352D01*
X43656431Y-64442176D02*
X43683678Y-64452919D01*
X43629853Y-64430160D02*
X43656431Y-64442176D01*
X43603982Y-64416910D02*
X43629853Y-64430160D01*
X43578856Y-64402463D02*
X43603982Y-64416910D01*
X43554512Y-64386856D02*
X43578856Y-64402463D01*
X43530988Y-64370128D02*
X43554512Y-64386856D01*
X43508322Y-64352316D02*
X43530988Y-64370128D01*
X43486552Y-64333457D02*
X43508322Y-64352316D01*
X43465714Y-64313591D02*
X43486552Y-64333457D01*
X43445847Y-64292753D02*
X43465714Y-64313591D01*
X43426989Y-64270982D02*
X43445847Y-64292753D01*
X43409177Y-64248316D02*
X43426989Y-64270982D01*
X43392449Y-64224792D02*
X43409177Y-64248316D01*
X43376842Y-64200449D02*
X43392449Y-64224792D01*
X43362395Y-64175322D02*
X43376842Y-64200449D01*
X43349144Y-64149452D02*
X43362395Y-64175322D01*
X43337129Y-64122874D02*
X43349144Y-64149452D01*
X43326386Y-64095627D02*
X43337129Y-64122874D01*
X43316953Y-64067749D02*
X43326386Y-64095627D01*
X43308868Y-64039277D02*
X43316953Y-64067749D01*
X43302168Y-64010249D02*
X43308868Y-64039277D01*
X43296891Y-63980702D02*
X43302168Y-64010249D01*
X43293076Y-63950675D02*
X43296891Y-63980702D01*
X43290759Y-63920204D02*
X43293076Y-63950675D01*
X43289978Y-63889329D02*
X43290759Y-63920204D01*
X43289978Y-63889329D02*
X43289978Y-63889329D01*
X43290759Y-63858453D02*
X43289978Y-63889329D01*
X43293076Y-63827983D02*
X43290759Y-63858453D01*
X43296891Y-63797955D02*
X43293076Y-63827983D01*
X43302168Y-63768409D02*
X43296891Y-63797955D01*
X43308868Y-63739380D02*
X43302168Y-63768409D01*
X43316953Y-63710908D02*
X43308868Y-63739380D01*
X43326386Y-63683030D02*
X43316953Y-63710908D01*
X43337129Y-63655783D02*
X43326386Y-63683030D01*
X43349144Y-63629206D02*
X43337129Y-63655783D01*
X43362395Y-63603335D02*
X43349144Y-63629206D01*
X43376842Y-63578209D02*
X43362395Y-63603335D01*
X43392449Y-63553865D02*
X43376842Y-63578209D01*
X43409177Y-63530341D02*
X43392449Y-63553865D01*
X43426989Y-63507675D02*
X43409177Y-63530341D01*
X43445847Y-63485904D02*
X43426989Y-63507675D01*
X43465714Y-63465067D02*
X43445847Y-63485904D01*
X43486552Y-63445200D02*
X43465714Y-63465067D01*
X43508322Y-63426341D02*
X43486552Y-63445200D01*
X43530988Y-63408529D02*
X43508322Y-63426341D01*
X43554512Y-63391801D02*
X43530988Y-63408529D01*
X43578856Y-63376195D02*
X43554512Y-63391801D01*
X43603982Y-63361747D02*
X43578856Y-63376195D01*
X43629853Y-63348497D02*
X43603982Y-63361747D01*
X43656431Y-63336481D02*
X43629853Y-63348497D01*
X43683678Y-63325738D02*
X43656431Y-63336481D01*
X43711557Y-63316305D02*
X43683678Y-63325738D01*
X43740029Y-63308220D02*
X43711557Y-63316305D01*
X43769057Y-63301520D02*
X43740029Y-63308220D01*
X43798604Y-63296244D02*
X43769057Y-63301520D01*
X43828632Y-63292428D02*
X43798604Y-63296244D01*
X43859102Y-63290111D02*
X43828632Y-63292428D01*
X43889978Y-63289330D02*
X43859102Y-63290111D01*
X43889978Y-63289330D02*
X43889978Y-63289330D01*
X43920854Y-63290111D02*
X43889978Y-63289330D01*
X43951325Y-63292428D02*
X43920854Y-63290111D01*
X43981353Y-63296244D02*
X43951325Y-63292428D01*
X44010899Y-63301520D02*
X43981353Y-63296244D01*
X44039928Y-63308220D02*
X44010899Y-63301520D01*
X44068400Y-63316305D02*
X44039928Y-63308220D01*
X44096279Y-63325738D02*
X44068400Y-63316305D01*
X44123526Y-63336481D02*
X44096279Y-63325738D01*
X44150103Y-63348497D02*
X44123526Y-63336481D01*
X44175974Y-63361747D02*
X44150103Y-63348497D01*
X44201100Y-63376195D02*
X44175974Y-63361747D01*
X44225444Y-63391801D02*
X44201100Y-63376195D01*
X44248968Y-63408529D02*
X44225444Y-63391801D01*
X44271634Y-63426341D02*
X44248968Y-63408529D01*
X44293405Y-63445200D02*
X44271634Y-63426341D01*
X44314243Y-63465067D02*
X44293405Y-63445200D01*
X44334110Y-63485904D02*
X44314243Y-63465067D01*
X44352968Y-63507675D02*
X44334110Y-63485904D01*
X44370780Y-63530341D02*
X44352968Y-63507675D01*
X44387508Y-63553865D02*
X44370780Y-63530341D01*
X44403115Y-63578209D02*
X44387508Y-63553865D01*
X44417562Y-63603335D02*
X44403115Y-63578209D01*
X44430812Y-63629206D02*
X44417562Y-63603335D01*
X44442828Y-63655783D02*
X44430812Y-63629206D01*
X44453571Y-63683030D02*
X44442828Y-63655783D01*
X44463004Y-63710908D02*
X44453571Y-63683030D01*
X44471089Y-63739380D02*
X44463004Y-63710908D01*
X44477789Y-63768409D02*
X44471089Y-63739380D01*
X44483065Y-63797955D02*
X44477789Y-63768409D01*
X44486881Y-63827983D02*
X44483065Y-63797955D01*
X44489198Y-63858453D02*
X44486881Y-63827983D01*
X44489979Y-63889329D02*
X44489198Y-63858453D01*
X45855059Y-57151215D02*
X45855059Y-57151215D01*
X45855059Y-57151215D02*
X45855059Y-57151215D01*
X45854278Y-57182091D02*
X45855059Y-57151215D01*
X45851961Y-57212561D02*
X45854278Y-57182091D01*
X45848145Y-57242588D02*
X45851961Y-57212561D01*
X45842869Y-57272135D02*
X45848145Y-57242588D01*
X45836169Y-57301163D02*
X45842869Y-57272135D01*
X45828084Y-57329635D02*
X45836169Y-57301163D01*
X45818651Y-57357514D02*
X45828084Y-57329635D01*
X45807907Y-57384761D02*
X45818651Y-57357514D01*
X45795892Y-57411338D02*
X45807907Y-57384761D01*
X45782641Y-57437209D02*
X45795892Y-57411338D01*
X45768194Y-57462335D02*
X45782641Y-57437209D01*
X45752587Y-57486679D02*
X45768194Y-57462335D01*
X45735859Y-57510203D02*
X45752587Y-57486679D01*
X45718047Y-57532869D02*
X45735859Y-57510203D01*
X45699189Y-57554640D02*
X45718047Y-57532869D01*
X45679322Y-57575477D02*
X45699189Y-57554640D01*
X45658484Y-57595344D02*
X45679322Y-57575477D01*
X45636713Y-57614202D02*
X45658484Y-57595344D01*
X45614047Y-57632015D02*
X45636713Y-57614202D01*
X45590523Y-57648743D02*
X45614047Y-57632015D01*
X45566179Y-57664349D02*
X45590523Y-57648743D01*
X45541053Y-57678797D02*
X45566179Y-57664349D01*
X45515182Y-57692047D02*
X45541053Y-57678797D01*
X45488604Y-57704062D02*
X45515182Y-57692047D01*
X45461357Y-57714806D02*
X45488604Y-57704062D01*
X45433478Y-57724239D02*
X45461357Y-57714806D01*
X45405006Y-57732324D02*
X45433478Y-57724239D01*
X45375977Y-57739024D02*
X45405006Y-57732324D01*
X45346431Y-57744300D02*
X45375977Y-57739024D01*
X45316403Y-57748116D02*
X45346431Y-57744300D01*
X45285932Y-57750433D02*
X45316403Y-57748116D01*
X45255056Y-57751214D02*
X45285932Y-57750433D01*
X45255056Y-57751214D02*
X45255056Y-57751214D01*
X45224181Y-57750433D02*
X45255056Y-57751214D01*
X45193710Y-57748116D02*
X45224181Y-57750433D01*
X45163683Y-57744300D02*
X45193710Y-57748116D01*
X45134136Y-57739024D02*
X45163683Y-57744300D01*
X45105108Y-57732324D02*
X45134136Y-57739024D01*
X45076635Y-57724239D02*
X45105108Y-57732324D01*
X45048757Y-57714806D02*
X45076635Y-57724239D01*
X45021510Y-57704062D02*
X45048757Y-57714806D01*
X44994932Y-57692047D02*
X45021510Y-57704062D01*
X44969062Y-57678797D02*
X44994932Y-57692047D01*
X44943936Y-57664349D02*
X44969062Y-57678797D01*
X44919592Y-57648743D02*
X44943936Y-57664349D01*
X44896068Y-57632015D02*
X44919592Y-57648743D01*
X44873402Y-57614202D02*
X44896068Y-57632015D01*
X44851631Y-57595344D02*
X44873402Y-57614202D01*
X44830794Y-57575477D02*
X44851631Y-57595344D01*
X44810927Y-57554640D02*
X44830794Y-57575477D01*
X44792069Y-57532869D02*
X44810927Y-57554640D01*
X44774256Y-57510203D02*
X44792069Y-57532869D01*
X44757528Y-57486679D02*
X44774256Y-57510203D01*
X44741922Y-57462335D02*
X44757528Y-57486679D01*
X44727475Y-57437209D02*
X44741922Y-57462335D01*
X44714224Y-57411338D02*
X44727475Y-57437209D01*
X44702209Y-57384761D02*
X44714224Y-57411338D01*
X44691466Y-57357514D02*
X44702209Y-57384761D01*
X44682033Y-57329635D02*
X44691466Y-57357514D01*
X44673947Y-57301163D02*
X44682033Y-57329635D01*
X44667248Y-57272135D02*
X44673947Y-57301163D01*
X44661971Y-57242588D02*
X44667248Y-57272135D01*
X44658156Y-57212561D02*
X44661971Y-57242588D01*
X44655839Y-57182091D02*
X44658156Y-57212561D01*
X44655058Y-57151215D02*
X44655839Y-57182091D01*
X44655058Y-57151215D02*
X44655058Y-57151215D01*
X44655839Y-57120340D02*
X44655058Y-57151215D01*
X44658156Y-57089869D02*
X44655839Y-57120340D01*
X44661971Y-57059842D02*
X44658156Y-57089869D01*
X44667248Y-57030295D02*
X44661971Y-57059842D01*
X44673947Y-57001267D02*
X44667248Y-57030295D01*
X44682033Y-56972795D02*
X44673947Y-57001267D01*
X44691466Y-56944917D02*
X44682033Y-56972795D01*
X44702209Y-56917670D02*
X44691466Y-56944917D01*
X44714224Y-56891092D02*
X44702209Y-56917670D01*
X44727475Y-56865221D02*
X44714224Y-56891092D01*
X44741922Y-56840095D02*
X44727475Y-56865221D01*
X44757528Y-56815751D02*
X44741922Y-56840095D01*
X44774256Y-56792228D02*
X44757528Y-56815751D01*
X44792069Y-56769562D02*
X44774256Y-56792228D01*
X44810927Y-56747791D02*
X44792069Y-56769562D01*
X44830794Y-56726953D02*
X44810927Y-56747791D01*
X44851631Y-56707086D02*
X44830794Y-56726953D01*
X44873402Y-56688228D02*
X44851631Y-56707086D01*
X44896068Y-56670416D02*
X44873402Y-56688228D01*
X44919592Y-56653688D02*
X44896068Y-56670416D01*
X44943936Y-56638081D02*
X44919592Y-56653688D01*
X44969062Y-56623634D02*
X44943936Y-56638081D01*
X44994932Y-56610384D02*
X44969062Y-56623634D01*
X45021510Y-56598368D02*
X44994932Y-56610384D01*
X45048757Y-56587625D02*
X45021510Y-56598368D01*
X45076635Y-56578192D02*
X45048757Y-56587625D01*
X45105108Y-56570106D02*
X45076635Y-56578192D01*
X45134136Y-56563407D02*
X45105108Y-56570106D01*
X45163683Y-56558130D02*
X45134136Y-56563407D01*
X45193710Y-56554315D02*
X45163683Y-56558130D01*
X45224181Y-56551997D02*
X45193710Y-56554315D01*
X45255056Y-56551217D02*
X45224181Y-56551997D01*
X45255056Y-56551217D02*
X45255056Y-56551217D01*
X45285932Y-56551997D02*
X45255056Y-56551217D01*
X45316403Y-56554315D02*
X45285932Y-56551997D01*
X45346431Y-56558130D02*
X45316403Y-56554315D01*
X45375977Y-56563407D02*
X45346431Y-56558130D01*
X45405006Y-56570106D02*
X45375977Y-56563407D01*
X45433478Y-56578192D02*
X45405006Y-56570106D01*
X45461357Y-56587625D02*
X45433478Y-56578192D01*
X45488604Y-56598368D02*
X45461357Y-56587625D01*
X45515182Y-56610384D02*
X45488604Y-56598368D01*
X45541053Y-56623634D02*
X45515182Y-56610384D01*
X45566179Y-56638081D02*
X45541053Y-56623634D01*
X45590523Y-56653688D02*
X45566179Y-56638081D01*
X45614047Y-56670416D02*
X45590523Y-56653688D01*
X45636713Y-56688228D02*
X45614047Y-56670416D01*
X45658484Y-56707086D02*
X45636713Y-56688228D01*
X45679322Y-56726953D02*
X45658484Y-56707086D01*
X45699189Y-56747791D02*
X45679322Y-56726953D01*
X45718047Y-56769562D02*
X45699189Y-56747791D01*
X45735859Y-56792228D02*
X45718047Y-56769562D01*
X45752587Y-56815751D02*
X45735859Y-56792228D01*
X45768194Y-56840095D02*
X45752587Y-56815751D01*
X45782641Y-56865221D02*
X45768194Y-56840095D01*
X45795892Y-56891092D02*
X45782641Y-56865221D01*
X45807907Y-56917670D02*
X45795892Y-56891092D01*
X45818651Y-56944917D02*
X45807907Y-56917670D01*
X45828084Y-56972795D02*
X45818651Y-56944917D01*
X45836169Y-57001267D02*
X45828084Y-56972795D01*
X45842869Y-57030295D02*
X45836169Y-57001267D01*
X45848145Y-57059842D02*
X45842869Y-57030295D01*
X45851961Y-57089869D02*
X45848145Y-57059842D01*
X45854278Y-57120340D02*
X45851961Y-57089869D01*
X45855059Y-57151215D02*
X45854278Y-57120340D01*
X38957640Y-64035409D02*
X38957640Y-64035409D01*
X38957640Y-64035409D02*
X38957640Y-64035409D01*
X38956859Y-64066284D02*
X38957640Y-64035409D01*
X38954542Y-64096755D02*
X38956859Y-64066284D01*
X38950726Y-64126782D02*
X38954542Y-64096755D01*
X38945450Y-64156329D02*
X38950726Y-64126782D01*
X38938750Y-64185357D02*
X38945450Y-64156329D01*
X38930665Y-64213829D02*
X38938750Y-64185357D01*
X38921232Y-64241707D02*
X38930665Y-64213829D01*
X38910489Y-64268954D02*
X38921232Y-64241707D01*
X38898473Y-64295532D02*
X38910489Y-64268954D01*
X38885223Y-64321402D02*
X38898473Y-64295532D01*
X38870776Y-64346529D02*
X38885223Y-64321402D01*
X38855169Y-64370872D02*
X38870776Y-64346529D01*
X38838441Y-64394396D02*
X38855169Y-64370872D01*
X38820629Y-64417062D02*
X38838441Y-64394396D01*
X38801771Y-64438833D02*
X38820629Y-64417062D01*
X38781904Y-64459671D02*
X38801771Y-64438833D01*
X38761066Y-64479538D02*
X38781904Y-64459671D01*
X38739295Y-64498396D02*
X38761066Y-64479538D01*
X38716629Y-64516208D02*
X38739295Y-64498396D01*
X38693105Y-64532936D02*
X38716629Y-64516208D01*
X38668761Y-64548543D02*
X38693105Y-64532936D01*
X38643635Y-64562990D02*
X38668761Y-64548543D01*
X38617764Y-64576240D02*
X38643635Y-64562990D01*
X38591187Y-64588256D02*
X38617764Y-64576240D01*
X38563940Y-64598999D02*
X38591187Y-64588256D01*
X38536061Y-64608432D02*
X38563940Y-64598999D01*
X38507589Y-64616517D02*
X38536061Y-64608432D01*
X38478560Y-64623217D02*
X38507589Y-64616517D01*
X38449013Y-64628494D02*
X38478560Y-64623217D01*
X38418986Y-64632309D02*
X38449013Y-64628494D01*
X38388515Y-64634626D02*
X38418986Y-64632309D01*
X38357639Y-64635407D02*
X38388515Y-64634626D01*
X38357639Y-64635407D02*
X38357639Y-64635407D01*
X38326763Y-64634626D02*
X38357639Y-64635407D01*
X38296293Y-64632309D02*
X38326763Y-64634626D01*
X38266266Y-64628494D02*
X38296293Y-64632309D01*
X38236719Y-64623217D02*
X38266266Y-64628494D01*
X38207690Y-64616517D02*
X38236719Y-64623217D01*
X38179218Y-64608432D02*
X38207690Y-64616517D01*
X38151340Y-64598999D02*
X38179218Y-64608432D01*
X38124093Y-64588256D02*
X38151340Y-64598999D01*
X38097515Y-64576240D02*
X38124093Y-64588256D01*
X38071644Y-64562990D02*
X38097515Y-64576240D01*
X38046518Y-64548543D02*
X38071644Y-64562990D01*
X38022174Y-64532936D02*
X38046518Y-64548543D01*
X37998650Y-64516208D02*
X38022174Y-64532936D01*
X37975984Y-64498396D02*
X37998650Y-64516208D01*
X37954213Y-64479538D02*
X37975984Y-64498396D01*
X37933376Y-64459671D02*
X37954213Y-64479538D01*
X37913509Y-64438833D02*
X37933376Y-64459671D01*
X37894650Y-64417062D02*
X37913509Y-64438833D01*
X37876838Y-64394396D02*
X37894650Y-64417062D01*
X37860110Y-64370872D02*
X37876838Y-64394396D01*
X37844503Y-64346529D02*
X37860110Y-64370872D01*
X37830056Y-64321402D02*
X37844503Y-64346529D01*
X37816806Y-64295532D02*
X37830056Y-64321402D01*
X37804790Y-64268954D02*
X37816806Y-64295532D01*
X37794047Y-64241707D02*
X37804790Y-64268954D01*
X37784614Y-64213829D02*
X37794047Y-64241707D01*
X37776529Y-64185357D02*
X37784614Y-64213829D01*
X37769829Y-64156329D02*
X37776529Y-64185357D01*
X37764552Y-64126782D02*
X37769829Y-64156329D01*
X37760737Y-64096755D02*
X37764552Y-64126782D01*
X37758420Y-64066284D02*
X37760737Y-64096755D01*
X37757639Y-64035409D02*
X37758420Y-64066284D01*
X37757639Y-64035409D02*
X37757639Y-64035409D01*
X37758420Y-64004533D02*
X37757639Y-64035409D01*
X37760737Y-63974063D02*
X37758420Y-64004533D01*
X37764552Y-63944035D02*
X37760737Y-63974063D01*
X37769829Y-63914489D02*
X37764552Y-63944035D01*
X37776529Y-63885461D02*
X37769829Y-63914489D01*
X37784614Y-63856988D02*
X37776529Y-63885461D01*
X37794047Y-63829110D02*
X37784614Y-63856988D01*
X37804790Y-63801863D02*
X37794047Y-63829110D01*
X37816806Y-63775286D02*
X37804790Y-63801863D01*
X37830056Y-63749415D02*
X37816806Y-63775286D01*
X37844503Y-63724289D02*
X37830056Y-63749415D01*
X37860110Y-63699945D02*
X37844503Y-63724289D01*
X37876838Y-63676421D02*
X37860110Y-63699945D01*
X37894650Y-63653755D02*
X37876838Y-63676421D01*
X37913509Y-63631984D02*
X37894650Y-63653755D01*
X37933376Y-63611147D02*
X37913509Y-63631984D01*
X37954213Y-63591280D02*
X37933376Y-63611147D01*
X37975984Y-63572421D02*
X37954213Y-63591280D01*
X37998650Y-63554609D02*
X37975984Y-63572421D01*
X38022174Y-63537881D02*
X37998650Y-63554609D01*
X38046518Y-63522275D02*
X38022174Y-63537881D01*
X38071644Y-63507827D02*
X38046518Y-63522275D01*
X38097515Y-63494577D02*
X38071644Y-63507827D01*
X38124093Y-63482561D02*
X38097515Y-63494577D01*
X38151340Y-63471818D02*
X38124093Y-63482561D01*
X38179218Y-63462385D02*
X38151340Y-63471818D01*
X38207690Y-63454300D02*
X38179218Y-63462385D01*
X38236719Y-63447600D02*
X38207690Y-63454300D01*
X38266266Y-63442324D02*
X38236719Y-63447600D01*
X38296293Y-63438508D02*
X38266266Y-63442324D01*
X38326763Y-63436191D02*
X38296293Y-63438508D01*
X38357639Y-63435410D02*
X38326763Y-63436191D01*
X38357639Y-63435410D02*
X38357639Y-63435410D01*
X38388515Y-63436191D02*
X38357639Y-63435410D01*
X38418986Y-63438508D02*
X38388515Y-63436191D01*
X38449013Y-63442324D02*
X38418986Y-63438508D01*
X38478560Y-63447600D02*
X38449013Y-63442324D01*
X38507589Y-63454300D02*
X38478560Y-63447600D01*
X38536061Y-63462385D02*
X38507589Y-63454300D01*
X38563940Y-63471818D02*
X38536061Y-63462385D01*
X38591187Y-63482561D02*
X38563940Y-63471818D01*
X38617764Y-63494577D02*
X38591187Y-63482561D01*
X38643635Y-63507827D02*
X38617764Y-63494577D01*
X38668761Y-63522275D02*
X38643635Y-63507827D01*
X38693105Y-63537881D02*
X38668761Y-63522275D01*
X38716629Y-63554609D02*
X38693105Y-63537881D01*
X38739295Y-63572421D02*
X38716629Y-63554609D01*
X38761066Y-63591280D02*
X38739295Y-63572421D01*
X38781904Y-63611147D02*
X38761066Y-63591280D01*
X38801771Y-63631984D02*
X38781904Y-63611147D01*
X38820629Y-63653755D02*
X38801771Y-63631984D01*
X38838441Y-63676421D02*
X38820629Y-63653755D01*
X38855169Y-63699945D02*
X38838441Y-63676421D01*
X38870776Y-63724289D02*
X38855169Y-63699945D01*
X38885223Y-63749415D02*
X38870776Y-63724289D01*
X38898473Y-63775286D02*
X38885223Y-63749415D01*
X38910489Y-63801863D02*
X38898473Y-63775286D01*
X38921232Y-63829110D02*
X38910489Y-63801863D01*
X38930665Y-63856988D02*
X38921232Y-63829110D01*
X38938750Y-63885461D02*
X38930665Y-63856988D01*
X38945450Y-63914489D02*
X38938750Y-63885461D01*
X38950726Y-63944035D02*
X38945450Y-63914489D01*
X38954542Y-63974063D02*
X38950726Y-63944035D01*
X38956859Y-64004533D02*
X38954542Y-63974063D01*
X38957640Y-64035409D02*
X38956859Y-64004533D01*
X37238890Y-62219948D02*
X37238890Y-62219948D01*
X37238890Y-62219948D02*
X37238890Y-62219948D01*
X37238109Y-62250824D02*
X37238890Y-62219948D01*
X37235792Y-62281294D02*
X37238109Y-62250824D01*
X37231976Y-62311322D02*
X37235792Y-62281294D01*
X37226700Y-62340868D02*
X37231976Y-62311322D01*
X37220000Y-62369897D02*
X37226700Y-62340868D01*
X37211915Y-62398369D02*
X37220000Y-62369897D01*
X37202482Y-62426247D02*
X37211915Y-62398369D01*
X37191739Y-62453494D02*
X37202482Y-62426247D01*
X37179723Y-62480071D02*
X37191739Y-62453494D01*
X37166473Y-62505942D02*
X37179723Y-62480071D01*
X37152026Y-62531068D02*
X37166473Y-62505942D01*
X37136419Y-62555412D02*
X37152026Y-62531068D01*
X37119691Y-62578936D02*
X37136419Y-62555412D01*
X37101879Y-62601602D02*
X37119691Y-62578936D01*
X37083021Y-62623373D02*
X37101879Y-62601602D01*
X37063154Y-62644210D02*
X37083021Y-62623373D01*
X37042316Y-62664077D02*
X37063154Y-62644210D01*
X37020545Y-62682936D02*
X37042316Y-62664077D01*
X36997879Y-62700748D02*
X37020545Y-62682936D01*
X36974355Y-62717476D02*
X36997879Y-62700748D01*
X36950011Y-62733083D02*
X36974355Y-62717476D01*
X36924885Y-62747530D02*
X36950011Y-62733083D01*
X36899014Y-62760780D02*
X36924885Y-62747530D01*
X36872437Y-62772796D02*
X36899014Y-62760780D01*
X36845190Y-62783539D02*
X36872437Y-62772796D01*
X36817311Y-62792972D02*
X36845190Y-62783539D01*
X36788839Y-62801057D02*
X36817311Y-62792972D01*
X36759810Y-62807757D02*
X36788839Y-62801057D01*
X36730263Y-62813034D02*
X36759810Y-62807757D01*
X36700236Y-62816849D02*
X36730263Y-62813034D01*
X36669765Y-62819166D02*
X36700236Y-62816849D01*
X36638889Y-62819947D02*
X36669765Y-62819166D01*
X36638889Y-62819947D02*
X36638889Y-62819947D01*
X36608013Y-62819166D02*
X36638889Y-62819947D01*
X36577543Y-62816849D02*
X36608013Y-62819166D01*
X36547516Y-62813034D02*
X36577543Y-62816849D01*
X36517969Y-62807757D02*
X36547516Y-62813034D01*
X36488940Y-62801057D02*
X36517969Y-62807757D01*
X36460468Y-62792972D02*
X36488940Y-62801057D01*
X36432590Y-62783539D02*
X36460468Y-62792972D01*
X36405343Y-62772796D02*
X36432590Y-62783539D01*
X36378765Y-62760780D02*
X36405343Y-62772796D01*
X36352894Y-62747530D02*
X36378765Y-62760780D01*
X36327768Y-62733083D02*
X36352894Y-62747530D01*
X36303424Y-62717476D02*
X36327768Y-62733083D01*
X36279900Y-62700748D02*
X36303424Y-62717476D01*
X36257234Y-62682936D02*
X36279900Y-62700748D01*
X36235463Y-62664077D02*
X36257234Y-62682936D01*
X36214626Y-62644210D02*
X36235463Y-62664077D01*
X36194759Y-62623373D02*
X36214626Y-62644210D01*
X36175900Y-62601602D02*
X36194759Y-62623373D01*
X36158088Y-62578936D02*
X36175900Y-62601602D01*
X36141360Y-62555412D02*
X36158088Y-62578936D01*
X36125753Y-62531068D02*
X36141360Y-62555412D01*
X36111306Y-62505942D02*
X36125753Y-62531068D01*
X36098056Y-62480071D02*
X36111306Y-62505942D01*
X36086040Y-62453494D02*
X36098056Y-62480071D01*
X36075297Y-62426247D02*
X36086040Y-62453494D01*
X36065864Y-62398369D02*
X36075297Y-62426247D01*
X36057779Y-62369897D02*
X36065864Y-62398369D01*
X36051079Y-62340868D02*
X36057779Y-62369897D01*
X36045802Y-62311322D02*
X36051079Y-62340868D01*
X36041987Y-62281294D02*
X36045802Y-62311322D01*
X36039670Y-62250824D02*
X36041987Y-62281294D01*
X36038889Y-62219948D02*
X36039670Y-62250824D01*
X36038889Y-62219948D02*
X36038889Y-62219948D01*
X36039670Y-62189073D02*
X36038889Y-62219948D01*
X36041987Y-62158602D02*
X36039670Y-62189073D01*
X36045802Y-62128575D02*
X36041987Y-62158602D01*
X36051079Y-62099029D02*
X36045802Y-62128575D01*
X36057779Y-62070000D02*
X36051079Y-62099029D01*
X36065864Y-62041528D02*
X36057779Y-62070000D01*
X36075297Y-62013650D02*
X36065864Y-62041528D01*
X36086040Y-61986403D02*
X36075297Y-62013650D01*
X36098056Y-61959825D02*
X36086040Y-61986403D01*
X36111306Y-61933955D02*
X36098056Y-61959825D01*
X36125753Y-61908829D02*
X36111306Y-61933955D01*
X36141360Y-61884485D02*
X36125753Y-61908829D01*
X36158088Y-61860961D02*
X36141360Y-61884485D01*
X36175900Y-61838295D02*
X36158088Y-61860961D01*
X36194759Y-61816524D02*
X36175900Y-61838295D01*
X36214626Y-61795686D02*
X36194759Y-61816524D01*
X36235463Y-61775820D02*
X36214626Y-61795686D01*
X36257234Y-61756961D02*
X36235463Y-61775820D01*
X36279900Y-61739149D02*
X36257234Y-61756961D01*
X36303424Y-61722421D02*
X36279900Y-61739149D01*
X36327768Y-61706814D02*
X36303424Y-61722421D01*
X36352894Y-61692367D02*
X36327768Y-61706814D01*
X36378765Y-61679117D02*
X36352894Y-61692367D01*
X36405343Y-61667101D02*
X36378765Y-61679117D01*
X36432590Y-61656358D02*
X36405343Y-61667101D01*
X36460468Y-61646925D02*
X36432590Y-61656358D01*
X36488940Y-61638840D02*
X36460468Y-61646925D01*
X36517969Y-61632140D02*
X36488940Y-61638840D01*
X36547516Y-61626863D02*
X36517969Y-61632140D01*
X36577543Y-61623048D02*
X36547516Y-61626863D01*
X36608013Y-61620731D02*
X36577543Y-61623048D01*
X36638889Y-61619950D02*
X36608013Y-61620731D01*
X36638889Y-61619950D02*
X36638889Y-61619950D01*
X36669765Y-61620731D02*
X36638889Y-61619950D01*
X36700236Y-61623048D02*
X36669765Y-61620731D01*
X36730263Y-61626863D02*
X36700236Y-61623048D01*
X36759810Y-61632140D02*
X36730263Y-61626863D01*
X36788839Y-61638840D02*
X36759810Y-61632140D01*
X36817311Y-61646925D02*
X36788839Y-61638840D01*
X36845190Y-61656358D02*
X36817311Y-61646925D01*
X36872437Y-61667101D02*
X36845190Y-61656358D01*
X36899014Y-61679117D02*
X36872437Y-61667101D01*
X36924885Y-61692367D02*
X36899014Y-61679117D01*
X36950011Y-61706814D02*
X36924885Y-61692367D01*
X36974355Y-61722421D02*
X36950011Y-61706814D01*
X36997879Y-61739149D02*
X36974355Y-61722421D01*
X37020545Y-61756961D02*
X36997879Y-61739149D01*
X37042316Y-61775820D02*
X37020545Y-61756961D01*
X37063154Y-61795686D02*
X37042316Y-61775820D01*
X37083021Y-61816524D02*
X37063154Y-61795686D01*
X37101879Y-61838295D02*
X37083021Y-61816524D01*
X37119691Y-61860961D02*
X37101879Y-61838295D01*
X37136419Y-61884485D02*
X37119691Y-61860961D01*
X37152026Y-61908829D02*
X37136419Y-61884485D01*
X37166473Y-61933955D02*
X37152026Y-61908829D01*
X37179723Y-61959825D02*
X37166473Y-61933955D01*
X37191739Y-61986403D02*
X37179723Y-61959825D01*
X37202482Y-62013650D02*
X37191739Y-61986403D01*
X37211915Y-62041528D02*
X37202482Y-62013650D01*
X37220000Y-62070000D02*
X37211915Y-62041528D01*
X37226700Y-62099029D02*
X37220000Y-62070000D01*
X37231976Y-62128575D02*
X37226700Y-62099029D01*
X37235792Y-62158602D02*
X37231976Y-62128575D01*
X37238109Y-62189073D02*
X37235792Y-62158602D01*
X37238890Y-62219948D02*
X37238109Y-62189073D01*
X37238890Y-57378716D02*
X37238890Y-57378716D01*
X37238890Y-57378716D02*
X37238890Y-57378716D01*
X37238109Y-57409592D02*
X37238890Y-57378716D01*
X37235792Y-57440062D02*
X37238109Y-57409592D01*
X37231976Y-57470089D02*
X37235792Y-57440062D01*
X37226700Y-57499636D02*
X37231976Y-57470089D01*
X37220000Y-57528664D02*
X37226700Y-57499636D01*
X37211915Y-57557136D02*
X37220000Y-57528664D01*
X37202482Y-57585015D02*
X37211915Y-57557136D01*
X37191739Y-57612262D02*
X37202482Y-57585015D01*
X37179723Y-57638839D02*
X37191739Y-57612262D01*
X37166473Y-57664710D02*
X37179723Y-57638839D01*
X37152026Y-57689836D02*
X37166473Y-57664710D01*
X37136419Y-57714180D02*
X37152026Y-57689836D01*
X37119691Y-57737704D02*
X37136419Y-57714180D01*
X37101879Y-57760370D02*
X37119691Y-57737704D01*
X37083021Y-57782141D02*
X37101879Y-57760370D01*
X37063154Y-57802978D02*
X37083021Y-57782141D01*
X37042316Y-57822845D02*
X37063154Y-57802978D01*
X37020545Y-57841703D02*
X37042316Y-57822845D01*
X36997879Y-57859515D02*
X37020545Y-57841703D01*
X36974355Y-57876244D02*
X36997879Y-57859515D01*
X36950011Y-57891850D02*
X36974355Y-57876244D01*
X36924885Y-57906298D02*
X36950011Y-57891850D01*
X36899014Y-57919548D02*
X36924885Y-57906298D01*
X36872437Y-57931563D02*
X36899014Y-57919548D01*
X36845190Y-57942307D02*
X36872437Y-57931563D01*
X36817311Y-57951740D02*
X36845190Y-57942307D01*
X36788839Y-57959825D02*
X36817311Y-57951740D01*
X36759810Y-57966525D02*
X36788839Y-57959825D01*
X36730263Y-57971801D02*
X36759810Y-57966525D01*
X36700236Y-57975617D02*
X36730263Y-57971801D01*
X36669765Y-57977934D02*
X36700236Y-57975617D01*
X36638889Y-57978715D02*
X36669765Y-57977934D01*
X36638889Y-57978715D02*
X36638889Y-57978715D01*
X36608013Y-57977934D02*
X36638889Y-57978715D01*
X36577543Y-57975617D02*
X36608013Y-57977934D01*
X36547516Y-57971801D02*
X36577543Y-57975617D01*
X36517969Y-57966525D02*
X36547516Y-57971801D01*
X36488940Y-57959825D02*
X36517969Y-57966525D01*
X36460468Y-57951740D02*
X36488940Y-57959825D01*
X36432590Y-57942307D02*
X36460468Y-57951740D01*
X36405343Y-57931563D02*
X36432590Y-57942307D01*
X36378765Y-57919548D02*
X36405343Y-57931563D01*
X36352894Y-57906298D02*
X36378765Y-57919548D01*
X36327768Y-57891850D02*
X36352894Y-57906298D01*
X36303424Y-57876244D02*
X36327768Y-57891850D01*
X36279900Y-57859515D02*
X36303424Y-57876244D01*
X36257234Y-57841703D02*
X36279900Y-57859515D01*
X36235463Y-57822845D02*
X36257234Y-57841703D01*
X36214626Y-57802978D02*
X36235463Y-57822845D01*
X36194759Y-57782141D02*
X36214626Y-57802978D01*
X36175900Y-57760370D02*
X36194759Y-57782141D01*
X36158088Y-57737704D02*
X36175900Y-57760370D01*
X36141360Y-57714180D02*
X36158088Y-57737704D01*
X36125753Y-57689836D02*
X36141360Y-57714180D01*
X36111306Y-57664710D02*
X36125753Y-57689836D01*
X36098056Y-57638839D02*
X36111306Y-57664710D01*
X36086040Y-57612262D02*
X36098056Y-57638839D01*
X36075297Y-57585015D02*
X36086040Y-57612262D01*
X36065864Y-57557136D02*
X36075297Y-57585015D01*
X36057779Y-57528664D02*
X36065864Y-57557136D01*
X36051079Y-57499636D02*
X36057779Y-57528664D01*
X36045802Y-57470089D02*
X36051079Y-57499636D01*
X36041987Y-57440062D02*
X36045802Y-57470089D01*
X36039670Y-57409592D02*
X36041987Y-57440062D01*
X36038889Y-57378716D02*
X36039670Y-57409592D01*
X36038889Y-57378716D02*
X36038889Y-57378716D01*
X36039670Y-57347841D02*
X36038889Y-57378716D01*
X36041987Y-57317370D02*
X36039670Y-57347841D01*
X36045802Y-57287343D02*
X36041987Y-57317370D01*
X36051079Y-57257796D02*
X36045802Y-57287343D01*
X36057779Y-57228768D02*
X36051079Y-57257796D01*
X36065864Y-57200296D02*
X36057779Y-57228768D01*
X36075297Y-57172418D02*
X36065864Y-57200296D01*
X36086040Y-57145171D02*
X36075297Y-57172418D01*
X36098056Y-57118593D02*
X36086040Y-57145171D01*
X36111306Y-57092722D02*
X36098056Y-57118593D01*
X36125753Y-57067596D02*
X36111306Y-57092722D01*
X36141360Y-57043252D02*
X36125753Y-57067596D01*
X36158088Y-57019729D02*
X36141360Y-57043252D01*
X36175900Y-56997062D02*
X36158088Y-57019729D01*
X36194759Y-56975292D02*
X36175900Y-56997062D01*
X36214626Y-56954454D02*
X36194759Y-56975292D01*
X36235463Y-56934587D02*
X36214626Y-56954454D01*
X36257234Y-56915729D02*
X36235463Y-56934587D01*
X36279900Y-56897917D02*
X36257234Y-56915729D01*
X36303424Y-56881189D02*
X36279900Y-56897917D01*
X36327768Y-56865582D02*
X36303424Y-56881189D01*
X36352894Y-56851135D02*
X36327768Y-56865582D01*
X36378765Y-56837884D02*
X36352894Y-56851135D01*
X36405343Y-56825869D02*
X36378765Y-56837884D01*
X36432590Y-56815126D02*
X36405343Y-56825869D01*
X36460468Y-56805693D02*
X36432590Y-56815126D01*
X36488940Y-56797607D02*
X36460468Y-56805693D01*
X36517969Y-56790908D02*
X36488940Y-56797607D01*
X36547516Y-56785631D02*
X36517969Y-56790908D01*
X36577543Y-56781815D02*
X36547516Y-56785631D01*
X36608013Y-56779498D02*
X36577543Y-56781815D01*
X36638889Y-56778718D02*
X36608013Y-56779498D01*
X36638889Y-56778718D02*
X36638889Y-56778718D01*
X36669765Y-56779498D02*
X36638889Y-56778718D01*
X36700236Y-56781815D02*
X36669765Y-56779498D01*
X36730263Y-56785631D02*
X36700236Y-56781815D01*
X36759810Y-56790908D02*
X36730263Y-56785631D01*
X36788839Y-56797607D02*
X36759810Y-56790908D01*
X36817311Y-56805693D02*
X36788839Y-56797607D01*
X36845190Y-56815126D02*
X36817311Y-56805693D01*
X36872437Y-56825869D02*
X36845190Y-56815126D01*
X36899014Y-56837884D02*
X36872437Y-56825869D01*
X36924885Y-56851135D02*
X36899014Y-56837884D01*
X36950011Y-56865582D02*
X36924885Y-56851135D01*
X36974355Y-56881189D02*
X36950011Y-56865582D01*
X36997879Y-56897917D02*
X36974355Y-56881189D01*
X37020545Y-56915729D02*
X36997879Y-56897917D01*
X37042316Y-56934587D02*
X37020545Y-56915729D01*
X37063154Y-56954454D02*
X37042316Y-56934587D01*
X37083021Y-56975292D02*
X37063154Y-56954454D01*
X37101879Y-56997062D02*
X37083021Y-56975292D01*
X37119691Y-57019729D02*
X37101879Y-56997062D01*
X37136419Y-57043252D02*
X37119691Y-57019729D01*
X37152026Y-57067596D02*
X37136419Y-57043252D01*
X37166473Y-57092722D02*
X37152026Y-57067596D01*
X37179723Y-57118593D02*
X37166473Y-57092722D01*
X37191739Y-57145171D02*
X37179723Y-57118593D01*
X37202482Y-57172418D02*
X37191739Y-57145171D01*
X37211915Y-57200296D02*
X37202482Y-57172418D01*
X37220000Y-57228768D02*
X37211915Y-57200296D01*
X37226700Y-57257796D02*
X37220000Y-57228768D01*
X37231976Y-57287343D02*
X37226700Y-57257796D01*
X37235792Y-57317370D02*
X37231976Y-57287343D01*
X37238109Y-57347841D02*
X37235792Y-57317370D01*
X37238890Y-57378716D02*
X37238109Y-57347841D01*
X38957640Y-55563256D02*
X38957640Y-55563256D01*
X38957640Y-55563256D02*
X38957640Y-55563256D01*
X38956859Y-55594132D02*
X38957640Y-55563256D01*
X38954542Y-55624602D02*
X38956859Y-55594132D01*
X38950726Y-55654629D02*
X38954542Y-55624602D01*
X38945450Y-55684176D02*
X38950726Y-55654629D01*
X38938750Y-55713204D02*
X38945450Y-55684176D01*
X38930665Y-55741676D02*
X38938750Y-55713204D01*
X38921232Y-55769555D02*
X38930665Y-55741676D01*
X38910489Y-55796801D02*
X38921232Y-55769555D01*
X38898473Y-55823379D02*
X38910489Y-55796801D01*
X38885223Y-55849250D02*
X38898473Y-55823379D01*
X38870776Y-55874376D02*
X38885223Y-55849250D01*
X38855169Y-55898720D02*
X38870776Y-55874376D01*
X38838441Y-55922244D02*
X38855169Y-55898720D01*
X38820629Y-55944910D02*
X38838441Y-55922244D01*
X38801771Y-55966680D02*
X38820629Y-55944910D01*
X38781904Y-55987518D02*
X38801771Y-55966680D01*
X38761066Y-56007385D02*
X38781904Y-55987518D01*
X38739295Y-56026243D02*
X38761066Y-56007385D01*
X38716629Y-56044055D02*
X38739295Y-56026243D01*
X38693105Y-56060783D02*
X38716629Y-56044055D01*
X38668761Y-56076390D02*
X38693105Y-56060783D01*
X38643635Y-56090837D02*
X38668761Y-56076390D01*
X38617764Y-56104088D02*
X38643635Y-56090837D01*
X38591187Y-56116103D02*
X38617764Y-56104088D01*
X38563940Y-56126846D02*
X38591187Y-56116103D01*
X38536061Y-56136279D02*
X38563940Y-56126846D01*
X38507589Y-56144365D02*
X38536061Y-56136279D01*
X38478560Y-56151064D02*
X38507589Y-56144365D01*
X38449013Y-56156341D02*
X38478560Y-56151064D01*
X38418986Y-56160157D02*
X38449013Y-56156341D01*
X38388515Y-56162474D02*
X38418986Y-56160157D01*
X38357639Y-56163254D02*
X38388515Y-56162474D01*
X38357639Y-56163254D02*
X38357639Y-56163254D01*
X38326763Y-56162474D02*
X38357639Y-56163254D01*
X38296293Y-56160157D02*
X38326763Y-56162474D01*
X38266266Y-56156341D02*
X38296293Y-56160157D01*
X38236719Y-56151064D02*
X38266266Y-56156341D01*
X38207690Y-56144365D02*
X38236719Y-56151064D01*
X38179218Y-56136279D02*
X38207690Y-56144365D01*
X38151340Y-56126846D02*
X38179218Y-56136279D01*
X38124093Y-56116103D02*
X38151340Y-56126846D01*
X38097515Y-56104088D02*
X38124093Y-56116103D01*
X38071644Y-56090837D02*
X38097515Y-56104088D01*
X38046518Y-56076390D02*
X38071644Y-56090837D01*
X38022174Y-56060783D02*
X38046518Y-56076390D01*
X37998650Y-56044055D02*
X38022174Y-56060783D01*
X37975984Y-56026243D02*
X37998650Y-56044055D01*
X37954213Y-56007385D02*
X37975984Y-56026243D01*
X37933376Y-55987518D02*
X37954213Y-56007385D01*
X37913509Y-55966680D02*
X37933376Y-55987518D01*
X37894650Y-55944910D02*
X37913509Y-55966680D01*
X37876838Y-55922244D02*
X37894650Y-55944910D01*
X37860110Y-55898720D02*
X37876838Y-55922244D01*
X37844503Y-55874376D02*
X37860110Y-55898720D01*
X37830056Y-55849250D02*
X37844503Y-55874376D01*
X37816806Y-55823379D02*
X37830056Y-55849250D01*
X37804790Y-55796801D02*
X37816806Y-55823379D01*
X37794047Y-55769555D02*
X37804790Y-55796801D01*
X37784614Y-55741676D02*
X37794047Y-55769555D01*
X37776529Y-55713204D02*
X37784614Y-55741676D01*
X37769829Y-55684176D02*
X37776529Y-55713204D01*
X37764552Y-55654629D02*
X37769829Y-55684176D01*
X37760737Y-55624602D02*
X37764552Y-55654629D01*
X37758420Y-55594132D02*
X37760737Y-55624602D01*
X37757639Y-55563256D02*
X37758420Y-55594132D01*
X37757639Y-55563256D02*
X37757639Y-55563256D01*
X37758420Y-55532380D02*
X37757639Y-55563256D01*
X37760737Y-55501910D02*
X37758420Y-55532380D01*
X37764552Y-55471883D02*
X37760737Y-55501910D01*
X37769829Y-55442336D02*
X37764552Y-55471883D01*
X37776529Y-55413308D02*
X37769829Y-55442336D01*
X37784614Y-55384836D02*
X37776529Y-55413308D01*
X37794047Y-55356957D02*
X37784614Y-55384836D01*
X37804790Y-55329711D02*
X37794047Y-55356957D01*
X37816806Y-55303133D02*
X37804790Y-55329711D01*
X37830056Y-55277262D02*
X37816806Y-55303133D01*
X37844503Y-55252136D02*
X37830056Y-55277262D01*
X37860110Y-55227792D02*
X37844503Y-55252136D01*
X37876838Y-55204268D02*
X37860110Y-55227792D01*
X37894650Y-55181602D02*
X37876838Y-55204268D01*
X37913509Y-55159832D02*
X37894650Y-55181602D01*
X37933376Y-55138994D02*
X37913509Y-55159832D01*
X37954213Y-55119127D02*
X37933376Y-55138994D01*
X37975984Y-55100269D02*
X37954213Y-55119127D01*
X37998650Y-55082457D02*
X37975984Y-55100269D01*
X38022174Y-55065728D02*
X37998650Y-55082457D01*
X38046518Y-55050122D02*
X38022174Y-55065728D01*
X38071644Y-55035675D02*
X38046518Y-55050122D01*
X38097515Y-55022424D02*
X38071644Y-55035675D01*
X38124093Y-55010409D02*
X38097515Y-55022424D01*
X38151340Y-54999665D02*
X38124093Y-55010409D01*
X38179218Y-54990232D02*
X38151340Y-54999665D01*
X38207690Y-54982147D02*
X38179218Y-54990232D01*
X38236719Y-54975447D02*
X38207690Y-54982147D01*
X38266266Y-54970171D02*
X38236719Y-54975447D01*
X38296293Y-54966355D02*
X38266266Y-54970171D01*
X38326763Y-54964038D02*
X38296293Y-54966355D01*
X38357639Y-54963257D02*
X38326763Y-54964038D01*
X38357639Y-54963257D02*
X38357639Y-54963257D01*
X38388515Y-54964038D02*
X38357639Y-54963257D01*
X38418986Y-54966355D02*
X38388515Y-54964038D01*
X38449013Y-54970171D02*
X38418986Y-54966355D01*
X38478560Y-54975447D02*
X38449013Y-54970171D01*
X38507589Y-54982147D02*
X38478560Y-54975447D01*
X38536061Y-54990232D02*
X38507589Y-54982147D01*
X38563940Y-54999665D02*
X38536061Y-54990232D01*
X38591187Y-55010409D02*
X38563940Y-54999665D01*
X38617764Y-55022424D02*
X38591187Y-55010409D01*
X38643635Y-55035675D02*
X38617764Y-55022424D01*
X38668761Y-55050122D02*
X38643635Y-55035675D01*
X38693105Y-55065728D02*
X38668761Y-55050122D01*
X38716629Y-55082457D02*
X38693105Y-55065728D01*
X38739295Y-55100269D02*
X38716629Y-55082457D01*
X38761066Y-55119127D02*
X38739295Y-55100269D01*
X38781904Y-55138994D02*
X38761066Y-55119127D01*
X38801771Y-55159832D02*
X38781904Y-55138994D01*
X38820629Y-55181602D02*
X38801771Y-55159832D01*
X38838441Y-55204268D02*
X38820629Y-55181602D01*
X38855169Y-55227792D02*
X38838441Y-55204268D01*
X38870776Y-55252136D02*
X38855169Y-55227792D01*
X38885223Y-55277262D02*
X38870776Y-55252136D01*
X38898473Y-55303133D02*
X38885223Y-55277262D01*
X38910489Y-55329711D02*
X38898473Y-55303133D01*
X38921232Y-55356957D02*
X38910489Y-55329711D01*
X38930665Y-55384836D02*
X38921232Y-55356957D01*
X38938750Y-55413308D02*
X38930665Y-55384836D01*
X38945450Y-55442336D02*
X38938750Y-55413308D01*
X38950726Y-55471883D02*
X38945450Y-55442336D01*
X38954542Y-55501910D02*
X38950726Y-55471883D01*
X38956859Y-55532380D02*
X38954542Y-55501910D01*
X38957640Y-55563256D02*
X38956859Y-55532380D01*
X41023489Y-14190255D02*
X27031625Y-14190255D01*
X41023489Y-14190255D02*
X41023489Y-14190255D01*
X55015352Y-14190255D02*
X41023489Y-14190255D01*
X55015352Y-14190255D02*
X55015352Y-14190255D01*
X67674734Y-61435708D02*
X55015352Y-14190255D01*
X67674734Y-61435708D02*
X67674734Y-61435708D01*
X58290972Y-67299332D02*
X67674734Y-61435708D01*
X58290972Y-67299332D02*
X58290972Y-67299332D01*
X41023489Y-67299332D02*
X58290972Y-67299332D01*
X41023489Y-67299332D02*
X41023489Y-67299332D01*
X23756006Y-67299332D02*
X41023489Y-67299332D01*
X23756006Y-67299332D02*
X23756006Y-67299332D01*
X14372244Y-61435708D02*
X23756006Y-67299332D01*
X14372244Y-61435708D02*
X14372244Y-61435708D01*
X27031625Y-14190255D02*
X14372244Y-61435708D01*
D11*
X43450000Y-55430000D03*
X45250000Y-57160000D03*
X45520000Y-61990000D03*
X43900000Y-63890000D03*
X38360000Y-64040000D03*
X36640000Y-62220000D03*
X36640000Y-57390000D03*
X38360000Y-55570000D03*
X56930000Y-36760000D03*
X63040000Y-59600000D03*
X18990000Y-59600000D03*
X25120000Y-36770000D03*
%LPC*%
D12*
%TO.C,Ref\u002A\u002A*%
X43450000Y-55430000D03*
%TD*%
%TO.C,Ref\u002A\u002A*%
X45250000Y-57160000D03*
%TD*%
%TO.C,Ref\u002A\u002A*%
X45520000Y-61990000D03*
%TD*%
%TO.C,Ref\u002A\u002A*%
X43900000Y-63890000D03*
%TD*%
%TO.C,Ref\u002A\u002A*%
X38360000Y-64040000D03*
%TD*%
%TO.C,Ref\u002A\u002A*%
X36640000Y-62220000D03*
%TD*%
%TO.C,Ref\u002A\u002A*%
X36640000Y-57390000D03*
%TD*%
%TO.C,Ref\u002A\u002A*%
X38360000Y-55570000D03*
%TD*%
D13*
%TO.C,REF\u002A\u002A*%
X56930000Y-36760000D03*
%TD*%
%TO.C,REF\u002A\u002A*%
X63040000Y-59600000D03*
%TD*%
%TO.C,REF\u002A\u002A*%
X18990000Y-59600000D03*
%TD*%
%TO.C,REF\u002A\u002A*%
X25120000Y-36770000D03*
%TD*%
M02*
