%TF.GenerationSoftware,KiCad,Pcbnew,(6.0.6)*%
%TF.CreationDate,2022-07-10T10:04:06+09:00*%
%TF.ProjectId,nowt_promicro_plate_C,6e6f7774-5f70-4726-9f6d-6963726f5f70,rev?*%
%TF.SameCoordinates,Original*%
%TF.FileFunction,Copper,L2,Bot*%
%TF.FilePolarity,Positive*%
%FSLAX46Y46*%
G04 Gerber Fmt 4.6, Leading zero omitted, Abs format (unit mm)*
G04 Created by KiCad (PCBNEW (6.0.6)) date 2022-07-10 10:04:06*
%MOMM*%
%LPD*%
G01*
G04 APERTURE LIST*
%TA.AperFunction,Profile*%
%ADD10C,0.349999*%
%TD*%
%TA.AperFunction,ComponentPad*%
%ADD11C,2.300000*%
%TD*%
%ADD12C,0.350000*%
G04 APERTURE END LIST*
D10*
X46110529Y-61985703D02*
X46110529Y-61985703D01*
X46110529Y-61985703D02*
X46110529Y-61985703D01*
X46109748Y-62016579D02*
X46110529Y-61985703D01*
X46107431Y-62047049D02*
X46109748Y-62016579D01*
X46103616Y-62077076D02*
X46107431Y-62047049D01*
X46098339Y-62106623D02*
X46103616Y-62077076D01*
X46091639Y-62135651D02*
X46098339Y-62106623D01*
X46083554Y-62164123D02*
X46091639Y-62135651D01*
X46074121Y-62192002D02*
X46083554Y-62164123D01*
X46063378Y-62219249D02*
X46074121Y-62192002D01*
X46051363Y-62245826D02*
X46063378Y-62219249D01*
X46038113Y-62271697D02*
X46051363Y-62245826D01*
X46023665Y-62296823D02*
X46038113Y-62271697D01*
X46008059Y-62321167D02*
X46023665Y-62296823D01*
X45991331Y-62344691D02*
X46008059Y-62321167D01*
X45973519Y-62367357D02*
X45991331Y-62344691D01*
X45954661Y-62389128D02*
X45973519Y-62367357D01*
X45934794Y-62409965D02*
X45954661Y-62389128D01*
X45913956Y-62429832D02*
X45934794Y-62409965D01*
X45892186Y-62448690D02*
X45913956Y-62429832D01*
X45869520Y-62466502D02*
X45892186Y-62448690D01*
X45845996Y-62483231D02*
X45869520Y-62466502D01*
X45821652Y-62498837D02*
X45845996Y-62483231D01*
X45796526Y-62513285D02*
X45821652Y-62498837D01*
X45770655Y-62526535D02*
X45796526Y-62513285D01*
X45744077Y-62538550D02*
X45770655Y-62526535D01*
X45716831Y-62549294D02*
X45744077Y-62538550D01*
X45688952Y-62558727D02*
X45716831Y-62549294D01*
X45660480Y-62566812D02*
X45688952Y-62558727D01*
X45631451Y-62573512D02*
X45660480Y-62566812D01*
X45601905Y-62578788D02*
X45631451Y-62573512D01*
X45571877Y-62582604D02*
X45601905Y-62578788D01*
X45541406Y-62584921D02*
X45571877Y-62582604D01*
X45510530Y-62585702D02*
X45541406Y-62584921D01*
X45510530Y-62585702D02*
X45510530Y-62585702D01*
X45479654Y-62584921D02*
X45510530Y-62585702D01*
X45449184Y-62582604D02*
X45479654Y-62584921D01*
X45419156Y-62578788D02*
X45449184Y-62582604D01*
X45389609Y-62573512D02*
X45419156Y-62578788D01*
X45360581Y-62566812D02*
X45389609Y-62573512D01*
X45332109Y-62558727D02*
X45360581Y-62566812D01*
X45304230Y-62549294D02*
X45332109Y-62558727D01*
X45276983Y-62538550D02*
X45304230Y-62549294D01*
X45250406Y-62526535D02*
X45276983Y-62538550D01*
X45224535Y-62513285D02*
X45250406Y-62526535D01*
X45199409Y-62498837D02*
X45224535Y-62513285D01*
X45175065Y-62483231D02*
X45199409Y-62498837D01*
X45151541Y-62466502D02*
X45175065Y-62483231D01*
X45128875Y-62448690D02*
X45151541Y-62466502D01*
X45107104Y-62429832D02*
X45128875Y-62448690D01*
X45086267Y-62409965D02*
X45107104Y-62429832D01*
X45066400Y-62389128D02*
X45086267Y-62409965D01*
X45047542Y-62367357D02*
X45066400Y-62389128D01*
X45029730Y-62344691D02*
X45047542Y-62367357D01*
X45013002Y-62321167D02*
X45029730Y-62344691D01*
X44997395Y-62296823D02*
X45013002Y-62321167D01*
X44982948Y-62271697D02*
X44997395Y-62296823D01*
X44969698Y-62245826D02*
X44982948Y-62271697D01*
X44957683Y-62219249D02*
X44969698Y-62245826D01*
X44946940Y-62192002D02*
X44957683Y-62219249D01*
X44937507Y-62164123D02*
X44946940Y-62192002D01*
X44929421Y-62135651D02*
X44937507Y-62164123D01*
X44922722Y-62106623D02*
X44929421Y-62135651D01*
X44917445Y-62077076D02*
X44922722Y-62106623D01*
X44913630Y-62047049D02*
X44917445Y-62077076D01*
X44911313Y-62016579D02*
X44913630Y-62047049D01*
X44910532Y-61985703D02*
X44911313Y-62016579D01*
X44910532Y-61985703D02*
X44910532Y-61985703D01*
X44911313Y-61954828D02*
X44910532Y-61985703D01*
X44913630Y-61924357D02*
X44911313Y-61954828D01*
X44917445Y-61894330D02*
X44913630Y-61924357D01*
X44922722Y-61864783D02*
X44917445Y-61894330D01*
X44929421Y-61835755D02*
X44922722Y-61864783D01*
X44937507Y-61807283D02*
X44929421Y-61835755D01*
X44946940Y-61779405D02*
X44937507Y-61807283D01*
X44957683Y-61752158D02*
X44946940Y-61779405D01*
X44969698Y-61725580D02*
X44957683Y-61752158D01*
X44982948Y-61699709D02*
X44969698Y-61725580D01*
X44997395Y-61674583D02*
X44982948Y-61699709D01*
X45013002Y-61650239D02*
X44997395Y-61674583D01*
X45029730Y-61626716D02*
X45013002Y-61650239D01*
X45047542Y-61604049D02*
X45029730Y-61626716D01*
X45066400Y-61582279D02*
X45047542Y-61604049D01*
X45086267Y-61561441D02*
X45066400Y-61582279D01*
X45107104Y-61541574D02*
X45086267Y-61561441D01*
X45128875Y-61522716D02*
X45107104Y-61541574D01*
X45151541Y-61504904D02*
X45128875Y-61522716D01*
X45175065Y-61488176D02*
X45151541Y-61504904D01*
X45199409Y-61472569D02*
X45175065Y-61488176D01*
X45224535Y-61458122D02*
X45199409Y-61472569D01*
X45250406Y-61444871D02*
X45224535Y-61458122D01*
X45276983Y-61432856D02*
X45250406Y-61444871D01*
X45304230Y-61422113D02*
X45276983Y-61432856D01*
X45332109Y-61412680D02*
X45304230Y-61422113D01*
X45360581Y-61404594D02*
X45332109Y-61412680D01*
X45389609Y-61397895D02*
X45360581Y-61404594D01*
X45419156Y-61392618D02*
X45389609Y-61397895D01*
X45449184Y-61388802D02*
X45419156Y-61392618D01*
X45479654Y-61386485D02*
X45449184Y-61388802D01*
X45510530Y-61385705D02*
X45479654Y-61386485D01*
X45510530Y-61385705D02*
X45510530Y-61385705D01*
X45541406Y-61386485D02*
X45510530Y-61385705D01*
X45571877Y-61388802D02*
X45541406Y-61386485D01*
X45601905Y-61392618D02*
X45571877Y-61388802D01*
X45631451Y-61397895D02*
X45601905Y-61392618D01*
X45660480Y-61404594D02*
X45631451Y-61397895D01*
X45688952Y-61412680D02*
X45660480Y-61404594D01*
X45716831Y-61422113D02*
X45688952Y-61412680D01*
X45744077Y-61432856D02*
X45716831Y-61422113D01*
X45770655Y-61444871D02*
X45744077Y-61432856D01*
X45796526Y-61458122D02*
X45770655Y-61444871D01*
X45821652Y-61472569D02*
X45796526Y-61458122D01*
X45845996Y-61488176D02*
X45821652Y-61472569D01*
X45869520Y-61504904D02*
X45845996Y-61488176D01*
X45892186Y-61522716D02*
X45869520Y-61504904D01*
X45913956Y-61541574D02*
X45892186Y-61522716D01*
X45934794Y-61561441D02*
X45913956Y-61541574D01*
X45954661Y-61582279D02*
X45934794Y-61561441D01*
X45973519Y-61604049D02*
X45954661Y-61582279D01*
X45991331Y-61626716D02*
X45973519Y-61604049D01*
X46008059Y-61650239D02*
X45991331Y-61626716D01*
X46023665Y-61674583D02*
X46008059Y-61650239D01*
X46038113Y-61699709D02*
X46023665Y-61674583D01*
X46051363Y-61725580D02*
X46038113Y-61699709D01*
X46063378Y-61752158D02*
X46051363Y-61725580D01*
X46074121Y-61779405D02*
X46063378Y-61752158D01*
X46083554Y-61807283D02*
X46074121Y-61779405D01*
X46091639Y-61835755D02*
X46083554Y-61807283D01*
X46098339Y-61864783D02*
X46091639Y-61835755D01*
X46103616Y-61894330D02*
X46098339Y-61864783D01*
X46107431Y-61924357D02*
X46103616Y-61894330D01*
X46109748Y-61954828D02*
X46107431Y-61924357D01*
X46110529Y-61985703D02*
X46109748Y-61954828D01*
X44042898Y-55428986D02*
X44042898Y-55428986D01*
X44042898Y-55428986D02*
X44042898Y-55428986D01*
X44042117Y-55459862D02*
X44042898Y-55428986D01*
X44039800Y-55490332D02*
X44042117Y-55459862D01*
X44035985Y-55520359D02*
X44039800Y-55490332D01*
X44030708Y-55549906D02*
X44035985Y-55520359D01*
X44024009Y-55578934D02*
X44030708Y-55549906D01*
X44015923Y-55607406D02*
X44024009Y-55578934D01*
X44006491Y-55635285D02*
X44015923Y-55607406D01*
X43995747Y-55662532D02*
X44006491Y-55635285D01*
X43983732Y-55689109D02*
X43995747Y-55662532D01*
X43970482Y-55714980D02*
X43983732Y-55689109D01*
X43956035Y-55740106D02*
X43970482Y-55714980D01*
X43940428Y-55764450D02*
X43956035Y-55740106D01*
X43923700Y-55787974D02*
X43940428Y-55764450D01*
X43905888Y-55810640D02*
X43923700Y-55787974D01*
X43887030Y-55832411D02*
X43905888Y-55810640D01*
X43867163Y-55853248D02*
X43887030Y-55832411D01*
X43846326Y-55873115D02*
X43867163Y-55853248D01*
X43824555Y-55891973D02*
X43846326Y-55873115D01*
X43801889Y-55909786D02*
X43824555Y-55891973D01*
X43778365Y-55926514D02*
X43801889Y-55909786D01*
X43754021Y-55942120D02*
X43778365Y-55926514D01*
X43728895Y-55956568D02*
X43754021Y-55942120D01*
X43703024Y-55969818D02*
X43728895Y-55956568D01*
X43676447Y-55981833D02*
X43703024Y-55969818D01*
X43649200Y-55992577D02*
X43676447Y-55981833D01*
X43621321Y-56002010D02*
X43649200Y-55992577D01*
X43592849Y-56010095D02*
X43621321Y-56002010D01*
X43563821Y-56016795D02*
X43592849Y-56010095D01*
X43534274Y-56022071D02*
X43563821Y-56016795D01*
X43504246Y-56025887D02*
X43534274Y-56022071D01*
X43473776Y-56028204D02*
X43504246Y-56025887D01*
X43442900Y-56028985D02*
X43473776Y-56028204D01*
X43442900Y-56028985D02*
X43442900Y-56028985D01*
X43412024Y-56028204D02*
X43442900Y-56028985D01*
X43381553Y-56025887D02*
X43412024Y-56028204D01*
X43351525Y-56022071D02*
X43381553Y-56025887D01*
X43321979Y-56016795D02*
X43351525Y-56022071D01*
X43292950Y-56010095D02*
X43321979Y-56016795D01*
X43264478Y-56002010D02*
X43292950Y-56010095D01*
X43236599Y-55992577D02*
X43264478Y-56002010D01*
X43209352Y-55981833D02*
X43236599Y-55992577D01*
X43182775Y-55969818D02*
X43209352Y-55981833D01*
X43156904Y-55956568D02*
X43182775Y-55969818D01*
X43131778Y-55942120D02*
X43156904Y-55956568D01*
X43107434Y-55926514D02*
X43131778Y-55942120D01*
X43083910Y-55909786D02*
X43107434Y-55926514D01*
X43061244Y-55891973D02*
X43083910Y-55909786D01*
X43039473Y-55873115D02*
X43061244Y-55891973D01*
X43018635Y-55853248D02*
X43039473Y-55873115D01*
X42998768Y-55832411D02*
X43018635Y-55853248D01*
X42979910Y-55810640D02*
X42998768Y-55832411D01*
X42962098Y-55787974D02*
X42979910Y-55810640D01*
X42945370Y-55764450D02*
X42962098Y-55787974D01*
X42929763Y-55740106D02*
X42945370Y-55764450D01*
X42915316Y-55714980D02*
X42929763Y-55740106D01*
X42902066Y-55689109D02*
X42915316Y-55714980D01*
X42890050Y-55662532D02*
X42902066Y-55689109D01*
X42879307Y-55635285D02*
X42890050Y-55662532D01*
X42869874Y-55607406D02*
X42879307Y-55635285D01*
X42861789Y-55578934D02*
X42869874Y-55607406D01*
X42855089Y-55549906D02*
X42861789Y-55578934D01*
X42849813Y-55520359D02*
X42855089Y-55549906D01*
X42845997Y-55490332D02*
X42849813Y-55520359D01*
X42843680Y-55459862D02*
X42845997Y-55490332D01*
X42842899Y-55428986D02*
X42843680Y-55459862D01*
X42842899Y-55428986D02*
X42842899Y-55428986D01*
X42843680Y-55398111D02*
X42842899Y-55428986D01*
X42845997Y-55367640D02*
X42843680Y-55398111D01*
X42849813Y-55337613D02*
X42845997Y-55367640D01*
X42855089Y-55308066D02*
X42849813Y-55337613D01*
X42861789Y-55279038D02*
X42855089Y-55308066D01*
X42869874Y-55250566D02*
X42861789Y-55279038D01*
X42879307Y-55222688D02*
X42869874Y-55250566D01*
X42890050Y-55195441D02*
X42879307Y-55222688D01*
X42902066Y-55168863D02*
X42890050Y-55195441D01*
X42915316Y-55142992D02*
X42902066Y-55168863D01*
X42929763Y-55117866D02*
X42915316Y-55142992D01*
X42945370Y-55093522D02*
X42929763Y-55117866D01*
X42962098Y-55069999D02*
X42945370Y-55093522D01*
X42979910Y-55047333D02*
X42962098Y-55069999D01*
X42998768Y-55025562D02*
X42979910Y-55047333D01*
X43018635Y-55004724D02*
X42998768Y-55025562D01*
X43039473Y-54984857D02*
X43018635Y-55004724D01*
X43061244Y-54965999D02*
X43039473Y-54984857D01*
X43083910Y-54948187D02*
X43061244Y-54965999D01*
X43107434Y-54931459D02*
X43083910Y-54948187D01*
X43131778Y-54915852D02*
X43107434Y-54931459D01*
X43156904Y-54901405D02*
X43131778Y-54915852D01*
X43182775Y-54888155D02*
X43156904Y-54901405D01*
X43209352Y-54876139D02*
X43182775Y-54888155D01*
X43236599Y-54865396D02*
X43209352Y-54876139D01*
X43264478Y-54855963D02*
X43236599Y-54865396D01*
X43292950Y-54847877D02*
X43264478Y-54855963D01*
X43321979Y-54841178D02*
X43292950Y-54847877D01*
X43351525Y-54835901D02*
X43321979Y-54841178D01*
X43381553Y-54832085D02*
X43351525Y-54835901D01*
X43412024Y-54829768D02*
X43381553Y-54832085D01*
X43442900Y-54828988D02*
X43412024Y-54829768D01*
X43442900Y-54828988D02*
X43442900Y-54828988D01*
X43473776Y-54829768D02*
X43442900Y-54828988D01*
X43504246Y-54832085D02*
X43473776Y-54829768D01*
X43534274Y-54835901D02*
X43504246Y-54832085D01*
X43563821Y-54841178D02*
X43534274Y-54835901D01*
X43592849Y-54847877D02*
X43563821Y-54841178D01*
X43621321Y-54855963D02*
X43592849Y-54847877D01*
X43649200Y-54865396D02*
X43621321Y-54855963D01*
X43676447Y-54876139D02*
X43649200Y-54865396D01*
X43703024Y-54888155D02*
X43676447Y-54876139D01*
X43728895Y-54901405D02*
X43703024Y-54888155D01*
X43754021Y-54915852D02*
X43728895Y-54901405D01*
X43778365Y-54931459D02*
X43754021Y-54915852D01*
X43801889Y-54948187D02*
X43778365Y-54931459D01*
X43824555Y-54965999D02*
X43801889Y-54948187D01*
X43846326Y-54984857D02*
X43824555Y-54965999D01*
X43867163Y-55004724D02*
X43846326Y-54984857D01*
X43887030Y-55025562D02*
X43867163Y-55004724D01*
X43905888Y-55047333D02*
X43887030Y-55025562D01*
X43923700Y-55069999D02*
X43905888Y-55047333D01*
X43940428Y-55093522D02*
X43923700Y-55069999D01*
X43956035Y-55117866D02*
X43940428Y-55093522D01*
X43970482Y-55142992D02*
X43956035Y-55117866D01*
X43983732Y-55168863D02*
X43970482Y-55142992D01*
X43995747Y-55195441D02*
X43983732Y-55168863D01*
X44006491Y-55222688D02*
X43995747Y-55195441D01*
X44015923Y-55250566D02*
X44006491Y-55222688D01*
X44024009Y-55279038D02*
X44015923Y-55250566D01*
X44030708Y-55308066D02*
X44024009Y-55279038D01*
X44035985Y-55337613D02*
X44030708Y-55308066D01*
X44039800Y-55367640D02*
X44035985Y-55337613D01*
X44042117Y-55398111D02*
X44039800Y-55367640D01*
X44042898Y-55428986D02*
X44042117Y-55398111D01*
X44489979Y-63889329D02*
X44489979Y-63889329D01*
X44489979Y-63889329D02*
X44489979Y-63889329D01*
X44489198Y-63920204D02*
X44489979Y-63889329D01*
X44486881Y-63950675D02*
X44489198Y-63920204D01*
X44483065Y-63980702D02*
X44486881Y-63950675D01*
X44477789Y-64010249D02*
X44483065Y-63980702D01*
X44471089Y-64039277D02*
X44477789Y-64010249D01*
X44463004Y-64067749D02*
X44471089Y-64039277D01*
X44453571Y-64095627D02*
X44463004Y-64067749D01*
X44442828Y-64122874D02*
X44453571Y-64095627D01*
X44430812Y-64149452D02*
X44442828Y-64122874D01*
X44417562Y-64175322D02*
X44430812Y-64149452D01*
X44403115Y-64200449D02*
X44417562Y-64175322D01*
X44387508Y-64224792D02*
X44403115Y-64200449D01*
X44370780Y-64248316D02*
X44387508Y-64224792D01*
X44352968Y-64270982D02*
X44370780Y-64248316D01*
X44334110Y-64292753D02*
X44352968Y-64270982D01*
X44314243Y-64313591D02*
X44334110Y-64292753D01*
X44293405Y-64333457D02*
X44314243Y-64313591D01*
X44271634Y-64352316D02*
X44293405Y-64333457D01*
X44248968Y-64370128D02*
X44271634Y-64352316D01*
X44225444Y-64386856D02*
X44248968Y-64370128D01*
X44201100Y-64402463D02*
X44225444Y-64386856D01*
X44175974Y-64416910D02*
X44201100Y-64402463D01*
X44150103Y-64430160D02*
X44175974Y-64416910D01*
X44123526Y-64442176D02*
X44150103Y-64430160D01*
X44096279Y-64452919D02*
X44123526Y-64442176D01*
X44068400Y-64462352D02*
X44096279Y-64452919D01*
X44039928Y-64470437D02*
X44068400Y-64462352D01*
X44010899Y-64477137D02*
X44039928Y-64470437D01*
X43981353Y-64482414D02*
X44010899Y-64477137D01*
X43951325Y-64486229D02*
X43981353Y-64482414D01*
X43920854Y-64488546D02*
X43951325Y-64486229D01*
X43889978Y-64489327D02*
X43920854Y-64488546D01*
X43889978Y-64489327D02*
X43889978Y-64489327D01*
X43859102Y-64488546D02*
X43889978Y-64489327D01*
X43828632Y-64486229D02*
X43859102Y-64488546D01*
X43798604Y-64482414D02*
X43828632Y-64486229D01*
X43769057Y-64477137D02*
X43798604Y-64482414D01*
X43740029Y-64470437D02*
X43769057Y-64477137D01*
X43711557Y-64462352D02*
X43740029Y-64470437D01*
X43683678Y-64452919D02*
X43711557Y-64462352D01*
X43656431Y-64442176D02*
X43683678Y-64452919D01*
X43629853Y-64430160D02*
X43656431Y-64442176D01*
X43603982Y-64416910D02*
X43629853Y-64430160D01*
X43578856Y-64402463D02*
X43603982Y-64416910D01*
X43554512Y-64386856D02*
X43578856Y-64402463D01*
X43530988Y-64370128D02*
X43554512Y-64386856D01*
X43508322Y-64352316D02*
X43530988Y-64370128D01*
X43486552Y-64333457D02*
X43508322Y-64352316D01*
X43465714Y-64313591D02*
X43486552Y-64333457D01*
X43445847Y-64292753D02*
X43465714Y-64313591D01*
X43426989Y-64270982D02*
X43445847Y-64292753D01*
X43409177Y-64248316D02*
X43426989Y-64270982D01*
X43392449Y-64224792D02*
X43409177Y-64248316D01*
X43376842Y-64200449D02*
X43392449Y-64224792D01*
X43362395Y-64175322D02*
X43376842Y-64200449D01*
X43349144Y-64149452D02*
X43362395Y-64175322D01*
X43337129Y-64122874D02*
X43349144Y-64149452D01*
X43326386Y-64095627D02*
X43337129Y-64122874D01*
X43316953Y-64067749D02*
X43326386Y-64095627D01*
X43308868Y-64039277D02*
X43316953Y-64067749D01*
X43302168Y-64010249D02*
X43308868Y-64039277D01*
X43296891Y-63980702D02*
X43302168Y-64010249D01*
X43293076Y-63950675D02*
X43296891Y-63980702D01*
X43290759Y-63920204D02*
X43293076Y-63950675D01*
X43289978Y-63889329D02*
X43290759Y-63920204D01*
X43289978Y-63889329D02*
X43289978Y-63889329D01*
X43290759Y-63858453D02*
X43289978Y-63889329D01*
X43293076Y-63827983D02*
X43290759Y-63858453D01*
X43296891Y-63797955D02*
X43293076Y-63827983D01*
X43302168Y-63768409D02*
X43296891Y-63797955D01*
X43308868Y-63739380D02*
X43302168Y-63768409D01*
X43316953Y-63710908D02*
X43308868Y-63739380D01*
X43326386Y-63683030D02*
X43316953Y-63710908D01*
X43337129Y-63655783D02*
X43326386Y-63683030D01*
X43349144Y-63629206D02*
X43337129Y-63655783D01*
X43362395Y-63603335D02*
X43349144Y-63629206D01*
X43376842Y-63578209D02*
X43362395Y-63603335D01*
X43392449Y-63553865D02*
X43376842Y-63578209D01*
X43409177Y-63530341D02*
X43392449Y-63553865D01*
X43426989Y-63507675D02*
X43409177Y-63530341D01*
X43445847Y-63485904D02*
X43426989Y-63507675D01*
X43465714Y-63465067D02*
X43445847Y-63485904D01*
X43486552Y-63445200D02*
X43465714Y-63465067D01*
X43508322Y-63426341D02*
X43486552Y-63445200D01*
X43530988Y-63408529D02*
X43508322Y-63426341D01*
X43554512Y-63391801D02*
X43530988Y-63408529D01*
X43578856Y-63376195D02*
X43554512Y-63391801D01*
X43603982Y-63361747D02*
X43578856Y-63376195D01*
X43629853Y-63348497D02*
X43603982Y-63361747D01*
X43656431Y-63336481D02*
X43629853Y-63348497D01*
X43683678Y-63325738D02*
X43656431Y-63336481D01*
X43711557Y-63316305D02*
X43683678Y-63325738D01*
X43740029Y-63308220D02*
X43711557Y-63316305D01*
X43769057Y-63301520D02*
X43740029Y-63308220D01*
X43798604Y-63296244D02*
X43769057Y-63301520D01*
X43828632Y-63292428D02*
X43798604Y-63296244D01*
X43859102Y-63290111D02*
X43828632Y-63292428D01*
X43889978Y-63289330D02*
X43859102Y-63290111D01*
X43889978Y-63289330D02*
X43889978Y-63289330D01*
X43920854Y-63290111D02*
X43889978Y-63289330D01*
X43951325Y-63292428D02*
X43920854Y-63290111D01*
X43981353Y-63296244D02*
X43951325Y-63292428D01*
X44010899Y-63301520D02*
X43981353Y-63296244D01*
X44039928Y-63308220D02*
X44010899Y-63301520D01*
X44068400Y-63316305D02*
X44039928Y-63308220D01*
X44096279Y-63325738D02*
X44068400Y-63316305D01*
X44123526Y-63336481D02*
X44096279Y-63325738D01*
X44150103Y-63348497D02*
X44123526Y-63336481D01*
X44175974Y-63361747D02*
X44150103Y-63348497D01*
X44201100Y-63376195D02*
X44175974Y-63361747D01*
X44225444Y-63391801D02*
X44201100Y-63376195D01*
X44248968Y-63408529D02*
X44225444Y-63391801D01*
X44271634Y-63426341D02*
X44248968Y-63408529D01*
X44293405Y-63445200D02*
X44271634Y-63426341D01*
X44314243Y-63465067D02*
X44293405Y-63445200D01*
X44334110Y-63485904D02*
X44314243Y-63465067D01*
X44352968Y-63507675D02*
X44334110Y-63485904D01*
X44370780Y-63530341D02*
X44352968Y-63507675D01*
X44387508Y-63553865D02*
X44370780Y-63530341D01*
X44403115Y-63578209D02*
X44387508Y-63553865D01*
X44417562Y-63603335D02*
X44403115Y-63578209D01*
X44430812Y-63629206D02*
X44417562Y-63603335D01*
X44442828Y-63655783D02*
X44430812Y-63629206D01*
X44453571Y-63683030D02*
X44442828Y-63655783D01*
X44463004Y-63710908D02*
X44453571Y-63683030D01*
X44471089Y-63739380D02*
X44463004Y-63710908D01*
X44477789Y-63768409D02*
X44471089Y-63739380D01*
X44483065Y-63797955D02*
X44477789Y-63768409D01*
X44486881Y-63827983D02*
X44483065Y-63797955D01*
X44489198Y-63858453D02*
X44486881Y-63827983D01*
X44489979Y-63889329D02*
X44489198Y-63858453D01*
X45855059Y-57151215D02*
X45855059Y-57151215D01*
X45855059Y-57151215D02*
X45855059Y-57151215D01*
X45854278Y-57182091D02*
X45855059Y-57151215D01*
X45851961Y-57212561D02*
X45854278Y-57182091D01*
X45848145Y-57242588D02*
X45851961Y-57212561D01*
X45842869Y-57272135D02*
X45848145Y-57242588D01*
X45836169Y-57301163D02*
X45842869Y-57272135D01*
X45828084Y-57329635D02*
X45836169Y-57301163D01*
X45818651Y-57357514D02*
X45828084Y-57329635D01*
X45807907Y-57384761D02*
X45818651Y-57357514D01*
X45795892Y-57411338D02*
X45807907Y-57384761D01*
X45782641Y-57437209D02*
X45795892Y-57411338D01*
X45768194Y-57462335D02*
X45782641Y-57437209D01*
X45752587Y-57486679D02*
X45768194Y-57462335D01*
X45735859Y-57510203D02*
X45752587Y-57486679D01*
X45718047Y-57532869D02*
X45735859Y-57510203D01*
X45699189Y-57554640D02*
X45718047Y-57532869D01*
X45679322Y-57575477D02*
X45699189Y-57554640D01*
X45658484Y-57595344D02*
X45679322Y-57575477D01*
X45636713Y-57614202D02*
X45658484Y-57595344D01*
X45614047Y-57632015D02*
X45636713Y-57614202D01*
X45590523Y-57648743D02*
X45614047Y-57632015D01*
X45566179Y-57664349D02*
X45590523Y-57648743D01*
X45541053Y-57678797D02*
X45566179Y-57664349D01*
X45515182Y-57692047D02*
X45541053Y-57678797D01*
X45488604Y-57704062D02*
X45515182Y-57692047D01*
X45461357Y-57714806D02*
X45488604Y-57704062D01*
X45433478Y-57724239D02*
X45461357Y-57714806D01*
X45405006Y-57732324D02*
X45433478Y-57724239D01*
X45375977Y-57739024D02*
X45405006Y-57732324D01*
X45346431Y-57744300D02*
X45375977Y-57739024D01*
X45316403Y-57748116D02*
X45346431Y-57744300D01*
X45285932Y-57750433D02*
X45316403Y-57748116D01*
X45255056Y-57751214D02*
X45285932Y-57750433D01*
X45255056Y-57751214D02*
X45255056Y-57751214D01*
X45224181Y-57750433D02*
X45255056Y-57751214D01*
X45193710Y-57748116D02*
X45224181Y-57750433D01*
X45163683Y-57744300D02*
X45193710Y-57748116D01*
X45134136Y-57739024D02*
X45163683Y-57744300D01*
X45105108Y-57732324D02*
X45134136Y-57739024D01*
X45076635Y-57724239D02*
X45105108Y-57732324D01*
X45048757Y-57714806D02*
X45076635Y-57724239D01*
X45021510Y-57704062D02*
X45048757Y-57714806D01*
X44994932Y-57692047D02*
X45021510Y-57704062D01*
X44969062Y-57678797D02*
X44994932Y-57692047D01*
X44943936Y-57664349D02*
X44969062Y-57678797D01*
X44919592Y-57648743D02*
X44943936Y-57664349D01*
X44896068Y-57632015D02*
X44919592Y-57648743D01*
X44873402Y-57614202D02*
X44896068Y-57632015D01*
X44851631Y-57595344D02*
X44873402Y-57614202D01*
X44830794Y-57575477D02*
X44851631Y-57595344D01*
X44810927Y-57554640D02*
X44830794Y-57575477D01*
X44792069Y-57532869D02*
X44810927Y-57554640D01*
X44774256Y-57510203D02*
X44792069Y-57532869D01*
X44757528Y-57486679D02*
X44774256Y-57510203D01*
X44741922Y-57462335D02*
X44757528Y-57486679D01*
X44727475Y-57437209D02*
X44741922Y-57462335D01*
X44714224Y-57411338D02*
X44727475Y-57437209D01*
X44702209Y-57384761D02*
X44714224Y-57411338D01*
X44691466Y-57357514D02*
X44702209Y-57384761D01*
X44682033Y-57329635D02*
X44691466Y-57357514D01*
X44673947Y-57301163D02*
X44682033Y-57329635D01*
X44667248Y-57272135D02*
X44673947Y-57301163D01*
X44661971Y-57242588D02*
X44667248Y-57272135D01*
X44658156Y-57212561D02*
X44661971Y-57242588D01*
X44655839Y-57182091D02*
X44658156Y-57212561D01*
X44655058Y-57151215D02*
X44655839Y-57182091D01*
X44655058Y-57151215D02*
X44655058Y-57151215D01*
X44655839Y-57120340D02*
X44655058Y-57151215D01*
X44658156Y-57089869D02*
X44655839Y-57120340D01*
X44661971Y-57059842D02*
X44658156Y-57089869D01*
X44667248Y-57030295D02*
X44661971Y-57059842D01*
X44673947Y-57001267D02*
X44667248Y-57030295D01*
X44682033Y-56972795D02*
X44673947Y-57001267D01*
X44691466Y-56944917D02*
X44682033Y-56972795D01*
X44702209Y-56917670D02*
X44691466Y-56944917D01*
X44714224Y-56891092D02*
X44702209Y-56917670D01*
X44727475Y-56865221D02*
X44714224Y-56891092D01*
X44741922Y-56840095D02*
X44727475Y-56865221D01*
X44757528Y-56815751D02*
X44741922Y-56840095D01*
X44774256Y-56792228D02*
X44757528Y-56815751D01*
X44792069Y-56769562D02*
X44774256Y-56792228D01*
X44810927Y-56747791D02*
X44792069Y-56769562D01*
X44830794Y-56726953D02*
X44810927Y-56747791D01*
X44851631Y-56707086D02*
X44830794Y-56726953D01*
X44873402Y-56688228D02*
X44851631Y-56707086D01*
X44896068Y-56670416D02*
X44873402Y-56688228D01*
X44919592Y-56653688D02*
X44896068Y-56670416D01*
X44943936Y-56638081D02*
X44919592Y-56653688D01*
X44969062Y-56623634D02*
X44943936Y-56638081D01*
X44994932Y-56610384D02*
X44969062Y-56623634D01*
X45021510Y-56598368D02*
X44994932Y-56610384D01*
X45048757Y-56587625D02*
X45021510Y-56598368D01*
X45076635Y-56578192D02*
X45048757Y-56587625D01*
X45105108Y-56570106D02*
X45076635Y-56578192D01*
X45134136Y-56563407D02*
X45105108Y-56570106D01*
X45163683Y-56558130D02*
X45134136Y-56563407D01*
X45193710Y-56554315D02*
X45163683Y-56558130D01*
X45224181Y-56551997D02*
X45193710Y-56554315D01*
X45255056Y-56551217D02*
X45224181Y-56551997D01*
X45255056Y-56551217D02*
X45255056Y-56551217D01*
X45285932Y-56551997D02*
X45255056Y-56551217D01*
X45316403Y-56554315D02*
X45285932Y-56551997D01*
X45346431Y-56558130D02*
X45316403Y-56554315D01*
X45375977Y-56563407D02*
X45346431Y-56558130D01*
X45405006Y-56570106D02*
X45375977Y-56563407D01*
X45433478Y-56578192D02*
X45405006Y-56570106D01*
X45461357Y-56587625D02*
X45433478Y-56578192D01*
X45488604Y-56598368D02*
X45461357Y-56587625D01*
X45515182Y-56610384D02*
X45488604Y-56598368D01*
X45541053Y-56623634D02*
X45515182Y-56610384D01*
X45566179Y-56638081D02*
X45541053Y-56623634D01*
X45590523Y-56653688D02*
X45566179Y-56638081D01*
X45614047Y-56670416D02*
X45590523Y-56653688D01*
X45636713Y-56688228D02*
X45614047Y-56670416D01*
X45658484Y-56707086D02*
X45636713Y-56688228D01*
X45679322Y-56726953D02*
X45658484Y-56707086D01*
X45699189Y-56747791D02*
X45679322Y-56726953D01*
X45718047Y-56769562D02*
X45699189Y-56747791D01*
X45735859Y-56792228D02*
X45718047Y-56769562D01*
X45752587Y-56815751D02*
X45735859Y-56792228D01*
X45768194Y-56840095D02*
X45752587Y-56815751D01*
X45782641Y-56865221D02*
X45768194Y-56840095D01*
X45795892Y-56891092D02*
X45782641Y-56865221D01*
X45807907Y-56917670D02*
X45795892Y-56891092D01*
X45818651Y-56944917D02*
X45807907Y-56917670D01*
X45828084Y-56972795D02*
X45818651Y-56944917D01*
X45836169Y-57001267D02*
X45828084Y-56972795D01*
X45842869Y-57030295D02*
X45836169Y-57001267D01*
X45848145Y-57059842D02*
X45842869Y-57030295D01*
X45851961Y-57089869D02*
X45848145Y-57059842D01*
X45854278Y-57120340D02*
X45851961Y-57089869D01*
X45855059Y-57151215D02*
X45854278Y-57120340D01*
X38957640Y-64035409D02*
X38957640Y-64035409D01*
X38957640Y-64035409D02*
X38957640Y-64035409D01*
X38956859Y-64066284D02*
X38957640Y-64035409D01*
X38954542Y-64096755D02*
X38956859Y-64066284D01*
X38950726Y-64126782D02*
X38954542Y-64096755D01*
X38945450Y-64156329D02*
X38950726Y-64126782D01*
X38938750Y-64185357D02*
X38945450Y-64156329D01*
X38930665Y-64213829D02*
X38938750Y-64185357D01*
X38921232Y-64241707D02*
X38930665Y-64213829D01*
X38910489Y-64268954D02*
X38921232Y-64241707D01*
X38898473Y-64295532D02*
X38910489Y-64268954D01*
X38885223Y-64321402D02*
X38898473Y-64295532D01*
X38870776Y-64346529D02*
X38885223Y-64321402D01*
X38855169Y-64370872D02*
X38870776Y-64346529D01*
X38838441Y-64394396D02*
X38855169Y-64370872D01*
X38820629Y-64417062D02*
X38838441Y-64394396D01*
X38801771Y-64438833D02*
X38820629Y-64417062D01*
X38781904Y-64459671D02*
X38801771Y-64438833D01*
X38761066Y-64479538D02*
X38781904Y-64459671D01*
X38739295Y-64498396D02*
X38761066Y-64479538D01*
X38716629Y-64516208D02*
X38739295Y-64498396D01*
X38693105Y-64532936D02*
X38716629Y-64516208D01*
X38668761Y-64548543D02*
X38693105Y-64532936D01*
X38643635Y-64562990D02*
X38668761Y-64548543D01*
X38617764Y-64576240D02*
X38643635Y-64562990D01*
X38591187Y-64588256D02*
X38617764Y-64576240D01*
X38563940Y-64598999D02*
X38591187Y-64588256D01*
X38536061Y-64608432D02*
X38563940Y-64598999D01*
X38507589Y-64616517D02*
X38536061Y-64608432D01*
X38478560Y-64623217D02*
X38507589Y-64616517D01*
X38449013Y-64628494D02*
X38478560Y-64623217D01*
X38418986Y-64632309D02*
X38449013Y-64628494D01*
X38388515Y-64634626D02*
X38418986Y-64632309D01*
X38357639Y-64635407D02*
X38388515Y-64634626D01*
X38357639Y-64635407D02*
X38357639Y-64635407D01*
X38326763Y-64634626D02*
X38357639Y-64635407D01*
X38296293Y-64632309D02*
X38326763Y-64634626D01*
X38266266Y-64628494D02*
X38296293Y-64632309D01*
X38236719Y-64623217D02*
X38266266Y-64628494D01*
X38207690Y-64616517D02*
X38236719Y-64623217D01*
X38179218Y-64608432D02*
X38207690Y-64616517D01*
X38151340Y-64598999D02*
X38179218Y-64608432D01*
X38124093Y-64588256D02*
X38151340Y-64598999D01*
X38097515Y-64576240D02*
X38124093Y-64588256D01*
X38071644Y-64562990D02*
X38097515Y-64576240D01*
X38046518Y-64548543D02*
X38071644Y-64562990D01*
X38022174Y-64532936D02*
X38046518Y-64548543D01*
X37998650Y-64516208D02*
X38022174Y-64532936D01*
X37975984Y-64498396D02*
X37998650Y-64516208D01*
X37954213Y-64479538D02*
X37975984Y-64498396D01*
X37933376Y-64459671D02*
X37954213Y-64479538D01*
X37913509Y-64438833D02*
X37933376Y-64459671D01*
X37894650Y-64417062D02*
X37913509Y-64438833D01*
X37876838Y-64394396D02*
X37894650Y-64417062D01*
X37860110Y-64370872D02*
X37876838Y-64394396D01*
X37844503Y-64346529D02*
X37860110Y-64370872D01*
X37830056Y-64321402D02*
X37844503Y-64346529D01*
X37816806Y-64295532D02*
X37830056Y-64321402D01*
X37804790Y-64268954D02*
X37816806Y-64295532D01*
X37794047Y-64241707D02*
X37804790Y-64268954D01*
X37784614Y-64213829D02*
X37794047Y-64241707D01*
X37776529Y-64185357D02*
X37784614Y-64213829D01*
X37769829Y-64156329D02*
X37776529Y-64185357D01*
X37764552Y-64126782D02*
X37769829Y-64156329D01*
X37760737Y-64096755D02*
X37764552Y-64126782D01*
X37758420Y-64066284D02*
X37760737Y-64096755D01*
X37757639Y-64035409D02*
X37758420Y-64066284D01*
X37757639Y-64035409D02*
X37757639Y-64035409D01*
X37758420Y-64004533D02*
X37757639Y-64035409D01*
X37760737Y-63974063D02*
X37758420Y-64004533D01*
X37764552Y-63944035D02*
X37760737Y-63974063D01*
X37769829Y-63914489D02*
X37764552Y-63944035D01*
X37776529Y-63885461D02*
X37769829Y-63914489D01*
X37784614Y-63856988D02*
X37776529Y-63885461D01*
X37794047Y-63829110D02*
X37784614Y-63856988D01*
X37804790Y-63801863D02*
X37794047Y-63829110D01*
X37816806Y-63775286D02*
X37804790Y-63801863D01*
X37830056Y-63749415D02*
X37816806Y-63775286D01*
X37844503Y-63724289D02*
X37830056Y-63749415D01*
X37860110Y-63699945D02*
X37844503Y-63724289D01*
X37876838Y-63676421D02*
X37860110Y-63699945D01*
X37894650Y-63653755D02*
X37876838Y-63676421D01*
X37913509Y-63631984D02*
X37894650Y-63653755D01*
X37933376Y-63611147D02*
X37913509Y-63631984D01*
X37954213Y-63591280D02*
X37933376Y-63611147D01*
X37975984Y-63572421D02*
X37954213Y-63591280D01*
X37998650Y-63554609D02*
X37975984Y-63572421D01*
X38022174Y-63537881D02*
X37998650Y-63554609D01*
X38046518Y-63522275D02*
X38022174Y-63537881D01*
X38071644Y-63507827D02*
X38046518Y-63522275D01*
X38097515Y-63494577D02*
X38071644Y-63507827D01*
X38124093Y-63482561D02*
X38097515Y-63494577D01*
X38151340Y-63471818D02*
X38124093Y-63482561D01*
X38179218Y-63462385D02*
X38151340Y-63471818D01*
X38207690Y-63454300D02*
X38179218Y-63462385D01*
X38236719Y-63447600D02*
X38207690Y-63454300D01*
X38266266Y-63442324D02*
X38236719Y-63447600D01*
X38296293Y-63438508D02*
X38266266Y-63442324D01*
X38326763Y-63436191D02*
X38296293Y-63438508D01*
X38357639Y-63435410D02*
X38326763Y-63436191D01*
X38357639Y-63435410D02*
X38357639Y-63435410D01*
X38388515Y-63436191D02*
X38357639Y-63435410D01*
X38418986Y-63438508D02*
X38388515Y-63436191D01*
X38449013Y-63442324D02*
X38418986Y-63438508D01*
X38478560Y-63447600D02*
X38449013Y-63442324D01*
X38507589Y-63454300D02*
X38478560Y-63447600D01*
X38536061Y-63462385D02*
X38507589Y-63454300D01*
X38563940Y-63471818D02*
X38536061Y-63462385D01*
X38591187Y-63482561D02*
X38563940Y-63471818D01*
X38617764Y-63494577D02*
X38591187Y-63482561D01*
X38643635Y-63507827D02*
X38617764Y-63494577D01*
X38668761Y-63522275D02*
X38643635Y-63507827D01*
X38693105Y-63537881D02*
X38668761Y-63522275D01*
X38716629Y-63554609D02*
X38693105Y-63537881D01*
X38739295Y-63572421D02*
X38716629Y-63554609D01*
X38761066Y-63591280D02*
X38739295Y-63572421D01*
X38781904Y-63611147D02*
X38761066Y-63591280D01*
X38801771Y-63631984D02*
X38781904Y-63611147D01*
X38820629Y-63653755D02*
X38801771Y-63631984D01*
X38838441Y-63676421D02*
X38820629Y-63653755D01*
X38855169Y-63699945D02*
X38838441Y-63676421D01*
X38870776Y-63724289D02*
X38855169Y-63699945D01*
X38885223Y-63749415D02*
X38870776Y-63724289D01*
X38898473Y-63775286D02*
X38885223Y-63749415D01*
X38910489Y-63801863D02*
X38898473Y-63775286D01*
X38921232Y-63829110D02*
X38910489Y-63801863D01*
X38930665Y-63856988D02*
X38921232Y-63829110D01*
X38938750Y-63885461D02*
X38930665Y-63856988D01*
X38945450Y-63914489D02*
X38938750Y-63885461D01*
X38950726Y-63944035D02*
X38945450Y-63914489D01*
X38954542Y-63974063D02*
X38950726Y-63944035D01*
X38956859Y-64004533D02*
X38954542Y-63974063D01*
X38957640Y-64035409D02*
X38956859Y-64004533D01*
X37238890Y-62219948D02*
X37238890Y-62219948D01*
X37238890Y-62219948D02*
X37238890Y-62219948D01*
X37238109Y-62250824D02*
X37238890Y-62219948D01*
X37235792Y-62281294D02*
X37238109Y-62250824D01*
X37231976Y-62311322D02*
X37235792Y-62281294D01*
X37226700Y-62340868D02*
X37231976Y-62311322D01*
X37220000Y-62369897D02*
X37226700Y-62340868D01*
X37211915Y-62398369D02*
X37220000Y-62369897D01*
X37202482Y-62426247D02*
X37211915Y-62398369D01*
X37191739Y-62453494D02*
X37202482Y-62426247D01*
X37179723Y-62480071D02*
X37191739Y-62453494D01*
X37166473Y-62505942D02*
X37179723Y-62480071D01*
X37152026Y-62531068D02*
X37166473Y-62505942D01*
X37136419Y-62555412D02*
X37152026Y-62531068D01*
X37119691Y-62578936D02*
X37136419Y-62555412D01*
X37101879Y-62601602D02*
X37119691Y-62578936D01*
X37083021Y-62623373D02*
X37101879Y-62601602D01*
X37063154Y-62644210D02*
X37083021Y-62623373D01*
X37042316Y-62664077D02*
X37063154Y-62644210D01*
X37020545Y-62682936D02*
X37042316Y-62664077D01*
X36997879Y-62700748D02*
X37020545Y-62682936D01*
X36974355Y-62717476D02*
X36997879Y-62700748D01*
X36950011Y-62733083D02*
X36974355Y-62717476D01*
X36924885Y-62747530D02*
X36950011Y-62733083D01*
X36899014Y-62760780D02*
X36924885Y-62747530D01*
X36872437Y-62772796D02*
X36899014Y-62760780D01*
X36845190Y-62783539D02*
X36872437Y-62772796D01*
X36817311Y-62792972D02*
X36845190Y-62783539D01*
X36788839Y-62801057D02*
X36817311Y-62792972D01*
X36759810Y-62807757D02*
X36788839Y-62801057D01*
X36730263Y-62813034D02*
X36759810Y-62807757D01*
X36700236Y-62816849D02*
X36730263Y-62813034D01*
X36669765Y-62819166D02*
X36700236Y-62816849D01*
X36638889Y-62819947D02*
X36669765Y-62819166D01*
X36638889Y-62819947D02*
X36638889Y-62819947D01*
X36608013Y-62819166D02*
X36638889Y-62819947D01*
X36577543Y-62816849D02*
X36608013Y-62819166D01*
X36547516Y-62813034D02*
X36577543Y-62816849D01*
X36517969Y-62807757D02*
X36547516Y-62813034D01*
X36488940Y-62801057D02*
X36517969Y-62807757D01*
X36460468Y-62792972D02*
X36488940Y-62801057D01*
X36432590Y-62783539D02*
X36460468Y-62792972D01*
X36405343Y-62772796D02*
X36432590Y-62783539D01*
X36378765Y-62760780D02*
X36405343Y-62772796D01*
X36352894Y-62747530D02*
X36378765Y-62760780D01*
X36327768Y-62733083D02*
X36352894Y-62747530D01*
X36303424Y-62717476D02*
X36327768Y-62733083D01*
X36279900Y-62700748D02*
X36303424Y-62717476D01*
X36257234Y-62682936D02*
X36279900Y-62700748D01*
X36235463Y-62664077D02*
X36257234Y-62682936D01*
X36214626Y-62644210D02*
X36235463Y-62664077D01*
X36194759Y-62623373D02*
X36214626Y-62644210D01*
X36175900Y-62601602D02*
X36194759Y-62623373D01*
X36158088Y-62578936D02*
X36175900Y-62601602D01*
X36141360Y-62555412D02*
X36158088Y-62578936D01*
X36125753Y-62531068D02*
X36141360Y-62555412D01*
X36111306Y-62505942D02*
X36125753Y-62531068D01*
X36098056Y-62480071D02*
X36111306Y-62505942D01*
X36086040Y-62453494D02*
X36098056Y-62480071D01*
X36075297Y-62426247D02*
X36086040Y-62453494D01*
X36065864Y-62398369D02*
X36075297Y-62426247D01*
X36057779Y-62369897D02*
X36065864Y-62398369D01*
X36051079Y-62340868D02*
X36057779Y-62369897D01*
X36045802Y-62311322D02*
X36051079Y-62340868D01*
X36041987Y-62281294D02*
X36045802Y-62311322D01*
X36039670Y-62250824D02*
X36041987Y-62281294D01*
X36038889Y-62219948D02*
X36039670Y-62250824D01*
X36038889Y-62219948D02*
X36038889Y-62219948D01*
X36039670Y-62189073D02*
X36038889Y-62219948D01*
X36041987Y-62158602D02*
X36039670Y-62189073D01*
X36045802Y-62128575D02*
X36041987Y-62158602D01*
X36051079Y-62099029D02*
X36045802Y-62128575D01*
X36057779Y-62070000D02*
X36051079Y-62099029D01*
X36065864Y-62041528D02*
X36057779Y-62070000D01*
X36075297Y-62013650D02*
X36065864Y-62041528D01*
X36086040Y-61986403D02*
X36075297Y-62013650D01*
X36098056Y-61959825D02*
X36086040Y-61986403D01*
X36111306Y-61933955D02*
X36098056Y-61959825D01*
X36125753Y-61908829D02*
X36111306Y-61933955D01*
X36141360Y-61884485D02*
X36125753Y-61908829D01*
X36158088Y-61860961D02*
X36141360Y-61884485D01*
X36175900Y-61838295D02*
X36158088Y-61860961D01*
X36194759Y-61816524D02*
X36175900Y-61838295D01*
X36214626Y-61795686D02*
X36194759Y-61816524D01*
X36235463Y-61775820D02*
X36214626Y-61795686D01*
X36257234Y-61756961D02*
X36235463Y-61775820D01*
X36279900Y-61739149D02*
X36257234Y-61756961D01*
X36303424Y-61722421D02*
X36279900Y-61739149D01*
X36327768Y-61706814D02*
X36303424Y-61722421D01*
X36352894Y-61692367D02*
X36327768Y-61706814D01*
X36378765Y-61679117D02*
X36352894Y-61692367D01*
X36405343Y-61667101D02*
X36378765Y-61679117D01*
X36432590Y-61656358D02*
X36405343Y-61667101D01*
X36460468Y-61646925D02*
X36432590Y-61656358D01*
X36488940Y-61638840D02*
X36460468Y-61646925D01*
X36517969Y-61632140D02*
X36488940Y-61638840D01*
X36547516Y-61626863D02*
X36517969Y-61632140D01*
X36577543Y-61623048D02*
X36547516Y-61626863D01*
X36608013Y-61620731D02*
X36577543Y-61623048D01*
X36638889Y-61619950D02*
X36608013Y-61620731D01*
X36638889Y-61619950D02*
X36638889Y-61619950D01*
X36669765Y-61620731D02*
X36638889Y-61619950D01*
X36700236Y-61623048D02*
X36669765Y-61620731D01*
X36730263Y-61626863D02*
X36700236Y-61623048D01*
X36759810Y-61632140D02*
X36730263Y-61626863D01*
X36788839Y-61638840D02*
X36759810Y-61632140D01*
X36817311Y-61646925D02*
X36788839Y-61638840D01*
X36845190Y-61656358D02*
X36817311Y-61646925D01*
X36872437Y-61667101D02*
X36845190Y-61656358D01*
X36899014Y-61679117D02*
X36872437Y-61667101D01*
X36924885Y-61692367D02*
X36899014Y-61679117D01*
X36950011Y-61706814D02*
X36924885Y-61692367D01*
X36974355Y-61722421D02*
X36950011Y-61706814D01*
X36997879Y-61739149D02*
X36974355Y-61722421D01*
X37020545Y-61756961D02*
X36997879Y-61739149D01*
X37042316Y-61775820D02*
X37020545Y-61756961D01*
X37063154Y-61795686D02*
X37042316Y-61775820D01*
X37083021Y-61816524D02*
X37063154Y-61795686D01*
X37101879Y-61838295D02*
X37083021Y-61816524D01*
X37119691Y-61860961D02*
X37101879Y-61838295D01*
X37136419Y-61884485D02*
X37119691Y-61860961D01*
X37152026Y-61908829D02*
X37136419Y-61884485D01*
X37166473Y-61933955D02*
X37152026Y-61908829D01*
X37179723Y-61959825D02*
X37166473Y-61933955D01*
X37191739Y-61986403D02*
X37179723Y-61959825D01*
X37202482Y-62013650D02*
X37191739Y-61986403D01*
X37211915Y-62041528D02*
X37202482Y-62013650D01*
X37220000Y-62070000D02*
X37211915Y-62041528D01*
X37226700Y-62099029D02*
X37220000Y-62070000D01*
X37231976Y-62128575D02*
X37226700Y-62099029D01*
X37235792Y-62158602D02*
X37231976Y-62128575D01*
X37238109Y-62189073D02*
X37235792Y-62158602D01*
X37238890Y-62219948D02*
X37238109Y-62189073D01*
X37238890Y-57378716D02*
X37238890Y-57378716D01*
X37238890Y-57378716D02*
X37238890Y-57378716D01*
X37238109Y-57409592D02*
X37238890Y-57378716D01*
X37235792Y-57440062D02*
X37238109Y-57409592D01*
X37231976Y-57470089D02*
X37235792Y-57440062D01*
X37226700Y-57499636D02*
X37231976Y-57470089D01*
X37220000Y-57528664D02*
X37226700Y-57499636D01*
X37211915Y-57557136D02*
X37220000Y-57528664D01*
X37202482Y-57585015D02*
X37211915Y-57557136D01*
X37191739Y-57612262D02*
X37202482Y-57585015D01*
X37179723Y-57638839D02*
X37191739Y-57612262D01*
X37166473Y-57664710D02*
X37179723Y-57638839D01*
X37152026Y-57689836D02*
X37166473Y-57664710D01*
X37136419Y-57714180D02*
X37152026Y-57689836D01*
X37119691Y-57737704D02*
X37136419Y-57714180D01*
X37101879Y-57760370D02*
X37119691Y-57737704D01*
X37083021Y-57782141D02*
X37101879Y-57760370D01*
X37063154Y-57802978D02*
X37083021Y-57782141D01*
X37042316Y-57822845D02*
X37063154Y-57802978D01*
X37020545Y-57841703D02*
X37042316Y-57822845D01*
X36997879Y-57859515D02*
X37020545Y-57841703D01*
X36974355Y-57876244D02*
X36997879Y-57859515D01*
X36950011Y-57891850D02*
X36974355Y-57876244D01*
X36924885Y-57906298D02*
X36950011Y-57891850D01*
X36899014Y-57919548D02*
X36924885Y-57906298D01*
X36872437Y-57931563D02*
X36899014Y-57919548D01*
X36845190Y-57942307D02*
X36872437Y-57931563D01*
X36817311Y-57951740D02*
X36845190Y-57942307D01*
X36788839Y-57959825D02*
X36817311Y-57951740D01*
X36759810Y-57966525D02*
X36788839Y-57959825D01*
X36730263Y-57971801D02*
X36759810Y-57966525D01*
X36700236Y-57975617D02*
X36730263Y-57971801D01*
X36669765Y-57977934D02*
X36700236Y-57975617D01*
X36638889Y-57978715D02*
X36669765Y-57977934D01*
X36638889Y-57978715D02*
X36638889Y-57978715D01*
X36608013Y-57977934D02*
X36638889Y-57978715D01*
X36577543Y-57975617D02*
X36608013Y-57977934D01*
X36547516Y-57971801D02*
X36577543Y-57975617D01*
X36517969Y-57966525D02*
X36547516Y-57971801D01*
X36488940Y-57959825D02*
X36517969Y-57966525D01*
X36460468Y-57951740D02*
X36488940Y-57959825D01*
X36432590Y-57942307D02*
X36460468Y-57951740D01*
X36405343Y-57931563D02*
X36432590Y-57942307D01*
X36378765Y-57919548D02*
X36405343Y-57931563D01*
X36352894Y-57906298D02*
X36378765Y-57919548D01*
X36327768Y-57891850D02*
X36352894Y-57906298D01*
X36303424Y-57876244D02*
X36327768Y-57891850D01*
X36279900Y-57859515D02*
X36303424Y-57876244D01*
X36257234Y-57841703D02*
X36279900Y-57859515D01*
X36235463Y-57822845D02*
X36257234Y-57841703D01*
X36214626Y-57802978D02*
X36235463Y-57822845D01*
X36194759Y-57782141D02*
X36214626Y-57802978D01*
X36175900Y-57760370D02*
X36194759Y-57782141D01*
X36158088Y-57737704D02*
X36175900Y-57760370D01*
X36141360Y-57714180D02*
X36158088Y-57737704D01*
X36125753Y-57689836D02*
X36141360Y-57714180D01*
X36111306Y-57664710D02*
X36125753Y-57689836D01*
X36098056Y-57638839D02*
X36111306Y-57664710D01*
X36086040Y-57612262D02*
X36098056Y-57638839D01*
X36075297Y-57585015D02*
X36086040Y-57612262D01*
X36065864Y-57557136D02*
X36075297Y-57585015D01*
X36057779Y-57528664D02*
X36065864Y-57557136D01*
X36051079Y-57499636D02*
X36057779Y-57528664D01*
X36045802Y-57470089D02*
X36051079Y-57499636D01*
X36041987Y-57440062D02*
X36045802Y-57470089D01*
X36039670Y-57409592D02*
X36041987Y-57440062D01*
X36038889Y-57378716D02*
X36039670Y-57409592D01*
X36038889Y-57378716D02*
X36038889Y-57378716D01*
X36039670Y-57347841D02*
X36038889Y-57378716D01*
X36041987Y-57317370D02*
X36039670Y-57347841D01*
X36045802Y-57287343D02*
X36041987Y-57317370D01*
X36051079Y-57257796D02*
X36045802Y-57287343D01*
X36057779Y-57228768D02*
X36051079Y-57257796D01*
X36065864Y-57200296D02*
X36057779Y-57228768D01*
X36075297Y-57172418D02*
X36065864Y-57200296D01*
X36086040Y-57145171D02*
X36075297Y-57172418D01*
X36098056Y-57118593D02*
X36086040Y-57145171D01*
X36111306Y-57092722D02*
X36098056Y-57118593D01*
X36125753Y-57067596D02*
X36111306Y-57092722D01*
X36141360Y-57043252D02*
X36125753Y-57067596D01*
X36158088Y-57019729D02*
X36141360Y-57043252D01*
X36175900Y-56997062D02*
X36158088Y-57019729D01*
X36194759Y-56975292D02*
X36175900Y-56997062D01*
X36214626Y-56954454D02*
X36194759Y-56975292D01*
X36235463Y-56934587D02*
X36214626Y-56954454D01*
X36257234Y-56915729D02*
X36235463Y-56934587D01*
X36279900Y-56897917D02*
X36257234Y-56915729D01*
X36303424Y-56881189D02*
X36279900Y-56897917D01*
X36327768Y-56865582D02*
X36303424Y-56881189D01*
X36352894Y-56851135D02*
X36327768Y-56865582D01*
X36378765Y-56837884D02*
X36352894Y-56851135D01*
X36405343Y-56825869D02*
X36378765Y-56837884D01*
X36432590Y-56815126D02*
X36405343Y-56825869D01*
X36460468Y-56805693D02*
X36432590Y-56815126D01*
X36488940Y-56797607D02*
X36460468Y-56805693D01*
X36517969Y-56790908D02*
X36488940Y-56797607D01*
X36547516Y-56785631D02*
X36517969Y-56790908D01*
X36577543Y-56781815D02*
X36547516Y-56785631D01*
X36608013Y-56779498D02*
X36577543Y-56781815D01*
X36638889Y-56778718D02*
X36608013Y-56779498D01*
X36638889Y-56778718D02*
X36638889Y-56778718D01*
X36669765Y-56779498D02*
X36638889Y-56778718D01*
X36700236Y-56781815D02*
X36669765Y-56779498D01*
X36730263Y-56785631D02*
X36700236Y-56781815D01*
X36759810Y-56790908D02*
X36730263Y-56785631D01*
X36788839Y-56797607D02*
X36759810Y-56790908D01*
X36817311Y-56805693D02*
X36788839Y-56797607D01*
X36845190Y-56815126D02*
X36817311Y-56805693D01*
X36872437Y-56825869D02*
X36845190Y-56815126D01*
X36899014Y-56837884D02*
X36872437Y-56825869D01*
X36924885Y-56851135D02*
X36899014Y-56837884D01*
X36950011Y-56865582D02*
X36924885Y-56851135D01*
X36974355Y-56881189D02*
X36950011Y-56865582D01*
X36997879Y-56897917D02*
X36974355Y-56881189D01*
X37020545Y-56915729D02*
X36997879Y-56897917D01*
X37042316Y-56934587D02*
X37020545Y-56915729D01*
X37063154Y-56954454D02*
X37042316Y-56934587D01*
X37083021Y-56975292D02*
X37063154Y-56954454D01*
X37101879Y-56997062D02*
X37083021Y-56975292D01*
X37119691Y-57019729D02*
X37101879Y-56997062D01*
X37136419Y-57043252D02*
X37119691Y-57019729D01*
X37152026Y-57067596D02*
X37136419Y-57043252D01*
X37166473Y-57092722D02*
X37152026Y-57067596D01*
X37179723Y-57118593D02*
X37166473Y-57092722D01*
X37191739Y-57145171D02*
X37179723Y-57118593D01*
X37202482Y-57172418D02*
X37191739Y-57145171D01*
X37211915Y-57200296D02*
X37202482Y-57172418D01*
X37220000Y-57228768D02*
X37211915Y-57200296D01*
X37226700Y-57257796D02*
X37220000Y-57228768D01*
X37231976Y-57287343D02*
X37226700Y-57257796D01*
X37235792Y-57317370D02*
X37231976Y-57287343D01*
X37238109Y-57347841D02*
X37235792Y-57317370D01*
X37238890Y-57378716D02*
X37238109Y-57347841D01*
X38957640Y-55563256D02*
X38957640Y-55563256D01*
X38957640Y-55563256D02*
X38957640Y-55563256D01*
X38956859Y-55594132D02*
X38957640Y-55563256D01*
X38954542Y-55624602D02*
X38956859Y-55594132D01*
X38950726Y-55654629D02*
X38954542Y-55624602D01*
X38945450Y-55684176D02*
X38950726Y-55654629D01*
X38938750Y-55713204D02*
X38945450Y-55684176D01*
X38930665Y-55741676D02*
X38938750Y-55713204D01*
X38921232Y-55769555D02*
X38930665Y-55741676D01*
X38910489Y-55796801D02*
X38921232Y-55769555D01*
X38898473Y-55823379D02*
X38910489Y-55796801D01*
X38885223Y-55849250D02*
X38898473Y-55823379D01*
X38870776Y-55874376D02*
X38885223Y-55849250D01*
X38855169Y-55898720D02*
X38870776Y-55874376D01*
X38838441Y-55922244D02*
X38855169Y-55898720D01*
X38820629Y-55944910D02*
X38838441Y-55922244D01*
X38801771Y-55966680D02*
X38820629Y-55944910D01*
X38781904Y-55987518D02*
X38801771Y-55966680D01*
X38761066Y-56007385D02*
X38781904Y-55987518D01*
X38739295Y-56026243D02*
X38761066Y-56007385D01*
X38716629Y-56044055D02*
X38739295Y-56026243D01*
X38693105Y-56060783D02*
X38716629Y-56044055D01*
X38668761Y-56076390D02*
X38693105Y-56060783D01*
X38643635Y-56090837D02*
X38668761Y-56076390D01*
X38617764Y-56104088D02*
X38643635Y-56090837D01*
X38591187Y-56116103D02*
X38617764Y-56104088D01*
X38563940Y-56126846D02*
X38591187Y-56116103D01*
X38536061Y-56136279D02*
X38563940Y-56126846D01*
X38507589Y-56144365D02*
X38536061Y-56136279D01*
X38478560Y-56151064D02*
X38507589Y-56144365D01*
X38449013Y-56156341D02*
X38478560Y-56151064D01*
X38418986Y-56160157D02*
X38449013Y-56156341D01*
X38388515Y-56162474D02*
X38418986Y-56160157D01*
X38357639Y-56163254D02*
X38388515Y-56162474D01*
X38357639Y-56163254D02*
X38357639Y-56163254D01*
X38326763Y-56162474D02*
X38357639Y-56163254D01*
X38296293Y-56160157D02*
X38326763Y-56162474D01*
X38266266Y-56156341D02*
X38296293Y-56160157D01*
X38236719Y-56151064D02*
X38266266Y-56156341D01*
X38207690Y-56144365D02*
X38236719Y-56151064D01*
X38179218Y-56136279D02*
X38207690Y-56144365D01*
X38151340Y-56126846D02*
X38179218Y-56136279D01*
X38124093Y-56116103D02*
X38151340Y-56126846D01*
X38097515Y-56104088D02*
X38124093Y-56116103D01*
X38071644Y-56090837D02*
X38097515Y-56104088D01*
X38046518Y-56076390D02*
X38071644Y-56090837D01*
X38022174Y-56060783D02*
X38046518Y-56076390D01*
X37998650Y-56044055D02*
X38022174Y-56060783D01*
X37975984Y-56026243D02*
X37998650Y-56044055D01*
X37954213Y-56007385D02*
X37975984Y-56026243D01*
X37933376Y-55987518D02*
X37954213Y-56007385D01*
X37913509Y-55966680D02*
X37933376Y-55987518D01*
X37894650Y-55944910D02*
X37913509Y-55966680D01*
X37876838Y-55922244D02*
X37894650Y-55944910D01*
X37860110Y-55898720D02*
X37876838Y-55922244D01*
X37844503Y-55874376D02*
X37860110Y-55898720D01*
X37830056Y-55849250D02*
X37844503Y-55874376D01*
X37816806Y-55823379D02*
X37830056Y-55849250D01*
X37804790Y-55796801D02*
X37816806Y-55823379D01*
X37794047Y-55769555D02*
X37804790Y-55796801D01*
X37784614Y-55741676D02*
X37794047Y-55769555D01*
X37776529Y-55713204D02*
X37784614Y-55741676D01*
X37769829Y-55684176D02*
X37776529Y-55713204D01*
X37764552Y-55654629D02*
X37769829Y-55684176D01*
X37760737Y-55624602D02*
X37764552Y-55654629D01*
X37758420Y-55594132D02*
X37760737Y-55624602D01*
X37757639Y-55563256D02*
X37758420Y-55594132D01*
X37757639Y-55563256D02*
X37757639Y-55563256D01*
X37758420Y-55532380D02*
X37757639Y-55563256D01*
X37760737Y-55501910D02*
X37758420Y-55532380D01*
X37764552Y-55471883D02*
X37760737Y-55501910D01*
X37769829Y-55442336D02*
X37764552Y-55471883D01*
X37776529Y-55413308D02*
X37769829Y-55442336D01*
X37784614Y-55384836D02*
X37776529Y-55413308D01*
X37794047Y-55356957D02*
X37784614Y-55384836D01*
X37804790Y-55329711D02*
X37794047Y-55356957D01*
X37816806Y-55303133D02*
X37804790Y-55329711D01*
X37830056Y-55277262D02*
X37816806Y-55303133D01*
X37844503Y-55252136D02*
X37830056Y-55277262D01*
X37860110Y-55227792D02*
X37844503Y-55252136D01*
X37876838Y-55204268D02*
X37860110Y-55227792D01*
X37894650Y-55181602D02*
X37876838Y-55204268D01*
X37913509Y-55159832D02*
X37894650Y-55181602D01*
X37933376Y-55138994D02*
X37913509Y-55159832D01*
X37954213Y-55119127D02*
X37933376Y-55138994D01*
X37975984Y-55100269D02*
X37954213Y-55119127D01*
X37998650Y-55082457D02*
X37975984Y-55100269D01*
X38022174Y-55065728D02*
X37998650Y-55082457D01*
X38046518Y-55050122D02*
X38022174Y-55065728D01*
X38071644Y-55035675D02*
X38046518Y-55050122D01*
X38097515Y-55022424D02*
X38071644Y-55035675D01*
X38124093Y-55010409D02*
X38097515Y-55022424D01*
X38151340Y-54999665D02*
X38124093Y-55010409D01*
X38179218Y-54990232D02*
X38151340Y-54999665D01*
X38207690Y-54982147D02*
X38179218Y-54990232D01*
X38236719Y-54975447D02*
X38207690Y-54982147D01*
X38266266Y-54970171D02*
X38236719Y-54975447D01*
X38296293Y-54966355D02*
X38266266Y-54970171D01*
X38326763Y-54964038D02*
X38296293Y-54966355D01*
X38357639Y-54963257D02*
X38326763Y-54964038D01*
X38357639Y-54963257D02*
X38357639Y-54963257D01*
X38388515Y-54964038D02*
X38357639Y-54963257D01*
X38418986Y-54966355D02*
X38388515Y-54964038D01*
X38449013Y-54970171D02*
X38418986Y-54966355D01*
X38478560Y-54975447D02*
X38449013Y-54970171D01*
X38507589Y-54982147D02*
X38478560Y-54975447D01*
X38536061Y-54990232D02*
X38507589Y-54982147D01*
X38563940Y-54999665D02*
X38536061Y-54990232D01*
X38591187Y-55010409D02*
X38563940Y-54999665D01*
X38617764Y-55022424D02*
X38591187Y-55010409D01*
X38643635Y-55035675D02*
X38617764Y-55022424D01*
X38668761Y-55050122D02*
X38643635Y-55035675D01*
X38693105Y-55065728D02*
X38668761Y-55050122D01*
X38716629Y-55082457D02*
X38693105Y-55065728D01*
X38739295Y-55100269D02*
X38716629Y-55082457D01*
X38761066Y-55119127D02*
X38739295Y-55100269D01*
X38781904Y-55138994D02*
X38761066Y-55119127D01*
X38801771Y-55159832D02*
X38781904Y-55138994D01*
X38820629Y-55181602D02*
X38801771Y-55159832D01*
X38838441Y-55204268D02*
X38820629Y-55181602D01*
X38855169Y-55227792D02*
X38838441Y-55204268D01*
X38870776Y-55252136D02*
X38855169Y-55227792D01*
X38885223Y-55277262D02*
X38870776Y-55252136D01*
X38898473Y-55303133D02*
X38885223Y-55277262D01*
X38910489Y-55329711D02*
X38898473Y-55303133D01*
X38921232Y-55356957D02*
X38910489Y-55329711D01*
X38930665Y-55384836D02*
X38921232Y-55356957D01*
X38938750Y-55413308D02*
X38930665Y-55384836D01*
X38945450Y-55442336D02*
X38938750Y-55413308D01*
X38950726Y-55471883D02*
X38945450Y-55442336D01*
X38954542Y-55501910D02*
X38950726Y-55471883D01*
X38956859Y-55532380D02*
X38954542Y-55501910D01*
X38957640Y-55563256D02*
X38956859Y-55532380D01*
X41023489Y-14190255D02*
X27031625Y-14190255D01*
X41023489Y-14190255D02*
X41023489Y-14190255D01*
X55015352Y-14190255D02*
X41023489Y-14190255D01*
X55015352Y-14190255D02*
X55015352Y-14190255D01*
X67674734Y-61435708D02*
X55015352Y-14190255D01*
X67674734Y-61435708D02*
X67674734Y-61435708D01*
X58290972Y-67299332D02*
X67674734Y-61435708D01*
X58290972Y-67299332D02*
X58290972Y-67299332D01*
X41023489Y-67299332D02*
X58290972Y-67299332D01*
X41023489Y-67299332D02*
X41023489Y-67299332D01*
X23756006Y-67299332D02*
X41023489Y-67299332D01*
X23756006Y-67299332D02*
X23756006Y-67299332D01*
X14372244Y-61435708D02*
X23756006Y-67299332D01*
X14372244Y-61435708D02*
X14372244Y-61435708D01*
X27031625Y-14190255D02*
X14372244Y-61435708D01*
D11*
%TO.P,REF\u002A\u002A,1*%
%TO.N,N/C*%
X56930000Y-36760000D03*
%TD*%
%TO.P,REF\u002A\u002A,1*%
%TO.N,N/C*%
X63040000Y-59600000D03*
%TD*%
%TO.P,REF\u002A\u002A,1*%
%TO.N,N/C*%
X18990000Y-59600000D03*
%TD*%
%TO.P,REF\u002A\u002A,1*%
%TO.N,N/C*%
X25120000Y-36770000D03*
%TD*%
%TA.AperFunction,NonConductor*%
G36*
X54596604Y-14718757D02*
G01*
X54643097Y-14772413D01*
X54650188Y-14792139D01*
X66128220Y-57628733D01*
X67062044Y-61113810D01*
X67060354Y-61184786D01*
X67020560Y-61243582D01*
X67007107Y-61253275D01*
X58175801Y-66771686D01*
X58109031Y-66790832D01*
X23937946Y-66790832D01*
X23871176Y-66771686D01*
X19412511Y-63985604D01*
X37247787Y-63985604D01*
X37248065Y-63991601D01*
X37248484Y-64000662D01*
X37248465Y-64007397D01*
X37248300Y-64008666D01*
X37248423Y-64013534D01*
X37248423Y-64013535D01*
X37248895Y-64032219D01*
X37248895Y-64038583D01*
X37248496Y-64054370D01*
X37248378Y-64059052D01*
X37248676Y-64061585D01*
X37248380Y-64065339D01*
X37248750Y-64070201D01*
X37248744Y-64074285D01*
X37248835Y-64076902D01*
X37248663Y-64105130D01*
X37250895Y-64112940D01*
X37250954Y-64113567D01*
X37251006Y-64115644D01*
X37251318Y-64117486D01*
X37251391Y-64118277D01*
X37251299Y-64121548D01*
X37251913Y-64126379D01*
X37251913Y-64126383D01*
X37254271Y-64144942D01*
X37254914Y-64151272D01*
X37256156Y-64167611D01*
X37256383Y-64171332D01*
X37257273Y-64190548D01*
X37257567Y-64196899D01*
X37262842Y-64218788D01*
X37264174Y-64224314D01*
X37264693Y-64226969D01*
X37264709Y-64227094D01*
X37264738Y-64227201D01*
X37265301Y-64230079D01*
X37265447Y-64232091D01*
X37268391Y-64244843D01*
X37270777Y-64255181D01*
X37272043Y-64261371D01*
X37273672Y-64270491D01*
X37275669Y-64281676D01*
X37276191Y-64283258D01*
X37276547Y-64286153D01*
X37277873Y-64290821D01*
X37277874Y-64290828D01*
X37283050Y-64309055D01*
X37284613Y-64315131D01*
X37289267Y-64335295D01*
X37289783Y-64336628D01*
X37290244Y-64339287D01*
X37291803Y-64343894D01*
X37294124Y-64350753D01*
X37297265Y-64361620D01*
X37307125Y-64402534D01*
X37309607Y-64407992D01*
X37309608Y-64407996D01*
X37324628Y-64441030D01*
X37325046Y-64442055D01*
X37325124Y-64442338D01*
X37325498Y-64443166D01*
X37325502Y-64443175D01*
X37335032Y-64464253D01*
X37337435Y-64469937D01*
X37345125Y-64489440D01*
X37345507Y-64490110D01*
X37346157Y-64492080D01*
X37357178Y-64513599D01*
X37359830Y-64519105D01*
X37366660Y-64534213D01*
X37366665Y-64534223D01*
X37368501Y-64538283D01*
X37368803Y-64538758D01*
X37369481Y-64540519D01*
X37370542Y-64542365D01*
X37370793Y-64543931D01*
X37371308Y-64543697D01*
X37394674Y-64595087D01*
X37446524Y-64668181D01*
X37449044Y-64671917D01*
X37449329Y-64672298D01*
X37451741Y-64676061D01*
X37451817Y-64676149D01*
X37452544Y-64677444D01*
X37455552Y-64681271D01*
X37456292Y-64682213D01*
X37459987Y-64687161D01*
X37517054Y-64767611D01*
X37521385Y-64771757D01*
X37655721Y-64900355D01*
X37669850Y-64913881D01*
X37847548Y-65028620D01*
X37853114Y-65030863D01*
X38038168Y-65105442D01*
X38038171Y-65105443D01*
X38043737Y-65107686D01*
X38251337Y-65148228D01*
X38256899Y-65148500D01*
X38412846Y-65148500D01*
X38570566Y-65133452D01*
X38773534Y-65073908D01*
X38857111Y-65030863D01*
X38956249Y-64979804D01*
X38956252Y-64979802D01*
X38961580Y-64977058D01*
X39127920Y-64846396D01*
X39131852Y-64841865D01*
X39131855Y-64841862D01*
X39262621Y-64691167D01*
X39266552Y-64686637D01*
X39269552Y-64681451D01*
X39269555Y-64681447D01*
X39369467Y-64508742D01*
X39372473Y-64503546D01*
X39441861Y-64303729D01*
X39442722Y-64297792D01*
X39471352Y-64100336D01*
X39471352Y-64100333D01*
X39472213Y-64094396D01*
X39466700Y-63975299D01*
X39466714Y-63975210D01*
X39466594Y-63969275D01*
X39466616Y-63965685D01*
X39468147Y-63965694D01*
X39468390Y-63964081D01*
X39466186Y-63964183D01*
X39465148Y-63941753D01*
X39462433Y-63883101D01*
X39457850Y-63864082D01*
X39457489Y-63862586D01*
X42780639Y-63862586D01*
X42780762Y-63867458D01*
X42780762Y-63867462D01*
X42781234Y-63886139D01*
X42781234Y-63892503D01*
X42781023Y-63900864D01*
X42780717Y-63912972D01*
X42781015Y-63915505D01*
X42780719Y-63919259D01*
X42781089Y-63924121D01*
X42781083Y-63928205D01*
X42781174Y-63930822D01*
X42781002Y-63959050D01*
X42783235Y-63966861D01*
X42783293Y-63967485D01*
X42783345Y-63969564D01*
X42783657Y-63971406D01*
X42783730Y-63972197D01*
X42783638Y-63975468D01*
X42786614Y-63998889D01*
X42787254Y-64005197D01*
X42788808Y-64025638D01*
X42789272Y-64027730D01*
X42789347Y-64031107D01*
X42793509Y-64054408D01*
X42794456Y-64060609D01*
X42797048Y-64081014D01*
X42797558Y-64082867D01*
X42797786Y-64086011D01*
X42802199Y-64105130D01*
X42803116Y-64109101D01*
X42804382Y-64115291D01*
X42808008Y-64135596D01*
X42808530Y-64137178D01*
X42808886Y-64140073D01*
X42810212Y-64144741D01*
X42810213Y-64144748D01*
X42815389Y-64162975D01*
X42816952Y-64169051D01*
X42821606Y-64189215D01*
X42822122Y-64190548D01*
X42822583Y-64193207D01*
X42830243Y-64215845D01*
X42832092Y-64221792D01*
X42836536Y-64237444D01*
X42836539Y-64237452D01*
X42837767Y-64241777D01*
X42838254Y-64242870D01*
X42838798Y-64245292D01*
X42840586Y-64249826D01*
X42840589Y-64249837D01*
X42847597Y-64267612D01*
X42849731Y-64273441D01*
X42856416Y-64293196D01*
X42856854Y-64294061D01*
X42857458Y-64296243D01*
X42859464Y-64300681D01*
X42859466Y-64300686D01*
X42867364Y-64318158D01*
X42869767Y-64323840D01*
X42875584Y-64338592D01*
X42877464Y-64343360D01*
X42877846Y-64344031D01*
X42878501Y-64346014D01*
X42880716Y-64350339D01*
X42880720Y-64350348D01*
X42889504Y-64367497D01*
X42892167Y-64373023D01*
X42900832Y-64392190D01*
X42901142Y-64392677D01*
X42901820Y-64394439D01*
X42904244Y-64398655D01*
X42904245Y-64398657D01*
X42913901Y-64415451D01*
X42916814Y-64420815D01*
X42926457Y-64439640D01*
X42926683Y-64439960D01*
X42927386Y-64441552D01*
X42930010Y-64445645D01*
X42940492Y-64461995D01*
X42943640Y-64467176D01*
X42954212Y-64485562D01*
X42954372Y-64485767D01*
X42955086Y-64487194D01*
X42966714Y-64503546D01*
X42969215Y-64507063D01*
X42972600Y-64512076D01*
X42984080Y-64529981D01*
X42984156Y-64530069D01*
X42984883Y-64531364D01*
X42999985Y-64550581D01*
X43003580Y-64555390D01*
X43013320Y-64569088D01*
X43013329Y-64569099D01*
X43015931Y-64572758D01*
X43015951Y-64572779D01*
X43016696Y-64573969D01*
X43019884Y-64577649D01*
X43032689Y-64592432D01*
X43036522Y-64597076D01*
X43038805Y-64599981D01*
X43049658Y-64613792D01*
X43050475Y-64614968D01*
X43053828Y-64618485D01*
X43053833Y-64618491D01*
X43067361Y-64632680D01*
X43071400Y-64637124D01*
X43083126Y-64650661D01*
X43083128Y-64650663D01*
X43085256Y-64653119D01*
X43086164Y-64654302D01*
X43089698Y-64657671D01*
X43103880Y-64671192D01*
X43108131Y-64675443D01*
X43119309Y-64687167D01*
X43122700Y-64690724D01*
X43123662Y-64691860D01*
X43127334Y-64695041D01*
X43127339Y-64695046D01*
X43142174Y-64707897D01*
X43146615Y-64711933D01*
X43161959Y-64726561D01*
X43162980Y-64727656D01*
X43182197Y-64742757D01*
X43186842Y-64746591D01*
X43202972Y-64760564D01*
X43202992Y-64760577D01*
X43204018Y-64761577D01*
X43218334Y-64771757D01*
X43223921Y-64775730D01*
X43228752Y-64779343D01*
X43245502Y-64792506D01*
X43245591Y-64792557D01*
X43246719Y-64793556D01*
X43250823Y-64796187D01*
X43250827Y-64796190D01*
X43267242Y-64806713D01*
X43272240Y-64810089D01*
X43289583Y-64822422D01*
X43289774Y-64822521D01*
X43291047Y-64823542D01*
X43312127Y-64835663D01*
X43317301Y-64838806D01*
X43335151Y-64850250D01*
X43335487Y-64850403D01*
X43336924Y-64851446D01*
X43358504Y-64862498D01*
X43363873Y-64865415D01*
X43382169Y-64875935D01*
X43382662Y-64876132D01*
X43384276Y-64877187D01*
X43406306Y-64887147D01*
X43411769Y-64889779D01*
X43430553Y-64899399D01*
X43431234Y-64899633D01*
X43433060Y-64900703D01*
X43437581Y-64902486D01*
X43437582Y-64902486D01*
X43455433Y-64909524D01*
X43461121Y-64911930D01*
X43476138Y-64918719D01*
X43476149Y-64918723D01*
X43480221Y-64920564D01*
X43481123Y-64920826D01*
X43483177Y-64921897D01*
X43487792Y-64923458D01*
X43487793Y-64923459D01*
X43505883Y-64929580D01*
X43511714Y-64931715D01*
X43526967Y-64937729D01*
X43526974Y-64937731D01*
X43531128Y-64939369D01*
X43532254Y-64939637D01*
X43534546Y-64940691D01*
X43551864Y-64945609D01*
X43564533Y-64949947D01*
X43583737Y-64957686D01*
X43589622Y-64958835D01*
X43589628Y-64958837D01*
X43612669Y-64963336D01*
X43622942Y-64965793D01*
X43631934Y-64968347D01*
X43631942Y-64968349D01*
X43636250Y-64969572D01*
X43637864Y-64969790D01*
X43640658Y-64970751D01*
X43645436Y-64971604D01*
X43645442Y-64971606D01*
X43663998Y-64974920D01*
X43670179Y-64976185D01*
X43685897Y-64979813D01*
X43685910Y-64979815D01*
X43690273Y-64980822D01*
X43692149Y-64980981D01*
X43695217Y-64981866D01*
X43712187Y-64984022D01*
X43718656Y-64984844D01*
X43724926Y-64985802D01*
X43741084Y-64988687D01*
X43745147Y-64989413D01*
X43745329Y-64989419D01*
X43749255Y-64990010D01*
X43764254Y-64992939D01*
X43791337Y-64998228D01*
X43796899Y-64998500D01*
X43861957Y-64998500D01*
X43861957Y-64999810D01*
X43863258Y-64999562D01*
X43863235Y-64998666D01*
X43868216Y-64998540D01*
X43871403Y-64998500D01*
X43908580Y-64998500D01*
X43908582Y-64998501D01*
X43911722Y-64998540D01*
X43913620Y-64998588D01*
X43913600Y-64999377D01*
X43914370Y-64999210D01*
X43914370Y-64998500D01*
X43918817Y-64998500D01*
X43919909Y-64998586D01*
X43921040Y-64998500D01*
X43952846Y-64998500D01*
X44110566Y-64983452D01*
X44313534Y-64923908D01*
X44323609Y-64918719D01*
X44496249Y-64829804D01*
X44496252Y-64829802D01*
X44501580Y-64827058D01*
X44667920Y-64696396D01*
X44806552Y-64536637D01*
X44809552Y-64531451D01*
X44809555Y-64531447D01*
X44909467Y-64358742D01*
X44912473Y-64353546D01*
X44981861Y-64153729D01*
X44987885Y-64112183D01*
X45011352Y-63950336D01*
X45011352Y-63950333D01*
X45012213Y-63944396D01*
X45002433Y-63733101D01*
X44966624Y-63584514D01*
X44954281Y-63533299D01*
X44954280Y-63533297D01*
X44952875Y-63527466D01*
X44942765Y-63505229D01*
X44889213Y-63387449D01*
X44865326Y-63334913D01*
X44747941Y-63169430D01*
X44746412Y-63167275D01*
X44746411Y-63167274D01*
X44742946Y-63162389D01*
X44596803Y-63022488D01*
X44594480Y-63020264D01*
X44590150Y-63016119D01*
X44412452Y-62901380D01*
X44327484Y-62867137D01*
X44221832Y-62824558D01*
X44221829Y-62824557D01*
X44216263Y-62822314D01*
X44008663Y-62781772D01*
X44003101Y-62781500D01*
X43943483Y-62781500D01*
X43933929Y-62781137D01*
X43927477Y-62780646D01*
X43927472Y-62780646D01*
X43923001Y-62780306D01*
X43920451Y-62780475D01*
X43916721Y-62779991D01*
X43909905Y-62780163D01*
X43893168Y-62780586D01*
X43886804Y-62780586D01*
X43870811Y-62780182D01*
X43870809Y-62780182D01*
X43866335Y-62780069D01*
X43863801Y-62780367D01*
X43860046Y-62780071D01*
X43836537Y-62781858D01*
X43830202Y-62782179D01*
X43814230Y-62782583D01*
X43814224Y-62782584D01*
X43809742Y-62782697D01*
X43807409Y-62783092D01*
X43803825Y-62782991D01*
X43798994Y-62783605D01*
X43798993Y-62783605D01*
X43780419Y-62785965D01*
X43774091Y-62786607D01*
X43767710Y-62787092D01*
X43753668Y-62788160D01*
X43751578Y-62788623D01*
X43748215Y-62788698D01*
X43743422Y-62789554D01*
X43743420Y-62789554D01*
X43738274Y-62790473D01*
X43726310Y-62792609D01*
X43716140Y-62794000D01*
X43689434Y-62796548D01*
X43672959Y-62801381D01*
X43659647Y-62804512D01*
X43648139Y-62806567D01*
X43648124Y-62806571D01*
X43643727Y-62807356D01*
X43642136Y-62807881D01*
X43639233Y-62808238D01*
X43616317Y-62814745D01*
X43610283Y-62816297D01*
X43590090Y-62820958D01*
X43588761Y-62821472D01*
X43586104Y-62821933D01*
X43581501Y-62823490D01*
X43581495Y-62823492D01*
X43563479Y-62829588D01*
X43557518Y-62831441D01*
X43541853Y-62835890D01*
X43541851Y-62835891D01*
X43537529Y-62837118D01*
X43536433Y-62837606D01*
X43534013Y-62838150D01*
X43529491Y-62839933D01*
X43529481Y-62839936D01*
X43511713Y-62846942D01*
X43505883Y-62849076D01*
X43490351Y-62854332D01*
X43490347Y-62854334D01*
X43486114Y-62855766D01*
X43485242Y-62856207D01*
X43483047Y-62856815D01*
X43461098Y-62866738D01*
X43455449Y-62869126D01*
X43435945Y-62876817D01*
X43435281Y-62877195D01*
X43433313Y-62877845D01*
X43411797Y-62888865D01*
X43406290Y-62891517D01*
X43391180Y-62898348D01*
X43391176Y-62898350D01*
X43387102Y-62900192D01*
X43386621Y-62900498D01*
X43384844Y-62901182D01*
X43380631Y-62903605D01*
X43380628Y-62903606D01*
X43378698Y-62904716D01*
X43363835Y-62913263D01*
X43358502Y-62916159D01*
X43339684Y-62925797D01*
X43339355Y-62926030D01*
X43337775Y-62926727D01*
X43333679Y-62929353D01*
X43333673Y-62929356D01*
X43317295Y-62939856D01*
X43312125Y-62942997D01*
X43293723Y-62953579D01*
X43293537Y-62953724D01*
X43292110Y-62954438D01*
X43288159Y-62957248D01*
X43288155Y-62957250D01*
X43283135Y-62960820D01*
X43272579Y-62968327D01*
X43272258Y-62968555D01*
X43267241Y-62971944D01*
X43249342Y-62983418D01*
X43249243Y-62983503D01*
X43247940Y-62984235D01*
X43244119Y-62987237D01*
X43244117Y-62987239D01*
X43228739Y-62999324D01*
X43223918Y-63002929D01*
X43206546Y-63015283D01*
X43206519Y-63015309D01*
X43205316Y-63016062D01*
X43192248Y-63027383D01*
X43186843Y-63032065D01*
X43182209Y-63035890D01*
X43165504Y-63049017D01*
X43164337Y-63049828D01*
X43160814Y-63053187D01*
X43146614Y-63066725D01*
X43142169Y-63070765D01*
X43136777Y-63075436D01*
X43126224Y-63084578D01*
X43125022Y-63085501D01*
X43121661Y-63089026D01*
X43121660Y-63089027D01*
X43108141Y-63103206D01*
X43103895Y-63107452D01*
X43090920Y-63119823D01*
X43090919Y-63119825D01*
X43088566Y-63122068D01*
X43087427Y-63123032D01*
X43084242Y-63126709D01*
X43084234Y-63126717D01*
X43071408Y-63141525D01*
X43067384Y-63145954D01*
X43052709Y-63161345D01*
X43051649Y-63162333D01*
X43036522Y-63181582D01*
X43032728Y-63186180D01*
X43018726Y-63202345D01*
X43018720Y-63202354D01*
X43017728Y-63203372D01*
X43014908Y-63207338D01*
X43014907Y-63207339D01*
X43003586Y-63223260D01*
X42999968Y-63228098D01*
X42989538Y-63241369D01*
X42989534Y-63241374D01*
X42986799Y-63244855D01*
X42986748Y-63244943D01*
X42985748Y-63246073D01*
X42972576Y-63266619D01*
X42969216Y-63271593D01*
X42956883Y-63288936D01*
X42956783Y-63289130D01*
X42955763Y-63290401D01*
X42953337Y-63294620D01*
X42953335Y-63294623D01*
X42943658Y-63311453D01*
X42940514Y-63316629D01*
X42929055Y-63334504D01*
X42928904Y-63334835D01*
X42927867Y-63336264D01*
X42925649Y-63340594D01*
X42925648Y-63340596D01*
X42916814Y-63357843D01*
X42913907Y-63363195D01*
X42903369Y-63381522D01*
X42903172Y-63382017D01*
X42902113Y-63383636D01*
X42900106Y-63388074D01*
X42900106Y-63388075D01*
X42892168Y-63405632D01*
X42889503Y-63411164D01*
X42879912Y-63429891D01*
X42879674Y-63430584D01*
X42878602Y-63432413D01*
X42876817Y-63436939D01*
X42876816Y-63436942D01*
X42869778Y-63454793D01*
X42867381Y-63460462D01*
X42858737Y-63479581D01*
X42858477Y-63480477D01*
X42857410Y-63482523D01*
X42849717Y-63505259D01*
X42847590Y-63511067D01*
X42842327Y-63524417D01*
X42839936Y-63530480D01*
X42839669Y-63531604D01*
X42838614Y-63533897D01*
X42837285Y-63538576D01*
X42837282Y-63538585D01*
X42832094Y-63556857D01*
X42830244Y-63562807D01*
X42823577Y-63582512D01*
X42823322Y-63583883D01*
X42822303Y-63586424D01*
X42816947Y-63609629D01*
X42815399Y-63615650D01*
X42809733Y-63635601D01*
X42809515Y-63637212D01*
X42808554Y-63640007D01*
X42807698Y-63644802D01*
X42807696Y-63644808D01*
X42804383Y-63663360D01*
X42803124Y-63669516D01*
X42798482Y-63689629D01*
X42798323Y-63691503D01*
X42797439Y-63694568D01*
X42796825Y-63699401D01*
X42794462Y-63718002D01*
X42793506Y-63724268D01*
X42789893Y-63744494D01*
X42789820Y-63746615D01*
X42789043Y-63749927D01*
X42788674Y-63754785D01*
X42788673Y-63754789D01*
X42787253Y-63773465D01*
X42786611Y-63779789D01*
X42785968Y-63784855D01*
X42784029Y-63800116D01*
X42784066Y-63802454D01*
X42783423Y-63805993D01*
X42783360Y-63808487D01*
X42781892Y-63813395D01*
X42781837Y-63822370D01*
X42781837Y-63822371D01*
X42781716Y-63842249D01*
X42781356Y-63851024D01*
X42780954Y-63856305D01*
X42781124Y-63858856D01*
X42780639Y-63862586D01*
X39457489Y-63862586D01*
X39438756Y-63784855D01*
X39439505Y-63784675D01*
X39439200Y-63784014D01*
X39438589Y-63784161D01*
X39437842Y-63781063D01*
X39412875Y-63677466D01*
X39403637Y-63657147D01*
X39377802Y-63600328D01*
X39375284Y-63594391D01*
X39371791Y-63585532D01*
X39370153Y-63581377D01*
X39369774Y-63580711D01*
X39369125Y-63578746D01*
X39366908Y-63574416D01*
X39360338Y-63561586D01*
X39357788Y-63556308D01*
X39355696Y-63551707D01*
X39325326Y-63484913D01*
X39321863Y-63480031D01*
X39321860Y-63480026D01*
X39296908Y-63444851D01*
X39294914Y-63441800D01*
X39293401Y-63439169D01*
X39293246Y-63438971D01*
X39292532Y-63437543D01*
X39278418Y-63417695D01*
X39275033Y-63412684D01*
X39266005Y-63398603D01*
X39266004Y-63398602D01*
X39263543Y-63394763D01*
X39263464Y-63394672D01*
X39262735Y-63393373D01*
X39247646Y-63374171D01*
X39244041Y-63369351D01*
X39231687Y-63351979D01*
X39231668Y-63351959D01*
X39230923Y-63350769D01*
X39227727Y-63347080D01*
X39224838Y-63343172D01*
X39224905Y-63343122D01*
X39223240Y-63340998D01*
X39206416Y-63317281D01*
X39202946Y-63312389D01*
X39176349Y-63286929D01*
X39168256Y-63278422D01*
X39162358Y-63271613D01*
X39161462Y-63270446D01*
X39157945Y-63267092D01*
X39157938Y-63267085D01*
X39143728Y-63253536D01*
X39139488Y-63249297D01*
X39124917Y-63234015D01*
X39123947Y-63232869D01*
X39105436Y-63216834D01*
X39101016Y-63212816D01*
X39092770Y-63204954D01*
X39088003Y-63200409D01*
X39088001Y-63200408D01*
X39085637Y-63198154D01*
X39084637Y-63197081D01*
X39080508Y-63193836D01*
X39077508Y-63191479D01*
X39068223Y-63183421D01*
X39066312Y-63181591D01*
X39050150Y-63166119D01*
X39044374Y-63162389D01*
X39027507Y-63151498D01*
X39018006Y-63144719D01*
X39005702Y-63135050D01*
X39002115Y-63132231D01*
X39002021Y-63132177D01*
X39000886Y-63131172D01*
X38994578Y-63127128D01*
X38980378Y-63118024D01*
X38975364Y-63114638D01*
X38974849Y-63114272D01*
X38958034Y-63102315D01*
X38957845Y-63102217D01*
X38956582Y-63101204D01*
X38950068Y-63097458D01*
X38935972Y-63089353D01*
X38935491Y-63089076D01*
X38930322Y-63085936D01*
X38912453Y-63074481D01*
X38912129Y-63074333D01*
X38910693Y-63073291D01*
X38904609Y-63070175D01*
X38895476Y-63065497D01*
X38884572Y-63059205D01*
X38877496Y-63054636D01*
X38877489Y-63054632D01*
X38872452Y-63051380D01*
X38866890Y-63049139D01*
X38864317Y-63047805D01*
X38863424Y-63047381D01*
X38863346Y-63047553D01*
X38841326Y-63037597D01*
X38835814Y-63034941D01*
X38821057Y-63027383D01*
X38821056Y-63027382D01*
X38817064Y-63025338D01*
X38816383Y-63025104D01*
X38814557Y-63024034D01*
X38792174Y-63015208D01*
X38786502Y-63012809D01*
X38771497Y-63006025D01*
X38771491Y-63006023D01*
X38767404Y-63004175D01*
X38766497Y-63003912D01*
X38764442Y-63002840D01*
X38741722Y-62995153D01*
X38735897Y-62993020D01*
X38729445Y-62990476D01*
X38716490Y-62985368D01*
X38715364Y-62985100D01*
X38713072Y-62984046D01*
X38705758Y-62981969D01*
X38693467Y-62978479D01*
X38683208Y-62974966D01*
X38681831Y-62974558D01*
X38676263Y-62972314D01*
X38674775Y-62972024D01*
X38673186Y-62970997D01*
X38673035Y-62971576D01*
X38671508Y-62971178D01*
X38671442Y-62971373D01*
X38668700Y-62970445D01*
X38664451Y-62969007D01*
X38663082Y-62968752D01*
X38660545Y-62967735D01*
X38637340Y-62962379D01*
X38631319Y-62960831D01*
X38611368Y-62955165D01*
X38609749Y-62954946D01*
X38606942Y-62953981D01*
X38583604Y-62949813D01*
X38577417Y-62948547D01*
X38561705Y-62944921D01*
X38561699Y-62944920D01*
X38557340Y-62943914D01*
X38555466Y-62943755D01*
X38552419Y-62942876D01*
X38547596Y-62942263D01*
X38547591Y-62942262D01*
X38531743Y-62940248D01*
X38528959Y-62939895D01*
X38522717Y-62938941D01*
X38502454Y-62935323D01*
X38500347Y-62935250D01*
X38497041Y-62934475D01*
X38492194Y-62934106D01*
X38492191Y-62934106D01*
X38476261Y-62932895D01*
X38472524Y-62932526D01*
X38468663Y-62931772D01*
X38464139Y-62931551D01*
X38460034Y-62931052D01*
X38457942Y-62930868D01*
X38451329Y-62930028D01*
X38451323Y-62930028D01*
X38446872Y-62929462D01*
X38444520Y-62929499D01*
X38440975Y-62928855D01*
X38436117Y-62928732D01*
X38436115Y-62928732D01*
X38417416Y-62928259D01*
X38411050Y-62927936D01*
X38395141Y-62926726D01*
X38395132Y-62926726D01*
X38390662Y-62926386D01*
X38388112Y-62926555D01*
X38384382Y-62926071D01*
X38377566Y-62926243D01*
X38360829Y-62926666D01*
X38354465Y-62926666D01*
X38338472Y-62926262D01*
X38338470Y-62926262D01*
X38333996Y-62926149D01*
X38331462Y-62926447D01*
X38327707Y-62926151D01*
X38304198Y-62927938D01*
X38297863Y-62928259D01*
X38281890Y-62928663D01*
X38281884Y-62928664D01*
X38277403Y-62928777D01*
X38275070Y-62929172D01*
X38271484Y-62929071D01*
X38266654Y-62929685D01*
X38266651Y-62929685D01*
X38248083Y-62932045D01*
X38241792Y-62932684D01*
X38221329Y-62934240D01*
X38219239Y-62934703D01*
X38215877Y-62934778D01*
X38211080Y-62935635D01*
X38211076Y-62935635D01*
X38192580Y-62938937D01*
X38186323Y-62939893D01*
X38170386Y-62941919D01*
X38170378Y-62941921D01*
X38165937Y-62942485D01*
X38164106Y-62942989D01*
X38160961Y-62943217D01*
X38145004Y-62946900D01*
X38137868Y-62948547D01*
X38131679Y-62949813D01*
X38126040Y-62950820D01*
X38111389Y-62953436D01*
X38109798Y-62953961D01*
X38106894Y-62954318D01*
X38083978Y-62960825D01*
X38077945Y-62962377D01*
X38057755Y-62967037D01*
X38056420Y-62967553D01*
X38053760Y-62968015D01*
X38049155Y-62969573D01*
X38049140Y-62969577D01*
X38031148Y-62975665D01*
X38025186Y-62977519D01*
X38009517Y-62981969D01*
X38009513Y-62981970D01*
X38005190Y-62983198D01*
X38004093Y-62983687D01*
X38001675Y-62984230D01*
X37997151Y-62986014D01*
X37997147Y-62986015D01*
X37979369Y-62993025D01*
X37973538Y-62995159D01*
X37958625Y-63000206D01*
X37953771Y-63001848D01*
X37952902Y-63002288D01*
X37950709Y-63002895D01*
X37928760Y-63012818D01*
X37923111Y-63015206D01*
X37903607Y-63022897D01*
X37902943Y-63023275D01*
X37900975Y-63023925D01*
X37879466Y-63034941D01*
X37873952Y-63037597D01*
X37858842Y-63044428D01*
X37858838Y-63044430D01*
X37854764Y-63046272D01*
X37854283Y-63046578D01*
X37852506Y-63047262D01*
X37848293Y-63049685D01*
X37848290Y-63049686D01*
X37842202Y-63053187D01*
X37831497Y-63059343D01*
X37826164Y-63062239D01*
X37807346Y-63071877D01*
X37807017Y-63072110D01*
X37805437Y-63072807D01*
X37801341Y-63075433D01*
X37801335Y-63075436D01*
X37784957Y-63085936D01*
X37779787Y-63089077D01*
X37761385Y-63099659D01*
X37761199Y-63099804D01*
X37759772Y-63100518D01*
X37755821Y-63103328D01*
X37755817Y-63103330D01*
X37739920Y-63114635D01*
X37734903Y-63118024D01*
X37717004Y-63129498D01*
X37716905Y-63129583D01*
X37715602Y-63130315D01*
X37711782Y-63133317D01*
X37696419Y-63145390D01*
X37691587Y-63149004D01*
X37677955Y-63158698D01*
X37677948Y-63158703D01*
X37674208Y-63161363D01*
X37674184Y-63161386D01*
X37672986Y-63162136D01*
X37654480Y-63178167D01*
X37649871Y-63181970D01*
X37633162Y-63195100D01*
X37631988Y-63195916D01*
X37614251Y-63212827D01*
X37609827Y-63216847D01*
X37596558Y-63228341D01*
X37593866Y-63230673D01*
X37592684Y-63231581D01*
X37575763Y-63249328D01*
X37571567Y-63253524D01*
X37556253Y-63268125D01*
X37555098Y-63269103D01*
X37539298Y-63287343D01*
X37539087Y-63287586D01*
X37535046Y-63292032D01*
X37522633Y-63305051D01*
X37522630Y-63305056D01*
X37520378Y-63307418D01*
X37519310Y-63308413D01*
X37516293Y-63312252D01*
X37504211Y-63327626D01*
X37500381Y-63332268D01*
X37489272Y-63345092D01*
X37489268Y-63345097D01*
X37486395Y-63348414D01*
X37486384Y-63348431D01*
X37485389Y-63349452D01*
X37477499Y-63360548D01*
X37471247Y-63369340D01*
X37467629Y-63374178D01*
X37457199Y-63387449D01*
X37457195Y-63387454D01*
X37454460Y-63390935D01*
X37454409Y-63391023D01*
X37453409Y-63392153D01*
X37440237Y-63412699D01*
X37436877Y-63417673D01*
X37424544Y-63435016D01*
X37424444Y-63435210D01*
X37423424Y-63436481D01*
X37420998Y-63440700D01*
X37420996Y-63440703D01*
X37411319Y-63457533D01*
X37408175Y-63462709D01*
X37396716Y-63480584D01*
X37396563Y-63480920D01*
X37395520Y-63482357D01*
X37393301Y-63486690D01*
X37393299Y-63486693D01*
X37384479Y-63503916D01*
X37381570Y-63509272D01*
X37371030Y-63527602D01*
X37370833Y-63528095D01*
X37369782Y-63529703D01*
X37365767Y-63538585D01*
X37359834Y-63551707D01*
X37357170Y-63557236D01*
X37347567Y-63575986D01*
X37347333Y-63576667D01*
X37346263Y-63578493D01*
X37337654Y-63600328D01*
X37337443Y-63600863D01*
X37335038Y-63606548D01*
X37330908Y-63615684D01*
X37326404Y-63625646D01*
X37326142Y-63626550D01*
X37325071Y-63628603D01*
X37317378Y-63651339D01*
X37315251Y-63657147D01*
X37309240Y-63672391D01*
X37309237Y-63672401D01*
X37307597Y-63676560D01*
X37307330Y-63677683D01*
X37306273Y-63679981D01*
X37304945Y-63684656D01*
X37304943Y-63684663D01*
X37299750Y-63702954D01*
X37297892Y-63708928D01*
X37293754Y-63721158D01*
X37291238Y-63728592D01*
X37290983Y-63729962D01*
X37289965Y-63732501D01*
X37286708Y-63746615D01*
X37284803Y-63754867D01*
X37281060Y-63767861D01*
X37278139Y-63776271D01*
X37277278Y-63782210D01*
X37276621Y-63784908D01*
X37276215Y-63786087D01*
X37273292Y-63802454D01*
X37272044Y-63809441D01*
X37270782Y-63815611D01*
X37266144Y-63835706D01*
X37265985Y-63837580D01*
X37265100Y-63840648D01*
X37263304Y-63854783D01*
X37262123Y-63864082D01*
X37261167Y-63870348D01*
X37257554Y-63890574D01*
X37257481Y-63892695D01*
X37256704Y-63896007D01*
X37256335Y-63900864D01*
X37254914Y-63919546D01*
X37254272Y-63925872D01*
X37252681Y-63938399D01*
X37251690Y-63946196D01*
X37251727Y-63948534D01*
X37251084Y-63952073D01*
X37251021Y-63954567D01*
X37249553Y-63959475D01*
X37249498Y-63968449D01*
X37249066Y-63971340D01*
X37248890Y-63973676D01*
X37248941Y-63973678D01*
X37248649Y-63979662D01*
X37247787Y-63985604D01*
X19412511Y-63985604D01*
X16499901Y-62165604D01*
X35527787Y-62165604D01*
X35528508Y-62181177D01*
X35530044Y-62214367D01*
X35530139Y-62223377D01*
X35530034Y-62227551D01*
X35529628Y-62243591D01*
X35529926Y-62246125D01*
X35529630Y-62249880D01*
X35530000Y-62254741D01*
X35529994Y-62258827D01*
X35530085Y-62261444D01*
X35530061Y-62265409D01*
X35529913Y-62289669D01*
X35532145Y-62297477D01*
X35532204Y-62298111D01*
X35532256Y-62300184D01*
X35532568Y-62302032D01*
X35532641Y-62302810D01*
X35532549Y-62306085D01*
X35534083Y-62318152D01*
X35534651Y-62322623D01*
X35535521Y-62332679D01*
X35537567Y-62376899D01*
X35545685Y-62410587D01*
X35546595Y-62415240D01*
X35546696Y-62416626D01*
X35547789Y-62421362D01*
X35547790Y-62421368D01*
X35552028Y-62439728D01*
X35553293Y-62445913D01*
X35556129Y-62461792D01*
X35556132Y-62461802D01*
X35556920Y-62466217D01*
X35557441Y-62467795D01*
X35557797Y-62470693D01*
X35559127Y-62475375D01*
X35559128Y-62475382D01*
X35564301Y-62493600D01*
X35565864Y-62499678D01*
X35570516Y-62519832D01*
X35571032Y-62521167D01*
X35571494Y-62523827D01*
X35574834Y-62533699D01*
X35577970Y-62544548D01*
X35587125Y-62582534D01*
X35602276Y-62615857D01*
X35603730Y-62619184D01*
X35603885Y-62619552D01*
X35605327Y-62623816D01*
X35605767Y-62624685D01*
X35606376Y-62626885D01*
X35615439Y-62646930D01*
X35616285Y-62648801D01*
X35618688Y-62654484D01*
X35626375Y-62673980D01*
X35626757Y-62674650D01*
X35627404Y-62676611D01*
X35638424Y-62698129D01*
X35641074Y-62703630D01*
X35647919Y-62718770D01*
X35647923Y-62718778D01*
X35649755Y-62722829D01*
X35650055Y-62723301D01*
X35650735Y-62725067D01*
X35653160Y-62729284D01*
X35653460Y-62729806D01*
X35658930Y-62740461D01*
X35674674Y-62775087D01*
X35693326Y-62801381D01*
X35696658Y-62806079D01*
X35698300Y-62808652D01*
X35698392Y-62808590D01*
X35700894Y-62812304D01*
X35703128Y-62816188D01*
X35703283Y-62816386D01*
X35703997Y-62817814D01*
X35716782Y-62835793D01*
X35718111Y-62837662D01*
X35721496Y-62842673D01*
X35728971Y-62854332D01*
X35732986Y-62860594D01*
X35733065Y-62860685D01*
X35733794Y-62861984D01*
X35748896Y-62881201D01*
X35752491Y-62886010D01*
X35762195Y-62899657D01*
X35762206Y-62899670D01*
X35764842Y-62903378D01*
X35764867Y-62903404D01*
X35765615Y-62904599D01*
X35768804Y-62908280D01*
X35771694Y-62912190D01*
X35771685Y-62912197D01*
X35774270Y-62915492D01*
X35797054Y-62947611D01*
X35801384Y-62951756D01*
X35801390Y-62951763D01*
X35829406Y-62978582D01*
X35832193Y-62981458D01*
X35834153Y-62983721D01*
X35835060Y-62984902D01*
X35845815Y-62995156D01*
X35852780Y-63001797D01*
X35857022Y-63006039D01*
X35871595Y-63021324D01*
X35872581Y-63022488D01*
X35891103Y-63038532D01*
X35895508Y-63042535D01*
X35910897Y-63057208D01*
X35911892Y-63058276D01*
X35915731Y-63061293D01*
X35916722Y-63062203D01*
X35918587Y-63063953D01*
X35945514Y-63089731D01*
X35945519Y-63089735D01*
X35949850Y-63093881D01*
X35954884Y-63097132D01*
X35954891Y-63097137D01*
X35989344Y-63119383D01*
X35992134Y-63121335D01*
X35994414Y-63123126D01*
X35994503Y-63123177D01*
X35995631Y-63124176D01*
X35999735Y-63126807D01*
X36016154Y-63137333D01*
X36021152Y-63140709D01*
X36038495Y-63153042D01*
X36038686Y-63153141D01*
X36039959Y-63154162D01*
X36061039Y-63166283D01*
X36066213Y-63169426D01*
X36080747Y-63178744D01*
X36080748Y-63178745D01*
X36084063Y-63180870D01*
X36083601Y-63181591D01*
X36087445Y-63185428D01*
X36088676Y-63183521D01*
X36122503Y-63205363D01*
X36122507Y-63205365D01*
X36127548Y-63208620D01*
X36172556Y-63226759D01*
X36174758Y-63227671D01*
X36175475Y-63227976D01*
X36179465Y-63230019D01*
X36180146Y-63230253D01*
X36181972Y-63231323D01*
X36204345Y-63240144D01*
X36210033Y-63242550D01*
X36225050Y-63249339D01*
X36225061Y-63249343D01*
X36229133Y-63251184D01*
X36230032Y-63251445D01*
X36232084Y-63252515D01*
X36254798Y-63260200D01*
X36260626Y-63262334D01*
X36269649Y-63265892D01*
X36270526Y-63266242D01*
X36318169Y-63285443D01*
X36318178Y-63285446D01*
X36323737Y-63287686D01*
X36329623Y-63288836D01*
X36329625Y-63288836D01*
X36374212Y-63297543D01*
X36376474Y-63298084D01*
X36376480Y-63298057D01*
X36380868Y-63298973D01*
X36385161Y-63300192D01*
X36386777Y-63300411D01*
X36389570Y-63301371D01*
X36412941Y-63305545D01*
X36419060Y-63306797D01*
X36439189Y-63311443D01*
X36441062Y-63311602D01*
X36444127Y-63312486D01*
X36458855Y-63314357D01*
X36467122Y-63315688D01*
X36526879Y-63327358D01*
X36526887Y-63327359D01*
X36531337Y-63328228D01*
X36536899Y-63328500D01*
X36594891Y-63328500D01*
X36597882Y-63328614D01*
X36601384Y-63328630D01*
X36605865Y-63328971D01*
X36608416Y-63328801D01*
X36612146Y-63329286D01*
X36617018Y-63329163D01*
X36617021Y-63329163D01*
X36635699Y-63328691D01*
X36642063Y-63328691D01*
X36658051Y-63329095D01*
X36658055Y-63329095D01*
X36662532Y-63329208D01*
X36665065Y-63328910D01*
X36668820Y-63329206D01*
X36673679Y-63328837D01*
X36674022Y-63328837D01*
X36682884Y-63328500D01*
X36692846Y-63328500D01*
X36706359Y-63327211D01*
X36714179Y-63326739D01*
X36714651Y-63326693D01*
X36719125Y-63326580D01*
X36721452Y-63326186D01*
X36725029Y-63326287D01*
X36729859Y-63325673D01*
X36729866Y-63325673D01*
X36748442Y-63323313D01*
X36754765Y-63322671D01*
X36760341Y-63322247D01*
X36775199Y-63321117D01*
X36777291Y-63320653D01*
X36780668Y-63320578D01*
X36785452Y-63319724D01*
X36790302Y-63319240D01*
X36790302Y-63319243D01*
X36791281Y-63319109D01*
X36850566Y-63313452D01*
X36856324Y-63311763D01*
X36856328Y-63311762D01*
X36904794Y-63297543D01*
X36923325Y-63292107D01*
X36930445Y-63290242D01*
X36938774Y-63288320D01*
X36940109Y-63287804D01*
X36942764Y-63287343D01*
X36947370Y-63285785D01*
X36947376Y-63285783D01*
X36961194Y-63281108D01*
X36966106Y-63279557D01*
X36987532Y-63273271D01*
X36987534Y-63273270D01*
X36988396Y-63273017D01*
X36988399Y-63273017D01*
X36990903Y-63272282D01*
X36991074Y-63272864D01*
X36991568Y-63272836D01*
X36991366Y-63272146D01*
X36994789Y-63271142D01*
X36995225Y-63272628D01*
X36995344Y-63272621D01*
X36994900Y-63271109D01*
X37012697Y-63265888D01*
X37053534Y-63253908D01*
X37090076Y-63235088D01*
X37129075Y-63215002D01*
X37134857Y-63212208D01*
X37137713Y-63210917D01*
X37137721Y-63210913D01*
X37141772Y-63209081D01*
X37142244Y-63208781D01*
X37144010Y-63208101D01*
X37154709Y-63201949D01*
X37159783Y-63199187D01*
X37215939Y-63170264D01*
X37236249Y-63159804D01*
X37236252Y-63159802D01*
X37241580Y-63157058D01*
X37246290Y-63153358D01*
X37246295Y-63153355D01*
X37308404Y-63104567D01*
X37315151Y-63099267D01*
X37317884Y-63097223D01*
X37318417Y-63096782D01*
X37318583Y-63096652D01*
X37322321Y-63093994D01*
X37322347Y-63093969D01*
X37323542Y-63093221D01*
X37328024Y-63089339D01*
X37332656Y-63085518D01*
X37407920Y-63026396D01*
X37413902Y-63019503D01*
X37474473Y-62949700D01*
X37474938Y-62950104D01*
X37476173Y-62947919D01*
X37477219Y-62946944D01*
X37480223Y-62943121D01*
X37480984Y-62942293D01*
X37482619Y-62940313D01*
X37546552Y-62866637D01*
X37598622Y-62776630D01*
X37599813Y-62774773D01*
X37599966Y-62774437D01*
X37601009Y-62773000D01*
X37603221Y-62768682D01*
X37603256Y-62768622D01*
X37604068Y-62767299D01*
X37604834Y-62765894D01*
X37649466Y-62688744D01*
X37649466Y-62688743D01*
X37652473Y-62683546D01*
X37654882Y-62676611D01*
X37686883Y-62584457D01*
X37686883Y-62584456D01*
X37688227Y-62580586D01*
X37688932Y-62578797D01*
X37689114Y-62578030D01*
X37689358Y-62577327D01*
X37690254Y-62575380D01*
X37691239Y-62571911D01*
X37721861Y-62483729D01*
X37723942Y-62469380D01*
X37751352Y-62280336D01*
X37751352Y-62280333D01*
X37752213Y-62274396D01*
X37747856Y-62180257D01*
X37747723Y-62173665D01*
X37747866Y-62150227D01*
X37746268Y-62144635D01*
X37746144Y-62143283D01*
X37742433Y-62063101D01*
X37720167Y-61970712D01*
X37720990Y-61970514D01*
X37720324Y-61969075D01*
X37719974Y-61969174D01*
X37719487Y-61967458D01*
X37719371Y-61967017D01*
X37719344Y-61966960D01*
X37718804Y-61965057D01*
X37718525Y-61963901D01*
X37718431Y-61963434D01*
X37718207Y-61962579D01*
X37717335Y-61958960D01*
X44401193Y-61958960D01*
X44401316Y-61963820D01*
X44401788Y-61982513D01*
X44401788Y-61988877D01*
X44401559Y-61997959D01*
X44401271Y-62009346D01*
X44401569Y-62011880D01*
X44401273Y-62015635D01*
X44401643Y-62020496D01*
X44401637Y-62024582D01*
X44401728Y-62027199D01*
X44401556Y-62055424D01*
X44403788Y-62063234D01*
X44403847Y-62063861D01*
X44403899Y-62065939D01*
X44404211Y-62067781D01*
X44404284Y-62068572D01*
X44404192Y-62071842D01*
X44405298Y-62080547D01*
X44407167Y-62095255D01*
X44407809Y-62101586D01*
X44409362Y-62122013D01*
X44409826Y-62124105D01*
X44409901Y-62127481D01*
X44414055Y-62150739D01*
X44415013Y-62157012D01*
X44417602Y-62177388D01*
X44418110Y-62179233D01*
X44418337Y-62182368D01*
X44419430Y-62187104D01*
X44419430Y-62187105D01*
X44423671Y-62205482D01*
X44424935Y-62211664D01*
X44427772Y-62227551D01*
X44427774Y-62227560D01*
X44428562Y-62231970D01*
X44429086Y-62233556D01*
X44429443Y-62236463D01*
X44430775Y-62241152D01*
X44430775Y-62241154D01*
X44435935Y-62259324D01*
X44437501Y-62265409D01*
X44442155Y-62285574D01*
X44442675Y-62286918D01*
X44443136Y-62289576D01*
X44444700Y-62294197D01*
X44450788Y-62312192D01*
X44452640Y-62318146D01*
X44458326Y-62338167D01*
X44458809Y-62339252D01*
X44459352Y-62341667D01*
X44461136Y-62346191D01*
X44468146Y-62363971D01*
X44470276Y-62369787D01*
X44476968Y-62389566D01*
X44477407Y-62390434D01*
X44478014Y-62392625D01*
X44480018Y-62397057D01*
X44487925Y-62414547D01*
X44490332Y-62420240D01*
X44498018Y-62439735D01*
X44498397Y-62440401D01*
X44499046Y-62442366D01*
X44510049Y-62463849D01*
X44512713Y-62469380D01*
X44519535Y-62484470D01*
X44519538Y-62484476D01*
X44521389Y-62488570D01*
X44521696Y-62489052D01*
X44522377Y-62490822D01*
X44534457Y-62511831D01*
X44537354Y-62517164D01*
X44546998Y-62535995D01*
X44547230Y-62536323D01*
X44547934Y-62537918D01*
X44550559Y-62542013D01*
X44550561Y-62542016D01*
X44561045Y-62558368D01*
X44564205Y-62563568D01*
X44570997Y-62575380D01*
X44574770Y-62581943D01*
X44574925Y-62582141D01*
X44575639Y-62583569D01*
X44578460Y-62587536D01*
X44589753Y-62603417D01*
X44593138Y-62608428D01*
X44600034Y-62619184D01*
X44604628Y-62626349D01*
X44604707Y-62626440D01*
X44605436Y-62627739D01*
X44620538Y-62646956D01*
X44624133Y-62651765D01*
X44633873Y-62665463D01*
X44633882Y-62665474D01*
X44636484Y-62669133D01*
X44636504Y-62669154D01*
X44637249Y-62670344D01*
X44653263Y-62688831D01*
X44657077Y-62693453D01*
X44670220Y-62710178D01*
X44671036Y-62711353D01*
X44687930Y-62729072D01*
X44691955Y-62733500D01*
X44705804Y-62749488D01*
X44706701Y-62750657D01*
X44724426Y-62767557D01*
X44728655Y-62771787D01*
X44741002Y-62784737D01*
X44741006Y-62784740D01*
X44743249Y-62787092D01*
X44744232Y-62788253D01*
X44762743Y-62804287D01*
X44767163Y-62808304D01*
X44782546Y-62822971D01*
X44783533Y-62824030D01*
X44787360Y-62827037D01*
X44787365Y-62827042D01*
X44802759Y-62839139D01*
X44807398Y-62842967D01*
X44811380Y-62846416D01*
X44816017Y-62850639D01*
X44825513Y-62859730D01*
X44825517Y-62859733D01*
X44829850Y-62863881D01*
X44834890Y-62867135D01*
X44834892Y-62867137D01*
X44849577Y-62876619D01*
X44859078Y-62883397D01*
X44866055Y-62888880D01*
X44866145Y-62888932D01*
X44867284Y-62889940D01*
X44871374Y-62892562D01*
X44871382Y-62892568D01*
X44887793Y-62903088D01*
X44892767Y-62906447D01*
X44910124Y-62918790D01*
X44910323Y-62918892D01*
X44911588Y-62919908D01*
X44915812Y-62922337D01*
X44915815Y-62922339D01*
X44932676Y-62932034D01*
X44937846Y-62935174D01*
X44955717Y-62946631D01*
X44956041Y-62946779D01*
X44957477Y-62947821D01*
X44961801Y-62950035D01*
X44961802Y-62950036D01*
X44963333Y-62950820D01*
X44974248Y-62957118D01*
X44979981Y-62960820D01*
X45007548Y-62978620D01*
X45013111Y-62980862D01*
X45013113Y-62980863D01*
X45083123Y-63009078D01*
X45087925Y-63011130D01*
X45096693Y-63015094D01*
X45096699Y-63015096D01*
X45100782Y-63016942D01*
X45101676Y-63017201D01*
X45103729Y-63018272D01*
X45108338Y-63019831D01*
X45108344Y-63019834D01*
X45114103Y-63021782D01*
X45120819Y-63024269D01*
X45198173Y-63055444D01*
X45198176Y-63055445D01*
X45203737Y-63057686D01*
X45209618Y-63058834D01*
X45209623Y-63058836D01*
X45302068Y-63076889D01*
X45411337Y-63098228D01*
X45416899Y-63098500D01*
X45572846Y-63098500D01*
X45730566Y-63083452D01*
X45933534Y-63023908D01*
X45942087Y-63019503D01*
X46116249Y-62929804D01*
X46116252Y-62929802D01*
X46121580Y-62927058D01*
X46287920Y-62796396D01*
X46291852Y-62791865D01*
X46291855Y-62791862D01*
X46422621Y-62641167D01*
X46426552Y-62636637D01*
X46429552Y-62631451D01*
X46429555Y-62631447D01*
X46529467Y-62458742D01*
X46532473Y-62453546D01*
X46601861Y-62253729D01*
X46603980Y-62239117D01*
X46631352Y-62050336D01*
X46631352Y-62050333D01*
X46632213Y-62044396D01*
X46622433Y-61833101D01*
X46585597Y-61680256D01*
X46574281Y-61633299D01*
X46574280Y-61633297D01*
X46572875Y-61627466D01*
X46567769Y-61616234D01*
X46491683Y-61448895D01*
X46485326Y-61434913D01*
X46380154Y-61286648D01*
X46366412Y-61267275D01*
X46366411Y-61267274D01*
X46362946Y-61262389D01*
X46246140Y-61150572D01*
X46214480Y-61120264D01*
X46210150Y-61116119D01*
X46032452Y-61001380D01*
X45980379Y-60980394D01*
X45978133Y-60979367D01*
X45978100Y-60979444D01*
X45973970Y-60977688D01*
X45969970Y-60975639D01*
X45969277Y-60975401D01*
X45967453Y-60974332D01*
X45945062Y-60965503D01*
X45939397Y-60963107D01*
X45924358Y-60956309D01*
X45924357Y-60956309D01*
X45920272Y-60954462D01*
X45919383Y-60954204D01*
X45917333Y-60953135D01*
X45912726Y-60951576D01*
X45894625Y-60945451D01*
X45888797Y-60943318D01*
X45869982Y-60935900D01*
X45869098Y-60935547D01*
X45841829Y-60924557D01*
X45841827Y-60924556D01*
X45836263Y-60922314D01*
X45810683Y-60917318D01*
X45806532Y-60916434D01*
X45790242Y-60912675D01*
X45784177Y-60911115D01*
X45768571Y-60906683D01*
X45764275Y-60905463D01*
X45762652Y-60905243D01*
X45759853Y-60904281D01*
X45736482Y-60900107D01*
X45730313Y-60898845D01*
X45710214Y-60894207D01*
X45708363Y-60894050D01*
X45705309Y-60893169D01*
X45700479Y-60892555D01*
X45700478Y-60892555D01*
X45691795Y-60891452D01*
X45681838Y-60890186D01*
X45675597Y-60889233D01*
X45655366Y-60885620D01*
X45653249Y-60885547D01*
X45649932Y-60884769D01*
X45645079Y-60884400D01*
X45640273Y-60883658D01*
X45640281Y-60883603D01*
X45633620Y-60882703D01*
X45633120Y-60882642D01*
X45628663Y-60881772D01*
X45623101Y-60881500D01*
X45621460Y-60881500D01*
X45621404Y-60881496D01*
X45620031Y-60881463D01*
X45620032Y-60881410D01*
X45605578Y-60880495D01*
X45599761Y-60879756D01*
X45597401Y-60879793D01*
X45593849Y-60879148D01*
X45588988Y-60879025D01*
X45588986Y-60879025D01*
X45570311Y-60878553D01*
X45563943Y-60878230D01*
X45548033Y-60877020D01*
X45548024Y-60877020D01*
X45543553Y-60876680D01*
X45541003Y-60876849D01*
X45537290Y-60876367D01*
X45513699Y-60876963D01*
X45507367Y-60876963D01*
X45486870Y-60876445D01*
X45484354Y-60876741D01*
X45480598Y-60876445D01*
X45468798Y-60877342D01*
X45457130Y-60878229D01*
X45450763Y-60878552D01*
X45442294Y-60878766D01*
X45430311Y-60879069D01*
X45427965Y-60879466D01*
X45424377Y-60879365D01*
X45419546Y-60879979D01*
X45419545Y-60879979D01*
X45400971Y-60882339D01*
X45394643Y-60882981D01*
X45378700Y-60884193D01*
X45378695Y-60884194D01*
X45374220Y-60884534D01*
X45372123Y-60884999D01*
X45368752Y-60885074D01*
X45363962Y-60885929D01*
X45363956Y-60885930D01*
X45345474Y-60889230D01*
X45339215Y-60890186D01*
X45323265Y-60892213D01*
X45323248Y-60892216D01*
X45318829Y-60892778D01*
X45316994Y-60893283D01*
X45313864Y-60893510D01*
X45290738Y-60898847D01*
X45284574Y-60900107D01*
X45264263Y-60903735D01*
X45262677Y-60904259D01*
X45259769Y-60904616D01*
X45255083Y-60905947D01*
X45255082Y-60905947D01*
X45236887Y-60911114D01*
X45230799Y-60912680D01*
X45215021Y-60916321D01*
X45215019Y-60916322D01*
X45210658Y-60917328D01*
X45209319Y-60917846D01*
X45206656Y-60918308D01*
X45183995Y-60925975D01*
X45178059Y-60927821D01*
X45158066Y-60933499D01*
X45156982Y-60933982D01*
X45154565Y-60934525D01*
X45150044Y-60936307D01*
X45150036Y-60936310D01*
X45132265Y-60943317D01*
X45126435Y-60945451D01*
X45110908Y-60950705D01*
X45110900Y-60950708D01*
X45106666Y-60952141D01*
X45105798Y-60952580D01*
X45103607Y-60953187D01*
X45081650Y-60963114D01*
X45076014Y-60965497D01*
X45056497Y-60973192D01*
X45055831Y-60973571D01*
X45053851Y-60974225D01*
X45046527Y-60977976D01*
X45032372Y-60985226D01*
X45026839Y-60987892D01*
X45011776Y-60994702D01*
X45007662Y-60996562D01*
X45007176Y-60996872D01*
X45005410Y-60997551D01*
X44984395Y-61009634D01*
X44979057Y-61012534D01*
X44960224Y-61022180D01*
X44959904Y-61022406D01*
X44958314Y-61023108D01*
X44938681Y-61035695D01*
X44937864Y-61036219D01*
X44932664Y-61039379D01*
X44914289Y-61049944D01*
X44914091Y-61050099D01*
X44912663Y-61050813D01*
X44908696Y-61053634D01*
X44892815Y-61064927D01*
X44887804Y-61068312D01*
X44873723Y-61077340D01*
X44869883Y-61079802D01*
X44869792Y-61079881D01*
X44868493Y-61080610D01*
X44864653Y-61083628D01*
X44864651Y-61083629D01*
X44849292Y-61095699D01*
X44844471Y-61099304D01*
X44827099Y-61111658D01*
X44827079Y-61111677D01*
X44825889Y-61112422D01*
X44807388Y-61128448D01*
X44802772Y-61132257D01*
X44786064Y-61145387D01*
X44784879Y-61146210D01*
X44767161Y-61163104D01*
X44762728Y-61167132D01*
X44749201Y-61178848D01*
X44749198Y-61178852D01*
X44746733Y-61180987D01*
X44745566Y-61181883D01*
X44742208Y-61185405D01*
X44742198Y-61185414D01*
X44728656Y-61199617D01*
X44724427Y-61203847D01*
X44709134Y-61218429D01*
X44707988Y-61219399D01*
X44704801Y-61223078D01*
X44704799Y-61223080D01*
X44691976Y-61237883D01*
X44687935Y-61242329D01*
X44675528Y-61255342D01*
X44675525Y-61255346D01*
X44673270Y-61257712D01*
X44672194Y-61258715D01*
X44669188Y-61262540D01*
X44669182Y-61262547D01*
X44657086Y-61277941D01*
X44653269Y-61282568D01*
X44639286Y-61298709D01*
X44639276Y-61298724D01*
X44638287Y-61299739D01*
X44629549Y-61312026D01*
X44624131Y-61319645D01*
X44620522Y-61324470D01*
X44610053Y-61337793D01*
X44610048Y-61337801D01*
X44607346Y-61341239D01*
X44607300Y-61341318D01*
X44606301Y-61342447D01*
X44593143Y-61362972D01*
X44589780Y-61367950D01*
X44577441Y-61385301D01*
X44577337Y-61385503D01*
X44576316Y-61386775D01*
X44573890Y-61390994D01*
X44573888Y-61390997D01*
X44564211Y-61407827D01*
X44561067Y-61413003D01*
X44549608Y-61430878D01*
X44549455Y-61431214D01*
X44548412Y-61432651D01*
X44538157Y-61452676D01*
X44537371Y-61454210D01*
X44534462Y-61459566D01*
X44523922Y-61477896D01*
X44523722Y-61478397D01*
X44522663Y-61480017D01*
X44512720Y-61502013D01*
X44510052Y-61507549D01*
X44502517Y-61522260D01*
X44502512Y-61522271D01*
X44500459Y-61526280D01*
X44500223Y-61526968D01*
X44499156Y-61528788D01*
X44490663Y-61550328D01*
X44490335Y-61551160D01*
X44487932Y-61556842D01*
X44481132Y-61571884D01*
X44481128Y-61571895D01*
X44479289Y-61575963D01*
X44479031Y-61576852D01*
X44477964Y-61578898D01*
X44470271Y-61601634D01*
X44468144Y-61607442D01*
X44462403Y-61622004D01*
X44460490Y-61626855D01*
X44460225Y-61627969D01*
X44459173Y-61630256D01*
X44452640Y-61653261D01*
X44450801Y-61659174D01*
X44444131Y-61678887D01*
X44443876Y-61680256D01*
X44442852Y-61682811D01*
X44441757Y-61687556D01*
X44437508Y-61705969D01*
X44435942Y-61712057D01*
X44431514Y-61727648D01*
X44431512Y-61727656D01*
X44430290Y-61731960D01*
X44430070Y-61733587D01*
X44429108Y-61736384D01*
X44428254Y-61741164D01*
X44428252Y-61741173D01*
X44424936Y-61759745D01*
X44423676Y-61765903D01*
X44419034Y-61786016D01*
X44418876Y-61787880D01*
X44417993Y-61790941D01*
X44417381Y-61795759D01*
X44415014Y-61814384D01*
X44414057Y-61820646D01*
X44411234Y-61836453D01*
X44411232Y-61836469D01*
X44410446Y-61840872D01*
X44410373Y-61842994D01*
X44409597Y-61846302D01*
X44409227Y-61851163D01*
X44409227Y-61851165D01*
X44407807Y-61869840D01*
X44407167Y-61876149D01*
X44404583Y-61896488D01*
X44404620Y-61898829D01*
X44403977Y-61902368D01*
X44403914Y-61904860D01*
X44402446Y-61909769D01*
X44402391Y-61918745D01*
X44402391Y-61918746D01*
X44402270Y-61938624D01*
X44401910Y-61947400D01*
X44401508Y-61952681D01*
X44401677Y-61955231D01*
X44401193Y-61958960D01*
X37717335Y-61958960D01*
X37705649Y-61910473D01*
X37692875Y-61857466D01*
X37690395Y-61852011D01*
X37690393Y-61852006D01*
X37653580Y-61771042D01*
X37652402Y-61768451D01*
X37651403Y-61765917D01*
X37651023Y-61765250D01*
X37650372Y-61763278D01*
X37648150Y-61758939D01*
X37647896Y-61758333D01*
X37646286Y-61755000D01*
X37643507Y-61748888D01*
X37605326Y-61664913D01*
X37571603Y-61617372D01*
X37548474Y-61584766D01*
X37548473Y-61584765D01*
X37546620Y-61582153D01*
X37544793Y-61579303D01*
X37544714Y-61579212D01*
X37543985Y-61577913D01*
X37540977Y-61574086D01*
X37540519Y-61573400D01*
X37538356Y-61570504D01*
X37528340Y-61556383D01*
X37482946Y-61492389D01*
X37463760Y-61474022D01*
X37411920Y-61424396D01*
X37410305Y-61422777D01*
X37410072Y-61422627D01*
X37409838Y-61422403D01*
X37409784Y-61422346D01*
X37409829Y-61422300D01*
X37408122Y-61420589D01*
X37408090Y-61420569D01*
X37406149Y-61418533D01*
X37405197Y-61417409D01*
X37401493Y-61414201D01*
X37396881Y-61410000D01*
X37334480Y-61350264D01*
X37334479Y-61350264D01*
X37330150Y-61346119D01*
X37250705Y-61294821D01*
X37246040Y-61291658D01*
X37242942Y-61289455D01*
X37242933Y-61289449D01*
X37239284Y-61286855D01*
X37239090Y-61286755D01*
X37237819Y-61285735D01*
X37229768Y-61281106D01*
X37224284Y-61277762D01*
X37152452Y-61231380D01*
X37146884Y-61229136D01*
X37146882Y-61229135D01*
X37075122Y-61200215D01*
X37068050Y-61197365D01*
X37063246Y-61195312D01*
X37052735Y-61190560D01*
X37048654Y-61188715D01*
X37047747Y-61188452D01*
X37045692Y-61187380D01*
X37041084Y-61185821D01*
X37041080Y-61185819D01*
X37034008Y-61183426D01*
X37027297Y-61180941D01*
X36956263Y-61152314D01*
X36950381Y-61151165D01*
X36950380Y-61151165D01*
X36894646Y-61140281D01*
X36894957Y-61138686D01*
X36888555Y-61138645D01*
X36888209Y-61138526D01*
X36864845Y-61134353D01*
X36858697Y-61133095D01*
X36842967Y-61129464D01*
X36842962Y-61129463D01*
X36838590Y-61128454D01*
X36836717Y-61128295D01*
X36833652Y-61127411D01*
X36828832Y-61126798D01*
X36828825Y-61126797D01*
X36823751Y-61126152D01*
X36815492Y-61124822D01*
X36753125Y-61112643D01*
X36753120Y-61112642D01*
X36748663Y-61111772D01*
X36743101Y-61111500D01*
X36684240Y-61111500D01*
X36678340Y-61111276D01*
X36676390Y-61111266D01*
X36671912Y-61110926D01*
X36669362Y-61111095D01*
X36665632Y-61110611D01*
X36658816Y-61110783D01*
X36642079Y-61111206D01*
X36635715Y-61111206D01*
X36619722Y-61110802D01*
X36619720Y-61110802D01*
X36615246Y-61110689D01*
X36612712Y-61110987D01*
X36608957Y-61110691D01*
X36603092Y-61111137D01*
X36593538Y-61111500D01*
X36587154Y-61111500D01*
X36584170Y-61111785D01*
X36584162Y-61111785D01*
X36575898Y-61112573D01*
X36567133Y-61113101D01*
X36563149Y-61113202D01*
X36563134Y-61113203D01*
X36558653Y-61113317D01*
X36556326Y-61113711D01*
X36552750Y-61113610D01*
X36529325Y-61116586D01*
X36523013Y-61117226D01*
X36502579Y-61118780D01*
X36500486Y-61119244D01*
X36497112Y-61119319D01*
X36492325Y-61120174D01*
X36491672Y-61120239D01*
X36482707Y-61121465D01*
X36471730Y-61122512D01*
X36429434Y-61126548D01*
X36367640Y-61144676D01*
X36366802Y-61144918D01*
X36365219Y-61145368D01*
X36359194Y-61146917D01*
X36339005Y-61151577D01*
X36337670Y-61152093D01*
X36335010Y-61152555D01*
X36330405Y-61154113D01*
X36330390Y-61154117D01*
X36312398Y-61160205D01*
X36306436Y-61162059D01*
X36290767Y-61166509D01*
X36290763Y-61166510D01*
X36286440Y-61167738D01*
X36285343Y-61168227D01*
X36282925Y-61168770D01*
X36278398Y-61170555D01*
X36275073Y-61171577D01*
X36269945Y-61173337D01*
X36232226Y-61184402D01*
X36232224Y-61184403D01*
X36226466Y-61186092D01*
X36221137Y-61188837D01*
X36221131Y-61188839D01*
X36186730Y-61206557D01*
X36183629Y-61208001D01*
X36182225Y-61208465D01*
X36160709Y-61219485D01*
X36155202Y-61222137D01*
X36140123Y-61228954D01*
X36140119Y-61228956D01*
X36136014Y-61230812D01*
X36135537Y-61231116D01*
X36133769Y-61231796D01*
X36129547Y-61234224D01*
X36129546Y-61234224D01*
X36128000Y-61235113D01*
X36112760Y-61243876D01*
X36107427Y-61246773D01*
X36088596Y-61256417D01*
X36088268Y-61256649D01*
X36086673Y-61257353D01*
X36082575Y-61259981D01*
X36078294Y-61262280D01*
X36078276Y-61262247D01*
X36075530Y-61263829D01*
X36038420Y-61282942D01*
X36033703Y-61286648D01*
X36033702Y-61286648D01*
X36030404Y-61289239D01*
X36015026Y-61301319D01*
X36003109Y-61310680D01*
X36000164Y-61312815D01*
X35998242Y-61314047D01*
X35998151Y-61314126D01*
X35996852Y-61314855D01*
X35993017Y-61317868D01*
X35993012Y-61317872D01*
X35977651Y-61329944D01*
X35972830Y-61333549D01*
X35955458Y-61345903D01*
X35955434Y-61345926D01*
X35954236Y-61346676D01*
X35950554Y-61349865D01*
X35950552Y-61349867D01*
X35935767Y-61362675D01*
X35931121Y-61366510D01*
X35914424Y-61379631D01*
X35913248Y-61380448D01*
X35909726Y-61383806D01*
X35905953Y-61386884D01*
X35905917Y-61386840D01*
X35903636Y-61388816D01*
X35872080Y-61413604D01*
X35843227Y-61446855D01*
X35840132Y-61450157D01*
X35837490Y-61452676D01*
X35836348Y-61453643D01*
X35820313Y-61472154D01*
X35816295Y-61476574D01*
X35815035Y-61477896D01*
X35803890Y-61489585D01*
X35803889Y-61489587D01*
X35801633Y-61491953D01*
X35800560Y-61492953D01*
X35789089Y-61507549D01*
X35785461Y-61512166D01*
X35781631Y-61516808D01*
X35767645Y-61532954D01*
X35767634Y-61532971D01*
X35766639Y-61533992D01*
X35763820Y-61537956D01*
X35760702Y-61541693D01*
X35760687Y-61541680D01*
X35758231Y-61544802D01*
X35733448Y-61573363D01*
X35730449Y-61578547D01*
X35730444Y-61578554D01*
X35713738Y-61607432D01*
X35710192Y-61612948D01*
X35708399Y-61615893D01*
X35705794Y-61619556D01*
X35705694Y-61619750D01*
X35704674Y-61621021D01*
X35702244Y-61625247D01*
X35692569Y-61642073D01*
X35689425Y-61647249D01*
X35677966Y-61665124D01*
X35677814Y-61665457D01*
X35676774Y-61666890D01*
X35674556Y-61671221D01*
X35674552Y-61671227D01*
X35665729Y-61688453D01*
X35662823Y-61693806D01*
X35652280Y-61712142D01*
X35652083Y-61712636D01*
X35651029Y-61714248D01*
X35649023Y-61718685D01*
X35646681Y-61722953D01*
X35646656Y-61722940D01*
X35644603Y-61726936D01*
X35627527Y-61756454D01*
X35625559Y-61762122D01*
X35625556Y-61762128D01*
X35614759Y-61793223D01*
X35610539Y-61803806D01*
X35607651Y-61810193D01*
X35607390Y-61811094D01*
X35606321Y-61813143D01*
X35598628Y-61835879D01*
X35596501Y-61841687D01*
X35592433Y-61852006D01*
X35588847Y-61861100D01*
X35588580Y-61862224D01*
X35587525Y-61864517D01*
X35586196Y-61869196D01*
X35586193Y-61869205D01*
X35581005Y-61887477D01*
X35579155Y-61893427D01*
X35572488Y-61913132D01*
X35572233Y-61914503D01*
X35571214Y-61917044D01*
X35570196Y-61921454D01*
X35569550Y-61923409D01*
X35560937Y-61948214D01*
X35558139Y-61956271D01*
X35553411Y-61988877D01*
X35552094Y-61997959D01*
X35550171Y-62008209D01*
X35549909Y-62009346D01*
X35547393Y-62020249D01*
X35547234Y-62022120D01*
X35546350Y-62025186D01*
X35545737Y-62030011D01*
X35545736Y-62030016D01*
X35543372Y-62048628D01*
X35542416Y-62054894D01*
X35538804Y-62075114D01*
X35538731Y-62077235D01*
X35537954Y-62080547D01*
X35536596Y-62098403D01*
X35536164Y-62104083D01*
X35535522Y-62110410D01*
X35533766Y-62124229D01*
X35533471Y-62126403D01*
X35531025Y-62143271D01*
X35530803Y-62144014D01*
X35530798Y-62144838D01*
X35529488Y-62153871D01*
X35528716Y-62159200D01*
X35527787Y-62165604D01*
X16499901Y-62165604D01*
X15039871Y-61253276D01*
X14992701Y-61200215D01*
X14981706Y-61130075D01*
X14984934Y-61113811D01*
X15390558Y-59600000D01*
X17326372Y-59600000D01*
X17346854Y-59860249D01*
X17348008Y-59865056D01*
X17348009Y-59865062D01*
X17386424Y-60025069D01*
X17407796Y-60114089D01*
X17507697Y-60355271D01*
X17644097Y-60577856D01*
X17813637Y-60776363D01*
X18012144Y-60945903D01*
X18234729Y-61082303D01*
X18239299Y-61084196D01*
X18239303Y-61084198D01*
X18469762Y-61179657D01*
X18475911Y-61182204D01*
X18534987Y-61196387D01*
X18724938Y-61241991D01*
X18724944Y-61241992D01*
X18729751Y-61243146D01*
X18990000Y-61263628D01*
X19250249Y-61243146D01*
X19255056Y-61241992D01*
X19255062Y-61241991D01*
X19445013Y-61196387D01*
X19504089Y-61182204D01*
X19510238Y-61179657D01*
X19740697Y-61084198D01*
X19740701Y-61084196D01*
X19745271Y-61082303D01*
X19967856Y-60945903D01*
X20166363Y-60776363D01*
X20335903Y-60577856D01*
X20472303Y-60355271D01*
X20572204Y-60114089D01*
X20593576Y-60025069D01*
X20631991Y-59865062D01*
X20631992Y-59865056D01*
X20633146Y-59860249D01*
X20653628Y-59600000D01*
X61376372Y-59600000D01*
X61396854Y-59860249D01*
X61398008Y-59865056D01*
X61398009Y-59865062D01*
X61436424Y-60025069D01*
X61457796Y-60114089D01*
X61557697Y-60355271D01*
X61694097Y-60577856D01*
X61863637Y-60776363D01*
X62062144Y-60945903D01*
X62284729Y-61082303D01*
X62289299Y-61084196D01*
X62289303Y-61084198D01*
X62519762Y-61179657D01*
X62525911Y-61182204D01*
X62584987Y-61196387D01*
X62774938Y-61241991D01*
X62774944Y-61241992D01*
X62779751Y-61243146D01*
X63040000Y-61263628D01*
X63300249Y-61243146D01*
X63305056Y-61241992D01*
X63305062Y-61241991D01*
X63495013Y-61196387D01*
X63554089Y-61182204D01*
X63560238Y-61179657D01*
X63790697Y-61084198D01*
X63790701Y-61084196D01*
X63795271Y-61082303D01*
X64017856Y-60945903D01*
X64216363Y-60776363D01*
X64385903Y-60577856D01*
X64522303Y-60355271D01*
X64622204Y-60114089D01*
X64643576Y-60025069D01*
X64681991Y-59865062D01*
X64681992Y-59865056D01*
X64683146Y-59860249D01*
X64703628Y-59600000D01*
X64683146Y-59339751D01*
X64681992Y-59334944D01*
X64681991Y-59334938D01*
X64623359Y-59090723D01*
X64622204Y-59085911D01*
X64522303Y-58844729D01*
X64385903Y-58622144D01*
X64216363Y-58423637D01*
X64017856Y-58254097D01*
X63795271Y-58117697D01*
X63790701Y-58115804D01*
X63790697Y-58115802D01*
X63558662Y-58019690D01*
X63558660Y-58019689D01*
X63554089Y-58017796D01*
X63465069Y-57996424D01*
X63305062Y-57958009D01*
X63305056Y-57958008D01*
X63300249Y-57956854D01*
X63040000Y-57936372D01*
X62779751Y-57956854D01*
X62774944Y-57958008D01*
X62774938Y-57958009D01*
X62614931Y-57996424D01*
X62525911Y-58017796D01*
X62521340Y-58019689D01*
X62521338Y-58019690D01*
X62289303Y-58115802D01*
X62289299Y-58115804D01*
X62284729Y-58117697D01*
X62062144Y-58254097D01*
X61863637Y-58423637D01*
X61694097Y-58622144D01*
X61557697Y-58844729D01*
X61457796Y-59085911D01*
X61456641Y-59090723D01*
X61398009Y-59334938D01*
X61398008Y-59334944D01*
X61396854Y-59339751D01*
X61376372Y-59600000D01*
X20653628Y-59600000D01*
X20633146Y-59339751D01*
X20631992Y-59334944D01*
X20631991Y-59334938D01*
X20573359Y-59090723D01*
X20572204Y-59085911D01*
X20472303Y-58844729D01*
X20335903Y-58622144D01*
X20166363Y-58423637D01*
X19967856Y-58254097D01*
X19745271Y-58117697D01*
X19740701Y-58115804D01*
X19740697Y-58115802D01*
X19508662Y-58019690D01*
X19508660Y-58019689D01*
X19504089Y-58017796D01*
X19415069Y-57996424D01*
X19255062Y-57958009D01*
X19255056Y-57958008D01*
X19250249Y-57956854D01*
X18990000Y-57936372D01*
X18729751Y-57956854D01*
X18724944Y-57958008D01*
X18724938Y-57958009D01*
X18564931Y-57996424D01*
X18475911Y-58017796D01*
X18471340Y-58019689D01*
X18471338Y-58019690D01*
X18239303Y-58115802D01*
X18239299Y-58115804D01*
X18234729Y-58117697D01*
X18012144Y-58254097D01*
X17813637Y-58423637D01*
X17644097Y-58622144D01*
X17507697Y-58844729D01*
X17407796Y-59085911D01*
X17406641Y-59090723D01*
X17348009Y-59334938D01*
X17348008Y-59334944D01*
X17346854Y-59339751D01*
X17326372Y-59600000D01*
X15390558Y-59600000D01*
X15904924Y-57680360D01*
X15997301Y-57335604D01*
X35527787Y-57335604D01*
X35528733Y-57356035D01*
X35529860Y-57380404D01*
X35529955Y-57389409D01*
X35529628Y-57402359D01*
X35529926Y-57404893D01*
X35529630Y-57408648D01*
X35530000Y-57413509D01*
X35529994Y-57417595D01*
X35530085Y-57420212D01*
X35529913Y-57448437D01*
X35532145Y-57456247D01*
X35532204Y-57456874D01*
X35532256Y-57458952D01*
X35532568Y-57460795D01*
X35532641Y-57461584D01*
X35532549Y-57464855D01*
X35533835Y-57474974D01*
X35534702Y-57485007D01*
X35537567Y-57546899D01*
X35538971Y-57552724D01*
X35538971Y-57552725D01*
X35580081Y-57723304D01*
X35587125Y-57752534D01*
X35589607Y-57757992D01*
X35589608Y-57757996D01*
X35633053Y-57853546D01*
X35674674Y-57945087D01*
X35797054Y-58117611D01*
X35949850Y-58263881D01*
X36127548Y-58378620D01*
X36133114Y-58380863D01*
X36318168Y-58455442D01*
X36318171Y-58455443D01*
X36323737Y-58457686D01*
X36531337Y-58498228D01*
X36536899Y-58498500D01*
X36692846Y-58498500D01*
X36850566Y-58483452D01*
X37053534Y-58423908D01*
X37137111Y-58380863D01*
X37236249Y-58329804D01*
X37236252Y-58329802D01*
X37241580Y-58327058D01*
X37407920Y-58196396D01*
X37411852Y-58191865D01*
X37411855Y-58191862D01*
X37542621Y-58041167D01*
X37546552Y-58036637D01*
X37549552Y-58031451D01*
X37549555Y-58031447D01*
X37649467Y-57858742D01*
X37652473Y-57853546D01*
X37721861Y-57653729D01*
X37725485Y-57628733D01*
X37751352Y-57450336D01*
X37751352Y-57450333D01*
X37752213Y-57444396D01*
X37748125Y-57356085D01*
X37749203Y-57356035D01*
X37748719Y-57354024D01*
X37748032Y-57354056D01*
X37747921Y-57351677D01*
X37748151Y-57351666D01*
X37747978Y-57350949D01*
X37748149Y-57348786D01*
X37748025Y-57347157D01*
X37748038Y-57347114D01*
X37748026Y-57346779D01*
X37747980Y-57346569D01*
X37747779Y-57343924D01*
X37747785Y-57339841D01*
X37747694Y-57337223D01*
X37747783Y-57322510D01*
X37747866Y-57308995D01*
X37745627Y-57301163D01*
X37745577Y-57300620D01*
X37745523Y-57298481D01*
X37745435Y-57297961D01*
X37745212Y-57293151D01*
X37745229Y-57292561D01*
X37745160Y-57292019D01*
X37745044Y-57289501D01*
X37744007Y-57267110D01*
X37742433Y-57233101D01*
X37740970Y-57227028D01*
X37732947Y-57193739D01*
X37732155Y-57189688D01*
X37731815Y-57187014D01*
X37731310Y-57185180D01*
X37731082Y-57182034D01*
X37729988Y-57177294D01*
X37729987Y-57177287D01*
X37725753Y-57158945D01*
X37724487Y-57152754D01*
X37721654Y-57136885D01*
X37721651Y-57136873D01*
X37720864Y-57132466D01*
X37720339Y-57130875D01*
X37719982Y-57127972D01*
X37713631Y-57105604D01*
X44137787Y-57105604D01*
X44147567Y-57316899D01*
X44148971Y-57322724D01*
X44148971Y-57322725D01*
X44182363Y-57461279D01*
X44197125Y-57522534D01*
X44199607Y-57527992D01*
X44199608Y-57527996D01*
X44226125Y-57586316D01*
X44284674Y-57715087D01*
X44407054Y-57887611D01*
X44559850Y-58033881D01*
X44737548Y-58148620D01*
X44743114Y-58150863D01*
X44928168Y-58225442D01*
X44928171Y-58225443D01*
X44933737Y-58227686D01*
X45141337Y-58268228D01*
X45146899Y-58268500D01*
X45302846Y-58268500D01*
X45460566Y-58253452D01*
X45663534Y-58193908D01*
X45747111Y-58150863D01*
X45846249Y-58099804D01*
X45846252Y-58099802D01*
X45851580Y-58097058D01*
X46017920Y-57966396D01*
X46021852Y-57961865D01*
X46021855Y-57961862D01*
X46152615Y-57811174D01*
X46156552Y-57806637D01*
X46159555Y-57801446D01*
X46159558Y-57801442D01*
X46189134Y-57750318D01*
X46190894Y-57751336D01*
X46190971Y-57751120D01*
X46189273Y-57750144D01*
X46195596Y-57739148D01*
X46195762Y-57738861D01*
X46201924Y-57728210D01*
X46204900Y-57723325D01*
X46215981Y-57706040D01*
X46216132Y-57705709D01*
X46217169Y-57704280D01*
X46226523Y-57686017D01*
X46229605Y-57680360D01*
X46241735Y-57659393D01*
X46262473Y-57623546D01*
X46275402Y-57586315D01*
X46279612Y-57575752D01*
X46286299Y-57560962D01*
X46286558Y-57560068D01*
X46287629Y-57558015D01*
X46295303Y-57535335D01*
X46297440Y-57529498D01*
X46303452Y-57514252D01*
X46303454Y-57514245D01*
X46305097Y-57510079D01*
X46305368Y-57508940D01*
X46306423Y-57506646D01*
X46312955Y-57483646D01*
X46314793Y-57477735D01*
X46321462Y-57458025D01*
X46321716Y-57456659D01*
X46322733Y-57454123D01*
X46324040Y-57448459D01*
X46327781Y-57435480D01*
X46329892Y-57429400D01*
X46329892Y-57429398D01*
X46331861Y-57423729D01*
X46332722Y-57417792D01*
X46333125Y-57415014D01*
X46334792Y-57406745D01*
X46335304Y-57404942D01*
X46335523Y-57403326D01*
X46336488Y-57400518D01*
X46337340Y-57395745D01*
X46337342Y-57395738D01*
X46340654Y-57377184D01*
X46341922Y-57370988D01*
X46345544Y-57355299D01*
X46345546Y-57355285D01*
X46346554Y-57350919D01*
X46346713Y-57349048D01*
X46347594Y-57345993D01*
X46348709Y-57337223D01*
X46350578Y-57322510D01*
X46351531Y-57316270D01*
X46355145Y-57296029D01*
X46355217Y-57293928D01*
X46355994Y-57290617D01*
X46357785Y-57267062D01*
X46358424Y-57260773D01*
X46360441Y-57244903D01*
X46360441Y-57244897D01*
X46361007Y-57240446D01*
X46360970Y-57238096D01*
X46361614Y-57234551D01*
X46361677Y-57232057D01*
X46363145Y-57227149D01*
X46363321Y-57198290D01*
X46363681Y-57189520D01*
X46364083Y-57184239D01*
X46363913Y-57181688D01*
X46364398Y-57177958D01*
X46364275Y-57173082D01*
X46363803Y-57154405D01*
X46363803Y-57148041D01*
X46364207Y-57132053D01*
X46364207Y-57132049D01*
X46364320Y-57127572D01*
X46364022Y-57125039D01*
X46364318Y-57121285D01*
X46363948Y-57116423D01*
X46363954Y-57112339D01*
X46363863Y-57109722D01*
X46363980Y-57090472D01*
X46364035Y-57081494D01*
X46361802Y-57073682D01*
X46361744Y-57073062D01*
X46361692Y-57070980D01*
X46361380Y-57069134D01*
X46361306Y-57068338D01*
X46361398Y-57065060D01*
X46360784Y-57060232D01*
X46360784Y-57060224D01*
X46358424Y-57041657D01*
X46357785Y-57035370D01*
X46356229Y-57014906D01*
X46355766Y-57012816D01*
X46355691Y-57009453D01*
X46354836Y-57004666D01*
X46354835Y-57004654D01*
X46351532Y-56986156D01*
X46350576Y-56979899D01*
X46348551Y-56963967D01*
X46348548Y-56963954D01*
X46347984Y-56959513D01*
X46347479Y-56957679D01*
X46347251Y-56954533D01*
X46345524Y-56947048D01*
X46341922Y-56931444D01*
X46340656Y-56925253D01*
X46337823Y-56909384D01*
X46337820Y-56909372D01*
X46337033Y-56904965D01*
X46336508Y-56903374D01*
X46336151Y-56900471D01*
X46329644Y-56877555D01*
X46328092Y-56871521D01*
X46323431Y-56851328D01*
X46322915Y-56849994D01*
X46322454Y-56847337D01*
X46320897Y-56842734D01*
X46320894Y-56842724D01*
X46314804Y-56824725D01*
X46312950Y-56818763D01*
X46308499Y-56803091D01*
X46308498Y-56803089D01*
X46307271Y-56798767D01*
X46306779Y-56797663D01*
X46306234Y-56795237D01*
X46304448Y-56790709D01*
X46304446Y-56790701D01*
X46297444Y-56772945D01*
X46295306Y-56767105D01*
X46290062Y-56751605D01*
X46290059Y-56751597D01*
X46288621Y-56747348D01*
X46288183Y-56746483D01*
X46287579Y-56744301D01*
X46284763Y-56738070D01*
X46277653Y-56722343D01*
X46275258Y-56716679D01*
X46267564Y-56697169D01*
X46267191Y-56696513D01*
X46266538Y-56694537D01*
X46255525Y-56673036D01*
X46252864Y-56667512D01*
X46251287Y-56664022D01*
X46244204Y-56648355D01*
X46243894Y-56647867D01*
X46243212Y-56646096D01*
X46231129Y-56625081D01*
X46228222Y-56619730D01*
X46226724Y-56616804D01*
X46218583Y-56600910D01*
X46218357Y-56600590D01*
X46217655Y-56599000D01*
X46204544Y-56578550D01*
X46201384Y-56573350D01*
X46193798Y-56560157D01*
X46190819Y-56554975D01*
X46190663Y-56554775D01*
X46189945Y-56553340D01*
X46175824Y-56533484D01*
X46172438Y-56528470D01*
X46163350Y-56514294D01*
X46163344Y-56514286D01*
X46160961Y-56510569D01*
X46160881Y-56510476D01*
X46160153Y-56509180D01*
X46145055Y-56489968D01*
X46141459Y-56485159D01*
X46140262Y-56483475D01*
X46129099Y-56467778D01*
X46129083Y-56467761D01*
X46128341Y-56466576D01*
X46112308Y-56448067D01*
X46108503Y-56443456D01*
X46106353Y-56440719D01*
X46103443Y-56437017D01*
X46097407Y-56429335D01*
X46097405Y-56429333D01*
X46095385Y-56426763D01*
X46094561Y-56425576D01*
X46077653Y-56407842D01*
X46073634Y-56403419D01*
X46059783Y-56387428D01*
X46058880Y-56386252D01*
X46047411Y-56375317D01*
X46041174Y-56369370D01*
X46036931Y-56365128D01*
X46024549Y-56352142D01*
X46022312Y-56349796D01*
X46021356Y-56348666D01*
X46007112Y-56336328D01*
X46002873Y-56332656D01*
X45998422Y-56328611D01*
X45994935Y-56325287D01*
X45983047Y-56313952D01*
X45982055Y-56312888D01*
X45977528Y-56309330D01*
X45975897Y-56308049D01*
X45962806Y-56297761D01*
X45958208Y-56293967D01*
X45942043Y-56279965D01*
X45942034Y-56279959D01*
X45941016Y-56278967D01*
X45934850Y-56274582D01*
X45921128Y-56264825D01*
X45916290Y-56261207D01*
X45903019Y-56250777D01*
X45903014Y-56250773D01*
X45899533Y-56248038D01*
X45899445Y-56247987D01*
X45898315Y-56246987D01*
X45877769Y-56233815D01*
X45872795Y-56230455D01*
X45855452Y-56218122D01*
X45855258Y-56218022D01*
X45853987Y-56217002D01*
X45847407Y-56213218D01*
X45832935Y-56204897D01*
X45827759Y-56201753D01*
X45809884Y-56190294D01*
X45809548Y-56190141D01*
X45808111Y-56189098D01*
X45803778Y-56186879D01*
X45803775Y-56186877D01*
X45796551Y-56183177D01*
X45786538Y-56178049D01*
X45781196Y-56175148D01*
X45762866Y-56164608D01*
X45762369Y-56164410D01*
X45760759Y-56163357D01*
X45756316Y-56161348D01*
X45756312Y-56161346D01*
X45738752Y-56153407D01*
X45733246Y-56150755D01*
X45714482Y-56141145D01*
X45713798Y-56140910D01*
X45711974Y-56139841D01*
X45689614Y-56131024D01*
X45683927Y-56128620D01*
X45676112Y-56125087D01*
X45664814Y-56119979D01*
X45663910Y-56119717D01*
X45661859Y-56118647D01*
X45639139Y-56110960D01*
X45633314Y-56108827D01*
X45618092Y-56102825D01*
X45618090Y-56102825D01*
X45613907Y-56101175D01*
X45612791Y-56100910D01*
X45610505Y-56099858D01*
X45605814Y-56098526D01*
X45605812Y-56098525D01*
X45587508Y-56093326D01*
X45581552Y-56091474D01*
X45566103Y-56086247D01*
X45566104Y-56086247D01*
X45561868Y-56084814D01*
X45560500Y-56084559D01*
X45557947Y-56083536D01*
X45534786Y-56078191D01*
X45528712Y-56076630D01*
X45508801Y-56070975D01*
X45507178Y-56070755D01*
X45504379Y-56069793D01*
X45481008Y-56065619D01*
X45474839Y-56064357D01*
X45454740Y-56059719D01*
X45452880Y-56059561D01*
X45449818Y-56058678D01*
X45426382Y-56055701D01*
X45420118Y-56054745D01*
X45399892Y-56051132D01*
X45397773Y-56051059D01*
X45394474Y-56050285D01*
X45389615Y-56049915D01*
X45389613Y-56049915D01*
X45378862Y-56049097D01*
X45370924Y-56048493D01*
X45364623Y-56047854D01*
X45344270Y-56045268D01*
X45341926Y-56045305D01*
X45338375Y-56044660D01*
X45333523Y-56044537D01*
X45333519Y-56044537D01*
X45325949Y-56044346D01*
X45314839Y-56044065D01*
X45308502Y-56043744D01*
X45294900Y-56042710D01*
X45292567Y-56042532D01*
X45292565Y-56042532D01*
X45288096Y-56042192D01*
X45285534Y-56042362D01*
X45281815Y-56041879D01*
X45258224Y-56042475D01*
X45251892Y-56042475D01*
X45237954Y-56042123D01*
X45235870Y-56042070D01*
X45235869Y-56042070D01*
X45231396Y-56041957D01*
X45228874Y-56042253D01*
X45225109Y-56041957D01*
X45201625Y-56043743D01*
X45195288Y-56044064D01*
X45174837Y-56044581D01*
X45172492Y-56044977D01*
X45168917Y-56044877D01*
X45145482Y-56047854D01*
X45139179Y-56048494D01*
X45123198Y-56049710D01*
X45123196Y-56049710D01*
X45118731Y-56050050D01*
X45116652Y-56050511D01*
X45113279Y-56050586D01*
X45108485Y-56051442D01*
X45108486Y-56051442D01*
X45090008Y-56054741D01*
X45083744Y-56055698D01*
X45077238Y-56056525D01*
X45063370Y-56058287D01*
X45061525Y-56058795D01*
X45058391Y-56059022D01*
X45035265Y-56064359D01*
X45029101Y-56065619D01*
X45008790Y-56069247D01*
X45007207Y-56069770D01*
X45004300Y-56070127D01*
X44999620Y-56071456D01*
X44999611Y-56071458D01*
X44981411Y-56076627D01*
X44975329Y-56078191D01*
X44955185Y-56082840D01*
X44953841Y-56083360D01*
X44951177Y-56083822D01*
X44946575Y-56085379D01*
X44946572Y-56085380D01*
X44928552Y-56091478D01*
X44922582Y-56093334D01*
X44902596Y-56099010D01*
X44901510Y-56099493D01*
X44899092Y-56100037D01*
X44887173Y-56104737D01*
X44876786Y-56108832D01*
X44870955Y-56110966D01*
X44856042Y-56116013D01*
X44851188Y-56117655D01*
X44850319Y-56118095D01*
X44848126Y-56118702D01*
X44826177Y-56128625D01*
X44820528Y-56131013D01*
X44817795Y-56132091D01*
X44805197Y-56137058D01*
X44805191Y-56137061D01*
X44801024Y-56138704D01*
X44800357Y-56139084D01*
X44798385Y-56139735D01*
X44776855Y-56150761D01*
X44771391Y-56153393D01*
X44752181Y-56162079D01*
X44751702Y-56162384D01*
X44749937Y-56163063D01*
X44730008Y-56174522D01*
X44728945Y-56175133D01*
X44723576Y-56178049D01*
X44704757Y-56187688D01*
X44704432Y-56187918D01*
X44702841Y-56188620D01*
X44698742Y-56191248D01*
X44682391Y-56201731D01*
X44677191Y-56204891D01*
X44663234Y-56212916D01*
X44658816Y-56215456D01*
X44658618Y-56215611D01*
X44657190Y-56216325D01*
X44653223Y-56219146D01*
X44637342Y-56230439D01*
X44632331Y-56233824D01*
X44618250Y-56242852D01*
X44614410Y-56245314D01*
X44614319Y-56245393D01*
X44613020Y-56246122D01*
X44609180Y-56249140D01*
X44609178Y-56249141D01*
X44593819Y-56261211D01*
X44588998Y-56264816D01*
X44571626Y-56277170D01*
X44571606Y-56277189D01*
X44570416Y-56277934D01*
X44551915Y-56293960D01*
X44547299Y-56297769D01*
X44534218Y-56308049D01*
X44530591Y-56310899D01*
X44529406Y-56311722D01*
X44511667Y-56328635D01*
X44507263Y-56332638D01*
X44494865Y-56343377D01*
X44490213Y-56347215D01*
X44482080Y-56353604D01*
X44478148Y-56358135D01*
X44478147Y-56358136D01*
X44469692Y-56367879D01*
X44461479Y-56376486D01*
X44456008Y-56381702D01*
X44456007Y-56381704D01*
X44453649Y-56383952D01*
X44452507Y-56384919D01*
X44449328Y-56388589D01*
X44449319Y-56388598D01*
X44436489Y-56403411D01*
X44432444Y-56407862D01*
X44417806Y-56423214D01*
X44416738Y-56424210D01*
X44406673Y-56437017D01*
X44401619Y-56443448D01*
X44397790Y-56448088D01*
X44383806Y-56464232D01*
X44382813Y-56465251D01*
X44375533Y-56475488D01*
X44375515Y-56475514D01*
X44368000Y-56485069D01*
X44361703Y-56492326D01*
X44343448Y-56513363D01*
X44321230Y-56551768D01*
X44321123Y-56551938D01*
X44320843Y-56552287D01*
X44320210Y-56553388D01*
X44320208Y-56553391D01*
X44308724Y-56573362D01*
X44305572Y-56578551D01*
X44296547Y-56592630D01*
X44294128Y-56596403D01*
X44293981Y-56596725D01*
X44292947Y-56598150D01*
X44290730Y-56602479D01*
X44290729Y-56602480D01*
X44283210Y-56617160D01*
X44280148Y-56622780D01*
X44237527Y-56696454D01*
X44168139Y-56896271D01*
X44167278Y-56902206D01*
X44167278Y-56902208D01*
X44138746Y-57098992D01*
X44137787Y-57105604D01*
X37713631Y-57105604D01*
X37713475Y-57105056D01*
X37711923Y-57099022D01*
X37707262Y-57078829D01*
X37706746Y-57077495D01*
X37706285Y-57074838D01*
X37701170Y-57059719D01*
X37698035Y-57048872D01*
X37694283Y-57033304D01*
X37694280Y-57033295D01*
X37692875Y-57027466D01*
X37690393Y-57022007D01*
X37690391Y-57022001D01*
X37687079Y-57014716D01*
X37684568Y-57008796D01*
X37681277Y-57000451D01*
X37679138Y-56994609D01*
X37675220Y-56983031D01*
X37672452Y-56974849D01*
X37672012Y-56973980D01*
X37671405Y-56971787D01*
X37661482Y-56949838D01*
X37659089Y-56944178D01*
X37653038Y-56928831D01*
X37653037Y-56928829D01*
X37651403Y-56924685D01*
X37651025Y-56924021D01*
X37650375Y-56922053D01*
X37639355Y-56900537D01*
X37636703Y-56895030D01*
X37629886Y-56879951D01*
X37629884Y-56879947D01*
X37628028Y-56875842D01*
X37627724Y-56875365D01*
X37627044Y-56873597D01*
X37614964Y-56852588D01*
X37612059Y-56847239D01*
X37604461Y-56832404D01*
X37602423Y-56828424D01*
X37602191Y-56828096D01*
X37601487Y-56826501D01*
X37597385Y-56820102D01*
X37588376Y-56806051D01*
X37585216Y-56800851D01*
X37579380Y-56790701D01*
X37574651Y-56782476D01*
X37574495Y-56782276D01*
X37573777Y-56780841D01*
X37559653Y-56760980D01*
X37556270Y-56755971D01*
X37547243Y-56741891D01*
X37547241Y-56741888D01*
X37544793Y-56738070D01*
X37544715Y-56737980D01*
X37543991Y-56736690D01*
X37528882Y-56717462D01*
X37525302Y-56712675D01*
X37512931Y-56695279D01*
X37512915Y-56695262D01*
X37512166Y-56694066D01*
X37507300Y-56688448D01*
X37496169Y-56675598D01*
X37492339Y-56670958D01*
X37481232Y-56656824D01*
X37481231Y-56656823D01*
X37479198Y-56654236D01*
X37478393Y-56653077D01*
X37461473Y-56635330D01*
X37457460Y-56630913D01*
X37445752Y-56617397D01*
X37445750Y-56617396D01*
X37443623Y-56614940D01*
X37442712Y-56613753D01*
X37438794Y-56610017D01*
X37425006Y-56596871D01*
X37420763Y-56592629D01*
X37408381Y-56579643D01*
X37406144Y-56577297D01*
X37405188Y-56576167D01*
X37386705Y-56560157D01*
X37382254Y-56556112D01*
X37375194Y-56549381D01*
X37366879Y-56541453D01*
X37365887Y-56540389D01*
X37346638Y-56525262D01*
X37342040Y-56521468D01*
X37325875Y-56507466D01*
X37325866Y-56507460D01*
X37324848Y-56506468D01*
X37318682Y-56502083D01*
X37304960Y-56492326D01*
X37300122Y-56488708D01*
X37286851Y-56478278D01*
X37286846Y-56478274D01*
X37283365Y-56475539D01*
X37283277Y-56475488D01*
X37282147Y-56474488D01*
X37261601Y-56461316D01*
X37256627Y-56457956D01*
X37239284Y-56445623D01*
X37239090Y-56445523D01*
X37237819Y-56444503D01*
X37231239Y-56440719D01*
X37216767Y-56432398D01*
X37211591Y-56429254D01*
X37193716Y-56417795D01*
X37193385Y-56417644D01*
X37191956Y-56416607D01*
X37185228Y-56413161D01*
X37170377Y-56405554D01*
X37165025Y-56402647D01*
X37146698Y-56392109D01*
X37146203Y-56391912D01*
X37144584Y-56390853D01*
X37137763Y-56387769D01*
X37122588Y-56380908D01*
X37117056Y-56378243D01*
X37102336Y-56370704D01*
X37102333Y-56370703D01*
X37098329Y-56368652D01*
X37097636Y-56368414D01*
X37095807Y-56367342D01*
X37091281Y-56365557D01*
X37091278Y-56365556D01*
X37076709Y-56359812D01*
X37073422Y-56358516D01*
X37067750Y-56356117D01*
X37048639Y-56347477D01*
X37047740Y-56347216D01*
X37045692Y-56346148D01*
X37022972Y-56338461D01*
X37017147Y-56336328D01*
X37001925Y-56330326D01*
X37001923Y-56330326D01*
X36997740Y-56328676D01*
X36996624Y-56328411D01*
X36994338Y-56327359D01*
X36989647Y-56326027D01*
X36989645Y-56326026D01*
X36971341Y-56320827D01*
X36965385Y-56318975D01*
X36949936Y-56313748D01*
X36949937Y-56313748D01*
X36945701Y-56312315D01*
X36944333Y-56312060D01*
X36941780Y-56311037D01*
X36918619Y-56305692D01*
X36912545Y-56304131D01*
X36892634Y-56298476D01*
X36891006Y-56298256D01*
X36888209Y-56297294D01*
X36864827Y-56293118D01*
X36858679Y-56291860D01*
X36842940Y-56288227D01*
X36842929Y-56288225D01*
X36838573Y-56287220D01*
X36836719Y-56287063D01*
X36833669Y-56286183D01*
X36810178Y-56283197D01*
X36803982Y-56282250D01*
X36783721Y-56278632D01*
X36781604Y-56278559D01*
X36778291Y-56277782D01*
X36770242Y-56277170D01*
X36754764Y-56275993D01*
X36748453Y-56275353D01*
X36728122Y-56272769D01*
X36725760Y-56272806D01*
X36722208Y-56272161D01*
X36717351Y-56272038D01*
X36717348Y-56272038D01*
X36698670Y-56271566D01*
X36692302Y-56271243D01*
X36676392Y-56270033D01*
X36676383Y-56270033D01*
X36671912Y-56269693D01*
X36669362Y-56269862D01*
X36665649Y-56269380D01*
X36642058Y-56269976D01*
X36635726Y-56269976D01*
X36615229Y-56269458D01*
X36612713Y-56269754D01*
X36608957Y-56269458D01*
X36597791Y-56270307D01*
X36585489Y-56271242D01*
X36579122Y-56271565D01*
X36570116Y-56271793D01*
X36558670Y-56272082D01*
X36556324Y-56272479D01*
X36552734Y-56272378D01*
X36547904Y-56272992D01*
X36547901Y-56272992D01*
X36529333Y-56275352D01*
X36523042Y-56275991D01*
X36502579Y-56277547D01*
X36500481Y-56278012D01*
X36497112Y-56278087D01*
X36473833Y-56282244D01*
X36467581Y-56283199D01*
X36451640Y-56285225D01*
X36451626Y-56285228D01*
X36447187Y-56285792D01*
X36445360Y-56286295D01*
X36442228Y-56286522D01*
X36419111Y-56291857D01*
X36412927Y-56293122D01*
X36412905Y-56293126D01*
X36392623Y-56296748D01*
X36391038Y-56297271D01*
X36388128Y-56297629D01*
X36365262Y-56304123D01*
X36359190Y-56305684D01*
X36343392Y-56309330D01*
X36343387Y-56309332D01*
X36339021Y-56310339D01*
X36337670Y-56310861D01*
X36335010Y-56311323D01*
X36317839Y-56317133D01*
X36312386Y-56318978D01*
X36306429Y-56320830D01*
X36290737Y-56325287D01*
X36290732Y-56325289D01*
X36286425Y-56326512D01*
X36285340Y-56326995D01*
X36282925Y-56327538D01*
X36278408Y-56329319D01*
X36278405Y-56329320D01*
X36260619Y-56336333D01*
X36254788Y-56338467D01*
X36239277Y-56343715D01*
X36239265Y-56343720D01*
X36235021Y-56345156D01*
X36234160Y-56345592D01*
X36231974Y-56346197D01*
X36227533Y-56348204D01*
X36227532Y-56348205D01*
X36210029Y-56356117D01*
X36204346Y-56358520D01*
X36189016Y-56364565D01*
X36184857Y-56366205D01*
X36184193Y-56366583D01*
X36182210Y-56367238D01*
X36160709Y-56378251D01*
X36155195Y-56380907D01*
X36136028Y-56389572D01*
X36135540Y-56389882D01*
X36133769Y-56390564D01*
X36112754Y-56402647D01*
X36107416Y-56405547D01*
X36088583Y-56415193D01*
X36088263Y-56415419D01*
X36086673Y-56416121D01*
X36077413Y-56422058D01*
X36066223Y-56429232D01*
X36061023Y-56432392D01*
X36049026Y-56439290D01*
X36042648Y-56442957D01*
X36042450Y-56443112D01*
X36041022Y-56443826D01*
X36037055Y-56446647D01*
X36021174Y-56457940D01*
X36016163Y-56461325D01*
X36003835Y-56469229D01*
X35998242Y-56472815D01*
X35998151Y-56472894D01*
X35996852Y-56473623D01*
X35993012Y-56476641D01*
X35993010Y-56476642D01*
X35977651Y-56488712D01*
X35972830Y-56492317D01*
X35955458Y-56504671D01*
X35955438Y-56504690D01*
X35954248Y-56505435D01*
X35935747Y-56521461D01*
X35931131Y-56525270D01*
X35914423Y-56538400D01*
X35913238Y-56539223D01*
X35895525Y-56556112D01*
X35891087Y-56560145D01*
X35877560Y-56571861D01*
X35877557Y-56571865D01*
X35875092Y-56574000D01*
X35873925Y-56574896D01*
X35870567Y-56578418D01*
X35870557Y-56578427D01*
X35857015Y-56592630D01*
X35852786Y-56596860D01*
X35837514Y-56611422D01*
X35836356Y-56612402D01*
X35820320Y-56630913D01*
X35816286Y-56635351D01*
X35806042Y-56646096D01*
X35801637Y-56650716D01*
X35800552Y-56651728D01*
X35785442Y-56670956D01*
X35781627Y-56675579D01*
X35767652Y-56691712D01*
X35767639Y-56691732D01*
X35766645Y-56692752D01*
X35761265Y-56700317D01*
X35752489Y-56712658D01*
X35748880Y-56717483D01*
X35738409Y-56730808D01*
X35738401Y-56730820D01*
X35735704Y-56734252D01*
X35735658Y-56734331D01*
X35734659Y-56735460D01*
X35721510Y-56755971D01*
X35718128Y-56760977D01*
X35705799Y-56778314D01*
X35705695Y-56778516D01*
X35704674Y-56779788D01*
X35702250Y-56784004D01*
X35702247Y-56784008D01*
X35692569Y-56800840D01*
X35689425Y-56806016D01*
X35677966Y-56823891D01*
X35677813Y-56824227D01*
X35676770Y-56825664D01*
X35674551Y-56829997D01*
X35674549Y-56830000D01*
X35665729Y-56847223D01*
X35662820Y-56852579D01*
X35652280Y-56870909D01*
X35652082Y-56871406D01*
X35651029Y-56873016D01*
X35649020Y-56877459D01*
X35649018Y-56877463D01*
X35641079Y-56895023D01*
X35638427Y-56900529D01*
X35628817Y-56919293D01*
X35628582Y-56919977D01*
X35627513Y-56921801D01*
X35623711Y-56931444D01*
X35618697Y-56944160D01*
X35616293Y-56949847D01*
X35607651Y-56968961D01*
X35607390Y-56969862D01*
X35606321Y-56971911D01*
X35598628Y-56994647D01*
X35596501Y-57000455D01*
X35591628Y-57012816D01*
X35588847Y-57019868D01*
X35588580Y-57020992D01*
X35587525Y-57023285D01*
X35586196Y-57027964D01*
X35586193Y-57027973D01*
X35581005Y-57046245D01*
X35579155Y-57052195D01*
X35572488Y-57071900D01*
X35572233Y-57073268D01*
X35571215Y-57075808D01*
X35565856Y-57099025D01*
X35564302Y-57105063D01*
X35558912Y-57124044D01*
X35558139Y-57126271D01*
X35557847Y-57128287D01*
X35557465Y-57129397D01*
X35556608Y-57134195D01*
X35556605Y-57134207D01*
X35553295Y-57152741D01*
X35552030Y-57158928D01*
X35547394Y-57179013D01*
X35547235Y-57180885D01*
X35546350Y-57183954D01*
X35545738Y-57188770D01*
X35543371Y-57207397D01*
X35542414Y-57213659D01*
X35539591Y-57229466D01*
X35539589Y-57229482D01*
X35538803Y-57233885D01*
X35538730Y-57236007D01*
X35537954Y-57239315D01*
X35537584Y-57244176D01*
X35537584Y-57244178D01*
X35536164Y-57262853D01*
X35535524Y-57269162D01*
X35532940Y-57289501D01*
X35532977Y-57291842D01*
X35532334Y-57295381D01*
X35532271Y-57297873D01*
X35530803Y-57302782D01*
X35530748Y-57311755D01*
X35530037Y-57316514D01*
X35529478Y-57323938D01*
X35527787Y-57335604D01*
X15997301Y-57335604D01*
X16484969Y-55515604D01*
X37247787Y-55515604D01*
X37248064Y-55521597D01*
X37248064Y-55521603D01*
X37248431Y-55529524D01*
X37248414Y-55535637D01*
X37248300Y-55536513D01*
X37248400Y-55540468D01*
X37248400Y-55540474D01*
X37248895Y-55560066D01*
X37248895Y-55566430D01*
X37248491Y-55582423D01*
X37248378Y-55586899D01*
X37248676Y-55589433D01*
X37248380Y-55593188D01*
X37248750Y-55598049D01*
X37248744Y-55602135D01*
X37248835Y-55604752D01*
X37248663Y-55632977D01*
X37250895Y-55640787D01*
X37250954Y-55641414D01*
X37251006Y-55643492D01*
X37251318Y-55645334D01*
X37251391Y-55646125D01*
X37251299Y-55649395D01*
X37251913Y-55654226D01*
X37254274Y-55672808D01*
X37254916Y-55679140D01*
X37255900Y-55692084D01*
X37256128Y-55695809D01*
X37257567Y-55726899D01*
X37259845Y-55736350D01*
X37265041Y-55757912D01*
X37265437Y-55759939D01*
X37265447Y-55759937D01*
X37265447Y-55759938D01*
X37269413Y-55777118D01*
X37270777Y-55783028D01*
X37272043Y-55789218D01*
X37275669Y-55809523D01*
X37276191Y-55811105D01*
X37276547Y-55814000D01*
X37277873Y-55818668D01*
X37277874Y-55818675D01*
X37283050Y-55836902D01*
X37284613Y-55842978D01*
X37289267Y-55863142D01*
X37289782Y-55864474D01*
X37290243Y-55867129D01*
X37292321Y-55873270D01*
X37295456Y-55884117D01*
X37307125Y-55932534D01*
X37319824Y-55960463D01*
X37340298Y-56005493D01*
X37342816Y-56011430D01*
X37343476Y-56013105D01*
X37343483Y-56013121D01*
X37345128Y-56017292D01*
X37345506Y-56017955D01*
X37346154Y-56019919D01*
X37348377Y-56024259D01*
X37348378Y-56024262D01*
X37351073Y-56029524D01*
X37353628Y-56034812D01*
X37392192Y-56119630D01*
X37392196Y-56119637D01*
X37394674Y-56125087D01*
X37467694Y-56228026D01*
X37512975Y-56291860D01*
X37517054Y-56297611D01*
X37669850Y-56443881D01*
X37847548Y-56558620D01*
X37898333Y-56579087D01*
X38038168Y-56635442D01*
X38038171Y-56635443D01*
X38043737Y-56637686D01*
X38251337Y-56678228D01*
X38256899Y-56678500D01*
X38412846Y-56678500D01*
X38570566Y-56663452D01*
X38773534Y-56603908D01*
X38779976Y-56600590D01*
X38956249Y-56509804D01*
X38956252Y-56509802D01*
X38961580Y-56507058D01*
X39127920Y-56376396D01*
X39131852Y-56371865D01*
X39131855Y-56371862D01*
X39262621Y-56221167D01*
X39266552Y-56216637D01*
X39269552Y-56211451D01*
X39269555Y-56211447D01*
X39369467Y-56038742D01*
X39372473Y-56033546D01*
X39441861Y-55833729D01*
X39444859Y-55813051D01*
X39471352Y-55630336D01*
X39471352Y-55630333D01*
X39472213Y-55624396D01*
X39466715Y-55505617D01*
X39466668Y-55503292D01*
X39466615Y-55502905D01*
X39466655Y-55502640D01*
X39466582Y-55499019D01*
X39466616Y-55493530D01*
X39468026Y-55493539D01*
X39468332Y-55491509D01*
X39466067Y-55491614D01*
X39464313Y-55453717D01*
X39462433Y-55413101D01*
X39461028Y-55407270D01*
X39459817Y-55402243D01*
X42333560Y-55402243D01*
X42333683Y-55407103D01*
X42334155Y-55425796D01*
X42334155Y-55432160D01*
X42333770Y-55447392D01*
X42333638Y-55452629D01*
X42333936Y-55455163D01*
X42333640Y-55458918D01*
X42334010Y-55463779D01*
X42334004Y-55467865D01*
X42334095Y-55470482D01*
X42334010Y-55484396D01*
X42333923Y-55498707D01*
X42336156Y-55506519D01*
X42336214Y-55507139D01*
X42336266Y-55509222D01*
X42336578Y-55511067D01*
X42336652Y-55511863D01*
X42336560Y-55515141D01*
X42337174Y-55519970D01*
X42337174Y-55519975D01*
X42339534Y-55538542D01*
X42340173Y-55544833D01*
X42341729Y-55565296D01*
X42342192Y-55567386D01*
X42342267Y-55570747D01*
X42346432Y-55594075D01*
X42347383Y-55600305D01*
X42349974Y-55620689D01*
X42350479Y-55622523D01*
X42350707Y-55625668D01*
X42351801Y-55630410D01*
X42351802Y-55630414D01*
X42356036Y-55648757D01*
X42357302Y-55654948D01*
X42360925Y-55675236D01*
X42361450Y-55676827D01*
X42361807Y-55679730D01*
X42363133Y-55684398D01*
X42363134Y-55684405D01*
X42368310Y-55702632D01*
X42369873Y-55708708D01*
X42374527Y-55728872D01*
X42375042Y-55730204D01*
X42375503Y-55732859D01*
X42382332Y-55753041D01*
X42383152Y-55755466D01*
X42385006Y-55761429D01*
X42389461Y-55777118D01*
X42389467Y-55777135D01*
X42390688Y-55781434D01*
X42391174Y-55782526D01*
X42391719Y-55784950D01*
X42393503Y-55789475D01*
X42393504Y-55789478D01*
X42400513Y-55807254D01*
X42402636Y-55813051D01*
X42409335Y-55832849D01*
X42409776Y-55833721D01*
X42410386Y-55835923D01*
X42412392Y-55840359D01*
X42420295Y-55857839D01*
X42422698Y-55863522D01*
X42430385Y-55883018D01*
X42430767Y-55883688D01*
X42431414Y-55885649D01*
X42442434Y-55907167D01*
X42445084Y-55912668D01*
X42451929Y-55927808D01*
X42451933Y-55927816D01*
X42453765Y-55931867D01*
X42454065Y-55932339D01*
X42454745Y-55934105D01*
X42466825Y-55955114D01*
X42469722Y-55960447D01*
X42479366Y-55979278D01*
X42479598Y-55979606D01*
X42480302Y-55981201D01*
X42482927Y-55985296D01*
X42482929Y-55985299D01*
X42493413Y-56001651D01*
X42496573Y-56006851D01*
X42504094Y-56019931D01*
X42507138Y-56025226D01*
X42507293Y-56025424D01*
X42508007Y-56026852D01*
X42516462Y-56038742D01*
X42522119Y-56046697D01*
X42525508Y-56051713D01*
X42534424Y-56065620D01*
X42536996Y-56069632D01*
X42537075Y-56069723D01*
X42537804Y-56071022D01*
X42552906Y-56090239D01*
X42556501Y-56095048D01*
X42566241Y-56108746D01*
X42566250Y-56108757D01*
X42568852Y-56112416D01*
X42568872Y-56112437D01*
X42569617Y-56113627D01*
X42585631Y-56132114D01*
X42589445Y-56136736D01*
X42602588Y-56153461D01*
X42603404Y-56154636D01*
X42620306Y-56172363D01*
X42624298Y-56176754D01*
X42638181Y-56192782D01*
X42639077Y-56193949D01*
X42642597Y-56197305D01*
X42656809Y-56210856D01*
X42661051Y-56215099D01*
X42673376Y-56228026D01*
X42673378Y-56228027D01*
X42675626Y-56230385D01*
X42676601Y-56231536D01*
X42680271Y-56234715D01*
X42680281Y-56234725D01*
X42695101Y-56247561D01*
X42699551Y-56251605D01*
X42714896Y-56266236D01*
X42715892Y-56267304D01*
X42719712Y-56270306D01*
X42719713Y-56270307D01*
X42735136Y-56282428D01*
X42739754Y-56286238D01*
X42755914Y-56300236D01*
X42755917Y-56300238D01*
X42756940Y-56301235D01*
X42757507Y-56301639D01*
X42759850Y-56303881D01*
X42764885Y-56307132D01*
X42766305Y-56308049D01*
X42770961Y-56311205D01*
X42776084Y-56314848D01*
X42776833Y-56315381D01*
X42781661Y-56318992D01*
X42794849Y-56329356D01*
X42794857Y-56329361D01*
X42798413Y-56332156D01*
X42798512Y-56332213D01*
X42799653Y-56333223D01*
X42803747Y-56335847D01*
X42803753Y-56335852D01*
X42820172Y-56346377D01*
X42825147Y-56349737D01*
X42842505Y-56362080D01*
X42842694Y-56362178D01*
X42843957Y-56363191D01*
X42865045Y-56375317D01*
X42870215Y-56378457D01*
X42888086Y-56389914D01*
X42888410Y-56390062D01*
X42889846Y-56391104D01*
X42908839Y-56400832D01*
X42919742Y-56407122D01*
X42937548Y-56418620D01*
X42960544Y-56427887D01*
X42970878Y-56432605D01*
X42979491Y-56437017D01*
X42979497Y-56437019D01*
X42983475Y-56439057D01*
X42984153Y-56439290D01*
X42985967Y-56440353D01*
X43008383Y-56449192D01*
X43014029Y-56451580D01*
X43033151Y-56460225D01*
X43034045Y-56460484D01*
X43036098Y-56461555D01*
X43048035Y-56465594D01*
X43058778Y-56469229D01*
X43064615Y-56471366D01*
X43079864Y-56477379D01*
X43079869Y-56477380D01*
X43084034Y-56479023D01*
X43085173Y-56479294D01*
X43087467Y-56480349D01*
X43092140Y-56481676D01*
X43092421Y-56481780D01*
X43104697Y-56485983D01*
X43111459Y-56488708D01*
X43133737Y-56497686D01*
X43139613Y-56498834D01*
X43139618Y-56498835D01*
X43175893Y-56505919D01*
X43182983Y-56507615D01*
X43184865Y-56508007D01*
X43189171Y-56509230D01*
X43190790Y-56509449D01*
X43193594Y-56510413D01*
X43216941Y-56514582D01*
X43223096Y-56515840D01*
X43227024Y-56516747D01*
X43238834Y-56519474D01*
X43238842Y-56519475D01*
X43243199Y-56520481D01*
X43245071Y-56520640D01*
X43248122Y-56521520D01*
X43252948Y-56522133D01*
X43252961Y-56522136D01*
X43265905Y-56523781D01*
X43274166Y-56525111D01*
X43336876Y-56537357D01*
X43336878Y-56537357D01*
X43341337Y-56538228D01*
X43346899Y-56538500D01*
X43502846Y-56538500D01*
X43660566Y-56523452D01*
X43863534Y-56463908D01*
X43887463Y-56451584D01*
X44046249Y-56369804D01*
X44046252Y-56369802D01*
X44051580Y-56367058D01*
X44217920Y-56236396D01*
X44221852Y-56231865D01*
X44221855Y-56231862D01*
X44352621Y-56081167D01*
X44356552Y-56076637D01*
X44359552Y-56071451D01*
X44359555Y-56071447D01*
X44453339Y-55909335D01*
X44462473Y-55893546D01*
X44531861Y-55693729D01*
X44534438Y-55675956D01*
X44561352Y-55490336D01*
X44561352Y-55490333D01*
X44562213Y-55484396D01*
X44552433Y-55273101D01*
X44518331Y-55131598D01*
X44504281Y-55073299D01*
X44504280Y-55073297D01*
X44502875Y-55067466D01*
X44500392Y-55062003D01*
X44439342Y-54927733D01*
X44415326Y-54874913D01*
X44307524Y-54722940D01*
X44296412Y-54707275D01*
X44296411Y-54707274D01*
X44292946Y-54702389D01*
X44140150Y-54556119D01*
X43962452Y-54441380D01*
X43859105Y-54399730D01*
X43771832Y-54364558D01*
X43771829Y-54364557D01*
X43766263Y-54362314D01*
X43725676Y-54354388D01*
X43694482Y-54348296D01*
X43694086Y-54348206D01*
X43692220Y-54347564D01*
X43675823Y-54344635D01*
X43673833Y-54344263D01*
X43663615Y-54342268D01*
X43659424Y-54341375D01*
X43646970Y-54338501D01*
X43646966Y-54338500D01*
X43642588Y-54337490D01*
X43640730Y-54337333D01*
X43637678Y-54336452D01*
X43630818Y-54335580D01*
X43622576Y-54334253D01*
X43558663Y-54321772D01*
X43553101Y-54321500D01*
X43500916Y-54321500D01*
X43491364Y-54321137D01*
X43489113Y-54320966D01*
X43480400Y-54320303D01*
X43480395Y-54320303D01*
X43475924Y-54319963D01*
X43473373Y-54320132D01*
X43469660Y-54319650D01*
X43446069Y-54320246D01*
X43439737Y-54320246D01*
X43426850Y-54319920D01*
X43423716Y-54319841D01*
X43423714Y-54319841D01*
X43419240Y-54319728D01*
X43416724Y-54320024D01*
X43412969Y-54319728D01*
X43401169Y-54320625D01*
X43389501Y-54321512D01*
X43383134Y-54321835D01*
X43376292Y-54322008D01*
X43362681Y-54322352D01*
X43360335Y-54322749D01*
X43356746Y-54322648D01*
X43333343Y-54325622D01*
X43327014Y-54326264D01*
X43306590Y-54327817D01*
X43304493Y-54328282D01*
X43301118Y-54328357D01*
X43278468Y-54332402D01*
X43268285Y-54333795D01*
X43245403Y-54335978D01*
X43245399Y-54335979D01*
X43239434Y-54336548D01*
X43233688Y-54338234D01*
X43233676Y-54338236D01*
X43221378Y-54341844D01*
X43208070Y-54344975D01*
X43201044Y-54346230D01*
X43201036Y-54346232D01*
X43196630Y-54347019D01*
X43195048Y-54347541D01*
X43192138Y-54347899D01*
X43169272Y-54354393D01*
X43163200Y-54355954D01*
X43147396Y-54359601D01*
X43147386Y-54359604D01*
X43143031Y-54360609D01*
X43141685Y-54361129D01*
X43139025Y-54361591D01*
X43116364Y-54369258D01*
X43110428Y-54371104D01*
X43090435Y-54376782D01*
X43089351Y-54377265D01*
X43086934Y-54377808D01*
X43082413Y-54379590D01*
X43082405Y-54379593D01*
X43064621Y-54386605D01*
X43058812Y-54388732D01*
X43043350Y-54393964D01*
X43043207Y-54394009D01*
X43043149Y-54394032D01*
X43040939Y-54394780D01*
X43036466Y-54396092D01*
X43033992Y-54397366D01*
X43028764Y-54399730D01*
X43028763Y-54399730D01*
X43014061Y-54406377D01*
X43008374Y-54408783D01*
X42997380Y-54413118D01*
X42988866Y-54416475D01*
X42988200Y-54416854D01*
X42986235Y-54417503D01*
X42964710Y-54428527D01*
X42959211Y-54431176D01*
X42940017Y-54439854D01*
X42939545Y-54440154D01*
X42937779Y-54440834D01*
X42916770Y-54452914D01*
X42911437Y-54455811D01*
X42892606Y-54465455D01*
X42892278Y-54465687D01*
X42890683Y-54466391D01*
X42886588Y-54469016D01*
X42886585Y-54469018D01*
X42870233Y-54479502D01*
X42865033Y-54482662D01*
X42851862Y-54490235D01*
X42846658Y-54493227D01*
X42846460Y-54493382D01*
X42845032Y-54494096D01*
X42841065Y-54496917D01*
X42825184Y-54508210D01*
X42820173Y-54511595D01*
X42806092Y-54520623D01*
X42802252Y-54523085D01*
X42802161Y-54523164D01*
X42800862Y-54523893D01*
X42797022Y-54526911D01*
X42797020Y-54526912D01*
X42781661Y-54538982D01*
X42776840Y-54542587D01*
X42759468Y-54554941D01*
X42759448Y-54554960D01*
X42758258Y-54555705D01*
X42739749Y-54571738D01*
X42735151Y-54575533D01*
X42733981Y-54576452D01*
X42721017Y-54586639D01*
X42721015Y-54586641D01*
X42718445Y-54588661D01*
X42717258Y-54589485D01*
X42699524Y-54606393D01*
X42695112Y-54610402D01*
X42679110Y-54624263D01*
X42677934Y-54625166D01*
X42674576Y-54628688D01*
X42661052Y-54642872D01*
X42656810Y-54647115D01*
X42641478Y-54661734D01*
X42640348Y-54662690D01*
X42637152Y-54666380D01*
X42624338Y-54681173D01*
X42620293Y-54685624D01*
X42605634Y-54700999D01*
X42604570Y-54701991D01*
X42589443Y-54721240D01*
X42585649Y-54725838D01*
X42571647Y-54742003D01*
X42571644Y-54742007D01*
X42570655Y-54743022D01*
X42568902Y-54745487D01*
X42556489Y-54762940D01*
X42552881Y-54767765D01*
X42539720Y-54784513D01*
X42539671Y-54784598D01*
X42538669Y-54785730D01*
X42525506Y-54806262D01*
X42522138Y-54811247D01*
X42509809Y-54828584D01*
X42509705Y-54828786D01*
X42508684Y-54830058D01*
X42506260Y-54834274D01*
X42506257Y-54834278D01*
X42496579Y-54851110D01*
X42493435Y-54856286D01*
X42481976Y-54874161D01*
X42481823Y-54874497D01*
X42480780Y-54875934D01*
X42469896Y-54897187D01*
X42469739Y-54897493D01*
X42466830Y-54902849D01*
X42456290Y-54921179D01*
X42456092Y-54921676D01*
X42455039Y-54923286D01*
X42453030Y-54927729D01*
X42453028Y-54927733D01*
X42445089Y-54945293D01*
X42442437Y-54950799D01*
X42432827Y-54969563D01*
X42432592Y-54970247D01*
X42431523Y-54972071D01*
X42425571Y-54987167D01*
X42422707Y-54994430D01*
X42420303Y-55000117D01*
X42411661Y-55019231D01*
X42411400Y-55020132D01*
X42410331Y-55022181D01*
X42402638Y-55044917D01*
X42400511Y-55050725D01*
X42396065Y-55062003D01*
X42392857Y-55070138D01*
X42392590Y-55071262D01*
X42391535Y-55073555D01*
X42390206Y-55078234D01*
X42390203Y-55078243D01*
X42385015Y-55096515D01*
X42383165Y-55102465D01*
X42376498Y-55122170D01*
X42376243Y-55123538D01*
X42375225Y-55126078D01*
X42374132Y-55130812D01*
X42374132Y-55130813D01*
X42369876Y-55149253D01*
X42368312Y-55155334D01*
X42362654Y-55175259D01*
X42362435Y-55176877D01*
X42361470Y-55179684D01*
X42360616Y-55184466D01*
X42360615Y-55184470D01*
X42357301Y-55203029D01*
X42356035Y-55209215D01*
X42352412Y-55224913D01*
X42352411Y-55224921D01*
X42351404Y-55229283D01*
X42351245Y-55231156D01*
X42350365Y-55234207D01*
X42349752Y-55239030D01*
X42349751Y-55239035D01*
X42347384Y-55257664D01*
X42346430Y-55263909D01*
X42342812Y-55284172D01*
X42342739Y-55286279D01*
X42341964Y-55289585D01*
X42341596Y-55294430D01*
X42341595Y-55294434D01*
X42340175Y-55313112D01*
X42339538Y-55319397D01*
X42336951Y-55339754D01*
X42336988Y-55342106D01*
X42336344Y-55345651D01*
X42336281Y-55348143D01*
X42334813Y-55353052D01*
X42334758Y-55362025D01*
X42334758Y-55362026D01*
X42334637Y-55381907D01*
X42334277Y-55390683D01*
X42333875Y-55395964D01*
X42334044Y-55398514D01*
X42333560Y-55402243D01*
X39459817Y-55402243D01*
X39441467Y-55326103D01*
X39440886Y-55323331D01*
X39440401Y-55321412D01*
X39439614Y-55317006D01*
X39439089Y-55315415D01*
X39438732Y-55312512D01*
X39435843Y-55302336D01*
X39434564Y-55297462D01*
X39433835Y-55294434D01*
X39412875Y-55207466D01*
X39402420Y-55184470D01*
X39392340Y-55162301D01*
X39391446Y-55160108D01*
X39391204Y-55159393D01*
X39390950Y-55158892D01*
X39390684Y-55158239D01*
X39390155Y-55156327D01*
X39380237Y-55134389D01*
X39377839Y-55128717D01*
X39375797Y-55123538D01*
X39370151Y-55109219D01*
X39369773Y-55108555D01*
X39369125Y-55106593D01*
X39358105Y-55085077D01*
X39355453Y-55079570D01*
X39348635Y-55064489D01*
X39348634Y-55064486D01*
X39346778Y-55060382D01*
X39346474Y-55059905D01*
X39345794Y-55058137D01*
X39343366Y-55053915D01*
X39341267Y-55049508D01*
X39339419Y-55045909D01*
X39325326Y-55014913D01*
X39305645Y-54987167D01*
X39299187Y-54977079D01*
X39295635Y-54970901D01*
X39293401Y-54967016D01*
X39293246Y-54966818D01*
X39292532Y-54965390D01*
X39278418Y-54945542D01*
X39275033Y-54940531D01*
X39266005Y-54926450D01*
X39266004Y-54926449D01*
X39263543Y-54922610D01*
X39263464Y-54922519D01*
X39262735Y-54921220D01*
X39247646Y-54902018D01*
X39244041Y-54897198D01*
X39231687Y-54879826D01*
X39231666Y-54879804D01*
X39230916Y-54878606D01*
X39222321Y-54868684D01*
X39214805Y-54859108D01*
X39202946Y-54842389D01*
X39198616Y-54838244D01*
X39198610Y-54838237D01*
X39190674Y-54830640D01*
X39186611Y-54826570D01*
X39180244Y-54819892D01*
X39176202Y-54815444D01*
X39164500Y-54801935D01*
X39164499Y-54801934D01*
X39162373Y-54799480D01*
X39161462Y-54798293D01*
X39157544Y-54794557D01*
X39143756Y-54781411D01*
X39139513Y-54777169D01*
X39127131Y-54764183D01*
X39124894Y-54761837D01*
X39123938Y-54760707D01*
X39115514Y-54753410D01*
X39105455Y-54744697D01*
X39101004Y-54740652D01*
X39097571Y-54737379D01*
X39085629Y-54725993D01*
X39084637Y-54724929D01*
X39065408Y-54709818D01*
X39060707Y-54705936D01*
X39059840Y-54705184D01*
X39055280Y-54701029D01*
X39054483Y-54700266D01*
X39054479Y-54700263D01*
X39050150Y-54696119D01*
X39047099Y-54694149D01*
X39044625Y-54692006D01*
X39044624Y-54692005D01*
X39043610Y-54691017D01*
X39023714Y-54676868D01*
X39018877Y-54673252D01*
X39018039Y-54672594D01*
X39002115Y-54660079D01*
X39002025Y-54660027D01*
X39000886Y-54659019D01*
X38996793Y-54656395D01*
X38996785Y-54656389D01*
X38980377Y-54645871D01*
X38975403Y-54642512D01*
X38958046Y-54630169D01*
X38957839Y-54630062D01*
X38956569Y-54629043D01*
X38950479Y-54625541D01*
X38935494Y-54616924D01*
X38930305Y-54613772D01*
X38930291Y-54613763D01*
X38912453Y-54602328D01*
X38912131Y-54602181D01*
X38910706Y-54601147D01*
X38900146Y-54595739D01*
X38889127Y-54590094D01*
X38883775Y-54587187D01*
X38865448Y-54576649D01*
X38864953Y-54576452D01*
X38863334Y-54575393D01*
X38857437Y-54572727D01*
X38841338Y-54565448D01*
X38835806Y-54562783D01*
X38821061Y-54555231D01*
X38821056Y-54555229D01*
X38817079Y-54553192D01*
X38816396Y-54552957D01*
X38814573Y-54551889D01*
X38810050Y-54550105D01*
X38810047Y-54550104D01*
X38792181Y-54543059D01*
X38786497Y-54540655D01*
X38771483Y-54533867D01*
X38771473Y-54533863D01*
X38767389Y-54532017D01*
X38766495Y-54531758D01*
X38764442Y-54530687D01*
X38741723Y-54522999D01*
X38735940Y-54520882D01*
X38716505Y-54513219D01*
X38715366Y-54512948D01*
X38713072Y-54511893D01*
X38690081Y-54505365D01*
X38684172Y-54503527D01*
X38664451Y-54496854D01*
X38663082Y-54496599D01*
X38660545Y-54495582D01*
X38637340Y-54490226D01*
X38631319Y-54488678D01*
X38611368Y-54483012D01*
X38609749Y-54482793D01*
X38606942Y-54481828D01*
X38583604Y-54477660D01*
X38577417Y-54476394D01*
X38561705Y-54472768D01*
X38561699Y-54472767D01*
X38557340Y-54471761D01*
X38555466Y-54471602D01*
X38552419Y-54470723D01*
X38547596Y-54470110D01*
X38547591Y-54470109D01*
X38531743Y-54468095D01*
X38528959Y-54467742D01*
X38522717Y-54466788D01*
X38502454Y-54463170D01*
X38500347Y-54463097D01*
X38497041Y-54462322D01*
X38492196Y-54461954D01*
X38492192Y-54461953D01*
X38473514Y-54460533D01*
X38467203Y-54459893D01*
X38446872Y-54457309D01*
X38444520Y-54457346D01*
X38440975Y-54456702D01*
X38436119Y-54456579D01*
X38436117Y-54456579D01*
X38417416Y-54456106D01*
X38411050Y-54455783D01*
X38395141Y-54454573D01*
X38395132Y-54454573D01*
X38390662Y-54454233D01*
X38388112Y-54454402D01*
X38384382Y-54453918D01*
X38377566Y-54454090D01*
X38360829Y-54454513D01*
X38354465Y-54454513D01*
X38338472Y-54454109D01*
X38338470Y-54454109D01*
X38333996Y-54453996D01*
X38331462Y-54454294D01*
X38327707Y-54453998D01*
X38304198Y-54455785D01*
X38297863Y-54456106D01*
X38281890Y-54456510D01*
X38281884Y-54456511D01*
X38277403Y-54456624D01*
X38275070Y-54457019D01*
X38271484Y-54456918D01*
X38266654Y-54457532D01*
X38266651Y-54457532D01*
X38248083Y-54459892D01*
X38241792Y-54460531D01*
X38221329Y-54462087D01*
X38219239Y-54462550D01*
X38215877Y-54462625D01*
X38211080Y-54463482D01*
X38211076Y-54463482D01*
X38192580Y-54466784D01*
X38186323Y-54467740D01*
X38170386Y-54469766D01*
X38170378Y-54469768D01*
X38165937Y-54470332D01*
X38164106Y-54470836D01*
X38160961Y-54471064D01*
X38142136Y-54475409D01*
X38137868Y-54476394D01*
X38131679Y-54477660D01*
X38125041Y-54478845D01*
X38111389Y-54481283D01*
X38109798Y-54481808D01*
X38106894Y-54482165D01*
X38083978Y-54488672D01*
X38077945Y-54490224D01*
X38057755Y-54494884D01*
X38056420Y-54495400D01*
X38053760Y-54495862D01*
X38049155Y-54497420D01*
X38049140Y-54497424D01*
X38031148Y-54503512D01*
X38025186Y-54505366D01*
X38009514Y-54509817D01*
X38009512Y-54509818D01*
X38005190Y-54511045D01*
X38004086Y-54511537D01*
X38001660Y-54512082D01*
X37997132Y-54513868D01*
X37997124Y-54513870D01*
X37979368Y-54520872D01*
X37973528Y-54523010D01*
X37958028Y-54528254D01*
X37958020Y-54528257D01*
X37953771Y-54529695D01*
X37952906Y-54530133D01*
X37950724Y-54530737D01*
X37946286Y-54532743D01*
X37946281Y-54532745D01*
X37928766Y-54540663D01*
X37923102Y-54543058D01*
X37903592Y-54550752D01*
X37902936Y-54551125D01*
X37900960Y-54551778D01*
X37879459Y-54562791D01*
X37873945Y-54565447D01*
X37854778Y-54574112D01*
X37854290Y-54574422D01*
X37852519Y-54575104D01*
X37831504Y-54587187D01*
X37826166Y-54590087D01*
X37807333Y-54599733D01*
X37807016Y-54599957D01*
X37805437Y-54600654D01*
X37801339Y-54603281D01*
X37784988Y-54613763D01*
X37779794Y-54616919D01*
X37765284Y-54625262D01*
X37765278Y-54625266D01*
X37761398Y-54627497D01*
X37761200Y-54627652D01*
X37759760Y-54628372D01*
X37755796Y-54631191D01*
X37755791Y-54631194D01*
X37739920Y-54642481D01*
X37734899Y-54645872D01*
X37720782Y-54654922D01*
X37720772Y-54654929D01*
X37717004Y-54657345D01*
X37716902Y-54657433D01*
X37715602Y-54658163D01*
X37711784Y-54661163D01*
X37711771Y-54661172D01*
X37696386Y-54673263D01*
X37691566Y-54676868D01*
X37674197Y-54689220D01*
X37674184Y-54689233D01*
X37672998Y-54689975D01*
X37654497Y-54706001D01*
X37649881Y-54709810D01*
X37633173Y-54722940D01*
X37631988Y-54723763D01*
X37614275Y-54740652D01*
X37609837Y-54744685D01*
X37596310Y-54756401D01*
X37596307Y-54756405D01*
X37593842Y-54758540D01*
X37592675Y-54759436D01*
X37589317Y-54762958D01*
X37589307Y-54762967D01*
X37575765Y-54777170D01*
X37571536Y-54781400D01*
X37556264Y-54795962D01*
X37555106Y-54796942D01*
X37539061Y-54815463D01*
X37535036Y-54819891D01*
X37522651Y-54832881D01*
X37522650Y-54832882D01*
X37520391Y-54835252D01*
X37519310Y-54836260D01*
X37504209Y-54855477D01*
X37500372Y-54860126D01*
X37491109Y-54870819D01*
X37486402Y-54876252D01*
X37486387Y-54876275D01*
X37485389Y-54877299D01*
X37471249Y-54897184D01*
X37471247Y-54897187D01*
X37467629Y-54902025D01*
X37457199Y-54915296D01*
X37457195Y-54915301D01*
X37454460Y-54918782D01*
X37454409Y-54918870D01*
X37453409Y-54920000D01*
X37440237Y-54940546D01*
X37436877Y-54945520D01*
X37424544Y-54962863D01*
X37424444Y-54963057D01*
X37423424Y-54964328D01*
X37420998Y-54968547D01*
X37420996Y-54968550D01*
X37416092Y-54977079D01*
X37413103Y-54982278D01*
X37411319Y-54985380D01*
X37408175Y-54990556D01*
X37396716Y-55008431D01*
X37396563Y-55008767D01*
X37395520Y-55010204D01*
X37393301Y-55014537D01*
X37393299Y-55014540D01*
X37384479Y-55031763D01*
X37381570Y-55037119D01*
X37371030Y-55055449D01*
X37370832Y-55055946D01*
X37369779Y-55057556D01*
X37367770Y-55061999D01*
X37367768Y-55062003D01*
X37359829Y-55079563D01*
X37357177Y-55085069D01*
X37347567Y-55103833D01*
X37347333Y-55104515D01*
X37346266Y-55106335D01*
X37344478Y-55110870D01*
X37337442Y-55128715D01*
X37335034Y-55134406D01*
X37326401Y-55153501D01*
X37326139Y-55154402D01*
X37325069Y-55156455D01*
X37318707Y-55175259D01*
X37317383Y-55179171D01*
X37315254Y-55184986D01*
X37307599Y-55204401D01*
X37307331Y-55205530D01*
X37306275Y-55207825D01*
X37299747Y-55230816D01*
X37297909Y-55236725D01*
X37291236Y-55256446D01*
X37290982Y-55257812D01*
X37289965Y-55260348D01*
X37288868Y-55265101D01*
X37284612Y-55283536D01*
X37283051Y-55289608D01*
X37279128Y-55303424D01*
X37278139Y-55306271D01*
X37277951Y-55307567D01*
X37277394Y-55309529D01*
X37277176Y-55311143D01*
X37276215Y-55313937D01*
X37275360Y-55318725D01*
X37275356Y-55318740D01*
X37272045Y-55337281D01*
X37270780Y-55343468D01*
X37268540Y-55353175D01*
X37266144Y-55363553D01*
X37265985Y-55365425D01*
X37265100Y-55368494D01*
X37264488Y-55373310D01*
X37262121Y-55391937D01*
X37261164Y-55398199D01*
X37258341Y-55414008D01*
X37258340Y-55414019D01*
X37257553Y-55418425D01*
X37257480Y-55420546D01*
X37256704Y-55423854D01*
X37254914Y-55447392D01*
X37254272Y-55453717D01*
X37251690Y-55474041D01*
X37251727Y-55476381D01*
X37251084Y-55479920D01*
X37251021Y-55482414D01*
X37249553Y-55487322D01*
X37249498Y-55496293D01*
X37249379Y-55497089D01*
X37248884Y-55503678D01*
X37248941Y-55503681D01*
X37248648Y-55509663D01*
X37247787Y-55515604D01*
X16484969Y-55515604D01*
X21507839Y-36770000D01*
X23456372Y-36770000D01*
X23476854Y-37030249D01*
X23478008Y-37035056D01*
X23478009Y-37035062D01*
X23516424Y-37195069D01*
X23537796Y-37284089D01*
X23539689Y-37288660D01*
X23539690Y-37288662D01*
X23635303Y-37519491D01*
X23637697Y-37525271D01*
X23774097Y-37747856D01*
X23943637Y-37946363D01*
X24142144Y-38115903D01*
X24364729Y-38252303D01*
X24369299Y-38254196D01*
X24369303Y-38254198D01*
X24584557Y-38343359D01*
X24605911Y-38352204D01*
X24694931Y-38373576D01*
X24854938Y-38411991D01*
X24854944Y-38411992D01*
X24859751Y-38413146D01*
X25120000Y-38433628D01*
X25380249Y-38413146D01*
X25385056Y-38411992D01*
X25385062Y-38411991D01*
X25545069Y-38373576D01*
X25634089Y-38352204D01*
X25655443Y-38343359D01*
X25870697Y-38254198D01*
X25870701Y-38254196D01*
X25875271Y-38252303D01*
X26097856Y-38115903D01*
X26296363Y-37946363D01*
X26465903Y-37747856D01*
X26602303Y-37525271D01*
X26604698Y-37519491D01*
X26700310Y-37288662D01*
X26700311Y-37288660D01*
X26702204Y-37284089D01*
X26723576Y-37195069D01*
X26761991Y-37035062D01*
X26761992Y-37035056D01*
X26763146Y-37030249D01*
X26783628Y-36770000D01*
X26782841Y-36760000D01*
X55266372Y-36760000D01*
X55286854Y-37020249D01*
X55288008Y-37025056D01*
X55288009Y-37025062D01*
X55290410Y-37035062D01*
X55347796Y-37274089D01*
X55447697Y-37515271D01*
X55584097Y-37737856D01*
X55753637Y-37936363D01*
X55952144Y-38105903D01*
X56174729Y-38242303D01*
X56179299Y-38244196D01*
X56179303Y-38244198D01*
X56411338Y-38340310D01*
X56415911Y-38342204D01*
X56449675Y-38350310D01*
X56664938Y-38401991D01*
X56664944Y-38401992D01*
X56669751Y-38403146D01*
X56930000Y-38423628D01*
X57190249Y-38403146D01*
X57195056Y-38401992D01*
X57195062Y-38401991D01*
X57410325Y-38350310D01*
X57444089Y-38342204D01*
X57448662Y-38340310D01*
X57680697Y-38244198D01*
X57680701Y-38244196D01*
X57685271Y-38242303D01*
X57907856Y-38105903D01*
X58106363Y-37936363D01*
X58275903Y-37737856D01*
X58412303Y-37515271D01*
X58512204Y-37274089D01*
X58569590Y-37035062D01*
X58571991Y-37025062D01*
X58571992Y-37025056D01*
X58573146Y-37020249D01*
X58593628Y-36760000D01*
X58573146Y-36499751D01*
X58571992Y-36494944D01*
X58571991Y-36494938D01*
X58513359Y-36250723D01*
X58512204Y-36245911D01*
X58418340Y-36019303D01*
X58414198Y-36009303D01*
X58414196Y-36009299D01*
X58412303Y-36004729D01*
X58275903Y-35782144D01*
X58106363Y-35583637D01*
X57907856Y-35414097D01*
X57685271Y-35277697D01*
X57680701Y-35275804D01*
X57680697Y-35275802D01*
X57448662Y-35179690D01*
X57448660Y-35179689D01*
X57444089Y-35177796D01*
X57355069Y-35156424D01*
X57195062Y-35118009D01*
X57195056Y-35118008D01*
X57190249Y-35116854D01*
X56930000Y-35096372D01*
X56669751Y-35116854D01*
X56664944Y-35118008D01*
X56664938Y-35118009D01*
X56504931Y-35156424D01*
X56415911Y-35177796D01*
X56411340Y-35179689D01*
X56411338Y-35179690D01*
X56179303Y-35275802D01*
X56179299Y-35275804D01*
X56174729Y-35277697D01*
X55952144Y-35414097D01*
X55753637Y-35583637D01*
X55584097Y-35782144D01*
X55447697Y-36004729D01*
X55445804Y-36009299D01*
X55445802Y-36009303D01*
X55441660Y-36019303D01*
X55347796Y-36245911D01*
X55346641Y-36250723D01*
X55288009Y-36494938D01*
X55288008Y-36494944D01*
X55286854Y-36499751D01*
X55266372Y-36760000D01*
X26782841Y-36760000D01*
X26763146Y-36509751D01*
X26761992Y-36504944D01*
X26761991Y-36504938D01*
X26703359Y-36260723D01*
X26702204Y-36255911D01*
X26602303Y-36014729D01*
X26465903Y-35792144D01*
X26296363Y-35593637D01*
X26097856Y-35424097D01*
X25875271Y-35287697D01*
X25870701Y-35285804D01*
X25870697Y-35285802D01*
X25638662Y-35189690D01*
X25638660Y-35189689D01*
X25634089Y-35187796D01*
X25545069Y-35166424D01*
X25385062Y-35128009D01*
X25385056Y-35128008D01*
X25380249Y-35126854D01*
X25120000Y-35106372D01*
X24859751Y-35126854D01*
X24854944Y-35128008D01*
X24854938Y-35128009D01*
X24694931Y-35166424D01*
X24605911Y-35187796D01*
X24601340Y-35189689D01*
X24601338Y-35189690D01*
X24369303Y-35285802D01*
X24369299Y-35285804D01*
X24364729Y-35287697D01*
X24142144Y-35424097D01*
X23943637Y-35593637D01*
X23774097Y-35792144D01*
X23637697Y-36014729D01*
X23537796Y-36255911D01*
X23536641Y-36260723D01*
X23478009Y-36504938D01*
X23478008Y-36504944D01*
X23476854Y-36509751D01*
X23456372Y-36770000D01*
X21507839Y-36770000D01*
X27396788Y-14792143D01*
X27433739Y-14731521D01*
X27497599Y-14700500D01*
X27518494Y-14698755D01*
X54528483Y-14698755D01*
X54596604Y-14718757D01*
G37*
%TD.AperFunction*%
D12*
X43450000Y-55430000D03*
X45250000Y-57160000D03*
X45520000Y-61990000D03*
X43900000Y-63890000D03*
X38360000Y-64040000D03*
X36640000Y-62220000D03*
X36640000Y-57390000D03*
X38360000Y-55570000D03*
X56930000Y-36760000D03*
X63040000Y-59600000D03*
X18990000Y-59600000D03*
X25120000Y-36770000D03*
M02*
