%TF.GenerationSoftware,KiCad,Pcbnew,(6.0.6)*%
%TF.CreationDate,2022-07-10T11:29:43+09:00*%
%TF.ProjectId,nowt_promicro_plate_A,6e6f7774-5f70-4726-9f6d-6963726f5f70,rev?*%
%TF.SameCoordinates,Original*%
%TF.FileFunction,Legend,Bot*%
%TF.FilePolarity,Positive*%
%FSLAX46Y46*%
G04 Gerber Fmt 4.6, Leading zero omitted, Abs format (unit mm)*
G04 Created by KiCad (PCBNEW (6.0.6)) date 2022-07-10 11:29:43*
%MOMM*%
%LPD*%
G01*
G04 APERTURE LIST*
%TA.AperFunction,Profile*%
%ADD10C,0.349999*%
%TD*%
%ADD11C,0.350000*%
%ADD12C,1.200000*%
%ADD13C,2.300000*%
G04 APERTURE END LIST*
D10*
X47257959Y-61564998D02*
X47255642Y-61534527D01*
X39609456Y-57623652D02*
X39609456Y-57623652D01*
X39597266Y-57502732D02*
X39590566Y-57473704D01*
X39609456Y-57623652D02*
X39608675Y-57592776D01*
X44363373Y-66522748D02*
X44391845Y-66530833D01*
X37178842Y-61548608D02*
X37163235Y-61524265D01*
X46265863Y-59692411D02*
X46288529Y-59674598D01*
X46195750Y-61977527D02*
X46214608Y-61999298D01*
X37714970Y-63856082D02*
X37694132Y-63836216D01*
X38496319Y-65784685D02*
X38481872Y-65809811D01*
X42274525Y-66890596D02*
X42275305Y-66859721D01*
X46255313Y-61151744D02*
X46234475Y-61171611D01*
X37890706Y-59439112D02*
X37889925Y-59408237D01*
X41271878Y-66415592D02*
X41251041Y-66435459D01*
X44658307Y-57695681D02*
X44667739Y-57667802D01*
X37550830Y-64821176D02*
X37576701Y-64807926D01*
X37264925Y-61890604D02*
X37265706Y-61859728D01*
X41554384Y-57447544D02*
X41583931Y-57452821D01*
X43581579Y-57178262D02*
X43567132Y-57203388D01*
X46058739Y-61595873D02*
X46058739Y-61595873D01*
X36844127Y-62432752D02*
X36872006Y-62423319D01*
X45503447Y-58767482D02*
X45482610Y-58787349D01*
X39295451Y-58151233D02*
X39320577Y-58136786D01*
X44877260Y-65452197D02*
X44852916Y-65436591D01*
X46310300Y-58767482D02*
X46288529Y-58748624D01*
X41087494Y-66738801D02*
X41082218Y-66768347D01*
X41194503Y-67218708D02*
X41212315Y-67241374D01*
X46299749Y-62076673D02*
X46323273Y-62093401D01*
X46056822Y-59792720D02*
X46085294Y-59784635D01*
X38627800Y-58086639D02*
X38650466Y-58104451D01*
X43691289Y-57045253D02*
X43670451Y-57065120D01*
X46750155Y-64167019D02*
X46755432Y-64137472D01*
X47121728Y-61214220D02*
X47102870Y-61192449D01*
X46253721Y-64639184D02*
X46283267Y-64633908D01*
X46487985Y-59061663D02*
X46479900Y-59033191D01*
X45785952Y-59799420D02*
X45815499Y-59804696D01*
X44000960Y-65689602D02*
X43988945Y-65716179D01*
X38859506Y-65514696D02*
X38831034Y-65522781D01*
X37626171Y-59936640D02*
X37649695Y-59919911D01*
X41554384Y-66271912D02*
X41525355Y-66278612D01*
X42099569Y-66435459D02*
X42078732Y-66415592D01*
X39344921Y-58121179D02*
X39368445Y-58104451D01*
X39582481Y-66274225D02*
X39590566Y-66245753D01*
X45815499Y-58618526D02*
X45785952Y-58623803D01*
X37084406Y-58875522D02*
X37057159Y-58886265D01*
X37024695Y-61378929D02*
X37001171Y-61362201D01*
X44622298Y-57775376D02*
X44635548Y-57749505D01*
X41162169Y-57170856D02*
X41177775Y-57195200D01*
X41675305Y-56259737D02*
X41644429Y-56260518D01*
X46597391Y-60998973D02*
X46567364Y-61002788D01*
X47156269Y-61260410D02*
X47139541Y-61236886D01*
X43553882Y-57749505D02*
X43567132Y-57775376D01*
X37004710Y-58911531D02*
X36979584Y-58925978D01*
X38831034Y-66668828D02*
X38859506Y-66676913D01*
X41644429Y-66260503D02*
X41613958Y-66262820D01*
X41496883Y-57432759D02*
X41525355Y-57440845D01*
X44603141Y-66546625D02*
X44633169Y-66542810D01*
X43973795Y-56901574D02*
X43944766Y-56908273D01*
X37382079Y-60032197D02*
X37411626Y-60026921D01*
X37246816Y-61709780D02*
X37238731Y-61681308D01*
X41853727Y-67432744D02*
X41881605Y-67423311D01*
X36696581Y-61260511D02*
X36665705Y-61259730D01*
X36717680Y-59260692D02*
X36709595Y-59289164D01*
X44281669Y-66490556D02*
X44308247Y-66502572D01*
X41441758Y-67412568D02*
X41469005Y-67423311D01*
X43670451Y-57065120D02*
X43650584Y-57085958D01*
X44635548Y-57229259D02*
X44622298Y-57203388D01*
X39573048Y-66302103D02*
X39582481Y-66274225D01*
X38803156Y-66659395D02*
X38831034Y-66668828D01*
X38918082Y-58216737D02*
X38948109Y-58220553D01*
X44014211Y-66235718D02*
X44028658Y-66260845D01*
X46434457Y-58925617D02*
X46420010Y-58900491D01*
X39537039Y-65809811D02*
X39522592Y-65784685D01*
X45851225Y-63532965D02*
X45826881Y-63548572D01*
X45780691Y-63583112D02*
X45758920Y-63601970D01*
X39597266Y-65974885D02*
X39590566Y-65945857D01*
X46434457Y-59497605D02*
X46447708Y-59471734D01*
X37831539Y-59699235D02*
X37843555Y-59672658D01*
X37771507Y-64639332D02*
X37788235Y-64615808D01*
X38775909Y-66648652D02*
X38803156Y-66659395D01*
X43916294Y-58062406D02*
X43944766Y-58070491D01*
X44635548Y-57749505D02*
X44647563Y-57722928D01*
X41076085Y-56828860D02*
X41075305Y-56859736D01*
X46606477Y-63642675D02*
X46586610Y-63621837D01*
X41251041Y-67283983D02*
X41271878Y-67303850D01*
X46214608Y-61192449D02*
X46195750Y-61214220D01*
X39582481Y-65917384D02*
X39573048Y-65889506D01*
X37883792Y-59347739D02*
X37878516Y-59318192D01*
X37601827Y-63767210D02*
X37576701Y-63752763D01*
X44215637Y-58077191D02*
X44244665Y-58070491D01*
X41134471Y-67119844D02*
X41147721Y-67145714D01*
X37788235Y-59774576D02*
X37803842Y-59750232D01*
X47040395Y-61132886D02*
X47017728Y-61115074D01*
X44923450Y-66412712D02*
X44945221Y-66393853D01*
X37871816Y-64130396D02*
X37863731Y-64101924D01*
X43888415Y-56925792D02*
X43861168Y-56936535D01*
X42248331Y-66681300D02*
X42238897Y-66653422D01*
X45673326Y-59764458D02*
X45700573Y-59775202D01*
X42216139Y-57119859D02*
X42228154Y-57093281D01*
X46499961Y-59120238D02*
X46494685Y-59090691D01*
X42275305Y-56859736D02*
X42275305Y-56859736D01*
X36709595Y-64430293D02*
X36717680Y-64458765D01*
X41961301Y-57387317D02*
X41986427Y-57372870D01*
X41102279Y-57038156D02*
X41111712Y-57066035D01*
X46162346Y-64646098D02*
X46193222Y-64645317D01*
X36354584Y-62372862D02*
X36379710Y-62387310D01*
X44028658Y-66260845D02*
X44044265Y-66285188D01*
X46242339Y-59709139D02*
X46265863Y-59692411D01*
X39608675Y-57592776D02*
X39606358Y-57562306D01*
X46214608Y-61999298D02*
X46234475Y-62020135D01*
X44592244Y-57153918D02*
X44575516Y-57130395D01*
X44622298Y-57203388D02*
X44607851Y-57178262D01*
X44308247Y-65396877D02*
X44281669Y-65408893D01*
X42202889Y-67145714D02*
X42216139Y-67119844D01*
X36487284Y-61286705D02*
X36459406Y-61296138D01*
X37112284Y-64853368D02*
X37140756Y-64861453D01*
X45598756Y-63839801D02*
X45589323Y-63867679D01*
X39391111Y-58086639D02*
X39412882Y-58067781D01*
X46452438Y-61032283D02*
X46425191Y-61043026D01*
X39159405Y-58204761D02*
X39187877Y-58196675D01*
X45319064Y-59332531D02*
X45325763Y-59361559D01*
X36065705Y-61859728D02*
X36066486Y-61890604D01*
X44662715Y-66537533D02*
X44691744Y-66530833D01*
X44720216Y-66522748D02*
X44748095Y-66513315D01*
X44063840Y-58088600D02*
X44094716Y-58089381D01*
X46743455Y-64196047D02*
X46750155Y-64167019D01*
X41078402Y-66798375D02*
X41076085Y-66828845D01*
X36691486Y-59408237D02*
X36690705Y-59439112D01*
X44354840Y-56948551D02*
X44328263Y-56936535D01*
X37290705Y-58839114D02*
X37259829Y-58839894D01*
X44420873Y-65361916D02*
X44391845Y-65368616D01*
X44647563Y-57722928D02*
X44658307Y-57695681D01*
X41122456Y-56626190D02*
X41111712Y-56653437D01*
X37146507Y-62218716D02*
X37163235Y-62195192D01*
X36124872Y-61599605D02*
X36112856Y-61626183D01*
X43531123Y-57695681D02*
X43541866Y-57722928D01*
X37057159Y-63727497D02*
X37030581Y-63739513D01*
X15024060Y-63496104D02*
X15024060Y-63496104D01*
X36379710Y-62387310D02*
X36405581Y-62400560D01*
X41364183Y-66346587D02*
X41339839Y-66362193D01*
X41082218Y-56951109D02*
X41087494Y-56980656D01*
X36072618Y-61768355D02*
X36068803Y-61798382D01*
X42078732Y-56415607D02*
X42056961Y-56396749D01*
X46145603Y-61906993D02*
X46161210Y-61931337D01*
X44335494Y-65386134D02*
X44308247Y-65396877D01*
X44244665Y-58070491D02*
X44273137Y-58062406D01*
X36702895Y-64401264D02*
X36709595Y-64430293D01*
X42138294Y-67241374D02*
X42156107Y-67218708D01*
X39009455Y-66695803D02*
X39009455Y-66695803D01*
X37890706Y-59439112D02*
X37890706Y-59439112D01*
X37440655Y-63699236D02*
X37411626Y-63692536D01*
X39522592Y-57312532D02*
X39506985Y-57288188D01*
X46743455Y-63896151D02*
X46735370Y-63867679D01*
X42119436Y-57263160D02*
X42138294Y-57241390D01*
X43783594Y-56976248D02*
X43759250Y-56991855D01*
X37004710Y-59966694D02*
X37030581Y-59979944D01*
X45803357Y-63565300D02*
X45780691Y-63583112D01*
X45598756Y-64252398D02*
X45609499Y-64279645D01*
X43953984Y-65828805D02*
X43948707Y-65858351D01*
X45354025Y-58978066D02*
X45343282Y-59005313D01*
X41075305Y-56859736D02*
X41076085Y-56890612D01*
X36727052Y-61262828D02*
X36696581Y-61260511D01*
X44430181Y-57986910D02*
X44453705Y-57970182D01*
X37863731Y-64458765D02*
X37871816Y-64430293D01*
X41853727Y-66286697D02*
X41825254Y-66278612D01*
X46056822Y-58630502D02*
X46027793Y-58623803D01*
X38831034Y-65522781D02*
X38803156Y-65532214D01*
X38445863Y-57417353D02*
X38436430Y-57445232D01*
X46070972Y-63453014D02*
X46041425Y-63458291D01*
X45141014Y-65918849D02*
X45138697Y-65888379D01*
X42228154Y-67093266D02*
X42238897Y-67066019D01*
X37887608Y-59377766D02*
X37883792Y-59347739D01*
X46095147Y-61802172D02*
X46105890Y-61829419D01*
X46944734Y-62123455D02*
X46969860Y-62109007D01*
X45379291Y-59497605D02*
X45393738Y-59522731D01*
X45815499Y-59804696D02*
X45845526Y-59808512D01*
X41389309Y-57387317D02*
X41415180Y-57400568D01*
X44720216Y-65376701D02*
X44691744Y-65368616D01*
X44480448Y-66546625D02*
X44510918Y-66548942D01*
X37112284Y-63707321D02*
X37084406Y-63716754D01*
X42216139Y-67119844D02*
X42228154Y-67093266D01*
X43988945Y-66183270D02*
X44000960Y-66209848D01*
X46331138Y-58787349D02*
X46310300Y-58767482D01*
X39602542Y-57532279D02*
X39597266Y-57502732D01*
X45728451Y-58638588D02*
X45700573Y-58648021D01*
X36221575Y-61456304D02*
X36202716Y-61478075D01*
X46027793Y-59799420D02*
X46056822Y-59792720D01*
X42119436Y-56456311D02*
X42099569Y-56435474D01*
X41583931Y-57452821D02*
X41613958Y-57456637D01*
X44985926Y-66353149D02*
X45004784Y-66331378D01*
X43691289Y-57933511D02*
X43713060Y-57952369D01*
X43495496Y-57458507D02*
X43494715Y-57489382D01*
X45525218Y-58748624D02*
X45503447Y-58767482D01*
X41122456Y-67093266D02*
X41134471Y-67119844D01*
X46750155Y-63925179D02*
X46743455Y-63896151D01*
X41796226Y-56271927D02*
X41766679Y-56266651D01*
X39391111Y-66558792D02*
X39412882Y-66539934D01*
X43494715Y-57489382D02*
X43494715Y-57489382D01*
X45646748Y-59752443D02*
X45673326Y-59764458D01*
X44182804Y-66430524D02*
X44206328Y-66447252D01*
X37112284Y-60012136D02*
X37140756Y-60020221D01*
X45758920Y-63601970D02*
X45738083Y-63621837D01*
X43506905Y-57610302D02*
X43513605Y-57639330D01*
X43650584Y-57085958D02*
X43631726Y-57107729D01*
X37112284Y-58866089D02*
X37084406Y-58875522D01*
X36102113Y-62066027D02*
X36112856Y-62093274D01*
X44510918Y-66548942D02*
X44541794Y-66549723D01*
X38627800Y-66558792D02*
X38650466Y-66576604D01*
X37883792Y-59530485D02*
X37887608Y-59500458D01*
X44633169Y-66542810D02*
X44662715Y-66537533D01*
X44273137Y-56916359D02*
X44244665Y-56908273D01*
X39130376Y-57035843D02*
X39100829Y-57030567D01*
X36931716Y-63799545D02*
X36909050Y-63817357D01*
X45393738Y-58900491D02*
X45379291Y-58925617D01*
X41706181Y-66260503D02*
X41675305Y-66259722D01*
X36072618Y-61951102D02*
X36077895Y-61980648D01*
X38481872Y-66381798D02*
X38496319Y-66406925D01*
X46288529Y-58748624D02*
X46265863Y-58730812D01*
X38888535Y-58211460D02*
X38918082Y-58216737D01*
X42172835Y-57195200D02*
X42188441Y-57170856D01*
X45129605Y-65828805D02*
X45122905Y-65799776D01*
X41075305Y-66859721D02*
X41075305Y-66859721D01*
X37694132Y-58994983D02*
X37672361Y-58976125D01*
X45443885Y-59593265D02*
X45462743Y-59615036D01*
X44156062Y-56892481D02*
X44125592Y-56890164D01*
X37259829Y-63681127D02*
X37229359Y-63683444D01*
X42275305Y-56859736D02*
X42274525Y-56828860D01*
X46506875Y-59211611D02*
X46506875Y-59211611D01*
X42010771Y-67357248D02*
X42034295Y-67340520D01*
X39070802Y-66692705D02*
X39100829Y-66688890D01*
X46918863Y-61055042D02*
X46892285Y-61043026D01*
X43973795Y-58077191D02*
X44003341Y-58082467D01*
X46077629Y-61445925D02*
X46070929Y-61474953D01*
X41293649Y-67322708D02*
X41316315Y-67340520D01*
X46470467Y-59417910D02*
X46479900Y-59390031D01*
X39573048Y-57829951D02*
X39582481Y-57802072D01*
X42138294Y-56478082D02*
X42119436Y-56456311D01*
X45069378Y-66235718D02*
X45082628Y-66209848D01*
X37265706Y-61859728D02*
X37264925Y-61828853D01*
X41613958Y-57456637D02*
X41644429Y-57458954D01*
X45756924Y-58630502D02*
X45728451Y-58638588D01*
X37382079Y-63687259D02*
X37352052Y-63683444D01*
X46117906Y-61855996D02*
X46131156Y-61881867D01*
X45482610Y-58787349D02*
X45462743Y-58808187D01*
X45039324Y-66285188D02*
X45054931Y-66260845D01*
X42172835Y-56524272D02*
X42156107Y-56500748D01*
X42248331Y-57038156D02*
X42256416Y-57009684D01*
X45325763Y-59361559D02*
X45333849Y-59390031D01*
X43501629Y-57580755D02*
X43506905Y-57610302D01*
X46061837Y-61657219D02*
X46065653Y-61687247D01*
X37163235Y-62195192D02*
X37178842Y-62170848D01*
X36749872Y-64540467D02*
X36763122Y-64566338D01*
X36330240Y-61362201D02*
X36306716Y-61378929D01*
X42275305Y-66859721D02*
X42275305Y-66859721D01*
X46537817Y-61008065D02*
X46508789Y-61014765D01*
X36827716Y-59057458D02*
X36809904Y-59080125D01*
X44476371Y-57026395D02*
X44453705Y-57008583D01*
X46544002Y-63583112D02*
X46521336Y-63565300D01*
X45700573Y-59775202D02*
X45728451Y-59784635D01*
X41766679Y-57452821D02*
X41796226Y-57447544D01*
X38627800Y-65632817D02*
X38606029Y-65651676D01*
X37878516Y-59318192D02*
X37871816Y-59289164D01*
X37001171Y-62357256D02*
X37024695Y-62340528D01*
X36702895Y-59560032D02*
X36709595Y-59589060D01*
X44186090Y-56896297D02*
X44156062Y-56892481D01*
X37218555Y-61626183D02*
X37206539Y-61599605D01*
X46368647Y-64609690D02*
X46395893Y-64598946D01*
X36068803Y-61798382D02*
X36066486Y-61828853D01*
X46283267Y-64633908D02*
X46312296Y-64627208D01*
X41177775Y-57195200D02*
X41194503Y-57218723D01*
X46521336Y-64526898D02*
X46544002Y-64509086D01*
X39472445Y-57241998D02*
X39453587Y-57220228D01*
X43735726Y-57970182D02*
X43759250Y-57986910D01*
X46473468Y-63532965D02*
X46448342Y-63518518D01*
X45681546Y-64405087D02*
X45699358Y-64427753D01*
X38565325Y-58027076D02*
X38585192Y-58047914D01*
X38546466Y-65714151D02*
X38528654Y-65736817D01*
X37889925Y-59408237D02*
X37887608Y-59377766D01*
X39269580Y-66636636D02*
X39295451Y-66623386D01*
X44186090Y-58082467D02*
X44215637Y-58077191D01*
X38456606Y-57857197D02*
X38468622Y-57883775D01*
X43861168Y-58042229D02*
X43888415Y-58052973D01*
X46061837Y-61534527D02*
X46059520Y-61564998D01*
X39130376Y-66683613D02*
X39159405Y-66676913D01*
X45673326Y-58658764D02*
X45646748Y-58670780D01*
X42078732Y-67303850D02*
X42099569Y-67283983D01*
X45649211Y-63734979D02*
X45634764Y-63760105D01*
X37024695Y-62340528D02*
X37047361Y-62322715D01*
X46567364Y-61002788D02*
X46537817Y-61008065D01*
X41134471Y-57119859D02*
X41147721Y-57145730D01*
X39550289Y-65835682D02*
X39537039Y-65809811D01*
X42268392Y-56768363D02*
X42263115Y-56738816D01*
X44215637Y-56901574D02*
X44186090Y-56896297D01*
X46508789Y-62176982D02*
X46537817Y-62183682D01*
X37089970Y-62283990D02*
X37109837Y-62263153D01*
X46759247Y-63984753D02*
X46755432Y-63954726D01*
X44538846Y-57892807D02*
X44557704Y-57871036D01*
X46892285Y-61043026D02*
X46865038Y-61032283D01*
X44575516Y-57130395D02*
X44557704Y-57107729D01*
X43531123Y-57283084D02*
X43521690Y-57310962D01*
X37576701Y-63752763D02*
X37550830Y-63739513D01*
X37878516Y-64401264D02*
X37883792Y-64371718D01*
X43944766Y-58070491D02*
X43973795Y-58077191D01*
X39320577Y-58136786D02*
X39344921Y-58121179D01*
X45122905Y-65799776D02*
X45114820Y-65771304D01*
X43513605Y-57339434D02*
X43506905Y-57368462D01*
X46643147Y-63687112D02*
X46625335Y-63664445D01*
X37863731Y-59617532D02*
X37871816Y-59589060D01*
X45409344Y-58876147D02*
X45393738Y-58900491D01*
X45462743Y-58808187D02*
X45443885Y-58829958D01*
X39453587Y-66499229D02*
X39472445Y-66477458D01*
X37440655Y-60020221D02*
X37469127Y-60012136D01*
X39100829Y-58216737D02*
X39130376Y-58211460D01*
X45307655Y-59180736D02*
X45306874Y-59211611D01*
X41961301Y-66332139D02*
X41935430Y-66318889D01*
X47083003Y-61171611D02*
X47062165Y-61151744D01*
X38412553Y-57684998D02*
X38416368Y-57715025D01*
X45937748Y-59810829D02*
X45968219Y-59808512D01*
X44687801Y-57580755D02*
X44691616Y-57550728D01*
X39522592Y-57934772D02*
X39537039Y-57909646D01*
X41675305Y-69359728D02*
X41675305Y-69359728D01*
X38650466Y-65615005D02*
X38627800Y-65632817D01*
X46506875Y-59211611D02*
X46506094Y-59180736D01*
X39215756Y-66659395D02*
X39243003Y-66648652D01*
X38546466Y-57241998D02*
X38528654Y-57264664D01*
X46779659Y-61008065D02*
X46750112Y-61002788D01*
X36487284Y-62432752D02*
X36515756Y-62440837D01*
X38749331Y-57082820D02*
X38723460Y-57096071D01*
X44405837Y-56976248D02*
X44380711Y-56961801D01*
X46565772Y-63601970D02*
X46544002Y-63583112D01*
X46195750Y-61214220D02*
X46177938Y-61236886D01*
X46145603Y-61284753D02*
X46131156Y-61309880D01*
X37128695Y-61478075D02*
X37109837Y-61456304D01*
X37878516Y-64159425D02*
X37871816Y-64130396D01*
X39597266Y-57744572D02*
X39602542Y-57715025D01*
X41231174Y-57263160D02*
X41251041Y-57283998D01*
X45906872Y-58611613D02*
X45906872Y-58611613D01*
X39602542Y-66004431D02*
X39597266Y-65974885D01*
X46658738Y-62195872D02*
X46689614Y-62195091D01*
X36887279Y-63836216D02*
X36866442Y-63856082D01*
X46761564Y-64015224D02*
X46759247Y-63984753D01*
X37497006Y-58875522D02*
X37469127Y-58866089D01*
X44541794Y-66549723D02*
X44541794Y-66549723D01*
X38650466Y-66576604D02*
X38673990Y-66593332D01*
X36690705Y-64280344D02*
X36691486Y-64311220D01*
X41231174Y-66456296D02*
X41212315Y-66478067D01*
X44694714Y-57489382D02*
X44694714Y-57489382D01*
X45366040Y-58951488D02*
X45354025Y-58978066D01*
X41075305Y-56859736D02*
X41075305Y-56859736D01*
X36693803Y-64218998D02*
X36691486Y-64249469D01*
X42034295Y-66378921D02*
X42010771Y-66362193D01*
X36066486Y-61890604D02*
X36068803Y-61921074D01*
X38723460Y-65568223D02*
X38698334Y-65582671D01*
X36112856Y-62093274D02*
X36124872Y-62119851D01*
X39590566Y-65945857D02*
X39582481Y-65917384D01*
X41076085Y-56890612D02*
X41078402Y-56921082D01*
X46217995Y-59724745D02*
X46242339Y-59709139D01*
X46242339Y-58714084D02*
X46217995Y-58698477D01*
X37524253Y-64833192D02*
X37550830Y-64821176D01*
X46310300Y-59655740D02*
X46331138Y-59635873D01*
X41736652Y-66262820D02*
X41706181Y-66260503D01*
X41316315Y-56378937D02*
X41293649Y-56396749D01*
X45595752Y-58698477D02*
X45571408Y-58714084D01*
X36737856Y-59205567D02*
X36727113Y-59232814D01*
X45983925Y-64619123D02*
X46012397Y-64627208D01*
X38410236Y-66126680D02*
X38412553Y-66157151D01*
X37649695Y-63799545D02*
X37626171Y-63782817D01*
X44966059Y-65525463D02*
X44945221Y-65505596D01*
X37128695Y-62241382D02*
X37146507Y-62218716D01*
X45354025Y-59445157D02*
X45366040Y-59471734D01*
X46506094Y-59242487D02*
X46506875Y-59211611D01*
X38409455Y-57623652D02*
X38410236Y-57654528D01*
X36872006Y-62423319D02*
X36899253Y-62412576D01*
X37262608Y-61798382D02*
X37258792Y-61768355D01*
X43521690Y-57667802D02*
X43531123Y-57695681D01*
X36066486Y-61828853D02*
X36065705Y-61859728D01*
X38565325Y-57220228D02*
X38546466Y-57241998D01*
X36763122Y-64566338D02*
X36777569Y-64591464D01*
X43506905Y-57368462D02*
X43501629Y-57398009D01*
X45906872Y-59811610D02*
X45906872Y-59811610D01*
X45983925Y-63473076D02*
X45956046Y-63482509D01*
X45105387Y-66156023D02*
X45114820Y-66128145D01*
X39609456Y-66095805D02*
X39609456Y-66095805D01*
X44557704Y-57107729D02*
X44538846Y-57085958D01*
X36168176Y-62195192D02*
X36184904Y-62218716D01*
X44044265Y-66285188D02*
X44060993Y-66308712D01*
X44852916Y-66462859D02*
X44877260Y-66447252D01*
X38416368Y-57715025D02*
X38421645Y-57744572D01*
X39187877Y-66668828D02*
X39215756Y-66659395D01*
X38528654Y-65736817D02*
X38511926Y-65760341D01*
X36574332Y-62452813D02*
X36604359Y-62456629D01*
X37788235Y-59103648D02*
X37771507Y-59080125D01*
X41389309Y-67387302D02*
X41415180Y-67400552D01*
X36138122Y-62145722D02*
X36152569Y-62170848D01*
X45589323Y-63867679D02*
X45581237Y-63896151D01*
X39009455Y-66695803D02*
X39040331Y-66695022D01*
X45343282Y-59005313D02*
X45333849Y-59033191D01*
X37140756Y-64861453D02*
X37169785Y-64868153D01*
X46761564Y-64076975D02*
X46762345Y-64046099D01*
X37084406Y-60002703D02*
X37112284Y-60012136D01*
X37734837Y-63876920D02*
X37714970Y-63856082D01*
X39368445Y-66576604D02*
X39391111Y-66558792D01*
X46420010Y-58900491D02*
X46404403Y-58876147D01*
X41147721Y-66573727D02*
X41134471Y-66599598D01*
X38749331Y-58164484D02*
X38775909Y-58176499D01*
X37290705Y-64880343D02*
X37321581Y-64879562D01*
X36931716Y-64761144D02*
X36955240Y-64777872D01*
X37146507Y-61500741D02*
X37128695Y-61478075D01*
X46448342Y-64573681D02*
X46473468Y-64559233D01*
X41364183Y-56346602D02*
X41339839Y-56362208D01*
X39453587Y-58027076D02*
X39472445Y-58005306D01*
X38775909Y-57070805D02*
X38749331Y-57082820D01*
X38546466Y-58005306D02*
X38565325Y-58027076D01*
X43713060Y-57952369D02*
X43735726Y-57970182D01*
X44827790Y-65422143D02*
X44801919Y-65408893D01*
X37550830Y-59979944D02*
X37576701Y-59966694D01*
X39590566Y-66245753D02*
X39597266Y-66216725D01*
X43553882Y-57229259D02*
X43541866Y-57255837D01*
X38445863Y-66302103D02*
X38456606Y-66329350D01*
X38416368Y-66187178D02*
X38421645Y-66216725D01*
X46808687Y-61014765D02*
X46779659Y-61008065D01*
X46479900Y-59033191D02*
X46470467Y-59005313D01*
X43953984Y-66070645D02*
X43960684Y-66099673D01*
X45134881Y-65858351D02*
X45129605Y-65828805D01*
X36909050Y-58976125D02*
X36887279Y-58994983D01*
X39009455Y-65495806D02*
X38978579Y-65496587D01*
X46689614Y-60996656D02*
X46658738Y-60995875D01*
X45569261Y-64137472D02*
X45574538Y-64167019D01*
X38673990Y-65598277D02*
X38650466Y-65615005D01*
X36737856Y-64046799D02*
X36727113Y-64074046D01*
X37626171Y-58941585D02*
X37601827Y-58925978D01*
X24407822Y-69359728D02*
X41675305Y-69359728D01*
X36793176Y-64615808D02*
X36809904Y-64639332D01*
X44301016Y-56925792D02*
X44273137Y-56916359D01*
X44014211Y-65663731D02*
X44000960Y-65689602D01*
X38606029Y-66539934D02*
X38627800Y-66558792D01*
X45563129Y-64076975D02*
X45565446Y-64107445D01*
X46012397Y-63464990D02*
X45983925Y-63473076D01*
X43650584Y-57892807D02*
X43670451Y-57913644D01*
X39490257Y-57264664D02*
X39472445Y-57241998D01*
X43968769Y-66128145D02*
X43978202Y-66156023D01*
X46508789Y-61014765D02*
X46480317Y-61022850D01*
X44827790Y-66477306D02*
X44852916Y-66462859D01*
X47222332Y-61389575D02*
X47211589Y-61362328D01*
X46422471Y-63505267D02*
X46395893Y-63493252D01*
X44923450Y-65486737D02*
X44900784Y-65468925D01*
X37601827Y-58925978D02*
X37576701Y-58911531D01*
X41339839Y-56362208D02*
X41316315Y-56378937D01*
X39590566Y-57773600D02*
X39597266Y-57744572D01*
X36976827Y-62372862D02*
X37001171Y-62357256D01*
X41675305Y-56259737D02*
X41675305Y-56259737D01*
X37694132Y-63836216D02*
X37672361Y-63817357D01*
X47139541Y-61236886D02*
X47121728Y-61214220D01*
X44694714Y-57489382D02*
X44694714Y-57489382D01*
X43631726Y-57107729D02*
X43613914Y-57130395D01*
X37672361Y-59902099D02*
X37694132Y-59883241D01*
X36777569Y-64591464D02*
X36793176Y-64615808D01*
X37259829Y-58839894D02*
X37229359Y-58842211D01*
X46762345Y-64046099D02*
X46762345Y-64046099D01*
X38859506Y-66676913D02*
X38888535Y-66683613D01*
X38421645Y-57502732D02*
X38416368Y-57532279D01*
X37258792Y-61951102D02*
X37262608Y-61921074D01*
X39243003Y-65542957D02*
X39215756Y-65532214D01*
X37352052Y-60036013D02*
X37382079Y-60032197D01*
X45928799Y-63493252D02*
X45902222Y-63505267D01*
X37199332Y-58846027D02*
X37169785Y-58851304D01*
X45738083Y-63621837D02*
X45718216Y-63642675D01*
X42238897Y-56653437D02*
X42228154Y-56626190D01*
X36693803Y-59500458D02*
X36697618Y-59530485D01*
X39344921Y-65598277D02*
X39320577Y-65582671D01*
X37469127Y-63707321D02*
X37440655Y-63699236D01*
X41469005Y-57423326D02*
X41496883Y-57432759D01*
X43713060Y-57026395D02*
X43691289Y-57045253D01*
X46234475Y-61171611D02*
X46214608Y-61192449D01*
X38585192Y-66520067D02*
X38606029Y-66539934D01*
X46658738Y-62195872D02*
X46658738Y-62195872D01*
X41908852Y-57412583D02*
X41935430Y-57400568D01*
X37771507Y-63921357D02*
X37753695Y-63898691D01*
X37262608Y-61921074D02*
X37264925Y-61890604D01*
X38749331Y-66636636D02*
X38775909Y-66648652D01*
X45141795Y-65949725D02*
X45141795Y-65949725D01*
X43861168Y-56936535D02*
X43834591Y-56948551D01*
X36284050Y-61396741D02*
X36262279Y-61415599D01*
X47017728Y-62076673D02*
X47040395Y-62058860D01*
X46234475Y-62020135D02*
X46255313Y-62040002D01*
X45906872Y-58611613D02*
X45875997Y-58612393D01*
X44572670Y-66548942D02*
X44603141Y-66546625D01*
X45574538Y-63925179D02*
X45569261Y-63954726D01*
X41525355Y-57440845D02*
X41554384Y-57447544D01*
X46703179Y-64306222D02*
X46715194Y-64279645D01*
X39602542Y-57715025D02*
X39606358Y-57684998D01*
X36241442Y-62283990D02*
X36262279Y-62303857D01*
X38511926Y-57288188D02*
X38496319Y-57312532D01*
X44328263Y-56936535D02*
X44301016Y-56925792D01*
X44097663Y-66353149D02*
X44117530Y-66373987D01*
X37321581Y-64879562D02*
X37352052Y-64877245D01*
X46452438Y-62159464D02*
X46480317Y-62168897D01*
X37004710Y-63752763D02*
X36979584Y-63767210D01*
X39009455Y-57023653D02*
X39009455Y-57023653D01*
X41147721Y-67145714D02*
X41162169Y-67170841D01*
X36693803Y-64341690D02*
X36697618Y-64371718D01*
X46288529Y-59674598D02*
X46310300Y-59655740D01*
X37178842Y-62170848D02*
X37193289Y-62145722D01*
X44380711Y-58016964D02*
X44405837Y-58002516D01*
X36102113Y-61653430D02*
X36092680Y-61681308D01*
X39368445Y-57142853D02*
X39344921Y-57126124D01*
X47083003Y-62020135D02*
X47102870Y-61999298D01*
X45998247Y-59804696D02*
X46027793Y-59799420D01*
X41339839Y-57357263D02*
X41364183Y-57372870D01*
X44541794Y-65349726D02*
X44510918Y-65350507D01*
X37878516Y-59560032D02*
X37883792Y-59530485D01*
X36827716Y-59820766D02*
X36846575Y-59842537D01*
X44647563Y-57255837D02*
X44635548Y-57229259D01*
X44748095Y-65386134D02*
X44720216Y-65376701D01*
X46994204Y-61098346D02*
X46969860Y-61082739D01*
X46597391Y-62192774D02*
X46627862Y-62195091D01*
X38723460Y-57096071D02*
X38698334Y-57110518D01*
X37411626Y-64868153D02*
X37440655Y-64861453D01*
X44335494Y-66513315D02*
X44363373Y-66522748D01*
X41102279Y-56681316D02*
X41094194Y-56709788D01*
X36955240Y-58941585D02*
X36931716Y-58958313D01*
X44206328Y-65452197D02*
X44182804Y-65468925D01*
X36691486Y-59469988D02*
X36693803Y-59500458D01*
X46779659Y-62183682D02*
X46808687Y-62176982D01*
X38606029Y-57179523D02*
X38585192Y-57199390D01*
X41162169Y-66548601D02*
X41147721Y-66573727D01*
X39159405Y-66676913D02*
X39187877Y-66668828D01*
X46162346Y-63446101D02*
X46162346Y-63446101D01*
X46105890Y-61829419D02*
X46117906Y-61855996D01*
X37440655Y-64861453D02*
X37469127Y-64853368D01*
X41825254Y-57440845D02*
X41853727Y-57432759D01*
X37854298Y-64074046D02*
X37843555Y-64046799D01*
X36077895Y-61738808D02*
X36072618Y-61768355D01*
X36459406Y-61296138D02*
X36432159Y-61306881D01*
X37382079Y-64873430D02*
X37411626Y-64868153D01*
X45313787Y-59120238D02*
X45309972Y-59150265D01*
X38416368Y-57532279D02*
X38412553Y-57562306D01*
X42248331Y-56681316D02*
X42238897Y-56653437D01*
X46340768Y-63473076D02*
X46312296Y-63464990D01*
X36152569Y-61548608D02*
X36138122Y-61573735D01*
X39472445Y-58005306D02*
X39490257Y-57982640D01*
X44000960Y-66209848D02*
X44014211Y-66235718D01*
X44060993Y-65590737D02*
X44044265Y-65614261D01*
X38528654Y-66454792D02*
X38546466Y-66477458D01*
X36786626Y-61271920D02*
X36757079Y-61266643D01*
X43521690Y-57310962D02*
X43513605Y-57339434D01*
X44682524Y-57610302D02*
X44687801Y-57580755D01*
X37109837Y-61456304D02*
X37089970Y-61435466D01*
X44687801Y-57398009D02*
X44682524Y-57368462D01*
X46192869Y-59739193D02*
X46217995Y-59724745D01*
X41094194Y-67009669D02*
X41102279Y-67038141D01*
X39100829Y-65502720D02*
X39070802Y-65498904D01*
X45681546Y-63687112D02*
X45664818Y-63710635D01*
X37057159Y-58886265D02*
X37030581Y-58898280D01*
X41087494Y-66980641D02*
X41094194Y-67009669D01*
X39100829Y-66688890D02*
X39130376Y-66683613D01*
X36815655Y-61278620D02*
X36786626Y-61271920D01*
X37672361Y-64743332D02*
X37694132Y-64724473D01*
X46725937Y-63839801D02*
X46715194Y-63812554D01*
X45826881Y-63548572D02*
X45803357Y-63565300D01*
X45595752Y-59724745D02*
X45620878Y-59739193D01*
X45718216Y-64449524D02*
X45738083Y-64470361D01*
X46586610Y-64470361D02*
X46606477Y-64449524D01*
X41194503Y-57218723D02*
X41212315Y-57241390D01*
X39412882Y-57179523D02*
X39391111Y-57160665D01*
X42202889Y-66573727D02*
X42188441Y-66548601D01*
X42156107Y-56500748D02*
X42138294Y-56478082D01*
X44572670Y-65350507D02*
X44541794Y-65349726D01*
X45758920Y-64490228D02*
X45780691Y-64509086D01*
X39453587Y-65692380D02*
X39433720Y-65671543D01*
X39040331Y-57024434D02*
X39009455Y-57023653D01*
X43834591Y-58030214D02*
X43861168Y-58042229D01*
X46395893Y-64598946D02*
X46422471Y-64586931D01*
X47102870Y-61192449D02*
X47083003Y-61171611D01*
X38585192Y-65671543D02*
X38565325Y-65692380D01*
X38481872Y-65809811D02*
X38468622Y-65835682D01*
X46659875Y-64381563D02*
X46675481Y-64357219D01*
X36727052Y-62456629D02*
X36757079Y-62452813D01*
X39506985Y-57288188D02*
X39490257Y-57264664D01*
X43916294Y-56916359D02*
X43888415Y-56925792D01*
X37258792Y-61768355D02*
X37253516Y-61738808D01*
X43944892Y-66011071D02*
X43948707Y-66041098D01*
X42263115Y-56980656D02*
X42268392Y-56951109D01*
X37803842Y-59127992D02*
X37788235Y-59103648D01*
X43497813Y-57550728D02*
X43501629Y-57580755D01*
X37229298Y-62066027D02*
X37238731Y-62038149D01*
X36306716Y-61378929D02*
X36284050Y-61396741D01*
X39130376Y-58211460D02*
X39159405Y-58204761D01*
X39412882Y-58067781D02*
X39433720Y-58047914D01*
X45426072Y-58852624D02*
X45409344Y-58876147D01*
X43942575Y-65918849D02*
X43941794Y-65949725D01*
X43948707Y-65858351D02*
X43944892Y-65888379D01*
X37672361Y-58976125D02*
X37649695Y-58958313D01*
X44592244Y-57824846D02*
X44607851Y-57800502D01*
X36544785Y-62447537D02*
X36574332Y-62452813D01*
X39187877Y-65522781D02*
X39159405Y-65514696D01*
X45004784Y-65568071D02*
X44985926Y-65546300D01*
X45569261Y-63954726D02*
X45565446Y-63984753D01*
X46340768Y-64619123D02*
X46368647Y-64609690D01*
X41415180Y-67400552D02*
X41441758Y-67412568D01*
X41078402Y-56921082D02*
X41082218Y-56951109D01*
X44033369Y-58086283D02*
X44063840Y-58088600D01*
X36065705Y-61859728D02*
X36065705Y-61859728D01*
X37649695Y-64761144D02*
X37672361Y-64743332D01*
X41986427Y-57372870D02*
X42010771Y-57357263D01*
X46398614Y-62136705D02*
X46425191Y-62148721D01*
X39608675Y-66064929D02*
X39606358Y-66034459D01*
X37803842Y-63969225D02*
X37788235Y-63944881D01*
X42188441Y-67170841D02*
X42202889Y-67145714D01*
X37265706Y-61859728D02*
X37265706Y-61859728D01*
X44498142Y-57045253D02*
X44476371Y-57026395D01*
X44662715Y-65361916D02*
X44633169Y-65356640D01*
X37863731Y-64101924D02*
X37854298Y-64074046D01*
X45581237Y-64196047D02*
X45589323Y-64224519D01*
X46969860Y-62109007D02*
X46994204Y-62093401D01*
X46070929Y-61716793D02*
X46077629Y-61745821D01*
X41736652Y-57456637D02*
X41766679Y-57452821D01*
X44518979Y-57065120D02*
X44498142Y-57045253D01*
X45851225Y-64559233D02*
X45876351Y-64573681D01*
X41825254Y-67440829D02*
X41853727Y-67432744D01*
X45621514Y-64306222D02*
X45634764Y-64332093D01*
X45307655Y-59242487D02*
X45309972Y-59272957D01*
X47258740Y-61595873D02*
X47257959Y-61564998D01*
X41496883Y-66286697D02*
X41469005Y-66296130D01*
X42268392Y-66951094D02*
X42272208Y-66921067D01*
X38409455Y-57623652D02*
X38409455Y-57623652D01*
X43613914Y-57848370D02*
X43631726Y-57871036D01*
X45094644Y-66183270D02*
X45105387Y-66156023D01*
X39433720Y-58047914D02*
X39453587Y-58027076D01*
X41094194Y-56709788D02*
X41087494Y-56738816D01*
X37259829Y-60038330D02*
X37290705Y-60039111D01*
X36379710Y-61332147D02*
X36354584Y-61346594D01*
X46113173Y-58648021D02*
X46085294Y-58638588D01*
X46177938Y-61236886D02*
X46161210Y-61260410D01*
X46177938Y-61954861D02*
X46195750Y-61977527D01*
X41675305Y-57459734D02*
X41675305Y-57459734D01*
X37734837Y-59035688D02*
X37714970Y-59014850D01*
X45845526Y-58614711D02*
X45815499Y-58618526D01*
X41961301Y-56332155D02*
X41935430Y-56318904D01*
X39368445Y-58104451D02*
X39391111Y-58086639D01*
X37253516Y-61738808D02*
X37246816Y-61709780D01*
X37871816Y-59289164D02*
X37863731Y-59260692D01*
X37887608Y-64218998D02*
X37883792Y-64188971D01*
X41076085Y-66890596D02*
X41078402Y-66921067D01*
X44138368Y-66393853D02*
X44160138Y-66412712D01*
X38428345Y-66245753D02*
X38436430Y-66274225D01*
X39562305Y-65862259D02*
X39550289Y-65835682D01*
X47222332Y-61802172D02*
X47231765Y-61774294D01*
X36459406Y-62423319D02*
X36487284Y-62432752D01*
X44658307Y-57283084D02*
X44647563Y-57255837D01*
X39562305Y-66329350D02*
X39573048Y-66302103D01*
X41736652Y-56262835D02*
X41706181Y-56260518D01*
X37524253Y-59991959D02*
X37550830Y-59979944D01*
X38918082Y-65502720D02*
X38888535Y-65507996D01*
X39606358Y-66034459D02*
X39602542Y-66004431D01*
X39506985Y-57959116D02*
X39522592Y-57934772D01*
X38412553Y-66157151D02*
X38416368Y-66187178D01*
X44391845Y-66530833D02*
X44420873Y-66537533D01*
X41293649Y-57322723D02*
X41316315Y-57340535D01*
X41122456Y-57093281D02*
X41134471Y-57119859D01*
X37440655Y-58858003D02*
X37411626Y-58851304D01*
X39070802Y-57026751D02*
X39040331Y-57024434D01*
X41675305Y-16250651D02*
X41675305Y-16250651D01*
X41162169Y-67170841D02*
X41177775Y-67195184D01*
X41212315Y-66478067D02*
X41194503Y-66500733D01*
X46750112Y-61002788D02*
X46720084Y-60998973D01*
X41082218Y-56768363D02*
X41078402Y-56798390D01*
X42238897Y-67066019D02*
X42248331Y-67038141D01*
X41293649Y-66396733D02*
X41271878Y-66415592D01*
X45022596Y-66308712D02*
X45039324Y-66285188D01*
X38410236Y-57654528D02*
X38412553Y-57684998D01*
X45562348Y-64046099D02*
X45562348Y-64046099D01*
X47251827Y-61504500D02*
X47246550Y-61474953D01*
X36168176Y-61524265D02*
X36152569Y-61548608D01*
X41796226Y-67447529D02*
X41825254Y-67440829D01*
X43888415Y-58052973D02*
X43916294Y-58062406D01*
X45409344Y-59547075D02*
X45426072Y-59570599D01*
X41675305Y-66259722D02*
X41675305Y-66259722D01*
X38978579Y-65496587D02*
X38948109Y-65498904D01*
X44160138Y-66412712D02*
X44182804Y-66430524D01*
X36124872Y-62119851D02*
X36138122Y-62145722D01*
X46422471Y-64586931D02*
X46448342Y-64573681D01*
X36846575Y-59842537D02*
X36866442Y-59863374D01*
X44363373Y-65376701D02*
X44335494Y-65386134D01*
X36786626Y-62447537D02*
X36815655Y-62440837D01*
X47257959Y-61626749D02*
X47258740Y-61595873D01*
X38775909Y-65542957D02*
X38749331Y-65554973D01*
X46312296Y-64627208D02*
X46340768Y-64619123D01*
X37030581Y-64821176D02*
X37057159Y-64833192D01*
X44541794Y-66549723D02*
X44572670Y-66548942D01*
X41231174Y-67263145D02*
X41251041Y-67283983D01*
X46537817Y-62183682D02*
X46567364Y-62188958D01*
X41389309Y-56332155D02*
X41364183Y-56346602D01*
X38412553Y-57562306D02*
X38410236Y-57592776D01*
X36749872Y-59178989D02*
X36737856Y-59205567D01*
X38803156Y-57060061D02*
X38775909Y-57070805D01*
X36866442Y-59014850D02*
X36846575Y-59035688D01*
X44675825Y-57639330D02*
X44682524Y-57610302D01*
X46658738Y-60995875D02*
X46658738Y-60995875D01*
X36544785Y-61271920D02*
X36515756Y-61278620D01*
X44078805Y-65568071D02*
X44060993Y-65590737D01*
X36951701Y-62387310D02*
X36976827Y-62372862D01*
X37047361Y-62322715D02*
X37069132Y-62303857D01*
X46918863Y-62136705D02*
X46944734Y-62123455D01*
X46369863Y-59593265D02*
X46387675Y-59570599D01*
X42099569Y-67283983D02*
X42119436Y-67263145D01*
X41986427Y-67372855D02*
X42010771Y-67357248D01*
X41212315Y-56478082D02*
X41194503Y-56500748D01*
X38468622Y-57363529D02*
X38456606Y-57390107D01*
X46503777Y-59272957D02*
X46506094Y-59242487D01*
X46892285Y-62148721D02*
X46918863Y-62136705D01*
X45393738Y-59522731D02*
X45409344Y-59547075D01*
X45141014Y-65980600D02*
X45141795Y-65949725D01*
X38410236Y-66064929D02*
X38409455Y-66095805D01*
X45022596Y-65590737D02*
X45004784Y-65568071D01*
X46944734Y-61068292D02*
X46918863Y-61055042D01*
X47258740Y-61595873D02*
X47258740Y-61595873D01*
X45956046Y-64609690D02*
X45983925Y-64619123D01*
X46459723Y-58978066D02*
X46447708Y-58951488D01*
X37854298Y-59232814D02*
X37843555Y-59205567D01*
X47211589Y-61829419D02*
X47222332Y-61802172D01*
X37229359Y-64877245D02*
X37259829Y-64879562D01*
X47246550Y-61716793D02*
X47251827Y-61687247D01*
X42256416Y-57009684D02*
X42263115Y-56980656D01*
X47255642Y-61657219D02*
X47257959Y-61626749D01*
X44453705Y-57008583D02*
X44430181Y-56991855D01*
X41177775Y-56524272D02*
X41162169Y-56548616D01*
X36092680Y-61681308D02*
X36084595Y-61709780D01*
X45094644Y-65716179D02*
X45082628Y-65689602D01*
X46253721Y-63453014D02*
X46223693Y-63449198D01*
X46494685Y-59332531D02*
X46499961Y-59302984D01*
X44691616Y-57428036D02*
X44687801Y-57398009D01*
X39433720Y-57199390D02*
X39412882Y-57179523D01*
X39215756Y-65532214D02*
X39187877Y-65522781D01*
X37057159Y-64833192D02*
X37084406Y-64843935D01*
X37753695Y-59057458D02*
X37734837Y-59035688D01*
X39391111Y-57160665D02*
X39368445Y-57142853D01*
X45309972Y-59150265D02*
X45307655Y-59180736D01*
X37788235Y-64615808D02*
X37803842Y-64591464D01*
X45571408Y-58714084D02*
X45547884Y-58730812D01*
X45571408Y-59709139D02*
X45595752Y-59724745D01*
X44003341Y-58082467D02*
X44033369Y-58086283D01*
X41986427Y-66346587D02*
X41961301Y-66332139D01*
X36690705Y-59439112D02*
X36690705Y-59439112D01*
X36717680Y-59617532D02*
X36727113Y-59645411D01*
X47139541Y-61954861D02*
X47156269Y-61931337D01*
X39040331Y-65496587D02*
X39009455Y-65495806D01*
X44003341Y-56896297D02*
X43973795Y-56901574D01*
X37854298Y-64486643D02*
X37863731Y-64458765D01*
X43670451Y-57913644D02*
X43691289Y-57933511D01*
X41525355Y-56278627D02*
X41496883Y-56286712D01*
X46398614Y-61055042D02*
X46372743Y-61068292D01*
X36727113Y-64074046D02*
X36717680Y-64101924D01*
X36691486Y-64311220D02*
X36693803Y-64341690D01*
X38456606Y-65862259D02*
X38445863Y-65889506D01*
X36979584Y-58925978D02*
X36955240Y-58941585D01*
X42256416Y-66709773D02*
X42248331Y-66681300D01*
X42172835Y-66524257D02*
X42156107Y-66500733D01*
X46503777Y-59150265D02*
X46499961Y-59120238D01*
X45700573Y-58648021D02*
X45673326Y-58658764D01*
X41961301Y-67387302D02*
X41986427Y-67372855D01*
X38978579Y-58222870D02*
X39009455Y-58223650D01*
X36757079Y-61266643D02*
X36727052Y-61262828D01*
X36777569Y-59750232D02*
X36793176Y-59774576D01*
X45646748Y-58670780D02*
X45620878Y-58684030D01*
X44575516Y-57848370D02*
X44592244Y-57824846D01*
X36979584Y-64793479D02*
X37004710Y-64807926D01*
X42228154Y-56626190D02*
X42216139Y-56599613D01*
X38468622Y-57883775D02*
X38481872Y-57909646D01*
X41496883Y-67432744D02*
X41525355Y-67440829D01*
X36749872Y-59699235D02*
X36763122Y-59725106D01*
X37469127Y-60012136D02*
X37497006Y-60002703D01*
X36112856Y-61626183D02*
X36102113Y-61653430D01*
X39609456Y-66095805D02*
X39608675Y-66064929D01*
X38650466Y-57142853D02*
X38627800Y-57160665D01*
X37601827Y-64793479D02*
X37626171Y-64777872D01*
X36697618Y-59347739D02*
X36693803Y-59377766D01*
X38436430Y-57802072D02*
X38445863Y-57829951D01*
X36665705Y-62459727D02*
X36696581Y-62458946D01*
X38456606Y-57390107D02*
X38445863Y-57417353D01*
X37089970Y-61435466D02*
X37069132Y-61415599D01*
X46192869Y-58684030D02*
X46166998Y-58670780D01*
X42119436Y-66456296D02*
X42099569Y-66435459D01*
X37069132Y-61415599D02*
X37047361Y-61396741D01*
X45319064Y-59090691D02*
X45313787Y-59120238D01*
X39606358Y-66157151D02*
X39608675Y-66126680D01*
X46497812Y-64543627D02*
X46521336Y-64526898D01*
X38698334Y-65582671D02*
X38673990Y-65598277D01*
X46837160Y-61022850D02*
X46808687Y-61014765D01*
X41706181Y-67458938D02*
X41736652Y-67456621D01*
X38831034Y-57050628D02*
X38803156Y-57060061D01*
X38410236Y-57592776D02*
X38409455Y-57623652D01*
X37734837Y-59842537D02*
X37753695Y-59820766D01*
X46625335Y-64427753D02*
X46643147Y-64405087D01*
X41271878Y-56415607D02*
X41251041Y-56435474D01*
X37218555Y-62093274D02*
X37229298Y-62066027D01*
X41935430Y-56318904D02*
X41908852Y-56306889D01*
X36727113Y-59232814D02*
X36717680Y-59260692D01*
X46395893Y-63493252D02*
X46368647Y-63482509D01*
X41339839Y-66362193D02*
X41316315Y-66378921D01*
X45756924Y-59792720D02*
X45785952Y-59799420D01*
X36690705Y-59439112D02*
X36691486Y-59469988D01*
X37047361Y-61396741D02*
X37024695Y-61378929D01*
X37714970Y-59863374D02*
X37734837Y-59842537D01*
X36084595Y-62009676D02*
X36092680Y-62038149D01*
X37411626Y-60026921D02*
X37440655Y-60020221D01*
X37169785Y-58851304D02*
X37140756Y-58858003D01*
X46755432Y-64137472D02*
X46759247Y-64107445D01*
X46105890Y-61362328D02*
X46095147Y-61389575D01*
X46131156Y-61881867D02*
X46145603Y-61906993D01*
X46162346Y-64646098D02*
X46162346Y-64646098D01*
X45443885Y-58829958D02*
X45426072Y-58852624D01*
X37199332Y-63687259D02*
X37169785Y-63692536D01*
X36925830Y-62400560D02*
X36951701Y-62387310D01*
X42188441Y-56548616D02*
X42172835Y-56524272D01*
X44328263Y-58042229D02*
X44354840Y-58030214D01*
X46372743Y-61068292D02*
X46347617Y-61082739D01*
X46351005Y-58808187D02*
X46331138Y-58787349D01*
X44450420Y-65356640D02*
X44420873Y-65361916D01*
X38456606Y-66329350D02*
X38468622Y-66355928D01*
X46762345Y-64046099D02*
X46762345Y-64046099D01*
X41986427Y-56346602D02*
X41961301Y-56332155D01*
X42272208Y-56798390D02*
X42268392Y-56768363D01*
X39609456Y-66095805D02*
X39609456Y-66095805D01*
X43494715Y-57489382D02*
X43495496Y-57520258D01*
X46735370Y-64224519D02*
X46743455Y-64196047D01*
X45845526Y-59808512D02*
X45875997Y-59810829D01*
X47186323Y-61881867D02*
X47199573Y-61855996D01*
X38723460Y-66623386D02*
X38749331Y-66636636D01*
X46193222Y-64645317D02*
X46223693Y-64643000D01*
X36909050Y-63817357D02*
X36887279Y-63836216D01*
X45574538Y-64167019D02*
X45581237Y-64196047D01*
X42228154Y-66626175D02*
X42216139Y-66599598D01*
X41102279Y-66681300D02*
X41094194Y-66709773D01*
X38416368Y-66004431D02*
X38412553Y-66034459D01*
X46101000Y-64643000D02*
X46131470Y-64645317D01*
X37382079Y-58846027D02*
X37352052Y-58842211D01*
X37140756Y-58858003D02*
X37112284Y-58866089D01*
X36899253Y-62412576D02*
X36925830Y-62400560D01*
X42188441Y-57170856D02*
X42202889Y-57145730D01*
X46567364Y-62188958D02*
X46597391Y-62192774D01*
X44748095Y-66513315D02*
X44775342Y-66502572D01*
X42156107Y-66500733D02*
X42138294Y-66478067D01*
X37843555Y-59205567D02*
X37831539Y-59178989D01*
X44480448Y-65352824D02*
X44450420Y-65356640D01*
X46085294Y-58638588D02*
X46056822Y-58630502D01*
X38468622Y-65835682D02*
X38456606Y-65862259D01*
X39562305Y-57390107D02*
X39550289Y-57363529D01*
X41251041Y-57283998D02*
X41271878Y-57303865D01*
X38496319Y-57934772D02*
X38511926Y-57959116D01*
X41766679Y-67452806D02*
X41796226Y-67447529D01*
X46277083Y-61132886D02*
X46255313Y-61151744D01*
X36777569Y-63969225D02*
X36763122Y-63994351D01*
X37803842Y-64591464D02*
X37818289Y-64566338D01*
X37890706Y-64280344D02*
X37890706Y-64280344D01*
X44607851Y-57178262D02*
X44592244Y-57153918D01*
X41271878Y-57303865D02*
X41293649Y-57322723D01*
X41935430Y-67400552D02*
X41961301Y-67387302D01*
X39453587Y-57220228D02*
X39433720Y-57199390D01*
X37265706Y-61859728D02*
X37265706Y-61859728D01*
X45620878Y-59739193D02*
X45646748Y-59752443D01*
X44667739Y-57667802D02*
X44675825Y-57639330D01*
X37694132Y-64724473D02*
X37714970Y-64704606D01*
X38481872Y-57909646D02*
X38496319Y-57934772D01*
X46473468Y-64559233D02*
X46497812Y-64543627D01*
X44900784Y-65468925D02*
X44877260Y-65452197D01*
X38428345Y-57773600D02*
X38436430Y-57802072D01*
X41177775Y-66524257D02*
X41162169Y-66548601D01*
X37290705Y-60039111D02*
X37321581Y-60038330D01*
X36432159Y-62412576D02*
X36459406Y-62423319D01*
X44094716Y-56889384D02*
X44063840Y-56890164D01*
X36809904Y-59798100D02*
X36827716Y-59820766D01*
X36306716Y-62340528D02*
X36330240Y-62357256D01*
X37030581Y-63739513D02*
X37004710Y-63752763D01*
X44380711Y-56961801D02*
X44354840Y-56948551D01*
X46161210Y-61260410D02*
X46145603Y-61284753D01*
X36184904Y-62218716D02*
X36202716Y-62241382D01*
X37601827Y-59952246D02*
X37626171Y-59936640D01*
X37818289Y-59725106D02*
X37831539Y-59699235D01*
X37352052Y-63683444D02*
X37321581Y-63681127D01*
X47040395Y-62058860D02*
X47062165Y-62040002D01*
X37626171Y-63782817D02*
X37601827Y-63767210D01*
X36925830Y-61318897D02*
X36899253Y-61306881D01*
X42138294Y-66478067D02*
X42119436Y-66456296D01*
X46762345Y-64046099D02*
X46761564Y-64015224D01*
X36809904Y-64639332D02*
X36827716Y-64661998D01*
X45333849Y-59390031D02*
X45343282Y-59417910D01*
X47211589Y-61362328D02*
X47199573Y-61335750D01*
X39187877Y-57050628D02*
X39159405Y-57042543D01*
X42010771Y-57357263D02*
X42034295Y-57340535D01*
X47231765Y-61417453D02*
X47222332Y-61389575D01*
X46643147Y-64405087D02*
X46659875Y-64381563D01*
X37199332Y-60032197D02*
X37229359Y-60036013D01*
X36202716Y-62241382D02*
X36221575Y-62263153D01*
X39040331Y-58222870D02*
X39070802Y-58220553D01*
X46085714Y-61417453D02*
X46077629Y-61445925D01*
X37753695Y-59820766D02*
X37771507Y-59798100D01*
X42256416Y-56709788D02*
X42248331Y-56681316D01*
X37576701Y-58911531D02*
X37550830Y-58898280D01*
X41675305Y-16250651D02*
X27683441Y-16250651D01*
X46497812Y-63548572D02*
X46473468Y-63532965D01*
X46447708Y-59471734D02*
X46459723Y-59445157D01*
X37238731Y-61681308D02*
X37229298Y-61653430D01*
X38978579Y-66695022D02*
X39009455Y-66695803D01*
X37831539Y-64020221D02*
X37818289Y-63994351D01*
X39040331Y-66695022D02*
X39070802Y-66692705D01*
X46058739Y-61595873D02*
X46059520Y-61626749D01*
X38428345Y-57473704D02*
X38421645Y-57502732D01*
X38606029Y-65651676D02*
X38585192Y-65671543D01*
X37199332Y-64873430D02*
X37229359Y-64877245D01*
X42078732Y-57303865D02*
X42099569Y-57283998D01*
X39606358Y-57684998D02*
X39608675Y-57654528D01*
X47239850Y-61445925D02*
X47231765Y-61417453D01*
X36084595Y-61709780D02*
X36077895Y-61738808D01*
X37871816Y-59589060D02*
X37878516Y-59560032D01*
X42263115Y-66738801D02*
X42256416Y-66709773D01*
X46041425Y-63458291D02*
X46012397Y-63464990D01*
X45937748Y-58612393D02*
X45906872Y-58611613D01*
X38436430Y-66274225D02*
X38445863Y-66302103D01*
X46027793Y-58623803D02*
X45998247Y-58618526D01*
X37352052Y-64877245D02*
X37382079Y-64873430D01*
X44060993Y-66308712D02*
X44078805Y-66331378D01*
X39320577Y-57110518D02*
X39295451Y-57096071D01*
X36793176Y-63944881D02*
X36777569Y-63969225D01*
X36184904Y-61500741D02*
X36168176Y-61524265D01*
X36809904Y-63921357D02*
X36793176Y-63944881D01*
X68326550Y-63496104D02*
X68326550Y-63496104D01*
X39506985Y-66431268D02*
X39522592Y-66406925D01*
X37753695Y-63898691D02*
X37734837Y-63876920D01*
X43497813Y-57428036D02*
X43495496Y-57458507D01*
X36976827Y-61346594D02*
X36951701Y-61332147D01*
X37883792Y-64371718D02*
X37887608Y-64341690D01*
X38698334Y-57110518D02*
X38673990Y-57126124D01*
X46720084Y-62192774D02*
X46750112Y-62188958D01*
X15024060Y-63496104D02*
X24407822Y-69359728D01*
X36931716Y-58958313D02*
X36909050Y-58976125D01*
X41766679Y-66266636D02*
X41736652Y-66262820D01*
X42034295Y-57340535D02*
X42056961Y-57322723D01*
X37193289Y-62145722D02*
X37206539Y-62119851D01*
X44945221Y-66393853D02*
X44966059Y-66373987D01*
X45306874Y-59211611D02*
X45306874Y-59211611D01*
X36241442Y-61435466D02*
X36221575Y-61456304D01*
X45609499Y-63812554D02*
X45598756Y-63839801D01*
X46808687Y-62176982D02*
X46837160Y-62168897D01*
X36697618Y-64371718D02*
X36702895Y-64401264D01*
X46521336Y-63565300D02*
X46497812Y-63548572D01*
X45968219Y-58614711D02*
X45937748Y-58612393D01*
X36763122Y-59153118D02*
X36749872Y-59178989D01*
X37771507Y-59798100D02*
X37788235Y-59774576D01*
X37818289Y-59153118D02*
X37803842Y-59127992D01*
X44675825Y-57339434D02*
X44667739Y-57310962D01*
X36793176Y-59774576D02*
X36809904Y-59798100D01*
X44693933Y-57458507D02*
X44691616Y-57428036D01*
X45313787Y-59302984D02*
X45319064Y-59332531D01*
X36696581Y-62458946D02*
X36727052Y-62456629D01*
X46166998Y-58670780D02*
X46140420Y-58658764D01*
X44405837Y-58002516D02*
X44430181Y-57986910D01*
X41525355Y-67440829D02*
X41554384Y-67447529D01*
X46193222Y-63446881D02*
X46162346Y-63446101D01*
X44125592Y-56890164D02*
X44094716Y-56889384D01*
X44033369Y-56892481D02*
X44003341Y-56896297D01*
X45634764Y-63760105D02*
X45621514Y-63785976D01*
X46041425Y-64633908D02*
X46070972Y-64639184D01*
X43783594Y-58002516D02*
X43808720Y-58016964D01*
X45122905Y-66099673D02*
X45129605Y-66070645D01*
X36955240Y-64777872D02*
X36979584Y-64793479D01*
X37887608Y-59500458D02*
X37889925Y-59469988D01*
X39009455Y-57023653D02*
X38978579Y-57024434D01*
X43541866Y-57722928D02*
X43553882Y-57749505D01*
X44557704Y-57871036D02*
X44575516Y-57848370D01*
X36979584Y-63767210D02*
X36955240Y-63782817D01*
X43988945Y-65716179D02*
X43978202Y-65743426D01*
X44097663Y-65546300D02*
X44078805Y-65568071D01*
X37229359Y-60036013D02*
X37259829Y-60038330D01*
X46217995Y-58698477D02*
X46192869Y-58684030D01*
X45004784Y-66331378D02*
X45022596Y-66308712D01*
X36405581Y-61318897D02*
X36379710Y-61332147D01*
X36717680Y-64101924D02*
X36709595Y-64130396D01*
X37576701Y-59966694D02*
X37601827Y-59952246D01*
X43631726Y-57871036D02*
X43650584Y-57892807D01*
X39070802Y-65498904D02*
X39040331Y-65496587D01*
X37004710Y-64807926D02*
X37030581Y-64821176D01*
X45054931Y-66260845D02*
X45069378Y-66235718D01*
X46077629Y-61745821D02*
X46085714Y-61774294D01*
X43941794Y-65949725D02*
X43941794Y-65949725D01*
X39522592Y-66406925D02*
X39537039Y-66381798D01*
X42268392Y-66768347D02*
X42263115Y-66738801D01*
X36152569Y-62170848D02*
X36168176Y-62195192D01*
X41935430Y-57400568D02*
X41961301Y-57387317D01*
X36515756Y-62440837D02*
X36544785Y-62447537D01*
X37229298Y-61653430D02*
X37218555Y-61626183D01*
X44094716Y-58089381D02*
X44094716Y-58089381D01*
X39550289Y-66355928D02*
X39562305Y-66329350D01*
X43597186Y-57153918D02*
X43581579Y-57178262D01*
X47062165Y-62040002D02*
X47083003Y-62020135D01*
X37649695Y-59919911D02*
X37672361Y-59902099D01*
X38888535Y-57035843D02*
X38859506Y-57042543D01*
X47251827Y-61687247D02*
X47255642Y-61657219D01*
X41554384Y-67447529D02*
X41583931Y-67452806D01*
X44607851Y-57800502D02*
X44622298Y-57775376D01*
X36866442Y-64704606D02*
X36887279Y-64724473D01*
X44420873Y-66537533D02*
X44450420Y-66542810D01*
X41339839Y-67357248D02*
X41364183Y-67372855D01*
X43613914Y-57130395D02*
X43597186Y-57153918D01*
X46659875Y-63710635D02*
X46643147Y-63687112D01*
X42156107Y-67218708D02*
X42172835Y-67195184D01*
X39606358Y-57562306D02*
X39602542Y-57532279D01*
X42238897Y-57066035D02*
X42248331Y-57038156D01*
X39412882Y-65651676D02*
X39391111Y-65632817D01*
X44281669Y-65408893D02*
X44255798Y-65422143D01*
X44078805Y-66331378D02*
X44097663Y-66353149D01*
X45547884Y-58730812D02*
X45525218Y-58748624D01*
X36866442Y-63856082D02*
X36846575Y-63876920D01*
X44028658Y-65638605D02*
X44014211Y-65663731D01*
X44538846Y-57085958D02*
X44518979Y-57065120D01*
X36405581Y-62400560D02*
X36432159Y-62412576D01*
X44044265Y-65614261D02*
X44028658Y-65638605D01*
X36846575Y-63876920D02*
X36827716Y-63898691D01*
X47258740Y-61595873D02*
X47258740Y-61595873D01*
X37626171Y-64777872D02*
X37649695Y-64761144D01*
X45906872Y-59811610D02*
X45937748Y-59810829D01*
X45114820Y-66128145D02*
X45122905Y-66099673D01*
X38409455Y-66095805D02*
X38410236Y-66126680D01*
X42272208Y-66921067D02*
X42274525Y-66890596D01*
X38445863Y-65889506D02*
X38436430Y-65917384D01*
X41147721Y-57145730D02*
X41162169Y-57170856D01*
X36737856Y-59672658D02*
X36749872Y-59699235D01*
X44094716Y-56889384D02*
X44094716Y-56889384D01*
X42202889Y-56573742D02*
X42188441Y-56548616D01*
X41415180Y-57400568D02*
X41441758Y-57412583D01*
X46750112Y-62188958D02*
X46779659Y-62183682D01*
X37843555Y-59672658D02*
X37854298Y-59645411D01*
X37753695Y-64661998D02*
X37771507Y-64639332D01*
X38528654Y-57264664D02*
X38511926Y-57288188D01*
X47199573Y-61855996D02*
X47211589Y-61829419D01*
X44667739Y-57310962D02*
X44658307Y-57283084D01*
X44985926Y-65546300D02*
X44966059Y-65525463D01*
X44308247Y-66502572D02*
X44335494Y-66513315D01*
X39490257Y-57982640D02*
X39506985Y-57959116D01*
X42099569Y-56435474D02*
X42078732Y-56415607D01*
X44691744Y-66530833D02*
X44720216Y-66522748D01*
X38606029Y-58067781D02*
X38627800Y-58086639D01*
X36432159Y-61306881D02*
X36405581Y-61318897D01*
X43567132Y-57775376D02*
X43581579Y-57800502D01*
X47231765Y-61774294D02*
X47239850Y-61745821D01*
X37843555Y-64046799D02*
X37831539Y-64020221D01*
X45621514Y-63785976D02*
X45609499Y-63812554D01*
X45563129Y-64015224D02*
X45562348Y-64046099D01*
X36634829Y-62458946D02*
X36665705Y-62459727D01*
X46487985Y-59361559D02*
X46494685Y-59332531D01*
X39608675Y-66126680D02*
X39609456Y-66095805D01*
X41078402Y-66921067D02*
X41082218Y-66951094D01*
X38803156Y-65532214D02*
X38775909Y-65542957D01*
X45581237Y-63896151D02*
X45574538Y-63925179D01*
X38496319Y-57312532D02*
X38481872Y-57337658D01*
X41087494Y-56980656D02*
X41094194Y-57009684D01*
X46544002Y-64509086D02*
X46565772Y-64490228D01*
X37887608Y-64341690D02*
X37889925Y-64311220D01*
X38436430Y-65917384D02*
X38428345Y-65945857D01*
X43759250Y-57986910D02*
X43783594Y-58002516D01*
X45039324Y-65614261D02*
X45022596Y-65590737D01*
X44682524Y-57368462D02*
X44675825Y-57339434D01*
X39433720Y-65671543D02*
X39412882Y-65651676D01*
X39522592Y-65784685D02*
X39506985Y-65760341D01*
X46065653Y-61687247D02*
X46070929Y-61716793D01*
X37290705Y-63680346D02*
X37290705Y-63680346D01*
X37576701Y-64807926D02*
X37601827Y-64793479D01*
X46070929Y-61474953D02*
X46065653Y-61504500D01*
X46166998Y-59752443D02*
X46192869Y-59739193D01*
X38412553Y-66034459D02*
X38410236Y-66064929D01*
X45664818Y-63710635D02*
X45649211Y-63734979D01*
X44633169Y-65356640D02*
X44603141Y-65352824D01*
X36757079Y-62452813D02*
X36786626Y-62447537D01*
X44230672Y-65436591D02*
X44206328Y-65452197D01*
X46223693Y-64643000D02*
X46253721Y-64639184D01*
X42263115Y-56738816D02*
X42256416Y-56709788D01*
X45634764Y-64332093D02*
X45649211Y-64357219D01*
X44230672Y-66462859D02*
X44255798Y-66477306D01*
X46012397Y-64627208D02*
X46041425Y-64633908D01*
X36866442Y-59863374D02*
X36887279Y-59883241D01*
X42275305Y-66859721D02*
X42275305Y-66859721D01*
X46095147Y-61389575D02*
X46085714Y-61417453D01*
X45082628Y-65689602D02*
X45069378Y-65663731D01*
X45503447Y-59655740D02*
X45525218Y-59674598D01*
X43968769Y-65771304D02*
X43960684Y-65799776D01*
X43978202Y-65743426D02*
X43968769Y-65771304D01*
X44160138Y-65486737D02*
X44138368Y-65505596D01*
X38888535Y-65507996D02*
X38859506Y-65514696D01*
X37469127Y-64853368D02*
X37497006Y-64843935D01*
X37084406Y-64843935D02*
X37112284Y-64853368D01*
X38511926Y-57959116D02*
X38528654Y-57982640D01*
X46506875Y-59211611D02*
X46506875Y-59211611D01*
X45482610Y-59635873D02*
X45503447Y-59655740D01*
X45968219Y-59808512D02*
X45998247Y-59804696D01*
X46420010Y-59522731D02*
X46434457Y-59497605D01*
X37469127Y-58866089D02*
X37440655Y-58858003D01*
X37290705Y-63680346D02*
X37259829Y-63681127D01*
X42216139Y-66599598D02*
X42202889Y-66573727D01*
X37084406Y-63716754D02*
X37057159Y-63727497D01*
X37831539Y-59178989D02*
X37818289Y-59153118D01*
X37803842Y-59750232D02*
X37818289Y-59725106D01*
X45082628Y-66209848D02*
X45094644Y-66183270D01*
X39295451Y-57096071D02*
X39269580Y-57082820D01*
X39269580Y-58164484D02*
X39295451Y-58151233D01*
X39391111Y-65632817D02*
X39368445Y-65615005D01*
X45728451Y-59784635D02*
X45756924Y-59792720D01*
X45718216Y-63642675D02*
X45699358Y-63664445D01*
X41583931Y-56266651D02*
X41554384Y-56271927D01*
X39602542Y-66187178D02*
X39606358Y-66157151D01*
X46140420Y-59764458D02*
X46166998Y-59752443D01*
X41441758Y-56306889D02*
X41415180Y-56318904D01*
X39009455Y-58223650D02*
X39009455Y-58223650D01*
X41496883Y-56286712D02*
X41469005Y-56296145D01*
X41613958Y-66262820D02*
X41583931Y-66266636D01*
X41251041Y-66435459D02*
X41231174Y-66456296D01*
X41583931Y-67452806D02*
X41613958Y-67456621D01*
X46162346Y-63446101D02*
X46131470Y-63446881D01*
X55667168Y-16250651D02*
X41675305Y-16250651D01*
X46369863Y-58829958D02*
X46351005Y-58808187D01*
X44498142Y-57933511D02*
X44518979Y-57913644D01*
X36727113Y-64486643D02*
X36737856Y-64513890D01*
X44510918Y-65350507D02*
X44480448Y-65352824D01*
X41613958Y-56262835D02*
X41583931Y-56266651D01*
X45141795Y-65949725D02*
X45141014Y-65918849D01*
X38698334Y-66608939D02*
X38723460Y-66623386D01*
X43759250Y-56991855D02*
X43735726Y-57008583D01*
X41087494Y-56738816D02*
X41082218Y-56768363D01*
X36909050Y-59902099D02*
X36931716Y-59919911D01*
X41766679Y-56266651D02*
X41736652Y-56262835D01*
X46606477Y-64449524D02*
X46625335Y-64427753D01*
X36515756Y-61278620D02*
X36487284Y-61286705D01*
X37030581Y-58898280D02*
X37004710Y-58911531D01*
X47255642Y-61534527D02*
X47251827Y-61504500D01*
X43495496Y-57520258D02*
X43497813Y-57550728D01*
X37321581Y-60038330D02*
X37352052Y-60036013D01*
X46113173Y-59775202D02*
X46140420Y-59764458D01*
X43501629Y-57398009D02*
X43497813Y-57428036D01*
X37883792Y-64188971D02*
X37878516Y-64159425D01*
X37843555Y-64513890D02*
X37854298Y-64486643D01*
X45309972Y-59272957D02*
X45313787Y-59302984D01*
X39100829Y-57030567D02*
X39070802Y-57026751D01*
X37771507Y-59080125D02*
X37753695Y-59057458D01*
X46715194Y-64279645D02*
X46725937Y-64252398D01*
X46117906Y-61335750D02*
X46105890Y-61362328D01*
X44877260Y-66447252D02*
X44900784Y-66430524D01*
X36846575Y-59035688D02*
X36827716Y-59057458D01*
X37169785Y-64868153D02*
X37199332Y-64873430D01*
X38673990Y-58121179D02*
X38698334Y-58136786D01*
X41111712Y-66653422D02*
X41102279Y-66681300D01*
X46255313Y-62040002D02*
X46277083Y-62058860D01*
X36846575Y-64683769D02*
X36866442Y-64704606D01*
X39597266Y-66216725D02*
X39602542Y-66187178D01*
X41111712Y-67066019D02*
X41122456Y-67093266D01*
X36574332Y-61266643D02*
X36544785Y-61271920D01*
X42268392Y-56951109D02*
X42272208Y-56921082D01*
X46085714Y-61774294D02*
X46095147Y-61802172D01*
X44603141Y-65352824D02*
X44572670Y-65350507D01*
X39070802Y-58220553D02*
X39100829Y-58216737D01*
X41076085Y-66828845D02*
X41075305Y-66859721D01*
X46223693Y-63449198D02*
X46193222Y-63446881D01*
X44775342Y-66502572D02*
X44801919Y-66490556D01*
X43735726Y-57008583D02*
X43713060Y-57026395D01*
X46283267Y-63458291D02*
X46253721Y-63453014D01*
X39320577Y-66608939D02*
X39344921Y-66593332D01*
X44476371Y-57952369D02*
X44498142Y-57933511D01*
X38859506Y-58204761D02*
X38888535Y-58211460D01*
X36691486Y-64249469D02*
X36690705Y-64280344D01*
X45525218Y-59674598D02*
X45547884Y-59692411D01*
X41644429Y-67458938D02*
X41675305Y-67459719D01*
X39573048Y-57417353D02*
X39562305Y-57390107D01*
X44138368Y-65505596D02*
X44117530Y-65525463D01*
X47199573Y-61335750D02*
X47186323Y-61309880D01*
X41675305Y-67459719D02*
X41706181Y-67458938D01*
X39582481Y-57445232D02*
X39573048Y-57417353D01*
X41364183Y-67372855D02*
X41389309Y-67387302D01*
X46689929Y-63760105D02*
X46675481Y-63734979D01*
X38948109Y-66692705D02*
X38978579Y-66695022D01*
X37193289Y-61573735D02*
X37178842Y-61548608D01*
X47171875Y-61284753D02*
X47156269Y-61260410D01*
X41675305Y-67459719D02*
X41675305Y-67459719D01*
X38496319Y-66406925D02*
X38511926Y-66431268D01*
X36763122Y-63994351D02*
X36749872Y-64020221D01*
X45333849Y-59033191D02*
X45325763Y-59061663D01*
X37889925Y-64249469D02*
X37887608Y-64218998D01*
X44244665Y-56908273D02*
X44215637Y-56901574D01*
X41364183Y-57372870D02*
X41389309Y-57387317D01*
X42172835Y-67195184D02*
X42188441Y-67170841D01*
X38445863Y-57829951D02*
X38456606Y-57857197D01*
X44945221Y-65505596D02*
X44923450Y-65486737D01*
X39490257Y-66454792D02*
X39506985Y-66431268D01*
X44450420Y-66542810D02*
X44480448Y-66546625D01*
X36693803Y-59377766D02*
X36691486Y-59408237D01*
X42275305Y-66859721D02*
X42274525Y-66828845D01*
X39243003Y-66648652D02*
X39269580Y-66636636D01*
X41908852Y-66306873D02*
X41881605Y-66296130D01*
X41613958Y-67456621D02*
X41644429Y-67458938D01*
X41082218Y-66768347D02*
X41078402Y-66798375D01*
X38546466Y-66477458D02*
X38565325Y-66499229D01*
X37714970Y-64704606D02*
X37734837Y-64683769D01*
X38859506Y-57042543D02*
X38831034Y-57050628D01*
X43834591Y-56948551D02*
X43808720Y-56961801D01*
X37672361Y-63817357D02*
X37649695Y-63799545D01*
X45562348Y-64046099D02*
X45563129Y-64076975D01*
X37524253Y-63727497D02*
X37497006Y-63716754D01*
X39344921Y-57126124D02*
X39320577Y-57110518D01*
X36749872Y-64020221D02*
X36737856Y-64046799D01*
X46480317Y-62168897D02*
X46508789Y-62176982D01*
X38565325Y-65692380D02*
X38546466Y-65714151D01*
X45738083Y-64470361D02*
X45758920Y-64490228D01*
X41415180Y-56318904D02*
X41389309Y-56332155D01*
X43597186Y-57824846D02*
X43613914Y-57848370D01*
X38428345Y-65945857D02*
X38421645Y-65974885D01*
X43541866Y-57255837D02*
X43531123Y-57283084D01*
X38436430Y-57445232D02*
X38428345Y-57473704D01*
X36330240Y-62357256D02*
X36354584Y-62372862D01*
X27683441Y-16250651D02*
X15024060Y-63496104D01*
X41102279Y-67038141D02*
X41111712Y-67066019D01*
X45325763Y-59061663D02*
X45319064Y-59090691D01*
X46059520Y-61626749D02*
X46061837Y-61657219D01*
X36887279Y-58994983D02*
X36866442Y-59014850D01*
X41389309Y-66332139D02*
X41364183Y-66346587D01*
X36604359Y-61262828D02*
X36574332Y-61266643D01*
X46404403Y-59547075D02*
X46420010Y-59522731D01*
X38918082Y-57030567D02*
X38888535Y-57035843D01*
X46265863Y-58730812D02*
X46242339Y-58714084D01*
X39269580Y-57082820D02*
X39243003Y-57070805D01*
X46470467Y-59005313D02*
X46459723Y-58978066D01*
X46331138Y-59635873D02*
X46351005Y-59615036D01*
X39215756Y-57060061D02*
X39187877Y-57050628D01*
X39550289Y-57883775D02*
X39562305Y-57857197D01*
X43944892Y-65888379D02*
X43942575Y-65918849D01*
X46459723Y-59445157D02*
X46470467Y-59417910D01*
X42156107Y-57218723D02*
X42172835Y-57195200D01*
X46689614Y-62195091D02*
X46720084Y-62192774D01*
X46627862Y-62195091D02*
X46658738Y-62195872D01*
X37321581Y-58839894D02*
X37290705Y-58839114D01*
X41469005Y-56296145D02*
X41441758Y-56306889D01*
X37550830Y-58898280D02*
X37524253Y-58886265D01*
X38409455Y-66095805D02*
X38409455Y-66095805D01*
X43948707Y-66041098D02*
X43953984Y-66070645D01*
X37321581Y-63681127D02*
X37290705Y-63680346D01*
X43513605Y-57639330D02*
X43521690Y-57667802D01*
X46065653Y-61504500D02*
X46061837Y-61534527D01*
X45138697Y-66011071D02*
X45141014Y-65980600D01*
X45620878Y-58684030D02*
X45595752Y-58698477D01*
X43960684Y-65799776D02*
X43953984Y-65828805D01*
X41644429Y-56260518D02*
X41613958Y-56262835D01*
X36777569Y-59127992D02*
X36763122Y-59153118D01*
X41796226Y-57447544D02*
X41825254Y-57440845D01*
X39159405Y-65514696D02*
X39130376Y-65507996D01*
X38421645Y-66216725D02*
X38428345Y-66245753D01*
X44206328Y-66447252D02*
X44230672Y-66462859D01*
X45054931Y-65638605D02*
X45039324Y-65614261D01*
X46658738Y-60995875D02*
X46627862Y-60996656D01*
X44966059Y-66373987D02*
X44985926Y-66353149D01*
X37290705Y-60039111D02*
X37290705Y-60039111D01*
X45129605Y-66070645D02*
X45134881Y-66041098D01*
X45780691Y-64509086D02*
X45803357Y-64526898D01*
X44693933Y-57520258D02*
X44694714Y-57489382D01*
X46865038Y-62159464D02*
X46892285Y-62148721D01*
X45069378Y-65663731D02*
X45054931Y-65638605D01*
X38421645Y-57744572D02*
X38428345Y-57773600D01*
X46312296Y-63464990D02*
X46283267Y-63458291D01*
X44125592Y-58088600D02*
X44156062Y-58086283D01*
X37253516Y-61980648D02*
X37258792Y-61951102D01*
X36634829Y-61260511D02*
X36604359Y-61262828D01*
X42010771Y-56362208D02*
X41986427Y-56346602D01*
X46865038Y-61032283D02*
X46837160Y-61022850D01*
X36717680Y-64458765D02*
X36727113Y-64486643D01*
X42274525Y-56828860D02*
X42272208Y-56798390D01*
X36665705Y-61259730D02*
X36665705Y-61259730D01*
X41316315Y-67340520D02*
X41339839Y-67357248D01*
X43942575Y-65980600D02*
X43944892Y-66011071D01*
X38528654Y-57982640D02*
X38546466Y-58005306D01*
X38627800Y-57160665D02*
X38606029Y-57179523D01*
X43808720Y-56961801D02*
X43783594Y-56976248D01*
X39537039Y-57909646D02*
X39550289Y-57883775D01*
X36068803Y-61921074D02*
X36072618Y-61951102D01*
X42010771Y-66362193D02*
X41986427Y-66346587D01*
X41094194Y-57009684D02*
X41102279Y-57038156D01*
X46448342Y-63518518D02*
X46422471Y-63505267D01*
X41194503Y-56500748D02*
X41177775Y-56524272D01*
X45366040Y-59471734D02*
X45379291Y-59497605D01*
X39295451Y-65568223D02*
X39269580Y-65554973D01*
X43941794Y-65949725D02*
X43942575Y-65980600D01*
X46494685Y-59090691D02*
X46487985Y-59061663D01*
X41251041Y-56435474D02*
X41231174Y-56456311D01*
X37001171Y-61362201D02*
X36976827Y-61346594D01*
X46277083Y-62058860D02*
X46299749Y-62076673D01*
X46755432Y-63954726D02*
X46750155Y-63925179D01*
X39562305Y-57857197D02*
X39573048Y-57829951D01*
X44801919Y-65408893D02*
X44775342Y-65396877D01*
X41134471Y-56599613D02*
X41122456Y-56626190D01*
X58942788Y-69359728D02*
X68326550Y-63496104D01*
X41525355Y-66278612D02*
X41496883Y-66286697D01*
X42202889Y-57145730D02*
X42216139Y-57119859D01*
X46347617Y-61082739D02*
X46323273Y-61098346D01*
X46372743Y-62123455D02*
X46398614Y-62136705D01*
X36709595Y-59289164D02*
X36702895Y-59318192D01*
X44691616Y-57550728D02*
X44693933Y-57520258D01*
X38565325Y-66499229D02*
X38585192Y-66520067D01*
X36354584Y-61346594D02*
X36330240Y-61362201D01*
X39582481Y-57802072D02*
X39590566Y-57773600D01*
X46479900Y-59390031D02*
X46487985Y-59361559D01*
X44900784Y-66430524D02*
X44923450Y-66412712D01*
X47246550Y-61474953D02*
X47239850Y-61445925D01*
X38650466Y-58104451D02*
X38673990Y-58121179D01*
X46675481Y-63734979D02*
X46659875Y-63710635D01*
X41094194Y-66709773D02*
X41087494Y-66738801D01*
X42274525Y-66828845D02*
X42272208Y-66798375D01*
X45565446Y-63984753D02*
X45563129Y-64015224D01*
X36709595Y-64130396D02*
X36702895Y-64159425D01*
X44391845Y-65368616D02*
X44363373Y-65376701D01*
X37734837Y-64683769D02*
X37753695Y-64661998D01*
X37818289Y-63994351D02*
X37803842Y-63969225D01*
X39472445Y-66477458D02*
X39490257Y-66454792D01*
X37069132Y-62303857D02*
X37089970Y-62283990D01*
X47017728Y-61115074D02*
X46994204Y-61098346D01*
X44301016Y-58052973D02*
X44328263Y-58042229D01*
X47156269Y-61931337D02*
X47171875Y-61906993D01*
X41293649Y-56396749D02*
X41271878Y-56415607D01*
X46299749Y-61115074D02*
X46277083Y-61132886D01*
X38585192Y-58047914D02*
X38606029Y-58067781D01*
X41554384Y-56271927D02*
X41525355Y-56278627D01*
X36665705Y-62459727D02*
X36665705Y-62459727D01*
X46131470Y-64645317D02*
X46162346Y-64646098D01*
X36702895Y-64159425D02*
X36697618Y-64188971D01*
X36951701Y-61332147D02*
X36925830Y-61318897D01*
X36827716Y-63898691D02*
X36809904Y-63921357D01*
X44541794Y-65349726D02*
X44541794Y-65349726D01*
X37140756Y-63699236D02*
X37112284Y-63707321D01*
X45306874Y-59211611D02*
X45307655Y-59242487D01*
X46725937Y-64252398D02*
X46735370Y-64224519D01*
X45565446Y-64107445D02*
X45569261Y-64137472D01*
X41469005Y-66296130D02*
X41441758Y-66306873D01*
X36709595Y-59589060D02*
X36717680Y-59617532D01*
X36604359Y-62456629D02*
X36634829Y-62458946D01*
X44063840Y-56890164D02*
X44033369Y-56892481D01*
X44255798Y-66477306D02*
X44281669Y-66490556D01*
X39344921Y-66593332D02*
X39368445Y-66576604D01*
X44801919Y-66490556D02*
X44827790Y-66477306D01*
X45609499Y-64279645D02*
X45621514Y-64306222D01*
X58942788Y-69359728D02*
X58942788Y-69359728D01*
X41212315Y-67241374D02*
X41231174Y-67263145D01*
X38723460Y-58151233D02*
X38749331Y-58164484D01*
X38888535Y-66683613D02*
X38918082Y-66688890D01*
X43567132Y-57203388D02*
X43553882Y-57229259D01*
X45589323Y-64224519D02*
X45598756Y-64252398D01*
X37890706Y-59439112D02*
X37890706Y-59439112D01*
X44156062Y-58086283D02*
X44186090Y-58082467D01*
X36955240Y-63782817D02*
X36931716Y-63799545D01*
X46425191Y-62148721D02*
X46452438Y-62159464D01*
X44852916Y-65436591D02*
X44827790Y-65422143D01*
X39269580Y-65554973D02*
X39243003Y-65542957D01*
X38511926Y-65760341D02*
X38496319Y-65784685D01*
X45876351Y-64573681D02*
X45902222Y-64586931D01*
X42099569Y-57283998D02*
X42119436Y-57263160D01*
X39412882Y-66539934D02*
X39433720Y-66520067D01*
X44117530Y-65525463D02*
X44097663Y-65546300D01*
X41706181Y-56260518D02*
X41675305Y-56259737D01*
X37818289Y-64566338D02*
X37831539Y-64540467D01*
X36763122Y-59725106D02*
X36777569Y-59750232D01*
X41078402Y-56798390D02*
X41076085Y-56828860D01*
X42034295Y-67340520D02*
X42056961Y-67322708D01*
X44255798Y-65422143D02*
X44230672Y-65436591D01*
X46131470Y-63446881D02*
X46101000Y-63449198D01*
X42263115Y-66980641D02*
X42268392Y-66951094D01*
X41908852Y-67412568D02*
X41935430Y-67400552D01*
X42034295Y-56378937D02*
X42010771Y-56362208D01*
X36262279Y-61415599D02*
X36241442Y-61435466D01*
X36077895Y-61980648D02*
X36084595Y-62009676D01*
X41881605Y-67423311D02*
X41908852Y-67412568D01*
X36931716Y-59919911D02*
X36955240Y-59936640D01*
X46101000Y-63449198D02*
X46070972Y-63453014D01*
X46347617Y-62109007D02*
X46372743Y-62123455D01*
X39490257Y-65736817D02*
X39472445Y-65714151D01*
X37890706Y-64280344D02*
X37890706Y-64280344D01*
X24407822Y-69359728D02*
X24407822Y-69359728D01*
X45105387Y-65743426D02*
X45094644Y-65716179D01*
X42238897Y-66653422D02*
X42228154Y-66626175D01*
X46586610Y-63621837D02*
X46565772Y-63601970D01*
X42248331Y-67038141D02*
X42256416Y-67009669D01*
X38421645Y-65974885D02*
X38416368Y-66004431D01*
X41134471Y-66599598D02*
X41122456Y-66626175D01*
X41162169Y-56548616D02*
X41147721Y-56573742D01*
X46759247Y-64107445D02*
X46761564Y-64076975D01*
X46085294Y-59784635D02*
X46113173Y-59775202D01*
X44430181Y-56991855D02*
X44405837Y-56976248D01*
X46480317Y-61022850D02*
X46452438Y-61032283D01*
X41825254Y-56278627D02*
X41796226Y-56271927D01*
X44117530Y-66373987D02*
X44138368Y-66393853D01*
X45114820Y-65771304D02*
X45105387Y-65743426D01*
X41675305Y-57459734D02*
X41706181Y-57458954D01*
X41271878Y-67303850D02*
X41293649Y-67322708D01*
X46506094Y-59180736D02*
X46503777Y-59150265D01*
X44273137Y-58062406D02*
X44301016Y-58052973D01*
X44775342Y-65396877D02*
X44748095Y-65386134D01*
X38481872Y-57337658D02*
X38468622Y-57363529D01*
X47121728Y-61977527D02*
X47139541Y-61954861D01*
X46675481Y-64357219D02*
X46689929Y-64332093D01*
X47062165Y-61151744D02*
X47040395Y-61132886D01*
X46447708Y-58951488D02*
X46434457Y-58925617D01*
X42228154Y-57093281D02*
X42238897Y-57066035D01*
X45785952Y-58623803D02*
X45756924Y-58630502D01*
X46565772Y-64490228D02*
X46586610Y-64470361D01*
X41583931Y-66266636D02*
X41554384Y-66271912D01*
X46627862Y-60996656D02*
X46597391Y-60998973D01*
X37206539Y-62119851D02*
X37218555Y-62093274D01*
X46715194Y-63812554D02*
X46703179Y-63785976D01*
X37524253Y-58886265D02*
X37497006Y-58875522D01*
X45699358Y-64427753D02*
X45718216Y-64449524D01*
X37649695Y-58958313D02*
X37626171Y-58941585D01*
X42119436Y-67263145D02*
X42138294Y-67241374D01*
X45134881Y-66041098D02*
X45138697Y-66011071D01*
X45875997Y-59810829D02*
X45906872Y-59811610D01*
X36284050Y-62322715D02*
X36306716Y-62340528D01*
X45699358Y-63664445D02*
X45681546Y-63687112D01*
X45426072Y-59570599D02*
X45443885Y-59593265D01*
X36665705Y-61259730D02*
X36634829Y-61260511D01*
X38673990Y-57126124D02*
X38650466Y-57142853D01*
X39433720Y-66520067D02*
X39453587Y-66499229D01*
X37290705Y-64880343D02*
X37290705Y-64880343D01*
X45875997Y-58612393D02*
X45845526Y-58614711D01*
X41194503Y-66500733D02*
X41177775Y-66524257D01*
X37694132Y-59883241D02*
X37714970Y-59863374D01*
X39009455Y-58223650D02*
X39040331Y-58222870D01*
X37169785Y-63692536D02*
X37140756Y-63699236D01*
X41231174Y-56456311D02*
X41212315Y-56478082D01*
X46070972Y-64639184D02*
X46101000Y-64643000D01*
X39320577Y-65582671D02*
X39295451Y-65568223D01*
X38831034Y-58196675D02*
X38859506Y-58204761D01*
X37246816Y-62009676D02*
X37253516Y-61980648D01*
X41316315Y-57340535D02*
X41339839Y-57357263D01*
X39573048Y-65889506D02*
X39562305Y-65862259D01*
X44354840Y-58030214D02*
X44380711Y-58016964D01*
X37229359Y-63683444D02*
X37199332Y-63687259D01*
X37264925Y-61828853D02*
X37262608Y-61798382D01*
X37871816Y-64430293D02*
X37878516Y-64401264D01*
X36955240Y-59936640D02*
X36979584Y-59952246D01*
X46351005Y-59615036D02*
X46369863Y-59593265D01*
X39368445Y-65615005D02*
X39344921Y-65598277D01*
X42256416Y-67009669D02*
X42263115Y-66980641D01*
X46387675Y-59570599D02*
X46404403Y-59547075D01*
X45902222Y-64586931D02*
X45928799Y-64598946D01*
X39243003Y-58176499D02*
X39269580Y-58164484D01*
X36202716Y-61478075D02*
X36184904Y-61500741D01*
X38803156Y-58187242D02*
X38831034Y-58196675D01*
X38585192Y-57199390D02*
X38565325Y-57220228D01*
X37411626Y-63692536D02*
X37382079Y-63687259D01*
X38698334Y-58136786D02*
X38723460Y-58151233D01*
X39130376Y-65507996D02*
X39100829Y-65502720D01*
X37890706Y-64280344D02*
X37889925Y-64249469D01*
X41111712Y-57066035D02*
X41122456Y-57093281D01*
X36979584Y-59952246D02*
X37004710Y-59966694D01*
X41881605Y-66296130D02*
X41853727Y-66286697D01*
X37788235Y-63944881D02*
X37771507Y-63921357D01*
X44691744Y-65368616D02*
X44662715Y-65361916D01*
X41147721Y-56573742D02*
X41134471Y-56599613D01*
X46994204Y-62093401D02*
X47017728Y-62076673D01*
X39215756Y-58187242D02*
X39243003Y-58176499D01*
X46131156Y-61309880D02*
X46117906Y-61335750D01*
X37550830Y-63739513D02*
X37524253Y-63727497D01*
X38948109Y-57026751D02*
X38918082Y-57030567D01*
X41706181Y-57458954D02*
X41736652Y-57456637D01*
X41441758Y-57412583D02*
X41469005Y-57423326D01*
X36737856Y-64513890D02*
X36749872Y-64540467D01*
X38775909Y-58176499D02*
X38803156Y-58187242D01*
X41675305Y-66259722D02*
X41644429Y-66260503D01*
X36872006Y-61296138D02*
X36844127Y-61286705D01*
X45138697Y-65888379D02*
X45134881Y-65858351D01*
X38948109Y-58220553D02*
X38978579Y-58222870D01*
X41316315Y-66378921D02*
X41293649Y-66396733D01*
X46140420Y-58658764D02*
X46113173Y-58648021D01*
X45547884Y-59692411D02*
X45571408Y-59709139D01*
X44694714Y-57489382D02*
X44693933Y-57458507D01*
X36815655Y-62440837D02*
X36844127Y-62432752D01*
X42056961Y-67322708D02*
X42078732Y-67303850D01*
X45649211Y-64357219D02*
X45664818Y-64381563D01*
X46703179Y-63785976D02*
X46689929Y-63760105D01*
X37290705Y-58839114D02*
X37290705Y-58839114D01*
X46425191Y-61043026D02*
X46398614Y-61055042D01*
X45141795Y-65949725D02*
X45141795Y-65949725D01*
X42188441Y-66548601D02*
X42172835Y-66524257D01*
X36697618Y-59530485D02*
X36702895Y-59560032D01*
X41075305Y-66859721D02*
X41076085Y-66890596D01*
X41853727Y-56286712D02*
X41825254Y-56278627D01*
X41881605Y-56296145D02*
X41853727Y-56286712D01*
X37140756Y-60020221D02*
X37169785Y-60026921D01*
X45826881Y-64543627D02*
X45851225Y-64559233D01*
X42138294Y-57241390D02*
X42156107Y-57218723D01*
X37169785Y-60026921D02*
X37199332Y-60032197D01*
X41644429Y-57458954D02*
X41675305Y-57459734D01*
X38468622Y-66355928D02*
X38481872Y-66381798D01*
X45928799Y-64598946D02*
X45956046Y-64609690D01*
X43978202Y-66156023D02*
X43988945Y-66183270D01*
X46689929Y-64332093D02*
X46703179Y-64306222D01*
X44094716Y-58089381D02*
X44125592Y-58088600D01*
X45462743Y-59615036D02*
X45482610Y-59635873D01*
X36690705Y-64280344D02*
X36690705Y-64280344D01*
X47186323Y-61309880D02*
X47171875Y-61284753D01*
X39590566Y-57473704D02*
X39582481Y-57445232D01*
X46161210Y-61931337D02*
X46177938Y-61954861D01*
X45998247Y-58618526D02*
X45968219Y-58614711D01*
X37497006Y-63716754D02*
X37469127Y-63707321D01*
X42272208Y-66798375D02*
X42268392Y-66768347D01*
X39009455Y-65495806D02*
X39009455Y-65495806D01*
X42274525Y-56890612D02*
X42275305Y-56859736D01*
X36727113Y-59645411D02*
X36737856Y-59672658D01*
X37259829Y-64879562D02*
X37290705Y-64880343D01*
X43944766Y-56908273D02*
X43916294Y-56916359D01*
X45664818Y-64381563D02*
X45681546Y-64405087D01*
X37229359Y-58842211D02*
X37199332Y-58846027D01*
X39159405Y-57042543D02*
X39130376Y-57035843D01*
X41111712Y-56653437D02*
X41102279Y-56681316D01*
X47171875Y-61906993D02*
X47186323Y-61881867D01*
X46323273Y-61098346D02*
X46299749Y-61115074D01*
X39537039Y-66381798D02*
X39550289Y-66355928D01*
X41881605Y-57423326D02*
X41908852Y-57412583D01*
X41675305Y-69359728D02*
X58942788Y-69359728D01*
X42078732Y-66415592D02*
X42056961Y-66396733D01*
X39187877Y-58196675D02*
X39215756Y-58187242D01*
X41736652Y-67456621D02*
X41766679Y-67452806D01*
X45343282Y-59417910D02*
X45354025Y-59445157D01*
X38918082Y-66688890D02*
X38948109Y-66692705D01*
X41908852Y-56306889D02*
X41881605Y-56296145D01*
X36844127Y-61286705D02*
X36815655Y-61278620D01*
X39295451Y-66623386D02*
X39320577Y-66608939D01*
X38978579Y-57024434D02*
X38948109Y-57026751D01*
X37109837Y-62263153D02*
X37128695Y-62241382D01*
X36793176Y-59103648D02*
X36777569Y-59127992D01*
X42275305Y-56859736D02*
X42275305Y-56859736D01*
X36221575Y-62263153D02*
X36241442Y-62283990D01*
X46387675Y-58852624D02*
X46369863Y-58829958D01*
X41469005Y-67423311D02*
X41496883Y-67432744D01*
X37863731Y-59260692D02*
X37854298Y-59232814D01*
X41177775Y-67195184D02*
X41194503Y-67218708D01*
X38511926Y-66431268D02*
X38528654Y-66454792D01*
X45902222Y-63505267D02*
X45876351Y-63518518D01*
X36887279Y-64724473D02*
X36909050Y-64743332D01*
X37854298Y-59645411D02*
X37863731Y-59617532D01*
X42056961Y-66396733D02*
X42034295Y-66378921D01*
X36909050Y-64743332D02*
X36931716Y-64761144D01*
X36138122Y-61573735D02*
X36124872Y-61599605D01*
X45876351Y-63518518D02*
X45851225Y-63532965D01*
X44182804Y-65468925D02*
X44160138Y-65486737D01*
X36697618Y-64188971D02*
X36693803Y-64218998D01*
X46499961Y-59302984D02*
X46503777Y-59272957D01*
X37057159Y-59991959D02*
X37084406Y-60002703D01*
X39550289Y-57363529D02*
X39537039Y-57337658D01*
X55667168Y-16250651D02*
X55667168Y-16250651D01*
X45803357Y-64526898D02*
X45826881Y-64543627D01*
X36887279Y-59883241D02*
X36909050Y-59902099D01*
X37714970Y-59014850D02*
X37694132Y-58994983D01*
X46323273Y-62093401D02*
X46347617Y-62109007D01*
X37352052Y-58842211D02*
X37321581Y-58839894D01*
X37163235Y-61524265D02*
X37146507Y-61500741D01*
X45956046Y-63482509D02*
X45928799Y-63493252D01*
X36899253Y-61306881D02*
X36872006Y-61296138D01*
X46837160Y-62168897D02*
X46865038Y-62159464D01*
X36702895Y-59318192D02*
X36697618Y-59347739D01*
X36092680Y-62038149D02*
X36102113Y-62066027D01*
X42056961Y-56396749D02*
X42034295Y-56378937D01*
X38673990Y-66593332D02*
X38698334Y-66608939D01*
X41441758Y-66306873D02*
X41415180Y-66318889D01*
X37030581Y-59979944D02*
X37057159Y-59991959D01*
X47239850Y-61745821D02*
X47246550Y-61716793D01*
X41853727Y-57432759D02*
X41881605Y-57423326D01*
X42056961Y-57322723D02*
X42078732Y-57303865D01*
X38749331Y-65554973D02*
X38723460Y-65568223D01*
X43960684Y-66099673D02*
X43968769Y-66128145D01*
X41122456Y-66626175D02*
X41111712Y-66653422D01*
X37238731Y-62038149D02*
X37246816Y-62009676D01*
X37411626Y-58851304D02*
X37382079Y-58846027D01*
X44453705Y-57970182D02*
X44476371Y-57952369D01*
X39608675Y-57654528D02*
X39609456Y-57623652D01*
X44518979Y-57913644D02*
X44538846Y-57892807D01*
X41796226Y-66271912D02*
X41766679Y-66266636D01*
X37497006Y-60002703D02*
X37524253Y-59991959D01*
X46969860Y-61082739D02*
X46944734Y-61068292D01*
X68326550Y-63496104D02*
X55667168Y-16250651D01*
X37889925Y-64311220D02*
X37890706Y-64280344D01*
X39537039Y-57337658D02*
X39522592Y-57312532D01*
X42216139Y-56599613D02*
X42202889Y-56573742D01*
X43808720Y-58016964D02*
X43834591Y-58030214D01*
X39243003Y-57070805D02*
X39215756Y-57060061D01*
X46735370Y-63867679D02*
X46725937Y-63839801D01*
X43581579Y-57800502D02*
X43597186Y-57824846D01*
X37831539Y-64540467D02*
X37843555Y-64513890D01*
X47102870Y-61999298D02*
X47121728Y-61977527D01*
X45379291Y-58925617D02*
X45366040Y-58951488D01*
X41082218Y-66951094D02*
X41087494Y-66980641D01*
X46404403Y-58876147D02*
X46387675Y-58852624D01*
X36262279Y-62303857D02*
X36284050Y-62322715D01*
X46720084Y-60998973D02*
X46689614Y-60996656D01*
X41212315Y-57241390D02*
X41231174Y-57263160D01*
X38948109Y-65498904D02*
X38918082Y-65502720D01*
X41825254Y-66278612D02*
X41796226Y-66271912D01*
X39506985Y-65760341D02*
X39490257Y-65736817D01*
X36809904Y-59080125D02*
X36793176Y-59103648D01*
X41415180Y-66318889D02*
X41389309Y-66332139D01*
X36827716Y-64661998D02*
X36846575Y-64683769D01*
X46368647Y-63482509D02*
X46340768Y-63473076D01*
X39472445Y-65714151D02*
X39453587Y-65692380D01*
X37497006Y-64843935D02*
X37524253Y-64833192D01*
X37889925Y-59469988D02*
X37890706Y-59439112D01*
X39609456Y-57623652D02*
X39609456Y-57623652D01*
X42272208Y-56921082D02*
X42274525Y-56890612D01*
X46059520Y-61564998D02*
X46058739Y-61595873D01*
X41935430Y-66318889D02*
X41908852Y-66306873D01*
X46625335Y-63664445D02*
X46606477Y-63642675D01*
X37206539Y-61599605D02*
X37193289Y-61573735D01*
D11*
X44540000Y-65960000D03*
X19685000Y-61595000D03*
X44090000Y-57490000D03*
X46660000Y-61600000D03*
X45910000Y-59210000D03*
X36670000Y-61860000D03*
X37290000Y-64280000D03*
X37290000Y-59440000D03*
X39010000Y-66100000D03*
X39010000Y-57630000D03*
X57600000Y-38800000D03*
X41680000Y-66870000D03*
X41680000Y-56870000D03*
X46170000Y-64050000D03*
X63700000Y-61700000D03*
X25781000Y-38862000D03*
%LPC*%
D12*
%TO.C,Ref\u002A\u002A*%
X44540000Y-65960000D03*
%TD*%
D13*
%TO.C,REF\u002A\u002A*%
X19685000Y-61595000D03*
%TD*%
D12*
%TO.C,Ref\u002A\u002A*%
X44090000Y-57490000D03*
%TD*%
%TO.C,Ref\u002A\u002A*%
X46660000Y-61600000D03*
%TD*%
%TO.C,Ref\u002A\u002A*%
X45910000Y-59210000D03*
%TD*%
%TO.C,Ref\u002A\u002A*%
X36670000Y-61860000D03*
%TD*%
%TO.C,Ref\u002A\u002A*%
X37290000Y-64280000D03*
%TD*%
%TO.C,Ref\u002A\u002A*%
X37290000Y-59440000D03*
%TD*%
%TO.C,Ref\u002A\u002A*%
X39010000Y-66100000D03*
%TD*%
%TO.C,Ref\u002A\u002A*%
X39010000Y-57630000D03*
%TD*%
D13*
%TO.C,REF\u002A\u002A*%
X57600000Y-38800000D03*
%TD*%
D12*
%TO.C,Ref\u002A\u002A*%
X41680000Y-66870000D03*
%TD*%
%TO.C,Ref\u002A\u002A*%
X41680000Y-56870000D03*
%TD*%
%TO.C,Ref\u002A\u002A*%
X46170000Y-64050000D03*
%TD*%
D13*
%TO.C,REF\u002A\u002A*%
X63700000Y-61700000D03*
%TD*%
%TO.C,REF\u002A\u002A*%
X25781000Y-38862000D03*
%TD*%
M02*
