%TF.GenerationSoftware,KiCad,Pcbnew,(6.0.6)*%
%TF.CreationDate,2022-07-30T19:54:54+09:00*%
%TF.ProjectId,pcb_promicro_plate,7063625f-7072-46f6-9d69-63726f5f706c,rev?*%
%TF.SameCoordinates,Original*%
%TF.FileFunction,Copper,L1,Top*%
%TF.FilePolarity,Positive*%
%FSLAX46Y46*%
G04 Gerber Fmt 4.6, Leading zero omitted, Abs format (unit mm)*
G04 Created by KiCad (PCBNEW (6.0.6)) date 2022-07-30 19:54:54*
%MOMM*%
%LPD*%
G01*
G04 APERTURE LIST*
%TA.AperFunction,Profile*%
%ADD10C,0.349999*%
%TD*%
%TA.AperFunction,ComponentPad*%
%ADD11C,2.300000*%
%TD*%
%ADD12C,0.350000*%
G04 APERTURE END LIST*
D10*
X65430922Y-76536269D02*
X65400408Y-76565938D01*
X23979829Y-30558346D02*
X23979829Y-30558346D01*
X23502503Y-30909433D02*
X23509173Y-30889505D01*
X11391991Y-76106323D02*
X11396272Y-76084812D01*
X23588880Y-30746577D02*
X23601829Y-30731009D01*
X53455227Y-30929768D02*
X55550911Y-38804961D01*
X11400305Y-76317877D02*
X11395469Y-76297411D01*
X65567455Y-76192206D02*
X65565701Y-76234730D01*
X11412505Y-76358030D02*
X11405988Y-76338092D01*
X53209144Y-30618118D02*
X53243856Y-30638675D01*
X23816916Y-30585581D02*
X23836341Y-30579326D01*
X11401531Y-76063343D02*
X11401531Y-76063343D01*
X65555573Y-76084766D02*
X65559856Y-76106277D01*
X11384825Y-76213572D02*
X11384399Y-76192251D01*
X65400408Y-76565938D02*
X65367174Y-76593115D01*
X11388383Y-76255833D02*
X11386157Y-76234775D01*
X23524832Y-30850929D02*
X23533779Y-30832313D01*
X53075767Y-30569183D02*
X53095789Y-30573856D01*
X23509173Y-30889505D02*
X23516623Y-30869999D01*
X11602320Y-76605729D02*
X11584712Y-76593143D01*
X65331315Y-76617587D02*
X65312431Y-76628742D01*
X23675100Y-30661928D02*
X23691315Y-30649974D01*
X65483409Y-76470306D02*
X65458620Y-76504321D01*
X23601829Y-30731009D02*
X23615374Y-30716004D01*
X11386157Y-76234775D02*
X11384825Y-76213572D01*
X53442688Y-30889485D02*
X53449359Y-30909412D01*
X23797821Y-30592604D02*
X23816916Y-30585581D01*
X52993201Y-30558793D02*
X53014173Y-30560114D01*
X11396272Y-76084812D02*
X11401531Y-76063343D01*
X11386312Y-76149363D02*
X11388675Y-76127848D01*
X53362979Y-30746567D02*
X53387010Y-30779327D01*
X53055477Y-30565325D02*
X53075767Y-30569183D01*
X23725144Y-30628054D02*
X23742717Y-30618119D01*
X23644169Y-30687746D02*
X23659377Y-30674524D01*
X21400946Y-38804961D02*
X23496633Y-30929768D01*
X53014173Y-30560114D02*
X53034939Y-30562296D01*
X65559856Y-76106277D02*
X65563174Y-76127803D01*
X65292927Y-76639141D02*
X53598289Y-82548344D01*
X11384890Y-76170839D02*
X11386312Y-76149363D01*
X23836341Y-30579326D02*
X23856076Y-30573854D01*
X11658962Y-76639164D02*
X11658962Y-76639164D01*
X23353568Y-82548344D02*
X11658962Y-76639164D01*
X53449359Y-30909412D02*
X53455231Y-30929745D01*
X23708004Y-30638677D02*
X23725144Y-30628054D01*
X23937696Y-30560110D02*
X23958669Y-30558789D01*
X53307690Y-30687740D02*
X53336484Y-30715996D01*
X23576546Y-30762692D02*
X23588880Y-30746577D01*
X53598289Y-82548344D02*
X53598289Y-82548344D01*
X11658962Y-76639164D02*
X11639457Y-76628766D01*
X65560371Y-76276677D02*
X65551560Y-76317834D01*
X65550312Y-76063297D02*
X65550312Y-76063297D01*
X53276759Y-30661924D02*
X53307690Y-30687740D01*
X65312431Y-76628742D02*
X65292927Y-76639141D01*
X11401531Y-76063343D02*
X21400946Y-38804961D01*
X53243856Y-30638675D02*
X53276759Y-30661924D01*
X11584712Y-76593143D02*
X11567760Y-76579881D01*
X23533779Y-30832313D02*
X23543445Y-30814165D01*
X21400946Y-38804961D02*
X21400946Y-38804961D01*
X23742717Y-30618119D02*
X23760701Y-30608888D01*
X52972042Y-30558350D02*
X52972042Y-30558350D01*
X53034939Y-30562296D02*
X53055477Y-30565325D01*
X23629494Y-30701577D02*
X23644169Y-30687746D01*
X11493259Y-76504356D02*
X11480494Y-76487594D01*
X11436945Y-76415913D02*
X11427996Y-76396967D01*
X55550911Y-38804961D02*
X55550911Y-38804961D01*
X65539363Y-76357988D02*
X65523875Y-76396927D01*
X11446682Y-76434476D02*
X11436945Y-76415913D01*
X11567760Y-76579881D02*
X11551477Y-76565969D01*
X23856076Y-30573854D02*
X23876099Y-30569180D01*
X11468468Y-76470343D02*
X11457193Y-76452628D01*
X53418080Y-30832297D02*
X53427028Y-30850912D01*
X11506752Y-76520601D02*
X11493259Y-76504356D01*
X11419845Y-76377664D02*
X11412505Y-76358030D01*
X23691315Y-30649974D02*
X23708004Y-30638677D01*
X38475929Y-30558350D02*
X38475929Y-30558350D01*
X53172786Y-30600379D02*
X53209144Y-30618118D01*
X65551560Y-76317834D02*
X65539363Y-76357988D01*
X53134947Y-30585583D02*
X53172786Y-30600379D01*
X53336484Y-30715996D02*
X53362979Y-30746567D01*
X38475929Y-82548344D02*
X38475929Y-82548344D01*
X65367174Y-76593115D02*
X65349567Y-76605703D01*
X11427996Y-76396967D02*
X11419845Y-76377664D01*
X23496633Y-30929768D02*
X23502503Y-30909433D01*
X65563174Y-76127803D02*
X65565539Y-76149317D01*
X23779075Y-30600378D02*
X23797821Y-30592604D01*
X55550911Y-38804961D02*
X65550312Y-76063297D01*
X23564849Y-30779339D02*
X23576546Y-30762692D01*
X53598289Y-82548344D02*
X38475929Y-82548344D01*
X11551477Y-76565969D02*
X11535873Y-76551434D01*
X65565539Y-76149317D02*
X65567455Y-76192206D01*
X53427028Y-30850912D02*
X53435238Y-30869980D01*
X11535873Y-76551434D02*
X11520961Y-76536302D01*
X23958669Y-30558789D02*
X23979829Y-30558346D01*
X11405988Y-76338092D02*
X11400305Y-76317877D01*
X23353568Y-82548344D02*
X23353568Y-82548344D01*
X11639457Y-76628766D02*
X11620573Y-76617613D01*
X11395469Y-76297411D02*
X11391490Y-76276721D01*
X53095789Y-30573856D02*
X53134947Y-30585583D01*
X38475929Y-30558350D02*
X52972042Y-30558350D01*
X53435238Y-30869980D02*
X53442688Y-30889485D01*
X23615374Y-30716004D02*
X23629494Y-30701577D01*
X65523875Y-76396927D02*
X65505192Y-76434437D01*
X23553808Y-30796502D02*
X23564849Y-30779339D01*
X65505192Y-76434437D02*
X65483409Y-76470306D01*
X23659377Y-30674524D02*
X23675100Y-30661928D01*
X11620573Y-76617613D02*
X11602320Y-76605729D01*
X53408414Y-30814151D02*
X53418080Y-30832297D01*
X11391490Y-76276721D02*
X11388383Y-76255833D01*
X23916929Y-30562293D02*
X23937696Y-30560110D01*
X23979829Y-30558346D02*
X38475929Y-30558350D01*
X65292927Y-76639141D02*
X65292927Y-76639141D01*
X23760701Y-30608888D02*
X23779075Y-30600378D01*
X23876099Y-30569180D02*
X23896390Y-30565322D01*
X11457193Y-76452628D02*
X11446682Y-76434476D01*
X11388675Y-76127848D02*
X11391991Y-76106323D01*
X65565701Y-76234730D02*
X65560371Y-76276677D01*
X65550312Y-76063297D02*
X65555573Y-76084766D01*
X53387010Y-30779327D02*
X53408414Y-30814151D01*
X23543445Y-30814165D02*
X23553808Y-30796502D01*
X65349567Y-76605703D02*
X65331315Y-76617587D01*
X65458620Y-76504321D02*
X65430922Y-76536269D01*
X11480494Y-76487594D02*
X11468468Y-76470343D01*
X11520961Y-76536302D02*
X11506752Y-76520601D01*
X23516623Y-30869999D02*
X23524832Y-30850929D01*
X52972042Y-30558350D02*
X52993201Y-30558793D01*
X23496633Y-30929768D02*
X23496633Y-30929768D01*
X38475929Y-82548344D02*
X23353568Y-82548344D01*
X11384399Y-76192251D02*
X11384890Y-76170839D01*
X23896390Y-30565322D02*
X23916929Y-30562293D01*
D11*
%TO.P,H1,1,1*%
%TO.N,GND*%
X54356000Y-49606200D03*
%TD*%
%TO.P,H4,1,1*%
%TO.N,GND*%
X15976600Y-74320400D03*
%TD*%
%TO.P,H2,1,1*%
%TO.N,GND*%
X60960000Y-74320400D03*
%TD*%
%TO.P,H3,1,1*%
%TO.N,GND*%
X22758400Y-49555400D03*
%TD*%
%TA.AperFunction,Conductor*%
%TO.N,GND*%
G36*
X38436315Y-31066850D02*
G01*
X52868656Y-31066850D01*
X52936777Y-31086852D01*
X52983270Y-31140508D01*
X52990416Y-31160443D01*
X52990417Y-31160444D01*
X52990418Y-31160448D01*
X55041157Y-38866752D01*
X55041959Y-38870747D01*
X55041935Y-38874682D01*
X55044401Y-38883309D01*
X55044401Y-38883311D01*
X55060951Y-38941215D01*
X55061565Y-38943441D01*
X55068565Y-38969749D01*
X55068570Y-38969765D01*
X55068902Y-38971013D01*
X55069080Y-38971431D01*
X55069188Y-38971783D01*
X58364215Y-51249239D01*
X65030849Y-76089497D01*
X65029188Y-76160474D01*
X64989417Y-76219286D01*
X64965979Y-76234616D01*
X53503912Y-82026303D01*
X53447088Y-82039844D01*
X23504769Y-82039844D01*
X23447945Y-82026303D01*
X11985875Y-76234621D01*
X11934095Y-76186047D01*
X11916797Y-76117190D01*
X11921005Y-76089502D01*
X11921007Y-76089497D01*
X12035577Y-75662604D01*
X14999751Y-75662604D01*
X15004320Y-75669135D01*
X15217336Y-75799671D01*
X15226130Y-75804152D01*
X15458092Y-75900234D01*
X15467477Y-75903283D01*
X15711617Y-75961896D01*
X15721364Y-75963439D01*
X15971670Y-75983139D01*
X15981530Y-75983139D01*
X16231836Y-75963439D01*
X16241583Y-75961896D01*
X16485723Y-75903283D01*
X16495108Y-75900234D01*
X16727070Y-75804152D01*
X16735864Y-75799671D01*
X16947475Y-75669996D01*
X16952299Y-75662604D01*
X59983151Y-75662604D01*
X59987720Y-75669135D01*
X60200736Y-75799671D01*
X60209530Y-75804152D01*
X60441492Y-75900234D01*
X60450877Y-75903283D01*
X60695017Y-75961896D01*
X60704764Y-75963439D01*
X60955070Y-75983139D01*
X60964930Y-75983139D01*
X61215236Y-75963439D01*
X61224983Y-75961896D01*
X61469123Y-75903283D01*
X61478508Y-75900234D01*
X61710470Y-75804152D01*
X61719264Y-75799671D01*
X61930875Y-75669996D01*
X61936922Y-75660730D01*
X61930915Y-75650525D01*
X60972812Y-74692422D01*
X60958868Y-74684808D01*
X60957035Y-74684939D01*
X60950420Y-74689190D01*
X59990544Y-75649066D01*
X59983151Y-75662604D01*
X16952299Y-75662604D01*
X16953522Y-75660730D01*
X16947515Y-75650525D01*
X15989412Y-74692422D01*
X15975468Y-74684808D01*
X15973635Y-74684939D01*
X15967020Y-74689190D01*
X15007144Y-75649066D01*
X14999751Y-75662604D01*
X12035577Y-75662604D01*
X12394475Y-74325330D01*
X14313861Y-74325330D01*
X14333561Y-74575636D01*
X14335104Y-74585383D01*
X14393717Y-74829523D01*
X14396766Y-74838908D01*
X14492848Y-75070870D01*
X14497329Y-75079664D01*
X14627004Y-75291275D01*
X14636270Y-75297322D01*
X14646475Y-75291315D01*
X15604578Y-74333212D01*
X15610956Y-74321532D01*
X16341008Y-74321532D01*
X16341139Y-74323365D01*
X16345390Y-74329980D01*
X17305266Y-75289856D01*
X17318804Y-75297249D01*
X17325335Y-75292680D01*
X17455871Y-75079664D01*
X17460352Y-75070870D01*
X17556434Y-74838908D01*
X17559483Y-74829523D01*
X17618096Y-74585383D01*
X17619639Y-74575636D01*
X17639339Y-74325330D01*
X59297261Y-74325330D01*
X59316961Y-74575636D01*
X59318504Y-74585383D01*
X59377117Y-74829523D01*
X59380166Y-74838908D01*
X59476248Y-75070870D01*
X59480729Y-75079664D01*
X59610404Y-75291275D01*
X59619670Y-75297322D01*
X59629875Y-75291315D01*
X60587978Y-74333212D01*
X60594356Y-74321532D01*
X61324408Y-74321532D01*
X61324539Y-74323365D01*
X61328790Y-74329980D01*
X62288666Y-75289856D01*
X62302204Y-75297249D01*
X62308735Y-75292680D01*
X62439271Y-75079664D01*
X62443752Y-75070870D01*
X62539834Y-74838908D01*
X62542883Y-74829523D01*
X62601496Y-74585383D01*
X62603039Y-74575636D01*
X62622739Y-74325330D01*
X62622739Y-74315470D01*
X62603039Y-74065164D01*
X62601496Y-74055417D01*
X62542883Y-73811277D01*
X62539834Y-73801892D01*
X62443752Y-73569930D01*
X62439271Y-73561136D01*
X62309596Y-73349525D01*
X62300330Y-73343478D01*
X62290125Y-73349485D01*
X61332022Y-74307588D01*
X61324408Y-74321532D01*
X60594356Y-74321532D01*
X60595592Y-74319268D01*
X60595461Y-74317435D01*
X60591210Y-74310820D01*
X59631334Y-73350944D01*
X59617796Y-73343551D01*
X59611265Y-73348120D01*
X59480729Y-73561136D01*
X59476248Y-73569930D01*
X59380166Y-73801892D01*
X59377117Y-73811277D01*
X59318504Y-74055417D01*
X59316961Y-74065164D01*
X59297261Y-74315470D01*
X59297261Y-74325330D01*
X17639339Y-74325330D01*
X17639339Y-74315470D01*
X17619639Y-74065164D01*
X17618096Y-74055417D01*
X17559483Y-73811277D01*
X17556434Y-73801892D01*
X17460352Y-73569930D01*
X17455871Y-73561136D01*
X17326196Y-73349525D01*
X17316930Y-73343478D01*
X17306725Y-73349485D01*
X16348622Y-74307588D01*
X16341008Y-74321532D01*
X15610956Y-74321532D01*
X15612192Y-74319268D01*
X15612061Y-74317435D01*
X15607810Y-74310820D01*
X14647934Y-73350944D01*
X14634396Y-73343551D01*
X14627865Y-73348120D01*
X14497329Y-73561136D01*
X14492848Y-73569930D01*
X14396766Y-73801892D01*
X14393717Y-73811277D01*
X14335104Y-74055417D01*
X14333561Y-74065164D01*
X14313861Y-74315470D01*
X14313861Y-74325330D01*
X12394475Y-74325330D01*
X12755516Y-72980070D01*
X14999678Y-72980070D01*
X15005685Y-72990275D01*
X15963788Y-73948378D01*
X15977732Y-73955992D01*
X15979565Y-73955861D01*
X15986180Y-73951610D01*
X16946056Y-72991734D01*
X16952426Y-72980070D01*
X59983078Y-72980070D01*
X59989085Y-72990275D01*
X60947188Y-73948378D01*
X60961132Y-73955992D01*
X60962965Y-73955861D01*
X60969580Y-73951610D01*
X61929456Y-72991734D01*
X61936849Y-72978196D01*
X61932280Y-72971665D01*
X61719264Y-72841129D01*
X61710470Y-72836648D01*
X61478508Y-72740566D01*
X61469123Y-72737517D01*
X61224983Y-72678904D01*
X61215236Y-72677361D01*
X60964930Y-72657661D01*
X60955070Y-72657661D01*
X60704764Y-72677361D01*
X60695017Y-72678904D01*
X60450877Y-72737517D01*
X60441492Y-72740566D01*
X60209530Y-72836648D01*
X60200736Y-72841129D01*
X59989125Y-72970804D01*
X59983078Y-72980070D01*
X16952426Y-72980070D01*
X16953449Y-72978196D01*
X16948880Y-72971665D01*
X16735864Y-72841129D01*
X16727070Y-72836648D01*
X16495108Y-72740566D01*
X16485723Y-72737517D01*
X16241583Y-72678904D01*
X16231836Y-72677361D01*
X15981530Y-72657661D01*
X15971670Y-72657661D01*
X15721364Y-72677361D01*
X15711617Y-72678904D01*
X15467477Y-72737517D01*
X15458092Y-72740566D01*
X15226130Y-72836648D01*
X15217336Y-72841129D01*
X15005725Y-72970804D01*
X14999678Y-72980070D01*
X12755516Y-72980070D01*
X18682014Y-50897604D01*
X21781551Y-50897604D01*
X21786120Y-50904135D01*
X21999136Y-51034671D01*
X22007930Y-51039152D01*
X22239892Y-51135234D01*
X22249277Y-51138283D01*
X22493417Y-51196896D01*
X22503164Y-51198439D01*
X22753470Y-51218139D01*
X22763330Y-51218139D01*
X23013636Y-51198439D01*
X23023383Y-51196896D01*
X23267523Y-51138283D01*
X23276908Y-51135234D01*
X23508870Y-51039152D01*
X23517664Y-51034671D01*
X23658439Y-50948404D01*
X53379151Y-50948404D01*
X53383720Y-50954935D01*
X53596736Y-51085471D01*
X53605530Y-51089952D01*
X53837492Y-51186034D01*
X53846877Y-51189083D01*
X54091017Y-51247696D01*
X54100764Y-51249239D01*
X54351070Y-51268939D01*
X54360930Y-51268939D01*
X54611236Y-51249239D01*
X54620983Y-51247696D01*
X54865123Y-51189083D01*
X54874508Y-51186034D01*
X55106470Y-51089952D01*
X55115264Y-51085471D01*
X55326875Y-50955796D01*
X55332922Y-50946530D01*
X55326915Y-50936325D01*
X54368812Y-49978222D01*
X54354868Y-49970608D01*
X54353035Y-49970739D01*
X54346420Y-49974990D01*
X53386544Y-50934866D01*
X53379151Y-50948404D01*
X23658439Y-50948404D01*
X23729275Y-50904996D01*
X23735322Y-50895730D01*
X23729315Y-50885525D01*
X22771212Y-49927422D01*
X22757268Y-49919808D01*
X22755435Y-49919939D01*
X22748820Y-49924190D01*
X21788944Y-50884066D01*
X21781551Y-50897604D01*
X18682014Y-50897604D01*
X19040912Y-49560330D01*
X21095661Y-49560330D01*
X21115361Y-49810636D01*
X21116904Y-49820383D01*
X21175517Y-50064523D01*
X21178566Y-50073908D01*
X21274648Y-50305870D01*
X21279129Y-50314664D01*
X21408804Y-50526275D01*
X21418070Y-50532322D01*
X21428275Y-50526315D01*
X22386378Y-49568212D01*
X22392756Y-49556532D01*
X23122808Y-49556532D01*
X23122939Y-49558365D01*
X23127190Y-49564980D01*
X24087066Y-50524856D01*
X24100604Y-50532249D01*
X24107135Y-50527680D01*
X24237671Y-50314664D01*
X24242152Y-50305870D01*
X24338234Y-50073908D01*
X24341283Y-50064523D01*
X24399896Y-49820383D01*
X24401439Y-49810636D01*
X24417141Y-49611130D01*
X52693261Y-49611130D01*
X52712961Y-49861436D01*
X52714504Y-49871183D01*
X52773117Y-50115323D01*
X52776166Y-50124708D01*
X52872248Y-50356670D01*
X52876729Y-50365464D01*
X53006404Y-50577075D01*
X53015670Y-50583122D01*
X53025875Y-50577115D01*
X53983978Y-49619012D01*
X53990356Y-49607332D01*
X54720408Y-49607332D01*
X54720539Y-49609165D01*
X54724790Y-49615780D01*
X55684666Y-50575656D01*
X55698204Y-50583049D01*
X55704735Y-50578480D01*
X55835271Y-50365464D01*
X55839752Y-50356670D01*
X55935834Y-50124708D01*
X55938883Y-50115323D01*
X55997496Y-49871183D01*
X55999039Y-49861436D01*
X56018739Y-49611130D01*
X56018739Y-49601270D01*
X55999039Y-49350964D01*
X55997496Y-49341217D01*
X55938883Y-49097077D01*
X55935834Y-49087692D01*
X55839752Y-48855730D01*
X55835271Y-48846936D01*
X55705596Y-48635325D01*
X55696330Y-48629278D01*
X55686125Y-48635285D01*
X54728022Y-49593388D01*
X54720408Y-49607332D01*
X53990356Y-49607332D01*
X53991592Y-49605068D01*
X53991461Y-49603235D01*
X53987210Y-49596620D01*
X53027334Y-48636744D01*
X53013796Y-48629351D01*
X53007265Y-48633920D01*
X52876729Y-48846936D01*
X52872248Y-48855730D01*
X52776166Y-49087692D01*
X52773117Y-49097077D01*
X52714504Y-49341217D01*
X52712961Y-49350964D01*
X52693261Y-49601270D01*
X52693261Y-49611130D01*
X24417141Y-49611130D01*
X24421139Y-49560330D01*
X24421139Y-49550470D01*
X24401439Y-49300164D01*
X24399896Y-49290417D01*
X24341283Y-49046277D01*
X24338234Y-49036892D01*
X24242152Y-48804930D01*
X24237671Y-48796136D01*
X24107996Y-48584525D01*
X24098730Y-48578478D01*
X24088525Y-48584485D01*
X23130422Y-49542588D01*
X23122808Y-49556532D01*
X22392756Y-49556532D01*
X22393992Y-49554268D01*
X22393861Y-49552435D01*
X22389610Y-49545820D01*
X21429734Y-48585944D01*
X21416196Y-48578551D01*
X21409665Y-48583120D01*
X21279129Y-48796136D01*
X21274648Y-48804930D01*
X21178566Y-49036892D01*
X21175517Y-49046277D01*
X21116904Y-49290417D01*
X21115361Y-49300164D01*
X21095661Y-49550470D01*
X21095661Y-49560330D01*
X19040912Y-49560330D01*
X19401953Y-48215070D01*
X21781478Y-48215070D01*
X21787485Y-48225275D01*
X22745588Y-49183378D01*
X22759532Y-49190992D01*
X22761365Y-49190861D01*
X22767980Y-49186610D01*
X23688720Y-48265870D01*
X53379078Y-48265870D01*
X53385085Y-48276075D01*
X54343188Y-49234178D01*
X54357132Y-49241792D01*
X54358965Y-49241661D01*
X54365580Y-49237410D01*
X55325456Y-48277534D01*
X55332849Y-48263996D01*
X55328280Y-48257465D01*
X55115264Y-48126929D01*
X55106470Y-48122448D01*
X54874508Y-48026366D01*
X54865123Y-48023317D01*
X54620983Y-47964704D01*
X54611236Y-47963161D01*
X54360930Y-47943461D01*
X54351070Y-47943461D01*
X54100764Y-47963161D01*
X54091017Y-47964704D01*
X53846877Y-48023317D01*
X53837492Y-48026366D01*
X53605530Y-48122448D01*
X53596736Y-48126929D01*
X53385125Y-48256604D01*
X53379078Y-48265870D01*
X23688720Y-48265870D01*
X23727856Y-48226734D01*
X23735249Y-48213196D01*
X23730680Y-48206665D01*
X23517664Y-48076129D01*
X23508870Y-48071648D01*
X23276908Y-47975566D01*
X23267523Y-47972517D01*
X23023383Y-47913904D01*
X23013636Y-47912361D01*
X22763330Y-47892661D01*
X22753470Y-47892661D01*
X22503164Y-47912361D01*
X22493417Y-47913904D01*
X22249277Y-47972517D01*
X22239892Y-47975566D01*
X22007930Y-48071648D01*
X21999136Y-48076129D01*
X21787525Y-48205804D01*
X21781478Y-48215070D01*
X19401953Y-48215070D01*
X21881867Y-38974774D01*
X21881974Y-38974426D01*
X21882157Y-38974010D01*
X21889529Y-38946307D01*
X21890555Y-38942678D01*
X21906459Y-38889497D01*
X21909032Y-38880895D01*
X21909071Y-38874502D01*
X21910595Y-38867145D01*
X23961444Y-31160444D01*
X23998291Y-31099758D01*
X24062098Y-31068627D01*
X24083206Y-31066846D01*
X38436315Y-31066850D01*
G37*
%TD.AperFunction*%
%TD*%
D12*
X54356000Y-49606200D03*
X15976600Y-74320400D03*
X60960000Y-74320400D03*
X22758400Y-49555400D03*
M02*
