M48
; DRILL file {KiCad (6.0.6)} date 2022年07月30日 19時55分30秒
; FORMAT={-:-/ absolute / metric / decimal}
; #@! TF.CreationDate,2022-07-30T19:55:30+09:00
; #@! TF.GenerationSoftware,Kicad,Pcbnew,(6.0.6)
; #@! TF.FileFunction,NonPlated,1,2,NPTH
FMAT,2
METRIC
; #@! TA.AperFunction,NonPlated,NPTH,ComponentDrill
T1C1.900
; #@! TA.AperFunction,NonPlated,NPTH,ComponentDrill
T2C3.000
; #@! TA.AperFunction,NonPlated,NPTH,ComponentDrill
T3C4.100
; #@! TA.AperFunction,NonPlated,NPTH,ComponentDrill
T4C4.300
%
G90
G05
T1
X39.805Y-86.259
X43.64Y-67.311
X48.187Y-47.067
X49.959Y-86.613
X53.794Y-67.665
X58.341Y-47.421
X61.249Y-82.281
X65.211Y-63.638
X68.719Y-45.025
X71.187Y-84.394
X75.149Y-65.75
X78.804Y-46.263
X80.375Y-83.831
X84.363Y-65.187
X85.796Y-109.301
X88.325Y-46.543
X90.313Y-85.943
X94.301Y-67.299
X94.849Y-113.914
X98.263Y-48.656
X99.436Y-94.672
X102.789Y-117.937
X103.805Y-76.104
X107.818Y-57.486
X109.25Y-97.301
X111.841Y-122.55
X113.619Y-78.734
X117.318Y-101.428
X117.632Y-60.116
X119.737Y-126.578
X121.687Y-82.886
X126.055Y-64.344
X127.132Y-104.058
X128.79Y-131.191
X131.501Y-85.516
X135.869Y-66.974
X179.802Y-66.974
X184.171Y-85.516
X186.863Y-131.211
X188.539Y-104.083
X189.616Y-64.344
X193.985Y-82.886
X195.915Y-126.599
X198.064Y-60.09
X198.353Y-101.454
X202.078Y-78.759
X203.83Y-122.55
X206.476Y-97.278
X207.878Y-57.461
X211.892Y-76.13
X212.883Y-117.937
X216.29Y-94.648
X217.433Y-48.681
X220.822Y-113.888
X221.37Y-67.299
X225.358Y-85.943
X227.371Y-46.569
X229.875Y-109.276
X231.308Y-65.187
X235.296Y-83.831
X236.867Y-46.237
X240.522Y-65.725
X244.459Y-84.368
X246.952Y-44.999
X250.46Y-63.612
X254.397Y-82.256
X257.33Y-47.421
X261.852Y-67.64
X265.738Y-86.613
X267.484Y-47.067
X272.006Y-67.285
X275.892Y-86.259
T2
X41.163Y-83.765
X44.998Y-64.816
X47.598Y-81.448
X49.545Y-44.573
X51.433Y-62.5
X55.98Y-42.256
X63.019Y-80.061
X66.982Y-61.417
X69.758Y-78.897
X70.29Y-42.658
X73.721Y-60.253
X76.902Y-40.911
X82.145Y-81.61
X86.133Y-62.967
X88.081Y-107.615
X88.885Y-80.446
X90.096Y-44.323
X92.872Y-61.802
X94.892Y-108.234
X96.835Y-43.159
X101.32Y-92.547
X105.073Y-116.251
X105.689Y-73.98
X108.111Y-91.737
X109.702Y-55.361
X111.884Y-116.87
X112.48Y-73.17
X116.493Y-54.551
X119.202Y-99.303
X122.022Y-124.892
X123.571Y-80.761
X125.993Y-98.493
X127.94Y-62.219
X128.833Y-125.512
X130.362Y-79.951
X134.731Y-61.409
X180.371Y-64.192
X184.74Y-82.734
X185.847Y-60.095
X186.841Y-128.372
X189.109Y-101.301
X190.216Y-78.637
X191.346Y-123.226
X194.585Y-97.204
X198.634Y-57.308
X202.647Y-75.977
X203.808Y-119.71
X204.11Y-53.211
X207.046Y-94.496
X208.123Y-71.88
X208.313Y-114.564
X212.522Y-90.399
X218.148Y-45.933
X220.801Y-111.049
X222.085Y-64.551
X223.831Y-42.128
X225.306Y-105.903
X226.072Y-83.194
X227.768Y-60.746
X231.756Y-79.39
X237.818Y-43.562
X241.236Y-62.976
X243.812Y-40.267
X245.173Y-81.62
X246.919Y-59.171
X250.856Y-77.815
X258.511Y-44.839
X263.032Y-65.057
X264.769Y-42.078
X266.918Y-84.031
X269.29Y-62.297
X273.176Y-81.271
T3
X44.882Y-86.436
X48.717Y-67.488
X53.264Y-47.244
X66.218Y-83.337
X70.18Y-64.694
X73.762Y-45.644
X85.344Y-84.887
X89.332Y-66.243
X90.322Y-111.608
X93.294Y-47.6
X104.343Y-95.987
X107.315Y-120.244
X108.712Y-77.419
X112.725Y-58.801
X122.225Y-102.743
X124.263Y-128.885
X126.594Y-84.201
X130.962Y-65.659
X184.709Y-65.659
X189.078Y-84.201
X191.389Y-128.905
X193.446Y-102.768
X202.971Y-58.776
X206.985Y-77.445
X208.356Y-120.244
X211.383Y-95.963
X222.402Y-47.625
X225.349Y-111.582
X226.339Y-66.243
X230.327Y-84.887
X241.91Y-45.618
X245.491Y-64.668
X249.428Y-83.312
X262.407Y-47.244
X266.929Y-67.462
X270.815Y-86.436
T4
X54.56Y-89.24
X63.2Y-53.45
X101.2Y-105.47
X119.28Y-70.03
X131.87Y-120.19
X135.357Y-110.871
X142.011Y-86.157
X173.685Y-86.208
X180.315Y-110.947
X183.79Y-120.21
X196.38Y-70.04
X214.44Y-105.47
X252.43Y-53.45
X261.12Y-89.27
T0
M30
