M48
METRIC,TZ
T1C1.900
T2C3.000
T3C4.100
T4C4.300
%
G90
G05
T1
X39805Y-86259
X43640Y-67311
X48187Y-47067
X49959Y-86613
X53794Y-67665
X58341Y-47421
X61249Y-82281
X65211Y-63638
X68719Y-45025
X71187Y-84394
X75149Y-65750
X78804Y-46263
X80375Y-83831
X84363Y-65187
X85796Y-109301
X88325Y-46543
X90313Y-85943
X94301Y-67299
X94849Y-113914
X98263Y-48656
X99436Y-94672
X102789Y-117937
X103805Y-76104
X107818Y-57486
X109250Y-97301
X111841Y-122550
X113619Y-78734
X117318Y-101428
X117632Y-60116
X119737Y-126578
X121687Y-82886
X126055Y-64344
X127132Y-104058
X128790Y-131191
X131501Y-85516
X135869Y-66974
X179802Y-66974
X184171Y-85516
X186863Y-131211
X188539Y-104083
X189616Y-64344
X193985Y-82886
X195915Y-126599
X198064Y-60090
X198353Y-101454
X202078Y-78759
X203830Y-122550
X206476Y-97278
X207878Y-57461
X211892Y-76130
X212883Y-117937
X216290Y-94648
X217433Y-48681
X220822Y-113888
X221370Y-67299
X225358Y-85943
X227371Y-46569
X229875Y-109276
X231308Y-65187
X235296Y-83831
X236867Y-46237
X240522Y-65725
X244459Y-84368
X246952Y-44999
X250460Y-63612
X254397Y-82256
X257330Y-47421
X261852Y-67640
X265738Y-86613
X267484Y-47067
X272006Y-67285
X275892Y-86259
T2
X41163Y-83765
X44998Y-64816
X47598Y-81448
X49545Y-44573
X51433Y-62500
X55980Y-42256
X63019Y-80061
X66982Y-61417
X69758Y-78897
X70290Y-42658
X73721Y-60253
X76902Y-40911
X82145Y-81610
X86133Y-62967
X88081Y-107615
X88885Y-80446
X90096Y-44323
X92872Y-61802
X94892Y-108234
X96835Y-43159
X101320Y-92547
X105073Y-116251
X105689Y-73980
X108111Y-91737
X109702Y-55361
X111884Y-116870
X112480Y-73170
X116493Y-54551
X119202Y-99303
X122022Y-124892
X123571Y-80761
X125993Y-98493
X127940Y-62219
X128833Y-125512
X130362Y-79951
X134731Y-61409
X180371Y-64192
X184740Y-82734
X185847Y-60095
X186841Y-128372
X189109Y-101301
X190216Y-78637
X191346Y-123226
X194585Y-97204
X198634Y-57308
X202647Y-75977
X203808Y-119710
X204110Y-53211
X207046Y-94496
X208123Y-71880
X208313Y-114564
X212522Y-90399
X218148Y-45933
X220801Y-111049
X222085Y-64551
X223831Y-42128
X225306Y-105903
X226072Y-83194
X227768Y-60746
X231756Y-79390
X237818Y-43562
X241236Y-62976
X243812Y-40267
X245173Y-81620
X246919Y-59171
X250856Y-77815
X258511Y-44839
X263032Y-65057
X264769Y-42078
X266918Y-84031
X269290Y-62297
X273176Y-81271
T3
X44882Y-86436
X48717Y-67488
X53264Y-47244
X66218Y-83337
X70180Y-64694
X73762Y-45644
X85344Y-84887
X89332Y-66243
X90322Y-111608
X93294Y-47600
X104343Y-95987
X107315Y-120244
X108712Y-77419
X112725Y-58801
X122225Y-102743
X124263Y-128885
X126594Y-84201
X130962Y-65659
X184709Y-65659
X189078Y-84201
X191389Y-128905
X193446Y-102768
X202971Y-58776
X206985Y-77445
X208356Y-120244
X211383Y-95963
X222402Y-47625
X225349Y-111582
X226339Y-66243
X230327Y-84887
X241910Y-45618
X245491Y-64668
X249428Y-83312
X262407Y-47244
X266929Y-67462
X270815Y-86436
T4
X54560Y-89240
X63200Y-53450
X101200Y-105470
X119280Y-70030
X131870Y-120190
X135357Y-110871
X142011Y-86157
X173685Y-86208
X180315Y-110947
X183790Y-120210
X196380Y-70040
X214440Y-105470
X252430Y-53450
X261120Y-89270
T0
M30
