M48
METRIC,TZ
T1C0.400
T2C0.813
T3C1.300
%
G90
G05
T1
X46272Y-59848
X47110Y-71020
X51430Y-58620
X51440Y-50960
X51590Y-55400
X52940Y-58900
X57299Y-71260
X57610Y-64680
X57750Y-72340
X58970Y-70420
X59230Y-65030
X59256Y-68844
X77730Y-72340
X80710Y-61690
X81900Y-68890
X82153Y-71557
X83380Y-71760
X84378Y-71416
X95730Y-57110
X96010Y-81110
X96810Y-59540
X97248Y-78882
X97610Y-56470
X99400Y-81290
X101190Y-62450
X101810Y-60610
X102440Y-57600
X102840Y-81240
X110110Y-61720
X115880Y-82954
X116641Y-84559
X124210Y-89220
X128200Y-68770
X130280Y-91350
X131180Y-94740
X131790Y-95990
X132897Y-92548
X133640Y-93290
X140330Y-74816
X142120Y-73117
X146810Y-72040
X151840Y-88220
X167359Y-104015
X168301Y-91249
X181577Y-94313
X182301Y-93579
X182570Y-92226
X187750Y-107930
X189820Y-111950
X194090Y-87611
X195420Y-114110
X200315Y-87105
X202220Y-87900
X203934Y-89634
X204802Y-87742
X207590Y-83929
X214610Y-76770
X215110Y-78400
X215594Y-76511
X216455Y-82725
X216640Y-78660
X218796Y-79826
X219387Y-81418
X224800Y-72319
X231190Y-68796
X237673Y-71644
X238868Y-73427
X239220Y-71700
X248860Y-69890
X256830Y-71660
X258260Y-60640
X258344Y-57510
X258670Y-72430
X259110Y-58870
X260480Y-75290
X264038Y-55364
X265280Y-71190
T2
X150252Y-74927
X150252Y-77467
X150252Y-80007
X150252Y-82547
X150252Y-85087
X150252Y-87627
X150252Y-90167
X150252Y-92707
X150252Y-95247
X150252Y-97787
X150252Y-100327
X150252Y-102867
X165472Y-74927
X165472Y-77467
X165472Y-80007
X165472Y-82547
X165472Y-85087
X165472Y-87627
X165472Y-90167
X165472Y-92707
X165472Y-95247
X165472Y-97787
X165472Y-100327
X165472Y-102867
T3
X144831Y-73966
X144831Y-80466
T0
M30
