<?xml version="1.0"?>
<!DOCTYPE svg PUBLIC "-//W3C//DTD SVG 1.1//EN" "http://www.w3.org/Graphics/SVG/1.1/DTD/svg11.dtd">
<svg width="253.8525703106762mm" height="117.67631889613138mm" viewBox="0 0 253.8525703106762 117.67631889613138" xmlns="http://www.w3.org/2000/svg" version="1.1">
<g id="Sketch217" transform="translate(126.926285,2.621137) scale(1,-1)">
<path id="Sketch217_w0000"  d="M 111.79455527631448 -7.1781426400682244 L 96.80369284426686 -7.701635090681011 L 97.22027053675453 -19.630859424350316 A 3 3 0 0 1 92.4949 -19.0108L 89.481177123861 -4.832538373996532 L 74.8089630820161 -7.951213700499128 L 77.9276384085187 -22.623427742344028 L 92.0226027418593 -19.627450627441185 A 3 3 0 0 1 92.8956 -23.5824L 78.76968078242285 -26.58492550317713 L 81.88835610892546 -41.257139545022035 L 96.56057015077037 -38.13846421851943 L 93.53970444620077 -23.92640827526134 A 3 3 0 0 1 97.3184 -22.4398L 97.32718529487967 -22.692497522728615 L 112.31804772692729 -22.169005072115837 L 111.79455527631448 -7.1781426400682244 " stroke="#000000" stroke-width="0.35 px" style="stroke-width:0.35;stroke-miterlimit:4;stroke-dasharray:none;fill:none;fill-opacity:1;fill-rule: evenodd"/>
<path id="Sketch217_w0001"  d="M 119.32953455219679 -48.27871298897265 L 105.01628275002848 -48.77854275501312 A 3 3 0 0 1 103.672 -44.773L 116.90358424066545 -44.310960390679114 L 116.38009179005265 -29.32009795863153 L 101.38922935800503 -29.843590409244324 L 101.9004686047707 -44.48356699182233 A 3 3 0 1 1 104.368 -49.6498L 104.86216457076199 -63.79306787163307 L 119.8530270028096 -63.26957542102027 L 119.32953455219679 -48.27871298897265 " stroke="#000000" stroke-width="0.35 px" style="stroke-width:0.35;stroke-miterlimit:4;stroke-dasharray:none;fill:none;fill-opacity:1;fill-rule: evenodd"/>
<path id="Sketch217_w0002"  d="M 50.43272334725761 -17.264731174304586 L 35.94383588148014 -21.147016822934386 L 39.69871023679479 -35.160398862838846 A 3 3 0 0 1 35.1734 -37.6L 31.65414726936531 -24.465856730690177 L 17.165259803587855 -28.34814237932 L 21.047545452217665 -42.83702984509746 L 35.43806175563997 -38.98110266965977 A 3 3 0 0 1 40.0341 -40.0924L 43.836579979897124 -54.28331639686543 L 58.32546744567461 -50.401030748235634 L 54.4431817970448 -35.91214328245816 L 40.48256678105901 -39.65287875649817 A 3 3 0 0 1 40.2025 -35.5351L 54.315008995887425 -31.753618640082045 L 50.43272334725761 -17.264731174304586 " stroke="#000000" stroke-width="0.35 px" style="stroke-width:0.35;stroke-miterlimit:4;stroke-dasharray:none;fill:none;fill-opacity:1;fill-rule: evenodd"/>
<path id="Sketch217_w0003"  d="M 70.35041318304269 -65.66515641013486 C 70.47098641630026 -64.78762915268594 69.570891175688 -62.70607322629321 67.35041318304269 -62.665156410134855 C 65.1299351903974 -62.7060732262932 64.22983994978509 -64.78762915268595 64.35041318304269 -65.66515641013486 C 64.22983994978507 -66.54268366758377 65.12993519039742 -68.62423959397647 67.35041318304269 -68.66515641013486 C 69.57089117568795 -68.62423959397644 70.47098641630028 -66.54268366758379 70.35041318304269 -65.66515641013486 " stroke="#000000" stroke-width="0.35 px" style="stroke-width:0.35;stroke-miterlimit:4;stroke-dasharray:none;fill:none;fill-opacity:1;fill-rule: evenodd"/>
<path id="Sketch217_w0004"  d="M 30.747753059747424 -87.42967854054893 C 30.86832629300505 -86.55215128310003 29.9682310523927 -84.47059535670726 27.747753059747424 -84.42967854054893 C 25.527275067102103 -84.47059535670729 24.6271798264898 -86.55215128310002 24.747753059747424 -87.42967854054893 C 24.627179826489797 -88.30720579799787 25.527275067102135 -90.3887617243905 27.747753059747424 -90.42967854054893 C 29.968231052392714 -90.38876172439052 30.86832629300504 -88.30720579799784 30.747753059747424 -87.42967854054893 " stroke="#000000" stroke-width="0.35 px" style="stroke-width:0.35;stroke-miterlimit:4;stroke-dasharray:none;fill:none;fill-opacity:1;fill-rule: evenodd"/>
<path id="Sketch217_w0005"  d="M 25.021476881513667 -79.31326945622266 C 25.14205011477129 -78.43574219877374 24.24195487415895 -76.35418627238101 22.021476881513664 -76.31326945622266 C 19.800998888868342 -76.35418627238101 18.90090364825603 -78.43574219877368 19.021476881513667 -79.31326945622266 C 18.900903648256044 -80.19079671367157 19.800998888868357 -82.27235264006423 22.021476881513667 -82.31326945622266 C 24.24195487415895 -82.27235264006423 25.14205011477126 -80.19079671367155 25.021476881513667 -79.31326945622266 " stroke="#000000" stroke-width="0.35 px" style="stroke-width:0.35;stroke-miterlimit:4;stroke-dasharray:none;fill:none;fill-opacity:1;fill-rule: evenodd"/>
<path id="Sketch217_w0006"  d="M 18.89978146915592 -56.46679087195839 C 19.020354702413545 -55.58926361450947 18.120259461801208 -53.50770768811675 15.899781469155919 -53.46679087195839 C 13.679303476510611 -53.50770768811674 12.779208235898292 -55.58926361450949 12.899781469155919 -56.46679087195839 C 12.779208235898293 -57.34431812940732 13.679303476510619 -59.42587405579996 15.89978146915592 -59.46679087195839 C 18.120259461801208 -59.42587405579998 19.020354702413538 -57.34431812940726 18.89978146915592 -56.46679087195839 " stroke="#000000" stroke-width="0.35 px" style="stroke-width:0.35;stroke-miterlimit:4;stroke-dasharray:none;fill:none;fill-opacity:1;fill-rule: evenodd"/>
<path id="Sketch217_w0007"  d="M 70.33257208351903 -6.370873553390963 L 73.45124741002165 -21.04308759523586 L 58.77903336817676 -24.16176292173846 L 55.66035804167416 -9.48954887989358 L 70.33257208351903 -6.370873553390963 " stroke="#000000" stroke-width="0.35 px" style="stroke-width:0.35;stroke-miterlimit:4;stroke-dasharray:none;fill:none;fill-opacity:1;fill-rule: evenodd"/>
<path id="Sketch217_w0008"  d="M 74.2932897839258 -25.004585356068954 L 77.41196511042841 -39.67679939791384 L 62.73975106858354 -42.79547472441644 L 59.62107574208092 -28.12326068257156 L 74.2932897839258 -25.004585356068954 " stroke="#000000" stroke-width="0.35 px" style="stroke-width:0.35;stroke-miterlimit:4;stroke-dasharray:none;fill:none;fill-opacity:1;fill-rule: evenodd"/>
<path id="Sketch217_w0009"  d="M 78.25400748433256 -43.638297158746965 L 81.37268281083519 -58.31051120059183 L 66.7004687689903 -61.429186527094444 L 63.581793442487694 -46.75697248524958 L 78.25400748433256 -43.638297158746965 " stroke="#000000" stroke-width="0.35 px" style="stroke-width:0.35;stroke-miterlimit:4;stroke-dasharray:none;fill:none;fill-opacity:1;fill-rule: evenodd"/>
<path id="Sketch217_w0010"  d="M 97.40261252467452 -42.09996197935253 L 100.52128785117715 -56.77217602119744 L 85.84907380933225 -59.89085134770002 L 82.73039848282963 -45.21863730585512 L 97.40261252467452 -42.09996197935253 " stroke="#000000" stroke-width="0.35 px" style="stroke-width:0.35;stroke-miterlimit:4;stroke-dasharray:none;fill:none;fill-opacity:1;fill-rule: evenodd"/>
<path id="Sketch217_w0011"  d="M 36.58465013750114 -42.8667436891142 L 40.466935786130946 -57.355631154891654 L 25.978048320353487 -61.23791680352146 L 22.09576267172368 -46.749029337744005 L 36.58465013750114 -42.8667436891142 " stroke="#000000" stroke-width="0.35 px" style="stroke-width:0.35;stroke-miterlimit:4;stroke-dasharray:none;fill:none;fill-opacity:1;fill-rule: evenodd"/>
<path id="Sketch217_w0012"  d="M 58.82165795006679 -54.46094540747009 L 62.7039435986966 -68.94983287324757 L 48.21505613291912 -72.83211852187738 L 44.33277048428933 -58.34323105609991 L 58.82165795006679 -54.46094540747009 " stroke="#000000" stroke-width="0.35 px" style="stroke-width:0.35;stroke-miterlimit:4;stroke-dasharray:none;fill:none;fill-opacity:1;fill-rule: evenodd"/>
<path id="Sketch217_w0013"  d="M 40.96312629575672 -61.41554571426319 L 44.845411944386534 -75.90443318004067 L 30.35652447860905 -79.78671882867049 L 26.47423882997926 -65.29783136289299 L 40.96312629575672 -61.41554571426319 " stroke="#000000" stroke-width="0.35 px" style="stroke-width:0.35;stroke-miterlimit:4;stroke-dasharray:none;fill:none;fill-opacity:1;fill-rule: evenodd"/>
<path id="Sketch217_w0014"  d="M 72.47895065844965 -68.30085254490878 L 79.28880815900169 -81.66595035396571 L 65.92371034994477 -88.47580785451777 L 59.113852849392714 -75.11071004546082 L 72.47895065844965 -68.30085254490878 " stroke="#000000" stroke-width="0.35 px" style="stroke-width:0.35;stroke-miterlimit:4;stroke-dasharray:none;fill:none;fill-opacity:1;fill-rule: evenodd"/>
<path id="Sketch217_w0015"  d="M 55.5052764146971 -76.94937156715015 L 62.31513391524916 -90.31446937620711 L 48.95003610619219 -97.12432687675918 L 42.14017860564016 -83.7592290677022 L 55.5052764146971 -76.94937156715015 " stroke="#000000" stroke-width="0.35 px" style="stroke-width:0.35;stroke-miterlimit:4;stroke-dasharray:none;fill:none;fill-opacity:1;fill-rule: evenodd"/>
<path id="Sketch217_w0016"  d="M 37.78474037237391 -86.46417563891977 L 45.73352931956481 -99.18489716265644 L 33.01280779582816 -107.1336861098473 L 25.06401884863727 -94.41296458611063 L 37.78474037237391 -86.46417563891977 " stroke="#000000" stroke-width="0.35 px" style="stroke-width:0.35;stroke-miterlimit:4;stroke-dasharray:none;fill:none;fill-opacity:1;fill-rule: evenodd"/>
<path id="Sketch217_w0017"  d="M 74.00654538098837 -2.01175435228137 A 1 1 0 0 1 72.8205 -1.24152L 51.30123884056455 -5.815575582424227 A 1 1 0 0 1 50.531 -7.00163L 51.6527586911245 -12.279080885076715 L 31.398409796932082 -17.706217248720538 A 1 1 0 0 1 30.6913 -18.931L 30.974839294738672 -19.989133943634233 L 13.394890311062571 -24.699667019702904 A 2 2 0 0 1 11.9744 -26.138L 10.0 -33.89153456247648 L 10.0 -71.89153456247595 L 0.0 -71.89153456247595 L -10.0 -71.89153456247595 L -10.0 -33.891534562475954 L -11.974378743528789 -26.137984554567588 A 2 2 0 0 1 -13.3949 -24.6997L -30.974839294738672 -19.989133943634233 L -30.691303012034766 -18.93096211796971 A 1 1 0 0 1 -31.3984 -17.7062L -51.6527586911245 -12.279080885076715 L -50.531002927375475 -7.001634871850259 A 1 1 0 0 1 -51.3012 -5.81558L -72.82048609156233 -1.2415184390922895 A 1 1 0 0 1 -74.0065 -2.01175L -74.3135269746317 -3.455989220388873 L -90.99094353059672 0.08890505218365718 A 2 2 0 0 1 -93.3631 -1.45157L -93.75708147168527 -3.3052821546435633 L -114.13598460896341 -2.5936351768600816 A 2 2 0 0 1 -116.205 -4.52262L -116.91262369237388 -24.7987585855183 L -118.7215211227016 -24.7355904954233 A 2 2 0 0 1 -120.79 -26.6646L -121.38513818860885 -43.70418677900089 L -122.67035471186684 -43.65930602911887 A 1 1 0 0 1 -123.705 -44.6238L -124.43753446601775 -65.61100475366915 A 2 2 0 0 1 -122.509 -67.6796L -102.52073523811279 -68.37757533484118 A 2 2 0 0 1 -100.452 -66.4486L -100.27671618377829 -61.42469400739034 L -76.59343477230709 -66.45873080496733 L -84.4353969033631 -81.84944799515638 A 2 2 0 0 1 -83.5605 -84.5399L -51.56854623760049 -100.82081004778715 L -33.27894115163277 -112.27368926392344 A 2 2 0 0 1 -30.5214 -111.638L -18.875177877637665 -93.00060826998231 L -17.267482742535105 -87.00060826998231 L 0.0 -87.00060826998231 L 17.267482742535105 -87.00060826998231 L 18.875177877637665 -93.00060826998231 L 30.521389506600386 -111.63844302982709 A 2 2 0 0 1 33.2789 -112.274L 51.56854623760049 -100.82081004778715 L 83.56048951922364 -84.53988778211034 A 2 2 0 0 1 84.4354 -81.8494L 76.59343477230709 -66.45873080496733 L 100.27671618377829 -61.42469400739034 L 100.45215459078003 -66.44859267408955 A 2 2 0 0 1 102.521 -68.3776L 122.50855180526614 -67.67958540100192 A 2 2 0 0 1 124.438 -65.611L 123.70464503553322 -44.62379735949468 A 1 1 0 0 1 122.67 -43.6593L 121.38513818860885 -43.70418677900089 L 120.79010177003437 -26.66457315617491 A 2 2 0 0 1 118.722 -24.7356L 116.91262369237388 -24.7987585855183 L 116.20456525629618 -4.522617837611692 A 2 2 0 0 1 114.136 -2.59364L 93.75708147168527 -3.3052821546435633 L 93.36306210944879 -1.4515667741945042 A 2 2 0 0 1 90.9909 0.0889051L 74.3135269746317 -3.455989220388873 L 74.00654538098837 -2.01175435228137 " stroke="#000000" stroke-width="0.35 px" style="stroke-width:0.35;stroke-miterlimit:4;stroke-dasharray:none;fill:none;fill-opacity:1;fill-rule: evenodd"/>
<path id="Sketch217_w0018"  d="M 0.0 -76.00153456247595 L -3.999179524961607 -76.00153456247595 A 1 1 0 0 1 -4.99918 -77.0015L -4.9991795249616064 -81.46462739127587 A 1 1 0 0 1 -3.99918 -82.4646L 0.0 -82.46462739127587 L 3.9991795249616064 -82.46462739127587 A 1 1 0 0 1 4.99918 -81.4646L 4.9991795249616064 -77.00153456247595 A 1 1 0 0 1 3.99918 -76.0015L 0.0 -76.00153456247595 " stroke="#000000" stroke-width="0.35 px" style="stroke-width:0.35;stroke-miterlimit:4;stroke-dasharray:none;fill:none;fill-opacity:1;fill-rule: evenodd"/>
<path id="Sketch217_w0019"  d="M -11.0 -40.891534562475854 L -15.0 -40.891534562475854 L -15.0 -51.891534562475854 L -11.0 -51.891534562475854 L -11.0 -40.891534562475854 " stroke="#000000" stroke-width="0.35 px" style="stroke-width:0.35;stroke-miterlimit:4;stroke-dasharray:none;fill:none;fill-opacity:1;fill-rule: evenodd"/>
<path id="Sketch217_w0020"  d="M -89.481177123861 -4.832538373996532 L -92.49486009529367 -19.010802214211715 A 3 3 0 0 1 -97.2203 -19.6309L -96.80369284426686 -7.701635090681011 L -111.79455527631448 -7.1781426400682244 L -112.31804772692729 -22.169005072115837 L -97.32718529487967 -22.692497522728615 L -97.31836164288059 -22.439821188788024 A 3 3 0 0 1 -93.5397 -23.9264L -96.56057015077037 -38.13846421851943 L -81.88835610892546 -41.257139545022035 L -78.76968078242285 -26.58492550317713 L -92.8955618754945 -23.582376828217058 A 3 3 0 0 1 -92.0226 -19.6275L -77.9276384085187 -22.623427742344028 L -74.8089630820161 -7.951213700499128 L -89.481177123861 -4.832538373996532 " stroke="#000000" stroke-width="0.35 px" style="stroke-width:0.35;stroke-miterlimit:4;stroke-dasharray:none;fill:none;fill-opacity:1;fill-rule: evenodd"/>
<path id="Sketch217_w0021"  d="M -116.38009179005265 -29.32009795863153 L -116.90358424066545 -44.310960390679114 L -103.67221405554072 -44.77301001821546 A 3 3 0 0 1 -105.016 -48.7785L -119.32953455219679 -48.27871298897265 L -119.8530270028096 -63.26957542102027 L -104.86216457076199 -63.79306787163307 L -104.36827174758749 -49.649827869380374 A 3 3 0 1 1 -101.9 -44.4836L -101.38922935800503 -29.843590409244324 L -116.38009179005265 -29.32009795863153 " stroke="#000000" stroke-width="0.35 px" style="stroke-width:0.35;stroke-miterlimit:4;stroke-dasharray:none;fill:none;fill-opacity:1;fill-rule: evenodd"/>
<path id="Sketch217_w0022"  d="M -31.65414726936531 -24.465856730690177 L -35.17343894153853 -37.60003221707203 A 3 3 0 0 1 -39.6987 -35.1604L -35.94383588148014 -21.147016822934386 L -50.43272334725761 -17.264731174304586 L -54.315008995887425 -31.753618640082045 L -40.20247110410293 -35.53506172551077 A 3 3 0 0 1 -40.4826 -39.6529L -54.4431817970448 -35.91214328245816 L -58.32546744567461 -50.401030748235634 L -43.836579979897124 -54.28331639686543 L -40.03412283831457 -40.09235297889124 A 3 3 0 0 1 -35.4381 -38.9811L -21.047545452217665 -42.83702984509746 L -17.165259803587855 -28.34814237932 L -31.65414726936531 -24.465856730690177 " stroke="#000000" stroke-width="0.35 px" style="stroke-width:0.35;stroke-miterlimit:4;stroke-dasharray:none;fill:none;fill-opacity:1;fill-rule: evenodd"/>
<path id="Sketch217_w0023"  d="M -64.35041318304269 -65.66515641013486 C -64.22983994978505 -64.78762915268594 -65.12993519039738 -62.70607322629321 -67.35041318304269 -62.665156410134855 C -69.57089117568796 -62.7060732262932 -70.47098641630028 -64.78762915268595 -70.35041318304269 -65.66515641013486 C -70.4709864163003 -66.54268366758377 -69.57089117568802 -68.62423959397647 -67.35041318304269 -68.66515641013486 C -65.12993519039739 -68.62423959397644 -64.22983994978509 -66.54268366758379 -64.35041318304269 -65.66515641013486 " stroke="#000000" stroke-width="0.35 px" style="stroke-width:0.35;stroke-miterlimit:4;stroke-dasharray:none;fill:none;fill-opacity:1;fill-rule: evenodd"/>
<path id="Sketch217_w0024"  d="M -24.747753059747424 -87.42967854054893 C -24.627179826489797 -86.55215128310003 -25.52727506710212 -84.47059535670726 -27.747753059747424 -84.42967854054893 C -29.968231052392696 -84.47059535670729 -30.86832629300505 -86.55215128310002 -30.747753059747424 -87.42967854054893 C -30.868326293005055 -88.30720579799787 -29.968231052392703 -90.3887617243905 -27.747753059747424 -90.42967854054893 C -25.527275067102114 -90.38876172439052 -24.627179826489787 -88.30720579799784 -24.747753059747424 -87.42967854054893 " stroke="#000000" stroke-width="0.35 px" style="stroke-width:0.35;stroke-miterlimit:4;stroke-dasharray:none;fill:none;fill-opacity:1;fill-rule: evenodd"/>
<path id="Sketch217_w0025"  d="M -19.021476881513667 -79.31326945622266 C -18.900903648256048 -78.43574219877374 -19.80099888886835 -76.35418627238101 -22.021476881513667 -76.31326945622266 C -24.241954874158942 -76.35418627238101 -25.142050114771262 -78.43574219877368 -25.021476881513667 -79.31326945622266 C -25.1420501147713 -80.19079671367157 -24.241954874158946 -82.27235264006423 -22.021476881513667 -82.31326945622266 C -19.80099888886835 -82.27235264006423 -18.90090364825602 -80.19079671367155 -19.021476881513667 -79.31326945622266 " stroke="#000000" stroke-width="0.35 px" style="stroke-width:0.35;stroke-miterlimit:4;stroke-dasharray:none;fill:none;fill-opacity:1;fill-rule: evenodd"/>
<path id="Sketch217_w0026"  d="M -12.899781469155919 -56.46679087195839 C -12.779208235898292 -55.58926361450947 -13.679303476510619 -53.50770768811675 -15.899781469155917 -53.46679087195839 C -18.12025946180119 -53.50770768811674 -19.020354702413552 -55.58926361450949 -18.89978146915592 -56.46679087195839 C -19.02035470241355 -57.34431812940732 -18.12025946180121 -59.42587405579996 -15.899781469155919 -59.46679087195839 C -13.679303476510615 -59.42587405579998 -12.77920823589829 -57.34431812940726 -12.899781469155919 -56.46679087195839 " stroke="#000000" stroke-width="0.35 px" style="stroke-width:0.35;stroke-miterlimit:4;stroke-dasharray:none;fill:none;fill-opacity:1;fill-rule: evenodd"/>
<path id="Sketch217_w0027"  d="M -70.33257208351903 -6.370873553390963 L -73.45124741002165 -21.04308759523586 L -58.77903336817676 -24.16176292173846 L -55.66035804167416 -9.48954887989358 L -70.33257208351903 -6.370873553390963 " stroke="#000000" stroke-width="0.35 px" style="stroke-width:0.35;stroke-miterlimit:4;stroke-dasharray:none;fill:none;fill-opacity:1;fill-rule: evenodd"/>
<path id="Sketch217_w0028"  d="M -74.2932897839258 -25.004585356068954 L -77.41196511042841 -39.67679939791384 L -62.73975106858354 -42.79547472441644 L -59.62107574208092 -28.12326068257156 L -74.2932897839258 -25.004585356068954 " stroke="#000000" stroke-width="0.35 px" style="stroke-width:0.35;stroke-miterlimit:4;stroke-dasharray:none;fill:none;fill-opacity:1;fill-rule: evenodd"/>
<path id="Sketch217_w0029"  d="M -78.25400748433256 -43.638297158746965 L -81.37268281083519 -58.31051120059183 L -66.7004687689903 -61.429186527094444 L -63.581793442487694 -46.75697248524958 L -78.25400748433256 -43.638297158746965 " stroke="#000000" stroke-width="0.35 px" style="stroke-width:0.35;stroke-miterlimit:4;stroke-dasharray:none;fill:none;fill-opacity:1;fill-rule: evenodd"/>
<path id="Sketch217_w0030"  d="M -97.40261252467452 -42.09996197935253 L -100.52128785117715 -56.77217602119744 L -85.84907380933225 -59.89085134770002 L -82.73039848282963 -45.21863730585512 L -97.40261252467452 -42.09996197935253 " stroke="#000000" stroke-width="0.35 px" style="stroke-width:0.35;stroke-miterlimit:4;stroke-dasharray:none;fill:none;fill-opacity:1;fill-rule: evenodd"/>
<path id="Sketch217_w0031"  d="M -36.58465013750114 -42.8667436891142 L -40.466935786130946 -57.355631154891654 L -25.978048320353487 -61.23791680352146 L -22.09576267172368 -46.749029337744005 L -36.58465013750114 -42.8667436891142 " stroke="#000000" stroke-width="0.35 px" style="stroke-width:0.35;stroke-miterlimit:4;stroke-dasharray:none;fill:none;fill-opacity:1;fill-rule: evenodd"/>
<path id="Sketch217_w0032"  d="M -58.82165795006679 -54.46094540747009 L -62.7039435986966 -68.94983287324757 L -48.21505613291912 -72.83211852187738 L -44.33277048428933 -58.34323105609991 L -58.82165795006679 -54.46094540747009 " stroke="#000000" stroke-width="0.35 px" style="stroke-width:0.35;stroke-miterlimit:4;stroke-dasharray:none;fill:none;fill-opacity:1;fill-rule: evenodd"/>
<path id="Sketch217_w0033"  d="M -40.96312629575672 -61.41554571426319 L -44.845411944386534 -75.90443318004067 L -30.35652447860905 -79.78671882867049 L -26.47423882997926 -65.29783136289299 L -40.96312629575672 -61.41554571426319 " stroke="#000000" stroke-width="0.35 px" style="stroke-width:0.35;stroke-miterlimit:4;stroke-dasharray:none;fill:none;fill-opacity:1;fill-rule: evenodd"/>
<path id="Sketch217_w0034"  d="M -72.47895065844965 -68.30085254490878 L -79.28880815900169 -81.66595035396571 L -65.92371034994477 -88.47580785451777 L -59.113852849392714 -75.11071004546082 L -72.47895065844965 -68.30085254490878 " stroke="#000000" stroke-width="0.35 px" style="stroke-width:0.35;stroke-miterlimit:4;stroke-dasharray:none;fill:none;fill-opacity:1;fill-rule: evenodd"/>
<path id="Sketch217_w0035"  d="M -55.5052764146971 -76.94937156715015 L -62.31513391524916 -90.31446937620711 L -48.95003610619219 -97.12432687675918 L -42.14017860564016 -83.7592290677022 L -55.5052764146971 -76.94937156715015 " stroke="#000000" stroke-width="0.35 px" style="stroke-width:0.35;stroke-miterlimit:4;stroke-dasharray:none;fill:none;fill-opacity:1;fill-rule: evenodd"/>
<path id="Sketch217_w0036"  d="M -37.78474037237391 -86.46417563891977 L -45.73352931956481 -99.18489716265644 L -33.01280779582816 -107.1336861098473 L -25.06401884863727 -94.41296458611063 L -37.78474037237391 -86.46417563891977 " stroke="#000000" stroke-width="0.35 px" style="stroke-width:0.35;stroke-miterlimit:4;stroke-dasharray:none;fill:none;fill-opacity:1;fill-rule: evenodd"/>
<title>b'Sketch217'</title>
</g>
</svg>