<?xml version="1.0"?>
<!DOCTYPE svg PUBLIC "-//W3C//DTD SVG 1.1//EN" "http://www.w3.org/Graphics/SVG/1.1/DTD/svg11.dtd">
<svg width="129.47752786821508mm" height="115.24998941360977mm" viewBox="0 0 129.47752786821508 115.24998941360977" xmlns="http://www.w3.org/2000/svg" version="1.1">
<g id="Sketch207" transform="translate(3.769388,1.401997) scale(1,-1)">
<path id="Sketch207_w0000"  d="M 93.75708147168527 -3.3052821546435633 L 93.36306210944879 -1.4515667741945042 A 2 2 0 0 1 90.9909 0.0889051L 74.3135269746317 -3.455989220388873 L 74.00654538098837 -2.01175435228137 A 1 1 0 0 1 72.8205 -1.24152L 51.30123884056455 -5.815575582424227 A 1 1 0 0 1 50.531 -7.00163L 51.6527586911245 -12.279080885076715 L 31.398409796932082 -17.706217248720538 A 1 1 0 0 1 30.6913 -18.931L 30.974839294738672 -19.989133943634233 L 13.394890311062571 -24.699667019702904 A 2 2 0 0 1 11.9744 -26.138L 10.0 -33.891534562477005 L 0.0 -33.891534562477005 L -2.4999999999999996 -51.78044935341171 L 2.5000000000000004 -68.78044935341171 L 0.0 -75.680038 L 4.3127882795756705 -75.68003586846172 Q 4.539892268163163 -75.69483987039195 4.572788269175675 -75.92003585886172 L 4.572788269175675 -82.92003557886173 Q 4.557984267245461 -83.14713956744923 4.332788278775666 -83.18003556846173 L 0.0 -83.18003556846173 L 1.9000000000000001 -85.08003799999999 L 0.0 -87.00060826998231 L 17.267482742535105 -87.00060826998231 L 18.875177877637665 -93.00060826998231 L 30.521389506600386 -111.63844302982709 A 2 2 0 0 1 33.2789 -112.274L 51.56854623760049 -100.82081004778715 L 83.56048951922364 -84.53988778211034 A 2 2 0 0 1 84.4354 -81.8494L 76.59343477230709 -66.45873080496733 L 100.27671618377829 -61.42469400739034 L 100.45215459078003 -66.44859267408955 A 2 2 0 0 1 102.521 -68.3776L 122.50855180526614 -67.67958540100192 A 2 2 0 0 1 124.438 -65.611L 123.70464503553322 -44.62379735949468 A 1 1 0 0 1 122.67 -43.6593L 121.38513818860885 -43.70418677900089 L 120.79010177003437 -26.66457315617491 A 2 2 0 0 1 118.722 -24.7356L 116.91262369237388 -24.7987585855183 L 116.20456525629618 -4.522617837611692 A 2 2 0 0 1 114.136 -2.59364L 93.75708147168527 -3.3052821546435633 " stroke="#000000" stroke-width="0.35 px" style="stroke-width:0.35;stroke-miterlimit:4;stroke-dasharray:none;fill:none;fill-opacity:1;fill-rule: evenodd"/>
<path id="Sketch207_w0001"  d="M 105.097313 -30.125181 L 102.670937 -30.274189 L 102.54525435027685 -26.604093831499483 Q 102.50451913504317 -26.380180639429184 102.27703436100566 -26.373313840730702 L 94.213058 -26.65143 L 93.698082 -24.059795 L 93.86991236624064 -24.032438287778653 A 3 3 0 1 1 93.3887 -23.8633L 93.393578 -23.87916 L 90.6938948243313 -24.452995917543404 L 90.49826483215648 -24.494578915880084 L 82.47745515298888 -26.199454847685043 C 81.2456386998024 -26.634190158637953 80.27625279834186 -28.114960698799003 80.37054523726528 -29.417832718949924 L 78.31643531942967 -29.854447701485327 " stroke="#000000" stroke-width="0.35 px" style="stroke-width:0.35;stroke-miterlimit:4;stroke-dasharray:none;fill:none;fill-opacity:1;fill-rule: evenodd"/>
<circle cx="102.32481342857388" cy="-47.45340393524475" r="3.0" stroke="#000000" stroke-width="0.35 px" style="stroke-width:0.35;stroke-miterlimit:4;stroke-dasharray:none;fill:none"/>
<circle cx="66.05982851798535" cy="-67.76452698644322" r="2.5" stroke="#000000" stroke-width="0.35 px" style="stroke-width:0.35;stroke-miterlimit:4;stroke-dasharray:none;fill:none"/>
<circle cx="27.747753059749027" cy="-87.4296785405494" r="2.5" stroke="#000000" stroke-width="0.35 px" style="stroke-width:0.35;stroke-miterlimit:4;stroke-dasharray:none;fill:none"/>
<circle cx="22.02147688151683" cy="-79.3132694562243" r="2.5" stroke="#000000" stroke-width="0.35 px" style="stroke-width:0.35;stroke-miterlimit:4;stroke-dasharray:none;fill:none"/>
<circle cx="15.899781469155913" cy="-56.46679087195837" r="2.5" stroke="#000000" stroke-width="0.35 px" style="stroke-width:0.35;stroke-miterlimit:4;stroke-dasharray:none;fill:none"/>
<circle cx="38.17009023406244" cy="-37.74173977157108" r="2.5" stroke="#000000" stroke-width="0.35 px" style="stroke-width:0.35;stroke-miterlimit:4;stroke-dasharray:none;fill:none"/>
<path id="Sketch207_w0008"  d="M 8.823588099143677 -40.90123725961372 L 6.3535881979436795 -40.90123725961372 Q 6.100300161910827 -40.92794921238087 6.073588209143679 -41.18123724841373 L 6.073588209143679 -71.62123603081372 Q 6.100300161910829 -71.8745240668466 6.3535881979436795 -71.90123601961375 L 8.793588100343669 -71.90123601961372 Q 9.046876136376522 -71.8745240668466 9.07358808914367 -71.62123603081372 L 9.07358808914367 -41.18123724841372 Q 9.046876136376522 -40.92794921238086 8.793588100343669 -40.90123725961372 " stroke="#000000" stroke-width="0.35 px" style="stroke-width:0.35;stroke-miterlimit:4;stroke-dasharray:none;fill:none;fill-opacity:1;fill-rule: evenodd"/>
<path id="Sketch207_w0009"  d="M 67.04658577022369 -59.13729053017157 L 68.50196571200848 -65.98432325629025 " stroke="#000000" stroke-width="0.35 px" style="stroke-width:0.35;stroke-miterlimit:4;stroke-dasharray:none;fill:none;fill-opacity:1;fill-rule: evenodd"/>
<path id="Sketch207_w0010"  d="M 76.13920540651887 -57.184149608297204 L 77.59458534830367 -64.03118233441589 Q 77.62732185630564 -64.25640223020226 77.41388535553168 -64.33539932224721 L 68.80618569983969 -66.16502224906229 " stroke="#000000" stroke-width="0.35 px" style="stroke-width:0.35;stroke-miterlimit:4;stroke-dasharray:none;fill:none;fill-opacity:1;fill-rule: evenodd"/>
<path id="Sketch207_w0011"  d="M 68.50196571200848 -65.98432225629028 Q 68.58096413140798 -66.19776044270382 68.80618569983969 -66.16502124906233 " stroke="#000000" stroke-width="0.35 px" style="stroke-width:0.35;stroke-miterlimit:4;stroke-dasharray:none;fill:none;fill-opacity:1;fill-rule: evenodd"/>
<path id="Sketch207_w0012"  d="M 67.22722576299807 -58.83278554235176 Q 67.01378778930966 -58.91178249983777 67.04652577022608 -59.13700353018305 " stroke="#000000" stroke-width="0.35 px" style="stroke-width:0.35;stroke-miterlimit:4;stroke-dasharray:none;fill:none;fill-opacity:1;fill-rule: evenodd"/>
<path id="Sketch207_w0013"  d="M 93.76413470152167 -34.175161528656766 L 100.156693 -33.957844 L 100.242592 -36.378418 " stroke="#000000" stroke-width="0.35 px" style="stroke-width:0.35;stroke-miterlimit:4;stroke-dasharray:none;fill:none;fill-opacity:1;fill-rule: evenodd"/>
<path id="Sketch207_w0014"  d="M 63.297455 -27.729454 L 61.615864 -28.101665 L 60.30920603971887 -21.9641510170972 Q 60.23020762031935 -21.750712830683643 60.00498605188767 -21.78345202432515 L 51.39728639619568 -23.61307495114024 " stroke="#000000" stroke-width="0.35 px" style="stroke-width:0.35;stroke-miterlimit:4;stroke-dasharray:none;fill:none;fill-opacity:1;fill-rule: evenodd"/>
<path id="Sketch207_w0015"  d="M 52.976186333039664 -30.945023657862286 L 58.602097 -29.758522 L 58.955746 -31.688665 " stroke="#000000" stroke-width="0.35 px" style="stroke-width:0.35;stroke-miterlimit:4;stroke-dasharray:none;fill:none;fill-opacity:1;fill-rule: evenodd"/>
<path id="Sketch207_w0016"  d="M 52.67196634520849 -30.764323665090288 Q 52.750964764607986 -30.977761851503836 52.976186333039664 -30.94502265786234 " stroke="#000000" stroke-width="0.35 px" style="stroke-width:0.35;stroke-miterlimit:4;stroke-dasharray:none;fill:none;fill-opacity:1;fill-rule: evenodd"/>
<path id="Sketch207_w0017"  d="M 38.46878691333566 -77.29505580386092 L 46.30963659970166 -73.29994296366544 Q 46.518708970513856 -73.2100298280755 46.650256586076864 -73.39574695983328 L 49.82819645895927 -79.63279571035133 " stroke="#000000" stroke-width="0.35 px" style="stroke-width:0.35;stroke-miterlimit:4;stroke-dasharray:none;fill:none;fill-opacity:1;fill-rule: evenodd"/>
<path id="Sketch207_w0018"  d="M 38.372976917168074 -77.63567579023612 L 41.55091679005048 -83.87272554075412 " stroke="#000000" stroke-width="0.35 px" style="stroke-width:0.35;stroke-miterlimit:4;stroke-dasharray:none;fill:none;fill-opacity:1;fill-rule: evenodd"/>
<path id="Sketch207_w0019"  d="M 38.468646913341274 -77.29479580387131 Q 38.282931607365555 -77.42634498883854 38.37284691717326 -77.63541579024654 " stroke="#000000" stroke-width="0.35 px" style="stroke-width:0.35;stroke-miterlimit:4;stroke-dasharray:none;fill:none;fill-opacity:1;fill-rule: evenodd"/>
<path id="Sketch207_w0020"  d="M 21.818437579349677 -50.05743089336596 L 23.84687749821208 -49.51391091510676 C 23.68452627945048 -48.21776033019405 24.575083162998915 -46.68828577384272 25.782457420788887 -46.189676048076166 L 33.703047103965275 -44.0673601329688 L 33.89622709623808 -44.01559613503937 L 36.56218698959967 -43.30125516361301 " stroke="#000000" stroke-width="0.35 px" style="stroke-width:0.35;stroke-miterlimit:4;stroke-dasharray:none;fill:none;fill-opacity:1;fill-rule: evenodd"/>
<path id="Sketch207_w0021"  d="M 29.13026728687649 -57.6020645915806 L 28.343457318348868 -54.665649709037204 L 25.503637431941684 -55.42657767860008 Q 25.280445317693783 -55.471051632259076 25.190387444471668 -55.26204868518124 L 24.597687468179686 -53.05007877366005 L 22.77208754120366 -53.53924675409333 Q 22.548888177571207 -53.58372903645717 22.458827553734068 -53.374717760674486 " stroke="#000000" stroke-width="0.35 px" style="stroke-width:0.35;stroke-miterlimit:4;stroke-dasharray:none;fill:none;fill-opacity:1;fill-rule: evenodd"/>
<path id="Sketch207_w0022"  d="M 36.87544697706929 -43.4657851570318 L 37.75283694197367 -46.740273026052286 Q 37.797315915233256 -46.96347074390272 37.58830694855487 -47.05353101352196 L 36.98943697250968 -47.213998007103285 L 38.23435692271286 -51.86010182125912 " stroke="#000000" stroke-width="0.35 px" style="stroke-width:0.35;stroke-miterlimit:4;stroke-dasharray:none;fill:none;fill-opacity:1;fill-rule: evenodd"/>
<path id="Sketch207_w0023"  d="M 35.82829701895528 -56.05579965343121 L 29.44352727434608 -57.76659358499944 " stroke="#000000" stroke-width="0.35 px" style="stroke-width:0.35;stroke-miterlimit:4;stroke-dasharray:none;fill:none;fill-opacity:1;fill-rule: evenodd"/>
<path id="Sketch207_w0024"  d="M 38.06982692929407 -52.17335880872884 L 35.239667042500486 -52.931698778395244 L 35.99282701237408 -55.74254266596148 Q 36.037305985633694 -55.965740383811905 35.82829701895528 -56.05580065343116 " stroke="#000000" stroke-width="0.35 px" style="stroke-width:0.35;stroke-miterlimit:4;stroke-dasharray:none;fill:none;fill-opacity:1;fill-rule: evenodd"/>
<path id="Sketch207_w0025"  d="M 22.456237553837667 -53.36505776106088 L 21.65390758593088 -50.37068788083568 " stroke="#000000" stroke-width="0.35 px" style="stroke-width:0.35;stroke-miterlimit:4;stroke-dasharray:none;fill:none;fill-opacity:1;fill-rule: evenodd"/>
<path id="Sketch207_w0026"  d="M 38.06990692929088 -52.173647808717284 Q 38.27891991164829 -52.0835867981872 38.234436922709676 -51.86038582124777 " stroke="#000000" stroke-width="0.35 px" style="stroke-width:0.35;stroke-miterlimit:4;stroke-dasharray:none;fill:none;fill-opacity:1;fill-rule: evenodd"/>
<path id="Sketch207_w0027"  d="M 29.129987286887683 -57.602140591577566 Q 29.220047910724794 -57.81115186736025 29.443247274357276 -57.76666958499641 " stroke="#000000" stroke-width="0.35 px" style="stroke-width:0.35;stroke-miterlimit:4;stroke-dasharray:none;fill:none;fill-opacity:1;fill-rule: evenodd"/>
<path id="Sketch207_w0028"  d="M 36.87573697705767 -43.46570715703493 Q 36.78567272058514 -43.256688961270726 36.56246698958847 -43.30117916361604 " stroke="#000000" stroke-width="0.35 px" style="stroke-width:0.35;stroke-miterlimit:4;stroke-dasharray:none;fill:none;fill-opacity:1;fill-rule: evenodd"/>
<path id="Sketch207_w0029"  d="M 21.818357579352863 -50.05714689337732 Q 21.609348077286356 -50.14720616929295 21.653827585934067 -50.370403880847036 " stroke="#000000" stroke-width="0.35 px" style="stroke-width:0.35;stroke-miterlimit:4;stroke-dasharray:none;fill:none;fill-opacity:1;fill-rule: evenodd"/>
<path id="Sketch207_w0030"  d="M 39.66843686534966 -43.117431170965965 L 41.696876784212066 -42.57391119270677 C 41.53452556545046 -41.27776060779406 42.425082448998914 -39.74828605144272 43.63245670678887 -39.24967632567617 L 51.55304638996529 -37.127360410568805 L 51.74622638223806 -37.075596412639364 L 54.41218627559968 -36.361255441213004 " stroke="#000000" stroke-width="0.35 px" style="stroke-width:0.35;stroke-miterlimit:4;stroke-dasharray:none;fill:none;fill-opacity:1;fill-rule: evenodd"/>
<path id="Sketch207_w0031"  d="M 46.980266572876474 -50.662064869180604 L 46.19345660434888 -47.72564998663721 L 43.35363671794167 -48.48657795620009 Q 43.1304446036938 -48.53105190985907 43.04038673047168 -48.322048962781246 L 42.44768675417967 -46.110079051260044 L 40.622086827203674 -46.599247031693324 Q 40.3988874635712 -46.643729314057175 40.30882683973408 -46.43471803827448 " stroke="#000000" stroke-width="0.35 px" style="stroke-width:0.35;stroke-miterlimit:4;stroke-dasharray:none;fill:none;fill-opacity:1;fill-rule: evenodd"/>
<path id="Sketch207_w0032"  d="M 54.72544626306927 -36.52578543463181 L 55.60283622797368 -39.80027330365228 Q 55.64731520123328 -40.0234710215027 55.43830623455489 -40.113531291121966 L 54.839436258509664 -40.27399828470328 L 56.084356208712876 -44.920102098859125 " stroke="#000000" stroke-width="0.35 px" style="stroke-width:0.35;stroke-miterlimit:4;stroke-dasharray:none;fill:none;fill-opacity:1;fill-rule: evenodd"/>
<path id="Sketch207_w0033"  d="M 53.67829630495527 -49.115799931031205 L 47.293526560346066 -50.826593862599445 " stroke="#000000" stroke-width="0.35 px" style="stroke-width:0.35;stroke-miterlimit:4;stroke-dasharray:none;fill:none;fill-opacity:1;fill-rule: evenodd"/>
<path id="Sketch207_w0034"  d="M 55.91982621529408 -45.233359086328846 L 53.08966632850047 -45.99169905599524 L 53.842826298374064 -48.802542943561484 Q 53.887305271633664 -49.0257406614119 53.67829630495527 -49.11580093103117 " stroke="#000000" stroke-width="0.35 px" style="stroke-width:0.35;stroke-miterlimit:4;stroke-dasharray:none;fill:none;fill-opacity:1;fill-rule: evenodd"/>
<path id="Sketch207_w0035"  d="M 40.30623683983768 -46.425058038660886 L 39.503906871930866 -43.430688158435686 " stroke="#000000" stroke-width="0.35 px" style="stroke-width:0.35;stroke-miterlimit:4;stroke-dasharray:none;fill:none;fill-opacity:1;fill-rule: evenodd"/>
<path id="Sketch207_w0036"  d="M 55.919906215290865 -45.23364808631729 Q 56.12891919764827 -45.143587075787224 56.08443620870966 -44.920386098847764 " stroke="#000000" stroke-width="0.35 px" style="stroke-width:0.35;stroke-miterlimit:4;stroke-dasharray:none;fill:none;fill-opacity:1;fill-rule: evenodd"/>
<path id="Sketch207_w0037"  d="M 46.97998657288767 -50.66214086917756 Q 47.0700471967248 -50.871152144960256 47.29324656035726 -50.826669862596404 " stroke="#000000" stroke-width="0.35 px" style="stroke-width:0.35;stroke-miterlimit:4;stroke-dasharray:none;fill:none;fill-opacity:1;fill-rule: evenodd"/>
<path id="Sketch207_w0038"  d="M 54.725736263057684 -36.525707434634924 Q 54.63567200658514 -36.31668923887072 54.412466275588486 -36.36117944121604 " stroke="#000000" stroke-width="0.35 px" style="stroke-width:0.35;stroke-miterlimit:4;stroke-dasharray:none;fill:none;fill-opacity:1;fill-rule: evenodd"/>
<path id="Sketch207_w0039"  d="M 39.66835686535288 -43.117147170977326 Q 39.45934736328638 -43.20720644689293 39.50382687193408 -43.43040415844705 " stroke="#000000" stroke-width="0.35 px" style="stroke-width:0.35;stroke-miterlimit:4;stroke-dasharray:none;fill:none;fill-opacity:1;fill-rule: evenodd"/>
<path id="Sketch207_w0040"  d="M 74.33643547862968 -11.234448446285324 L 76.39054539646528 -10.797833463749924 C 76.29625295754188 -9.494961443599008 77.26563885900237 -8.014190903437951 78.49745531218886 -7.579455592485046 L 86.51826499135646 -5.874579660680084 L 86.71389498353128 -5.832996662343405 L 89.41357487554407 -5.259160685296841 " stroke="#000000" stroke-width="0.35 px" style="stroke-width:0.35;stroke-miterlimit:4;stroke-dasharray:none;fill:none;fill-opacity:1;fill-rule: evenodd"/>
<path id="Sketch207_w0041"  d="M 81.24340520235089 -19.151414129606685 L 80.61135522763288 -16.177845248549442 L 77.73559534266329 -16.789106224099005 Q 77.51038077875293 -16.8218379970506 77.43138535483169 -16.608407231326964 L 76.95526537387647 -14.368449320925283 L 75.10656544782447 -14.761403305207125 Q 74.88134348475099 -14.794143163256999 74.80234545999326 -14.580704312435085 " stroke="#000000" stroke-width="0.35 px" style="stroke-width:0.35;stroke-miterlimit:4;stroke-dasharray:none;fill:none;fill-opacity:1;fill-rule: evenodd"/>
<path id="Sketch207_w0042"  d="M 89.7177948633753 -5.439858678068923 L 90.42261483518249 -8.755779545432084 Q 90.45535134318446 -8.980999441218474 90.24191484241047 -9.059996533263405 L 89.63546486666846 -9.188901528107202 L 90.63552482666606 -13.893791339911605 " stroke="#000000" stroke-width="0.35 px" style="stroke-width:0.35;stroke-miterlimit:4;stroke-dasharray:none;fill:none;fill-opacity:1;fill-rule: evenodd"/>
<path id="Sketch207_w0043"  d="M 90.4548248338941 -14.198008327742922 L 87.58885494853288 -14.807190303375645 L 88.19387492433205 -17.653599189519284 Q 88.22661143233405 -17.878819085305672 88.01317493156009 -17.957816177350608 L 81.54762519018206 -19.332113122378725 " stroke="#000000" stroke-width="0.35 px" style="stroke-width:0.35;stroke-miterlimit:4;stroke-dasharray:none;fill:none;fill-opacity:1;fill-rule: evenodd"/>
<path id="Sketch207_w0044"  d="M 74.80026546007647 -14.570923312826324 L 74.15574548585727 -11.538665434116645 " stroke="#000000" stroke-width="0.35 px" style="stroke-width:0.35;stroke-miterlimit:4;stroke-dasharray:none;fill:none;fill-opacity:1;fill-rule: evenodd"/>
<path id="Sketch207_w0045"  d="M 90.45488483389167 -14.198303327731125 Q 90.66832632993733 -14.119304020482344 90.63558482666369 -13.894079339900085 " stroke="#000000" stroke-width="0.35 px" style="stroke-width:0.35;stroke-miterlimit:4;stroke-dasharray:none;fill:none;fill-opacity:1;fill-rule: evenodd"/>
<path id="Sketch207_w0046"  d="M 81.24311520236247 -19.151475129604243 Q 81.32211322712021 -19.364913980426156 81.54733519019365 -19.332174122376294 " stroke="#000000" stroke-width="0.35 px" style="stroke-width:0.35;stroke-miterlimit:4;stroke-dasharray:none;fill:none;fill-opacity:1;fill-rule: evenodd"/>
<path id="Sketch207_w0047"  d="M 89.71808486336366 -5.439796678071403 Q 89.63908534974915 -5.226359971492608 89.41386487553248 -5.25909968529929 " stroke="#000000" stroke-width="0.35 px" style="stroke-width:0.35;stroke-miterlimit:4;stroke-dasharray:none;fill:none;fill-opacity:1;fill-rule: evenodd"/>
<path id="Sketch207_w0048"  d="M 74.33637547863208 -11.234159446296893 Q 74.12293736082289 -11.313157058505025 74.15567548586009 -11.538378434128123 " stroke="#000000" stroke-width="0.35 px" style="stroke-width:0.35;stroke-miterlimit:4;stroke-dasharray:none;fill:none;fill-opacity:1;fill-rule: evenodd"/>
<path id="Sketch207_w0049"  d="M 82.24643516222969 -48.524446954685324 L 84.30054508006529 -48.08783197214993 C 84.20625264114186 -46.784959951999014 85.17563854260239 -45.30418941183795 86.40745499578887 -44.869454100885044 L 94.42826467495647 -43.16457816908009 L 94.62389466713128 -43.1229951707434 L 97.32357455914408 -42.549159193696845 " stroke="#000000" stroke-width="0.35 px" style="stroke-width:0.35;stroke-miterlimit:4;stroke-dasharray:none;fill:none;fill-opacity:1;fill-rule: evenodd"/>
<path id="Sketch207_w0050"  d="M 89.15340488595089 -56.44141263800668 L 88.52135491123286 -53.46784375694944 L 85.6455950262633 -54.079104732499005 Q 85.4203804623529 -54.111836505450626 85.3413850384317 -53.89840573972697 L 84.86526505747648 -51.65844782932528 L 83.01656513142447 -52.05140181360713 Q 82.791343168351 -52.08414167165701 82.7123451435933 -51.870702820835085 " stroke="#000000" stroke-width="0.35 px" style="stroke-width:0.35;stroke-miterlimit:4;stroke-dasharray:none;fill:none;fill-opacity:1;fill-rule: evenodd"/>
<path id="Sketch207_w0051"  d="M 97.62779454697525 -42.72985718646893 L 98.33261451878249 -46.04577805383208 Q 98.36535102678444 -46.270997949618476 98.15191452601047 -46.34999504166342 L 97.54546455026846 -46.478900036507206 L 98.54552451026606 -51.183789848311605 " stroke="#000000" stroke-width="0.35 px" style="stroke-width:0.35;stroke-miterlimit:4;stroke-dasharray:none;fill:none;fill-opacity:1;fill-rule: evenodd"/>
<path id="Sketch207_w0052"  d="M 98.3648245174941 -51.48800683614292 L 95.49885463213289 -52.097188811775645 L 96.10387460793206 -54.94359769791929 Q 96.13661111593409 -55.16881759370567 95.9231746151601 -55.24781468575062 L 89.45762487378207 -56.622111630778726 " stroke="#000000" stroke-width="0.35 px" style="stroke-width:0.35;stroke-miterlimit:4;stroke-dasharray:none;fill:none;fill-opacity:1;fill-rule: evenodd"/>
<path id="Sketch207_w0053"  d="M 82.71026514367648 -51.86092182122633 L 82.0657451694573 -48.82866394251664 " stroke="#000000" stroke-width="0.35 px" style="stroke-width:0.35;stroke-miterlimit:4;stroke-dasharray:none;fill:none;fill-opacity:1;fill-rule: evenodd"/>
<path id="Sketch207_w0054"  d="M 98.36488451749167 -51.48830183613113 Q 98.57832601353736 -51.40930252888236 98.5455845102637 -51.18407784830008 " stroke="#000000" stroke-width="0.35 px" style="stroke-width:0.35;stroke-miterlimit:4;stroke-dasharray:none;fill:none;fill-opacity:1;fill-rule: evenodd"/>
<path id="Sketch207_w0055"  d="M 89.15311488596248 -56.44147363800424 Q 89.23211291072023 -56.65491248882618 89.45733487379366 -56.62217263077626 " stroke="#000000" stroke-width="0.35 px" style="stroke-width:0.35;stroke-miterlimit:4;stroke-dasharray:none;fill:none;fill-opacity:1;fill-rule: evenodd"/>
<path id="Sketch207_w0056"  d="M 97.62808454696366 -42.72979518647141 Q 97.54908503334919 -42.516358479892595 97.32386455913249 -42.549098193699294 " stroke="#000000" stroke-width="0.35 px" style="stroke-width:0.35;stroke-miterlimit:4;stroke-dasharray:none;fill:none;fill-opacity:1;fill-rule: evenodd"/>
<path id="Sketch207_w0057"  d="M 82.24637516223206 -48.5241579546969 Q 82.03293704442288 -48.60315556690504 82.06567516946009 -48.82837694252812 " stroke="#000000" stroke-width="0.35 px" style="stroke-width:0.35;stroke-miterlimit:4;stroke-dasharray:none;fill:none;fill-opacity:1;fill-rule: evenodd"/>
<path id="Sketch207_w0058"  d="M 74.21357548354408 -25.409159879296844 L 71.51389559153128 -25.982995856343404 L 71.31826559935647 -26.024578854680083 L 63.29745592018887 -27.729454786485043 " stroke="#000000" stroke-width="0.35 px" style="stroke-width:0.35;stroke-miterlimit:4;stroke-dasharray:none;fill:none;fill-opacity:1;fill-rule: evenodd"/>
<path id="Sketch207_w0059"  d="M 66.04340581035086 -39.30141332360668 L 65.41135583563289 -36.32784444254944 L 62.535595950663264 -36.939105418099004 Q 62.31038138675292 -36.9718371910506 62.231385962831666 -36.75840642532697 L 61.75526598187648 -34.51844851492528 L 59.90656605582447 -34.91140249920712 Q 59.68134409275099 -34.94414235725701 59.60234606799327 -34.730703506435084 " stroke="#000000" stroke-width="0.35 px" style="stroke-width:0.35;stroke-miterlimit:4;stroke-dasharray:none;fill:none;fill-opacity:1;fill-rule: evenodd"/>
<path id="Sketch207_w0060"  d="M 74.51779547137528 -25.589857872068926 L 75.22261544318246 -28.90577873943208 Q 75.25535195118444 -29.130998635218475 75.04191545041047 -29.209995727263404 L 74.43546547466846 -29.338900722107205 L 75.43552543466606 -34.043790533911604 " stroke="#000000" stroke-width="0.35 px" style="stroke-width:0.35;stroke-miterlimit:4;stroke-dasharray:none;fill:none;fill-opacity:1;fill-rule: evenodd"/>
<path id="Sketch207_w0061"  d="M 75.25482544189407 -34.34800752174292 L 72.38885555653289 -34.957189497375644 L 72.99387553233208 -37.80359838351929 Q 73.02661204033402 -38.02881827930566 72.81317553956006 -38.10781537135061 L 66.34762579818207 -39.482112316378725 " stroke="#000000" stroke-width="0.35 px" style="stroke-width:0.35;stroke-miterlimit:4;stroke-dasharray:none;fill:none;fill-opacity:1;fill-rule: evenodd"/>
<path id="Sketch207_w0062"  d="M 59.60026606807648 -34.72092250682633 L 58.95574609385727 -31.68866462811664 " stroke="#000000" stroke-width="0.35 px" style="stroke-width:0.35;stroke-miterlimit:4;stroke-dasharray:none;fill:none;fill-opacity:1;fill-rule: evenodd"/>
<path id="Sketch207_w0063"  d="M 75.25488544189167 -34.34830252173112 Q 75.46832693793733 -34.26930321448235 75.43558543466366 -34.044078533900084 " stroke="#000000" stroke-width="0.35 px" style="stroke-width:0.35;stroke-miterlimit:4;stroke-dasharray:none;fill:none;fill-opacity:1;fill-rule: evenodd"/>
<path id="Sketch207_w0064"  d="M 66.04311581036248 -39.301474323604246 Q 66.1221138351202 -39.51491317442616 66.34733579819368 -39.48217331637629 " stroke="#000000" stroke-width="0.35 px" style="stroke-width:0.35;stroke-miterlimit:4;stroke-dasharray:none;fill:none;fill-opacity:1;fill-rule: evenodd"/>
<path id="Sketch207_w0065"  d="M 74.51808547136366 -25.589795872071406 Q 74.43908595774917 -25.3763591654926 74.21386548353249 -25.409098879299293 " stroke="#000000" stroke-width="0.35 px" style="stroke-width:0.35;stroke-miterlimit:4;stroke-dasharray:none;fill:none;fill-opacity:1;fill-rule: evenodd"/>
<path id="Sketch207_w0066"  d="M 85.22340504315085 -37.771413384806685 L 84.59135506843288 -34.797844503749445 L 81.71559518346325 -35.409105479299 Q 81.49038061955294 -35.44183725225061 81.41138519563168 -35.228406486526964 L 80.93526521467646 -32.988448576125286 L 79.08656528862448 -33.381402560407125 Q 78.861343325551 -33.41414241845699 78.78234530079328 -33.20070356763508 " stroke="#000000" stroke-width="0.35 px" style="stroke-width:0.35;stroke-miterlimit:4;stroke-dasharray:none;fill:none;fill-opacity:1;fill-rule: evenodd"/>
<path id="Sketch207_w0067"  d="M 93.764137 -34.175163 L 91.773697 -34.308723 L 92.17387476513207 -36.27359844471928 Q 92.20661127313399 -36.498818340505665 91.99317477236005 -36.5778154325506 L 85.52762503098208 -37.95211237757872 " stroke="#000000" stroke-width="0.35 px" style="stroke-width:0.35;stroke-miterlimit:4;stroke-dasharray:none;fill:none;fill-opacity:1;fill-rule: evenodd"/>
<path id="Sketch207_w0068"  d="M 78.78026530087647 -33.19092256802632 L 78.13574532665729 -30.158664689316645 " stroke="#000000" stroke-width="0.35 px" style="stroke-width:0.35;stroke-miterlimit:4;stroke-dasharray:none;fill:none;fill-opacity:1;fill-rule: evenodd"/>
<path id="Sketch207_w0069"  d="M 85.2231150431625 -37.77147438480424 Q 85.30211306792022 -37.984913235626166 85.52733503099367 -37.952173377576294 " stroke="#000000" stroke-width="0.35 px" style="stroke-width:0.35;stroke-miterlimit:4;stroke-dasharray:none;fill:none;fill-opacity:1;fill-rule: evenodd"/>
<path id="Sketch207_w0070"  d="M 78.31637531943207 -29.854158701496893 Q 78.10293720162291 -29.933156313705023 78.13567532666008 -30.158377689328127 " stroke="#000000" stroke-width="0.35 px" style="stroke-width:0.35;stroke-miterlimit:4;stroke-dasharray:none;fill:none;fill-opacity:1;fill-rule: evenodd"/>
<path id="Sketch207_w0071"  d="M 95.7674346213897 -10.853295461531445 L 97.86615453744085 -10.780006464463003 C 97.99953442015835 -9.480555180695823 99.21132257809998 -8.190612446996113 100.49991443209049 -7.9763815766079915 L 108.69491410429046 -7.6902055880550435 L 108.89479409629527 -7.683225588334242 L 111.65311398596245 -7.586903592187124 " stroke="#000000" stroke-width="0.35 px" style="stroke-width:0.35;stroke-miterlimit:4;stroke-dasharray:none;fill:none;fill-opacity:1;fill-rule: evenodd"/>
<path id="Sketch207_w0072"  d="M 101.19469440429927 -19.849366101688602 L 101.08860440854286 -16.811218223214524 L 98.15039452607127 -16.913823219110323 Q 97.92290975203385 -16.90695642041182 97.88217453680008 -16.683043228341525 L 97.80225453999688 -14.394438319885722 L 95.91340461555089 -14.460398317247325 Q 95.68592754301089 -14.453524332846033 95.64519462627928 -14.229618326478523 " stroke="#000000" stroke-width="0.35 px" style="stroke-width:0.35;stroke-miterlimit:4;stroke-dasharray:none;fill:none;fill-opacity:1;fill-rule: evenodd"/>
<path id="Sketch207_w0073"  d="M 111.9213339752337 -7.817683582955922 L 112.03964397050126 -11.205618447438525 Q 112.03277443028593 -11.433100407007151 111.80886397973248 -11.473835436709852 L 111.18924400451729 -11.495473435844325 L 111.35710399780285 -16.302543243561523 " stroke="#000000" stroke-width="0.35 px" style="stroke-width:0.35;stroke-miterlimit:4;stroke-dasharray:none;fill:none;fill-opacity:1;fill-rule: evenodd"/>
<path id="Sketch207_w0074"  d="M 111.12632400703407 -16.570760232832843 L 108.19811412416246 -16.673016228742604 L 108.29966412010046 -19.581243112413524 Q 108.29279529845961 -19.808725842132343 108.06888412933168 -19.84946110168481 L 101.46291439357046 -20.080146092457404 " stroke="#000000" stroke-width="0.35 px" style="stroke-width:0.35;stroke-miterlimit:4;stroke-dasharray:none;fill:none;fill-opacity:1;fill-rule: evenodd"/>
<path id="Sketch207_w0075"  d="M 95.64484462629329 -14.219624326878282 L 95.53665463062086 -11.121512450802765 " stroke="#000000" stroke-width="0.35 px" style="stroke-width:0.35;stroke-miterlimit:4;stroke-dasharray:none;fill:none;fill-opacity:1;fill-rule: evenodd"/>
<path id="Sketch207_w0076"  d="M 111.12633400703365 -16.571060232820845 Q 111.3502487690889 -16.53032382403663 111.35711399780249 -16.302837243549764 " stroke="#000000" stroke-width="0.35 px" style="stroke-width:0.35;stroke-miterlimit:4;stroke-dasharray:none;fill:none;fill-opacity:1;fill-rule: evenodd"/>
<path id="Sketch207_w0077"  d="M 101.19440440431086 -19.849377101688162 Q 101.23513975257642 -20.07329010939118 101.4626243935821 -20.08015609245703 " stroke="#000000" stroke-width="0.35 px" style="stroke-width:0.35;stroke-miterlimit:4;stroke-dasharray:none;fill:none;fill-opacity:1;fill-rule: evenodd"/>
<path id="Sketch207_w0078"  d="M 111.92163397522168 -7.817672582956362 Q 111.88089532050337 -7.593753560812782 111.65340398595086 -7.586893592187526 " stroke="#000000" stroke-width="0.35 px" style="stroke-width:0.35;stroke-miterlimit:4;stroke-dasharray:none;fill:none;fill-opacity:1;fill-rule: evenodd"/>
<path id="Sketch207_w0079"  d="M 95.76742462139006 -10.853001461543197 Q 95.54351286648965 -10.893736217085623 95.53664463062128 -11.121219450814483 " stroke="#000000" stroke-width="0.35 px" style="stroke-width:0.35;stroke-miterlimit:4;stroke-dasharray:none;fill:none;fill-opacity:1;fill-rule: evenodd"/>
<path id="Sketch207_w0080"  d="M 55.56506622948447 -77.36671580099453 L 53.105886327851664 -78.61973575087373 L 52.92768633497968 -78.71053574724172 " stroke="#000000" stroke-width="0.35 px" style="stroke-width:0.35;stroke-miterlimit:4;stroke-dasharray:none;fill:none;fill-opacity:1;fill-rule: evenodd"/>
<path id="Sketch207_w0081"  d="M 51.26885640133287 -92.90020517965493 L 49.88872645653808 -90.19154528800132 L 47.269166561320475 -91.52627523461211 Q 47.060095759912485 -91.61619054441981 46.92854657494527 -91.43047523844413 L 45.888906616530875 -89.39006532006053 L 44.20490668389087 -90.24810528573892 Q 43.99583588248289 -90.33802059554661 43.864286697515666 -90.15230528957093 " stroke="#000000" stroke-width="0.35 px" style="stroke-width:0.35;stroke-miterlimit:4;stroke-dasharray:none;fill:none;fill-opacity:1;fill-rule: evenodd"/>
<path id="Sketch207_w0082"  d="M 55.905686215859674 -77.46252579716213 L 57.44470615429887 -80.48303567634173 Q 57.53462072021692 -80.69210626852936 57.34890615813089 -80.82365566271693 L 56.796486180227674 -81.10512565145812 L 58.98017609288007 -85.39087548002813 " stroke="#000000" stroke-width="0.35 px" style="stroke-width:0.35;stroke-miterlimit:4;stroke-dasharray:none;fill:none;fill-opacity:1;fill-rule: evenodd"/>
<path id="Sketch207_w0083"  d="M 58.88437609671209 -85.73148546640373 L 56.27372620113809 -87.06168541319573 L 57.594836148293666 -89.65451530948252 Q 57.68474713843678 -89.86359034826938 57.49902615212608 -89.99513529585772 L 51.60947638770807 -92.99600517582292 " stroke="#000000" stroke-width="0.35 px" style="stroke-width:0.35;stroke-miterlimit:4;stroke-dasharray:none;fill:none;fill-opacity:1;fill-rule: evenodd"/>
<path id="Sketch207_w0084"  d="M 42.54818675015969 -87.04065541403693 L 43.032227 -86.793709 L 41.550919 -83.872726 " stroke="#000000" stroke-width="0.35 px" style="stroke-width:0.35;stroke-miterlimit:4;stroke-dasharray:none;fill:none;fill-opacity:1;fill-rule: evenodd"/>
<path id="Sketch207_w0085"  d="M 43.85974669769726 -90.14339528992733 L 42.45237675399207 -87.38127540041212 " stroke="#000000" stroke-width="0.35 px" style="stroke-width:0.35;stroke-miterlimit:4;stroke-dasharray:none;fill:none;fill-opacity:1;fill-rule: evenodd"/>
<path id="Sketch207_w0086"  d="M 58.88450609670687 -85.73175546639293 Q 59.070220658792934 -85.60020607220537 58.98030609287488 -85.39113548001772 " stroke="#000000" stroke-width="0.35 px" style="stroke-width:0.35;stroke-miterlimit:4;stroke-dasharray:none;fill:none;fill-opacity:1;fill-rule: evenodd"/>
<path id="Sketch207_w0087"  d="M 51.268596401343274 -92.90033517964972 Q 51.400141139685886 -93.0860569098628 51.609216387718476 -92.99614517581733 " stroke="#000000" stroke-width="0.35 px" style="stroke-width:0.35;stroke-miterlimit:4;stroke-dasharray:none;fill:none;fill-opacity:1;fill-rule: evenodd"/>
<path id="Sketch207_w0088"  d="M 55.90594621584924 -77.46238579716774 Q 55.77439682166171 -77.27667123508168 55.56532622947407 -77.3665858009997 " stroke="#000000" stroke-width="0.35 px" style="stroke-width:0.35;stroke-miterlimit:4;stroke-dasharray:none;fill:none;fill-opacity:1;fill-rule: evenodd"/>
<path id="Sketch207_w0089"  d="M 42.54804675016527 -87.04039541404731 Q 42.36233144418955 -87.17194459901455 42.45224675399729 -87.38101540042253 " stroke="#000000" stroke-width="0.35 px" style="stroke-width:0.35;stroke-miterlimit:4;stroke-dasharray:none;fill:none;fill-opacity:1;fill-rule: evenodd"/>
<path id="Sketch207_w0090"  d="M 26.208437403749684 -68.59743015176596 L 28.236877322612088 -68.05391017350676 C 28.074526103850488 -66.75775958859404 28.965082987398908 -65.2282850322427 30.172457245188866 -64.72967530647617 L 38.09304692836528 -62.6073593913688 L 38.286226920638086 -62.55559539343936 L 40.952186813999674 -61.84125442201301 " stroke="#000000" stroke-width="0.35 px" style="stroke-width:0.35;stroke-miterlimit:4;stroke-dasharray:none;fill:none;fill-opacity:1;fill-rule: evenodd"/>
<path id="Sketch207_w0091"  d="M 33.52026711127647 -76.14206584998053 L 32.733457142748875 -73.20564896743721 L 29.893637256341663 -73.96657693700008 Q 29.67044514209379 -74.01105089065906 29.580387268871675 -73.80204794358124 L 28.987687292579665 -71.59007803206003 L 27.162087365603668 -72.07924601249331 Q 26.938888001971193 -72.1237282948572 26.848827378134075 -71.91471701907449 " stroke="#000000" stroke-width="0.35 px" style="stroke-width:0.35;stroke-miterlimit:4;stroke-dasharray:none;fill:none;fill-opacity:1;fill-rule: evenodd"/>
<path id="Sketch207_w0092"  d="M 41.26544680146927 -62.005784415431805 L 42.14283676637368 -65.28027228445228 Q 42.18731573963328 -65.50347000230272 41.97830677295488 -65.59353027192196 L 41.37943679690969 -65.75399726550329 L 42.62435674711287 -70.40010107965912 " stroke="#000000" stroke-width="0.35 px" style="stroke-width:0.35;stroke-miterlimit:4;stroke-dasharray:none;fill:none;fill-opacity:1;fill-rule: evenodd"/>
<path id="Sketch207_w0093"  d="M 40.21829684335526 -74.5957989118312 L 33.83352709874609 -76.30659584339932 " stroke="#000000" stroke-width="0.35 px" style="stroke-width:0.35;stroke-miterlimit:4;stroke-dasharray:none;fill:none;fill-opacity:1;fill-rule: evenodd"/>
<path id="Sketch207_w0094"  d="M 42.459826753694074 -70.71335806712884 L 39.629666866900465 -71.47169803679525 L 40.382826836774086 -74.28254192436148 Q 40.42730581003369 -74.50573964221192 40.21829684335526 -74.59579991183116 " stroke="#000000" stroke-width="0.35 px" style="stroke-width:0.35;stroke-miterlimit:4;stroke-dasharray:none;fill:none;fill-opacity:1;fill-rule: evenodd"/>
<path id="Sketch207_w0095"  d="M 26.846237378237674 -71.90505701946088 L 26.04390741033089 -68.91068713923568 " stroke="#000000" stroke-width="0.35 px" style="stroke-width:0.35;stroke-miterlimit:4;stroke-dasharray:none;fill:none;fill-opacity:1;fill-rule: evenodd"/>
<path id="Sketch207_w0096"  d="M 42.45990675369089 -70.71364706711728 Q 42.668919736048295 -70.62358605658721 42.624436747109684 -70.40038507964778 " stroke="#000000" stroke-width="0.35 px" style="stroke-width:0.35;stroke-miterlimit:4;stroke-dasharray:none;fill:none;fill-opacity:1;fill-rule: evenodd"/>
<path id="Sketch207_w0097"  d="M 33.51998711128766 -76.14213584997773 Q 33.610047212374624 -76.35114785070384 33.83324709875728 -76.3066658433965 " stroke="#000000" stroke-width="0.35 px" style="stroke-width:0.35;stroke-miterlimit:4;stroke-dasharray:none;fill:none;fill-opacity:1;fill-rule: evenodd"/>
<path id="Sketch207_w0098"  d="M 41.26573680145768 -62.00570641543493 Q 41.17567254498512 -61.79668821967071 40.95246681398848 -61.84117842201604 " stroke="#000000" stroke-width="0.35 px" style="stroke-width:0.35;stroke-miterlimit:4;stroke-dasharray:none;fill:none;fill-opacity:1;fill-rule: evenodd"/>
<path id="Sketch207_w0099"  d="M 26.20835740375287 -68.59714615177732 Q 25.999347901686363 -68.68720542769294 26.043827410334075 -68.91040313924705 " stroke="#000000" stroke-width="0.35 px" style="stroke-width:0.35;stroke-miterlimit:4;stroke-dasharray:none;fill:none;fill-opacity:1;fill-rule: evenodd"/>
<path id="Sketch207_w0100"  d="M 59.52818607095966 -78.40065575963692 L 61.399295996115285 -77.44727579777212 C 60.971006431012434 -76.21320508702058 61.524104211051316 -74.53199635218076 62.601425948030084 -73.793253943933 L 69.90768565577969 -70.07053109284192 L 70.08588564865167 -69.97973309647384 L 72.54506555028448 -68.72672014659436 " stroke="#000000" stroke-width="0.35 px" style="stroke-width:0.35;stroke-miterlimit:4;stroke-dasharray:none;fill:none;fill-opacity:1;fill-rule: evenodd"/>
<path id="Sketch207_w0101"  d="M 68.24885572213287 -84.26020552525492 L 66.86872577733808 -81.55154563360132 L 64.24916588212048 -82.88627558021213 Q 64.04009508071249 -82.97619089001981 63.90854589574528 -82.79047558404412 L 62.86890593733088 -80.75006566566051 L 61.18490600469087 -81.60810563133893 Q 60.975835203282884 -81.69802094114664 60.84428601831567 -81.51230563517092 " stroke="#000000" stroke-width="0.35 px" style="stroke-width:0.35;stroke-miterlimit:4;stroke-dasharray:none;fill:none;fill-opacity:1;fill-rule: evenodd"/>
<path id="Sketch207_w0102"  d="M 72.88568553665968 -68.8225241427622 L 74.42470547509888 -71.84303602194173 Q 74.51461913005923 -72.05210597171472 74.32890547893086 -72.18365500831698 L 73.77648550102768 -72.465128997058 L 75.96017541368008 -76.75087582562813 " stroke="#000000" stroke-width="0.35 px" style="stroke-width:0.35;stroke-miterlimit:4;stroke-dasharray:none;fill:none;fill-opacity:1;fill-rule: evenodd"/>
<path id="Sketch207_w0103"  d="M 75.86437541751206 -77.09148581200373 L 73.25372552193807 -78.42168575879572 L 74.57483546909367 -81.01451565508253 Q 74.6647464592368 -81.22359069386937 74.47902547292608 -81.35513564145774 L 68.58947570850808 -84.35600552142293 " stroke="#000000" stroke-width="0.35 px" style="stroke-width:0.35;stroke-miterlimit:4;stroke-dasharray:none;fill:none;fill-opacity:1;fill-rule: evenodd"/>
<path id="Sketch207_w0104"  d="M 60.839746018497266 -81.50339563552733 L 59.432376074792074 -78.74127574601212 " stroke="#000000" stroke-width="0.35 px" style="stroke-width:0.35;stroke-miterlimit:4;stroke-dasharray:none;fill:none;fill-opacity:1;fill-rule: evenodd"/>
<path id="Sketch207_w0105"  d="M 75.86450541750688 -77.09175581199293 Q 76.05021997959295 -76.96020641780538 75.96030541367489 -76.75113582561772 " stroke="#000000" stroke-width="0.35 px" style="stroke-width:0.35;stroke-miterlimit:4;stroke-dasharray:none;fill:none;fill-opacity:1;fill-rule: evenodd"/>
<path id="Sketch207_w0106"  d="M 68.24859572214328 -84.26033552524973 Q 68.3801404604859 -84.44605725546279 68.58921570851848 -84.35614552141732 " stroke="#000000" stroke-width="0.35 px" style="stroke-width:0.35;stroke-miterlimit:4;stroke-dasharray:none;fill:none;fill-opacity:1;fill-rule: evenodd"/>
<path id="Sketch207_w0107"  d="M 72.88594553664927 -68.82238714276768 Q 72.75439658711596 -68.63667193826598 72.54532555027407 -68.72658614659973 " stroke="#000000" stroke-width="0.35 px" style="stroke-width:0.35;stroke-miterlimit:4;stroke-dasharray:none;fill:none;fill-opacity:1;fill-rule: evenodd"/>
<path id="Sketch207_w0108"  d="M 59.528046070965274 -78.40039575964731 Q 59.34233076498957 -78.53194494461454 59.43224607479726 -78.74101574602254 " stroke="#000000" stroke-width="0.35 px" style="stroke-width:0.35;stroke-miterlimit:4;stroke-dasharray:none;fill:none;fill-opacity:1;fill-rule: evenodd"/>
<path id="Sketch207_w0109"  d="M 116.25051380206648 -29.735702706235124 L 113.4921939123993 -29.832024702382242 L 113.29231392039449 -29.839004702103047 L 105.09731424819446 -30.125180690656002 " stroke="#000000" stroke-width="0.35 px" style="stroke-width:0.35;stroke-miterlimit:4;stroke-dasharray:none;fill:none;fill-opacity:1;fill-rule: evenodd"/>
<path id="Sketch207_w0110"  d="M 105.7920942204033 -41.998165215736606 L 105.6860042246469 -38.96001733726253 L 102.7477943421753 -39.06262233315832 Q 102.52030956813779 -39.05575553445982 102.47957435290405 -38.831842342389514 L 102.39965435610085 -36.543237433933726 L 100.51080443165486 -36.60919743129532 Q 100.28332735911495 -36.60232344689403 100.24259444238325 -36.378417440526526 " stroke="#000000" stroke-width="0.35 px" style="stroke-width:0.35;stroke-miterlimit:4;stroke-dasharray:none;fill:none;fill-opacity:1;fill-rule: evenodd"/>
<path id="Sketch207_w0111"  d="M 116.51873379133767 -29.966482697003926 L 116.63704378660529 -33.35441756148652 Q 116.63017424638998 -33.58189952105516 116.40626379583645 -33.62263455075785 L 115.78664382062126 -33.64427254989232 L 115.95450381390688 -38.451342357609526 " stroke="#000000" stroke-width="0.35 px" style="stroke-width:0.35;stroke-miterlimit:4;stroke-dasharray:none;fill:none;fill-opacity:1;fill-rule: evenodd"/>
<path id="Sketch207_w0112"  d="M 115.7237238231381 -38.71955934688084 L 112.79551394026649 -38.82181534279061 L 112.89706393620449 -41.73004222646152 Q 112.89019511456367 -41.95752495618034 112.66628394543565 -41.9982602157328 L 106.06031420967449 -42.2289452065054 " stroke="#000000" stroke-width="0.35 px" style="stroke-width:0.35;stroke-miterlimit:4;stroke-dasharray:none;fill:none;fill-opacity:1;fill-rule: evenodd"/>
<path id="Sketch207_w0113"  d="M 115.72373382313768 -38.719859346868844 Q 115.94764858519291 -38.679122938084625 115.95451381390646 -38.45163635759776 " stroke="#000000" stroke-width="0.35 px" style="stroke-width:0.35;stroke-miterlimit:4;stroke-dasharray:none;fill:none;fill-opacity:1;fill-rule: evenodd"/>
<path id="Sketch207_w0114"  d="M 105.79180422041489 -41.998176215736166 Q 105.83253956868042 -42.22208922343919 106.06002420968608 -42.22895520650502 " stroke="#000000" stroke-width="0.35 px" style="stroke-width:0.35;stroke-miterlimit:4;stroke-dasharray:none;fill:none;fill-opacity:1;fill-rule: evenodd"/>
<path id="Sketch207_w0115"  d="M 116.51903379132565 -29.966471697004366 Q 116.47829513660734 -29.742552674860775 116.25080380205489 -29.735692706235525 " stroke="#000000" stroke-width="0.35 px" style="stroke-width:0.35;stroke-miterlimit:4;stroke-dasharray:none;fill:none;fill-opacity:1;fill-rule: evenodd"/>
<path id="Sketch207_w0116"  d="M 35.64843702614968 -24.437431918165963 L 37.67687694501208 -23.893911939906765 C 37.51452572625048 -22.597761354994066 38.40508260979891 -21.068286798642706 39.61245686758886 -20.569677072876164 L 47.53304655076528 -18.447361157768803 L 47.72622654303808 -18.395597159839365 L 50.39218643639967 -17.681256188413002 " stroke="#000000" stroke-width="0.35 px" style="stroke-width:0.35;stroke-miterlimit:4;stroke-dasharray:none;fill:none;fill-opacity:1;fill-rule: evenodd"/>
<path id="Sketch207_w0117"  d="M 42.96026673367646 -31.982065616380602 L 42.17345676514887 -29.045650733837206 L 39.333636878741686 -29.806578703400085 Q 39.11044476449379 -29.851052657059075 39.02038689127167 -29.642049709981244 L 38.42768691497969 -27.430079798460042 L 36.60208698800366 -27.91924777889332 Q 36.37888762437122 -27.963730061257188 36.28882700053407 -27.75471878547448 " stroke="#000000" stroke-width="0.35 px" style="stroke-width:0.35;stroke-miterlimit:4;stroke-dasharray:none;fill:none;fill-opacity:1;fill-rule: evenodd"/>
<path id="Sketch207_w0118"  d="M 50.70544642386926 -17.845786181831805 L 51.58283638877367 -21.120274050852284 Q 51.62731536203327 -21.34347176870271 51.418306395354875 -21.433532038321964 L 50.81943641930968 -21.593999031903284 " stroke="#000000" stroke-width="0.35 px" style="stroke-width:0.35;stroke-miterlimit:4;stroke-dasharray:none;fill:none;fill-opacity:1;fill-rule: evenodd"/>
<path id="Sketch207_w0119"  d="M 49.658296465755285 -30.435800678231203 L 43.273526721146084 -32.14659460979944 " stroke="#000000" stroke-width="0.35 px" style="stroke-width:0.35;stroke-miterlimit:4;stroke-dasharray:none;fill:none;fill-opacity:1;fill-rule: evenodd"/>
<path id="Sketch207_w0120"  d="M 49.658296465755285 -30.435801678231165 Q 49.86730543243368 -30.345741408611918 49.82282645917408 -30.122543690761482 L 49.06966648930049 -27.311699803195246 L 51.784904 -26.58407 L 52.671967 -30.764324 " stroke="#000000" stroke-width="0.35 px" style="stroke-width:0.35;stroke-miterlimit:4;stroke-dasharray:none;fill:none;fill-opacity:1;fill-rule: evenodd"/>
<path id="Sketch207_w0121"  d="M 36.28623700063767 -27.745058785860884 L 35.48390703273088 -24.750688905635684 " stroke="#000000" stroke-width="0.35 px" style="stroke-width:0.35;stroke-miterlimit:4;stroke-dasharray:none;fill:none;fill-opacity:1;fill-rule: evenodd"/>
<path id="Sketch207_w0122"  d="M 42.959986733687686 -31.98214161637756 Q 43.050047357524804 -32.19115289216027 43.27324672115728 -32.1466706097964 " stroke="#000000" stroke-width="0.35 px" style="stroke-width:0.35;stroke-miterlimit:4;stroke-dasharray:none;fill:none;fill-opacity:1;fill-rule: evenodd"/>
<path id="Sketch207_w0123"  d="M 50.70573642385767 -17.845708181834922 Q 50.61567216738514 -17.63668998607072 50.392466436388474 -17.681180188416036 " stroke="#000000" stroke-width="0.35 px" style="stroke-width:0.35;stroke-miterlimit:4;stroke-dasharray:none;fill:none;fill-opacity:1;fill-rule: evenodd"/>
<path id="Sketch207_w0124"  d="M 35.648357026152866 -24.43714791817733 Q 35.43934752408636 -24.52720719409293 35.48382703273407 -24.750404905647045 " stroke="#000000" stroke-width="0.35 px" style="stroke-width:0.35;stroke-miterlimit:4;stroke-dasharray:none;fill:none;fill-opacity:1;fill-rule: evenodd"/>
<path id="Sketch207_w0125"  d="M 25.765587421463664 -97.65450498948292 L 27.546487350227665 -96.54167503399613 C 27.012272179702602 -95.34962746144888 27.416739840217 -93.62661059493499 28.42557731506406 -92.79678518379173 L 35.37957703690407 -88.45144535760532 L 35.54917703012006 -88.34546536184453 L 37.88979693649529 -86.88288542034772 " stroke="#000000" stroke-width="0.35 px" style="stroke-width:0.35;stroke-miterlimit:4;stroke-dasharray:none;fill:none;fill-opacity:1;fill-rule: evenodd"/>
<path id="Sketch207_w0126"  d="M 30.511887231611666 -101.64584482982931 L 29.298367280152462 -99.70381490751052 L 27.69555734426487 -100.70536486744852 Q 27.495120119258573 -100.81315599781954 27.347887358171675 -100.6396148700785 " stroke="#000000" stroke-width="0.35 px" style="stroke-width:0.35;stroke-miterlimit:4;stroke-dasharray:none;fill:none;fill-opacity:1;fill-rule: evenodd"/>
<path id="Sketch207_w0127"  d="M 38.23746692258848 -86.94864541771733 L 40.03389685073128 -89.82352530272212 Q 40.14168722183034 -90.02396238413789 39.968146853361276 -90.17119528881533 " stroke="#000000" stroke-width="0.35 px" style="stroke-width:0.35;stroke-miterlimit:4;stroke-dasharray:none;fill:none;fill-opacity:1;fill-rule: evenodd"/>
<path id="Sketch207_w0128"  d="M 41.92550677506688 -94.92653509860173 L 39.44072687445808 -96.47919503649533 L 40.98279681277526 -98.94701493778253 Q 41.090587183874334 -99.14745201919827 40.917046815405286 -99.29468492387574 L 35.311447039629286 -102.79745478376492 " stroke="#000000" stroke-width="0.35 px" style="stroke-width:0.35;stroke-miterlimit:4;stroke-dasharray:none;fill:none;fill-opacity:1;fill-rule: evenodd"/>
<path id="Sketch207_w0129"  d="M 34.963767053536486 -102.73170478639493 L 33.35281711797447 -100.15363488951772 L 30.85955721770486 -101.71159482719932 Q 30.6591141386131 -101.81939451986416 30.51187723161206 -101.64584482982931 " stroke="#000000" stroke-width="0.35 px" style="stroke-width:0.35;stroke-miterlimit:4;stroke-dasharray:none;fill:none;fill-opacity:1;fill-rule: evenodd"/>
<path id="Sketch207_w0130"  d="M 39.96813685336167 -90.17119528881533 L 39.44234687439328 -90.49974527567332 L 41.99126677243646 -94.57885511250893 " stroke="#000000" stroke-width="0.35 px" style="stroke-width:0.35;stroke-miterlimit:4;stroke-dasharray:none;fill:none;fill-opacity:1;fill-rule: evenodd"/>
<path id="Sketch207_w0131"  d="M 27.342587358383668 -100.63112487041812 L 25.699837424093687 -98.00218497557572 " stroke="#000000" stroke-width="0.35 px" style="stroke-width:0.35;stroke-miterlimit:4;stroke-dasharray:none;fill:none;fill-opacity:1;fill-rule: evenodd"/>
<path id="Sketch207_w0132"  d="M 41.92566677506048 -94.92678509859172 Q 42.099216465095324 -94.77954819159068 41.99141677243048 -94.57910511249892 " stroke="#000000" stroke-width="0.35 px" style="stroke-width:0.35;stroke-miterlimit:4;stroke-dasharray:none;fill:none;fill-opacity:1;fill-rule: evenodd"/>
<path id="Sketch207_w0133"  d="M 34.96351705354647 -102.73185478638892 Q 35.11074972573307 -102.90541047419376 35.31119703963927 -102.79761478375853 " stroke="#000000" stroke-width="0.35 px" style="stroke-width:0.35;stroke-miterlimit:4;stroke-dasharray:none;fill:none;fill-opacity:1;fill-rule: evenodd"/>
<path id="Sketch207_w0134"  d="M 38.23771692257847 -86.94848541772373 Q 38.09048401790105 -86.7749450492547 37.89004693648528 -86.88273542035373 " stroke="#000000" stroke-width="0.35 px" style="stroke-width:0.35;stroke-miterlimit:4;stroke-dasharray:none;fill:none;fill-opacity:1;fill-rule: evenodd"/>
<path id="Sketch207_w0135"  d="M 25.765427421470065 -97.65425498949293 Q 25.591876972094433 -97.8014917528945 25.699677424100088 -98.00193497558573 " stroke="#000000" stroke-width="0.35 px" style="stroke-width:0.35;stroke-miterlimit:4;stroke-dasharray:none;fill:none;fill-opacity:1;fill-rule: evenodd"/>
<path id="Sketch207_w0136"  d="M 16.888437776549665 -31.637431630165963 L 18.91687769541207 -31.093911651906765 C 18.754526476650472 -29.797761066994067 19.645083360198903 -28.268286510642717 20.852457617988875 -27.769676784876168 L 28.773047301165263 -25.647360869768804 L 28.966227293438067 -25.595596871839362 L 31.632187186799683 -24.881255900413002 " stroke="#000000" stroke-width="0.35 px" style="stroke-width:0.35;stroke-miterlimit:4;stroke-dasharray:none;fill:none;fill-opacity:1;fill-rule: evenodd"/>
<path id="Sketch207_w0137"  d="M 24.200267484076477 -39.1820653283806 L 23.413457515548885 -36.24565044583721 L 20.573637629141672 -37.006578415400085 Q 20.3504455148938 -37.05105236905907 20.260387641671684 -36.842049421981244 L 19.667687665379674 -34.63007951046004 L 17.842087738403677 -35.11924749089332 Q 17.618888374771203 -35.16372977325719 17.528827750934084 -34.95471849747448 " stroke="#000000" stroke-width="0.35 px" style="stroke-width:0.35;stroke-miterlimit:4;stroke-dasharray:none;fill:none;fill-opacity:1;fill-rule: evenodd"/>
<path id="Sketch207_w0138"  d="M 31.945447174269276 -25.045785893831805 L 32.822837139173686 -28.32027376285228 Q 32.867316112433286 -28.543471480702706 32.65830714575486 -28.633531750321964 L 32.05943716970967 -28.793998743903288 L 33.30435711991288 -33.440102558059124 " stroke="#000000" stroke-width="0.35 px" style="stroke-width:0.35;stroke-miterlimit:4;stroke-dasharray:none;fill:none;fill-opacity:1;fill-rule: evenodd"/>
<path id="Sketch207_w0139"  d="M 30.89829721615527 -37.6358003902312 L 24.51352747154607 -39.346594321799444 " stroke="#000000" stroke-width="0.35 px" style="stroke-width:0.35;stroke-miterlimit:4;stroke-dasharray:none;fill:none;fill-opacity:1;fill-rule: evenodd"/>
<path id="Sketch207_w0140"  d="M 33.13982712649408 -33.753359545528845 L 30.309667239700474 -34.51169951519525 L 31.062827209574067 -37.32254340276148 Q 31.107306182833675 -37.54574112061191 30.89829721615527 -37.635801390231165 " stroke="#000000" stroke-width="0.35 px" style="stroke-width:0.35;stroke-miterlimit:4;stroke-dasharray:none;fill:none;fill-opacity:1;fill-rule: evenodd"/>
<path id="Sketch207_w0141"  d="M 17.526237751037684 -34.945058497860884 L 16.72390778313087 -31.950688617635684 " stroke="#000000" stroke-width="0.35 px" style="stroke-width:0.35;stroke-miterlimit:4;stroke-dasharray:none;fill:none;fill-opacity:1;fill-rule: evenodd"/>
<path id="Sketch207_w0142"  d="M 33.13990712649087 -33.75364854551729 Q 33.34892010884829 -33.663587534987215 33.304437119909664 -33.44038655804777 " stroke="#000000" stroke-width="0.35 px" style="stroke-width:0.35;stroke-miterlimit:4;stroke-dasharray:none;fill:none;fill-opacity:1;fill-rule: evenodd"/>
<path id="Sketch207_w0143"  d="M 24.19998748408767 -39.18214132837756 Q 24.29004810792481 -39.391152604160254 24.513247471557264 -39.3466703217964 " stroke="#000000" stroke-width="0.35 px" style="stroke-width:0.35;stroke-miterlimit:4;stroke-dasharray:none;fill:none;fill-opacity:1;fill-rule: evenodd"/>
<path id="Sketch207_w0144"  d="M 31.945737174257687 -25.045707893834923 Q 31.855672917785135 -24.836689698070717 31.63246718678849 -24.881179900416036 " stroke="#000000" stroke-width="0.35 px" style="stroke-width:0.35;stroke-miterlimit:4;stroke-dasharray:none;fill:none;fill-opacity:1;fill-rule: evenodd"/>
<path id="Sketch207_w0145"  d="M 16.88835777655288 -31.63714763017733 Q 16.679348274486372 -31.727206906092935 16.723827783134084 -31.950404617647045 " stroke="#000000" stroke-width="0.35 px" style="stroke-width:0.35;stroke-miterlimit:4;stroke-dasharray:none;fill:none;fill-opacity:1;fill-rule: evenodd"/>
<path id="Sketch207_w0146"  d="M 55.186436244629675 -12.764448385085323 L 57.24054616246528 -12.327833402549924 C 57.14625372354185 -11.024961382399008 58.1156396250024 -9.544190842237953 59.347456078188884 -9.109455531285043 L 67.36826575735648 -7.404579599480083 L 67.56389574953127 -7.362996601143404 L 70.26357564154407 -6.789160624096844 " stroke="#000000" stroke-width="0.35 px" style="stroke-width:0.35;stroke-miterlimit:4;stroke-dasharray:none;fill:none;fill-opacity:1;fill-rule: evenodd"/>
<path id="Sketch207_w0147"  d="M 62.09340596835088 -20.681414068406685 L 61.46135599363288 -17.707845187349445 L 58.58559610866328 -18.319106162899004 Q 58.36038154475294 -18.351837935850607 58.281386120831684 -18.13840717012696 L 57.805266139876466 -15.898449259725282 L 55.95656621382449 -16.291403244007125 Q 55.73134425075099 -16.324143102057 55.652346225993284 -16.110704251235088 " stroke="#000000" stroke-width="0.35 px" style="stroke-width:0.35;stroke-miterlimit:4;stroke-dasharray:none;fill:none;fill-opacity:1;fill-rule: evenodd"/>
<path id="Sketch207_w0148"  d="M 70.56779562937527 -6.9698586168689225 L 71.27261560118248 -10.285779484232084 Q 71.30535210918445 -10.510999380018474 71.09191560841049 -10.589996472063405 L 70.48546563266848 -10.718901466907205 L 71.48552559266608 -15.423791278711604 " stroke="#000000" stroke-width="0.35 px" style="stroke-width:0.35;stroke-miterlimit:4;stroke-dasharray:none;fill:none;fill-opacity:1;fill-rule: evenodd"/>
<path id="Sketch207_w0149"  d="M 71.30482559989409 -15.728008266542922 L 68.43885571453288 -16.337190242175645 L 69.04387569033207 -19.183599128319283 Q 69.07661219833402 -19.40881902410568 68.86317569756008 -19.487816116150604 L 62.39762595618208 -20.862113061178725 " stroke="#000000" stroke-width="0.35 px" style="stroke-width:0.35;stroke-miterlimit:4;stroke-dasharray:none;fill:none;fill-opacity:1;fill-rule: evenodd"/>
<path id="Sketch207_w0150"  d="M 55.65026622607647 -16.100923251626323 L 55.00574625185729 -13.068665372916644 " stroke="#000000" stroke-width="0.35 px" style="stroke-width:0.35;stroke-miterlimit:4;stroke-dasharray:none;fill:none;fill-opacity:1;fill-rule: evenodd"/>
<path id="Sketch207_w0151"  d="M 71.30488559989166 -15.728303266531125 Q 71.51832709593734 -15.649303959282346 71.48558559266368 -15.424079278700084 " stroke="#000000" stroke-width="0.35 px" style="stroke-width:0.35;stroke-miterlimit:4;stroke-dasharray:none;fill:none;fill-opacity:1;fill-rule: evenodd"/>
<path id="Sketch207_w0152"  d="M 62.09311596836247 -20.681475068404243 Q 62.17211399312019 -20.894913919226163 62.39733595619367 -20.862174061176287 " stroke="#000000" stroke-width="0.35 px" style="stroke-width:0.35;stroke-miterlimit:4;stroke-dasharray:none;fill:none;fill-opacity:1;fill-rule: evenodd"/>
<path id="Sketch207_w0153"  d="M 70.56808562936368 -6.9697966168714025 Q 70.48908611574915 -6.756359910292607 70.26386564153248 -6.78909962409929 " stroke="#000000" stroke-width="0.35 px" style="stroke-width:0.35;stroke-miterlimit:4;stroke-dasharray:none;fill:none;fill-opacity:1;fill-rule: evenodd"/>
<path id="Sketch207_w0154"  d="M 55.18637624463207 -12.764159385096892 Q 54.97293812682291 -12.843156997305023 55.00567625186008 -13.068378372928123 " stroke="#000000" stroke-width="0.35 px" style="stroke-width:0.35;stroke-miterlimit:4;stroke-dasharray:none;fill:none;fill-opacity:1;fill-rule: evenodd"/>
<path id="Sketch207_w0155"  d="M 63.13643592662967 -50.034446894285324 L 65.19054584446528 -49.59783191174992 C 65.0962534055418 -48.29495989159899 66.06563930700241 -46.814189351437946 67.29745576018888 -46.379454040485044 L 75.31826543935648 -44.67457810868008 L 75.51389543153127 -44.6329951103434 L 78.21357532354406 -44.059159133296845 " stroke="#000000" stroke-width="0.35 px" style="stroke-width:0.35;stroke-miterlimit:4;stroke-dasharray:none;fill:none;fill-opacity:1;fill-rule: evenodd"/>
<path id="Sketch207_w0156"  d="M 70.04340565035088 -57.95141257760669 L 69.41135567563288 -54.97784369654944 L 66.53559579066328 -55.589104672099005 Q 66.31038122675295 -55.62183644505063 66.23138580283168 -55.408405679326954 L 65.75526582187646 -53.16844776892528 L 63.906565895824485 -53.56140175320712 Q 63.68134393275099 -53.59414161125702 63.60234590799328 -53.380702760435085 " stroke="#000000" stroke-width="0.35 px" style="stroke-width:0.35;stroke-miterlimit:4;stroke-dasharray:none;fill:none;fill-opacity:1;fill-rule: evenodd"/>
<path id="Sketch207_w0157"  d="M 78.51779531137527 -44.23985712606893 L 79.22261528318248 -47.55577799343209 Q 79.25535179118445 -47.78099788921847 79.04191529041049 -47.85999498126342 L 78.43546531466848 -47.988899976107206 L 79.43552527466608 -52.693789787911605 " stroke="#000000" stroke-width="0.35 px" style="stroke-width:0.35;stroke-miterlimit:4;stroke-dasharray:none;fill:none;fill-opacity:1;fill-rule: evenodd"/>
<path id="Sketch207_w0158"  d="M 79.25482528189409 -52.99800677574292 L 76.38885539653288 -53.607188751375645 L 76.99387537233207 -56.45359763751928 Q 77.02661188033404 -56.67881753330566 76.81317537956008 -56.75781462535062 " stroke="#000000" stroke-width="0.35 px" style="stroke-width:0.35;stroke-miterlimit:4;stroke-dasharray:none;fill:none;fill-opacity:1;fill-rule: evenodd"/>
<path id="Sketch207_w0159"  d="M 63.600265908076466 -53.37092176082632 L 62.95574593385729 -50.33866388211665 " stroke="#000000" stroke-width="0.35 px" style="stroke-width:0.35;stroke-miterlimit:4;stroke-dasharray:none;fill:none;fill-opacity:1;fill-rule: evenodd"/>
<path id="Sketch207_w0160"  d="M 79.25488528189169 -52.99830177573112 Q 79.46832677793735 -52.91930246848236 79.43558527466368 -52.694077787900085 " stroke="#000000" stroke-width="0.35 px" style="stroke-width:0.35;stroke-miterlimit:4;stroke-dasharray:none;fill:none;fill-opacity:1;fill-rule: evenodd"/>
<path id="Sketch207_w0161"  d="M 78.51808531136368 -44.23979512607141 Q 78.43908579774917 -44.02635841949261 78.21386532353247 -44.05909813329928 " stroke="#000000" stroke-width="0.35 px" style="stroke-width:0.35;stroke-miterlimit:4;stroke-dasharray:none;fill:none;fill-opacity:1;fill-rule: evenodd"/>
<path id="Sketch207_w0162"  d="M 63.13637592663207 -50.0341578942969 Q 62.92293780882291 -50.113155506505024 62.95567593386008 -50.33837688212813 " stroke="#000000" stroke-width="0.35 px" style="stroke-width:0.35;stroke-miterlimit:4;stroke-dasharray:none;fill:none;fill-opacity:1;fill-rule: evenodd"/>
<path id="Sketch207_w0163"  d="M 103.31123431963769 -51.95049381764345 L 105.4099542356889 -51.877204820575 C 105.54333411840639 -50.57775353680781 106.75512227634796 -49.287810803108115 108.04371413033849 -49.07357993271999 L 116.23871380253846 -48.787403944167046 L 116.43859379454327 -48.78042394444624 L 119.1969136842105 -48.68410194829912 " stroke="#000000" stroke-width="0.35 px" style="stroke-width:0.35;stroke-miterlimit:4;stroke-dasharray:none;fill:none;fill-opacity:1;fill-rule: evenodd"/>
<path id="Sketch207_w0164"  d="M 108.73849410254726 -60.946564457800605 L 108.63240410679086 -57.90841657932653 L 105.69419422431926 -58.01102157522233 Q 105.46670945028184 -58.00415477652382 105.42597423504807 -57.78024158445351 L 105.34605423824488 -55.491636675997725 L 103.45720431379888 -55.55759667335933 Q 103.22972724125889 -55.55072268895804 103.18899432452727 -55.32681668259052 " stroke="#000000" stroke-width="0.35 px" style="stroke-width:0.35;stroke-miterlimit:4;stroke-dasharray:none;fill:none;fill-opacity:1;fill-rule: evenodd"/>
<path id="Sketch207_w0165"  d="M 119.46513367348169 -48.914881939067925 L 119.58344366874925 -52.30281680355053 Q 119.57657412853392 -52.530298763119156 119.35266367798047 -52.571033792821865 L 118.73304370276529 -52.59267179195632 L 118.9009036960509 -57.399741599673526 " stroke="#000000" stroke-width="0.35 px" style="stroke-width:0.35;stroke-miterlimit:4;stroke-dasharray:none;fill:none;fill-opacity:1;fill-rule: evenodd"/>
<path id="Sketch207_w0166"  d="M 118.67012370528207 -57.66795858894484 L 115.74191382241045 -57.7702145848546 L 115.84346381834845 -60.67844146852552 Q 115.83659499670766 -60.905924198244335 115.61268382757967 -60.94665945779681 L 109.00671409181845 -61.1773444485694 " stroke="#000000" stroke-width="0.35 px" style="stroke-width:0.35;stroke-miterlimit:4;stroke-dasharray:none;fill:none;fill-opacity:1;fill-rule: evenodd"/>
<path id="Sketch207_w0167"  d="M 103.18864432454129 -55.316822682990285 L 103.08045432886885 -52.218710806914764 " stroke="#000000" stroke-width="0.35 px" style="stroke-width:0.35;stroke-miterlimit:4;stroke-dasharray:none;fill:none;fill-opacity:1;fill-rule: evenodd"/>
<path id="Sketch207_w0168"  d="M 118.6701337052817 -57.668258588932844 Q 118.8940484673369 -57.62752218014861 118.90091369605048 -57.40003559966176 " stroke="#000000" stroke-width="0.35 px" style="stroke-width:0.35;stroke-miterlimit:4;stroke-dasharray:none;fill:none;fill-opacity:1;fill-rule: evenodd"/>
<path id="Sketch207_w0169"  d="M 108.73820410255885 -60.946575457800165 Q 108.77893945082441 -61.17048846550318 109.0064240918301 -61.17735444856902 " stroke="#000000" stroke-width="0.35 px" style="stroke-width:0.35;stroke-miterlimit:4;stroke-dasharray:none;fill:none;fill-opacity:1;fill-rule: evenodd"/>
<path id="Sketch207_w0170"  d="M 119.46543367346968 -48.914870939068365 Q 119.42469501875136 -48.69095191692477 119.19720368419885 -48.684091948299525 " stroke="#000000" stroke-width="0.35 px" style="stroke-width:0.35;stroke-miterlimit:4;stroke-dasharray:none;fill:none;fill-opacity:1;fill-rule: evenodd"/>
<path id="Sketch207_w0171"  d="M 103.31122431963806 -51.950199817655204 Q 103.08731256473764 -51.990934573197606 103.08044432886928 -52.21841780692648 " stroke="#000000" stroke-width="0.35 px" style="stroke-width:0.35;stroke-miterlimit:4;stroke-dasharray:none;fill:none;fill-opacity:1;fill-rule: evenodd"/>
<path id="Sketch207_w0172"  d="M 44.05843668974967 -61.61743043096597 L 46.08687660861207 -61.07391045270677 C 45.924525389850444 -59.777759867794074 46.815082273398914 -58.2482853114427 48.02245653118888 -57.749675585676165 L 55.94304621436527 -55.62735967056881 L 56.13622620663807 -55.575595672639366 L 58.80218609999969 -54.861254701213 " stroke="#000000" stroke-width="0.35 px" style="stroke-width:0.35;stroke-miterlimit:4;stroke-dasharray:none;fill:none;fill-opacity:1;fill-rule: evenodd"/>
<path id="Sketch207_w0173"  d="M 51.37026639727648 -69.1620641291806 L 50.58345642874889 -66.2256492466372 L 47.743636542341676 -66.98657721620009 Q 47.52044442809381 -67.03105116985907 47.43038655487169 -66.82204822278123 L 46.83768657857968 -64.61007831126004 L 45.01208665160368 -65.09924629169333 Q 44.78888728797121 -65.14372857405718 44.69882666413409 -64.93471729827448 " stroke="#000000" stroke-width="0.35 px" style="stroke-width:0.35;stroke-miterlimit:4;stroke-dasharray:none;fill:none;fill-opacity:1;fill-rule: evenodd"/>
<path id="Sketch207_w0174"  d="M 59.11544608746928 -55.02578469463181 L 59.99283605237366 -58.300272563652285 Q 60.03731502563329 -58.52347028150272 59.828306058954865 -58.61353055112197 L 59.22943608290967 -58.77399754470329 L 60.47435603311288 -63.42010135885913 " stroke="#000000" stroke-width="0.35 px" style="stroke-width:0.35;stroke-miterlimit:4;stroke-dasharray:none;fill:none;fill-opacity:1;fill-rule: evenodd"/>
<path id="Sketch207_w0175"  d="M 58.068296129355275 -67.6157991910312 L 51.683526384746074 -69.32659312259945 " stroke="#000000" stroke-width="0.35 px" style="stroke-width:0.35;stroke-miterlimit:4;stroke-dasharray:none;fill:none;fill-opacity:1;fill-rule: evenodd"/>
<path id="Sketch207_w0176"  d="M 60.30982603969409 -63.73335834632884 L 57.47966615290048 -64.49169831599525 L 58.23282612277407 -67.30254220356149 Q 58.27730509603367 -67.52573992141191 58.068296129355275 -67.61580019103117 " stroke="#000000" stroke-width="0.35 px" style="stroke-width:0.35;stroke-miterlimit:4;stroke-dasharray:none;fill:none;fill-opacity:1;fill-rule: evenodd"/>
<path id="Sketch207_w0177"  d="M 44.69623666423769 -64.92505729866089 L 43.89390669633087 -61.93068741843568 " stroke="#000000" stroke-width="0.35 px" style="stroke-width:0.35;stroke-miterlimit:4;stroke-dasharray:none;fill:none;fill-opacity:1;fill-rule: evenodd"/>
<path id="Sketch207_w0178"  d="M 60.30990603969087 -63.733647346317284 Q 60.51891902204828 -63.64358633578722 60.47443603310967 -63.42038535884777 " stroke="#000000" stroke-width="0.35 px" style="stroke-width:0.35;stroke-miterlimit:4;stroke-dasharray:none;fill:none;fill-opacity:1;fill-rule: evenodd"/>
<path id="Sketch207_w0179"  d="M 51.369986397287676 -69.16214012917757 Q 51.460047021124794 -69.37115140496026 51.68324638475727 -69.3266691225964 " stroke="#000000" stroke-width="0.35 px" style="stroke-width:0.35;stroke-miterlimit:4;stroke-dasharray:none;fill:none;fill-opacity:1;fill-rule: evenodd"/>
<path id="Sketch207_w0180"  d="M 59.11573608745766 -55.02570669463492 Q 59.02567183098513 -54.81668849887071 58.802466099988465 -54.86117870121605 " stroke="#000000" stroke-width="0.35 px" style="stroke-width:0.35;stroke-miterlimit:4;stroke-dasharray:none;fill:none;fill-opacity:1;fill-rule: evenodd"/>
<path id="Sketch207_w0181"  d="M 44.058356689752884 -61.61714643097733 Q 43.84934718768638 -61.707205706892935 43.89382669633409 -61.93040341844704 " stroke="#000000" stroke-width="0.35 px" style="stroke-width:0.35;stroke-miterlimit:4;stroke-dasharray:none;fill:none;fill-opacity:1;fill-rule: evenodd"/>
<path id="Sketch207_w0182"  d="M 52.927685 -78.710533 L 50.104267 -80.142502 L 49.828197 -79.632797 " stroke="#000000" stroke-width="0.35 px" style="stroke-width:0.35;stroke-miterlimit:4;stroke-dasharray:none;fill:none;fill-opacity:1;fill-rule: evenodd"/>
<path id="Sketch207_w0183"  d="M 67.227226 -58.832787 L 70.043404 -57.951412 " stroke="#000000" stroke-width="0.35 px" style="stroke-width:0.35;stroke-miterlimit:4;stroke-dasharray:none;fill:none;fill-opacity:1;fill-rule: evenodd"/>
<path id="Sketch207_w0184"  d="M 76.813179 -56.757816 L 76.08732494959943 -56.90552562738584 L 76.139206 -57.184151 " stroke="#000000" stroke-width="0.35 px" style="stroke-width:0.35;stroke-miterlimit:4;stroke-dasharray:none;fill:none;fill-opacity:1;fill-rule: evenodd"/>
<path id="Sketch207_w0185"  d="M 50.819435 -21.594 L 51.397285 -23.613075 " stroke="#000000" stroke-width="0.35 px" style="stroke-width:0.35;stroke-miterlimit:4;stroke-dasharray:none;fill:none;fill-opacity:1;fill-rule: evenodd"/>
<title>b'Sketch207'</title>
</g>
</svg>