%TF.GenerationSoftware,KiCad,Pcbnew,(6.0.6)*%
%TF.CreationDate,2022-07-10T10:09:25+09:00*%
%TF.ProjectId,nowt_promicro_plate_standard,6e6f7774-5f70-4726-9f6d-6963726f5f70,rev?*%
%TF.SameCoordinates,Original*%
%TF.FileFunction,Copper,L2,Bot*%
%TF.FilePolarity,Positive*%
%FSLAX46Y46*%
G04 Gerber Fmt 4.6, Leading zero omitted, Abs format (unit mm)*
G04 Created by KiCad (PCBNEW (6.0.6)) date 2022-07-10 10:09:25*
%MOMM*%
%LPD*%
G01*
G04 APERTURE LIST*
%TA.AperFunction,Profile*%
%ADD10C,0.349999*%
%TD*%
%TA.AperFunction,ComponentPad*%
%ADD11C,2.300000*%
%TD*%
%ADD12C,0.350000*%
G04 APERTURE END LIST*
D10*
X43576143Y-16103908D02*
X29584279Y-16103908D01*
X43576143Y-16103908D02*
X43576143Y-16103908D01*
X57568006Y-16103908D02*
X43576143Y-16103908D01*
X57568006Y-16103908D02*
X57568006Y-16103908D01*
X70227388Y-63349361D02*
X57568006Y-16103908D01*
X70227388Y-63349361D02*
X70227388Y-63349361D01*
X60843626Y-69212985D02*
X70227388Y-63349361D01*
X60843626Y-69212985D02*
X60843626Y-69212985D01*
X43576143Y-69212985D02*
X60843626Y-69212985D01*
X43576143Y-69212985D02*
X43576143Y-69212985D01*
X26308660Y-69212985D02*
X43576143Y-69212985D01*
X26308660Y-69212985D02*
X26308660Y-69212985D01*
X16924898Y-63349361D02*
X26308660Y-69212985D01*
X16924898Y-63349361D02*
X16924898Y-63349361D01*
X29584279Y-16103908D02*
X16924898Y-63349361D01*
D11*
%TO.P,REF\u002A\u002A,1*%
%TO.N,N/C*%
X59480000Y-38680000D03*
%TD*%
%TO.P,REF\u002A\u002A,1*%
%TO.N,N/C*%
X65600000Y-61520000D03*
%TD*%
%TO.P,REF\u002A\u002A,1*%
%TO.N,N/C*%
X21540000Y-61550000D03*
%TD*%
%TO.P,REF\u002A\u002A,1*%
%TO.N,N/C*%
X27670000Y-38680000D03*
%TD*%
%TA.AperFunction,NonConductor*%
G36*
X57149258Y-16632410D02*
G01*
X57195751Y-16686066D01*
X57202842Y-16705792D01*
X63531094Y-40323146D01*
X69614698Y-63027463D01*
X69613008Y-63098439D01*
X69573214Y-63157235D01*
X69559761Y-63166928D01*
X60728455Y-68685339D01*
X60661685Y-68704485D01*
X26490600Y-68704485D01*
X26423830Y-68685339D01*
X17592525Y-63166929D01*
X17545355Y-63113868D01*
X17534360Y-63043728D01*
X17537588Y-63027464D01*
X17933473Y-61550000D01*
X19876372Y-61550000D01*
X19896854Y-61810249D01*
X19898008Y-61815056D01*
X19898009Y-61815062D01*
X19936424Y-61975069D01*
X19957796Y-62064089D01*
X19959689Y-62068660D01*
X19959690Y-62068662D01*
X20047019Y-62279491D01*
X20057697Y-62305271D01*
X20194097Y-62527856D01*
X20363637Y-62726363D01*
X20562144Y-62895903D01*
X20784729Y-63032303D01*
X20789299Y-63034196D01*
X20789303Y-63034198D01*
X21021338Y-63130310D01*
X21025911Y-63132204D01*
X21114931Y-63153576D01*
X21274938Y-63191991D01*
X21274944Y-63191992D01*
X21279751Y-63193146D01*
X21540000Y-63213628D01*
X21800249Y-63193146D01*
X21805056Y-63191992D01*
X21805062Y-63191991D01*
X21965069Y-63153576D01*
X22054089Y-63132204D01*
X22058662Y-63130310D01*
X22290697Y-63034198D01*
X22290701Y-63034196D01*
X22295271Y-63032303D01*
X22517856Y-62895903D01*
X22716363Y-62726363D01*
X22885903Y-62527856D01*
X23022303Y-62305271D01*
X23032982Y-62279491D01*
X23120310Y-62068662D01*
X23120311Y-62068660D01*
X23122204Y-62064089D01*
X23143576Y-61975069D01*
X23181991Y-61815062D01*
X23181992Y-61815056D01*
X23183146Y-61810249D01*
X23203628Y-61550000D01*
X23201267Y-61520000D01*
X63936372Y-61520000D01*
X63956854Y-61780249D01*
X63958008Y-61785056D01*
X63958009Y-61785062D01*
X63964056Y-61810249D01*
X64017796Y-62034089D01*
X64019689Y-62038660D01*
X64019690Y-62038662D01*
X64032117Y-62068662D01*
X64117697Y-62275271D01*
X64254097Y-62497856D01*
X64423637Y-62696363D01*
X64622144Y-62865903D01*
X64844729Y-63002303D01*
X64849299Y-63004196D01*
X64849303Y-63004198D01*
X65076821Y-63098439D01*
X65085911Y-63102204D01*
X65149715Y-63117522D01*
X65334938Y-63161991D01*
X65334944Y-63161992D01*
X65339751Y-63163146D01*
X65600000Y-63183628D01*
X65860249Y-63163146D01*
X65865056Y-63161992D01*
X65865062Y-63161991D01*
X66050285Y-63117522D01*
X66114089Y-63102204D01*
X66123179Y-63098439D01*
X66350697Y-63004198D01*
X66350701Y-63004196D01*
X66355271Y-63002303D01*
X66577856Y-62865903D01*
X66776363Y-62696363D01*
X66945903Y-62497856D01*
X67082303Y-62275271D01*
X67167884Y-62068662D01*
X67180310Y-62038662D01*
X67180311Y-62038660D01*
X67182204Y-62034089D01*
X67235944Y-61810249D01*
X67241991Y-61785062D01*
X67241992Y-61785056D01*
X67243146Y-61780249D01*
X67263628Y-61520000D01*
X67243146Y-61259751D01*
X67241992Y-61254944D01*
X67241991Y-61254938D01*
X67189406Y-61035911D01*
X67182204Y-61005911D01*
X67096624Y-60799303D01*
X67084198Y-60769303D01*
X67084196Y-60769299D01*
X67082303Y-60764729D01*
X66945903Y-60542144D01*
X66776363Y-60343637D01*
X66577856Y-60174097D01*
X66355271Y-60037697D01*
X66350701Y-60035804D01*
X66350697Y-60035802D01*
X66118662Y-59939690D01*
X66118660Y-59939689D01*
X66114089Y-59937796D01*
X66025069Y-59916424D01*
X65865062Y-59878009D01*
X65865056Y-59878008D01*
X65860249Y-59876854D01*
X65600000Y-59856372D01*
X65339751Y-59876854D01*
X65334944Y-59878008D01*
X65334938Y-59878009D01*
X65174931Y-59916424D01*
X65085911Y-59937796D01*
X65081340Y-59939689D01*
X65081338Y-59939690D01*
X64849303Y-60035802D01*
X64849299Y-60035804D01*
X64844729Y-60037697D01*
X64622144Y-60174097D01*
X64423637Y-60343637D01*
X64254097Y-60542144D01*
X64117697Y-60764729D01*
X64115804Y-60769299D01*
X64115802Y-60769303D01*
X64103376Y-60799303D01*
X64017796Y-61005911D01*
X64010594Y-61035911D01*
X63958009Y-61254938D01*
X63958008Y-61254944D01*
X63956854Y-61259751D01*
X63936372Y-61520000D01*
X23201267Y-61520000D01*
X23183146Y-61289751D01*
X23181992Y-61284944D01*
X23181991Y-61284938D01*
X23123359Y-61040723D01*
X23122204Y-61035911D01*
X23109778Y-61005911D01*
X23024198Y-60799303D01*
X23024196Y-60799299D01*
X23022303Y-60794729D01*
X22885903Y-60572144D01*
X22716363Y-60373637D01*
X22517856Y-60204097D01*
X22295271Y-60067697D01*
X22290701Y-60065804D01*
X22290697Y-60065802D01*
X22058662Y-59969690D01*
X22058660Y-59969689D01*
X22054089Y-59967796D01*
X21924320Y-59936641D01*
X21805062Y-59908009D01*
X21805056Y-59908008D01*
X21800249Y-59906854D01*
X21540000Y-59886372D01*
X21279751Y-59906854D01*
X21274944Y-59908008D01*
X21274938Y-59908009D01*
X21155680Y-59936641D01*
X21025911Y-59967796D01*
X21021340Y-59969689D01*
X21021338Y-59969690D01*
X20789303Y-60065802D01*
X20789299Y-60065804D01*
X20784729Y-60067697D01*
X20562144Y-60204097D01*
X20363637Y-60373637D01*
X20194097Y-60572144D01*
X20057697Y-60794729D01*
X20055804Y-60799299D01*
X20055802Y-60799303D01*
X19970222Y-61005911D01*
X19957796Y-61035911D01*
X19956641Y-61040723D01*
X19898009Y-61284938D01*
X19898008Y-61284944D01*
X19896854Y-61289751D01*
X19876372Y-61550000D01*
X17933473Y-61550000D01*
X18387280Y-59856372D01*
X24061472Y-38680000D01*
X26006372Y-38680000D01*
X26026854Y-38940249D01*
X26028008Y-38945056D01*
X26028009Y-38945062D01*
X26066424Y-39105069D01*
X26087796Y-39194089D01*
X26187697Y-39435271D01*
X26324097Y-39657856D01*
X26493637Y-39856363D01*
X26692144Y-40025903D01*
X26914729Y-40162303D01*
X26919299Y-40164196D01*
X26919303Y-40164198D01*
X27151338Y-40260310D01*
X27155911Y-40262204D01*
X27244931Y-40283576D01*
X27404938Y-40321991D01*
X27404944Y-40321992D01*
X27409751Y-40323146D01*
X27670000Y-40343628D01*
X27930249Y-40323146D01*
X27935056Y-40321992D01*
X27935062Y-40321991D01*
X28095069Y-40283576D01*
X28184089Y-40262204D01*
X28188662Y-40260310D01*
X28420697Y-40164198D01*
X28420701Y-40164196D01*
X28425271Y-40162303D01*
X28647856Y-40025903D01*
X28846363Y-39856363D01*
X29015903Y-39657856D01*
X29152303Y-39435271D01*
X29252204Y-39194089D01*
X29273576Y-39105069D01*
X29311991Y-38945062D01*
X29311992Y-38945056D01*
X29313146Y-38940249D01*
X29333628Y-38680000D01*
X57816372Y-38680000D01*
X57836854Y-38940249D01*
X57838008Y-38945056D01*
X57838009Y-38945062D01*
X57876424Y-39105069D01*
X57897796Y-39194089D01*
X57997697Y-39435271D01*
X58134097Y-39657856D01*
X58303637Y-39856363D01*
X58502144Y-40025903D01*
X58724729Y-40162303D01*
X58729299Y-40164196D01*
X58729303Y-40164198D01*
X58961338Y-40260310D01*
X58965911Y-40262204D01*
X59054931Y-40283576D01*
X59214938Y-40321991D01*
X59214944Y-40321992D01*
X59219751Y-40323146D01*
X59480000Y-40343628D01*
X59740249Y-40323146D01*
X59745056Y-40321992D01*
X59745062Y-40321991D01*
X59905069Y-40283576D01*
X59994089Y-40262204D01*
X59998662Y-40260310D01*
X60230697Y-40164198D01*
X60230701Y-40164196D01*
X60235271Y-40162303D01*
X60457856Y-40025903D01*
X60656363Y-39856363D01*
X60825903Y-39657856D01*
X60962303Y-39435271D01*
X61062204Y-39194089D01*
X61083576Y-39105069D01*
X61121991Y-38945062D01*
X61121992Y-38945056D01*
X61123146Y-38940249D01*
X61143628Y-38680000D01*
X61123146Y-38419751D01*
X61121992Y-38414944D01*
X61121991Y-38414938D01*
X61063359Y-38170723D01*
X61062204Y-38165911D01*
X60962303Y-37924729D01*
X60825903Y-37702144D01*
X60656363Y-37503637D01*
X60457856Y-37334097D01*
X60235271Y-37197697D01*
X60230701Y-37195804D01*
X60230697Y-37195802D01*
X59998662Y-37099690D01*
X59998660Y-37099689D01*
X59994089Y-37097796D01*
X59905069Y-37076424D01*
X59745062Y-37038009D01*
X59745056Y-37038008D01*
X59740249Y-37036854D01*
X59480000Y-37016372D01*
X59219751Y-37036854D01*
X59214944Y-37038008D01*
X59214938Y-37038009D01*
X59054931Y-37076424D01*
X58965911Y-37097796D01*
X58961340Y-37099689D01*
X58961338Y-37099690D01*
X58729303Y-37195802D01*
X58729299Y-37195804D01*
X58724729Y-37197697D01*
X58502144Y-37334097D01*
X58303637Y-37503637D01*
X58134097Y-37702144D01*
X57997697Y-37924729D01*
X57897796Y-38165911D01*
X57896641Y-38170723D01*
X57838009Y-38414938D01*
X57838008Y-38414944D01*
X57836854Y-38419751D01*
X57816372Y-38680000D01*
X29333628Y-38680000D01*
X29313146Y-38419751D01*
X29311992Y-38414944D01*
X29311991Y-38414938D01*
X29253359Y-38170723D01*
X29252204Y-38165911D01*
X29152303Y-37924729D01*
X29015903Y-37702144D01*
X28846363Y-37503637D01*
X28647856Y-37334097D01*
X28425271Y-37197697D01*
X28420701Y-37195804D01*
X28420697Y-37195802D01*
X28188662Y-37099690D01*
X28188660Y-37099689D01*
X28184089Y-37097796D01*
X28095069Y-37076424D01*
X27935062Y-37038009D01*
X27935056Y-37038008D01*
X27930249Y-37036854D01*
X27670000Y-37016372D01*
X27409751Y-37036854D01*
X27404944Y-37038008D01*
X27404938Y-37038009D01*
X27244931Y-37076424D01*
X27155911Y-37097796D01*
X27151340Y-37099689D01*
X27151338Y-37099690D01*
X26919303Y-37195802D01*
X26919299Y-37195804D01*
X26914729Y-37197697D01*
X26692144Y-37334097D01*
X26493637Y-37503637D01*
X26324097Y-37702144D01*
X26187697Y-37924729D01*
X26087796Y-38165911D01*
X26086641Y-38170723D01*
X26028009Y-38414938D01*
X26028008Y-38414944D01*
X26026854Y-38419751D01*
X26006372Y-38680000D01*
X24061472Y-38680000D01*
X29949442Y-16705796D01*
X29986393Y-16645174D01*
X30050253Y-16614153D01*
X30071148Y-16612408D01*
X57081137Y-16612408D01*
X57149258Y-16632410D01*
G37*
%TD.AperFunction*%
D12*
X59480000Y-38680000D03*
X65600000Y-61520000D03*
X21540000Y-61550000D03*
X27670000Y-38680000D03*
M02*
