%TF.GenerationSoftware,KiCad,Pcbnew,(6.0.6)*%
%TF.CreationDate,2022-07-10T22:04:11+09:00*%
%TF.ProjectId,nowt_top_plate,6e6f7774-5f74-46f7-905f-706c6174652e,rev?*%
%TF.SameCoordinates,Original*%
%TF.FileFunction,Legend,Bot*%
%TF.FilePolarity,Positive*%
%FSLAX46Y46*%
G04 Gerber Fmt 4.6, Leading zero omitted, Abs format (unit mm)*
G04 Created by KiCad (PCBNEW (6.0.6)) date 2022-07-10 22:04:11*
%MOMM*%
%LPD*%
G01*
G04 APERTURE LIST*
%TA.AperFunction,Profile*%
%ADD10C,0.349999*%
%TD*%
%ADD11C,0.250000*%
%ADD12C,0.350000*%
%ADD13C,2.300000*%
%ADD14C,4.300000*%
%ADD15C,1.200000*%
G04 APERTURE END LIST*
D10*
X60574183Y-106595409D02*
X60611627Y-106686843D01*
X268368122Y-66960407D02*
X268327007Y-66933615D01*
X178268392Y-129570598D02*
X170849523Y-117697925D01*
X221915456Y-62417575D02*
X208221379Y-65328338D01*
X135096517Y-95017428D02*
X135096517Y-57017425D01*
X182722188Y-110279056D02*
X182722188Y-110279056D01*
X71975821Y-24349573D02*
X71927106Y-24355292D01*
X181327611Y-66605006D02*
X181327611Y-66605006D01*
X265886617Y-49790467D02*
X265886617Y-49790467D01*
X111990434Y-135496236D02*
X112079714Y-135537795D01*
X245554595Y-89673526D02*
X245565355Y-89771720D01*
X196251191Y-28984401D02*
X196204852Y-29003241D01*
X43436566Y-91341699D02*
X43525265Y-91300922D01*
X89809743Y-100747767D02*
X83453878Y-113221858D01*
X114121679Y-43115027D02*
X114405217Y-42056855D01*
X21261983Y-90239163D02*
X21332297Y-90304519D01*
X43778705Y-91152846D02*
X43858413Y-91095112D01*
X145096517Y-95017428D02*
X145096517Y-95017428D01*
X94198866Y-29128076D02*
X94159703Y-29099278D01*
X269183735Y-89939904D02*
X269237338Y-89857698D01*
X132923131Y-48769717D02*
X132854309Y-48657354D01*
X113789873Y-135484815D02*
X113875812Y-135438151D01*
X218265957Y-24355285D02*
X218217241Y-24349566D01*
X170849523Y-117697925D02*
X170849523Y-117697925D01*
X219076756Y-25038712D02*
X219060131Y-24991083D01*
X80921697Y-70267982D02*
X67227628Y-67357219D01*
X176152925Y-135333081D02*
X176233767Y-135387805D01*
X202809606Y-73173369D02*
X202809606Y-73173369D01*
X52684961Y-23263975D02*
X52600446Y-23315928D01*
X176267282Y-40924330D02*
X176225182Y-40949138D01*
X267802320Y-90788848D02*
X267899518Y-90773335D01*
X268275047Y-90665030D02*
X268364806Y-90626759D01*
X157108606Y-49134266D02*
X157070913Y-49263894D01*
X26272052Y-47860498D02*
X26170279Y-47864677D01*
X94339232Y-29260203D02*
X94306680Y-29224780D01*
X105241948Y-80127971D02*
X118764913Y-83751437D01*
X228657003Y-107665782D02*
X228744304Y-107618594D01*
X93894249Y-28967784D02*
X93845379Y-28953446D01*
X175757100Y-41716043D02*
X175754285Y-41764772D01*
X132304768Y-48100941D02*
X132193269Y-48030727D01*
X195646475Y-29636186D02*
X195633837Y-29682954D01*
X187909185Y-107103633D02*
X187909185Y-107103633D01*
X221689946Y-89584628D02*
X245373235Y-84550586D01*
X52439988Y-23431798D02*
X52364686Y-23495165D01*
X54105573Y-23036988D02*
X54105573Y-23036988D01*
X246183538Y-90967509D02*
X246257758Y-91033351D01*
X71523509Y-24506906D02*
X71483903Y-24533992D01*
X256897420Y-44812654D02*
X242905950Y-45301246D01*
X71090017Y-25137643D02*
X70782987Y-26581882D01*
X195767001Y-29374974D02*
X195741834Y-29415828D01*
X263818517Y-47861493D02*
X263818517Y-47861493D01*
X95017347Y-41002997D02*
X95017347Y-41002997D01*
X195627507Y-30127522D02*
X195627507Y-30127522D01*
X135096517Y-57017425D02*
X135096517Y-57017425D01*
X104916845Y-58149425D02*
X108540303Y-44626464D01*
X108540303Y-44626464D02*
X95017347Y-41002997D01*
X20658979Y-88736903D02*
X20657987Y-88839836D01*
X24306516Y-49790496D02*
X24306516Y-49790496D01*
X229646511Y-105248485D02*
X229612973Y-105155926D01*
X25777502Y-47930616D02*
X25683537Y-47958800D01*
X175971030Y-41175638D02*
X175941359Y-41214897D01*
X52950339Y-23134955D02*
X52860082Y-23173456D01*
X260975525Y-26622183D02*
X260920704Y-26542902D01*
X113611145Y-135565474D02*
X113701602Y-135527290D01*
X195718634Y-29457854D02*
X195697449Y-29500978D01*
X53089696Y-42245528D02*
X66783757Y-45156291D01*
X260519862Y-26131564D02*
X260442282Y-26074864D01*
X256408818Y-30821180D02*
X256408818Y-30821180D01*
X22426160Y-66785197D02*
X22426160Y-66785197D01*
X20658979Y-88736903D02*
X20658979Y-88736903D01*
X60541166Y-106501826D02*
X60541166Y-106501826D01*
X218819772Y-24626271D02*
X218784350Y-24593718D01*
X52039739Y-47185174D02*
X52039739Y-47185174D01*
X217917028Y-24367413D02*
X196397756Y-28941468D01*
X175887700Y-41298049D02*
X175887700Y-41298049D01*
X177548786Y-135690894D02*
X177645427Y-135677076D01*
X21709027Y-67053107D02*
X21673586Y-67087827D01*
X71132950Y-24991083D02*
X71116325Y-25038711D01*
X177157838Y-135698601D02*
X177255882Y-135703868D01*
X72836072Y-92099246D02*
X85310170Y-98455112D01*
X51339437Y-26431175D02*
X30960530Y-25719528D01*
X53812128Y-22997017D02*
X53714069Y-22993416D01*
X113967856Y-40949123D02*
X113925758Y-40924315D01*
X237828302Y-23495161D02*
X237752997Y-23431794D01*
X21815130Y-90621130D02*
X21904630Y-90660099D01*
X22283981Y-90771780D02*
X22383551Y-90788002D01*
X21405715Y-90366495D02*
X21482116Y-90424961D01*
X102283841Y-107103633D02*
X89809743Y-100747767D01*
X21551265Y-67241424D02*
X21525731Y-67283099D01*
X155096517Y-95017428D02*
X155096517Y-95017428D01*
X227370000Y-63790000D02*
X224459233Y-50095937D01*
X80921697Y-70267982D02*
X80921697Y-70267982D01*
X43346035Y-91378081D02*
X43436566Y-91341699D01*
X114122474Y-41067767D02*
X114086027Y-41035302D01*
X265831951Y-49389130D02*
X265806262Y-49293222D01*
X268928841Y-90241720D02*
X268998296Y-90170863D01*
X229733760Y-105629534D02*
X229719011Y-105533004D01*
X131701619Y-47825593D02*
X114121679Y-43115027D01*
X25501590Y-48028360D02*
X25413869Y-48069494D01*
X60661123Y-104975345D02*
X60661123Y-104975345D01*
X21391515Y-67749690D02*
X21391515Y-67749690D01*
X246414520Y-91152905D02*
X246496729Y-91206493D01*
X114416865Y-42008640D02*
X114426074Y-41960119D01*
X93988216Y-29003252D02*
X93941878Y-28984411D01*
X228828795Y-107567368D02*
X228910360Y-107512238D01*
X114265467Y-135145627D02*
X114334376Y-135076003D01*
X29113032Y-26801045D02*
X29070411Y-26888821D01*
X108865422Y-66605006D02*
X108865422Y-66605006D01*
X22087054Y-66831855D02*
X22040943Y-66847811D01*
X83453878Y-113221858D02*
X83453878Y-113221858D01*
X22278161Y-66790947D02*
X22229551Y-66797675D01*
X60489329Y-106310753D02*
X60512826Y-106406723D01*
X195605485Y-29926168D02*
X195607120Y-29976165D01*
X43696500Y-91206434D02*
X43778705Y-91152846D01*
X131701619Y-47825593D02*
X131701619Y-47825593D01*
X198799154Y-54525958D02*
X185276189Y-58149425D01*
X33784208Y-30821180D02*
X33784208Y-30821180D01*
X60459294Y-105629571D02*
X60449278Y-105726649D01*
X237332905Y-23173453D02*
X237242650Y-23134952D01*
X30282392Y-25812919D02*
X30190183Y-25844838D01*
X261190471Y-27057277D02*
X261155804Y-26965504D01*
X158362265Y-47864869D02*
X158237069Y-47912370D01*
X185706090Y-85153811D02*
X189329564Y-98676776D01*
X21444880Y-67460476D02*
X21430174Y-67507085D01*
X229539668Y-106775976D02*
X229581425Y-106686823D01*
X131955962Y-47912396D02*
X131830767Y-47864898D01*
X237592534Y-23315924D02*
X237508022Y-23263971D01*
X113424249Y-135628556D02*
X113518645Y-135599264D01*
X157781941Y-48178093D02*
X157681105Y-48261904D01*
X114405217Y-42056855D02*
X114405217Y-42056855D01*
X242114019Y-65818885D02*
X242114019Y-65818885D01*
X72238301Y-43783864D02*
X85932363Y-46694627D01*
X238033299Y-23705232D02*
X237968553Y-23632026D01*
X238153295Y-47185174D02*
X241064061Y-60879237D01*
X260734913Y-26322717D02*
X260666307Y-26255612D01*
X64316861Y-81051284D02*
X64316861Y-81051284D01*
X20825762Y-89610233D02*
X20866881Y-89697950D01*
X20756229Y-89428298D02*
X20788838Y-89520306D01*
X228744304Y-107618594D02*
X228828795Y-107567368D01*
X21643384Y-90530845D02*
X21728007Y-90578002D01*
X113230842Y-135673141D02*
X113328099Y-135653247D01*
X180020574Y-61727084D02*
X166497609Y-65350551D01*
X44819799Y-84550586D02*
X68503080Y-89584628D01*
X21399856Y-67651060D02*
X21394474Y-67700164D01*
X61364226Y-107567376D02*
X61448715Y-107618602D01*
X261267429Y-27344923D02*
X261246414Y-27247108D01*
X94559200Y-29682968D02*
X94546565Y-29636201D01*
X21578854Y-67200979D02*
X21551265Y-67241424D01*
X219041291Y-24944743D02*
X219020310Y-24899742D01*
X228419942Y-68729648D02*
X228419942Y-68729648D01*
X21131153Y-90098831D02*
X21194895Y-90170557D01*
X25760633Y-85913226D02*
X25760633Y-85913226D01*
X87383420Y-73173369D02*
X100906385Y-76796836D01*
X118009908Y-88777278D02*
X104486943Y-85153811D01*
X223409276Y-45156291D02*
X220498510Y-31462224D01*
X29388518Y-26397424D02*
X29325349Y-26472909D01*
X259734242Y-25765020D02*
X259636760Y-25746077D01*
X264947734Y-48163998D02*
X264864841Y-48114835D01*
X29600675Y-26189604D02*
X29526448Y-26255445D01*
X60493509Y-105437242D02*
X60474043Y-105533043D01*
X127318883Y-51827590D02*
X113795919Y-48204124D01*
X237421420Y-23216470D02*
X237332905Y-23173453D01*
X245770160Y-90421918D02*
X245817033Y-90507556D01*
X122388379Y-70228473D02*
X122388379Y-70228473D01*
X84882413Y-51634273D02*
X71188344Y-48723508D01*
X268552619Y-67124096D02*
X268519087Y-67087823D01*
X175776168Y-42008677D02*
X175787816Y-42056893D01*
X71195817Y-24856131D02*
X71172771Y-24899744D01*
X114222000Y-41175621D02*
X114190531Y-41137981D01*
X267704119Y-90799589D02*
X267802320Y-90788848D01*
X93527974Y-123946704D02*
X111817571Y-135399585D01*
X48079023Y-65818885D02*
X48079023Y-65818885D01*
X127829030Y-110126506D02*
X145096517Y-110126506D01*
X218454323Y-24401219D02*
X218408356Y-24386373D01*
X265385921Y-48535170D02*
X265320583Y-48464843D01*
X94585905Y-29976174D02*
X94587542Y-29926178D01*
X177836166Y-135635377D02*
X177929914Y-135607555D01*
X207188085Y-91722178D02*
X207188085Y-91722178D01*
X108540303Y-44626464D02*
X108540303Y-44626464D01*
X53042160Y-23101003D02*
X52950339Y-23134955D01*
X94398965Y-29335383D02*
X94370009Y-29297095D01*
X260279060Y-25972715D02*
X260193677Y-25927510D01*
X217917028Y-24367413D02*
X217917028Y-24367413D01*
X47775678Y-31309773D02*
X47775678Y-31309773D01*
X228657003Y-107665782D02*
X228657003Y-107665782D01*
X218168023Y-24346251D02*
X218118379Y-24345387D01*
X265561134Y-48764286D02*
X265506327Y-48685012D01*
X238853597Y-26431175D02*
X238853597Y-26431175D01*
X44465636Y-90334119D02*
X44503921Y-90244377D01*
X245655376Y-90152840D02*
X245689258Y-90244398D01*
X22090277Y-90725038D02*
X22186182Y-90750748D01*
X177741279Y-135658561D02*
X177836166Y-135635377D01*
X247491491Y-67443198D02*
X247002889Y-53451728D01*
X211238744Y-110929202D02*
X223712835Y-104573337D01*
X113328099Y-135653247D02*
X113424249Y-135628556D01*
X52292802Y-23561958D02*
X52224437Y-23632030D01*
X218217241Y-24349566D02*
X218168023Y-24346251D01*
X269372646Y-89597756D02*
X269409042Y-89507220D01*
X111817571Y-135399585D02*
X111902995Y-135450156D01*
X24490742Y-49017981D02*
X24451787Y-49107497D01*
X249952336Y-72410342D02*
X263943807Y-71921748D01*
X43525265Y-91300922D02*
X43611965Y-91255813D01*
X219103063Y-25137647D02*
X219091091Y-25087583D01*
X25245580Y-48163861D02*
X25165273Y-48216853D01*
X25760633Y-85913226D02*
X39752103Y-86401813D01*
X75149060Y-30089796D02*
X72238301Y-43783864D01*
X61128780Y-107390820D02*
X61204143Y-107453350D01*
X261026576Y-26704205D02*
X260975525Y-26622183D01*
X21904630Y-90660099D02*
X21996386Y-90694778D01*
X175762284Y-41667536D02*
X175757100Y-41716043D01*
X135096517Y-95017428D02*
X135096517Y-95017428D01*
X175863970Y-41341609D02*
X175842518Y-41386095D01*
X172183126Y-88777278D02*
X172183126Y-88777278D01*
X52039739Y-47185174D02*
X49128980Y-60879237D01*
X206739156Y-113221858D02*
X206739156Y-113221858D01*
X247128150Y-91460285D02*
X247224353Y-91478464D01*
X175787816Y-42056893D02*
X176071355Y-43115027D01*
X60541166Y-106501826D02*
X60574183Y-106595409D01*
X229699543Y-105437201D02*
X229675372Y-105342303D01*
X133084440Y-49134253D02*
X133038503Y-49008477D01*
X157586059Y-48352045D02*
X157497110Y-48448208D01*
X113959275Y-135387403D02*
X114040116Y-135332673D01*
X259537717Y-25731936D02*
X259437242Y-25722718D01*
X85310170Y-98455112D02*
X78954297Y-110929202D01*
X268584207Y-67161840D02*
X268552619Y-67124096D01*
X132511927Y-48261913D02*
X132411090Y-48178106D01*
X113035188Y-135698248D02*
X113133146Y-135688132D01*
X245625970Y-90059632D02*
X245655376Y-90152840D01*
X28710080Y-66954608D02*
X28710080Y-66954608D01*
X114575116Y-134763888D02*
X126221341Y-116126506D01*
X61056689Y-107324792D02*
X61128780Y-107390820D01*
X43190145Y-53451728D02*
X43190145Y-53451728D01*
X241064061Y-60879237D02*
X241064061Y-60879237D01*
X24340171Y-49486913D02*
X24323969Y-49586497D01*
X269286732Y-89773161D02*
X269331856Y-89686458D01*
X118764913Y-83751437D02*
X122388379Y-70228473D01*
X42773685Y-91500607D02*
X42871717Y-91491898D01*
X260862241Y-26466484D02*
X260800267Y-26393048D01*
X194265065Y-119577724D02*
X187909185Y-107103633D01*
X261116845Y-26875986D02*
X261073726Y-26788846D01*
X25328489Y-48114701D02*
X25245580Y-48163861D01*
X268711694Y-67369811D02*
X268690380Y-67325920D01*
X237057619Y-23071629D02*
X236963192Y-23046871D01*
X71445617Y-24562948D02*
X71408726Y-24593727D01*
X24323969Y-49586497D02*
X24312707Y-49687732D01*
X246756678Y-91341756D02*
X246847213Y-91378137D01*
X132193269Y-48030727D02*
X132076898Y-47967775D01*
X245868089Y-90590897D02*
X245923254Y-90671781D01*
X71373305Y-24626279D02*
X71339429Y-24660557D01*
X71483903Y-24533992D02*
X71445617Y-24562948D01*
X60987987Y-107255401D02*
X61056689Y-107324792D01*
X219004689Y-48723508D02*
X219004689Y-48723508D01*
X22133914Y-66818160D02*
X22087054Y-66831855D01*
X112079714Y-135537795D02*
X112170660Y-135574803D01*
X176864934Y-135653613D02*
X176864934Y-135653613D01*
X175791943Y-41524231D02*
X175779718Y-41571542D01*
X236867723Y-23026759D02*
X236771387Y-23011325D01*
X61536016Y-107665790D02*
X61536016Y-107665790D01*
X242417363Y-31309773D02*
X256408818Y-30821180D01*
X269331856Y-89686458D02*
X269372646Y-89597756D01*
X264320143Y-47907079D02*
X264222681Y-47888120D01*
X83004949Y-91722178D02*
X83004949Y-91722178D01*
X177645427Y-135677076D02*
X177741279Y-135658561D01*
X229581425Y-106686823D02*
X229618872Y-106595387D01*
X267995551Y-90753122D02*
X268090258Y-90728285D01*
X268519087Y-67087823D02*
X268483648Y-67053103D01*
X113882422Y-40901556D02*
X113837920Y-40880900D01*
X72074681Y-24345392D02*
X72025038Y-24346257D01*
X260920704Y-26542902D02*
X260862241Y-26466484D01*
X229064249Y-107390810D02*
X229136342Y-107324781D01*
X60861208Y-107107070D02*
X60922788Y-107182782D01*
X145096517Y-95017428D02*
X135096517Y-95017428D01*
X42701551Y-67443198D02*
X43190145Y-53451728D01*
X24941258Y-48397605D02*
X24872655Y-48464711D01*
X114426074Y-41960119D02*
X114432854Y-41911380D01*
X21608462Y-67161844D02*
X21578854Y-67200979D01*
X53135372Y-23071632D02*
X53042160Y-23101003D01*
X44612293Y-89868905D02*
X44627826Y-89771719D01*
X26374997Y-47861484D02*
X26272052Y-47860498D01*
X265806262Y-49293222D02*
X265776023Y-49199327D01*
X238153295Y-47185174D02*
X238153295Y-47185174D01*
X175754285Y-41764772D02*
X175753853Y-41813636D01*
X21482116Y-90424961D02*
X21561380Y-90479788D01*
X247518303Y-91504515D02*
X247617513Y-91503497D01*
X176144975Y-41004686D02*
X176107008Y-41035318D01*
X112839184Y-135703974D02*
X112937142Y-135703519D01*
X176397115Y-48204124D02*
X176397115Y-48204124D01*
X196397756Y-28941468D02*
X196347692Y-28953440D01*
X20685507Y-89141090D02*
X20704442Y-89238560D01*
X114423198Y-41619313D02*
X114413307Y-41571517D01*
X170849523Y-117697925D02*
X182722188Y-110279056D01*
X195611303Y-30026439D02*
X195618083Y-30076917D01*
X155096517Y-57017425D02*
X155096517Y-95017428D01*
X84882413Y-51634273D02*
X84882413Y-51634273D01*
X176962189Y-135673503D02*
X177059882Y-135688489D01*
X268762496Y-67507085D02*
X268747789Y-67460474D01*
X133122136Y-49263879D02*
X133122136Y-49263879D01*
X242417363Y-31309773D02*
X242417363Y-31309773D01*
X229618872Y-106595387D02*
X229651891Y-106501803D01*
X94569577Y-29730459D02*
X94559200Y-29682968D01*
X241064061Y-60879237D02*
X227370000Y-63790000D01*
X263943807Y-71921748D02*
X263943807Y-71921748D01*
X259830032Y-25788642D02*
X259734242Y-25765020D01*
X162364003Y-110126506D02*
X163971700Y-116126506D01*
X157888262Y-48100925D02*
X157781941Y-48178093D01*
X95017347Y-41002997D02*
X91393880Y-54525958D01*
X113133146Y-135688132D02*
X113230842Y-135673141D01*
X24745332Y-48608478D02*
X24686873Y-48684897D01*
X176494924Y-40832110D02*
X176447344Y-40846131D01*
X265612172Y-48846299D02*
X265561134Y-48764286D01*
X265880424Y-49687719D02*
X265869162Y-49586500D01*
X114435928Y-41716014D02*
X114430742Y-41667508D01*
X261294898Y-27545746D02*
X261283634Y-27444509D01*
X178022346Y-135575124D02*
X178113288Y-135538113D01*
X47775678Y-31309773D02*
X33784208Y-30821180D01*
X268483648Y-67053103D02*
X268483648Y-67053103D01*
X71831476Y-24373745D02*
X71784711Y-24386382D01*
X238299217Y-24113145D02*
X238254077Y-24026465D01*
X126221341Y-116126506D02*
X127829030Y-110126506D01*
X224459233Y-50095937D02*
X224459233Y-50095937D01*
X114279468Y-41255700D02*
X114251670Y-41214879D01*
X217967633Y-24357988D02*
X217917028Y-24367413D01*
X44147580Y-90825483D02*
X44210739Y-90750002D01*
X229136342Y-107324781D02*
X229205048Y-107255390D01*
X122388379Y-70228473D02*
X108865422Y-66605006D01*
X52098667Y-23781429D02*
X52041462Y-23860463D01*
X202809606Y-73173369D02*
X189286657Y-76796836D01*
X196347692Y-28953440D02*
X196298821Y-28967776D01*
X21014193Y-89946539D02*
X21070879Y-90024115D01*
X268613814Y-67200976D02*
X268584207Y-67161840D01*
X247033116Y-91437463D02*
X247128150Y-91460285D01*
X52860082Y-23173456D02*
X52771565Y-23216474D01*
X238853597Y-26431175D02*
X238459569Y-24577460D01*
X28968823Y-27163345D02*
X28943965Y-27258047D01*
X53518633Y-23000603D02*
X53421605Y-23011327D01*
X61773091Y-68729648D02*
X61773091Y-68729648D01*
X259335466Y-25718543D02*
X259232518Y-25719533D01*
X68503080Y-89584628D02*
X60661123Y-104975345D01*
X229493715Y-106862710D02*
X229539668Y-106775976D01*
X223712835Y-104573337D02*
X217356969Y-92099246D01*
X42871717Y-91491898D02*
X42968915Y-91478421D01*
X44644506Y-89574496D02*
X44819799Y-84550586D01*
X28943965Y-27258047D02*
X28923731Y-27354076D01*
X21784680Y-66989277D02*
X21746146Y-67020186D01*
X177929914Y-135607555D02*
X178022346Y-135575124D01*
X269531635Y-88934822D02*
X269535524Y-88836110D01*
X268780782Y-90371913D02*
X268856283Y-90308761D01*
X260361972Y-26021874D02*
X260279060Y-25972715D01*
X60653383Y-106775994D02*
X60699334Y-106862728D01*
X23711377Y-66830077D02*
X23711377Y-66830077D01*
X175755813Y-41862546D02*
X175760178Y-41911415D01*
X112547589Y-135676743D02*
X112644232Y-135690557D01*
X176225182Y-40949138D02*
X176184390Y-40975941D01*
X228910360Y-107512238D02*
X228988883Y-107453341D01*
X247224353Y-91478464D02*
X247321556Y-91491936D01*
X60449278Y-105726649D02*
X60444008Y-105824100D01*
X260594580Y-26191854D02*
X260519862Y-26131564D01*
X155096517Y-95017428D02*
X145096517Y-95017428D01*
X157338728Y-48657358D02*
X157269908Y-48769724D01*
X54008054Y-23018771D02*
X53910181Y-23005458D01*
X268690380Y-67325920D02*
X268666937Y-67283096D01*
X189286657Y-76796836D02*
X185663182Y-63273875D01*
X29198674Y-52963138D02*
X28710080Y-66954608D01*
X196749273Y-35404974D02*
X176494924Y-40832110D01*
X93443761Y-35404974D02*
X94565511Y-30127528D01*
X220498510Y-31462224D02*
X234192571Y-28551461D01*
X209271337Y-70267982D02*
X222965398Y-67357219D01*
X268798195Y-67700164D02*
X268792813Y-67651060D01*
X229531926Y-104975291D02*
X221689946Y-89584628D01*
X217954732Y-43783864D02*
X217954732Y-43783864D01*
X268483648Y-67053103D02*
X268446526Y-67020182D01*
X265251994Y-48397740D02*
X265180285Y-48333983D01*
X133038503Y-49008477D02*
X132984631Y-48886862D01*
X195606350Y-29876523D02*
X195605485Y-29926168D01*
X52771565Y-23216474D02*
X52684961Y-23263975D01*
X131830767Y-47864898D02*
X131701619Y-47825593D01*
X269468398Y-89321315D02*
X269491235Y-89226277D01*
X30376101Y-25785521D02*
X30282392Y-25812919D01*
X61448715Y-107618602D02*
X61536016Y-107665790D01*
X245548680Y-89574489D02*
X245554595Y-89673526D01*
X22040943Y-66847811D02*
X21995666Y-66865997D01*
X71339429Y-24660557D02*
X71307171Y-24696511D01*
X52600446Y-23315928D02*
X52600446Y-23315928D01*
X196397756Y-28941468D02*
X196397756Y-28941468D01*
X268364806Y-90626759D02*
X268452593Y-90584157D01*
X25873289Y-47906990D02*
X25777502Y-47930616D01*
X175672573Y-134847199D02*
X175731016Y-134926904D01*
X264601858Y-47991540D02*
X264509861Y-47958910D01*
X114305326Y-41298030D02*
X114279468Y-41255700D01*
X113701602Y-135527290D02*
X113789873Y-135484815D01*
X28183896Y-47924653D02*
X28183896Y-47924653D01*
X265702417Y-49018060D02*
X265659309Y-48930931D01*
X269125986Y-90019610D02*
X269183735Y-89939904D01*
X30190183Y-25844838D02*
X30099640Y-25881214D01*
X229389681Y-107028386D02*
X229443681Y-106946892D01*
X66783757Y-45156291D02*
X69694524Y-31462224D01*
X30960530Y-25719528D02*
X30960530Y-25719528D01*
X265320583Y-48464843D02*
X265251994Y-48397740D01*
X204882863Y-98455112D02*
X204882863Y-98455112D01*
X195853824Y-29260186D02*
X195823045Y-29297078D01*
X48079023Y-65818885D02*
X45168256Y-79512950D01*
X71738745Y-24401229D02*
X71693652Y-24418236D01*
X208221379Y-65328338D02*
X205310613Y-51634273D01*
X260800267Y-26393048D02*
X260734913Y-26322717D01*
X29526448Y-26255445D02*
X29455576Y-26324882D01*
X69694524Y-31462224D02*
X69694524Y-31462224D01*
X20788838Y-89520306D02*
X20825762Y-89610233D01*
X190041661Y-81822677D02*
X190041661Y-81822677D01*
X262009130Y-47924653D02*
X262009130Y-47924653D01*
X175842518Y-41386095D02*
X175823355Y-41431419D01*
X44503921Y-90244377D02*
X44537803Y-90152823D01*
X60517679Y-105342346D02*
X60493509Y-105437242D01*
X218669564Y-24506896D02*
X218628711Y-24481729D01*
X91393880Y-54525958D02*
X104916845Y-58149425D01*
X93527974Y-123946704D02*
X93527974Y-123946704D01*
X30099640Y-25881214D02*
X30010928Y-25921986D01*
X145096517Y-110126506D02*
X162364003Y-110126506D01*
X268856283Y-90308761D02*
X268928841Y-90241720D01*
X157999762Y-48030708D02*
X157888262Y-48100925D01*
X236282804Y-23005457D02*
X236184929Y-23018770D01*
X87383420Y-73173369D02*
X87383420Y-73173369D01*
X176002500Y-41137997D02*
X175971030Y-41175638D01*
X94577649Y-29778600D02*
X94569577Y-29730459D01*
X30762605Y-25722369D02*
X30664561Y-25731066D01*
X114157332Y-41102011D02*
X114122474Y-41067767D01*
X229743777Y-105726614D02*
X229733760Y-105629534D01*
X219091091Y-25087583D02*
X219076756Y-25038712D01*
X28998233Y-27070133D02*
X28968823Y-27163345D01*
X47287084Y-45301246D02*
X47775678Y-31309773D01*
X113698117Y-40832093D02*
X113698117Y-40832093D01*
X94546565Y-29636201D02*
X94531720Y-29590234D01*
X172183126Y-88777278D02*
X185706090Y-85153811D01*
X218885908Y-24696504D02*
X218853650Y-24660549D01*
X247617513Y-91503497D02*
X267605077Y-90805484D01*
X218853650Y-24660549D02*
X218819772Y-24626271D01*
X218916473Y-24734088D02*
X218885908Y-24696504D01*
X21480974Y-67369813D02*
X21461826Y-67414691D01*
X237103337Y-42245528D02*
X237103337Y-42245528D01*
X229736248Y-106116892D02*
X229745298Y-106019383D01*
X221689946Y-89584628D02*
X221689946Y-89584628D01*
X157497110Y-48448208D02*
X157414564Y-48550082D01*
X218018109Y-24351207D02*
X217967633Y-24357988D01*
X247419595Y-91500641D02*
X247518303Y-91504515D01*
X245817033Y-90507556D02*
X245868089Y-90590897D01*
X24306516Y-49790496D02*
X23711377Y-66830077D01*
X68277578Y-62417575D02*
X81971646Y-65328338D01*
X178289999Y-135450471D02*
X178375417Y-135399898D01*
X113328099Y-135653247D02*
X113328099Y-135653247D01*
X256897420Y-44812654D02*
X256897420Y-44812654D01*
X237900187Y-23561954D02*
X237828302Y-23495161D01*
X51938916Y-24026469D02*
X51893775Y-24113148D01*
X112451735Y-135658231D02*
X112547589Y-135676743D01*
X29455576Y-26324882D02*
X29388518Y-26397424D01*
X60580076Y-105155974D02*
X60546539Y-105248531D01*
X267963119Y-66797671D02*
X267914510Y-66790943D01*
X196204852Y-29003241D02*
X196159850Y-29024222D01*
X88843129Y-33000560D02*
X75149060Y-30089796D01*
X68503080Y-89584628D02*
X68503080Y-89584628D01*
X21525731Y-67283099D02*
X21502288Y-67325922D01*
X171428121Y-83751437D02*
X167804647Y-70228473D01*
X60444008Y-105824100D02*
X60443497Y-105921747D01*
X93795316Y-28941473D02*
X93795316Y-28941473D01*
X264779478Y-48069624D02*
X264691774Y-48028485D01*
X44638588Y-89673529D02*
X44644506Y-89574496D01*
X60618275Y-105064853D02*
X60580076Y-105155974D01*
X53616179Y-22994622D02*
X53518633Y-23000603D01*
X112741489Y-135699644D02*
X112839184Y-135703974D01*
X102283841Y-107103633D02*
X102283841Y-107103633D01*
X28891515Y-27648513D02*
X28183896Y-47924653D01*
X199186147Y-59650409D02*
X202809606Y-73173369D01*
X218118379Y-24345387D02*
X218068383Y-24347023D01*
X204260671Y-46694627D02*
X201349904Y-33000560D01*
X20912073Y-89783327D02*
X20961218Y-89866233D01*
X96527906Y-95345645D02*
X100151372Y-81822677D01*
X268407990Y-66989273D02*
X268368122Y-66960407D01*
X261283634Y-27444509D02*
X261267429Y-27344923D01*
X246847213Y-91378137D02*
X246939414Y-91410060D01*
X229680232Y-106406698D02*
X229703729Y-106310727D01*
X206739156Y-113221858D02*
X194265065Y-119577724D01*
X222965398Y-67357219D02*
X225876165Y-81051284D01*
X72225425Y-24357988D02*
X72174949Y-24351209D01*
X65733808Y-50095937D02*
X65733808Y-50095937D01*
X22383551Y-90788002D02*
X22484771Y-90799285D01*
X70782987Y-26581882D02*
X70782987Y-26581882D01*
X114401081Y-41524207D02*
X114386531Y-41477471D01*
X229722397Y-106214066D02*
X229736248Y-106116892D01*
X184951085Y-80127971D02*
X184951085Y-80127971D01*
X242114019Y-65818885D02*
X245024785Y-79512950D01*
X267766515Y-66785193D02*
X267766515Y-66785193D01*
X22376549Y-66784677D02*
X22327188Y-66786604D01*
X71276606Y-24734094D02*
X71247809Y-24773257D01*
X268792813Y-67651060D02*
X268785045Y-67602458D01*
X93443761Y-35404974D02*
X93443761Y-35404974D01*
X114193357Y-135211682D02*
X114265467Y-135145627D01*
X114413307Y-41571517D02*
X114401081Y-41524207D01*
X265886617Y-49790467D02*
X265880424Y-49687719D01*
X176071355Y-43115027D02*
X176071355Y-43115027D01*
X269409042Y-89507220D02*
X269440980Y-89415018D01*
X52364686Y-23495165D02*
X52292802Y-23561958D01*
X268058753Y-66818156D02*
X268011228Y-66806752D01*
X203564626Y-78199210D02*
X203564626Y-78199210D01*
X176397115Y-48204124D02*
X180020574Y-61727084D01*
X45168256Y-79512950D02*
X45168256Y-79512950D01*
X113792321Y-40862402D02*
X113745697Y-40846115D01*
X196116236Y-29047269D02*
X196074056Y-29072308D01*
X195994196Y-29128061D02*
X195956611Y-29158626D01*
X261301091Y-27648511D02*
X261301091Y-27648511D01*
X94306680Y-29224780D02*
X94272403Y-29190902D01*
X162874150Y-51827590D02*
X162874150Y-51827590D01*
X195920656Y-29190886D02*
X195886377Y-29224763D01*
X24361184Y-49389099D02*
X24340171Y-49486913D01*
X104529851Y-63273875D02*
X91006887Y-59650409D01*
X265506327Y-48685012D02*
X265447879Y-48608600D01*
X223712835Y-104573337D02*
X223712835Y-104573337D01*
X114386441Y-102300242D02*
X118009908Y-88777278D01*
X94272403Y-29190902D02*
X94236449Y-29158642D01*
X268801152Y-67749690D02*
X268798195Y-67700164D01*
X72174949Y-24351209D02*
X72124676Y-24347026D01*
X218709172Y-24533982D02*
X218669564Y-24506896D01*
X51893775Y-24113148D02*
X51852857Y-24202084D01*
X185276189Y-58149425D02*
X181652730Y-44626464D01*
X132984631Y-48886862D02*
X132923131Y-48769717D01*
X71172771Y-24899744D02*
X71151790Y-24944744D01*
X100906385Y-76796836D02*
X104529851Y-63273875D01*
X43160142Y-91437413D02*
X43253838Y-91410007D01*
X29839668Y-26016467D02*
X29757450Y-26070053D01*
X228988883Y-107453341D02*
X229064249Y-107390810D01*
X28183896Y-47924653D02*
X26374997Y-47861484D01*
X218628711Y-24481729D02*
X218586685Y-24458530D01*
X70782987Y-26581882D02*
X54105573Y-23036988D01*
X265105585Y-48273693D02*
X265028025Y-48216991D01*
X85310170Y-98455112D02*
X85310170Y-98455112D01*
X195741834Y-29415828D02*
X195718634Y-29457854D01*
X229675372Y-105342303D02*
X229646511Y-105248485D01*
X33784208Y-30821180D02*
X33295613Y-44812654D01*
X112170660Y-135574803D02*
X112263095Y-135607231D01*
X25970767Y-47888044D02*
X25873289Y-47906990D01*
X94565511Y-30127528D02*
X94574938Y-30076924D01*
X21461826Y-67414691D02*
X21444880Y-67460476D01*
X229703729Y-106310727D02*
X229722397Y-106214066D01*
X261220718Y-27151186D02*
X261190471Y-27057277D01*
X234192571Y-28551461D02*
X234192571Y-28551461D01*
X60443497Y-105921747D02*
X60447760Y-106019413D01*
X167804647Y-70228473D02*
X181327611Y-66605006D01*
X263921446Y-47860527D02*
X263818517Y-47861493D01*
X181652730Y-44626464D02*
X181652730Y-44626464D01*
X44210739Y-90750002D02*
X44269936Y-90671741D01*
X196298821Y-28967776D02*
X196251191Y-28984401D01*
X94370009Y-29297095D02*
X94339232Y-29260203D01*
X219410039Y-26581882D02*
X219410039Y-26581882D01*
X247002889Y-53451728D02*
X247002889Y-53451728D01*
X21640052Y-67124100D02*
X21608462Y-67161844D01*
X21865661Y-66933618D02*
X21824546Y-66960411D01*
X94583366Y-29827316D02*
X94577649Y-29778600D01*
X175760178Y-41911415D02*
X175766959Y-41960154D01*
X176317230Y-135438548D02*
X176403169Y-135485206D01*
X267865484Y-66786600D02*
X267816125Y-66784673D01*
X43253838Y-91410007D02*
X43346035Y-91378081D01*
X245727544Y-90334145D02*
X245770160Y-90421918D01*
X237508022Y-23263971D02*
X237421420Y-23216470D01*
X94514714Y-29545140D02*
X94495596Y-29500994D01*
X163971700Y-116126506D02*
X175617910Y-134764339D01*
X112263095Y-135607231D02*
X112356846Y-135635050D01*
X72025038Y-24346257D02*
X71975821Y-24349573D01*
X78954297Y-110929202D02*
X78954297Y-110929202D01*
X256408818Y-30821180D02*
X256897420Y-44812654D01*
X237242650Y-23134952D02*
X237150830Y-23101000D01*
X195607120Y-29976165D02*
X195611303Y-30026439D01*
X236771387Y-23011325D02*
X236674358Y-23000601D01*
X175731016Y-134926904D02*
X175793093Y-135003350D01*
X225876165Y-81051284D02*
X225876165Y-81051284D01*
X209271337Y-70267982D02*
X209271337Y-70267982D01*
X199186147Y-59650409D02*
X199186147Y-59650409D01*
X195609666Y-29827304D02*
X195606350Y-29876523D01*
X60611627Y-106686843D02*
X60653383Y-106775994D01*
X178113288Y-135538113D02*
X178202564Y-135496552D01*
X259437242Y-25722718D02*
X259335466Y-25718543D01*
X260994359Y-52963138D02*
X260994359Y-52963138D01*
X162364003Y-110126506D02*
X162364003Y-110126506D01*
X268998296Y-90170863D02*
X269064152Y-90096652D01*
X28897433Y-27549470D02*
X28891515Y-27648513D01*
X176074848Y-135274479D02*
X176152925Y-135333081D01*
X176674393Y-135599639D02*
X176768787Y-135628927D01*
X259924000Y-25816824D02*
X259830032Y-25788642D01*
X261073726Y-26788846D02*
X261026576Y-26704205D01*
X29757450Y-26070053D02*
X29677731Y-26127786D01*
X238204814Y-23942188D02*
X238151530Y-23860459D01*
X132076898Y-47967775D02*
X131955962Y-47912396D01*
X175927571Y-135146052D02*
X175999682Y-135212101D01*
X71116325Y-25038711D02*
X71101989Y-25087580D01*
X190041661Y-81822677D02*
X203564626Y-78199210D01*
X158237069Y-47912370D02*
X158116133Y-47967753D01*
X67227628Y-67357219D02*
X64316861Y-81051284D01*
X111902995Y-135450156D02*
X111990434Y-135496236D01*
X177451531Y-135699985D02*
X177548786Y-135690894D01*
X71693652Y-24418236D02*
X71649508Y-24437356D01*
X72238301Y-43783864D02*
X72238301Y-43783864D01*
X176107008Y-41035318D02*
X176070560Y-41067783D01*
X247617513Y-91503497D02*
X247617513Y-91503497D01*
X61536016Y-107665790D02*
X93527974Y-123946704D01*
X25012982Y-48333846D02*
X24941258Y-48397605D01*
X113925758Y-40924315D02*
X113882422Y-40901556D01*
X81971646Y-65328338D02*
X84882413Y-51634273D01*
X30861317Y-25718502D02*
X30762605Y-25722369D01*
X246334807Y-91095170D02*
X246414520Y-91152905D01*
X24386878Y-49293178D02*
X24361184Y-49389099D01*
X71784711Y-24386382D02*
X71738745Y-24401229D01*
X245548680Y-89574489D02*
X245548680Y-89574489D01*
X268730843Y-67414690D02*
X268711694Y-67369811D01*
X195615384Y-29778587D02*
X195609666Y-29827304D01*
X26069807Y-47873899D02*
X25970767Y-47888044D01*
X21746146Y-67020186D02*
X21709027Y-67053107D01*
X24533859Y-48930841D02*
X24490742Y-49017981D01*
X237968553Y-23632026D02*
X237900187Y-23561954D01*
X176310618Y-40901571D02*
X176267282Y-40924330D01*
X114350506Y-41386074D02*
X114329055Y-41341589D01*
X236576811Y-22994620D02*
X236478920Y-22993415D01*
X175823355Y-41431419D02*
X175806493Y-41477494D01*
X86628408Y-78199210D02*
X86628408Y-78199210D01*
X246939414Y-91410060D02*
X247033116Y-91437463D01*
X100151372Y-81822677D02*
X100151372Y-81822677D01*
X203564626Y-78199210D02*
X207188085Y-91722178D01*
X29325349Y-26472909D02*
X29266142Y-26551175D01*
X21824546Y-66960411D02*
X21784680Y-66989277D01*
X201349904Y-33000560D02*
X215043981Y-30089796D01*
X94495596Y-29500994D02*
X94474413Y-29457871D01*
X269509428Y-89130072D02*
X269522916Y-89032864D01*
X60447760Y-106019413D02*
X60456810Y-106116921D01*
X163971700Y-116126506D02*
X163971700Y-116126506D01*
X44269936Y-90671741D02*
X44325098Y-90590860D01*
X21394474Y-67700164D02*
X21391515Y-67749690D01*
X71564362Y-24481739D02*
X71523509Y-24506906D01*
X217356969Y-92099246D02*
X204882863Y-98455112D01*
X52518608Y-23372004D02*
X52439988Y-23431798D01*
X261301091Y-27648511D02*
X261294898Y-27545746D01*
X158491414Y-47825561D02*
X158491414Y-47825561D01*
X85932363Y-46694627D02*
X88843129Y-33000560D01*
X22327188Y-66786604D02*
X22278161Y-66790947D01*
X200383290Y-100747767D02*
X200383290Y-100747767D01*
X219004689Y-48723508D02*
X221915456Y-62417575D01*
X112356846Y-135635050D02*
X112451735Y-135658231D01*
X71878966Y-24363365D02*
X71831476Y-24373745D01*
X211238744Y-110929202D02*
X211238744Y-110929202D01*
X52041462Y-23860463D02*
X51988178Y-23942191D01*
X119343511Y-117697925D02*
X107470845Y-110279056D01*
X114040116Y-135332673D02*
X114118192Y-135274065D01*
X100863477Y-98676776D02*
X100863477Y-98676776D01*
X114575116Y-134763888D02*
X114575116Y-134763888D01*
X123695417Y-65350551D02*
X127318883Y-51827590D01*
X268183477Y-90698896D02*
X268275047Y-90665030D01*
X268011228Y-66806752D02*
X267963119Y-66797671D01*
X20657987Y-88839836D02*
X20662158Y-88941599D01*
X145096517Y-110126506D02*
X145096517Y-110126506D01*
X222965398Y-67357219D02*
X222965398Y-67357219D01*
X113795919Y-48204124D02*
X113795919Y-48204124D01*
X247321556Y-91491936D02*
X247419595Y-91500641D01*
X263943807Y-71921748D02*
X264432409Y-85913226D01*
X175787816Y-42056893D02*
X175787816Y-42056893D01*
X260193677Y-25927510D02*
X260105953Y-25886379D01*
X71408726Y-24593727D02*
X71373305Y-24626279D01*
X25683537Y-47958800D02*
X25591523Y-47991422D01*
X54105573Y-23036988D02*
X54008054Y-23018771D01*
X268105613Y-66831851D02*
X268058753Y-66818156D01*
X53325269Y-23026762D02*
X53229800Y-23046874D01*
X234192571Y-28551461D02*
X237103337Y-42245528D01*
X114334376Y-135076003D02*
X114399941Y-135002914D01*
X28891515Y-27648513D02*
X28891515Y-27648513D01*
X195697449Y-29500978D02*
X195678329Y-29545124D01*
X68277578Y-62417575D02*
X68277578Y-62417575D01*
X218586685Y-24458530D02*
X218543562Y-24437346D01*
X266481664Y-66830077D02*
X265886617Y-49790467D01*
X104486943Y-85153811D02*
X100863477Y-98676776D01*
X245923254Y-90671781D02*
X245982455Y-90750046D01*
X269440980Y-89415018D02*
X269468398Y-89321315D01*
X112937142Y-135703519D02*
X113035188Y-135698248D01*
X72124676Y-24347026D02*
X72074681Y-24345392D01*
X44325098Y-90590860D02*
X44376151Y-90507522D01*
X21417743Y-67554440D02*
X21407625Y-67602459D01*
X83004949Y-91722178D02*
X96527906Y-95345645D01*
X265741365Y-49107566D02*
X265702417Y-49018060D01*
X71151790Y-24944744D02*
X71132950Y-24991083D01*
X44644506Y-89574496D02*
X44644506Y-89574496D01*
X218945271Y-24773252D02*
X218916473Y-24734088D01*
X259232518Y-25719533D02*
X238853597Y-26431175D01*
X22426160Y-66785197D02*
X22376549Y-66784677D01*
X132854309Y-48657354D02*
X132778471Y-48550082D01*
X250440923Y-86401813D02*
X249952336Y-72410342D01*
X29266142Y-26551175D02*
X29210972Y-26632060D01*
X100151372Y-81822677D02*
X86628408Y-78199210D01*
X267766515Y-66785193D02*
X266481664Y-66830077D01*
X44819799Y-84550586D02*
X44819799Y-84550586D01*
X218972226Y-24813948D02*
X218945271Y-24773252D01*
X229443681Y-106946892D02*
X229493715Y-106862710D01*
X61773091Y-68729648D02*
X48079023Y-65818885D01*
X114251670Y-41214879D02*
X114222000Y-41175621D01*
X91006887Y-59650409D02*
X87383420Y-73173369D01*
X237592534Y-23315924D02*
X237592534Y-23315924D01*
X94587542Y-29926178D02*
X94586679Y-29876534D01*
X238151530Y-23860459D02*
X238094325Y-23781425D01*
X264123658Y-47873961D02*
X264023203Y-47864723D01*
X40240697Y-72410342D02*
X26249227Y-71921748D01*
X24451787Y-49107497D02*
X24417122Y-49199270D01*
X127829030Y-110126506D02*
X127829030Y-110126506D01*
X44009671Y-90967456D02*
X44080533Y-90898021D01*
X264023203Y-47864723D02*
X263921446Y-47860527D01*
X268151723Y-66847807D02*
X268105613Y-66831851D01*
X175999682Y-135212101D02*
X176074848Y-135274479D01*
X218499417Y-24418226D02*
X218454323Y-24401219D01*
X218784350Y-24593718D02*
X218747459Y-24562939D01*
X175913559Y-41255718D02*
X175887700Y-41298049D01*
X158491414Y-47825561D02*
X158362265Y-47864869D01*
X269535524Y-88836110D02*
X269534520Y-88736896D01*
X60803362Y-107028401D02*
X60861208Y-107107070D01*
X72276029Y-24367411D02*
X72225425Y-24357988D01*
X229331833Y-107107057D02*
X229389681Y-107028386D01*
X218543562Y-24437346D02*
X218499417Y-24418226D01*
X28908196Y-27451271D02*
X28897433Y-27549470D01*
X21561380Y-90479788D02*
X21643384Y-90530845D01*
X114121679Y-43115027D02*
X114121679Y-43115027D01*
X107470845Y-110279056D02*
X100051976Y-122151729D01*
X176403169Y-135485206D02*
X176491439Y-135527676D01*
X175887700Y-41298049D02*
X175863970Y-41341609D01*
X71247809Y-24773257D02*
X71220855Y-24813953D01*
X265180285Y-48333983D02*
X265105585Y-48273693D01*
X246112671Y-90898072D02*
X246183538Y-90967509D01*
X132411090Y-48178106D02*
X132304768Y-48100941D01*
X20728057Y-89334339D02*
X20756229Y-89428298D01*
X22181441Y-66806756D02*
X22133914Y-66818160D01*
X195623458Y-29730445D02*
X195615384Y-29778587D01*
X238436547Y-24480962D02*
X238408900Y-24386136D01*
X21907941Y-66908931D02*
X21865661Y-66933618D01*
X30471143Y-25762704D02*
X30376101Y-25785521D01*
X71220855Y-24813953D02*
X71195817Y-24856131D01*
X267605077Y-90805484D02*
X267704119Y-90799589D01*
X229749049Y-105824067D02*
X229743777Y-105726614D01*
X29526448Y-26255445D02*
X29526448Y-26255445D01*
X71606386Y-24458540D02*
X71564362Y-24481739D01*
X60922788Y-107182782D02*
X60987987Y-107255401D01*
X94426049Y-29374991D02*
X94398965Y-29335383D01*
X236087407Y-23036988D02*
X236087407Y-23036988D01*
X127318883Y-51827590D02*
X127318883Y-51827590D01*
X66480207Y-104573337D02*
X66480207Y-104573337D01*
X158116133Y-47967753D02*
X157999762Y-48030708D01*
X24417122Y-49199270D02*
X24386878Y-49293178D01*
X94586679Y-29876534D02*
X94583366Y-29827316D01*
X237752997Y-23431794D02*
X237674375Y-23372000D01*
X61282664Y-107512247D02*
X61364226Y-107567376D01*
X245373235Y-84550586D02*
X245373235Y-84550586D01*
X21430174Y-67507085D02*
X21417743Y-67554440D01*
X268785045Y-67602458D02*
X268774927Y-67554439D01*
X21070879Y-90024115D02*
X21131153Y-90098831D01*
X52224437Y-23632030D02*
X52159692Y-23705236D01*
X176447344Y-40846131D02*
X176400720Y-40862418D01*
X53714069Y-22993416D02*
X53616179Y-22994622D01*
X52159692Y-23705236D02*
X52098667Y-23781429D01*
X155096517Y-57017425D02*
X155096517Y-57017425D01*
X259636760Y-25746077D02*
X259537717Y-25731936D01*
X44537803Y-90152823D02*
X44567208Y-90059618D01*
X195618083Y-30076917D02*
X195627507Y-30127522D01*
X200383290Y-100747767D02*
X206739156Y-113221858D01*
X72276029Y-24367411D02*
X72276029Y-24367411D01*
X266481664Y-66830077D02*
X266481664Y-66830077D01*
X126221341Y-116126506D02*
X126221341Y-116126506D01*
X245580887Y-89868911D02*
X245601116Y-89964935D01*
X114439178Y-41813604D02*
X114438744Y-41764742D01*
X195678329Y-29545124D02*
X195661321Y-29590218D01*
X43935457Y-91033295D02*
X44009671Y-90967456D01*
X195886377Y-29224763D02*
X195853824Y-29260186D01*
X268666937Y-67283096D02*
X268641403Y-67241421D01*
X176184390Y-40975941D02*
X176144975Y-41004686D01*
X71307171Y-24696511D02*
X71276606Y-24734094D01*
X113875812Y-135438151D02*
X113959275Y-135387403D01*
X94531720Y-29590234D02*
X94514714Y-29545140D01*
X267605077Y-90805484D02*
X267605077Y-90805484D01*
X20704442Y-89238560D02*
X20728057Y-89334339D01*
X65733808Y-50095937D02*
X52039739Y-47185174D01*
X246045619Y-90825530D02*
X246112671Y-90898072D01*
X175779718Y-41571542D02*
X175769828Y-41619340D01*
X229205048Y-107255390D02*
X229270250Y-107182770D01*
X119343511Y-117697925D02*
X119343511Y-117697925D01*
X157681105Y-48261904D02*
X157586059Y-48352045D01*
X21391515Y-67749690D02*
X20658979Y-88736903D01*
X114462015Y-134926464D02*
X114520456Y-134846754D01*
X215043981Y-30089796D02*
X215043981Y-30089796D01*
X29159910Y-26715404D02*
X29113032Y-26801045D01*
X29032120Y-26978571D02*
X28998233Y-27070133D01*
X21995666Y-66865997D02*
X21951304Y-66886380D01*
X176355121Y-40880916D02*
X176310618Y-40901571D01*
X189329564Y-98676776D02*
X175806600Y-102300242D01*
X42674983Y-91504487D02*
X42773685Y-91500607D01*
X114437218Y-41862513D02*
X114439178Y-41813604D01*
X83453878Y-113221858D02*
X95927968Y-119577724D01*
X175617910Y-134764339D02*
X175672573Y-134847199D01*
X180020574Y-61727084D02*
X180020574Y-61727084D01*
X238254077Y-24026465D02*
X238204814Y-23942188D01*
X60470662Y-106214093D02*
X60489329Y-106310753D01*
X91006887Y-59650409D02*
X91006887Y-59650409D01*
X229745298Y-106019383D02*
X229749561Y-105921716D01*
X114438744Y-41764742D02*
X114435928Y-41716014D01*
X176491439Y-135527676D02*
X176581895Y-135565855D01*
X246183538Y-90967509D02*
X246183538Y-90967509D01*
X105241948Y-80127971D02*
X105241948Y-80127971D01*
X113518645Y-135599264D02*
X113611145Y-135565474D01*
X245982455Y-90750046D02*
X246045619Y-90825530D01*
X78010930Y-83962050D02*
X80921697Y-70267982D01*
X114048062Y-41004670D02*
X114008648Y-40975926D01*
X166497609Y-65350551D02*
X162874150Y-51827590D01*
X113745697Y-40846115D02*
X113698117Y-40832093D01*
X184951085Y-80127971D02*
X171428121Y-83751437D01*
X176233767Y-135387805D02*
X176317230Y-135438548D01*
X53229800Y-23046874D02*
X53135372Y-23071632D01*
X112644232Y-135690557D02*
X112741489Y-135699644D01*
X22229551Y-66797675D02*
X22181441Y-66806756D01*
X219020310Y-24899742D02*
X218997264Y-24856128D01*
X20866881Y-89697950D02*
X20912073Y-89783327D01*
X236087407Y-23036988D02*
X219410039Y-26581882D01*
X231330709Y-82423713D02*
X228419942Y-68729648D01*
X21673586Y-67087827D02*
X21640052Y-67124100D01*
X268538245Y-90537298D02*
X268621602Y-90486255D01*
X53089696Y-42245528D02*
X53089696Y-42245528D01*
X100863477Y-98676776D02*
X114386441Y-102300242D01*
X220498510Y-31462224D02*
X220498510Y-31462224D01*
X40240697Y-72410342D02*
X40240697Y-72410342D01*
X51852857Y-24202084D02*
X51816262Y-24293130D01*
X93941878Y-28984411D02*
X93894249Y-28967784D01*
X264509861Y-47958910D02*
X264415913Y-47930716D01*
X114118192Y-135274065D02*
X114193357Y-135211682D01*
X175617910Y-134764339D02*
X175617910Y-134764339D01*
X175806493Y-41477494D02*
X175791943Y-41524231D01*
X22587522Y-90805499D02*
X42575780Y-91503474D01*
X60699334Y-106862728D02*
X60749365Y-106946908D01*
X267914510Y-66790943D02*
X267865484Y-66786600D01*
X238094325Y-23781425D02*
X238033299Y-23705232D01*
X187909185Y-107103633D02*
X200383290Y-100747767D01*
X229651891Y-106501803D02*
X229651891Y-106501803D01*
X175806600Y-102300242D02*
X172183126Y-88777278D01*
X75149060Y-30089796D02*
X75149060Y-30089796D01*
X29198674Y-52963138D02*
X29198674Y-52963138D01*
X178375417Y-135399898D02*
X178375417Y-135399898D01*
X195823045Y-29297078D02*
X195794088Y-29335365D01*
X51756442Y-24480965D02*
X51733419Y-24577463D01*
X51733419Y-24577463D02*
X51733419Y-24577463D01*
X175766959Y-41960154D02*
X175776168Y-42008677D01*
X113698117Y-40832093D02*
X93443761Y-35404974D01*
X162874150Y-51827590D02*
X176397115Y-48204124D01*
X114432854Y-41911380D02*
X114437218Y-41862513D01*
X175941359Y-41214897D02*
X175913559Y-41255718D01*
X218997264Y-24856128D02*
X218972226Y-24813948D01*
X218068383Y-24347023D02*
X218018109Y-24351207D01*
X132606974Y-48352051D02*
X132511927Y-48261913D01*
X21407625Y-67602459D02*
X21399856Y-67651060D01*
X177353838Y-135704320D02*
X177451531Y-135699985D01*
X245373235Y-84550586D02*
X245548680Y-89574489D01*
X118009908Y-88777278D02*
X118009908Y-88777278D01*
X42575780Y-91503474D02*
X42575780Y-91503474D01*
X24312707Y-49687732D02*
X24306516Y-49790496D01*
X60456810Y-106116921D02*
X60470662Y-106214093D01*
X245601116Y-89964935D02*
X245625970Y-90059632D01*
X157269908Y-48769724D02*
X157208410Y-48886870D01*
X114405217Y-42056855D02*
X114416865Y-42008640D01*
X229651891Y-106501803D02*
X229680232Y-106406698D01*
X20961218Y-89866233D02*
X21014193Y-89946539D01*
X269534520Y-88736896D02*
X268801152Y-67749690D01*
X20662158Y-88941599D02*
X20671372Y-89042060D01*
X22186182Y-90750748D02*
X22283981Y-90771780D01*
X260994359Y-52963138D02*
X261482946Y-66954608D01*
X205310613Y-51634273D02*
X205310613Y-51634273D01*
X44080533Y-90898021D02*
X44147580Y-90825483D01*
X157208410Y-48886870D02*
X157154541Y-49008488D01*
X114086027Y-41035302D02*
X114048062Y-41004670D01*
X245565355Y-89771720D02*
X245580887Y-89868911D01*
X71188344Y-48723508D02*
X71188344Y-48723508D01*
X94581719Y-30026447D02*
X94585905Y-29976174D01*
X195794088Y-29335365D02*
X195767001Y-29374974D01*
X229531926Y-104975291D02*
X229531926Y-104975291D01*
X91393880Y-54525958D02*
X91393880Y-54525958D01*
X238459569Y-24577460D02*
X238459569Y-24577460D01*
X111817571Y-135399585D02*
X111817571Y-135399585D01*
X94119009Y-29072322D02*
X94076830Y-29047282D01*
X219060131Y-24991083D02*
X219041291Y-24944743D01*
X178375417Y-135399898D02*
X196665059Y-123946704D01*
X245024785Y-79512950D02*
X245024785Y-79512950D01*
X44009671Y-90967456D02*
X44009671Y-90967456D01*
X113795919Y-48204124D02*
X110172460Y-61727084D01*
X114430742Y-41667508D02*
X114423198Y-41619313D01*
X60546539Y-105248531D02*
X60517679Y-105342346D01*
X71101989Y-25087580D02*
X71090017Y-25137643D01*
X176400720Y-40862418D02*
X176355121Y-40880916D01*
X24581006Y-48846200D02*
X24533859Y-48930841D01*
X236184929Y-23018770D02*
X236087407Y-23036988D01*
X44592063Y-89964926D02*
X44612293Y-89868905D01*
X33295613Y-44812654D02*
X33295613Y-44812654D01*
X181327611Y-66605006D02*
X184951085Y-80127971D01*
X22484771Y-90799285D02*
X22587522Y-90805499D01*
X229719011Y-105533004D02*
X229699543Y-105437201D01*
X260666307Y-26255612D02*
X260594580Y-26191854D01*
X175793093Y-135003350D02*
X175858659Y-135076434D01*
X30664561Y-25731066D02*
X30567352Y-25744532D01*
X195175695Y-41002997D02*
X195175695Y-41002997D01*
X261482946Y-66954608D02*
X261482946Y-66954608D01*
X88843129Y-33000560D02*
X88843129Y-33000560D01*
X43611965Y-91255813D02*
X43696500Y-91206434D01*
X25087697Y-48273555D02*
X25012982Y-48333846D01*
X268774927Y-67554439D02*
X268762496Y-67507085D01*
X261482946Y-66954608D02*
X247491491Y-67443198D01*
X262009130Y-47924653D02*
X261301091Y-27648511D01*
X245024785Y-79512950D02*
X231330709Y-82423713D01*
X268747789Y-67460474D02*
X268730843Y-67414690D01*
X94076830Y-29047282D02*
X94033217Y-29024234D01*
X189329564Y-98676776D02*
X189329564Y-98676776D01*
X56000455Y-28551461D02*
X53089696Y-42245528D01*
X268641403Y-67241421D02*
X268613814Y-67200976D01*
X26170279Y-47864677D02*
X26069807Y-47873899D01*
X268621602Y-90486255D02*
X268702502Y-90431102D01*
X196665059Y-123946704D02*
X228657003Y-107665782D01*
X39752103Y-86401813D02*
X40240697Y-72410342D01*
X60512826Y-106406723D02*
X60541166Y-106501826D01*
X195633837Y-29682954D02*
X195623458Y-29730445D01*
X157414564Y-48550082D02*
X157338728Y-48657358D01*
X269522916Y-89032864D02*
X269531635Y-88934822D01*
X263818517Y-47861493D02*
X262009130Y-47924653D01*
X157154541Y-49008488D02*
X157108606Y-49134266D01*
X265447879Y-48608600D02*
X265385921Y-48535170D01*
X114305326Y-41298030D02*
X114305326Y-41298030D01*
X264432409Y-85913226D02*
X250440923Y-86401813D01*
X42968915Y-91478421D02*
X43065112Y-91460239D01*
X71090017Y-25137643D02*
X71090017Y-25137643D01*
X269534520Y-88736896D02*
X269534520Y-88736896D01*
X24686873Y-48684897D02*
X24632054Y-48764178D01*
X201349904Y-33000560D02*
X201349904Y-33000560D01*
X195175695Y-41002997D02*
X198799154Y-54525958D01*
X190141057Y-122151729D02*
X190141057Y-122151729D01*
X114369669Y-41431397D02*
X114350506Y-41386074D01*
X176071355Y-43115027D02*
X158491414Y-47825561D01*
X104486943Y-85153811D02*
X104486943Y-85153811D01*
X176864934Y-135653613D02*
X176962189Y-135673503D01*
X265869162Y-49586500D02*
X265852962Y-49486930D01*
X269237338Y-89857698D02*
X269286732Y-89773161D01*
X94451215Y-29415845D02*
X94426049Y-29374991D01*
X28923731Y-27354076D02*
X28908196Y-27451271D01*
X51988178Y-23942191D02*
X51938916Y-24026469D01*
X23711377Y-66830077D02*
X22426160Y-66785197D01*
X195661321Y-29590218D02*
X195646475Y-29636186D01*
X219410039Y-26581882D02*
X219103063Y-25137647D01*
X264222681Y-47888120D02*
X264123658Y-47873961D01*
X110172460Y-61727084D02*
X110172460Y-61727084D01*
X269491235Y-89226277D02*
X269509428Y-89130072D01*
X246496729Y-91206493D02*
X246581270Y-91255872D01*
X176768787Y-135628927D02*
X176864934Y-135653613D01*
X26249227Y-71921748D02*
X25760633Y-85913226D01*
X44423022Y-90421888D02*
X44465636Y-90334119D01*
X24632054Y-48764178D02*
X24581006Y-48846200D01*
X195627507Y-30127522D02*
X196749273Y-35404974D01*
X133122136Y-49263879D02*
X133084440Y-49134253D01*
X21709027Y-67053107D02*
X21709027Y-67053107D01*
X110172460Y-61727084D02*
X123695417Y-65350551D01*
X21951304Y-66886380D02*
X21907941Y-66908931D01*
X60474043Y-105533043D02*
X60459294Y-105629571D01*
X229612973Y-105155926D02*
X229574774Y-105064802D01*
X196033360Y-29099263D02*
X195994196Y-29128061D01*
X190141057Y-122151729D02*
X178268392Y-129570598D01*
X260016017Y-25849443D02*
X259924000Y-25816824D01*
X64316861Y-81051284D02*
X78010930Y-83962050D01*
X265852962Y-49486930D02*
X265831951Y-49389130D01*
X176581895Y-135565855D02*
X176674393Y-135599639D01*
X44627826Y-89771719D02*
X44638588Y-89673529D01*
X196749273Y-35404974D02*
X196749273Y-35404974D01*
X236380859Y-22997016D02*
X236282804Y-23005457D01*
X182722188Y-110279056D02*
X190141057Y-122151729D01*
X69694524Y-31462224D02*
X56000455Y-28551461D01*
X21194895Y-90170557D02*
X21261983Y-90239163D01*
X56000455Y-28551461D02*
X56000455Y-28551461D01*
X89809743Y-100747767D02*
X89809743Y-100747767D01*
X268241363Y-66886376D02*
X268197001Y-66865993D01*
X114190531Y-41137981D02*
X114157332Y-41102011D01*
X218361590Y-24373736D02*
X218314099Y-24363357D01*
X29677731Y-26127786D02*
X29600675Y-26189604D01*
X66480207Y-104573337D02*
X72836072Y-92099246D01*
X29210972Y-26632060D02*
X29159910Y-26715404D01*
X25413869Y-48069494D02*
X25328489Y-48114701D01*
X265028025Y-48216991D02*
X264947734Y-48163998D01*
X114008648Y-40975926D02*
X113967856Y-40949123D01*
X207188085Y-91722178D02*
X193665136Y-95345645D01*
X181652730Y-44626464D02*
X195175695Y-41002997D01*
X268090258Y-90728285D02*
X268183477Y-90698896D01*
X71927106Y-24355292D02*
X71878966Y-24363365D01*
X264864841Y-48114835D02*
X264779478Y-48069624D01*
X30010928Y-25921986D02*
X29924216Y-25967091D01*
X94565511Y-30127528D02*
X94565511Y-30127528D01*
X51339437Y-26431175D02*
X51339437Y-26431175D01*
X185706090Y-85153811D02*
X185706090Y-85153811D01*
X44567208Y-90059618D02*
X44592063Y-89964926D01*
X215043981Y-30089796D02*
X217954732Y-43783864D01*
X114520456Y-134846754D02*
X114575116Y-134763888D01*
X242905950Y-45301246D02*
X242417363Y-31309773D01*
X78954297Y-110929202D02*
X66480207Y-104573337D01*
X60661123Y-104975345D02*
X60618275Y-105064853D01*
X51784090Y-24386139D02*
X51756442Y-24480965D01*
X100051976Y-122151729D02*
X100051976Y-122151729D01*
X44376151Y-90507522D02*
X44423022Y-90421888D01*
X157070913Y-49263894D02*
X155096517Y-57017425D01*
X218747459Y-24562939D02*
X218709172Y-24533982D01*
X58862325Y-82423713D02*
X61773091Y-68729648D01*
X175858659Y-135076434D02*
X175927571Y-135146052D01*
X225876165Y-81051284D02*
X212182103Y-83962050D01*
X94033217Y-29024234D02*
X93988216Y-29003252D01*
X176035700Y-41102027D02*
X176002500Y-41137997D01*
X71188344Y-48723508D02*
X68277578Y-62417575D01*
X224459233Y-50095937D02*
X238153295Y-47185174D01*
X221915456Y-62417575D02*
X221915456Y-62417575D01*
X43858413Y-91095112D02*
X43935457Y-91033295D01*
X217954732Y-43783864D02*
X204260671Y-46694627D01*
X260442282Y-26074864D02*
X260361972Y-26021874D01*
X237674375Y-23372000D02*
X237592534Y-23315924D01*
X53910181Y-23005458D02*
X53812128Y-22997017D01*
X43065112Y-91460239D02*
X43160142Y-91437413D01*
X268998296Y-90170863D02*
X268998296Y-90170863D01*
X107470845Y-110279056D02*
X107470845Y-110279056D01*
X21332297Y-90304519D02*
X21405715Y-90366495D01*
X25591523Y-47991422D02*
X25501590Y-48028360D01*
X195956611Y-29158626D02*
X195920656Y-29190886D01*
X259232518Y-25719533D02*
X259232518Y-25719533D01*
X93795316Y-28941473D02*
X72276029Y-24367411D01*
X49128980Y-60879237D02*
X62823041Y-63790000D01*
X260105953Y-25886379D02*
X260016017Y-25849443D01*
X218408356Y-24386373D02*
X218361590Y-24373736D01*
X29070411Y-26888821D02*
X29032120Y-26978571D01*
X268327007Y-66933615D02*
X268284726Y-66908927D01*
X175753853Y-41813636D02*
X175755813Y-41862546D01*
X24872655Y-48464711D02*
X24807303Y-48535042D01*
X71649508Y-24437356D02*
X71606386Y-24458540D01*
X267816125Y-66784673D02*
X267766515Y-66785193D01*
X22587522Y-90805499D02*
X22587522Y-90805499D01*
X196665059Y-123946704D02*
X196665059Y-123946704D01*
X24807303Y-48535042D02*
X24745332Y-48608478D01*
X176070560Y-41067783D02*
X176035700Y-41102027D01*
X26374997Y-47861484D02*
X26374997Y-47861484D01*
X111924642Y-129570598D02*
X119343511Y-117697925D01*
X52600446Y-23315928D02*
X52518608Y-23372004D01*
X177255882Y-135703868D02*
X177353838Y-135704320D01*
X238340135Y-24202081D02*
X238299217Y-24113145D01*
X236963192Y-23046871D02*
X236867723Y-23026759D01*
X247002889Y-53451728D02*
X260994359Y-52963138D01*
X265776023Y-49199327D02*
X265741365Y-49107566D01*
X236478920Y-22993415D02*
X236380859Y-22997016D01*
X268284726Y-66908927D02*
X268241363Y-66886376D01*
X196074056Y-29072308D02*
X196033360Y-29099263D01*
X236674358Y-23000601D02*
X236576811Y-22994620D01*
X21728007Y-90578002D02*
X21815130Y-90621130D01*
X67227628Y-67357219D02*
X67227628Y-67357219D01*
X228419942Y-68729648D02*
X242114019Y-65818885D01*
X176494924Y-40832110D02*
X176494924Y-40832110D01*
X238459569Y-24577460D02*
X238436547Y-24480962D01*
X267899518Y-90773335D02*
X267995551Y-90753122D01*
X135096517Y-57017425D02*
X133122136Y-49263879D01*
X268197001Y-66865993D02*
X268151723Y-66847807D01*
X94236449Y-29158642D02*
X94198866Y-29128076D01*
X94474413Y-29457871D02*
X94451215Y-29415845D01*
X264432409Y-85913226D02*
X264432409Y-85913226D01*
X26249227Y-71921748D02*
X26249227Y-71921748D01*
X25165273Y-48216853D02*
X25087697Y-48273555D01*
X268452593Y-90584157D02*
X268538245Y-90537298D01*
X61204143Y-107453350D02*
X61282664Y-107512247D01*
X264691774Y-48028485D02*
X264601858Y-47991540D01*
X246581270Y-91255872D02*
X246667974Y-91300981D01*
X175769828Y-41619340D02*
X175762284Y-41667536D01*
X268801152Y-67749690D02*
X268801152Y-67749690D01*
X28710080Y-66954608D02*
X42701551Y-67443198D01*
X95927968Y-119577724D02*
X102283841Y-107103633D01*
X60749365Y-106946908D02*
X60803362Y-107028401D01*
X49128980Y-60879237D02*
X49128980Y-60879237D01*
X132695924Y-48448211D02*
X132606974Y-48352051D01*
X114399941Y-135002914D02*
X114462015Y-134926464D01*
X33295613Y-44812654D02*
X47287084Y-45301246D01*
X269064152Y-90096652D02*
X269125986Y-90019610D01*
X42575780Y-91503474D02*
X42674983Y-91504487D01*
X114386531Y-41477471D02*
X114369669Y-41431397D01*
X108865422Y-66605006D02*
X105241948Y-80127971D01*
X185663182Y-63273875D02*
X199186147Y-59650409D01*
X246667974Y-91300981D02*
X246756678Y-91341756D01*
X86628408Y-78199210D02*
X83004949Y-91722178D01*
X94574938Y-30076924D02*
X94581719Y-30026447D01*
X167804647Y-70228473D02*
X167804647Y-70228473D01*
X229574774Y-105064802D02*
X229531926Y-104975291D01*
X198799154Y-54525958D02*
X198799154Y-54525958D01*
X29924216Y-25967091D02*
X29839668Y-26016467D01*
X229749561Y-105921716D02*
X229749049Y-105824067D01*
X193665136Y-95345645D02*
X190041661Y-81822677D01*
X249952336Y-72410342D02*
X249952336Y-72410342D01*
X246257758Y-91033351D02*
X246334807Y-91095170D01*
X229270250Y-107182770D02*
X229331833Y-107107057D01*
X212182103Y-83962050D02*
X209271337Y-70267982D01*
X94159703Y-29099278D02*
X94119009Y-29072322D01*
X45168256Y-79512950D02*
X58862325Y-82423713D01*
X177059882Y-135688489D02*
X177157838Y-135698601D01*
X21502288Y-67325922D02*
X21480974Y-67369813D01*
X93845379Y-28953446D02*
X93795316Y-28941473D01*
X30960530Y-25719528D02*
X30861317Y-25718502D01*
X196159850Y-29024222D02*
X196116236Y-29047269D01*
X218314099Y-24363357D02*
X218265957Y-24355285D01*
X157070913Y-49263894D02*
X157070913Y-49263894D01*
X51733419Y-24577463D02*
X51339437Y-26431175D01*
X238376729Y-24293126D02*
X238340135Y-24202081D01*
X30567352Y-25744532D02*
X30471143Y-25762704D01*
X114329055Y-41341589D02*
X114305326Y-41298030D01*
X204882863Y-98455112D02*
X211238744Y-110929202D01*
X264415913Y-47930716D02*
X264320143Y-47907079D01*
X205310613Y-51634273D02*
X219004689Y-48723508D01*
X238408900Y-24386136D02*
X238376729Y-24293126D01*
X265659309Y-48930931D02*
X265612172Y-48846299D01*
X185663182Y-63273875D02*
X185663182Y-63273875D01*
X21996386Y-90694778D02*
X22090277Y-90725038D01*
X43190145Y-53451728D02*
X29198674Y-52963138D01*
X100051976Y-122151729D02*
X111924642Y-129570598D01*
X132778471Y-48550082D02*
X132695924Y-48448211D01*
X53421605Y-23011327D02*
X53325269Y-23026762D01*
X245689258Y-90244398D02*
X245727544Y-90334145D01*
X113837920Y-40880900D02*
X113792321Y-40862402D01*
X178202564Y-135496552D02*
X178289999Y-135450471D01*
X261155804Y-26965504D02*
X261116845Y-26875986D01*
X261246414Y-27247108D02*
X261220718Y-27151186D01*
X268446526Y-67020182D02*
X268407990Y-66989273D01*
X62823041Y-63790000D02*
X65733808Y-50095937D01*
X51816262Y-24293130D02*
X51784090Y-24386139D01*
X20671372Y-89042060D02*
X20685507Y-89141090D01*
X237103337Y-42245528D02*
X223409276Y-45156291D01*
X237150830Y-23101000D02*
X237057619Y-23071629D01*
X104529851Y-63273875D02*
X104529851Y-63273875D01*
X268702502Y-90431102D02*
X268780782Y-90371913D01*
D11*
X134675714Y-108862380D02*
X134675714Y-108195714D01*
X134675714Y-108386190D02*
X134628095Y-108290952D01*
X134580476Y-108243333D01*
X134485238Y-108195714D01*
X134390000Y-108195714D01*
X133675714Y-108814761D02*
X133770952Y-108862380D01*
X133961428Y-108862380D01*
X134056666Y-108814761D01*
X134104285Y-108719523D01*
X134104285Y-108338571D01*
X134056666Y-108243333D01*
X133961428Y-108195714D01*
X133770952Y-108195714D01*
X133675714Y-108243333D01*
X133628095Y-108338571D01*
X133628095Y-108433809D01*
X134104285Y-108529047D01*
X133294761Y-108195714D02*
X133056666Y-108862380D01*
X132818571Y-108195714D01*
X132247142Y-107862380D02*
X132151904Y-107862380D01*
X132056666Y-107910000D01*
X132009047Y-107957619D01*
X131961428Y-108052857D01*
X131913809Y-108243333D01*
X131913809Y-108481428D01*
X131961428Y-108671904D01*
X132009047Y-108767142D01*
X132056666Y-108814761D01*
X132151904Y-108862380D01*
X132247142Y-108862380D01*
X132342380Y-108814761D01*
X132390000Y-108767142D01*
X132437619Y-108671904D01*
X132485238Y-108481428D01*
X132485238Y-108243333D01*
X132437619Y-108052857D01*
X132390000Y-107957619D01*
X132342380Y-107910000D01*
X132247142Y-107862380D01*
X131485238Y-108767142D02*
X131437619Y-108814761D01*
X131485238Y-108862380D01*
X131532857Y-108814761D01*
X131485238Y-108767142D01*
X131485238Y-108862380D01*
X131104285Y-107862380D02*
X130437619Y-107862380D01*
X130866190Y-108862380D01*
X130056666Y-108767142D02*
X130009047Y-108814761D01*
X130056666Y-108862380D01*
X130104285Y-108814761D01*
X130056666Y-108767142D01*
X130056666Y-108862380D01*
X129151904Y-107862380D02*
X129342380Y-107862380D01*
X129437619Y-107910000D01*
X129485238Y-107957619D01*
X129580476Y-108100476D01*
X129628095Y-108290952D01*
X129628095Y-108671904D01*
X129580476Y-108767142D01*
X129532857Y-108814761D01*
X129437619Y-108862380D01*
X129247142Y-108862380D01*
X129151904Y-108814761D01*
X129104285Y-108767142D01*
X129056666Y-108671904D01*
X129056666Y-108433809D01*
X129104285Y-108338571D01*
X129151904Y-108290952D01*
X129247142Y-108243333D01*
X129437619Y-108243333D01*
X129532857Y-108290952D01*
X129580476Y-108338571D01*
X129628095Y-108433809D01*
D12*
X239700000Y-44180000D03*
X123060000Y-102380000D03*
X129160000Y-79540000D03*
X150060000Y-102320000D03*
X147940000Y-106670000D03*
X142400000Y-98360000D03*
X149560000Y-104780000D03*
X106880000Y-60770000D03*
X50470000Y-44210000D03*
X183240000Y-60830000D03*
X117330000Y-110500000D03*
X167100000Y-102380000D03*
X160970000Y-79530000D03*
X145070000Y-97570000D03*
X211170000Y-90860000D03*
X140680000Y-100160000D03*
X247410000Y-70520000D03*
X172830000Y-110500000D03*
X142400000Y-106820000D03*
X140060000Y-102590000D03*
X149300000Y-99940000D03*
X78990000Y-90830000D03*
X147490000Y-98210000D03*
X145060000Y-107590000D03*
X42750000Y-70540000D03*
X140690000Y-105010000D03*
%LPC*%
D13*
%TO.C,REF\u002A\u002A*%
X239700000Y-44180000D03*
%TD*%
D14*
%TO.C,Ref\u002A\u002A*%
X123060000Y-102380000D03*
%TD*%
%TO.C,Ref\u002A\u002A*%
X129160000Y-79540000D03*
%TD*%
D15*
%TO.C,Ref\u002A\u002A*%
X150060000Y-102320000D03*
%TD*%
%TO.C,Ref\u002A\u002A*%
X147940000Y-106670000D03*
%TD*%
%TO.C,Ref\u002A\u002A*%
X142400000Y-98360000D03*
%TD*%
%TO.C,Ref\u002A\u002A*%
X149560000Y-104780000D03*
%TD*%
D13*
%TO.C,REF\u002A\u002A*%
X106880000Y-60770000D03*
%TD*%
%TO.C,REFe*%
X50470000Y-44210000D03*
%TD*%
%TO.C,REF\u002A\u002A*%
X183240000Y-60830000D03*
%TD*%
%TO.C,REF\u002A\u002A*%
X117330000Y-110500000D03*
%TD*%
D14*
%TO.C,Ref\u002A\u002A*%
X167100000Y-102380000D03*
%TD*%
%TO.C,Ref\u002A\u002A*%
X160970000Y-79530000D03*
%TD*%
D15*
%TO.C,Ref\u002A\u002A*%
X145070000Y-97570000D03*
%TD*%
D13*
%TO.C,REF\u002A\u002A*%
X211170000Y-90860000D03*
%TD*%
D15*
%TO.C,Ref\u002A\u002A*%
X140680000Y-100160000D03*
%TD*%
D13*
%TO.C,REF\u002A\u002A*%
X247410000Y-70520000D03*
%TD*%
%TO.C,REF\u002A\u002A*%
X172830000Y-110500000D03*
%TD*%
D15*
%TO.C,Ref\u002A\u002A*%
X142400000Y-106820000D03*
%TD*%
%TO.C,Ref\u002A\u002A*%
X140060000Y-102590000D03*
%TD*%
%TO.C,Ref\u002A\u002A*%
X149300000Y-99940000D03*
%TD*%
D13*
%TO.C,REF\u002A\u002A*%
X78990000Y-90830000D03*
%TD*%
D15*
%TO.C,Ref\u002A\u002A*%
X147490000Y-98210000D03*
%TD*%
%TO.C,Ref\u002A\u002A*%
X145060000Y-107590000D03*
%TD*%
D13*
%TO.C,REF\u002A\u002A*%
X42750000Y-70540000D03*
%TD*%
D15*
%TO.C,Ref\u002A\u002A*%
X140690000Y-105010000D03*
%TD*%
M02*
