M48
METRIC,TZ
T1C0.400
T2C0.813
T3C1.300
%
G90
G05
T1
X31877Y-84963
X34410Y-52458
X35052Y-66040
X39624Y-44069
X45320Y-63700
X47943Y-72200
X48247Y-62369
X51689Y-79629
X55753Y-61214
X59563Y-42291
X66171Y-64512
X66929Y-74168
X70739Y-55499
X70866Y-81280
X70950Y-88420
X70993Y-50673
X74930Y-62484
X75833Y-89333
X76454Y-86233
X78994Y-43688
X79502Y-88900
X86233Y-70993
X86310Y-52700
X86868Y-49403
X89789Y-92202
X91821Y-50673
X93980Y-73660
X94488Y-47752
X98298Y-54864
X98823Y-104503
X100330Y-101727
X103417Y-106768
X104748Y-103859
X107627Y-99002
X109982Y-84747
X112014Y-80391
X113030Y-86233
X113411Y-85090
X116840Y-62103
X124841Y-67437
X128564Y-67016
X137033Y-96647
X138049Y-102068
X139700Y-98298
X140272Y-102934
X140716Y-79883
X140716Y-90805
X140716Y-94488
X141605Y-104267
X145796Y-104267
X148590Y-105117
X149733Y-103759
X151892Y-76168
X157607Y-72263
X161036Y-90551
X164465Y-66777
X164865Y-88027
X164973Y-68707
X165735Y-88519
X166878Y-88519
X168148Y-88519
X169739Y-76840
X171577Y-63119
X175621Y-100985
X176276Y-81534
X180932Y-100094
X187198Y-103632
X188560Y-106550
X189097Y-83560
X190246Y-55880
X191507Y-101492
X193929Y-100308
X194183Y-74676
X198628Y-93091
X200660Y-53975
X204504Y-49686
X206026Y-49054
X208564Y-75729
X209423Y-44704
X209550Y-75565
X213233Y-63246
X215519Y-85979
X216220Y-89050
X217424Y-81915
X220335Y-84946
X228600Y-43180
X229367Y-66956
X230124Y-66205
X232537Y-61595
X236601Y-80391
X237363Y-66130
X241690Y-57300
X246253Y-54102
X246380Y-57150
X247904Y-66167
X248920Y-44069
X253365Y-66167
X256413Y-85090
T2
X138314Y-68069
X138314Y-70609
X138314Y-73149
X138314Y-75689
X138314Y-78229
X138314Y-80769
X138314Y-83309
X138314Y-85849
X138314Y-88389
X138314Y-90929
X138314Y-93469
X138314Y-96009
X153534Y-68069
X153534Y-70609
X153534Y-73149
X153534Y-75689
X153534Y-78229
X153534Y-80769
X153534Y-83309
X153534Y-85849
X153534Y-88389
X153534Y-90929
X153534Y-93469
X153534Y-96009
T3
X132867Y-68734
X132867Y-75234
T0
M30
