M48
; DRILL file {KiCad (6.0.6)} date 2022年07月10日 22時01分46秒
; FORMAT={-:-/ absolute / metric / decimal}
; #@! TF.CreationDate,2022-07-10T22:01:46+09:00
; #@! TF.GenerationSoftware,Kicad,Pcbnew,(6.0.6)
; #@! TF.FileFunction,Plated,1,2,PTH
FMAT,2
METRIC
; #@! TA.AperFunction,Plated,PTH,ViaDrill
T1C0.400
; #@! TA.AperFunction,Plated,PTH,ComponentDrill
T2C0.813
; #@! TA.AperFunction,Plated,PTH,ComponentDrill
T3C1.300
%
G90
G05
T1
X31.877Y-84.963
X34.41Y-52.458
X35.052Y-66.04
X39.624Y-44.069
X45.32Y-63.7
X47.942Y-72.2
X48.247Y-62.369
X51.689Y-79.629
X55.753Y-61.214
X59.563Y-42.291
X66.171Y-64.512
X66.929Y-74.168
X70.739Y-55.499
X70.866Y-81.28
X70.95Y-88.42
X70.993Y-50.673
X74.93Y-62.484
X75.833Y-89.333
X76.454Y-86.233
X78.994Y-43.688
X79.502Y-88.9
X86.233Y-70.993
X86.31Y-52.7
X86.868Y-49.403
X89.789Y-92.202
X91.821Y-50.673
X93.98Y-73.66
X94.488Y-47.752
X98.298Y-54.864
X98.823Y-104.503
X100.33Y-101.727
X103.417Y-106.768
X104.748Y-103.859
X107.627Y-99.002
X109.982Y-84.746
X112.014Y-80.391
X113.03Y-86.233
X113.411Y-85.09
X116.84Y-62.103
X124.841Y-67.437
X128.564Y-67.016
X137.033Y-96.647
X138.049Y-102.069
X139.7Y-98.298
X140.272Y-102.933
X140.716Y-79.883
X140.716Y-90.805
X140.716Y-94.488
X141.605Y-104.267
X145.796Y-104.267
X148.59Y-105.117
X149.733Y-103.759
X151.892Y-76.167
X157.607Y-72.263
X161.036Y-90.551
X164.465Y-66.776
X164.865Y-88.026
X164.973Y-68.707
X165.735Y-88.519
X166.878Y-88.519
X168.148Y-88.519
X169.739Y-76.84
X171.577Y-63.119
X175.621Y-100.985
X176.276Y-81.534
X180.932Y-100.094
X187.198Y-103.632
X188.56Y-106.55
X189.097Y-83.56
X190.246Y-55.88
X191.507Y-101.492
X193.929Y-100.307
X194.183Y-74.676
X198.628Y-93.091
X200.66Y-53.975
X204.504Y-49.686
X206.026Y-49.054
X208.564Y-75.729
X209.423Y-44.704
X209.55Y-75.565
X213.233Y-63.246
X215.519Y-85.979
X216.22Y-89.05
X217.424Y-81.915
X220.335Y-84.946
X228.6Y-43.18
X229.367Y-66.956
X230.124Y-66.204
X232.537Y-61.595
X236.601Y-80.391
X237.363Y-66.129
X241.69Y-57.3
X246.253Y-54.102
X246.38Y-57.15
X247.904Y-66.167
X248.92Y-44.069
X253.365Y-66.167
X256.413Y-85.09
T2
X138.314Y-68.069
X138.314Y-70.609
X138.314Y-73.149
X138.314Y-75.689
X138.314Y-78.229
X138.314Y-80.769
X138.314Y-83.309
X138.314Y-85.849
X138.314Y-88.389
X138.314Y-90.929
X138.314Y-93.469
X138.314Y-96.009
X153.534Y-68.069
X153.534Y-70.609
X153.534Y-73.149
X153.534Y-75.689
X153.534Y-78.229
X153.534Y-80.769
X153.534Y-83.309
X153.534Y-85.849
X153.534Y-88.389
X153.534Y-90.929
X153.534Y-93.469
X153.534Y-96.009
T3
X132.867Y-68.734
X132.867Y-75.234
T0
M30
