%TF.GenerationSoftware,KiCad,Pcbnew,(6.0.6)*%
%TF.CreationDate,2022-07-10T22:01:46+09:00*%
%TF.ProjectId,nowt,6e6f7774-2e6b-4696-9361-645f70636258,rev?*%
%TF.SameCoordinates,Original*%
%TF.FileFunction,Legend,Bot*%
%TF.FilePolarity,Positive*%
%FSLAX46Y46*%
G04 Gerber Fmt 4.6, Leading zero omitted, Abs format (unit mm)*
G04 Created by KiCad (PCBNEW (6.0.6)) date 2022-07-10 22:01:46*
%MOMM*%
%LPD*%
G01*
G04 APERTURE LIST*
G04 Aperture macros list*
%AMRotRect*
0 Rectangle, with rotation*
0 The origin of the aperture is its center*
0 $1 length*
0 $2 width*
0 $3 Rotation angle, in degrees counterclockwise*
0 Add horizontal line*
21,1,$1,$2,0,0,$3*%
G04 Aperture macros list end*
%TA.AperFunction,Profile*%
%ADD10C,0.349999*%
%TD*%
%ADD11C,0.250000*%
%ADD12C,0.125000*%
%ADD13C,0.150000*%
%ADD14C,0.120000*%
%ADD15C,0.500000*%
%ADD16C,3.000000*%
%ADD17C,0.400000*%
%ADD18C,3.500000*%
%ADD19C,0.300000*%
%ADD20C,0.800000*%
%ADD21C,1.000000*%
%ADD22C,0.350000*%
%ADD23RotRect,1.300000X0.950000X358.000000*%
%ADD24C,4.300000*%
%ADD25RotRect,1.300000X0.950000X348.000000*%
%ADD26RotRect,1.500000X1.000000X27.000000*%
%ADD27C,1.900000*%
%ADD28C,3.000000*%
%ADD29C,4.100000*%
%ADD30RotRect,2.550000X2.500000X195.000000*%
%ADD31RotRect,2.550000X2.500000X192.000000*%
%ADD32RotRect,1.300000X0.950000X15.000000*%
%ADD33RotRect,1.300000X0.950000X12.000000*%
%ADD34RotRect,1.500000X1.000000X12.000000*%
%ADD35RotRect,1.300000X0.950000X345.000000*%
%ADD36RotRect,2.550000X2.500000X178.000000*%
%ADD37RotRect,2.550000X2.500000X182.000000*%
%ADD38RotRect,2.550000X2.500000X207.000000*%
%ADD39RotRect,1.500000X1.000000X348.000000*%
%ADD40RotRect,2.550000X2.500000X168.000000*%
%ADD41RotRect,1.300000X0.950000X327.000000*%
%ADD42RotRect,2.550000X2.500000X165.000000*%
%ADD43RotRect,1.300000X0.950000X27.000000*%
%ADD44RotRect,2.550000X2.500000X153.000000*%
%ADD45RotRect,1.500000X1.000000X2.000000*%
%ADD46RotRect,1.300000X0.950000X32.000000*%
%ADD47RotRect,1.300000X0.950000X2.000000*%
%ADD48RotRect,1.500000X1.000000X333.000000*%
%ADD49RotRect,1.500000X1.000000X358.000000*%
%ADD50RotRect,2.550000X2.500000X212.000000*%
%ADD51RotRect,1.300000X0.950000X333.000000*%
%ADD52RotRect,2.550000X2.500000X148.000000*%
%ADD53C,1.524000*%
%ADD54R,1.500000X1.000000*%
G04 APERTURE END LIST*
D10*
X72732052Y-26633205D02*
X72684562Y-26643585D01*
X179229312Y-137667739D02*
X179229312Y-137667739D01*
X270294066Y-91684858D02*
X270321484Y-91591155D01*
X196459436Y-32146363D02*
X196458571Y-32196008D01*
X230533221Y-108676893D02*
X230556741Y-108580901D01*
X262154177Y-29918351D02*
X262154177Y-29918351D01*
X31517647Y-28000906D02*
X31420438Y-28014372D01*
X239057900Y-26212028D02*
X239004616Y-26130299D01*
X239312655Y-26847300D02*
X239312655Y-26847300D01*
X197104277Y-31254241D02*
X197057938Y-31273081D01*
X30308662Y-28594722D02*
X30241604Y-28667264D01*
X266173669Y-50734683D02*
X266105080Y-50667580D01*
X115182141Y-43611429D02*
X115158412Y-43567870D01*
X95089535Y-31428482D02*
X95051952Y-31397916D01*
X140961129Y-70437724D02*
X140954768Y-70387679D01*
X61312380Y-107899411D02*
X61302364Y-107996489D01*
X158350196Y-50718048D02*
X158267650Y-50819922D01*
X26536623Y-50228640D02*
X26444609Y-50261262D01*
X115292264Y-44083444D02*
X115291830Y-44034582D01*
X246454202Y-92234775D02*
X246479056Y-92329472D01*
X140919427Y-60041605D02*
X140906354Y-59994511D01*
X115283828Y-43937348D02*
X115276284Y-43889153D01*
X159215351Y-50134709D02*
X159090155Y-50182210D01*
X260959039Y-28156219D02*
X260869103Y-28119283D01*
X238606083Y-25701634D02*
X238527461Y-25641840D01*
X157961692Y-51404106D02*
X157923999Y-51533734D01*
X23082637Y-69067515D02*
X23034527Y-69076596D01*
X150332259Y-71209324D02*
X150286748Y-71226887D01*
X21719967Y-91967790D02*
X21765159Y-92053167D01*
X270184942Y-91956298D02*
X270225732Y-91867596D01*
X261926812Y-29058686D02*
X261879662Y-28974045D01*
X22355374Y-69595762D02*
X22334060Y-69639653D01*
X22115069Y-92509003D02*
X22185383Y-92574359D01*
X151121017Y-59727217D02*
X151094989Y-59767715D01*
X133937526Y-51404093D02*
X133891589Y-51278317D01*
X270388610Y-91105950D02*
X270387606Y-91006736D01*
X176607371Y-44034612D02*
X176606939Y-44083476D01*
X45123022Y-92941581D02*
X45178184Y-92860700D01*
X196464389Y-32296279D02*
X196471169Y-32346757D01*
X140753275Y-59690353D02*
X140723020Y-59651530D01*
X115428202Y-137033728D02*
X127074427Y-118396346D01*
X115203592Y-43655914D02*
X115182141Y-43611429D01*
X23034527Y-69076596D02*
X22987000Y-69088000D01*
X270139818Y-92043001D02*
X270184942Y-91956298D01*
X115289014Y-43985854D02*
X115283828Y-43937348D01*
X150853716Y-70712723D02*
X150831790Y-70756332D01*
X219850350Y-27125968D02*
X219825312Y-27083788D01*
X196676131Y-31566918D02*
X196647174Y-31605205D01*
X72192515Y-26930397D02*
X72160257Y-26966351D01*
X265717927Y-50384675D02*
X265632564Y-50339464D01*
X266685037Y-51658970D02*
X266659348Y-51563062D01*
X247792500Y-93679900D02*
X247886202Y-93707303D01*
X132929984Y-50237615D02*
X132809048Y-50182236D01*
X159090155Y-50182210D02*
X158969219Y-50237593D01*
X248371389Y-93774355D02*
X248470599Y-93773337D01*
X72336989Y-26803832D02*
X72298703Y-26832788D01*
X237527444Y-25270441D02*
X237429897Y-25264460D01*
X150781583Y-70840244D02*
X150753369Y-70880384D01*
X31714403Y-27988342D02*
X31615691Y-27992209D01*
X53453532Y-25585768D02*
X53371694Y-25641844D01*
X177208207Y-43150756D02*
X177163704Y-43171411D01*
X176998061Y-43274526D02*
X176960094Y-43305158D01*
X114939113Y-43305142D02*
X114901148Y-43274510D01*
X114893202Y-137602513D02*
X114971278Y-137543905D01*
X30530817Y-28397626D02*
X30453761Y-28459444D01*
X246433973Y-92138751D02*
X246454202Y-92234775D01*
X261773790Y-28812742D02*
X261715327Y-28736324D01*
X239193221Y-26471921D02*
X239152303Y-26382985D01*
X219637436Y-26863558D02*
X219600545Y-26832779D01*
X94886303Y-31294074D02*
X94841302Y-31273092D01*
X141847361Y-71280237D02*
X141797317Y-71273879D01*
X145949603Y-71285399D02*
X141949603Y-71285399D01*
X150286748Y-71226887D02*
X150240408Y-71242218D01*
X140938638Y-60137704D02*
X140930200Y-60089363D01*
X22247560Y-69970004D02*
X22244601Y-70019530D01*
X177345170Y-137797033D02*
X177435668Y-137835152D01*
X22668216Y-92890970D02*
X22757716Y-92929939D01*
X220263125Y-28851722D02*
X219956149Y-27407487D01*
X265362947Y-50228750D02*
X265268999Y-50200556D01*
X23039268Y-93020588D02*
X23137067Y-93041620D01*
X94381060Y-126216544D02*
X112670657Y-137669425D01*
X115187462Y-137345843D02*
X115253027Y-137272754D01*
X73129115Y-26637251D02*
X73129115Y-26637251D01*
X52951753Y-26051269D02*
X52894548Y-26130303D01*
X268943344Y-92998125D02*
X269036563Y-92968736D01*
X177816101Y-137942532D02*
X177913822Y-137957446D01*
X177300430Y-43115971D02*
X177253806Y-43132258D01*
X150807735Y-70798866D02*
X150781583Y-70840244D01*
X218871195Y-26621047D02*
X218820719Y-26627828D01*
X140504178Y-59453294D02*
X140462782Y-59427148D01*
X61552420Y-109132568D02*
X61602451Y-109216748D01*
X62217312Y-109837216D02*
X62301801Y-109888442D01*
X140949603Y-60285399D02*
X140948373Y-60235804D01*
X268458163Y-93075324D02*
X268557205Y-93069429D01*
X29797051Y-29527887D02*
X29776817Y-29623916D01*
X22244601Y-70019530D02*
X22244601Y-70019530D01*
X115118553Y-137415467D02*
X115187462Y-137345843D01*
X158061496Y-51156710D02*
X158007627Y-51278328D01*
X29851319Y-29339973D02*
X29821909Y-29433185D01*
X178876335Y-137843293D02*
X178967259Y-137806200D01*
X164824786Y-118396346D02*
X176470996Y-137034179D01*
X140462782Y-59427148D02*
X140420230Y-59403099D01*
X22297966Y-69730316D02*
X22283260Y-69776925D01*
X178499446Y-137945570D02*
X178595296Y-137926974D01*
X115276284Y-43889153D02*
X115266393Y-43841357D01*
X248077439Y-93748304D02*
X248174642Y-93761776D01*
X141028196Y-70674672D02*
X141010290Y-70629262D01*
X261447666Y-28461694D02*
X261372948Y-28401404D01*
X150891043Y-70622609D02*
X150873479Y-70668121D01*
X269299612Y-69290022D02*
X269261076Y-69259113D01*
X239261986Y-26655976D02*
X239229815Y-26562966D01*
X177913822Y-137957446D02*
X178011802Y-137967483D01*
X113209932Y-137904890D02*
X113304821Y-137928071D01*
X176780956Y-137415745D02*
X176853122Y-137481756D01*
X45672885Y-86820426D02*
X69356166Y-91854468D01*
X115158412Y-43567870D02*
X115132554Y-43525540D01*
X230471809Y-108865618D02*
X230504855Y-108772017D01*
X176711987Y-137346163D02*
X176780956Y-137415745D01*
X150620761Y-71026747D02*
X150583343Y-71058982D01*
X95051952Y-31397916D02*
X95012789Y-31369118D01*
X260683118Y-28058482D02*
X260587328Y-28034860D01*
X269494489Y-69511261D02*
X269466900Y-69470816D01*
X140873441Y-59902645D02*
X140853670Y-59858037D01*
X151473461Y-59407678D02*
X151431616Y-59431704D01*
X266555503Y-51287900D02*
X266512395Y-51200771D01*
X23440608Y-93075339D02*
X23440608Y-93075339D01*
X114645407Y-43132242D02*
X114598783Y-43115955D01*
X30864014Y-28191826D02*
X30777302Y-28236931D01*
X114974765Y-45384867D02*
X114974765Y-45384867D01*
X30610536Y-28339893D02*
X30530817Y-28397626D01*
X61296583Y-108191587D02*
X61300846Y-108289253D01*
X248470599Y-93773337D02*
X248470599Y-93773337D01*
X269128133Y-92934870D02*
X269217892Y-92896599D01*
X141390504Y-71114626D02*
X141351298Y-71086747D01*
X53012778Y-25975076D02*
X52951753Y-26051269D01*
X21512065Y-91006743D02*
X21511073Y-91109676D01*
X141177966Y-70921511D02*
X141148279Y-70883736D01*
X44106924Y-93679847D02*
X44199121Y-93647921D01*
X150970238Y-60084182D02*
X150961375Y-60133354D01*
X72025857Y-27169584D02*
X72004876Y-27214584D01*
X52841264Y-26212031D02*
X52792002Y-26296309D01*
X23279246Y-69055037D02*
X23229635Y-69054517D01*
X219956149Y-27407487D02*
X219944177Y-27357423D01*
X248174642Y-93761776D02*
X248272681Y-93770481D01*
X71943103Y-27407483D02*
X71636073Y-28851722D01*
X268458163Y-93075324D02*
X268458163Y-93075324D01*
X21609315Y-91698138D02*
X21641924Y-91790146D01*
X230122960Y-109453058D02*
X230184579Y-109377345D01*
X95012789Y-31369118D02*
X94972095Y-31342162D01*
X266594451Y-51377406D02*
X266555503Y-51287900D01*
X151949603Y-59287265D02*
X151898208Y-59288563D01*
X247110844Y-93303191D02*
X247187893Y-93365010D01*
X54763267Y-25275298D02*
X54665214Y-25266857D01*
X21538593Y-91410930D02*
X21557528Y-91508400D01*
X145949603Y-112396346D02*
X145949603Y-112396346D01*
X22047981Y-92440397D02*
X22115069Y-92509003D01*
X61342415Y-108580593D02*
X61365912Y-108676563D01*
X237233945Y-25266856D02*
X237135890Y-25275297D01*
X112670657Y-137669425D02*
X112756081Y-137719996D01*
X133264176Y-50447946D02*
X133157854Y-50370781D01*
X269645899Y-69920900D02*
X269638131Y-69872298D01*
X269180093Y-69203455D02*
X269137812Y-69178767D01*
X113497318Y-137960397D02*
X113594575Y-137969484D01*
X229916846Y-109661084D02*
X229988978Y-109595063D01*
X158191814Y-50927198D02*
X158122994Y-51039564D01*
X157923999Y-51533734D02*
X155949603Y-59287265D01*
X265544860Y-50298325D02*
X265454944Y-50261380D01*
X150656695Y-70992553D02*
X150656695Y-70992553D01*
X72160257Y-26966351D02*
X72129692Y-27003934D01*
X266300965Y-50878440D02*
X266239007Y-50805010D01*
X45063825Y-93019842D02*
X45123022Y-92941581D01*
X43528069Y-93774327D02*
X43626771Y-93770447D01*
X140853670Y-59858037D02*
X140831733Y-59814422D01*
X45491674Y-91943369D02*
X45497592Y-91844336D01*
X247609764Y-93611596D02*
X247700299Y-93647977D01*
X52792002Y-26296309D02*
X52746861Y-26382988D01*
X151797501Y-59298759D02*
X151748313Y-59307532D01*
X72977762Y-26616866D02*
X72927767Y-26615232D01*
X266739703Y-52060307D02*
X266733510Y-51957559D01*
X262099500Y-29516948D02*
X262073804Y-29421026D01*
X238753273Y-25831794D02*
X238681388Y-25765001D01*
X22335202Y-92694801D02*
X22414466Y-92749628D01*
X72298703Y-26832788D02*
X72261812Y-26863567D01*
X140286457Y-59343876D02*
X140240100Y-59328556D01*
X22848752Y-69135837D02*
X22804390Y-69156220D01*
X128682116Y-112396346D02*
X145949603Y-112396346D01*
X151314130Y-59515102D02*
X151277860Y-59546467D01*
X176960094Y-43305158D02*
X176923646Y-43337623D01*
X269474688Y-92756095D02*
X269555588Y-92700942D01*
X264774532Y-50130367D02*
X264671603Y-50131333D01*
X247349815Y-93476333D02*
X247434356Y-93525712D01*
X72073941Y-27083793D02*
X72048903Y-27125971D01*
X25940783Y-50543395D02*
X25866068Y-50603686D01*
X261828611Y-28892023D02*
X261773790Y-28812742D01*
X95348682Y-31770834D02*
X95327499Y-31727711D01*
X140949603Y-60285399D02*
X140949603Y-60285399D01*
X112932800Y-137807635D02*
X113023746Y-137844643D01*
X269217892Y-92896599D02*
X269305679Y-92853997D01*
X269654238Y-70019530D02*
X269654238Y-70019530D01*
X151048774Y-59852556D02*
X151028712Y-59896776D01*
X133157854Y-50370781D02*
X133046355Y-50300567D01*
X261715327Y-28736324D02*
X261653353Y-28662888D01*
X115253027Y-137272754D02*
X115315101Y-137196304D01*
X140656558Y-59578173D02*
X140656558Y-59578173D01*
X62301801Y-109888442D02*
X62389102Y-109935630D01*
X265800820Y-50433838D02*
X265717927Y-50384675D01*
X95252051Y-31605223D02*
X95223095Y-31566935D01*
X25386945Y-51200681D02*
X25343828Y-51287821D01*
X43822001Y-93748261D02*
X43918198Y-93730079D01*
X266239007Y-50805010D02*
X266173669Y-50734683D01*
X269305679Y-92853997D02*
X269391331Y-92807138D01*
X261587999Y-28592557D02*
X261519393Y-28525452D01*
X239706683Y-28701015D02*
X239706683Y-28701015D01*
X176606939Y-44083476D02*
X176608899Y-44132386D01*
X270225732Y-91867596D02*
X270262128Y-91777060D01*
X237429897Y-25264460D02*
X237332006Y-25263255D01*
X219929842Y-27308552D02*
X219913217Y-27260923D01*
X114861734Y-43245766D02*
X114820942Y-43218963D01*
X133631557Y-50819922D02*
X133549010Y-50718051D01*
X45229237Y-92777362D02*
X45276108Y-92691728D01*
X53988458Y-25341472D02*
X53895246Y-25370843D01*
X230499626Y-107518401D02*
X230466082Y-107425818D01*
X176525722Y-137117016D02*
X176584226Y-137196695D01*
X72048903Y-27125971D02*
X72025857Y-27169584D01*
X230556741Y-108580901D02*
X230575429Y-108484219D01*
X45480912Y-92041559D02*
X45491674Y-91943369D01*
X150949603Y-70285399D02*
X150949603Y-70285399D01*
X176853122Y-137481756D02*
X176928342Y-137544091D01*
X95327499Y-31727711D02*
X95304301Y-31685685D01*
X25304873Y-51377337D02*
X25270208Y-51469110D01*
X266512395Y-51200771D02*
X266465258Y-51116139D01*
X270262128Y-91777060D02*
X270294066Y-91684858D01*
X115428202Y-137033728D02*
X115428202Y-137033728D01*
X140950905Y-70336896D02*
X140949603Y-70285437D01*
X237135890Y-25275297D02*
X237038015Y-25288610D01*
X197487612Y-126216643D02*
X229509402Y-109935973D01*
X145949603Y-112396346D02*
X163217089Y-112396346D01*
X158122994Y-51039564D02*
X158061496Y-51156710D01*
X150949603Y-60285434D02*
X150949603Y-70285399D01*
X95440628Y-32196018D02*
X95439765Y-32146374D01*
X230552663Y-107707165D02*
X230528490Y-107612242D01*
X141094387Y-70803959D02*
X141070307Y-70762083D01*
X140331985Y-59361429D02*
X140286457Y-59343876D01*
X133549010Y-50718051D02*
X133460060Y-50621891D01*
X266659348Y-51563062D02*
X266629109Y-51469167D01*
X114554688Y-137797130D02*
X114642959Y-137754655D01*
X22894029Y-69117651D02*
X22848752Y-69135837D01*
X178690178Y-137903709D02*
X178783916Y-137875806D01*
X22849472Y-92964618D02*
X22943363Y-92994878D01*
X114901148Y-43274510D02*
X114861734Y-43245766D01*
X52894548Y-26130303D02*
X52841264Y-26212031D01*
X25725741Y-50734551D02*
X25660389Y-50804882D01*
X158267650Y-50819922D02*
X158191814Y-50927198D01*
X114642959Y-137754655D02*
X114728898Y-137707991D01*
X230184579Y-109377345D02*
X230242463Y-109298670D01*
X29966118Y-29070885D02*
X29923497Y-29158661D01*
X265268999Y-50200556D02*
X265173229Y-50176919D01*
X115075086Y-43445461D02*
X115043617Y-43407821D01*
X95192318Y-31530043D02*
X95159766Y-31494620D01*
X219070327Y-26619406D02*
X219021109Y-26616091D01*
X61309896Y-108386761D02*
X61323748Y-108483933D01*
X264976744Y-50143801D02*
X264876289Y-50134563D01*
X25598418Y-50878318D02*
X25539959Y-50954737D01*
X246401766Y-91844329D02*
X246407681Y-91943366D01*
X22718747Y-69203458D02*
X22677632Y-69230251D01*
X248272681Y-93770481D02*
X248371389Y-93774355D01*
X150981465Y-60035876D02*
X150970238Y-60084182D01*
X30241604Y-28667264D02*
X30178435Y-28742749D01*
X72878124Y-26616097D02*
X72828907Y-26619413D01*
X219706736Y-26930389D02*
X219672858Y-26896111D01*
X25270208Y-51469110D02*
X25239964Y-51563018D01*
X61981866Y-109660660D02*
X62057229Y-109723190D01*
X158969219Y-50237593D02*
X158852848Y-50300548D01*
X230575429Y-108484219D02*
X230589300Y-108387023D01*
X72591831Y-26671069D02*
X72546738Y-26688076D01*
X176645029Y-43794071D02*
X176632804Y-43841382D01*
X115258303Y-44326695D02*
X115269951Y-44278480D01*
X150994996Y-59988498D02*
X150981465Y-60035876D01*
X151277860Y-59546467D02*
X151243140Y-59579510D01*
X270362514Y-91399912D02*
X270376002Y-91302704D01*
X269615582Y-69776925D02*
X269600875Y-69730314D01*
X237038015Y-25288610D02*
X236940493Y-25306828D01*
X25660389Y-50804882D02*
X25598418Y-50878318D01*
X140145231Y-59304752D02*
X140096883Y-59296335D01*
X25177055Y-51856337D02*
X25165793Y-51957572D01*
X176629254Y-44278517D02*
X176640902Y-44326733D01*
X73129115Y-26637251D02*
X73078511Y-26627828D01*
X151010766Y-59942110D02*
X150994996Y-59988498D01*
X246226321Y-86820426D02*
X246401766Y-91844329D01*
X196460206Y-32246005D02*
X196464389Y-32296279D01*
X269600875Y-69730314D02*
X269583929Y-69684530D01*
X177163704Y-43171411D02*
X177120368Y-43194170D01*
X72502594Y-26707196D02*
X72459472Y-26728380D01*
X151028712Y-59896776D02*
X151010766Y-59942110D01*
X45672885Y-86820426D02*
X45672885Y-86820426D01*
X196847282Y-31397901D02*
X196809697Y-31428466D01*
X26726375Y-50176830D02*
X26630588Y-50200456D01*
X260390803Y-28001776D02*
X260290328Y-27992558D01*
X72226391Y-26896119D02*
X72192515Y-26930397D01*
X26823853Y-50157884D02*
X26726375Y-50176830D01*
X114728898Y-137707991D02*
X114812361Y-137657243D01*
X115010418Y-43371851D02*
X114975560Y-43337607D01*
X261046763Y-28197350D02*
X260959039Y-28156219D01*
X53371694Y-25641844D02*
X53293074Y-25701638D01*
X61300846Y-108289253D02*
X61309896Y-108386761D01*
X246776340Y-92941621D02*
X246835541Y-93019886D01*
X30379534Y-28525285D02*
X30379534Y-28525285D01*
X150690891Y-70956620D02*
X150656695Y-70992553D01*
X52192523Y-28701015D02*
X52192523Y-28701015D01*
X269261076Y-69259113D02*
X269221208Y-69230247D01*
X177622634Y-137898095D02*
X177718814Y-137922713D01*
X270387606Y-91006736D02*
X269654238Y-70019530D01*
X269543466Y-69595760D02*
X269520023Y-69552936D01*
X150544522Y-71089222D02*
X150504382Y-71117434D01*
X29923497Y-29158661D02*
X29885206Y-29248411D01*
X31324229Y-28032544D02*
X31229187Y-28055361D01*
X177256857Y-137754620D02*
X177345170Y-137797033D01*
X22562113Y-69322947D02*
X22526672Y-69357667D01*
X115158412Y-43567870D02*
X115158412Y-43567870D01*
X247700299Y-93647977D02*
X247792500Y-93679900D01*
X115239617Y-43747311D02*
X115222755Y-43701237D01*
X261969931Y-29145826D02*
X261926812Y-29058686D01*
X179056514Y-137764557D02*
X179143923Y-137718393D01*
X21515244Y-91211439D02*
X21524458Y-91311900D01*
X149949572Y-71285434D02*
X149949572Y-71285434D01*
X133365013Y-50531753D02*
X133264176Y-50447946D01*
X230427873Y-107334672D02*
X230385012Y-107245139D01*
X219352503Y-26688066D02*
X219307409Y-26671059D01*
X95279135Y-31644831D02*
X95252051Y-31605223D01*
X246479056Y-92329472D02*
X246508462Y-92422680D01*
X151094989Y-59767715D02*
X151070887Y-59809515D01*
X53538047Y-25533815D02*
X53453532Y-25585768D01*
X219956149Y-27407487D02*
X219956149Y-27407487D01*
X114551203Y-43101933D02*
X114551203Y-43101933D01*
X238185991Y-25443293D02*
X238095736Y-25404792D01*
X114598783Y-43115955D02*
X114551203Y-43101933D01*
X141652241Y-71240445D02*
X141605777Y-71224724D01*
X268911839Y-69087996D02*
X268864314Y-69076592D01*
X268752604Y-93043175D02*
X268848637Y-93022962D01*
X114975560Y-43337607D02*
X114939113Y-43305142D01*
X140906354Y-59994511D02*
X140891014Y-59948164D01*
X219214676Y-26643576D02*
X219167185Y-26633197D01*
X54274691Y-25281167D02*
X54178355Y-25296602D01*
X239152303Y-26382985D02*
X239107163Y-26296305D01*
X135949603Y-59287265D02*
X135949603Y-59287265D01*
X115266393Y-43841357D02*
X115254167Y-43794047D01*
X266359413Y-50954852D02*
X266300965Y-50878440D01*
X269004809Y-69117647D02*
X268958699Y-69101691D01*
X163217089Y-112396346D02*
X164824786Y-118396346D01*
X22493138Y-69393940D02*
X22461548Y-69431684D01*
X140981092Y-70535347D02*
X140969924Y-70486967D01*
X72129692Y-27003934D02*
X72100895Y-27043097D01*
X176676441Y-43701259D02*
X176659579Y-43747334D01*
X26018359Y-50486693D02*
X25940783Y-50543395D01*
X266465258Y-51116139D02*
X266414220Y-51034126D01*
X29744601Y-29918353D02*
X29744601Y-29918353D01*
X45497592Y-91844336D02*
X45672885Y-86820426D01*
X23229635Y-69054517D02*
X23180274Y-69056444D01*
X269633868Y-92641753D02*
X269709369Y-92578601D01*
X150949603Y-70285399D02*
X150948374Y-70334994D01*
X196571720Y-31727694D02*
X196550535Y-31770818D01*
X95439765Y-32146374D02*
X95436452Y-32097156D01*
X94648402Y-31211313D02*
X73129115Y-26637251D01*
X266629109Y-51469167D02*
X266594451Y-51377406D01*
X53077523Y-25901870D02*
X53012778Y-25975076D01*
X22496470Y-92800685D02*
X22581093Y-92847842D01*
X54082886Y-25316714D02*
X53988458Y-25341472D01*
X230589300Y-108387023D02*
X230598367Y-108289491D01*
X140583173Y-59511743D02*
X140544336Y-59481504D01*
X196499561Y-31906026D02*
X196486923Y-31952794D01*
X239229815Y-26562966D02*
X239193221Y-26471921D01*
X179229312Y-137667739D02*
X197487612Y-126216643D01*
X61346595Y-107707082D02*
X61327129Y-107802883D01*
X26266955Y-50339334D02*
X26181575Y-50384541D01*
X177435668Y-137835152D02*
X177528204Y-137868874D01*
X158852848Y-50300548D02*
X158741348Y-50370765D01*
X22677632Y-69230251D02*
X22637766Y-69259117D01*
X21984239Y-92368671D02*
X22047981Y-92440397D01*
X196594920Y-31685668D02*
X196571720Y-31727694D01*
X140891014Y-59948164D02*
X140873441Y-59902645D01*
X151652583Y-59332115D02*
X151606167Y-59347800D01*
X71969411Y-27308551D02*
X71955075Y-27357420D01*
X261879662Y-28974045D02*
X261828611Y-28892023D01*
X94841302Y-31273092D02*
X94794964Y-31254251D01*
X246401766Y-91844329D02*
X246401766Y-91844329D01*
X237816278Y-25316711D02*
X237720809Y-25296599D01*
X115104756Y-43484719D02*
X115075086Y-43445461D01*
X177078268Y-43218978D02*
X177037476Y-43245781D01*
X176924441Y-45384867D02*
X159344500Y-50095401D01*
X150930210Y-70481425D02*
X150919442Y-70529179D01*
X44465051Y-93525653D02*
X44549586Y-93476274D01*
X115279160Y-44229959D02*
X115285940Y-44181220D01*
X270376002Y-91302704D02*
X270384721Y-91204662D01*
X23440608Y-93075339D02*
X43428866Y-93773314D01*
X21678848Y-91880073D02*
X21719967Y-91967790D01*
X159344500Y-50095401D02*
X159215351Y-50134709D01*
X44711499Y-93364952D02*
X44788543Y-93303135D01*
X262043557Y-29327117D02*
X262008890Y-29235344D01*
X219522650Y-26776736D02*
X219481797Y-26751569D01*
X114820942Y-43218963D02*
X114778844Y-43194155D01*
X22761027Y-69178771D02*
X22718747Y-69203458D01*
X23137067Y-93041620D02*
X23236637Y-93057842D01*
X26181575Y-50384541D02*
X26098666Y-50433701D01*
X176928342Y-137544091D02*
X177006470Y-137602649D01*
X219307409Y-26671059D02*
X219261442Y-26656213D01*
X94794964Y-31254251D02*
X94747335Y-31237624D01*
X177087362Y-137657325D02*
X177170873Y-137708016D01*
X219167185Y-26633197D02*
X219119043Y-26625125D01*
X238361108Y-25533811D02*
X238274506Y-25486310D01*
X113116181Y-137877071D02*
X113209932Y-137904890D01*
X196620087Y-31644814D02*
X196594920Y-31685668D01*
X61323748Y-108483933D02*
X61342415Y-108580593D01*
X128682116Y-112396346D02*
X128682116Y-112396346D01*
X158635027Y-50447933D02*
X158534191Y-50531744D01*
X95159766Y-31494620D02*
X95125489Y-31460742D01*
X158534191Y-50531744D02*
X158439145Y-50621885D01*
X43428866Y-93773314D02*
X43528069Y-93774327D01*
X140048035Y-59290287D02*
X139998769Y-59286642D01*
X151178602Y-59650382D02*
X151148909Y-59688085D01*
X69356166Y-91854468D02*
X69356166Y-91854468D01*
X269466900Y-69470816D02*
X269437293Y-69431680D01*
X150961375Y-60133354D02*
X150954939Y-60183328D01*
X197487612Y-126216643D02*
X197487612Y-126216643D01*
X197602359Y-37674814D02*
X177348010Y-43101950D01*
X62057229Y-109723190D02*
X62135750Y-109782087D01*
X45276108Y-92691728D02*
X45318722Y-92603959D01*
X229509402Y-109935973D02*
X229596744Y-109888808D01*
X22637766Y-69259117D02*
X22599232Y-69290026D01*
X114551203Y-43101933D02*
X94296847Y-37674814D01*
X246226321Y-86820426D02*
X246226321Y-86820426D01*
X230598367Y-108289491D02*
X230602644Y-108191800D01*
X267334750Y-69099917D02*
X267334750Y-69099917D01*
X237720809Y-25296599D02*
X237624473Y-25281165D01*
X219439771Y-26728370D02*
X219396648Y-26707186D01*
X52609528Y-26750805D02*
X52586505Y-26847303D01*
X196647174Y-31605205D02*
X196620087Y-31644814D01*
X139998769Y-59286642D02*
X139949168Y-59285434D01*
X150919442Y-70529179D02*
X150906376Y-70576267D01*
X178207836Y-137973049D02*
X178305540Y-137968637D01*
X61399625Y-107518371D02*
X61370765Y-107612186D01*
X238003916Y-25370840D02*
X237910705Y-25341469D01*
X114464231Y-137835314D02*
X114554688Y-137797130D01*
X151391071Y-59457658D02*
X151351888Y-59485478D01*
X61427269Y-108865249D02*
X61464713Y-108956683D01*
X196471169Y-32346757D02*
X196480593Y-32397362D01*
X141949603Y-71285399D02*
X141949603Y-71285399D01*
X247267606Y-93422745D02*
X247349815Y-93476333D01*
X22461548Y-69431684D02*
X22431940Y-69470819D01*
X176740786Y-43567889D02*
X176740786Y-43567889D01*
X141699693Y-71253920D02*
X141652241Y-71240445D01*
X230528490Y-107612242D02*
X230499626Y-107518401D01*
X269437293Y-69431680D02*
X269405705Y-69393936D01*
X72004876Y-27214584D02*
X71986036Y-27260923D01*
X196458571Y-32196008D02*
X196460206Y-32246005D01*
X61841073Y-109525241D02*
X61909775Y-109594632D01*
X140954768Y-70387679D02*
X140950905Y-70336896D01*
X269372173Y-69357663D02*
X269336734Y-69322943D01*
X267334750Y-69099917D02*
X266739703Y-52060307D01*
X155949603Y-59287265D02*
X155949603Y-59287265D01*
X72780192Y-26625132D02*
X72732052Y-26633205D01*
X150873479Y-70668121D02*
X150853716Y-70712723D01*
X158741348Y-50370765D02*
X158635027Y-50447933D01*
X229841442Y-109723604D02*
X229916846Y-109661084D01*
X43626771Y-93770447D02*
X43724803Y-93761738D01*
X54567155Y-25263256D02*
X54469265Y-25264462D01*
X61433162Y-107425814D02*
X61399625Y-107518371D01*
X238527461Y-25641840D02*
X238445620Y-25585764D01*
X268864314Y-69076592D02*
X268816205Y-69067511D01*
X247187893Y-93365010D02*
X247267606Y-93422745D01*
X95422663Y-32000299D02*
X95412286Y-31952808D01*
X140620608Y-59543977D02*
X140583173Y-59511743D01*
X177006470Y-137602649D02*
X177087362Y-137657325D01*
X236940493Y-25306828D02*
X236940493Y-25306828D01*
X269094449Y-69156216D02*
X269050087Y-69135833D01*
X219481797Y-26751569D02*
X219439771Y-26728370D01*
X31135478Y-28082759D02*
X31043269Y-28114678D01*
X113304821Y-137928071D02*
X113400675Y-137946583D01*
X22526672Y-69357667D02*
X22493138Y-69393940D01*
X246508462Y-92422680D02*
X246542344Y-92514238D01*
X45357007Y-92514217D02*
X45390889Y-92422663D01*
X45497592Y-91844336D02*
X45497592Y-91844336D01*
X22599232Y-69290026D02*
X22562113Y-69322947D01*
X270344321Y-91496117D02*
X270362514Y-91399912D01*
X196969322Y-31317109D02*
X196927142Y-31342148D01*
X114371731Y-137869104D02*
X114464231Y-137835314D01*
X269651281Y-69970004D02*
X269645899Y-69920900D01*
X43428866Y-93773314D02*
X43428866Y-93773314D01*
X21557528Y-91508400D02*
X21581143Y-91604179D01*
X196480593Y-32397362D02*
X197602359Y-37674814D01*
X268619601Y-69055033D02*
X268619601Y-69055033D01*
X237624473Y-25281165D02*
X237527444Y-25270441D01*
X44199121Y-93647921D02*
X44289652Y-93611539D01*
X115132554Y-43525540D02*
X115104756Y-43484719D01*
X197012936Y-31294062D02*
X196969322Y-31317109D01*
X29036982Y-50194493D02*
X29036982Y-50194493D01*
X150376860Y-71189564D02*
X150332259Y-71209324D01*
X176659579Y-43747334D02*
X176645029Y-43794071D01*
X127074427Y-118396346D02*
X127074427Y-118396346D01*
X196468470Y-32048427D02*
X196462752Y-32097144D01*
X177348010Y-43101950D02*
X177348010Y-43101950D01*
X72828907Y-26619413D02*
X72780192Y-26625132D01*
X219600545Y-26832779D02*
X219562258Y-26803822D01*
X141148279Y-70883736D02*
X141120398Y-70844531D01*
X113888274Y-137968088D02*
X113986232Y-137957972D01*
X150583343Y-71058982D02*
X150544522Y-71089222D01*
X196550535Y-31770818D02*
X196531415Y-31814964D01*
X150240408Y-71242218D02*
X150193323Y-71255283D01*
X266722248Y-51856340D02*
X266706048Y-51756770D01*
X176470996Y-137034179D02*
X176525722Y-137117016D01*
X197057938Y-31273081D02*
X197012936Y-31294062D01*
X140969924Y-70486967D02*
X140961129Y-70437724D01*
X158439145Y-50621885D02*
X158350196Y-50718048D01*
X22404351Y-69511264D02*
X22378817Y-69552939D01*
X140192997Y-59315504D02*
X140145231Y-59304752D01*
X61602451Y-109216748D02*
X61656448Y-109298241D01*
X95418597Y-32397368D02*
X95428024Y-32346764D01*
X140831733Y-59814422D02*
X140807666Y-59771882D01*
X30952726Y-28151054D02*
X30864014Y-28191826D01*
X151351888Y-59485478D02*
X151314130Y-59515102D01*
X197602359Y-37674814D02*
X197602359Y-37674814D01*
X30379534Y-28525285D02*
X30308662Y-28594722D01*
X45318722Y-92603959D02*
X45357007Y-92514217D01*
X197250842Y-31211308D02*
X197250842Y-31211308D01*
X62389102Y-109935630D02*
X62389102Y-109935630D01*
X72100895Y-27043097D02*
X72073941Y-27083793D01*
X220263125Y-28851722D02*
X220263125Y-28851722D01*
X95412286Y-31952808D02*
X95399651Y-31906041D01*
X218770114Y-26637253D02*
X197250842Y-31211308D01*
X52586505Y-26847303D02*
X52586505Y-26847303D01*
X248470599Y-93773337D02*
X268458163Y-93075324D01*
X238821639Y-25901866D02*
X238753273Y-25831794D01*
X219873396Y-27169582D02*
X219850350Y-27125968D01*
X45420294Y-92329458D02*
X45445149Y-92234766D01*
X262136720Y-29714349D02*
X262120515Y-29614763D01*
X115046443Y-137481522D02*
X115118553Y-137415467D01*
X150145573Y-71266048D02*
X150097241Y-71274480D01*
X61327129Y-107802883D02*
X61312380Y-107899411D01*
X21867279Y-92216379D02*
X21923965Y-92293955D01*
X25485140Y-51034018D02*
X25434092Y-51116040D01*
X268557205Y-93069429D02*
X268655406Y-93058688D01*
X219894377Y-27214583D02*
X219873396Y-27169582D01*
X246542344Y-92514238D02*
X246580630Y-92603985D01*
X176610186Y-43985883D02*
X176607371Y-44034612D01*
X140544336Y-59481504D02*
X140504178Y-59453294D01*
X25794344Y-50667445D02*
X25725741Y-50734551D01*
X94972095Y-31342162D02*
X94929916Y-31317122D01*
X269564780Y-69639651D02*
X269543466Y-69595760D01*
X151949603Y-59287265D02*
X151949603Y-59287265D01*
X26444609Y-50261262D02*
X26354676Y-50298200D01*
X29761282Y-29721111D02*
X29750519Y-29819310D01*
X151847487Y-59292415D02*
X151797501Y-59298759D01*
X45465379Y-92138745D02*
X45480912Y-92041559D01*
X246623246Y-92691758D02*
X246670119Y-92777396D01*
X151560799Y-59365664D02*
X151516543Y-59385644D01*
X140807666Y-59771882D02*
X140781502Y-59730498D01*
X139949168Y-59285434D02*
X139949168Y-59285434D01*
X269851382Y-92440703D02*
X269917238Y-92366492D01*
X158007627Y-51278328D02*
X157961692Y-51404106D01*
X141313521Y-71057061D02*
X141277237Y-71025632D01*
X52705943Y-26471924D02*
X52669348Y-26562970D01*
X141797317Y-71273879D02*
X141748073Y-71265085D01*
X53713168Y-25443296D02*
X53624651Y-25486314D01*
X176640902Y-44326733D02*
X176640902Y-44326733D01*
X45390889Y-92422663D02*
X45420294Y-92329458D01*
X133707395Y-50927194D02*
X133631557Y-50819922D01*
X269917238Y-92366492D02*
X269979072Y-92289450D01*
X30064058Y-28901900D02*
X30012996Y-28985244D01*
X269221208Y-69230247D02*
X269180093Y-69203455D01*
X43918198Y-93730079D02*
X44013228Y-93707253D01*
X230504855Y-108772017D02*
X230504855Y-108772017D01*
X27228083Y-50131324D02*
X27228083Y-50131324D01*
X61656448Y-109298241D02*
X61714294Y-109376910D01*
X196514407Y-31860058D02*
X196499561Y-31906026D01*
X53145888Y-25831798D02*
X53077523Y-25901870D01*
X31813616Y-27989368D02*
X31714403Y-27988342D01*
X176622914Y-43889180D02*
X176615370Y-43937376D01*
X72546738Y-26688076D02*
X72502594Y-26707196D01*
X73028035Y-26621049D02*
X72977762Y-26616866D01*
X114735508Y-43171396D02*
X114691006Y-43150740D01*
X176924441Y-45384867D02*
X176924441Y-45384867D01*
X71636073Y-28851722D02*
X54958659Y-25306828D01*
X269391331Y-92807138D02*
X269474688Y-92756095D01*
X177253806Y-43132258D02*
X177208207Y-43150756D01*
X246835541Y-93019886D02*
X246898705Y-93095370D01*
X115222755Y-43701237D02*
X115203592Y-43655914D01*
X145949603Y-71285399D02*
X145949603Y-71285399D01*
X176794445Y-43484737D02*
X176766645Y-43525558D01*
X176608899Y-44132386D02*
X176613264Y-44181255D01*
X23337857Y-93069125D02*
X23440608Y-93075339D01*
X25539959Y-50954737D02*
X25485140Y-51034018D01*
X196739463Y-31494603D02*
X196706910Y-31530026D01*
X159344500Y-50095401D02*
X159344500Y-50095401D01*
X178305540Y-137968637D02*
X178402802Y-137959467D01*
X141431077Y-71140635D02*
X141390504Y-71114626D01*
X94296847Y-37674814D02*
X94296847Y-37674814D01*
X72927767Y-26615232D02*
X72878124Y-26616097D01*
X52669348Y-26562970D02*
X52637176Y-26655979D01*
X22562113Y-69322947D02*
X22562113Y-69322947D01*
X45178184Y-92860700D02*
X45229237Y-92777362D01*
X196809697Y-31428466D02*
X196773742Y-31460726D01*
X61909775Y-109594632D02*
X61981866Y-109660660D01*
X268718570Y-69056440D02*
X268669211Y-69054513D01*
X197200778Y-31223280D02*
X197151907Y-31237616D01*
X176620045Y-44229994D02*
X176629254Y-44278517D01*
X230385012Y-107245139D02*
X230385012Y-107245139D01*
X114691006Y-43150740D02*
X114645407Y-43132242D01*
X22283260Y-69776925D02*
X22270829Y-69824280D01*
X238947411Y-26051265D02*
X238886385Y-25975072D01*
X141120398Y-70844531D02*
X141094387Y-70803959D01*
X260085604Y-27989373D02*
X239706683Y-28701015D01*
X113790228Y-137973359D02*
X113888274Y-137968088D01*
X25434092Y-51116040D02*
X25386945Y-51200681D01*
X21581143Y-91604179D02*
X21609315Y-91698138D01*
X114812361Y-137657243D02*
X114893202Y-137602513D01*
X229509402Y-109935973D02*
X229509402Y-109935973D01*
X23279246Y-69055037D02*
X23279246Y-69055037D01*
X266733510Y-51957559D02*
X266722248Y-51856340D01*
X22378817Y-69552939D02*
X22355374Y-69595762D01*
X61297094Y-108093940D02*
X61296583Y-108191587D01*
X219913217Y-27260923D02*
X219894377Y-27214583D01*
X72417448Y-26751579D02*
X72376595Y-26776746D01*
X261519393Y-28525452D02*
X261447666Y-28461694D01*
X237910705Y-25341469D02*
X237816278Y-25316711D01*
X114974765Y-45384867D02*
X115258303Y-44326695D01*
X21524458Y-91311900D02*
X21538593Y-91410930D01*
X150954939Y-60183328D02*
X150950995Y-60234042D01*
X229681275Y-109837601D02*
X229762879Y-109782488D01*
X177718814Y-137922713D02*
X177718814Y-137922713D01*
X196886446Y-31369103D02*
X196847282Y-31397901D01*
X151699986Y-59318671D02*
X151652583Y-59332115D01*
X176717056Y-43611449D02*
X176695604Y-43655935D01*
X266414220Y-51034126D02*
X266359413Y-50954852D01*
X95304301Y-31685685D02*
X95279135Y-31644831D01*
X54665214Y-25266857D02*
X54567155Y-25263256D01*
X270090424Y-92127538D02*
X270139818Y-92043001D01*
X150504382Y-71117434D02*
X150463003Y-71143585D01*
X54861140Y-25288611D02*
X54763267Y-25275298D01*
X22270829Y-69824280D02*
X22260711Y-69872299D01*
X247521060Y-93570821D02*
X247609764Y-93611596D01*
X246721175Y-92860737D02*
X246776340Y-92941621D01*
X94381060Y-126216544D02*
X94381060Y-126216544D01*
X150048409Y-71280544D02*
X149999159Y-71284207D01*
X54958659Y-25306828D02*
X54958659Y-25306828D01*
X247036624Y-93237349D02*
X247110844Y-93303191D01*
X219119043Y-26625125D02*
X219070327Y-26619406D01*
X270387606Y-91006736D02*
X270387606Y-91006736D01*
X114083928Y-137942981D02*
X114181185Y-137923087D01*
X247434356Y-93525712D02*
X247521060Y-93570821D01*
X114971278Y-137543905D02*
X115046443Y-137481522D01*
X264671603Y-50131333D02*
X264671603Y-50131333D01*
X178595296Y-137926974D02*
X178690178Y-137903709D01*
X219672858Y-26896111D02*
X219637436Y-26863558D01*
X25239964Y-51563018D02*
X25214270Y-51658939D01*
X115290304Y-44132353D02*
X115292264Y-44083444D01*
X269654238Y-70019530D02*
X269651281Y-69970004D01*
X196927142Y-31342148D02*
X196886446Y-31369103D01*
X23236637Y-93057842D02*
X23337857Y-93069125D01*
X133460060Y-50621891D02*
X133365013Y-50531753D01*
X22185383Y-92574359D02*
X22258801Y-92636335D01*
X266033371Y-50603823D02*
X265958671Y-50543533D01*
X114181185Y-137923087D02*
X114181185Y-137923087D01*
X22581093Y-92847842D02*
X22668216Y-92890970D01*
X26098666Y-50433701D02*
X26018359Y-50486693D01*
X31420438Y-28014372D02*
X31324229Y-28032544D01*
X238095736Y-25404792D02*
X238003916Y-25370840D01*
X238274506Y-25486310D02*
X238185991Y-25443293D01*
X115258303Y-44326695D02*
X115258303Y-44326695D01*
X24564463Y-69099917D02*
X23279246Y-69055037D01*
X140948373Y-60235804D02*
X140944707Y-60186545D01*
X141949603Y-71285399D02*
X141898144Y-71284098D01*
X238681388Y-25765001D02*
X238606083Y-25701634D01*
X230346562Y-109132981D02*
X230392547Y-109046235D01*
X150906376Y-70576267D02*
X150891043Y-70622609D01*
X261132146Y-28242555D02*
X261046763Y-28197350D01*
X53453532Y-25585768D02*
X53453532Y-25585768D01*
X94929916Y-31317122D02*
X94886303Y-31294074D01*
X176632804Y-43841382D02*
X176622914Y-43889180D01*
X218820719Y-26627828D02*
X218770114Y-26637253D01*
X27023365Y-50134517D02*
X26922893Y-50143739D01*
X150656695Y-70992553D02*
X150620761Y-71026747D01*
X44549586Y-93476274D02*
X44631791Y-93422686D01*
X261295368Y-28344704D02*
X261215058Y-28291714D01*
X260869103Y-28119283D02*
X260777086Y-28086664D01*
X140949603Y-70285437D02*
X140949603Y-70285437D01*
X61471361Y-107334693D02*
X61433162Y-107425814D01*
X25193257Y-51756753D02*
X25177055Y-51856337D01*
X30777302Y-28236931D02*
X30692754Y-28286307D01*
X150097241Y-71274480D02*
X150048409Y-71280544D01*
X246898705Y-93095370D02*
X246965757Y-93167912D01*
X95223095Y-31566935D02*
X95192318Y-31530043D01*
X230057721Y-109525676D02*
X230122960Y-109453058D01*
X22258801Y-92636335D02*
X22335202Y-92694801D01*
X140240100Y-59328556D02*
X140192997Y-59315504D01*
X95438991Y-32246014D02*
X95440628Y-32196018D01*
X22414466Y-92749628D02*
X22496470Y-92800685D01*
X230392547Y-109046235D02*
X230434334Y-108957069D01*
X157923999Y-51533734D02*
X157923999Y-51533734D01*
X95430735Y-32048440D02*
X95422663Y-32000299D01*
X219021109Y-26616091D02*
X218971465Y-26615227D01*
X30692754Y-28286307D02*
X30610536Y-28339893D01*
X151070887Y-59809515D02*
X151048774Y-59852556D01*
X61370765Y-107612186D02*
X61346595Y-107707082D01*
X151148909Y-59688085D02*
X151121017Y-59727217D01*
X237332006Y-25263255D02*
X237233945Y-25266856D01*
X176855586Y-43407837D02*
X176824116Y-43445478D01*
X133837717Y-51156702D02*
X133776217Y-51039557D01*
X61775874Y-109452622D02*
X61841073Y-109525241D01*
X61464713Y-108956683D02*
X61506469Y-109045834D01*
X22252942Y-69920900D02*
X22247560Y-69970004D01*
X239107163Y-26296305D02*
X239057900Y-26212028D01*
X265454944Y-50261380D02*
X265362947Y-50228750D01*
X95418597Y-32397368D02*
X95418597Y-32397368D01*
X115269951Y-44278480D02*
X115279160Y-44229959D01*
X22757716Y-92929939D02*
X22849472Y-92964618D01*
X30119228Y-28821015D02*
X30064058Y-28901900D01*
X150831790Y-70756332D02*
X150807735Y-70798866D01*
X62389102Y-109935630D02*
X94381060Y-126216544D01*
X177348010Y-43101950D02*
X177300430Y-43115971D01*
X141560366Y-71206820D02*
X141516071Y-71186795D01*
X178011802Y-137967483D02*
X178109865Y-137972675D01*
X178967259Y-137806200D02*
X179056514Y-137764557D01*
X151748313Y-59307532D02*
X151699986Y-59318671D01*
X239004616Y-26130299D02*
X238947411Y-26051265D01*
X176695604Y-43655935D02*
X176676441Y-43701259D01*
X196531415Y-31814964D02*
X196514407Y-31860058D01*
X61514209Y-107245185D02*
X61514209Y-107245185D01*
X141209396Y-70957794D02*
X141177966Y-70921511D01*
X71955075Y-27357420D02*
X71943103Y-27407483D01*
X31043269Y-28114678D02*
X30952726Y-28151054D01*
X236940493Y-25306828D02*
X220263125Y-28851722D01*
X44631791Y-93422686D02*
X44711499Y-93364952D01*
X265632564Y-50339464D02*
X265544860Y-50298325D01*
X29821909Y-29433185D02*
X29797051Y-29527887D01*
X261372948Y-28401404D02*
X261295368Y-28344704D01*
X133891589Y-51278317D02*
X133837717Y-51156702D01*
X260587328Y-28034860D02*
X260489846Y-28015917D01*
X141898144Y-71284098D02*
X141847361Y-71280237D01*
X22244601Y-70019530D02*
X21512065Y-91006743D01*
X151210033Y-59614169D02*
X151178602Y-59650382D01*
X115373542Y-137116594D02*
X115428202Y-137033728D01*
X196476544Y-32000285D02*
X196468470Y-32048427D01*
X219769559Y-27003928D02*
X219738994Y-26966344D01*
X150193323Y-71255283D02*
X150145573Y-71266048D01*
X114778844Y-43194155D02*
X114735508Y-43171396D01*
X141048223Y-70718967D02*
X141028196Y-70674672D01*
X29776817Y-29623916D02*
X29761282Y-29721111D01*
X230242463Y-109298670D02*
X230296496Y-109217171D01*
X95125489Y-31460742D02*
X95089535Y-31428482D01*
X269709369Y-92578601D02*
X269781927Y-92511560D01*
X53293074Y-25701638D02*
X53217772Y-25765005D01*
X114277335Y-137898396D02*
X114371731Y-137869104D01*
X230602144Y-108094128D02*
X230596883Y-107996650D01*
X268816205Y-69067511D02*
X268767596Y-69060783D01*
X140949603Y-70285437D02*
X140949603Y-60285399D01*
X140376604Y-59381182D02*
X140331985Y-59361429D01*
X269050087Y-69135833D02*
X269004809Y-69117647D01*
X141277237Y-71025632D02*
X141242508Y-70992522D01*
X176613264Y-44181255D02*
X176620045Y-44229994D01*
X197250842Y-31211308D02*
X197200778Y-31223280D01*
X230385012Y-107245139D02*
X222543032Y-91854468D01*
X22943363Y-92994878D02*
X23039268Y-93020588D01*
X265075767Y-50157960D02*
X264976744Y-50143801D01*
X266105080Y-50667580D02*
X266033371Y-50603823D01*
X196773742Y-31460726D02*
X196739463Y-31494603D01*
X141351298Y-71086747D02*
X141313521Y-71057061D01*
X140420230Y-59403099D02*
X140376604Y-59381182D01*
X230296496Y-109217171D02*
X230346562Y-109132981D01*
X164824786Y-118396346D02*
X164824786Y-118396346D01*
X260188552Y-27988383D02*
X260085604Y-27989373D01*
X52192523Y-28701015D02*
X31813616Y-27989368D01*
X95399651Y-31906041D02*
X95384806Y-31860074D01*
X218770114Y-26637253D02*
X218770114Y-26637253D01*
X95367800Y-31814980D02*
X95348682Y-31770834D01*
X268958699Y-69101691D02*
X268911839Y-69087996D01*
X22804390Y-69156220D02*
X22761027Y-69178771D01*
X230504855Y-108772017D02*
X230533221Y-108676893D01*
X150753369Y-70880384D02*
X150723127Y-70919203D01*
X247981236Y-93730125D02*
X248077439Y-93748304D01*
X269583929Y-69684530D02*
X269564780Y-69639651D01*
X246407681Y-91943366D02*
X246418441Y-92041560D01*
X230466082Y-107425818D02*
X230427873Y-107334672D01*
X230596883Y-107996650D02*
X230586872Y-107899546D01*
X266706048Y-51756770D02*
X266685037Y-51658970D01*
X27228083Y-50131324D02*
X27125138Y-50130338D01*
X115285940Y-44181220D02*
X115290304Y-44132353D01*
X151606167Y-59347800D02*
X151560799Y-59365664D01*
X24564463Y-69099917D02*
X24564463Y-69099917D01*
X141070307Y-70762083D02*
X141048223Y-70718967D01*
X72376595Y-26776746D02*
X72336989Y-26803832D01*
X218921469Y-26616863D02*
X218871195Y-26621047D01*
X45000666Y-93095323D02*
X45063825Y-93019842D01*
X141748073Y-71265085D02*
X141699693Y-71253920D01*
X270036821Y-92209744D02*
X270090424Y-92127538D01*
X178109865Y-137972675D02*
X178207836Y-137973049D01*
X176888786Y-43371867D02*
X176855586Y-43407837D01*
X21923965Y-92293955D02*
X21984239Y-92368671D01*
X230572128Y-107802992D02*
X230552663Y-107707165D01*
X219396648Y-26707186D02*
X219352503Y-26688066D01*
X21641924Y-91790146D02*
X21678848Y-91880073D01*
X150420469Y-71167639D02*
X150376860Y-71189564D01*
X26354676Y-50298200D02*
X26266955Y-50339334D01*
X261215058Y-28291714D02*
X261132146Y-28242555D01*
X61506469Y-109045834D02*
X61552420Y-109132568D01*
X54469265Y-25264462D02*
X54371719Y-25270443D01*
X140690769Y-59614109D02*
X140656558Y-59578173D01*
X150938643Y-70433089D02*
X150930210Y-70481425D01*
X150949603Y-60285434D02*
X150949603Y-60285434D01*
X112843520Y-137766076D02*
X112932800Y-137807635D01*
X61365912Y-108676563D02*
X61394252Y-108771666D01*
X222543032Y-91854468D02*
X246226321Y-86820426D01*
X113594575Y-137969484D02*
X113692270Y-137973814D01*
X262862216Y-50194493D02*
X262862216Y-50194493D01*
X238886385Y-25975072D02*
X238821639Y-25901866D01*
X178783916Y-137875806D02*
X178876335Y-137843293D01*
X260290328Y-27992558D02*
X260188552Y-27988383D01*
X230602644Y-108191800D02*
X230602144Y-108094128D01*
X218971465Y-26615227D02*
X218921469Y-26616863D01*
X21512065Y-91006743D02*
X21512065Y-91006743D01*
X261653353Y-28662888D02*
X261587999Y-28592557D01*
X112756081Y-137719996D02*
X112843520Y-137766076D01*
X22987000Y-69088000D02*
X22940140Y-69101695D01*
X141605777Y-71224724D02*
X141560366Y-71206820D01*
X44378351Y-93570762D02*
X44465051Y-93525653D01*
X150463003Y-71143585D02*
X150420469Y-71167639D01*
X246965757Y-93167912D02*
X247036624Y-93237349D01*
X61394252Y-108771666D02*
X61394252Y-108771666D01*
X262147984Y-29815586D02*
X262136720Y-29714349D01*
X73078511Y-26627828D02*
X73028035Y-26621049D01*
X43724803Y-93761738D02*
X43822001Y-93748261D01*
X21765159Y-92053167D02*
X21814304Y-92136073D01*
X133975222Y-51533719D02*
X133937526Y-51404093D01*
X269137812Y-69178767D02*
X269094449Y-69156216D01*
X260489846Y-28015917D02*
X260390803Y-28001776D01*
X25343828Y-51287821D02*
X25304873Y-51377337D01*
X269851382Y-92440703D02*
X269851382Y-92440703D01*
X94698465Y-31223286D02*
X94648402Y-31211313D01*
X176740786Y-43567889D02*
X176717056Y-43611449D01*
X140781502Y-59730498D02*
X140753275Y-59690353D01*
X268669211Y-69054513D02*
X268619601Y-69055033D01*
X22940140Y-69101695D02*
X22894029Y-69117651D01*
X270321484Y-91591155D02*
X270344321Y-91496117D01*
X260085604Y-27989373D02*
X260085604Y-27989373D01*
X219944177Y-27357423D02*
X219929842Y-27308552D01*
X176923646Y-43337623D02*
X176888786Y-43371867D01*
X22260711Y-69872299D02*
X22252942Y-69920900D01*
X113023746Y-137844643D02*
X113116181Y-137877071D01*
X30453761Y-28459444D02*
X30379534Y-28525285D01*
X176615370Y-43937376D02*
X176610186Y-43985883D01*
X269336734Y-69322943D02*
X269299612Y-69290022D01*
X229988978Y-109595063D02*
X230057721Y-109525676D01*
X269555588Y-92700942D02*
X269633868Y-92641753D01*
X25866068Y-50603686D02*
X25794344Y-50667445D01*
X262073804Y-29421026D02*
X262043557Y-29327117D01*
X176646362Y-137273112D02*
X176711987Y-137346163D01*
X265881111Y-50486831D02*
X265800820Y-50433838D01*
X72637797Y-26656222D02*
X72591831Y-26671069D01*
X230434334Y-108957069D02*
X230471809Y-108865618D01*
X52586505Y-26847303D02*
X52192523Y-28701015D01*
X155949603Y-59287265D02*
X151949603Y-59287265D01*
X149949572Y-71285434D02*
X145949603Y-71285399D01*
X269781927Y-92511560D02*
X269851382Y-92440703D01*
X149999159Y-71284207D02*
X149949572Y-71285434D01*
X230586872Y-107899546D02*
X230572128Y-107802992D01*
X177037476Y-43245781D02*
X176998061Y-43274526D01*
X22314912Y-69684531D02*
X22297966Y-69730316D01*
X140656558Y-59578173D02*
X140620608Y-59543977D01*
X95384806Y-31860074D02*
X95367800Y-31814980D01*
X196480593Y-32397362D02*
X196480593Y-32397362D01*
X94648402Y-31211313D02*
X94648402Y-31211313D01*
X239312655Y-26847300D02*
X239289633Y-26750802D01*
X219738994Y-26966344D02*
X219706736Y-26930389D01*
X262008890Y-29235344D02*
X261969931Y-29145826D01*
X238445620Y-25585764D02*
X238445620Y-25585764D01*
X61514209Y-107245185D02*
X61471361Y-107334693D01*
X27125138Y-50130338D02*
X27023365Y-50134517D01*
X44013228Y-93707253D02*
X44106924Y-93679847D01*
X151898208Y-59288563D02*
X151847487Y-59292415D01*
X115043617Y-43407821D02*
X115010418Y-43371851D01*
X71943103Y-27407483D02*
X71943103Y-27407483D01*
X115254167Y-43794047D02*
X115239617Y-43747311D01*
X127074427Y-118396346D02*
X128682116Y-112396346D01*
X269979072Y-92289450D02*
X270036821Y-92209744D01*
X260777086Y-28086664D02*
X260683118Y-28058482D01*
X53217772Y-25765005D02*
X53145888Y-25831798D01*
X268619601Y-69055033D02*
X267334750Y-69099917D01*
X94296847Y-37674814D02*
X95418597Y-32397368D01*
X269638131Y-69872298D02*
X269628013Y-69824279D01*
X269336734Y-69322943D02*
X269336734Y-69322943D01*
X246418441Y-92041560D02*
X246433973Y-92138751D01*
X219562258Y-26803822D02*
X219522650Y-26776736D01*
X140096883Y-59296335D02*
X140048035Y-59290287D01*
X246580630Y-92603985D02*
X246623246Y-92691758D01*
X265173229Y-50176919D02*
X265075767Y-50157960D01*
X247886202Y-93707303D02*
X247981236Y-93730125D01*
X238445620Y-25585764D02*
X238361108Y-25533811D01*
X25214270Y-51658939D02*
X25193257Y-51756753D01*
X115291830Y-44034582D02*
X115289014Y-43985854D01*
X196486923Y-31952794D02*
X196476544Y-32000285D01*
X264876289Y-50134563D02*
X264774532Y-50130367D01*
X45445149Y-92234766D02*
X45465379Y-92138745D01*
X176766645Y-43525558D02*
X176740786Y-43567889D01*
X222543032Y-91854468D02*
X222543032Y-91854468D01*
X197151907Y-31237616D02*
X197104277Y-31254241D01*
X262154177Y-29918351D02*
X262147984Y-29815586D01*
X132554705Y-50095433D02*
X114974765Y-45384867D01*
X246670119Y-92777396D02*
X246721175Y-92860737D01*
X62135750Y-109782087D02*
X62217312Y-109837216D01*
X44788543Y-93303135D02*
X44862757Y-93237296D01*
X31615691Y-27992209D02*
X31517647Y-28000906D01*
X268848637Y-93022962D02*
X268943344Y-92998125D01*
X22334060Y-69639653D02*
X22314912Y-69684531D01*
X29036982Y-50194493D02*
X27228083Y-50131324D01*
X140994568Y-70582799D02*
X140981092Y-70535347D01*
X54178355Y-25296602D02*
X54082886Y-25316714D01*
X151243140Y-59579510D02*
X151210033Y-59614169D01*
X95436452Y-32097156D02*
X95430735Y-32048440D01*
X61394252Y-108771666D02*
X61427269Y-108865249D01*
X264671603Y-50131333D02*
X262862216Y-50194493D01*
X150944709Y-70384251D02*
X150938643Y-70433089D01*
X239289633Y-26750802D02*
X239261986Y-26655976D01*
X141516071Y-71186795D02*
X141472953Y-71164713D01*
X23131247Y-69060787D02*
X23082637Y-69067515D01*
X133776217Y-51039557D02*
X133707395Y-50927194D01*
X268767596Y-69060783D02*
X268718570Y-69056440D01*
X140930200Y-60089363D02*
X140919427Y-60041605D01*
X266739703Y-52060307D02*
X266739703Y-52060307D01*
X25159602Y-52060336D02*
X24564463Y-69099917D01*
X133975222Y-51533719D02*
X133975222Y-51533719D01*
X25159602Y-52060336D02*
X25159602Y-52060336D01*
X29744601Y-29918353D02*
X29036982Y-50194493D01*
X61302364Y-107996489D02*
X61297094Y-108093940D01*
X21511073Y-91109676D02*
X21515244Y-91211439D01*
X177170873Y-137708016D02*
X177256857Y-137754620D01*
X150723127Y-70919203D02*
X150690891Y-70956620D01*
X23180274Y-69056444D02*
X23131247Y-69060787D01*
X177718814Y-137922713D02*
X177816101Y-137942532D01*
X219825312Y-27083788D02*
X219798357Y-27043092D01*
X269036563Y-92968736D02*
X269128133Y-92934870D01*
X95428024Y-32346764D02*
X95434805Y-32296287D01*
X269520023Y-69552936D02*
X269494489Y-69511261D01*
X26922893Y-50143739D02*
X26823853Y-50157884D01*
X141010290Y-70629262D02*
X140994568Y-70582799D01*
X52637176Y-26655979D02*
X52609528Y-26750805D01*
X113986232Y-137957972D02*
X114083928Y-137942981D01*
X44862757Y-93237296D02*
X44933619Y-93167861D01*
X196706910Y-31530026D02*
X196676131Y-31566918D01*
X31229187Y-28055361D02*
X31135478Y-28082759D01*
X54958659Y-25306828D02*
X54861140Y-25288611D01*
X44933619Y-93167861D02*
X45000666Y-93095323D01*
X22431940Y-69470819D02*
X22404351Y-69511264D01*
X176584226Y-137196695D02*
X176646362Y-137273112D01*
X176824116Y-43445478D02*
X176794445Y-43484737D01*
X179143923Y-137718393D02*
X179229312Y-137667739D01*
X219798357Y-27043092D02*
X219769559Y-27003928D01*
X269405705Y-69393936D02*
X269372173Y-69357663D01*
X247036624Y-93237349D02*
X247036624Y-93237349D01*
X150950995Y-60234042D02*
X150949603Y-60285434D01*
X219261442Y-26656213D02*
X219214676Y-26643576D01*
X54371719Y-25270443D02*
X54274691Y-25281167D01*
X177528204Y-137868874D02*
X177622634Y-137898095D01*
X132809048Y-50182236D02*
X132683853Y-50134738D01*
X270384721Y-91204662D02*
X270388610Y-91105950D01*
X94747335Y-31237624D02*
X94698465Y-31223286D01*
X72684562Y-26643585D02*
X72637797Y-26656222D01*
X135949603Y-59287265D02*
X133975222Y-51533719D01*
X133046355Y-50300567D02*
X132929984Y-50237615D01*
X113692270Y-137973814D02*
X113790228Y-137973359D01*
X71986036Y-27260923D02*
X71969411Y-27308551D01*
X196462752Y-32097144D02*
X196459436Y-32146363D01*
X132554705Y-50095433D02*
X132554705Y-50095433D01*
X262862216Y-50194493D02*
X262154177Y-29918351D01*
X44289652Y-93611539D02*
X44378351Y-93570762D01*
X151516543Y-59385644D02*
X151473461Y-59407678D01*
X29750519Y-29819310D02*
X29744601Y-29918353D01*
X150948374Y-70334994D02*
X150944709Y-70384251D01*
X265958671Y-50543533D02*
X265881111Y-50486831D01*
X163217089Y-112396346D02*
X163217089Y-112396346D01*
X114181185Y-137923087D02*
X114277335Y-137898396D01*
X176640902Y-44326733D02*
X176924441Y-45384867D01*
X53624651Y-25486314D02*
X53538047Y-25533815D01*
X268655406Y-93058688D02*
X268752604Y-93043175D01*
X239706683Y-28701015D02*
X239312655Y-26847300D01*
X151431616Y-59431704D02*
X151391071Y-59457658D01*
X115315101Y-137196304D02*
X115373542Y-137116594D01*
X21814304Y-92136073D02*
X21867279Y-92216379D01*
X30178435Y-28742749D02*
X30119228Y-28821015D01*
X95434805Y-32296287D02*
X95438991Y-32246014D01*
X178402802Y-137959467D02*
X178499446Y-137945570D01*
X30012996Y-28985244D02*
X29966118Y-29070885D01*
X53803425Y-25404795D02*
X53713168Y-25443296D01*
X69356166Y-91854468D02*
X61514209Y-107245185D01*
X53895246Y-25370843D02*
X53803425Y-25404795D01*
X269628013Y-69824279D02*
X269615582Y-69776925D01*
X141242508Y-70992522D02*
X141209396Y-70957794D01*
X61714294Y-109376910D02*
X61775874Y-109452622D01*
X113400675Y-137946583D02*
X113497318Y-137960397D01*
X26630588Y-50200456D02*
X26536623Y-50228640D01*
X44862757Y-93237296D02*
X44862757Y-93237296D01*
X229596744Y-109888808D02*
X229681275Y-109837601D01*
X72261812Y-26863567D02*
X72226391Y-26896119D01*
X141472953Y-71164713D02*
X141431077Y-71140635D01*
X25165793Y-51957572D02*
X25159602Y-52060336D01*
X176470996Y-137034179D02*
X176470996Y-137034179D01*
X71636073Y-28851722D02*
X71636073Y-28851722D01*
X52746861Y-26382988D02*
X52705943Y-26471924D01*
X262120515Y-29614763D02*
X262099500Y-29516948D01*
X139949168Y-59285434D02*
X135949603Y-59287265D01*
X132683853Y-50134738D02*
X132554705Y-50095433D01*
X72459472Y-26728380D02*
X72417448Y-26751579D01*
X112670657Y-137669425D02*
X112670657Y-137669425D01*
X140723020Y-59651530D02*
X140690769Y-59614109D01*
X177120368Y-43194170D02*
X177078268Y-43218978D01*
X140944707Y-60186545D02*
X140938638Y-60137704D01*
X229762879Y-109782488D02*
X229841442Y-109723604D01*
X29885206Y-29248411D02*
X29851319Y-29339973D01*
D11*
X135373714Y-110688380D02*
X135373714Y-110021714D01*
X135373714Y-110212190D02*
X135326095Y-110116952D01*
X135278476Y-110069333D01*
X135183238Y-110021714D01*
X135088000Y-110021714D01*
X134373714Y-110640761D02*
X134468952Y-110688380D01*
X134659428Y-110688380D01*
X134754666Y-110640761D01*
X134802285Y-110545523D01*
X134802285Y-110164571D01*
X134754666Y-110069333D01*
X134659428Y-110021714D01*
X134468952Y-110021714D01*
X134373714Y-110069333D01*
X134326095Y-110164571D01*
X134326095Y-110259809D01*
X134802285Y-110355047D01*
X133992761Y-110021714D02*
X133754666Y-110688380D01*
X133516571Y-110021714D01*
X132945142Y-109688380D02*
X132849904Y-109688380D01*
X132754666Y-109736000D01*
X132707047Y-109783619D01*
X132659428Y-109878857D01*
X132611809Y-110069333D01*
X132611809Y-110307428D01*
X132659428Y-110497904D01*
X132707047Y-110593142D01*
X132754666Y-110640761D01*
X132849904Y-110688380D01*
X132945142Y-110688380D01*
X133040380Y-110640761D01*
X133088000Y-110593142D01*
X133135619Y-110497904D01*
X133183238Y-110307428D01*
X133183238Y-110069333D01*
X133135619Y-109878857D01*
X133088000Y-109783619D01*
X133040380Y-109736000D01*
X132945142Y-109688380D01*
X132183238Y-110593142D02*
X132135619Y-110640761D01*
X132183238Y-110688380D01*
X132230857Y-110640761D01*
X132183238Y-110593142D01*
X132183238Y-110688380D01*
X131802285Y-109688380D02*
X131135619Y-109688380D01*
X131564190Y-110688380D01*
X130754666Y-110593142D02*
X130707047Y-110640761D01*
X130754666Y-110688380D01*
X130802285Y-110640761D01*
X130754666Y-110593142D01*
X130754666Y-110688380D01*
X129849904Y-109688380D02*
X130040380Y-109688380D01*
X130135619Y-109736000D01*
X130183238Y-109783619D01*
X130278476Y-109926476D01*
X130326095Y-110116952D01*
X130326095Y-110497904D01*
X130278476Y-110593142D01*
X130230857Y-110640761D01*
X130135619Y-110688380D01*
X129945142Y-110688380D01*
X129849904Y-110640761D01*
X129802285Y-110593142D01*
X129754666Y-110497904D01*
X129754666Y-110259809D01*
X129802285Y-110164571D01*
X129849904Y-110116952D01*
X129945142Y-110069333D01*
X130135619Y-110069333D01*
X130230857Y-110116952D01*
X130278476Y-110164571D01*
X130326095Y-110259809D01*
D12*
%TO.C,D11*%
X37561547Y-67885533D02*
X37589467Y-67086021D01*
X37399106Y-67079373D01*
X37283561Y-67113457D01*
X37204758Y-67186942D01*
X37164027Y-67261756D01*
X37120637Y-67412715D01*
X37116648Y-67526931D01*
X37149402Y-67680548D01*
X37184815Y-67758022D01*
X37258300Y-67836825D01*
X37371187Y-67878886D01*
X37561547Y-67885533D01*
X36343242Y-67842989D02*
X36800106Y-67858943D01*
X36571674Y-67850966D02*
X36599594Y-67051453D01*
X36671749Y-67168328D01*
X36745234Y-67247132D01*
X36820049Y-67287863D01*
X35581801Y-67816399D02*
X36038666Y-67832353D01*
X35810234Y-67824376D02*
X35838153Y-67024863D01*
X35910309Y-67141738D01*
X35983794Y-67220541D01*
X36058608Y-67261273D01*
%TO.C,D12*%
X58114880Y-63190174D02*
X58281209Y-62407656D01*
X58094895Y-62368054D01*
X57975187Y-62381555D01*
X57884820Y-62440240D01*
X57831716Y-62506845D01*
X57762772Y-62647976D01*
X57739011Y-62759764D01*
X57744592Y-62916735D01*
X57766013Y-62999181D01*
X57824698Y-63089548D01*
X57928566Y-63150572D01*
X58114880Y-63190174D01*
X56922471Y-62936720D02*
X57369624Y-63031765D01*
X57146048Y-62984243D02*
X57312377Y-62201724D01*
X57363141Y-62329354D01*
X57421826Y-62419720D01*
X57488431Y-62472824D01*
X56774858Y-62165364D02*
X56745515Y-62120181D01*
X56678910Y-62067077D01*
X56492596Y-62027475D01*
X56410150Y-62048897D01*
X56364967Y-62078239D01*
X56311864Y-62144844D01*
X56296023Y-62219369D01*
X56309524Y-62339078D01*
X56661632Y-62881277D01*
X56177216Y-62778311D01*
%TO.C,D21*%
X34615147Y-86833933D02*
X34643067Y-86034421D01*
X34452706Y-86027773D01*
X34337161Y-86061857D01*
X34258358Y-86135342D01*
X34217627Y-86210156D01*
X34174237Y-86361115D01*
X34170248Y-86475331D01*
X34203002Y-86628948D01*
X34238415Y-86706422D01*
X34311900Y-86785225D01*
X34424787Y-86827286D01*
X34615147Y-86833933D01*
X33878967Y-86083974D02*
X33842224Y-86044573D01*
X33767410Y-86003842D01*
X33577050Y-85997194D01*
X33499576Y-86032607D01*
X33460175Y-86069350D01*
X33419444Y-86144164D01*
X33416785Y-86220309D01*
X33450868Y-86335854D01*
X33891778Y-86808673D01*
X33396842Y-86791389D01*
X32635401Y-86764799D02*
X33092266Y-86780753D01*
X32863834Y-86772776D02*
X32891753Y-85973263D01*
X32963909Y-86090138D01*
X33037394Y-86168941D01*
X33112208Y-86209673D01*
D13*
%TO.C,D42*%
X189748346Y-100763277D02*
X189294355Y-99872270D01*
X189082211Y-99980363D01*
X188976543Y-100087648D01*
X188934922Y-100215743D01*
X188935730Y-100322219D01*
X188979776Y-100513553D01*
X189044632Y-100640840D01*
X189173535Y-100788937D01*
X189259201Y-100852176D01*
X189387296Y-100893797D01*
X189536201Y-100871370D01*
X189748346Y-100763277D01*
X188172819Y-100817830D02*
X188475479Y-101411835D01*
X188212015Y-100370306D02*
X188748438Y-100898646D01*
X188196862Y-101179688D01*
X187640437Y-100821872D02*
X187576390Y-100801061D01*
X187469913Y-100801870D01*
X187257769Y-100909963D01*
X187194530Y-100995629D01*
X187173719Y-101059676D01*
X187174528Y-101166153D01*
X187217765Y-101251010D01*
X187325050Y-101356678D01*
X188093619Y-101606402D01*
X187542044Y-101887444D01*
X192972095Y-101253114D02*
X193481241Y-100993691D01*
X193226668Y-101123403D02*
X192772678Y-100232396D01*
X192922391Y-100316446D01*
X193050486Y-100358066D01*
X193156963Y-100357258D01*
%TO.C,SW37*%
X133319780Y-70531219D02*
X132843590Y-70197885D01*
X133319780Y-69959790D02*
X132319780Y-69959790D01*
X132319780Y-70340742D01*
X132367400Y-70435980D01*
X132415019Y-70483600D01*
X132510257Y-70531219D01*
X132653114Y-70531219D01*
X132748352Y-70483600D01*
X132795971Y-70435980D01*
X132843590Y-70340742D01*
X132843590Y-69959790D01*
X132795971Y-70959790D02*
X132795971Y-71293123D01*
X133319780Y-71435980D02*
X133319780Y-70959790D01*
X132319780Y-70959790D01*
X132319780Y-71435980D01*
X133272161Y-71816933D02*
X133319780Y-71959790D01*
X133319780Y-72197885D01*
X133272161Y-72293123D01*
X133224542Y-72340742D01*
X133129304Y-72388361D01*
X133034066Y-72388361D01*
X132938828Y-72340742D01*
X132891209Y-72293123D01*
X132843590Y-72197885D01*
X132795971Y-72007409D01*
X132748352Y-71912171D01*
X132700733Y-71864552D01*
X132605495Y-71816933D01*
X132510257Y-71816933D01*
X132415019Y-71864552D01*
X132367400Y-71912171D01*
X132319780Y-72007409D01*
X132319780Y-72245504D01*
X132367400Y-72388361D01*
X132795971Y-72816933D02*
X132795971Y-73150266D01*
X133319780Y-73293123D02*
X133319780Y-72816933D01*
X132319780Y-72816933D01*
X132319780Y-73293123D01*
X132319780Y-73578838D02*
X132319780Y-74150266D01*
X133319780Y-73864552D02*
X132319780Y-73864552D01*
D12*
%TO.C,D3*%
X80830852Y-46016770D02*
X80997181Y-45234252D01*
X80810868Y-45194649D01*
X80691159Y-45208151D01*
X80600792Y-45266835D01*
X80547689Y-45333441D01*
X80478744Y-45474571D01*
X80454983Y-45586359D01*
X80460564Y-45743331D01*
X80481986Y-45825777D01*
X80540670Y-45916143D01*
X80644538Y-45977167D01*
X80830852Y-46016770D01*
X80289189Y-45083763D02*
X79804773Y-44980797D01*
X80002249Y-45334343D01*
X79890460Y-45310581D01*
X79808015Y-45332003D01*
X79762831Y-45361345D01*
X79709728Y-45427951D01*
X79670125Y-45614264D01*
X79691547Y-45696710D01*
X79720890Y-45741894D01*
X79787495Y-45794997D01*
X80011071Y-45842520D01*
X80093517Y-45821098D01*
X80138700Y-45791756D01*
%TO.C,D2*%
X61653852Y-44467370D02*
X61820181Y-43684852D01*
X61633868Y-43645249D01*
X61514159Y-43658751D01*
X61423792Y-43717435D01*
X61370689Y-43784041D01*
X61301744Y-43925171D01*
X61277983Y-44036959D01*
X61283564Y-44193931D01*
X61304986Y-44276377D01*
X61363670Y-44366743D01*
X61467538Y-44427767D01*
X61653852Y-44467370D01*
X61059085Y-43600968D02*
X61029743Y-43555785D01*
X60963138Y-43502681D01*
X60776824Y-43463079D01*
X60694378Y-43484501D01*
X60649195Y-43513843D01*
X60596091Y-43580448D01*
X60580250Y-43654974D01*
X60593752Y-43774683D01*
X60945860Y-44316881D01*
X60461444Y-44213915D01*
%TO.C,D17*%
X197394342Y-75450444D02*
X197187287Y-74677704D01*
X197003301Y-74727003D01*
X196902769Y-74793379D01*
X196848895Y-74886693D01*
X196831817Y-74970147D01*
X196834459Y-75127196D01*
X196864038Y-75237587D01*
X196940275Y-75374916D01*
X196996791Y-75438651D01*
X197090105Y-75492525D01*
X197210356Y-75499743D01*
X197394342Y-75450444D01*
X196216833Y-75765957D02*
X196658399Y-75647640D01*
X196437616Y-75706799D02*
X196230561Y-74934058D01*
X196333734Y-75024730D01*
X196427048Y-75078605D01*
X196510502Y-75095682D01*
X195752197Y-75062235D02*
X195237037Y-75200272D01*
X195775267Y-75884274D01*
%TO.C,D8*%
X212153893Y-45790636D02*
X211987563Y-45008118D01*
X211801249Y-45047720D01*
X211697382Y-45108744D01*
X211638697Y-45199111D01*
X211617275Y-45281557D01*
X211611694Y-45438528D01*
X211635455Y-45550316D01*
X211704400Y-45691447D01*
X211757504Y-45758052D01*
X211847870Y-45816737D01*
X211967579Y-45830238D01*
X212153893Y-45790636D01*
X211164541Y-45533573D02*
X211231146Y-45480470D01*
X211260488Y-45435287D01*
X211281910Y-45352841D01*
X211273990Y-45315578D01*
X211220886Y-45248973D01*
X211175703Y-45219630D01*
X211093257Y-45198208D01*
X210944206Y-45229890D01*
X210877601Y-45282994D01*
X210848258Y-45328177D01*
X210826837Y-45410623D01*
X210834757Y-45447886D01*
X210887861Y-45514491D01*
X210933044Y-45543833D01*
X211015490Y-45565255D01*
X211164541Y-45533573D01*
X211246987Y-45554995D01*
X211292170Y-45584338D01*
X211345274Y-45650943D01*
X211376956Y-45799994D01*
X211355534Y-45882440D01*
X211326191Y-45927623D01*
X211259586Y-45980727D01*
X211110535Y-46012408D01*
X211028089Y-45990986D01*
X210982906Y-45961644D01*
X210929802Y-45895039D01*
X210898121Y-45745988D01*
X210919542Y-45663542D01*
X210948885Y-45618359D01*
X211015490Y-45565255D01*
D13*
%TO.C,D45*%
X202751805Y-48280031D02*
X202543894Y-47301883D01*
X202311001Y-47351386D01*
X202181167Y-47427666D01*
X202107811Y-47540624D01*
X202081034Y-47643681D01*
X202074057Y-47839896D01*
X202103759Y-47979631D01*
X202189940Y-48156044D01*
X202256319Y-48239301D01*
X202369277Y-48312657D01*
X202518913Y-48329533D01*
X202751805Y-48280031D01*
X201215844Y-47924949D02*
X201354452Y-48577047D01*
X201369532Y-47502819D02*
X201750932Y-48151993D01*
X201145412Y-48280700D01*
X200168392Y-47806811D02*
X200634177Y-47707806D01*
X200779761Y-48163690D01*
X200723282Y-48127012D01*
X200620225Y-48100235D01*
X200387332Y-48149737D01*
X200304076Y-48216117D01*
X200267398Y-48272596D01*
X200240621Y-48375653D01*
X200290123Y-48608546D01*
X200356503Y-48691802D01*
X200412982Y-48728480D01*
X200516040Y-48755257D01*
X200748932Y-48705755D01*
X200832188Y-48639375D01*
X200868866Y-48582896D01*
X205981238Y-49834028D02*
X206540180Y-49715222D01*
X206260709Y-49774625D02*
X206052797Y-48796477D01*
X206175656Y-48916412D01*
X206288614Y-48989767D01*
X206391671Y-49016545D01*
D12*
%TO.C,D5*%
X118754341Y-64374695D02*
X118961396Y-63601954D01*
X118777410Y-63552656D01*
X118657159Y-63559873D01*
X118563845Y-63613748D01*
X118507328Y-63677483D01*
X118431092Y-63814812D01*
X118401513Y-63925203D01*
X118398871Y-64082252D01*
X118415948Y-64165706D01*
X118469823Y-64259020D01*
X118570355Y-64325396D01*
X118754341Y-64374695D01*
X117820684Y-63296302D02*
X118188655Y-63394899D01*
X118126855Y-63772731D01*
X118099917Y-63726074D01*
X118036183Y-63669557D01*
X117852197Y-63620258D01*
X117768743Y-63637336D01*
X117722086Y-63664273D01*
X117665569Y-63728008D01*
X117616270Y-63911994D01*
X117633348Y-63995448D01*
X117660285Y-64042105D01*
X117724020Y-64098621D01*
X117908006Y-64147920D01*
X117991460Y-64130843D01*
X118038117Y-64103905D01*
%TO.C,D1*%
X41778227Y-45698038D02*
X41806146Y-44898525D01*
X41615786Y-44891878D01*
X41500241Y-44925961D01*
X41421437Y-44999447D01*
X41380706Y-45074261D01*
X41337316Y-45225220D01*
X41333328Y-45339436D01*
X41366082Y-45493053D01*
X41401495Y-45570527D01*
X41474980Y-45649330D01*
X41587867Y-45691391D01*
X41778227Y-45698038D01*
X40559922Y-45655494D02*
X41016786Y-45671448D01*
X40788354Y-45663471D02*
X40816273Y-44863958D01*
X40888429Y-44980833D01*
X40961914Y-45059637D01*
X41036729Y-45100368D01*
D13*
%TO.C,D37*%
X91163695Y-48524959D02*
X91371607Y-47546811D01*
X91138714Y-47497309D01*
X90989078Y-47514185D01*
X90876120Y-47587541D01*
X90809741Y-47670798D01*
X90723560Y-47847211D01*
X90693858Y-47986946D01*
X90700835Y-48183161D01*
X90727612Y-48286218D01*
X90800968Y-48399176D01*
X90930803Y-48475456D01*
X91163695Y-48524959D01*
X90486616Y-47358701D02*
X89881096Y-47229994D01*
X90127941Y-47671925D01*
X89988205Y-47642224D01*
X89885148Y-47669001D01*
X89828669Y-47705679D01*
X89762289Y-47788935D01*
X89712786Y-48021827D01*
X89739564Y-48124885D01*
X89776242Y-48181364D01*
X89859498Y-48247743D01*
X90138969Y-48307147D01*
X90242026Y-48280369D01*
X90298505Y-48243692D01*
X89555047Y-47160690D02*
X88902948Y-47022082D01*
X89114243Y-48089335D01*
X93068444Y-51230889D02*
X93627386Y-51349695D01*
X93347915Y-51290292D02*
X93555827Y-50312144D01*
X93619282Y-50471681D01*
X93692638Y-50584639D01*
X93775894Y-50651018D01*
D12*
%TO.C,D33*%
X108425106Y-127286735D02*
X108860817Y-126615799D01*
X108701070Y-126512058D01*
X108584474Y-126481763D01*
X108479079Y-126504165D01*
X108405633Y-126547316D01*
X108290691Y-126654365D01*
X108228447Y-126750213D01*
X108177403Y-126898759D01*
X108167857Y-126983406D01*
X108190259Y-127088801D01*
X108265359Y-127182995D01*
X108425106Y-127286735D01*
X108253779Y-126221584D02*
X107838437Y-125951858D01*
X107896098Y-126352690D01*
X107800250Y-126290445D01*
X107715603Y-126280898D01*
X107662905Y-126292100D01*
X107589460Y-126335250D01*
X107485719Y-126494997D01*
X107476172Y-126579644D01*
X107487373Y-126632341D01*
X107530524Y-126705787D01*
X107722220Y-126830276D01*
X107806867Y-126839823D01*
X107859564Y-126828622D01*
X107614792Y-125806621D02*
X107199450Y-125536895D01*
X107257111Y-125937727D01*
X107161263Y-125875482D01*
X107076616Y-125865935D01*
X107023918Y-125877137D01*
X106950473Y-125920287D01*
X106846732Y-126080034D01*
X106837185Y-126164681D01*
X106848386Y-126217378D01*
X106891537Y-126290824D01*
X107083233Y-126415313D01*
X107167880Y-126424860D01*
X107220577Y-126413659D01*
%TO.C,D7*%
X193006371Y-56869042D02*
X192799315Y-56096302D01*
X192615329Y-56145600D01*
X192514798Y-56211977D01*
X192460923Y-56305291D01*
X192443845Y-56388745D01*
X192446487Y-56545793D01*
X192476066Y-56656185D01*
X192552303Y-56793514D01*
X192608819Y-56857248D01*
X192702133Y-56911123D01*
X192822385Y-56918341D01*
X193006371Y-56869042D01*
X192100169Y-56283637D02*
X191585009Y-56421674D01*
X192123238Y-57105677D01*
%TO.C,D15*%
X114202313Y-82883293D02*
X114409368Y-82110552D01*
X114225382Y-82061253D01*
X114105131Y-82068471D01*
X114011817Y-82122346D01*
X113955300Y-82186081D01*
X113879064Y-82323410D01*
X113849484Y-82433801D01*
X113846843Y-82590849D01*
X113863920Y-82674304D01*
X113917795Y-82767618D01*
X114018327Y-82833994D01*
X114202313Y-82883293D01*
X113024803Y-82567780D02*
X113466369Y-82686097D01*
X113245586Y-82626939D02*
X113452641Y-81854198D01*
X113496656Y-81984309D01*
X113550531Y-82077623D01*
X113614266Y-82134140D01*
X112532712Y-81607704D02*
X112900684Y-81706302D01*
X112838883Y-82084133D01*
X112811946Y-82037476D01*
X112748211Y-81980959D01*
X112564225Y-81931660D01*
X112480771Y-81948738D01*
X112434114Y-81975676D01*
X112377597Y-82039410D01*
X112328299Y-82223396D01*
X112345376Y-82306850D01*
X112372314Y-82353507D01*
X112436048Y-82410024D01*
X112620034Y-82459323D01*
X112703488Y-82442245D01*
X112750145Y-82415308D01*
%TO.C,D36*%
X218435437Y-108138849D02*
X218072245Y-107426043D01*
X217902529Y-107512518D01*
X217817995Y-107598346D01*
X217784698Y-107700822D01*
X217785345Y-107786003D01*
X217820581Y-107939070D01*
X217872466Y-108040899D01*
X217975588Y-108159377D01*
X218044121Y-108209968D01*
X218146597Y-108243265D01*
X218265721Y-108225323D01*
X218435437Y-108138849D01*
X217427326Y-107754646D02*
X216986065Y-107979479D01*
X217362026Y-108129960D01*
X217260197Y-108181845D01*
X217209605Y-108250378D01*
X217192957Y-108301616D01*
X217193604Y-108386797D01*
X217280078Y-108556512D01*
X217348611Y-108607104D01*
X217399849Y-108623752D01*
X217485030Y-108623105D01*
X217688689Y-108519336D01*
X217739280Y-108450803D01*
X217755928Y-108399565D01*
X216375089Y-108290787D02*
X216510862Y-108221608D01*
X216596043Y-108220961D01*
X216647281Y-108237609D01*
X216767052Y-108304849D01*
X216870174Y-108423326D01*
X217008533Y-108694871D01*
X217009180Y-108780052D01*
X216992532Y-108831290D01*
X216941940Y-108899823D01*
X216806168Y-108969003D01*
X216720987Y-108969649D01*
X216669749Y-108953001D01*
X216601216Y-108902410D01*
X216514742Y-108732694D01*
X216514095Y-108647513D01*
X216530743Y-108596275D01*
X216581335Y-108527742D01*
X216717107Y-108458563D01*
X216802288Y-108457916D01*
X216853526Y-108474564D01*
X216922059Y-108525156D01*
D13*
%TO.C,D44*%
X245077185Y-52581859D02*
X245042286Y-51582468D01*
X244804336Y-51590777D01*
X244663227Y-51643353D01*
X244571371Y-51741857D01*
X244527105Y-51838699D01*
X244486162Y-52030721D01*
X244491148Y-52173491D01*
X244545386Y-52362189D01*
X244596299Y-52455708D01*
X244694803Y-52547564D01*
X244839235Y-52590168D01*
X245077185Y-52581859D01*
X243626218Y-51965455D02*
X243649484Y-52631715D01*
X243850873Y-51576425D02*
X244113751Y-52281966D01*
X243495081Y-52303571D01*
X242674417Y-51998692D02*
X242697683Y-52664953D01*
X242899072Y-51609663D02*
X243161951Y-52315204D01*
X242543280Y-52336808D01*
X247791880Y-54388218D02*
X248362961Y-54368276D01*
X248077420Y-54378247D02*
X248042521Y-53378856D01*
X248142687Y-53518302D01*
X248241190Y-53610159D01*
X248338032Y-53654425D01*
D12*
%TO.C,D34*%
X185007485Y-126239400D02*
X184583550Y-125560962D01*
X184422017Y-125661899D01*
X184345284Y-125754768D01*
X184321046Y-125859756D01*
X184329114Y-125944556D01*
X184377557Y-126093970D01*
X184438119Y-126190890D01*
X184551175Y-126299929D01*
X184623857Y-126344355D01*
X184728845Y-126368593D01*
X184845952Y-126340337D01*
X185007485Y-126239400D01*
X183969724Y-125944523D02*
X183549739Y-126206959D01*
X183937384Y-126324100D01*
X183840464Y-126384662D01*
X183796038Y-126457343D01*
X183783919Y-126509837D01*
X183791987Y-126594638D01*
X183892924Y-126756171D01*
X183965606Y-126800597D01*
X184018100Y-126812716D01*
X184102900Y-126804648D01*
X184296740Y-126683523D01*
X184341166Y-126610842D01*
X184353285Y-126558348D01*
X183109532Y-126796478D02*
X183392155Y-127248770D01*
X183109565Y-126437088D02*
X183573909Y-126820750D01*
X183153924Y-127083187D01*
%TO.C,D22*%
X54152480Y-81833774D02*
X54318809Y-81051256D01*
X54132495Y-81011654D01*
X54012787Y-81025155D01*
X53922420Y-81083840D01*
X53869316Y-81150445D01*
X53800372Y-81291576D01*
X53776611Y-81403364D01*
X53782192Y-81560335D01*
X53803613Y-81642781D01*
X53862298Y-81733148D01*
X53966166Y-81794172D01*
X54152480Y-81833774D01*
X53557713Y-80967373D02*
X53528371Y-80922189D01*
X53461766Y-80869086D01*
X53275452Y-80829484D01*
X53193006Y-80850905D01*
X53147823Y-80880248D01*
X53094719Y-80946853D01*
X53078878Y-81021378D01*
X53092379Y-81141087D01*
X53444487Y-81683286D01*
X52960071Y-81580320D01*
X52812458Y-80808964D02*
X52783115Y-80763781D01*
X52716510Y-80710677D01*
X52530196Y-80671075D01*
X52447750Y-80692497D01*
X52402567Y-80721839D01*
X52349464Y-80788444D01*
X52333623Y-80862969D01*
X52347124Y-80982678D01*
X52699232Y-81524877D01*
X52214816Y-81421911D01*
%TO.C,D10*%
X251628726Y-45668928D02*
X251600806Y-44869416D01*
X251410446Y-44876063D01*
X251297559Y-44918124D01*
X251224074Y-44996927D01*
X251188661Y-45074400D01*
X251155907Y-45228018D01*
X251159896Y-45342234D01*
X251203286Y-45493193D01*
X251244017Y-45568007D01*
X251322820Y-45641492D01*
X251438365Y-45675576D01*
X251628726Y-45668928D01*
X250410421Y-45711473D02*
X250867285Y-45695519D01*
X250638853Y-45703496D02*
X250610933Y-44903983D01*
X250691066Y-45015540D01*
X250769869Y-45089025D01*
X250847342Y-45124438D01*
X249887565Y-44929243D02*
X249811421Y-44931902D01*
X249736606Y-44972634D01*
X249699863Y-45012035D01*
X249664450Y-45089509D01*
X249631696Y-45243126D01*
X249638344Y-45433486D01*
X249681734Y-45584445D01*
X249722465Y-45659260D01*
X249761867Y-45696002D01*
X249839340Y-45731415D01*
X249915484Y-45728756D01*
X249990299Y-45688025D01*
X250027041Y-45648624D01*
X250062454Y-45571150D01*
X250095208Y-45417532D01*
X250088561Y-45227172D01*
X250045171Y-45076214D01*
X250004440Y-45001399D01*
X249965038Y-44964657D01*
X249887565Y-44929243D01*
%TO.C,D29*%
X239596520Y-81461431D02*
X239430191Y-80678913D01*
X239243877Y-80718516D01*
X239140009Y-80779540D01*
X239081325Y-80869906D01*
X239059903Y-80952352D01*
X239054322Y-81109324D01*
X239078083Y-81221112D01*
X239147028Y-81362242D01*
X239200131Y-81428848D01*
X239290498Y-81487532D01*
X239410206Y-81501034D01*
X239596520Y-81461431D01*
X238700776Y-80911848D02*
X238655593Y-80882505D01*
X238573147Y-80861084D01*
X238386833Y-80900686D01*
X238320228Y-80953789D01*
X238290886Y-80998973D01*
X238269464Y-81081419D01*
X238285305Y-81155944D01*
X238346329Y-81259812D01*
X238888528Y-81611920D01*
X238404112Y-81714886D01*
X238031484Y-81794090D02*
X237882433Y-81825772D01*
X237799987Y-81804350D01*
X237754804Y-81775008D01*
X237656517Y-81679060D01*
X237587572Y-81537930D01*
X237524209Y-81239828D01*
X237545631Y-81157382D01*
X237574973Y-81112198D01*
X237641578Y-81059095D01*
X237790629Y-81027413D01*
X237873075Y-81048835D01*
X237918258Y-81078177D01*
X237971362Y-81144782D01*
X238010964Y-81331096D01*
X237989542Y-81413542D01*
X237960200Y-81458725D01*
X237893595Y-81511829D01*
X237744544Y-81543511D01*
X237662098Y-81522089D01*
X237616915Y-81492746D01*
X237563811Y-81426141D01*
%TO.C,D16*%
X179544342Y-82400444D02*
X179337287Y-81627704D01*
X179153301Y-81677003D01*
X179052769Y-81743379D01*
X178998895Y-81836693D01*
X178981817Y-81920147D01*
X178984459Y-82077196D01*
X179014038Y-82187587D01*
X179090275Y-82324916D01*
X179146791Y-82388651D01*
X179240105Y-82442525D01*
X179360356Y-82449743D01*
X179544342Y-82400444D01*
X178366833Y-82715957D02*
X178808399Y-82597640D01*
X178587616Y-82656799D02*
X178380561Y-81884058D01*
X178483734Y-81974730D01*
X178577048Y-82028605D01*
X178660502Y-82045682D01*
X177497428Y-82120692D02*
X177644617Y-82081253D01*
X177728071Y-82098331D01*
X177774728Y-82125268D01*
X177877902Y-82215940D01*
X177954138Y-82353269D01*
X178033016Y-82647647D01*
X178015939Y-82731101D01*
X177989001Y-82777758D01*
X177925267Y-82834274D01*
X177778078Y-82873714D01*
X177694624Y-82856636D01*
X177647967Y-82829699D01*
X177591450Y-82765964D01*
X177542151Y-82581978D01*
X177559229Y-82498524D01*
X177586166Y-82451867D01*
X177649901Y-82395350D01*
X177797090Y-82355911D01*
X177880544Y-82372989D01*
X177927201Y-82399926D01*
X177983717Y-82463661D01*
%TO.C,D28*%
X220486520Y-82971431D02*
X220320191Y-82188913D01*
X220133877Y-82228516D01*
X220030009Y-82289540D01*
X219971325Y-82379906D01*
X219949903Y-82462352D01*
X219944322Y-82619324D01*
X219968083Y-82731112D01*
X220037028Y-82872242D01*
X220090131Y-82938848D01*
X220180498Y-82997532D01*
X220300206Y-83011034D01*
X220486520Y-82971431D01*
X219590776Y-82421848D02*
X219545593Y-82392505D01*
X219463147Y-82371084D01*
X219276833Y-82410686D01*
X219210228Y-82463789D01*
X219180886Y-82508973D01*
X219159464Y-82591419D01*
X219175305Y-82665944D01*
X219236329Y-82769812D01*
X219778528Y-83121920D01*
X219294112Y-83224886D01*
X218751913Y-82872778D02*
X218818518Y-82819674D01*
X218847861Y-82774491D01*
X218869283Y-82692045D01*
X218861362Y-82654782D01*
X218808258Y-82588177D01*
X218763075Y-82558835D01*
X218680629Y-82537413D01*
X218531578Y-82569095D01*
X218464973Y-82622198D01*
X218435631Y-82667382D01*
X218414209Y-82749828D01*
X218422129Y-82787090D01*
X218475233Y-82853695D01*
X218520416Y-82883038D01*
X218602862Y-82904460D01*
X218751913Y-82872778D01*
X218834359Y-82894200D01*
X218879542Y-82923542D01*
X218932646Y-82990147D01*
X218964328Y-83139198D01*
X218942906Y-83221644D01*
X218913564Y-83266827D01*
X218846959Y-83319931D01*
X218697908Y-83351613D01*
X218615462Y-83330191D01*
X218570278Y-83300849D01*
X218517175Y-83234244D01*
X218485493Y-83085192D01*
X218506915Y-83002746D01*
X218536257Y-82957563D01*
X218602862Y-82904460D01*
%TO.C,D30*%
X259172526Y-86766128D02*
X259144606Y-85966616D01*
X258954246Y-85973263D01*
X258841359Y-86015324D01*
X258767874Y-86094127D01*
X258732461Y-86171600D01*
X258699707Y-86325218D01*
X258703696Y-86439434D01*
X258747086Y-86590393D01*
X258787817Y-86665207D01*
X258866620Y-86738692D01*
X258982165Y-86772776D01*
X259172526Y-86766128D01*
X258421237Y-85991876D02*
X257926301Y-86009160D01*
X258203441Y-86304430D01*
X258089225Y-86308418D01*
X258014411Y-86349149D01*
X257977668Y-86388551D01*
X257942255Y-86466024D01*
X257948903Y-86656384D01*
X257989634Y-86731199D01*
X258029035Y-86767942D01*
X258106509Y-86803355D01*
X258334941Y-86795378D01*
X258409755Y-86754646D01*
X258446498Y-86715245D01*
X257431365Y-86026443D02*
X257355221Y-86029102D01*
X257280406Y-86069834D01*
X257243663Y-86109235D01*
X257208250Y-86186709D01*
X257175496Y-86340326D01*
X257182144Y-86530686D01*
X257225534Y-86681645D01*
X257266265Y-86756460D01*
X257305667Y-86793202D01*
X257383140Y-86828615D01*
X257459284Y-86825956D01*
X257534099Y-86785225D01*
X257570841Y-86745824D01*
X257606254Y-86668350D01*
X257639008Y-86514732D01*
X257632361Y-86324372D01*
X257588971Y-86173414D01*
X257548240Y-86098599D01*
X257508838Y-86061857D01*
X257431365Y-86026443D01*
D13*
%TO.C,D40*%
X104245526Y-102065825D02*
X104699517Y-101174819D01*
X104487372Y-101066726D01*
X104338467Y-101044299D01*
X104210372Y-101085919D01*
X104124706Y-101149158D01*
X103995803Y-101297255D01*
X103930947Y-101424542D01*
X103886902Y-101615876D01*
X103886093Y-101722352D01*
X103927714Y-101850447D01*
X104033382Y-101957732D01*
X104245526Y-102065825D01*
X103275320Y-100823263D02*
X102972660Y-101417267D01*
X103660413Y-100591925D02*
X103548279Y-101336451D01*
X102996703Y-101055409D01*
X102790217Y-100201982D02*
X102705359Y-100158745D01*
X102598883Y-100157936D01*
X102534836Y-100178747D01*
X102449169Y-100241986D01*
X102320266Y-100390083D01*
X102212173Y-100602227D01*
X102168128Y-100793561D01*
X102167319Y-100900038D01*
X102188130Y-100964085D01*
X102251369Y-101049751D01*
X102336227Y-101092988D01*
X102442703Y-101093797D01*
X102506750Y-101072986D01*
X102592417Y-101009747D01*
X102721320Y-100861650D01*
X102829413Y-100649506D01*
X102873458Y-100458172D01*
X102874267Y-100351695D01*
X102853456Y-100287648D01*
X102790217Y-100201982D01*
X105744112Y-104961812D02*
X106253258Y-105221235D01*
X105998685Y-105091524D02*
X106452675Y-104200517D01*
X106472677Y-104371041D01*
X106514298Y-104499136D01*
X106577537Y-104584802D01*
%TO.C,D38*%
X49139906Y-59256615D02*
X49174805Y-58257224D01*
X48936855Y-58248915D01*
X48792423Y-58291519D01*
X48693919Y-58383375D01*
X48643005Y-58476894D01*
X48588768Y-58665592D01*
X48583782Y-58808362D01*
X48624725Y-59000384D01*
X48668991Y-59097226D01*
X48760847Y-59195730D01*
X48901955Y-59248305D01*
X49139906Y-59256615D01*
X48270594Y-58225648D02*
X47651924Y-58204044D01*
X47971759Y-58596397D01*
X47828989Y-58591412D01*
X47732147Y-58635678D01*
X47682895Y-58681606D01*
X47631981Y-58775124D01*
X47623672Y-59013074D01*
X47667938Y-59109916D01*
X47713866Y-59159168D01*
X47807385Y-59210082D01*
X48092925Y-59220053D01*
X48189767Y-59175787D01*
X48239019Y-59129859D01*
X47065886Y-58612412D02*
X47162728Y-58568145D01*
X47211980Y-58522217D01*
X47262894Y-58428699D01*
X47264556Y-58381109D01*
X47220290Y-58284267D01*
X47174362Y-58235015D01*
X47080843Y-58184101D01*
X46890483Y-58177454D01*
X46793641Y-58221720D01*
X46744389Y-58267648D01*
X46693476Y-58361166D01*
X46691814Y-58408756D01*
X46736080Y-58505598D01*
X46782008Y-58554850D01*
X46875526Y-58605764D01*
X47065886Y-58612412D01*
X47159405Y-58663325D01*
X47205333Y-58712577D01*
X47249599Y-58809419D01*
X47242952Y-58999779D01*
X47192038Y-59093298D01*
X47142786Y-59139226D01*
X47045944Y-59183492D01*
X46855584Y-59176845D01*
X46762066Y-59125931D01*
X46716137Y-59076679D01*
X46671871Y-58979837D01*
X46678519Y-58789477D01*
X46729432Y-58695959D01*
X46778684Y-58650030D01*
X46875526Y-58605764D01*
X51721982Y-61247942D02*
X52293063Y-61267884D01*
X52007523Y-61257913D02*
X52042422Y-60258522D01*
X52132617Y-60404616D01*
X52224473Y-60503120D01*
X52317991Y-60554034D01*
D12*
%TO.C,D13*%
X77266480Y-64739574D02*
X77432809Y-63957056D01*
X77246495Y-63917454D01*
X77126787Y-63930955D01*
X77036420Y-63989640D01*
X76983316Y-64056245D01*
X76914372Y-64197376D01*
X76890611Y-64309164D01*
X76896192Y-64466135D01*
X76917613Y-64548581D01*
X76976298Y-64638948D01*
X77080166Y-64699972D01*
X77266480Y-64739574D01*
X76074071Y-64486120D02*
X76521224Y-64581165D01*
X76297648Y-64533643D02*
X76463977Y-63751124D01*
X76514741Y-63878754D01*
X76573426Y-63969120D01*
X76640031Y-64022224D01*
X75979561Y-63648159D02*
X75495145Y-63545193D01*
X75692621Y-63898738D01*
X75580833Y-63874977D01*
X75498387Y-63896399D01*
X75453204Y-63925741D01*
X75400100Y-63992346D01*
X75360498Y-64178660D01*
X75381920Y-64261106D01*
X75411262Y-64306289D01*
X75477867Y-64359393D01*
X75701444Y-64406915D01*
X75783890Y-64385494D01*
X75829073Y-64356151D01*
%TO.C,D23*%
X73278680Y-83383174D02*
X73445009Y-82600656D01*
X73258695Y-82561054D01*
X73138987Y-82574555D01*
X73048620Y-82633240D01*
X72995516Y-82699845D01*
X72926572Y-82840976D01*
X72902811Y-82952764D01*
X72908392Y-83109735D01*
X72929813Y-83192181D01*
X72988498Y-83282548D01*
X73092366Y-83343572D01*
X73278680Y-83383174D01*
X72683913Y-82516773D02*
X72654571Y-82471589D01*
X72587966Y-82418486D01*
X72401652Y-82378884D01*
X72319206Y-82400305D01*
X72274023Y-82429648D01*
X72220919Y-82496253D01*
X72205078Y-82570778D01*
X72218579Y-82690487D01*
X72570687Y-83232686D01*
X72086271Y-83129720D01*
X71991761Y-82291759D02*
X71507345Y-82188793D01*
X71704821Y-82542338D01*
X71593033Y-82518577D01*
X71510587Y-82539999D01*
X71465404Y-82569341D01*
X71412300Y-82635946D01*
X71372698Y-82822260D01*
X71394120Y-82904706D01*
X71423462Y-82949889D01*
X71490067Y-83002993D01*
X71713644Y-83050515D01*
X71796090Y-83029094D01*
X71841273Y-82999751D01*
%TO.C,D9*%
X231313893Y-44250636D02*
X231147563Y-43468118D01*
X230961249Y-43507720D01*
X230857382Y-43568744D01*
X230798697Y-43659111D01*
X230777275Y-43741557D01*
X230771694Y-43898528D01*
X230795455Y-44010316D01*
X230864400Y-44151447D01*
X230917504Y-44218052D01*
X231007870Y-44276737D01*
X231127579Y-44290238D01*
X231313893Y-44250636D01*
X230494112Y-44424886D02*
X230345061Y-44456567D01*
X230262615Y-44435146D01*
X230217432Y-44405803D01*
X230119145Y-44309856D01*
X230050200Y-44168725D01*
X229986837Y-43870623D01*
X230008258Y-43788177D01*
X230037601Y-43742994D01*
X230104206Y-43689890D01*
X230253257Y-43658208D01*
X230335703Y-43679630D01*
X230380886Y-43708973D01*
X230433990Y-43775578D01*
X230473592Y-43961892D01*
X230452170Y-44044338D01*
X230422828Y-44089521D01*
X230356223Y-44142624D01*
X230207172Y-44174306D01*
X230124726Y-44152884D01*
X230079542Y-44123542D01*
X230026439Y-44056937D01*
%TO.C,D27*%
X201784342Y-93950444D02*
X201577287Y-93177704D01*
X201393301Y-93227003D01*
X201292769Y-93293379D01*
X201238895Y-93386693D01*
X201221817Y-93470147D01*
X201224459Y-93627196D01*
X201254038Y-93737587D01*
X201330275Y-93874916D01*
X201386791Y-93938651D01*
X201480105Y-93992525D01*
X201600356Y-93999743D01*
X201784342Y-93950444D01*
X200861063Y-93448494D02*
X200814406Y-93421556D01*
X200730952Y-93404479D01*
X200546966Y-93453777D01*
X200483232Y-93510294D01*
X200456294Y-93556951D01*
X200439217Y-93640405D01*
X200458936Y-93714000D01*
X200525313Y-93814531D01*
X201085196Y-94137780D01*
X200606833Y-94265957D01*
X200142197Y-93562235D02*
X199627037Y-93700272D01*
X200165267Y-94384274D01*
%TO.C,D18*%
X216486520Y-64321431D02*
X216320191Y-63538913D01*
X216133877Y-63578516D01*
X216030009Y-63639540D01*
X215971325Y-63729906D01*
X215949903Y-63812352D01*
X215944322Y-63969324D01*
X215968083Y-64081112D01*
X216037028Y-64222242D01*
X216090131Y-64288848D01*
X216180498Y-64347532D01*
X216300206Y-64361034D01*
X216486520Y-64321431D01*
X215294112Y-64574886D02*
X215741265Y-64479840D01*
X215517688Y-64527363D02*
X215351359Y-63744845D01*
X215449646Y-63840792D01*
X215540012Y-63899477D01*
X215622458Y-63920899D01*
X214751913Y-64222778D02*
X214818518Y-64169674D01*
X214847861Y-64124491D01*
X214869283Y-64042045D01*
X214861362Y-64004782D01*
X214808258Y-63938177D01*
X214763075Y-63908835D01*
X214680629Y-63887413D01*
X214531578Y-63919095D01*
X214464973Y-63972198D01*
X214435631Y-64017382D01*
X214414209Y-64099828D01*
X214422129Y-64137090D01*
X214475233Y-64203695D01*
X214520416Y-64233038D01*
X214602862Y-64254460D01*
X214751913Y-64222778D01*
X214834359Y-64244200D01*
X214879542Y-64273542D01*
X214932646Y-64340147D01*
X214964328Y-64489198D01*
X214942906Y-64571644D01*
X214913564Y-64616827D01*
X214846959Y-64669931D01*
X214697908Y-64701613D01*
X214615462Y-64680191D01*
X214570278Y-64650849D01*
X214517175Y-64584244D01*
X214485493Y-64435192D01*
X214506915Y-64352746D01*
X214536257Y-64307563D01*
X214602862Y-64254460D01*
%TO.C,D19*%
X235666520Y-62791431D02*
X235500191Y-62008913D01*
X235313877Y-62048516D01*
X235210009Y-62109540D01*
X235151325Y-62199906D01*
X235129903Y-62282352D01*
X235124322Y-62439324D01*
X235148083Y-62551112D01*
X235217028Y-62692242D01*
X235270131Y-62758848D01*
X235360498Y-62817532D01*
X235480206Y-62831034D01*
X235666520Y-62791431D01*
X234474112Y-63044886D02*
X234921265Y-62949840D01*
X234697688Y-62997363D02*
X234531359Y-62214845D01*
X234629646Y-62310792D01*
X234720012Y-62369477D01*
X234802458Y-62390899D01*
X234101484Y-63124090D02*
X233952433Y-63155772D01*
X233869987Y-63134350D01*
X233824804Y-63105008D01*
X233726517Y-63009060D01*
X233657572Y-62867930D01*
X233594209Y-62569828D01*
X233615631Y-62487382D01*
X233644973Y-62442198D01*
X233711578Y-62389095D01*
X233860629Y-62357413D01*
X233943075Y-62378835D01*
X233988258Y-62408177D01*
X234041362Y-62474782D01*
X234080964Y-62661096D01*
X234059542Y-62743542D01*
X234030200Y-62788725D01*
X233963595Y-62841829D01*
X233814544Y-62873511D01*
X233732098Y-62852089D01*
X233686915Y-62822746D01*
X233633811Y-62756141D01*
%TO.C,D31*%
X75135660Y-108980887D02*
X75498853Y-108268082D01*
X75329137Y-108181608D01*
X75210013Y-108163666D01*
X75107537Y-108196963D01*
X75039004Y-108247554D01*
X74935882Y-108366032D01*
X74883997Y-108467861D01*
X74848761Y-108620928D01*
X74848114Y-108706109D01*
X74881410Y-108808585D01*
X74965945Y-108894413D01*
X75135660Y-108980887D01*
X74853934Y-107939479D02*
X74412673Y-107714646D01*
X74511916Y-108107255D01*
X74410087Y-108055370D01*
X74324906Y-108054724D01*
X74273668Y-108071372D01*
X74205135Y-108121963D01*
X74118660Y-108291679D01*
X74118014Y-108376860D01*
X74134662Y-108428098D01*
X74185253Y-108496631D01*
X74388912Y-108600400D01*
X74474093Y-108601047D01*
X74525331Y-108584398D01*
X73370619Y-108081554D02*
X73777936Y-108289092D01*
X73574278Y-108185323D02*
X73937470Y-107472518D01*
X73953471Y-107608937D01*
X73986768Y-107711413D01*
X74037359Y-107779946D01*
%TO.C,D25*%
X109822313Y-101413293D02*
X110029368Y-100640552D01*
X109845382Y-100591253D01*
X109725131Y-100598471D01*
X109631817Y-100652346D01*
X109575300Y-100716081D01*
X109499064Y-100853410D01*
X109469484Y-100963801D01*
X109466843Y-101120849D01*
X109483920Y-101204304D01*
X109537795Y-101297618D01*
X109638327Y-101363994D01*
X109822313Y-101413293D01*
X109273705Y-100516951D02*
X109246767Y-100470294D01*
X109183033Y-100413777D01*
X108999047Y-100364479D01*
X108915593Y-100381556D01*
X108868936Y-100408494D01*
X108812419Y-100472228D01*
X108792700Y-100545823D01*
X108799917Y-100666074D01*
X109123166Y-101225957D01*
X108644803Y-101097780D01*
X108152712Y-100137704D02*
X108520684Y-100236302D01*
X108458883Y-100614133D01*
X108431946Y-100567476D01*
X108368211Y-100510959D01*
X108184225Y-100461660D01*
X108100771Y-100478738D01*
X108054114Y-100505676D01*
X107997597Y-100569410D01*
X107948299Y-100753396D01*
X107965376Y-100836850D01*
X107992314Y-100883507D01*
X108056048Y-100940024D01*
X108240034Y-100989323D01*
X108323488Y-100972245D01*
X108370145Y-100945308D01*
%TO.C,D24*%
X91962313Y-94473293D02*
X92169368Y-93700552D01*
X91985382Y-93651253D01*
X91865131Y-93658471D01*
X91771817Y-93712346D01*
X91715300Y-93776081D01*
X91639064Y-93913410D01*
X91609484Y-94023801D01*
X91606843Y-94180849D01*
X91623920Y-94264304D01*
X91677795Y-94357618D01*
X91778327Y-94423994D01*
X91962313Y-94473293D01*
X91413705Y-93576951D02*
X91386767Y-93530294D01*
X91323033Y-93473777D01*
X91139047Y-93424479D01*
X91055593Y-93441556D01*
X91008936Y-93468494D01*
X90952419Y-93532228D01*
X90932700Y-93605823D01*
X90939917Y-93726074D01*
X91263166Y-94285957D01*
X90784803Y-94157780D01*
X90260491Y-93465144D02*
X90122454Y-93980304D01*
X90523355Y-93220065D02*
X90559444Y-93821322D01*
X90081081Y-93693145D01*
D13*
%TO.C,D39*%
X77583695Y-84784960D02*
X77791607Y-83806812D01*
X77558714Y-83757310D01*
X77409078Y-83774186D01*
X77296120Y-83847542D01*
X77229741Y-83930799D01*
X77143560Y-84107212D01*
X77113858Y-84246947D01*
X77120835Y-84443162D01*
X77147612Y-84546219D01*
X77220968Y-84659177D01*
X77350803Y-84735457D01*
X77583695Y-84784960D01*
X76906616Y-83618702D02*
X76301096Y-83489995D01*
X76547941Y-83931926D01*
X76408205Y-83902225D01*
X76305148Y-83929002D01*
X76248669Y-83965680D01*
X76182289Y-84048936D01*
X76132786Y-84281828D01*
X76159564Y-84384886D01*
X76196242Y-84441365D01*
X76279498Y-84507744D01*
X76558969Y-84567148D01*
X76662026Y-84540370D01*
X76718505Y-84503693D01*
X75627400Y-84369137D02*
X75441086Y-84329534D01*
X75357829Y-84263155D01*
X75321152Y-84206676D01*
X75257696Y-84047139D01*
X75250720Y-83850925D01*
X75329925Y-83478297D01*
X75396304Y-83395041D01*
X75452783Y-83358363D01*
X75555841Y-83331586D01*
X75742154Y-83371188D01*
X75825411Y-83437568D01*
X75862089Y-83494047D01*
X75888866Y-83597104D01*
X75839363Y-83829996D01*
X75772984Y-83913253D01*
X75716505Y-83949931D01*
X75613447Y-83976708D01*
X75427133Y-83937106D01*
X75343877Y-83870726D01*
X75307199Y-83814247D01*
X75280422Y-83711190D01*
X77768444Y-86910889D02*
X78327386Y-87029695D01*
X78047915Y-86970292D02*
X78255827Y-85992144D01*
X78319282Y-86151681D01*
X78392638Y-86264639D01*
X78475894Y-86331018D01*
D12*
%TO.C,D26*%
X183924342Y-100930444D02*
X183717287Y-100157704D01*
X183533301Y-100207003D01*
X183432769Y-100273379D01*
X183378895Y-100366693D01*
X183361817Y-100450147D01*
X183364459Y-100607196D01*
X183394038Y-100717587D01*
X183470275Y-100854916D01*
X183526791Y-100918651D01*
X183620105Y-100972525D01*
X183740356Y-100979743D01*
X183924342Y-100930444D01*
X183001063Y-100428494D02*
X182954406Y-100401556D01*
X182870952Y-100384479D01*
X182686966Y-100433777D01*
X182623232Y-100490294D01*
X182596294Y-100536951D01*
X182579217Y-100620405D01*
X182598936Y-100694000D01*
X182665313Y-100794531D01*
X183225196Y-101117780D01*
X182746833Y-101245957D01*
X181877428Y-100650692D02*
X182024617Y-100611253D01*
X182108071Y-100628331D01*
X182154728Y-100655268D01*
X182257902Y-100745940D01*
X182334138Y-100883269D01*
X182413016Y-101177647D01*
X182395939Y-101261101D01*
X182369001Y-101307758D01*
X182305267Y-101364274D01*
X182158078Y-101403714D01*
X182074624Y-101386636D01*
X182027967Y-101359699D01*
X181971450Y-101295964D01*
X181922151Y-101111978D01*
X181939229Y-101028524D01*
X181966166Y-100981867D01*
X182029901Y-100925350D01*
X182177090Y-100885911D01*
X182260544Y-100902989D01*
X182307201Y-100929926D01*
X182363717Y-100993661D01*
D13*
%TO.C,U1*%
D12*
%TO.C,D20*%
X256226126Y-67817728D02*
X256198206Y-67018216D01*
X256007846Y-67024863D01*
X255894959Y-67066924D01*
X255821474Y-67145727D01*
X255786061Y-67223200D01*
X255753307Y-67376818D01*
X255757296Y-67491034D01*
X255800686Y-67641993D01*
X255841417Y-67716807D01*
X255920220Y-67790292D01*
X256035765Y-67824376D01*
X256226126Y-67817728D01*
X255439424Y-67120950D02*
X255400023Y-67084207D01*
X255322549Y-67048794D01*
X255132189Y-67055442D01*
X255057375Y-67096173D01*
X255020632Y-67135574D01*
X254985219Y-67213048D01*
X254987878Y-67289192D01*
X255029939Y-67402079D01*
X255502757Y-67842989D01*
X255007821Y-67860273D01*
X254484965Y-67078043D02*
X254408821Y-67080702D01*
X254334006Y-67121434D01*
X254297263Y-67160835D01*
X254261850Y-67238309D01*
X254229096Y-67391926D01*
X254235744Y-67582286D01*
X254279134Y-67733245D01*
X254319865Y-67808060D01*
X254359267Y-67844802D01*
X254436740Y-67880215D01*
X254512884Y-67877556D01*
X254587699Y-67836825D01*
X254624441Y-67797424D01*
X254659854Y-67719950D01*
X254692608Y-67566332D01*
X254685961Y-67375972D01*
X254642571Y-67225014D01*
X254601840Y-67150199D01*
X254562438Y-67113457D01*
X254484965Y-67078043D01*
%TO.C,D4*%
X99994341Y-57184695D02*
X100201396Y-56411954D01*
X100017410Y-56362656D01*
X99897159Y-56369873D01*
X99803845Y-56423748D01*
X99747328Y-56487483D01*
X99671092Y-56624812D01*
X99641513Y-56735203D01*
X99638871Y-56892252D01*
X99655948Y-56975706D01*
X99709823Y-57069020D01*
X99810355Y-57135396D01*
X99994341Y-57184695D01*
X99028462Y-56373742D02*
X98890426Y-56888902D01*
X99291327Y-56128663D02*
X99327416Y-56729919D01*
X98849053Y-56601742D01*
%TO.C,D6*%
X174246371Y-64079042D02*
X174039315Y-63306302D01*
X173855329Y-63355600D01*
X173754798Y-63421977D01*
X173700923Y-63515291D01*
X173683845Y-63598745D01*
X173686487Y-63755793D01*
X173716066Y-63866185D01*
X173792303Y-64003514D01*
X173848819Y-64067248D01*
X173942133Y-64121123D01*
X174062385Y-64128341D01*
X174246371Y-64079042D01*
X172935400Y-63602095D02*
X173082589Y-63562656D01*
X173166043Y-63579733D01*
X173212700Y-63606671D01*
X173315874Y-63697343D01*
X173392110Y-63834672D01*
X173470988Y-64129049D01*
X173453910Y-64212503D01*
X173426973Y-64259160D01*
X173363238Y-64315677D01*
X173216050Y-64355116D01*
X173132596Y-64338038D01*
X173085939Y-64311101D01*
X173029422Y-64247366D01*
X172980123Y-64063380D01*
X172997201Y-63979926D01*
X173024138Y-63933269D01*
X173087873Y-63876753D01*
X173235061Y-63837313D01*
X173318515Y-63854391D01*
X173365172Y-63881328D01*
X173421689Y-63945063D01*
%TO.C,D35*%
X201465437Y-116778849D02*
X201102245Y-116066043D01*
X200932529Y-116152518D01*
X200847995Y-116238346D01*
X200814698Y-116340822D01*
X200815345Y-116426003D01*
X200850581Y-116579070D01*
X200902466Y-116680899D01*
X201005588Y-116799377D01*
X201074121Y-116849968D01*
X201176597Y-116883265D01*
X201295721Y-116865323D01*
X201465437Y-116778849D01*
X200457326Y-116394646D02*
X200016065Y-116619479D01*
X200392026Y-116769960D01*
X200290197Y-116821845D01*
X200239605Y-116890378D01*
X200222957Y-116941616D01*
X200223604Y-117026797D01*
X200310078Y-117196512D01*
X200378611Y-117247104D01*
X200429849Y-117263752D01*
X200515030Y-117263105D01*
X200718689Y-117159336D01*
X200769280Y-117090803D01*
X200785928Y-117039565D01*
X199371146Y-116948082D02*
X199710577Y-116775133D01*
X199917469Y-117097270D01*
X199866231Y-117080621D01*
X199781050Y-117081268D01*
X199611335Y-117167742D01*
X199560743Y-117236275D01*
X199544095Y-117287513D01*
X199544742Y-117372694D01*
X199631216Y-117542410D01*
X199699749Y-117593001D01*
X199750987Y-117609649D01*
X199836168Y-117609003D01*
X200005883Y-117522528D01*
X200056475Y-117453995D01*
X200073123Y-117402757D01*
%TO.C,D14*%
X96332313Y-75943293D02*
X96539368Y-75170552D01*
X96355382Y-75121253D01*
X96235131Y-75128471D01*
X96141817Y-75182346D01*
X96085300Y-75246081D01*
X96009064Y-75383410D01*
X95979484Y-75493801D01*
X95976843Y-75650849D01*
X95993920Y-75734304D01*
X96047795Y-75827618D01*
X96148327Y-75893994D01*
X96332313Y-75943293D01*
X95154803Y-75627780D02*
X95596369Y-75746097D01*
X95375586Y-75686939D02*
X95582641Y-74914198D01*
X95626656Y-75044309D01*
X95680531Y-75137623D01*
X95744266Y-75194140D01*
X94630491Y-74935144D02*
X94492454Y-75450304D01*
X94893355Y-74690065D02*
X94929444Y-75291322D01*
X94451081Y-75163145D01*
D13*
%TO.C,D43*%
X216591805Y-84050031D02*
X216383894Y-83071883D01*
X216151001Y-83121386D01*
X216021167Y-83197666D01*
X215947811Y-83310624D01*
X215921034Y-83413681D01*
X215914057Y-83609896D01*
X215943759Y-83749631D01*
X216029940Y-83926044D01*
X216096319Y-84009301D01*
X216209277Y-84082657D01*
X216358913Y-84099533D01*
X216591805Y-84050031D01*
X215055844Y-83694949D02*
X215194452Y-84347047D01*
X215209532Y-83272819D02*
X215590932Y-83921993D01*
X214985412Y-84050700D01*
X214567334Y-83458005D02*
X213961814Y-83586712D01*
X214367068Y-83890036D01*
X214227332Y-83919737D01*
X214144076Y-83986117D01*
X214107398Y-84042596D01*
X214080621Y-84145653D01*
X214130123Y-84378546D01*
X214196503Y-84461802D01*
X214252982Y-84498480D01*
X214356040Y-84525257D01*
X214635510Y-84465854D01*
X214718767Y-84399474D01*
X214755445Y-84342995D01*
X221811238Y-85054028D02*
X222370180Y-84935222D01*
X222090709Y-84994625D02*
X221882797Y-84016477D01*
X222005656Y-84136412D01*
X222118614Y-84209767D01*
X222221671Y-84236545D01*
D12*
%TO.C,D32*%
X92135660Y-117640887D02*
X92498853Y-116928082D01*
X92329137Y-116841608D01*
X92210013Y-116823666D01*
X92107537Y-116856963D01*
X92039004Y-116907554D01*
X91935882Y-117026032D01*
X91883997Y-117127861D01*
X91848761Y-117280928D01*
X91848114Y-117366109D01*
X91881410Y-117468585D01*
X91965945Y-117554413D01*
X92135660Y-117640887D01*
X91853934Y-116599479D02*
X91412673Y-116374646D01*
X91511916Y-116767255D01*
X91410087Y-116715370D01*
X91324906Y-116714724D01*
X91273668Y-116731372D01*
X91205135Y-116781963D01*
X91118660Y-116951679D01*
X91118014Y-117036860D01*
X91134662Y-117088098D01*
X91185253Y-117156631D01*
X91388912Y-117260400D01*
X91474093Y-117261047D01*
X91525331Y-117244398D01*
X91106539Y-116304173D02*
X91089891Y-116252935D01*
X91039299Y-116184402D01*
X90869584Y-116097928D01*
X90784403Y-116097281D01*
X90733165Y-116113930D01*
X90664632Y-116164521D01*
X90630042Y-116232407D01*
X90612100Y-116351531D01*
X90811879Y-116966387D01*
X90370619Y-116741554D01*
D13*
%TO.C,D41*%
X147086485Y-101778180D02*
X147086485Y-100778180D01*
X146848390Y-100778180D01*
X146705533Y-100825800D01*
X146610295Y-100921038D01*
X146562676Y-101016276D01*
X146515057Y-101206752D01*
X146515057Y-101349609D01*
X146562676Y-101540085D01*
X146610295Y-101635323D01*
X146705533Y-101730561D01*
X146848390Y-101778180D01*
X147086485Y-101778180D01*
X145657914Y-101111514D02*
X145657914Y-101778180D01*
X145896009Y-100730561D02*
X146134104Y-101444847D01*
X145515057Y-101444847D01*
X144610295Y-101778180D02*
X145181723Y-101778180D01*
X144896009Y-101778180D02*
X144896009Y-100778180D01*
X144991247Y-100921038D01*
X145086485Y-101016276D01*
X145181723Y-101063895D01*
X149736485Y-103678180D02*
X150307914Y-103678180D01*
X150022200Y-103678180D02*
X150022200Y-102678180D01*
X150117438Y-102821038D01*
X150212676Y-102916276D01*
X150307914Y-102963895D01*
%TO.C,D11*%
X37169345Y-65608554D02*
X37134446Y-66607945D01*
X33980019Y-65247028D02*
X33927670Y-66746114D01*
X37134446Y-66607945D02*
X36252444Y-66076840D01*
X33927670Y-66746114D02*
X39324381Y-66934572D01*
X36169954Y-65573655D02*
X36135055Y-66573046D01*
X39376730Y-65435486D02*
X33980019Y-65247028D01*
X36252444Y-66076840D02*
X37169345Y-65608554D01*
X39324381Y-66934572D02*
X39376730Y-65435486D01*
%TO.C,D12*%
X54734068Y-61437049D02*
X60016065Y-62559772D01*
X60016065Y-62559772D02*
X60327932Y-61092551D01*
X57145882Y-60671770D02*
X56937970Y-61649918D01*
X58124030Y-60879682D02*
X57916118Y-61857830D01*
X60327932Y-61092551D02*
X55045935Y-59969828D01*
X55045935Y-59969828D02*
X54734068Y-61437049D01*
X57139741Y-61181635D02*
X58124030Y-60879682D01*
X57916118Y-61857830D02*
X57139741Y-61181635D01*
%TO.C,D21*%
X33306044Y-85025240D02*
X34222945Y-84556954D01*
X36377981Y-85882972D02*
X36430330Y-84383886D01*
X33223554Y-84522055D02*
X33188655Y-85521446D01*
X31033619Y-84195428D02*
X30981270Y-85694514D01*
X36430330Y-84383886D02*
X31033619Y-84195428D01*
X34222945Y-84556954D02*
X34188046Y-85556345D01*
X34188046Y-85556345D02*
X33306044Y-85025240D01*
X30981270Y-85694514D02*
X36377981Y-85882972D01*
D14*
%TO.C,D42*%
X194550648Y-104823203D02*
X188046300Y-108137333D01*
X192053700Y-99922667D02*
X185549352Y-103236797D01*
X188046300Y-108137333D02*
X187524211Y-107112676D01*
D15*
%TO.C,SW16*%
X171639239Y-77614860D02*
X174005758Y-76980754D01*
D13*
X180713617Y-73423419D02*
X179781868Y-69946086D01*
X179781868Y-69946086D02*
X171861275Y-72068402D01*
D16*
X171892112Y-73613054D02*
X172471867Y-75776728D01*
D17*
X179688743Y-70178094D02*
X178481336Y-70501618D01*
D13*
X170346073Y-73561439D02*
X171497818Y-77859809D01*
X180435479Y-72462669D02*
X179853136Y-70289336D01*
X171497818Y-77859809D02*
X174424573Y-77075587D01*
X170518702Y-75171625D02*
X170711888Y-75119862D01*
D18*
X178509076Y-72150627D02*
X172037373Y-73884714D01*
D19*
X170589413Y-75049151D02*
X170421181Y-74421299D01*
D20*
X171706483Y-77286260D02*
X171240609Y-75547594D01*
D13*
X176077173Y-74665750D02*
X180713617Y-73423419D01*
X170324588Y-74447181D02*
X170518702Y-75171625D01*
D15*
X180455727Y-73233701D02*
X179187082Y-73521870D01*
D21*
X179454196Y-70655051D02*
X180101244Y-73069865D01*
X175587275Y-74382908D02*
G75*
G03*
X173932675Y-76771052I498851J-2112881D01*
G01*
D13*
X171861275Y-72068402D02*
G75*
G03*
X170324588Y-74447182I421045J-1957732D01*
G01*
X176077173Y-74665751D02*
G75*
G03*
X174422573Y-77053895I498850J-2112881D01*
G01*
D19*
%TO.C,SW17*%
X188439413Y-68109151D02*
X188271181Y-67481299D01*
D18*
X196359076Y-65210627D02*
X189887373Y-66944714D01*
D20*
X189556483Y-70346260D02*
X189090609Y-68607594D01*
D13*
X198285479Y-65522669D02*
X197703136Y-63349336D01*
X197631868Y-63006086D02*
X189711275Y-65128402D01*
X188174588Y-67507181D02*
X188368702Y-68231625D01*
D16*
X189742112Y-66673054D02*
X190321867Y-68836728D01*
D15*
X189489239Y-70674860D02*
X191855758Y-70040754D01*
D13*
X193927173Y-67725750D02*
X198563617Y-66483419D01*
X198563617Y-66483419D02*
X197631868Y-63006086D01*
X189347818Y-70919809D02*
X192274573Y-70135587D01*
X188196073Y-66621439D02*
X189347818Y-70919809D01*
D15*
X198305727Y-66293701D02*
X197037082Y-66581870D01*
D13*
X188368702Y-68231625D02*
X188561888Y-68179862D01*
D21*
X197304196Y-63715051D02*
X197951244Y-66129865D01*
D17*
X197538743Y-63238094D02*
X196331336Y-63561618D01*
D21*
X193437275Y-67442908D02*
G75*
G03*
X191782675Y-69831052I498851J-2112881D01*
G01*
D13*
X189711275Y-65128402D02*
G75*
G03*
X188174588Y-67507182I421045J-1957732D01*
G01*
X193927173Y-67725751D02*
G75*
G03*
X192272573Y-70113895I498850J-2112881D01*
G01*
%TO.C,SW37*%
X131267400Y-69133600D02*
X131267400Y-74833600D01*
X131267400Y-69133600D02*
X131517400Y-69133600D01*
X134467400Y-74833600D02*
X134217400Y-74833600D01*
X134467400Y-69133600D02*
X134217400Y-69133600D01*
X131267400Y-74833600D02*
X131517400Y-74833600D01*
X134467400Y-69133600D02*
X134467400Y-74833600D01*
%TO.C,SW9*%
X222959556Y-34875982D02*
X223884763Y-39228739D01*
D16*
X224500775Y-35008439D02*
X224966497Y-37199490D01*
D13*
X233092640Y-34306756D02*
X232624838Y-32105924D01*
X223884763Y-39228739D02*
X226848550Y-38598766D01*
D17*
X232466492Y-31986231D02*
X231243808Y-32246120D01*
D13*
X232571632Y-31759414D02*
X224550821Y-33464290D01*
X233320114Y-35280746D02*
X232571632Y-31759414D01*
X222891744Y-35759385D02*
X223047678Y-36492996D01*
D18*
X231185208Y-33894321D02*
X224631619Y-35287329D01*
D15*
X233072507Y-35077791D02*
X231790519Y-35299169D01*
D13*
X223047678Y-36492996D02*
X223243307Y-36451414D01*
D21*
X232207305Y-32450259D02*
X232727085Y-34895628D01*
D19*
X223124702Y-36374390D02*
X222989559Y-35738594D01*
D20*
X224123159Y-38666896D02*
X223748918Y-36906231D01*
D15*
X224038810Y-38991527D02*
X226435272Y-38482143D01*
D13*
X228625006Y-36278722D02*
X233320114Y-35280746D01*
X224550821Y-33464290D02*
G75*
G03*
X222891744Y-35759386I318008J-1977085D01*
G01*
X228625006Y-36278723D02*
G75*
G03*
X226847688Y-38576999I387587J-2136093D01*
G01*
D21*
X228150582Y-35970627D02*
G75*
G03*
X226373264Y-38268905I387588J-2136094D01*
G01*
D13*
%TO.C,D3*%
X80234482Y-43577570D02*
X80026570Y-44555718D01*
X77822668Y-44342849D02*
X83104665Y-45465572D01*
X81212630Y-43785482D02*
X81004718Y-44763630D01*
X81004718Y-44763630D02*
X80228341Y-44087435D01*
X83104665Y-45465572D02*
X83416532Y-43998351D01*
X80228341Y-44087435D02*
X81212630Y-43785482D01*
X78134535Y-42875628D02*
X77822668Y-44342849D01*
X83416532Y-43998351D02*
X78134535Y-42875628D01*
%TO.C,D2*%
X61057482Y-42028170D02*
X60849570Y-43006318D01*
X58957535Y-41326228D02*
X58645668Y-42793449D01*
X63927665Y-43916172D02*
X64239532Y-42448951D01*
X61051341Y-42538035D02*
X62035630Y-42236082D01*
X62035630Y-42236082D02*
X61827718Y-43214230D01*
X64239532Y-42448951D02*
X58957535Y-41326228D01*
X58645668Y-42793449D02*
X63927665Y-43916172D01*
X61827718Y-43214230D02*
X61051341Y-42538035D01*
%TO.C,SW29*%
X241230114Y-72570746D02*
X240481632Y-69049414D01*
X236535006Y-73568722D02*
X241230114Y-72570746D01*
D19*
X231034702Y-73664390D02*
X230899559Y-73028594D01*
D18*
X239095208Y-71184321D02*
X232541619Y-72577329D01*
D15*
X240982507Y-72367791D02*
X239700519Y-72589169D01*
D13*
X240481632Y-69049414D02*
X232460821Y-70754290D01*
D20*
X232033159Y-75956896D02*
X231658918Y-74196231D01*
D13*
X230801744Y-73049385D02*
X230957678Y-73782996D01*
D15*
X231948810Y-76281527D02*
X234345272Y-75772143D01*
D17*
X240376492Y-69276231D02*
X239153808Y-69536120D01*
D13*
X241002640Y-71596756D02*
X240534838Y-69395924D01*
X231794763Y-76518739D02*
X234758550Y-75888766D01*
X230957678Y-73782996D02*
X231153307Y-73741414D01*
D21*
X240117305Y-69740259D02*
X240637085Y-72185628D01*
D16*
X232410775Y-72298439D02*
X232876497Y-74489490D01*
D13*
X230869556Y-72165982D02*
X231794763Y-76518739D01*
X236535006Y-73568723D02*
G75*
G03*
X234757688Y-75866999I387587J-2136093D01*
G01*
D21*
X236060582Y-73260627D02*
G75*
G03*
X234283264Y-75558905I387588J-2136094D01*
G01*
D13*
X232460821Y-70754290D02*
G75*
G03*
X230801744Y-73049386I318008J-1977085D01*
G01*
%TO.C,D17*%
X195613630Y-74103528D02*
X196353553Y-73387628D01*
X195387628Y-73646447D02*
X195646447Y-74612372D01*
X193586115Y-75423256D02*
X198802114Y-74025633D01*
X193197886Y-73974367D02*
X193586115Y-75423256D01*
X196612372Y-74353553D02*
X195613630Y-74103528D01*
X198802114Y-74025633D02*
X198413885Y-72576744D01*
X198413885Y-72576744D02*
X193197886Y-73974367D01*
X196353553Y-73387628D02*
X196612372Y-74353553D01*
%TO.C,D8*%
X210616970Y-43804882D02*
X210824882Y-44783030D01*
X211803030Y-44575118D02*
X210818741Y-44273165D01*
X214006932Y-44362249D02*
X213695065Y-42895028D01*
X208413068Y-44017751D02*
X208724935Y-45484972D01*
X213695065Y-42895028D02*
X208413068Y-44017751D01*
X211595118Y-43596970D02*
X211803030Y-44575118D01*
X210818741Y-44273165D02*
X211595118Y-43596970D01*
X208724935Y-45484972D02*
X214006932Y-44362249D01*
D14*
%TO.C,D45*%
X205438482Y-48311216D02*
X198298004Y-49828972D01*
X206581996Y-53691028D02*
X199441518Y-55208784D01*
X199441518Y-55208784D02*
X199202420Y-54083914D01*
D20*
%TO.C,SW18*%
X208923159Y-58816896D02*
X208548918Y-57056231D01*
D15*
X217872507Y-55227791D02*
X216590519Y-55449169D01*
D13*
X207847678Y-56642996D02*
X208043307Y-56601414D01*
X208684763Y-59378739D02*
X211648550Y-58748766D01*
X217371632Y-51909414D02*
X209350821Y-53614290D01*
X217892640Y-54456756D02*
X217424838Y-52255924D01*
D15*
X208838810Y-59141527D02*
X211235272Y-58632143D01*
D13*
X213425006Y-56428722D02*
X218120114Y-55430746D01*
D17*
X217266492Y-52136231D02*
X216043808Y-52396120D01*
D21*
X217007305Y-52600259D02*
X217527085Y-55045628D01*
D13*
X207691744Y-55909385D02*
X207847678Y-56642996D01*
D18*
X215985208Y-54044321D02*
X209431619Y-55437329D01*
D13*
X218120114Y-55430746D02*
X217371632Y-51909414D01*
D16*
X209300775Y-55158439D02*
X209766497Y-57349490D01*
D13*
X207759556Y-55025982D02*
X208684763Y-59378739D01*
D19*
X207924702Y-56524390D02*
X207789559Y-55888594D01*
D21*
X212950582Y-56120627D02*
G75*
G03*
X211173264Y-58418905I387588J-2136094D01*
G01*
D13*
X213425006Y-56428723D02*
G75*
G03*
X211647688Y-58726999I387587J-2136093D01*
G01*
X209350821Y-53614290D02*
G75*
G03*
X207691744Y-55909386I318008J-1977085D01*
G01*
%TO.C,D5*%
X118993553Y-63132372D02*
X118253630Y-62416472D01*
X116226115Y-61096744D02*
X115837886Y-62545633D01*
X121442114Y-62494367D02*
X116226115Y-61096744D01*
X115837886Y-62545633D02*
X121053885Y-63943256D01*
X118286447Y-61907628D02*
X118027628Y-62873553D01*
X121053885Y-63943256D02*
X121442114Y-62494367D01*
X119252372Y-62166447D02*
X118993553Y-63132372D01*
X118253630Y-62416472D02*
X119252372Y-62166447D01*
%TO.C,SW1*%
X35669622Y-35432156D02*
X35643447Y-36181699D01*
D15*
X45712865Y-37233758D02*
X44415402Y-37138419D01*
D16*
X37412528Y-35092776D02*
X37334353Y-37331411D01*
D19*
X35746876Y-36085250D02*
X35769561Y-35435646D01*
D13*
X41106942Y-37323068D02*
X45904018Y-37490585D01*
D21*
X45509021Y-34474963D02*
X45421772Y-36973440D01*
D13*
X45904018Y-37490585D02*
X46029656Y-33892778D01*
D15*
X36000689Y-38845790D02*
X38449197Y-38931293D01*
D18*
X44167934Y-35628863D02*
X37472015Y-35395036D01*
D13*
X35793831Y-39038688D02*
X38821985Y-39144433D01*
X35949134Y-34591399D02*
X35793831Y-39038688D01*
X45918930Y-36490496D02*
X45997454Y-34241867D01*
D17*
X45872768Y-34087422D02*
X44623529Y-34043797D01*
D20*
X36161068Y-38551207D02*
X36223887Y-36752305D01*
D13*
X46029656Y-33892778D02*
X37834651Y-33606602D01*
X35643447Y-36181699D02*
X35843325Y-36188679D01*
X41106942Y-37323068D02*
G75*
G03*
X38826415Y-39123104I-140693J-2166408D01*
G01*
D21*
X40721146Y-36909352D02*
G75*
G03*
X38440618Y-38709388I-140694J-2166408D01*
G01*
D13*
X37834651Y-33606602D02*
G75*
G03*
X35669622Y-35432157I-169738J-1995290D01*
G01*
%TO.C,SW19*%
X236551632Y-50379414D02*
X228530821Y-52084290D01*
X226939556Y-53495982D02*
X227864763Y-57848739D01*
D15*
X228018810Y-57611527D02*
X230415272Y-57102143D01*
D13*
X227027678Y-55112996D02*
X227223307Y-55071414D01*
X232605006Y-54898722D02*
X237300114Y-53900746D01*
X237072640Y-52926756D02*
X236604838Y-50725924D01*
X227864763Y-57848739D02*
X230828550Y-57218766D01*
X226871744Y-54379385D02*
X227027678Y-55112996D01*
D20*
X228103159Y-57286896D02*
X227728918Y-55526231D01*
D16*
X228480775Y-53628439D02*
X228946497Y-55819490D01*
D21*
X236187305Y-51070259D02*
X236707085Y-53515628D01*
D15*
X237052507Y-53697791D02*
X235770519Y-53919169D01*
D18*
X235165208Y-52514321D02*
X228611619Y-53907329D01*
D17*
X236446492Y-50606231D02*
X235223808Y-50866120D01*
D13*
X237300114Y-53900746D02*
X236551632Y-50379414D01*
D19*
X227104702Y-54994390D02*
X226969559Y-54358594D01*
D21*
X232130582Y-54590627D02*
G75*
G03*
X230353264Y-56888905I387588J-2136094D01*
G01*
D13*
X228530821Y-52084290D02*
G75*
G03*
X226871744Y-54379386I318008J-1977085D01*
G01*
X232605006Y-54898723D02*
G75*
G03*
X230827688Y-57196999I387587J-2136093D01*
G01*
%TO.C,D1*%
X43974130Y-43261286D02*
X38577419Y-43072828D01*
X41766745Y-43434354D02*
X41731846Y-44433745D01*
X38577419Y-43072828D02*
X38525070Y-44571914D01*
X40767354Y-43399455D02*
X40732455Y-44398846D01*
X40849844Y-43902640D02*
X41766745Y-43434354D01*
X43921781Y-44760372D02*
X43974130Y-43261286D01*
X41731846Y-44433745D02*
X40849844Y-43902640D01*
X38525070Y-44571914D02*
X43921781Y-44760372D01*
%TO.C,SW10*%
X254787421Y-37183470D02*
X254661783Y-33585663D01*
D17*
X254518854Y-33790776D02*
X253269616Y-33834400D01*
D19*
X244556990Y-36490084D02*
X244534306Y-35840480D01*
D13*
X254661783Y-33585663D02*
X246466777Y-33871839D01*
X254732534Y-36184777D02*
X254654010Y-33936148D01*
D15*
X245002751Y-39226194D02*
X247451258Y-39140690D01*
D20*
X245142189Y-38921142D02*
X245079370Y-37122240D01*
D13*
X244460541Y-36593513D02*
X244660419Y-36586533D01*
X244654550Y-34985763D02*
X244809852Y-39433052D01*
D21*
X254183027Y-34202747D02*
X254270276Y-36701224D01*
D13*
X249990345Y-37350987D02*
X254787421Y-37183470D01*
D15*
X254578818Y-36940602D02*
X253277865Y-36936002D01*
D13*
X244809852Y-39433052D02*
X247838007Y-39327307D01*
X244434366Y-35843970D02*
X244460541Y-36593513D01*
D16*
X246149353Y-35383838D02*
X246227528Y-37622473D01*
D18*
X252925699Y-35447385D02*
X246229780Y-35681212D01*
D13*
X246466777Y-33871838D02*
G75*
G03*
X244434367Y-35843971I-30140J-2002270D01*
G01*
D21*
X249576629Y-36965191D02*
G75*
G03*
X247427221Y-38919924I10771J-2170945D01*
G01*
D13*
X249990345Y-37350988D02*
G75*
G03*
X247840937Y-39305720I10771J-2170945D01*
G01*
%TO.C,SW35*%
X200266647Y-106877496D02*
X199245168Y-104872731D01*
D20*
X192731281Y-113410539D02*
X191914098Y-111806728D01*
D18*
X198317463Y-106972793D02*
X192347719Y-110014530D01*
D16*
X192149151Y-109779007D02*
X193166090Y-111774862D01*
D13*
X199104091Y-104551799D02*
X191797837Y-108274521D01*
X192646424Y-114014939D02*
X195346173Y-112639348D01*
D15*
X192733827Y-113745940D02*
X194916793Y-112633663D01*
D13*
X191129799Y-111589068D02*
X191308000Y-111498270D01*
D17*
X199061239Y-104798099D02*
X197947480Y-105365587D01*
D19*
X191173501Y-111454568D02*
X190878407Y-110875414D01*
D13*
X196461626Y-109938577D02*
X200738457Y-107759422D01*
D15*
X200446758Y-107627469D02*
X199265750Y-108173106D01*
D21*
X198930982Y-105313398D02*
X200065959Y-107540914D01*
D13*
X200738457Y-107759422D02*
X199104091Y-104551799D01*
X190789306Y-110920813D02*
X191129799Y-111589068D01*
X190626166Y-110049960D02*
X192646424Y-114014939D01*
D21*
X195923627Y-109763770D02*
G75*
G03*
X194801708Y-112443739I927243J-1962993D01*
G01*
D13*
X191797838Y-108274523D02*
G75*
G03*
X190789307Y-110920814I818876J-1827409D01*
G01*
X196461626Y-109938576D02*
G75*
G03*
X195339706Y-112618546I927243J-1962994D01*
G01*
D14*
%TO.C,D37*%
X92048482Y-54998784D02*
X84908004Y-53481028D01*
X84908004Y-53481028D02*
X85147103Y-52356158D01*
X93191996Y-49618972D02*
X86051518Y-48101216D01*
D13*
%TO.C,SW12*%
X63408933Y-54732263D02*
X63876735Y-52531431D01*
X58525476Y-54716593D02*
X63220585Y-55714569D01*
D20*
X53441476Y-55067232D02*
X53815717Y-53306567D01*
D16*
X55274474Y-51878655D02*
X54808752Y-54069706D01*
D13*
X53499114Y-51910227D02*
X53343180Y-52643838D01*
D17*
X63780762Y-52357680D02*
X62558078Y-52097790D01*
D15*
X63076933Y-55428449D02*
X61815737Y-55109257D01*
D13*
X52995169Y-55483537D02*
X55958956Y-56113509D01*
D18*
X61834160Y-53579662D02*
X55280571Y-52186654D01*
D21*
X63355246Y-52676170D02*
X62835467Y-55121539D01*
D13*
X63220585Y-55714569D02*
X63969067Y-52193237D01*
X53343180Y-52643838D02*
X53538810Y-52685420D01*
X63969067Y-52193237D02*
X55948255Y-50488361D01*
D15*
X53232381Y-55329489D02*
X55628842Y-55838873D01*
D19*
X53461786Y-52566814D02*
X53596929Y-51931018D01*
D13*
X53920376Y-51130780D02*
X52995169Y-55483537D01*
X55948255Y-50488359D02*
G75*
G03*
X53499114Y-51910228I-513637J-1935504D01*
G01*
X58525476Y-54716594D02*
G75*
G03*
X55967022Y-56093273I-514749J-2109063D01*
G01*
D21*
X58217382Y-54242169D02*
G75*
G03*
X55658927Y-55618849I-514749J-2109065D01*
G01*
D13*
%TO.C,D33*%
X110425931Y-127379528D02*
X111242890Y-126121522D01*
X105897110Y-124438478D02*
X110425931Y-127379528D01*
X108422984Y-124588345D02*
X107878345Y-125427016D01*
X106714069Y-123180472D02*
X105897110Y-124438478D01*
X109261655Y-125132984D02*
X108717016Y-125971655D01*
X108717016Y-125971655D02*
X108234532Y-125062144D01*
X111242890Y-126121522D02*
X106714069Y-123180472D01*
X108234532Y-125062144D02*
X109261655Y-125132984D01*
D16*
%TO.C,SW26*%
X176282112Y-92153054D02*
X176861867Y-94316728D01*
D17*
X184078743Y-88718094D02*
X182871336Y-89041618D01*
D13*
X185103617Y-91963419D02*
X184171868Y-88486086D01*
D19*
X174979413Y-93589151D02*
X174811181Y-92961299D01*
D13*
X184825479Y-91002669D02*
X184243136Y-88829336D01*
X180467173Y-93205750D02*
X185103617Y-91963419D01*
D15*
X184845727Y-91773701D02*
X183577082Y-92061870D01*
D21*
X183844196Y-89195051D02*
X184491244Y-91609865D01*
D13*
X184171868Y-88486086D02*
X176251275Y-90608402D01*
X174736073Y-92101439D02*
X175887818Y-96399809D01*
D18*
X182899076Y-90690627D02*
X176427373Y-92424714D01*
D13*
X175887818Y-96399809D02*
X178814573Y-95615587D01*
X174908702Y-93711625D02*
X175101888Y-93659862D01*
D15*
X176029239Y-96154860D02*
X178395758Y-95520754D01*
D20*
X176096483Y-95826260D02*
X175630609Y-94087594D01*
D13*
X174714588Y-92987181D02*
X174908702Y-93711625D01*
D21*
X179977275Y-92922908D02*
G75*
G03*
X178322675Y-95311052I498851J-2112881D01*
G01*
D13*
X180467173Y-93205751D02*
G75*
G03*
X178812573Y-95593895I498850J-2112881D01*
G01*
X176251275Y-90608402D02*
G75*
G03*
X174714588Y-92987182I421045J-1957732D01*
G01*
%TO.C,D7*%
X191593630Y-55423528D02*
X192333553Y-54707628D01*
X191367628Y-54966447D02*
X191626447Y-55932372D01*
X192592372Y-55673553D02*
X191593630Y-55423528D01*
X194782114Y-55345633D02*
X194393885Y-53896744D01*
X192333553Y-54707628D02*
X192592372Y-55673553D01*
X194393885Y-53896744D02*
X189177886Y-55294367D01*
X189566115Y-56743256D02*
X194782114Y-55345633D01*
X189177886Y-55294367D02*
X189566115Y-56743256D01*
%TO.C,D15*%
X116133885Y-82353256D02*
X116522114Y-80904367D01*
X116522114Y-80904367D02*
X111306115Y-79506744D01*
X113333630Y-80826472D02*
X114332372Y-80576447D01*
X111306115Y-79506744D02*
X110917886Y-80955633D01*
X110917886Y-80955633D02*
X116133885Y-82353256D01*
X114332372Y-80576447D02*
X114073553Y-81542372D01*
X114073553Y-81542372D02*
X113333630Y-80826472D01*
X113366447Y-80317628D02*
X113107628Y-81283553D01*
%TO.C,SW4*%
X96801742Y-45026336D02*
X95649997Y-49324706D01*
D19*
X96268624Y-46436402D02*
X96436857Y-45808550D01*
D18*
X104576516Y-47886038D02*
X98104813Y-46151950D01*
D13*
X105849308Y-50090578D02*
X106781056Y-46613245D01*
X96340264Y-45782668D02*
X96146150Y-46507113D01*
X101212864Y-48848247D02*
X105849308Y-50090578D01*
D21*
X106142802Y-47063391D02*
X105495754Y-49478206D01*
D13*
X95649997Y-49324706D02*
X98576752Y-50108928D01*
X106781056Y-46613245D02*
X98860464Y-44490929D01*
X106088808Y-49119476D02*
X106671151Y-46946143D01*
D20*
X96117481Y-48932330D02*
X96583355Y-47193664D01*
D13*
X96146150Y-46507113D02*
X96339335Y-46558876D01*
D17*
X106584404Y-46767608D02*
X105376996Y-46444084D01*
D16*
X98114843Y-45844055D02*
X97535089Y-48007729D01*
D15*
X95894946Y-49183285D02*
X98261464Y-49817391D01*
X105720827Y-49797333D02*
X104478065Y-49412572D01*
D13*
X98860464Y-44490929D02*
G75*
G03*
X96340264Y-45782669I-614231J-1905968D01*
G01*
X101212864Y-48848247D02*
G75*
G03*
X98585866Y-50089141I-624423J-2079234D01*
G01*
D21*
X100930021Y-48358349D02*
G75*
G03*
X98303023Y-49599243I-624423J-2079235D01*
G01*
D13*
%TO.C,D36*%
X214023790Y-107567519D02*
X214704775Y-108904029D01*
X214704775Y-108904029D02*
X219516210Y-106452481D01*
X216988508Y-106337501D02*
X217442499Y-107228508D01*
X217442499Y-107228508D02*
X216413597Y-107191596D01*
X216413597Y-107191596D02*
X216988508Y-106337501D01*
X219516210Y-106452481D02*
X218835225Y-105115971D01*
X216097501Y-106791492D02*
X216551492Y-107682499D01*
X218835225Y-105115971D02*
X214023790Y-107567519D01*
%TO.C,SW32*%
X90256324Y-106241980D02*
X90434525Y-106332778D01*
D18*
X98215771Y-109343544D02*
X92246028Y-106301808D01*
D19*
X90390824Y-106198279D02*
X90685918Y-105619124D01*
D13*
X91205460Y-104929867D02*
X89185203Y-108894846D01*
X99002400Y-111764539D02*
X100636766Y-108556915D01*
X94725569Y-109585384D02*
X99002400Y-111764539D01*
D21*
X99918868Y-108864524D02*
X98783892Y-111092040D01*
D16*
X92319854Y-106002726D02*
X91302916Y-107998581D01*
D13*
X90596817Y-105573725D02*
X90256324Y-106241980D01*
D20*
X89724050Y-108608240D02*
X90541233Y-107004429D01*
D13*
X99438571Y-110864452D02*
X100460049Y-108859688D01*
D15*
X98937697Y-111450989D02*
X97802088Y-110816251D01*
D13*
X100636766Y-108556915D02*
X93330512Y-104834193D01*
D17*
X100412317Y-108667018D02*
X99298559Y-108099530D01*
D15*
X89454202Y-108807443D02*
X91637168Y-109919720D01*
D13*
X89185203Y-108894846D02*
X91884952Y-110270438D01*
X94725569Y-109585385D02*
G75*
G03*
X91897981Y-110252979I-1043075J-1903973D01*
G01*
X93330513Y-104834192D02*
G75*
G03*
X90596816Y-105573726I-997082J-1736613D01*
G01*
D21*
X94550762Y-109047386D02*
G75*
G03*
X91723174Y-109714980I-1043075J-1903973D01*
G01*
D14*
%TO.C,D44*%
X247713750Y-58290942D02*
X240418197Y-58545708D01*
X240418197Y-58545708D02*
X240378063Y-57396408D01*
X247521803Y-52794292D02*
X240226250Y-53049058D01*
D13*
%TO.C,SW24*%
X98388279Y-83803693D02*
X90467687Y-81681377D01*
D15*
X97328050Y-86987781D02*
X96085288Y-86603020D01*
X87502169Y-86373733D02*
X89868687Y-87007839D01*
D16*
X89722066Y-83034503D02*
X89142312Y-85198177D01*
D13*
X97696031Y-86309924D02*
X98278374Y-84136591D01*
X88408965Y-82216784D02*
X87257220Y-86515154D01*
D17*
X98191627Y-83958056D02*
X96984219Y-83634532D01*
D18*
X96183739Y-85076486D02*
X89712036Y-83342398D01*
D13*
X87753373Y-83697561D02*
X87946558Y-83749324D01*
D20*
X87724704Y-86122778D02*
X88190578Y-84384112D01*
D13*
X92820087Y-86038695D02*
X97456531Y-87281026D01*
D19*
X87875847Y-83626850D02*
X88044080Y-82998998D01*
D13*
X97456531Y-87281026D02*
X98388279Y-83803693D01*
D21*
X97750025Y-84253839D02*
X97102977Y-86668654D01*
D13*
X87257220Y-86515154D02*
X90183975Y-87299376D01*
X87947487Y-82973116D02*
X87753373Y-83697561D01*
X92820087Y-86038695D02*
G75*
G03*
X90193089Y-87279589I-624423J-2079234D01*
G01*
X90467687Y-81681377D02*
G75*
G03*
X87947487Y-82973117I-614231J-1905968D01*
G01*
D21*
X92537244Y-85548797D02*
G75*
G03*
X89910246Y-86789691I-624423J-2079235D01*
G01*
D13*
%TO.C,D34*%
X182910781Y-125471968D02*
X183409064Y-124571016D01*
X185142290Y-123193182D02*
X180562831Y-126054746D01*
X182561016Y-125100936D02*
X183090936Y-125948984D01*
X181357710Y-127326818D02*
X185937169Y-124465254D01*
X180562831Y-126054746D02*
X181357710Y-127326818D01*
X183938984Y-125419064D02*
X182910781Y-125471968D01*
X185937169Y-124465254D02*
X185142290Y-123193182D01*
X183409064Y-124571016D02*
X183938984Y-125419064D01*
D15*
%TO.C,SW36*%
X209713827Y-105105940D02*
X211896793Y-103993663D01*
D19*
X208153501Y-102814568D02*
X207858407Y-102235414D01*
D21*
X215910982Y-96673398D02*
X217045959Y-98900914D01*
D13*
X207769306Y-102280813D02*
X208109799Y-102949068D01*
D20*
X209711281Y-104770539D02*
X208894098Y-103166728D01*
D15*
X217426758Y-98987469D02*
X216245750Y-99533106D01*
D13*
X208109799Y-102949068D02*
X208288000Y-102858270D01*
D18*
X215297463Y-98332793D02*
X209327719Y-101374530D01*
D13*
X216084091Y-95911799D02*
X208777837Y-99634521D01*
X209626424Y-105374939D02*
X212326173Y-103999348D01*
X217718457Y-99119422D02*
X216084091Y-95911799D01*
X207606166Y-101409960D02*
X209626424Y-105374939D01*
D17*
X216041239Y-96158099D02*
X214927480Y-96725587D01*
D13*
X213441626Y-101298577D02*
X217718457Y-99119422D01*
X217246647Y-98237496D02*
X216225168Y-96232731D01*
D16*
X209129151Y-101139007D02*
X210146090Y-103134862D01*
D21*
X212903627Y-101123770D02*
G75*
G03*
X211781708Y-103803739I927243J-1962993D01*
G01*
D13*
X208777838Y-99634523D02*
G75*
G03*
X207769307Y-102280814I818876J-1827409D01*
G01*
X213441626Y-101298576D02*
G75*
G03*
X212319706Y-103978546I927243J-1962994D01*
G01*
%TO.C,D22*%
X56365532Y-79736151D02*
X51083535Y-78613428D01*
X51083535Y-78613428D02*
X50771668Y-80080649D01*
X53177341Y-79825235D02*
X54161630Y-79523282D01*
X56053665Y-81203372D02*
X56365532Y-79736151D01*
X50771668Y-80080649D02*
X56053665Y-81203372D01*
X53953718Y-80501430D02*
X53177341Y-79825235D01*
X54161630Y-79523282D02*
X53953718Y-80501430D01*
X53183482Y-79315370D02*
X52975570Y-80293518D01*
%TO.C,SW15*%
X109497220Y-74935154D02*
X112423975Y-75719376D01*
X119696531Y-75701026D02*
X120628279Y-72223693D01*
D15*
X109742169Y-74793733D02*
X112108687Y-75427839D01*
D13*
X110187487Y-71393116D02*
X109993373Y-72117561D01*
D20*
X109964704Y-74542778D02*
X110430578Y-72804112D01*
D18*
X118423739Y-73496486D02*
X111952036Y-71762398D01*
D15*
X119568050Y-75407781D02*
X118325288Y-75023020D01*
D13*
X119936031Y-74729924D02*
X120518374Y-72556591D01*
X110648965Y-70636784D02*
X109497220Y-74935154D01*
X109993373Y-72117561D02*
X110186558Y-72169324D01*
X120628279Y-72223693D02*
X112707687Y-70101377D01*
D19*
X110115847Y-72046850D02*
X110284080Y-71418998D01*
D16*
X111962066Y-71454503D02*
X111382312Y-73618177D01*
D21*
X119990025Y-72673839D02*
X119342977Y-75088654D01*
D13*
X115060087Y-74458695D02*
X119696531Y-75701026D01*
D17*
X120431627Y-72378056D02*
X119224219Y-72054532D01*
D13*
X112707687Y-70101377D02*
G75*
G03*
X110187487Y-71393117I-614231J-1905968D01*
G01*
X115060087Y-74458695D02*
G75*
G03*
X112433089Y-75699589I-624423J-2079234D01*
G01*
D21*
X114777244Y-73968797D02*
G75*
G03*
X112150246Y-75209691I-624423J-2079235D01*
G01*
D13*
%TO.C,D10*%
X253268581Y-43098228D02*
X247871870Y-43286686D01*
X250196644Y-43955960D02*
X251078646Y-43424855D01*
X251113545Y-44424246D02*
X250196644Y-43955960D01*
X251078646Y-43424855D02*
X251113545Y-44424246D01*
X247871870Y-43286686D02*
X247924219Y-44785772D01*
X247924219Y-44785772D02*
X253320930Y-44597314D01*
X250079255Y-43459754D02*
X250114154Y-44459145D01*
X253320930Y-44597314D02*
X253268581Y-43098228D01*
%TO.C,D29*%
X235483068Y-79767751D02*
X235794935Y-81234972D01*
X240765065Y-78645028D02*
X235483068Y-79767751D01*
X241076932Y-80112249D02*
X240765065Y-78645028D01*
X237888741Y-80023165D02*
X238665118Y-79346970D01*
X235794935Y-81234972D02*
X241076932Y-80112249D01*
X237686970Y-79554882D02*
X237894882Y-80533030D01*
X238873030Y-80325118D02*
X237888741Y-80023165D01*
X238665118Y-79346970D02*
X238873030Y-80325118D01*
D15*
%TO.C,SW20*%
X249600151Y-61374994D02*
X252048658Y-61289490D01*
X259176218Y-59089402D02*
X257875265Y-59084802D01*
D16*
X250746753Y-57532638D02*
X250824928Y-59771273D01*
D13*
X249251950Y-57134563D02*
X249407252Y-61581852D01*
D19*
X249154390Y-58638884D02*
X249131706Y-57989280D01*
D13*
X259259183Y-55734463D02*
X251064177Y-56020639D01*
X254587745Y-59499787D02*
X259384821Y-59332270D01*
D21*
X258780427Y-56351547D02*
X258867676Y-58850024D01*
D13*
X259329934Y-58333577D02*
X259251410Y-56084948D01*
X249057941Y-58742313D02*
X249257819Y-58735333D01*
X249407252Y-61581852D02*
X252435407Y-61476107D01*
D20*
X249739589Y-61069942D02*
X249676770Y-59271040D01*
D18*
X257523099Y-57596185D02*
X250827180Y-57830012D01*
D17*
X259116254Y-55939576D02*
X257867016Y-55983200D01*
D13*
X259384821Y-59332270D02*
X259259183Y-55734463D01*
X249031766Y-57992770D02*
X249057941Y-58742313D01*
X254587745Y-59499788D02*
G75*
G03*
X252438337Y-61454520I10771J-2170945D01*
G01*
D21*
X254174029Y-59113991D02*
G75*
G03*
X252024621Y-61068724I10771J-2170945D01*
G01*
D13*
X251064177Y-56020638D02*
G75*
G03*
X249031767Y-57992771I-30140J-2002270D01*
G01*
%TO.C,D16*%
X177763630Y-81053528D02*
X178503553Y-80337628D01*
X175736115Y-82373256D02*
X180952114Y-80975633D01*
X175347886Y-80924367D02*
X175736115Y-82373256D01*
X177537628Y-80596447D02*
X177796447Y-81562372D01*
X180563885Y-79526744D02*
X175347886Y-80924367D01*
X178762372Y-81303553D02*
X177763630Y-81053528D01*
X178503553Y-80337628D02*
X178762372Y-81303553D01*
X180952114Y-80975633D02*
X180563885Y-79526744D01*
%TO.C,D28*%
X219555118Y-80856970D02*
X219763030Y-81835118D01*
X218576970Y-81064882D02*
X218784882Y-82043030D01*
X216684935Y-82744972D02*
X221966932Y-81622249D01*
X218778741Y-81533165D02*
X219555118Y-80856970D01*
X221655065Y-80155028D02*
X216373068Y-81277751D01*
X216373068Y-81277751D02*
X216684935Y-82744972D01*
X221966932Y-81622249D02*
X221655065Y-80155028D01*
X219763030Y-81835118D02*
X218778741Y-81533165D01*
%TO.C,SW13*%
X82560533Y-56281663D02*
X83028335Y-54080831D01*
D17*
X82932362Y-53907080D02*
X81709678Y-53647190D01*
D15*
X72383981Y-56878889D02*
X74780442Y-57388273D01*
D13*
X72146769Y-57032937D02*
X75110556Y-57662909D01*
X73071976Y-52680180D02*
X72146769Y-57032937D01*
D18*
X80985760Y-55129062D02*
X74432171Y-53736054D01*
D20*
X72593076Y-56616632D02*
X72967317Y-54855967D01*
D13*
X83120667Y-53742637D02*
X75099855Y-52037761D01*
D19*
X72613386Y-54116214D02*
X72748529Y-53480418D01*
D21*
X82506846Y-54225570D02*
X81987067Y-56670939D01*
D13*
X77677076Y-56265993D02*
X82372185Y-57263969D01*
D15*
X82228533Y-56977849D02*
X80967337Y-56658657D01*
D13*
X82372185Y-57263969D02*
X83120667Y-53742637D01*
X72650714Y-53459627D02*
X72494780Y-54193238D01*
X72494780Y-54193238D02*
X72690410Y-54234820D01*
D16*
X74426074Y-53428055D02*
X73960352Y-55619106D01*
D21*
X77368982Y-55791569D02*
G75*
G03*
X74810527Y-57168249I-514749J-2109065D01*
G01*
D13*
X75099855Y-52037759D02*
G75*
G03*
X72650714Y-53459628I-513637J-1935504D01*
G01*
X77677076Y-56265994D02*
G75*
G03*
X75118622Y-57642673I-514749J-2109063D01*
G01*
D19*
%TO.C,SW7*%
X184419413Y-49429151D02*
X184251181Y-48801299D01*
D15*
X185469239Y-51994860D02*
X187835758Y-51360754D01*
D13*
X185327818Y-52239809D02*
X188254573Y-51455587D01*
D15*
X194285727Y-47613701D02*
X193017082Y-47901870D01*
D13*
X193611868Y-44326086D02*
X185691275Y-46448402D01*
D18*
X192339076Y-46530627D02*
X185867373Y-48264714D01*
D13*
X194543617Y-47803419D02*
X193611868Y-44326086D01*
X184348702Y-49551625D02*
X184541888Y-49499862D01*
X184154588Y-48827181D02*
X184348702Y-49551625D01*
D21*
X193284196Y-45035051D02*
X193931244Y-47449865D01*
D13*
X184176073Y-47941439D02*
X185327818Y-52239809D01*
D20*
X185536483Y-51666260D02*
X185070609Y-49927594D01*
D13*
X194265479Y-46842669D02*
X193683136Y-44669336D01*
D16*
X185722112Y-47993054D02*
X186301867Y-50156728D01*
D17*
X193518743Y-44558094D02*
X192311336Y-44881618D01*
D13*
X189907173Y-49045750D02*
X194543617Y-47803419D01*
X189907173Y-49045751D02*
G75*
G03*
X188252573Y-51433895I498850J-2112881D01*
G01*
X185691275Y-46448402D02*
G75*
G03*
X184154588Y-48827182I421045J-1957732D01*
G01*
D21*
X189417275Y-48762908D02*
G75*
G03*
X187762675Y-51151052I498851J-2112881D01*
G01*
D13*
%TO.C,D30*%
X255468019Y-85882972D02*
X260864730Y-85694514D01*
X257623055Y-84556954D02*
X257657954Y-85556345D01*
X260864730Y-85694514D02*
X260812381Y-84195428D01*
X258622446Y-84522055D02*
X258657345Y-85521446D01*
X260812381Y-84195428D02*
X255415670Y-84383886D01*
X258657345Y-85521446D02*
X257740444Y-85053160D01*
X255415670Y-84383886D02*
X255468019Y-85882972D01*
X257740444Y-85053160D02*
X258622446Y-84522055D01*
D14*
%TO.C,D40*%
X97279352Y-105023203D02*
X97801441Y-103998545D01*
X103783700Y-108337333D02*
X97279352Y-105023203D01*
X106280648Y-103436797D02*
X99776300Y-100122667D01*
%TO.C,D38*%
X51563750Y-59639058D02*
X44268197Y-59384292D01*
X51371803Y-65135708D02*
X44076250Y-64880942D01*
X44076250Y-64880942D02*
X44116384Y-63731642D01*
D13*
%TO.C,SW23*%
X68662914Y-72128627D02*
X68506980Y-72862238D01*
X68158969Y-75701937D02*
X71122756Y-76331909D01*
X68506980Y-72862238D02*
X68702610Y-72903820D01*
D16*
X70438274Y-72097055D02*
X69972552Y-74288106D01*
D21*
X78519046Y-72894570D02*
X77999267Y-75339939D01*
D20*
X68605276Y-75285632D02*
X68979517Y-73524967D01*
D13*
X78384385Y-75932969D02*
X79132867Y-72411637D01*
X79132867Y-72411637D02*
X71112055Y-70706761D01*
X73689276Y-74934993D02*
X78384385Y-75932969D01*
D15*
X78240733Y-75646849D02*
X76979537Y-75327657D01*
X68396181Y-75547889D02*
X70792642Y-76057273D01*
D18*
X76997960Y-73798062D02*
X70444371Y-72405054D01*
D13*
X69084176Y-71349180D02*
X68158969Y-75701937D01*
X78572733Y-74950663D02*
X79040535Y-72749831D01*
D19*
X68625586Y-72785214D02*
X68760729Y-72149418D01*
D17*
X78944562Y-72576080D02*
X77721878Y-72316190D01*
D13*
X73689276Y-74934994D02*
G75*
G03*
X71130822Y-76311673I-514749J-2109063D01*
G01*
X71112055Y-70706759D02*
G75*
G03*
X68662914Y-72128628I-513637J-1935504D01*
G01*
D21*
X73381182Y-74460569D02*
G75*
G03*
X70822727Y-75837249I-514749J-2109065D01*
G01*
D13*
%TO.C,D13*%
X77067718Y-63407230D02*
X76291341Y-62731035D01*
X79479532Y-62641951D02*
X74197535Y-61519228D01*
X73885668Y-62986449D02*
X79167665Y-64109172D01*
X76291341Y-62731035D02*
X77275630Y-62429082D01*
X76297482Y-62221170D02*
X76089570Y-63199318D01*
X77275630Y-62429082D02*
X77067718Y-63407230D01*
X74197535Y-61519228D02*
X73885668Y-62986449D01*
X79167665Y-64109172D02*
X79479532Y-62641951D01*
D21*
%TO.C,SW22*%
X59392846Y-71345170D02*
X58873067Y-73790539D01*
D17*
X59818362Y-71026680D02*
X58595678Y-70766790D01*
D13*
X59258185Y-74383569D02*
X60006667Y-70862237D01*
X59446533Y-73401263D02*
X59914335Y-71200431D01*
X54563076Y-73385593D02*
X59258185Y-74383569D01*
D18*
X57871760Y-72248662D02*
X51318171Y-70855654D01*
D13*
X49380780Y-71312838D02*
X49576410Y-71354420D01*
X60006667Y-70862237D02*
X51985855Y-69157361D01*
X49536714Y-70579227D02*
X49380780Y-71312838D01*
X49957976Y-69799780D02*
X49032769Y-74152537D01*
D15*
X49269981Y-73998489D02*
X51666442Y-74507873D01*
D20*
X49479076Y-73736232D02*
X49853317Y-71975567D01*
D16*
X51312074Y-70547655D02*
X50846352Y-72738706D01*
D19*
X49499386Y-71235814D02*
X49634529Y-70600018D01*
D13*
X49032769Y-74152537D02*
X51996556Y-74782509D01*
D15*
X59114533Y-74097449D02*
X57853337Y-73778257D01*
D13*
X51985855Y-69157359D02*
G75*
G03*
X49536714Y-70579228I-513637J-1935504D01*
G01*
X54563076Y-73385594D02*
G75*
G03*
X52004622Y-74762273I-514749J-2109063D01*
G01*
D21*
X54254982Y-72911169D02*
G75*
G03*
X51696527Y-74287849I-514749J-2109065D01*
G01*
D13*
%TO.C,SW34*%
X174263335Y-121976734D02*
X174432945Y-121870750D01*
D20*
X176017474Y-123651695D02*
X175063620Y-122125209D01*
D16*
X175121051Y-120084718D02*
X176308070Y-121984346D01*
D15*
X176049243Y-123985597D02*
X178126961Y-122687295D01*
X183199564Y-117218183D02*
X182070606Y-117864675D01*
D13*
X175985617Y-124261191D02*
X178555203Y-122655536D01*
X182954774Y-116486761D02*
X181762455Y-114578653D01*
D21*
X181487872Y-115045026D02*
X182812670Y-117165147D01*
D13*
X179431023Y-119867823D02*
X183501654Y-117324211D01*
X183501654Y-117324211D02*
X181593944Y-114271238D01*
D17*
X181572721Y-114520335D02*
X180512661Y-115182734D01*
D13*
X173627476Y-120487377D02*
X175985617Y-124261191D01*
D19*
X174295148Y-121838937D02*
X173950701Y-121287706D01*
D18*
X181021313Y-116751579D02*
X175339390Y-120302038D01*
D13*
X173865896Y-121340698D02*
X174263335Y-121976734D01*
X181593944Y-114271238D02*
X174639949Y-118616576D01*
X179431023Y-119867823D02*
G75*
G03*
X178546947Y-122635376I1094800J-1874709D01*
G01*
X174639949Y-118616576D02*
G75*
G03*
X173865896Y-121340698I975033J-1749087D01*
G01*
D21*
X178879836Y-119740572D02*
G75*
G03*
X177995760Y-122508124I1094800J-1874709D01*
G01*
D13*
%TO.C,D23*%
X69897868Y-81630049D02*
X75179865Y-82752772D01*
X73079918Y-82050830D02*
X72303541Y-81374635D01*
X75179865Y-82752772D02*
X75491732Y-81285551D01*
X72303541Y-81374635D02*
X73287830Y-81072682D01*
X73287830Y-81072682D02*
X73079918Y-82050830D01*
X75491732Y-81285551D02*
X70209735Y-80162828D01*
X70209735Y-80162828D02*
X69897868Y-81630049D01*
X72309682Y-80864770D02*
X72101770Y-81842918D01*
%TO.C,D9*%
X233166932Y-42822249D02*
X232855065Y-41355028D01*
X227573068Y-42477751D02*
X227884935Y-43944972D01*
X229776970Y-42264882D02*
X229984882Y-43243030D01*
X230755118Y-42056970D02*
X230963030Y-43035118D01*
X230963030Y-43035118D02*
X229978741Y-42733165D01*
X227884935Y-43944972D02*
X233166932Y-42822249D01*
X229978741Y-42733165D02*
X230755118Y-42056970D01*
X232855065Y-41355028D02*
X227573068Y-42477751D01*
%TO.C,D27*%
X197587886Y-92474367D02*
X197976115Y-93923256D01*
X203192114Y-92525633D02*
X202803885Y-91076744D01*
X201002372Y-92853553D02*
X200003630Y-92603528D01*
X200003630Y-92603528D02*
X200743553Y-91887628D01*
X200743553Y-91887628D02*
X201002372Y-92853553D01*
X202803885Y-91076744D02*
X197587886Y-92474367D01*
X199777628Y-92146447D02*
X200036447Y-93112372D01*
X197976115Y-93923256D02*
X203192114Y-92525633D01*
%TO.C,D18*%
X215555118Y-62206970D02*
X215763030Y-63185118D01*
X212373068Y-62627751D02*
X212684935Y-64094972D01*
X217655065Y-61505028D02*
X212373068Y-62627751D01*
X215763030Y-63185118D02*
X214778741Y-62883165D01*
X214778741Y-62883165D02*
X215555118Y-62206970D01*
X217966932Y-62972249D02*
X217655065Y-61505028D01*
X212684935Y-64094972D02*
X217966932Y-62972249D01*
X214576970Y-62414882D02*
X214784882Y-63393030D01*
D20*
%TO.C,SW6*%
X166776483Y-58866260D02*
X166310609Y-57127594D01*
D13*
X165416073Y-55141439D02*
X166567818Y-59439809D01*
D19*
X165659413Y-56629151D02*
X165491181Y-56001299D01*
D13*
X175783617Y-55003419D02*
X174851868Y-51526086D01*
D16*
X166962112Y-55193054D02*
X167541867Y-57356728D01*
D13*
X165394588Y-56027181D02*
X165588702Y-56751625D01*
D21*
X174524196Y-52235051D02*
X175171244Y-54649865D01*
D13*
X171147173Y-56245750D02*
X175783617Y-55003419D01*
X174851868Y-51526086D02*
X166931275Y-53648402D01*
D15*
X166709239Y-59194860D02*
X169075758Y-58560754D01*
X175525727Y-54813701D02*
X174257082Y-55101870D01*
D18*
X173579076Y-53730627D02*
X167107373Y-55464714D01*
D13*
X175505479Y-54042669D02*
X174923136Y-51869336D01*
D17*
X174758743Y-51758094D02*
X173551336Y-52081618D01*
D13*
X165588702Y-56751625D02*
X165781888Y-56699862D01*
X166567818Y-59439809D02*
X169494573Y-58655587D01*
X171147173Y-56245751D02*
G75*
G03*
X169492573Y-58633895I498850J-2112881D01*
G01*
X166931275Y-53648402D02*
G75*
G03*
X165394588Y-56027182I421045J-1957732D01*
G01*
D21*
X170657275Y-55962908D02*
G75*
G03*
X169002675Y-58351052I498851J-2112881D01*
G01*
D13*
%TO.C,D19*%
X233756970Y-60884882D02*
X233964882Y-61863030D01*
X231553068Y-61097751D02*
X231864935Y-62564972D01*
X234943030Y-61655118D02*
X233958741Y-61353165D01*
X234735118Y-60676970D02*
X234943030Y-61655118D01*
X237146932Y-61442249D02*
X236835065Y-59975028D01*
X233958741Y-61353165D02*
X234735118Y-60676970D01*
X231864935Y-62564972D02*
X237146932Y-61442249D01*
X236835065Y-59975028D02*
X231553068Y-61097751D01*
%TO.C,D31*%
X72323790Y-106412481D02*
X77135225Y-108864029D01*
X77135225Y-108864029D02*
X77816210Y-107527519D01*
X77816210Y-107527519D02*
X73004775Y-105075971D01*
X75288508Y-107642499D02*
X74713597Y-106788404D01*
X75742499Y-106751492D02*
X75288508Y-107642499D01*
X74851492Y-106297501D02*
X74397501Y-107188508D01*
X73004775Y-105075971D02*
X72323790Y-106412481D01*
X74713597Y-106788404D02*
X75742499Y-106751492D01*
D20*
%TO.C,SW5*%
X114884704Y-56132778D02*
X115350578Y-54394112D01*
D17*
X125351627Y-53968056D02*
X124144219Y-53644532D01*
D21*
X124910025Y-54263839D02*
X124262977Y-56678654D01*
D13*
X115107487Y-52983116D02*
X114913373Y-53707561D01*
X124616531Y-57291026D02*
X125548279Y-53813693D01*
X124856031Y-56319924D02*
X125438374Y-54146591D01*
X125548279Y-53813693D02*
X117627687Y-51691377D01*
D15*
X124488050Y-56997781D02*
X123245288Y-56613020D01*
D13*
X114913373Y-53707561D02*
X115106558Y-53759324D01*
X119980087Y-56048695D02*
X124616531Y-57291026D01*
D19*
X115035847Y-53636850D02*
X115204080Y-53008998D01*
D18*
X123343739Y-55086486D02*
X116872036Y-53352398D01*
D15*
X114662169Y-56383733D02*
X117028687Y-57017839D01*
D13*
X115568965Y-52226784D02*
X114417220Y-56525154D01*
D16*
X116882066Y-53044503D02*
X116302312Y-55208177D01*
D13*
X114417220Y-56525154D02*
X117343975Y-57309376D01*
X119980087Y-56048695D02*
G75*
G03*
X117353089Y-57289589I-624423J-2079234D01*
G01*
D21*
X119697244Y-55558797D02*
G75*
G03*
X117070246Y-56799691I-624423J-2079235D01*
G01*
D13*
X117627687Y-51691377D02*
G75*
G03*
X115107487Y-52983117I-614231J-1905968D01*
G01*
%TO.C,D25*%
X106537886Y-99485633D02*
X111753885Y-100883256D01*
X109952372Y-99106447D02*
X109693553Y-100072372D01*
X108953630Y-99356472D02*
X109952372Y-99106447D01*
X109693553Y-100072372D02*
X108953630Y-99356472D01*
X112142114Y-99434367D02*
X106926115Y-98036744D01*
X108986447Y-98847628D02*
X108727628Y-99813553D01*
X111753885Y-100883256D02*
X112142114Y-99434367D01*
X106926115Y-98036744D02*
X106537886Y-99485633D01*
%TO.C,D24*%
X91833553Y-93132372D02*
X91093630Y-92416472D01*
X91126447Y-91907628D02*
X90867628Y-92873553D01*
X93893885Y-93943256D02*
X94282114Y-92494367D01*
X94282114Y-92494367D02*
X89066115Y-91096744D01*
X88677886Y-92545633D02*
X93893885Y-93943256D01*
X91093630Y-92416472D02*
X92092372Y-92166447D01*
X89066115Y-91096744D02*
X88677886Y-92545633D01*
X92092372Y-92166447D02*
X91833553Y-93132372D01*
D14*
%TO.C,D39*%
X77891996Y-85298972D02*
X70751518Y-83781216D01*
X76748482Y-90678784D02*
X69608004Y-89161028D01*
X69608004Y-89161028D02*
X69847103Y-88036158D01*
D13*
%TO.C,SW3*%
X86497533Y-37638063D02*
X86965335Y-35437231D01*
D19*
X76550386Y-35472614D02*
X76685529Y-34836818D01*
D13*
X76083769Y-38389337D02*
X79047556Y-39019309D01*
X77008976Y-34036580D02*
X76083769Y-38389337D01*
X87057667Y-35099037D02*
X79036855Y-33394161D01*
D15*
X86165533Y-38334249D02*
X84904337Y-38015057D01*
D13*
X86309185Y-38620369D02*
X87057667Y-35099037D01*
X81614076Y-37622393D02*
X86309185Y-38620369D01*
D17*
X86869362Y-35263480D02*
X85646678Y-35003590D01*
D18*
X84922760Y-36485462D02*
X78369171Y-35092454D01*
D13*
X76587714Y-34816027D02*
X76431780Y-35549638D01*
X76431780Y-35549638D02*
X76627410Y-35591220D01*
D21*
X86443846Y-35581970D02*
X85924067Y-38027339D01*
D15*
X76320981Y-38235289D02*
X78717442Y-38744673D01*
D20*
X76530076Y-37973032D02*
X76904317Y-36212367D01*
D16*
X78363074Y-34784455D02*
X77897352Y-36975506D01*
D21*
X81305982Y-37147969D02*
G75*
G03*
X78747527Y-38524649I-514749J-2109065D01*
G01*
D13*
X81614076Y-37622394D02*
G75*
G03*
X79055622Y-38999073I-514749J-2109063D01*
G01*
X79036855Y-33394159D02*
G75*
G03*
X76587714Y-34816028I-513637J-1935504D01*
G01*
D17*
%TO.C,SW11*%
X41249968Y-56236222D02*
X40000729Y-56192597D01*
D19*
X31124076Y-58234050D02*
X31146761Y-57584446D01*
D13*
X31326334Y-56740199D02*
X31171031Y-61187488D01*
D15*
X41090065Y-59382558D02*
X39792602Y-59287219D01*
D13*
X41406856Y-56041578D02*
X33211851Y-55755402D01*
D15*
X31377889Y-60994590D02*
X33826397Y-61080093D01*
D20*
X31538268Y-60700007D02*
X31601087Y-58901105D01*
D13*
X31171031Y-61187488D02*
X34199185Y-61293233D01*
X41296130Y-58639296D02*
X41374654Y-56390667D01*
D16*
X32789728Y-57241576D02*
X32711553Y-59480211D01*
D13*
X41281218Y-59639385D02*
X41406856Y-56041578D01*
X31046822Y-57580956D02*
X31020647Y-58330499D01*
X36484142Y-59471868D02*
X41281218Y-59639385D01*
X31020647Y-58330499D02*
X31220525Y-58337479D01*
D18*
X39545134Y-57777663D02*
X32849215Y-57543836D01*
D21*
X40886221Y-56623763D02*
X40798972Y-59122240D01*
X36098346Y-59058152D02*
G75*
G03*
X33817818Y-60858188I-140694J-2166408D01*
G01*
D13*
X33211851Y-55755402D02*
G75*
G03*
X31046822Y-57580957I-169738J-1995290D01*
G01*
X36484142Y-59471868D02*
G75*
G03*
X34203615Y-61271904I-140693J-2166408D01*
G01*
%TO.C,D26*%
X182143630Y-99583528D02*
X182883553Y-98867628D01*
X183142372Y-99833553D02*
X182143630Y-99583528D01*
X182883553Y-98867628D02*
X183142372Y-99833553D01*
X180116115Y-100903256D02*
X185332114Y-99505633D01*
X181917628Y-99126447D02*
X182176447Y-100092372D01*
X179727886Y-99454367D02*
X180116115Y-100903256D01*
X184943885Y-98056744D02*
X179727886Y-99454367D01*
X185332114Y-99505633D02*
X184943885Y-98056744D01*
%TO.C,SW33*%
X116364128Y-121138854D02*
X117556446Y-119230746D01*
D20*
X106883216Y-118044551D02*
X107837070Y-116518065D01*
D15*
X106597033Y-118219477D02*
X108674751Y-119517780D01*
D19*
X107757494Y-115701873D02*
X108101942Y-115150642D01*
D13*
X111780539Y-119453888D02*
X115851169Y-121997500D01*
X115851169Y-121997500D02*
X117758879Y-118944527D01*
X117758879Y-118944527D02*
X110804884Y-114599189D01*
D16*
X109696228Y-115675191D02*
X108509209Y-117574819D01*
D13*
X108017137Y-115097650D02*
X107619697Y-115733686D01*
X107619697Y-115733686D02*
X107789307Y-115839670D01*
D18*
X115278538Y-119517159D02*
X109596615Y-115966700D01*
D13*
X108679580Y-114509289D02*
X106321439Y-118283103D01*
D15*
X115814040Y-121679505D02*
X114738073Y-120948207D01*
D13*
X106321439Y-118283103D02*
X108891025Y-119888759D01*
D21*
X117016903Y-119188397D02*
X115692105Y-121308517D01*
D17*
X117525688Y-119034649D02*
X116465628Y-118372250D01*
D21*
X111653287Y-118902701D02*
G75*
G03*
X108778274Y-119321314I-1205048J-1805818D01*
G01*
D13*
X110804884Y-114599189D02*
G75*
G03*
X108017136Y-115097651I-1144644J-1643100D01*
G01*
X111780539Y-119453888D02*
G75*
G03*
X108905526Y-119872501I-1205049J-1805818D01*
G01*
%TO.C,SW8*%
X209475006Y-37808722D02*
X214170114Y-36810746D01*
X213942640Y-35836756D02*
X213474838Y-33635924D01*
D18*
X212035208Y-35424321D02*
X205481619Y-36817329D01*
D13*
X213421632Y-33289414D02*
X205400821Y-34994290D01*
D16*
X205350775Y-36538439D02*
X205816497Y-38729490D01*
D13*
X214170114Y-36810746D02*
X213421632Y-33289414D01*
D15*
X213922507Y-36607791D02*
X212640519Y-36829169D01*
D13*
X203897678Y-38022996D02*
X204093307Y-37981414D01*
X203741744Y-37289385D02*
X203897678Y-38022996D01*
D15*
X204888810Y-40521527D02*
X207285272Y-40012143D01*
D13*
X204734763Y-40758739D02*
X207698550Y-40128766D01*
X203809556Y-36405982D02*
X204734763Y-40758739D01*
D19*
X203974702Y-37904390D02*
X203839559Y-37268594D01*
D17*
X213316492Y-33516231D02*
X212093808Y-33776120D01*
D21*
X213057305Y-33980259D02*
X213577085Y-36425628D01*
D20*
X204973159Y-40196896D02*
X204598918Y-38436231D01*
D13*
X205400821Y-34994290D02*
G75*
G03*
X203741744Y-37289386I318008J-1977085D01*
G01*
X209475006Y-37808723D02*
G75*
G03*
X207697688Y-40106999I387587J-2136093D01*
G01*
D21*
X209000582Y-37500627D02*
G75*
G03*
X207223264Y-39798905I387588J-2136094D01*
G01*
D16*
%TO.C,SW14*%
X94092066Y-64504503D02*
X93512312Y-66668177D01*
D15*
X101698050Y-68457781D02*
X100455288Y-68073020D01*
D13*
X91627220Y-67985154D02*
X94553975Y-68769376D01*
D21*
X102120025Y-65723839D02*
X101472977Y-68138654D01*
D15*
X91872169Y-67843733D02*
X94238687Y-68477839D01*
D13*
X102066031Y-67779924D02*
X102648374Y-65606591D01*
X92123373Y-65167561D02*
X92316558Y-65219324D01*
D18*
X100553739Y-66546486D02*
X94082036Y-64812398D01*
D13*
X97190087Y-67508695D02*
X101826531Y-68751026D01*
D17*
X102561627Y-65428056D02*
X101354219Y-65104532D01*
D13*
X92778965Y-63686784D02*
X91627220Y-67985154D01*
X92317487Y-64443116D02*
X92123373Y-65167561D01*
D19*
X92245847Y-65096850D02*
X92414080Y-64468998D01*
D13*
X101826531Y-68751026D02*
X102758279Y-65273693D01*
D20*
X92094704Y-67592778D02*
X92560578Y-65854112D01*
D13*
X102758279Y-65273693D02*
X94837687Y-63151377D01*
D21*
X96907244Y-67018797D02*
G75*
G03*
X94280246Y-68259691I-624423J-2079235D01*
G01*
D13*
X97190087Y-67508695D02*
G75*
G03*
X94563089Y-68749589I-624423J-2079234D01*
G01*
X94837687Y-63151377D02*
G75*
G03*
X92317487Y-64443117I-614231J-1905968D01*
G01*
%TO.C,D20*%
X254676655Y-65608554D02*
X254711554Y-66607945D01*
X252469270Y-65435486D02*
X252521619Y-66934572D01*
X255676046Y-65573655D02*
X255710945Y-66573046D01*
X254794044Y-66104760D02*
X255676046Y-65573655D01*
X257865981Y-65247028D02*
X252469270Y-65435486D01*
X255710945Y-66573046D02*
X254794044Y-66104760D01*
X257918330Y-66746114D02*
X257865981Y-65247028D01*
X252521619Y-66934572D02*
X257918330Y-66746114D01*
D15*
%TO.C,SW28*%
X212838810Y-77791527D02*
X215235272Y-77282143D01*
D13*
X222120114Y-74080746D02*
X221371632Y-70559414D01*
D20*
X212923159Y-77466896D02*
X212548918Y-75706231D01*
D21*
X221007305Y-71250259D02*
X221527085Y-73695628D01*
D13*
X221371632Y-70559414D02*
X213350821Y-72264290D01*
X211847678Y-75292996D02*
X212043307Y-75251414D01*
X217425006Y-75078722D02*
X222120114Y-74080746D01*
X212684763Y-78028739D02*
X215648550Y-77398766D01*
D18*
X219985208Y-72694321D02*
X213431619Y-74087329D01*
D13*
X211759556Y-73675982D02*
X212684763Y-78028739D01*
D17*
X221266492Y-70786231D02*
X220043808Y-71046120D01*
D13*
X221892640Y-73106756D02*
X221424838Y-70905924D01*
D15*
X221872507Y-73877791D02*
X220590519Y-74099169D01*
D13*
X211691744Y-74559385D02*
X211847678Y-75292996D01*
D16*
X213300775Y-73808439D02*
X213766497Y-75999490D01*
D19*
X211924702Y-75174390D02*
X211789559Y-74538594D01*
D21*
X216950582Y-74770627D02*
G75*
G03*
X215173264Y-77068905I387588J-2136094D01*
G01*
D13*
X213350821Y-72264290D02*
G75*
G03*
X211691744Y-74559386I318008J-1977085D01*
G01*
X217425006Y-75078723D02*
G75*
G03*
X215647688Y-77376999I387587J-2136093D01*
G01*
%TO.C,D4*%
X97077886Y-55355633D02*
X102293885Y-56753256D01*
X99493630Y-55226472D02*
X100492372Y-54976447D01*
X102682114Y-55304367D02*
X97466115Y-53906744D01*
X100233553Y-55942372D02*
X99493630Y-55226472D01*
X100492372Y-54976447D02*
X100233553Y-55942372D01*
X102293885Y-56753256D02*
X102682114Y-55304367D01*
X99526447Y-54717628D02*
X99267628Y-55683553D01*
X97466115Y-53906744D02*
X97077886Y-55355633D01*
%TO.C,D6*%
X172833630Y-62633528D02*
X173573553Y-61917628D01*
X176022114Y-62555633D02*
X175633885Y-61106744D01*
X173573553Y-61917628D02*
X173832372Y-62883553D01*
X170806115Y-63953256D02*
X176022114Y-62555633D01*
X170417886Y-62504367D02*
X170806115Y-63953256D01*
X175633885Y-61106744D02*
X170417886Y-62504367D01*
X172607628Y-62176447D02*
X172866447Y-63142372D01*
X173832372Y-62883553D02*
X172833630Y-62633528D01*
%TO.C,D35*%
X199127501Y-115431492D02*
X199581492Y-116322499D01*
X202546210Y-115092481D02*
X201865225Y-113755971D01*
X197053790Y-116207519D02*
X197734775Y-117544029D01*
X197734775Y-117544029D02*
X202546210Y-115092481D01*
X200018508Y-114977501D02*
X200472499Y-115868508D01*
X199443597Y-115831596D02*
X200018508Y-114977501D01*
X200472499Y-115868508D02*
X199443597Y-115831596D01*
X201865225Y-113755971D02*
X197053790Y-116207519D01*
D15*
%TO.C,SW21*%
X38169065Y-78330958D02*
X36871602Y-78235619D01*
D13*
X28250031Y-80135888D02*
X31278185Y-80241633D01*
D20*
X28617268Y-79648407D02*
X28680087Y-77849505D01*
D13*
X28405334Y-75688599D02*
X28250031Y-80135888D01*
D15*
X28456889Y-79942990D02*
X30905397Y-80028493D01*
D13*
X38375130Y-77587696D02*
X38453654Y-75339067D01*
X38485856Y-74989978D02*
X30290851Y-74703802D01*
D18*
X36624134Y-76726063D02*
X29928215Y-76492236D01*
D16*
X29868728Y-76189976D02*
X29790553Y-78428611D01*
D13*
X28125822Y-76529356D02*
X28099647Y-77278899D01*
D21*
X37965221Y-75572163D02*
X37877972Y-78070640D01*
D17*
X38328968Y-75184622D02*
X37079729Y-75140997D01*
D19*
X28203076Y-77182450D02*
X28225761Y-76532846D01*
D13*
X38360218Y-78587785D02*
X38485856Y-74989978D01*
X33563142Y-78420268D02*
X38360218Y-78587785D01*
X28099647Y-77278899D02*
X28299525Y-77285879D01*
D21*
X33177346Y-78006552D02*
G75*
G03*
X30896818Y-79806588I-140694J-2166408D01*
G01*
D13*
X33563142Y-78420268D02*
G75*
G03*
X31282615Y-80220304I-140693J-2166408D01*
G01*
X30290851Y-74703802D02*
G75*
G03*
X28125822Y-76529357I-169738J-1995290D01*
G01*
%TO.C,D14*%
X95463630Y-73886472D02*
X96462372Y-73636447D01*
X93047886Y-74015633D02*
X98263885Y-75413256D01*
X96203553Y-74602372D02*
X95463630Y-73886472D01*
X93436115Y-72566744D02*
X93047886Y-74015633D01*
X98263885Y-75413256D02*
X98652114Y-73964367D01*
X96462372Y-73636447D02*
X96203553Y-74602372D01*
X95496447Y-73377628D02*
X95237628Y-74343553D01*
X98652114Y-73964367D02*
X93436115Y-72566744D01*
D17*
%TO.C,SW31*%
X83412317Y-100007018D02*
X82298559Y-99439530D01*
D13*
X72185203Y-100234846D02*
X74884952Y-101610438D01*
D20*
X72724050Y-99948240D02*
X73541233Y-98344429D01*
D13*
X74205460Y-96269867D02*
X72185203Y-100234846D01*
D18*
X81215771Y-100683544D02*
X75246028Y-97641808D01*
D15*
X72454202Y-100147443D02*
X74637168Y-101259720D01*
D19*
X73390824Y-97538279D02*
X73685918Y-96959124D01*
D13*
X83636766Y-99896915D02*
X76330512Y-96174193D01*
X82002400Y-103104539D02*
X83636766Y-99896915D01*
X77725569Y-100925384D02*
X82002400Y-103104539D01*
D15*
X81937697Y-102790989D02*
X80802088Y-102156251D01*
D21*
X82918868Y-100204524D02*
X81783892Y-102432040D01*
D13*
X82438571Y-102204452D02*
X83460049Y-100199688D01*
X73596817Y-96913725D02*
X73256324Y-97581980D01*
D16*
X75319854Y-97342726D02*
X74302916Y-99338581D01*
D13*
X73256324Y-97581980D02*
X73434525Y-97672778D01*
X77725569Y-100925385D02*
G75*
G03*
X74897981Y-101592979I-1043075J-1903973D01*
G01*
D21*
X77550762Y-100387386D02*
G75*
G03*
X74723174Y-101054980I-1043075J-1903973D01*
G01*
D13*
X76330513Y-96174192D02*
G75*
G03*
X73596816Y-96913726I-997082J-1736613D01*
G01*
D18*
%TO.C,SW25*%
X114033739Y-92026486D02*
X107562036Y-90292398D01*
D13*
X115546031Y-93259924D02*
X116128374Y-91086591D01*
X105107220Y-93465154D02*
X108033975Y-94249376D01*
X106258965Y-89166784D02*
X105107220Y-93465154D01*
D20*
X105574704Y-93072778D02*
X106040578Y-91334112D01*
D13*
X110670087Y-92988695D02*
X115306531Y-94231026D01*
D15*
X115178050Y-93937781D02*
X113935288Y-93553020D01*
D13*
X116238279Y-90753693D02*
X108317687Y-88631377D01*
D17*
X116041627Y-90908056D02*
X114834219Y-90584532D01*
D16*
X107572066Y-89984503D02*
X106992312Y-92148177D01*
D13*
X105603373Y-90647561D02*
X105796558Y-90699324D01*
X115306531Y-94231026D02*
X116238279Y-90753693D01*
X105797487Y-89923116D02*
X105603373Y-90647561D01*
D19*
X105725847Y-90576850D02*
X105894080Y-89948998D01*
D21*
X115600025Y-91203839D02*
X114952977Y-93618654D01*
D15*
X105352169Y-93323733D02*
X107718687Y-93957839D01*
D21*
X110387244Y-92498797D02*
G75*
G03*
X107760246Y-93739691I-624423J-2079235D01*
G01*
D13*
X110670087Y-92988695D02*
G75*
G03*
X108043089Y-94229589I-624423J-2079234D01*
G01*
X108317687Y-88631377D02*
G75*
G03*
X105797487Y-89923117I-614231J-1905968D01*
G01*
%TO.C,SW30*%
X262331221Y-78280670D02*
X262205583Y-74682863D01*
D16*
X253693153Y-76481038D02*
X253771328Y-78719673D01*
D13*
X252004341Y-77690713D02*
X252204219Y-77683733D01*
D15*
X252546551Y-80323394D02*
X254995058Y-80237890D01*
D18*
X260469499Y-76544585D02*
X253773580Y-76778412D01*
D13*
X262205583Y-74682863D02*
X254010577Y-74969039D01*
D15*
X262122618Y-78037802D02*
X260821665Y-78033202D01*
D13*
X251978166Y-76941170D02*
X252004341Y-77690713D01*
D19*
X252100790Y-77587284D02*
X252078106Y-76937680D01*
D21*
X261726827Y-75299947D02*
X261814076Y-77798424D01*
D13*
X262276334Y-77281977D02*
X262197810Y-75033348D01*
X257534145Y-78448187D02*
X262331221Y-78280670D01*
X252353652Y-80530252D02*
X255381807Y-80424507D01*
D20*
X252685989Y-80018342D02*
X252623170Y-78219440D01*
D17*
X262062654Y-74887976D02*
X260813416Y-74931600D01*
D13*
X252198350Y-76082963D02*
X252353652Y-80530252D01*
D21*
X257120429Y-78062391D02*
G75*
G03*
X254971021Y-80017124I10771J-2170945D01*
G01*
D13*
X254010577Y-74969038D02*
G75*
G03*
X251978167Y-76941171I-30140J-2002270D01*
G01*
X257534145Y-78448188D02*
G75*
G03*
X255384737Y-80402920I10771J-2170945D01*
G01*
D14*
%TO.C,D43*%
X215271518Y-90428784D02*
X215032420Y-89303914D01*
X221268482Y-83531216D02*
X214128004Y-85048972D01*
X222411996Y-88911028D02*
X215271518Y-90428784D01*
D13*
%TO.C,D32*%
X92288508Y-116302499D02*
X91713597Y-115448404D01*
X94816210Y-116187519D02*
X90004775Y-113735971D01*
X91713597Y-115448404D02*
X92742499Y-115411492D01*
X94135225Y-117524029D02*
X94816210Y-116187519D01*
X89323790Y-115072481D02*
X94135225Y-117524029D01*
X92742499Y-115411492D02*
X92288508Y-116302499D01*
X91851492Y-114957501D02*
X91397501Y-115848508D01*
X90004775Y-113735971D02*
X89323790Y-115072481D01*
%TO.C,SW2*%
X62437076Y-36098393D02*
X67132185Y-37096369D01*
D15*
X57143981Y-36711289D02*
X59540442Y-37220673D01*
D13*
X57410714Y-33292027D02*
X57254780Y-34025638D01*
D19*
X57373386Y-33948614D02*
X57508529Y-33312818D01*
D18*
X65745760Y-34961462D02*
X59192171Y-33568454D01*
D20*
X57353076Y-36449032D02*
X57727317Y-34688367D01*
D13*
X67320533Y-36114063D02*
X67788335Y-33913231D01*
X67132185Y-37096369D02*
X67880667Y-33575037D01*
X57254780Y-34025638D02*
X57450410Y-34067220D01*
X67880667Y-33575037D02*
X59859855Y-31870161D01*
D15*
X66988533Y-36810249D02*
X65727337Y-36491057D01*
D13*
X57831976Y-32512580D02*
X56906769Y-36865337D01*
D16*
X59186074Y-33260455D02*
X58720352Y-35451506D01*
D21*
X67266846Y-34057970D02*
X66747067Y-36503339D01*
D17*
X67692362Y-33739480D02*
X66469678Y-33479590D01*
D13*
X56906769Y-36865337D02*
X59870556Y-37495309D01*
X62437076Y-36098394D02*
G75*
G03*
X59878622Y-37475073I-514749J-2109063D01*
G01*
D21*
X62128982Y-35623969D02*
G75*
G03*
X59570527Y-37000649I-514749J-2109065D01*
G01*
D13*
X59859855Y-31870159D02*
G75*
G03*
X57410714Y-33292028I-513637J-1935504D01*
G01*
D20*
%TO.C,SW27*%
X193946483Y-88846260D02*
X193480609Y-87107594D01*
D13*
X202021868Y-81506086D02*
X194101275Y-83628402D01*
X198317173Y-86225750D02*
X202953617Y-84983419D01*
X192564588Y-86007181D02*
X192758702Y-86731625D01*
D18*
X200749076Y-83710627D02*
X194277373Y-85444714D01*
D13*
X202675479Y-84022669D02*
X202093136Y-81849336D01*
X192586073Y-85121439D02*
X193737818Y-89419809D01*
D16*
X194132112Y-85173054D02*
X194711867Y-87336728D01*
D13*
X193737818Y-89419809D02*
X196664573Y-88635587D01*
X192758702Y-86731625D02*
X192951888Y-86679862D01*
D15*
X202695727Y-84793701D02*
X201427082Y-85081870D01*
D19*
X192829413Y-86609151D02*
X192661181Y-85981299D01*
D17*
X201928743Y-81738094D02*
X200721336Y-82061618D01*
D13*
X202953617Y-84983419D02*
X202021868Y-81506086D01*
D15*
X193879239Y-89174860D02*
X196245758Y-88540754D01*
D21*
X201694196Y-82215051D02*
X202341244Y-84629865D01*
D13*
X194101275Y-83628402D02*
G75*
G03*
X192564588Y-86007182I421045J-1957732D01*
G01*
X198317173Y-86225751D02*
G75*
G03*
X196662573Y-88613895I498850J-2112881D01*
G01*
D21*
X197827275Y-85942908D02*
G75*
G03*
X196172675Y-88331052I498851J-2112881D01*
G01*
D14*
%TO.C,D41*%
X142222200Y-107575800D02*
X142222200Y-106425800D01*
X149522200Y-107575800D02*
X142222200Y-107575800D01*
X149522200Y-102075800D02*
X142222200Y-102075800D01*
%TD*%
D22*
X151892000Y-76167500D03*
X116840000Y-62103000D03*
X59563000Y-42291000D03*
X78994000Y-43688000D03*
X39624000Y-44069000D03*
X209423000Y-44704000D03*
X98298000Y-54864000D03*
X190246000Y-55880000D03*
X171577000Y-63119000D03*
X164465000Y-66776500D03*
X228600000Y-43180000D03*
X248920000Y-44069000D03*
X74930000Y-62484000D03*
X112014000Y-80391000D03*
X93980000Y-73660000D03*
X194183000Y-74676000D03*
X35052000Y-66040000D03*
X232537000Y-61595000D03*
X176276000Y-81534000D03*
X55753000Y-61214000D03*
X253365000Y-66167000D03*
X213233000Y-63246000D03*
X31877000Y-84963000D03*
X217424000Y-81915000D03*
X51689000Y-79629000D03*
X89789000Y-92202000D03*
X180932397Y-100094308D03*
X256413000Y-85090000D03*
X198628000Y-93091000D03*
X137033000Y-96647000D03*
X70866000Y-81280000D03*
X107626943Y-99002057D03*
X236601000Y-80391000D03*
X175621015Y-100984985D03*
X104747508Y-103858508D03*
X204503803Y-49685580D03*
X157607000Y-72263000D03*
X149733000Y-103759000D03*
X246253000Y-54102000D03*
X191506581Y-101492113D03*
X91821000Y-50673000D03*
X128563885Y-67016115D03*
X139700000Y-98298000D03*
X76454000Y-86233000D03*
X220334860Y-84946468D03*
X145796000Y-104267000D03*
X241690000Y-57300000D03*
X79502000Y-88900000D03*
X140716000Y-79883000D03*
X140716000Y-90805000D03*
X161036000Y-90551000D03*
X86310000Y-52700000D03*
X140716000Y-94488000D03*
X140271500Y-102933500D03*
X200660000Y-53975000D03*
X98823500Y-104503500D03*
X70950000Y-88420000D03*
X164973000Y-68707000D03*
X141605000Y-104267000D03*
X188560000Y-106550000D03*
X216220000Y-89050000D03*
X45320000Y-63700000D03*
X86868000Y-49403000D03*
X75832865Y-89333148D03*
X100330000Y-101727000D03*
X103417113Y-106767887D03*
X138049000Y-102068500D03*
X148590000Y-105116500D03*
X187198000Y-103632000D03*
X193929000Y-100307500D03*
X215519000Y-85979000D03*
X229367229Y-66956156D03*
X237363000Y-66129500D03*
X206025618Y-49053618D03*
X246380000Y-57150000D03*
X208564096Y-75729317D03*
X124841000Y-67437000D03*
X34409961Y-52458039D03*
X47942500Y-72199500D03*
X48246729Y-62369159D03*
X113411000Y-85090000D03*
X66929000Y-74168000D03*
X66171299Y-64511701D03*
X113030000Y-86233000D03*
X70993000Y-50673000D03*
X70739000Y-55499000D03*
X86232500Y-70993000D03*
X94488000Y-47752000D03*
X109982000Y-84746500D03*
X169739015Y-76840281D03*
X189097305Y-83560305D03*
X164865261Y-88026500D03*
X165735000Y-88519000D03*
X209550000Y-75565000D03*
X166878000Y-88519000D03*
X230124000Y-66204500D03*
X168148000Y-88519000D03*
X247904000Y-66167000D03*
X43640000Y-72840000D03*
X79860000Y-93140000D03*
X123930000Y-104700000D03*
X107770000Y-63140000D03*
X182146903Y-76145199D03*
X172902422Y-75992649D03*
X172333097Y-78774801D03*
X178378651Y-71895696D03*
X177240000Y-77460000D03*
X190752422Y-69052649D03*
X195090000Y-70520000D03*
X196228651Y-64955696D03*
X199996903Y-69205199D03*
X190183097Y-71834801D03*
X132867400Y-75233600D03*
X132867400Y-68733600D03*
X225385162Y-37437649D03*
X224671010Y-40186191D03*
X234608990Y-38073809D03*
X231068304Y-33632914D03*
X229640000Y-39130000D03*
X130030000Y-81850000D03*
X232581010Y-77476191D03*
X242518990Y-75363809D03*
X238978304Y-70922914D03*
X237550000Y-76420000D03*
X233295162Y-74727649D03*
X219408990Y-58223809D03*
X210185162Y-57587649D03*
X214440000Y-59280000D03*
X209471010Y-60336191D03*
X215868304Y-53782914D03*
X46478905Y-40512489D03*
X41402000Y-40335200D03*
X44117742Y-35346939D03*
X37682966Y-37663780D03*
X36325095Y-40157911D03*
X118180000Y-112800000D03*
X228651010Y-58806191D03*
X229365162Y-56057649D03*
X233620000Y-57750000D03*
X235048304Y-52252914D03*
X238588990Y-56693809D03*
X255571705Y-40157911D03*
X252855963Y-35169650D03*
X245417895Y-40512489D03*
X246598476Y-37929714D03*
X250494800Y-40335200D03*
X202706313Y-110123728D03*
X193632129Y-111896547D03*
X198136885Y-106750551D03*
X198180000Y-112430000D03*
X193653687Y-114736272D03*
X61833686Y-53293306D03*
X63261990Y-58790391D03*
X58293000Y-57734200D03*
X53324010Y-56678009D03*
X55094353Y-54457562D03*
X186536903Y-94685199D03*
X176723097Y-97314801D03*
X181630000Y-96000000D03*
X177292422Y-94532649D03*
X182768651Y-90435696D03*
X97800000Y-48410000D03*
X95915874Y-50534751D03*
X105729680Y-53164353D03*
X104591029Y-47600049D03*
X100822777Y-51849552D03*
X91478401Y-108447140D03*
X89193687Y-110133728D03*
X93720000Y-112440000D03*
X98289428Y-109066823D03*
X98246313Y-114746272D03*
X89407223Y-85600448D03*
X97336903Y-90354801D03*
X92430000Y-89040000D03*
X96198252Y-84790497D03*
X87523097Y-87725199D03*
X210633687Y-106096272D03*
X219686313Y-101483728D03*
X215160000Y-103790000D03*
X210612129Y-103256547D03*
X215116885Y-98110551D03*
X119576903Y-78774801D03*
X118438252Y-73210497D03*
X114670000Y-77460000D03*
X109763097Y-76145199D03*
X111647223Y-74020448D03*
X51310000Y-46520000D03*
X257453363Y-57318450D03*
X260169105Y-62306711D03*
X251195876Y-60078514D03*
X255092200Y-62484000D03*
X250015295Y-62661289D03*
X173720000Y-112810000D03*
X72475610Y-58227409D03*
X77444600Y-59283600D03*
X74245953Y-56006962D03*
X80985286Y-54842706D03*
X82413590Y-60339791D03*
X186732422Y-50372649D03*
X195976903Y-50525199D03*
X191070000Y-51840000D03*
X186163097Y-53154801D03*
X192208651Y-46275696D03*
X68487810Y-76896409D03*
X73456800Y-77952600D03*
X78425790Y-79008791D03*
X70258153Y-74675962D03*
X76997486Y-73511706D03*
X59299590Y-77459391D03*
X49361610Y-75347009D03*
X54330600Y-76403200D03*
X51131953Y-73126562D03*
X57871286Y-71962306D03*
X185668084Y-119508010D03*
X181360000Y-122200000D03*
X180822052Y-116545921D03*
X177051916Y-124891990D03*
X176782942Y-122064950D03*
X211990000Y-93130000D03*
X240550000Y-46520000D03*
X184110000Y-63170000D03*
X173448651Y-53475696D03*
X167972422Y-57572649D03*
X167403097Y-60354801D03*
X177216903Y-57725199D03*
X172310000Y-59040000D03*
X124496903Y-60364801D03*
X116567223Y-55610448D03*
X119590000Y-59050000D03*
X123358252Y-54800497D03*
X114683097Y-57735199D03*
X78182953Y-37363362D03*
X81381600Y-40640000D03*
X84922286Y-36199106D03*
X86350590Y-41696191D03*
X76412610Y-39583809D03*
X39494942Y-57495739D03*
X41856105Y-62661289D03*
X36779200Y-62484000D03*
X33060166Y-59812580D03*
X31702295Y-62306711D03*
X110530000Y-122210000D03*
X114838084Y-124901990D03*
X115376032Y-119247911D03*
X106221916Y-119518010D03*
X108644932Y-118036965D03*
X215458990Y-39603809D03*
X211918304Y-35162914D03*
X210490000Y-40660000D03*
X205521010Y-41716191D03*
X206235162Y-38967649D03*
X153534400Y-68069000D03*
X153534400Y-70609000D03*
X153534400Y-73149000D03*
X153534400Y-75689000D03*
X153534400Y-78229000D03*
X153534400Y-80769000D03*
X153534400Y-83309000D03*
X153534400Y-85849000D03*
X153534400Y-88389000D03*
X153534400Y-90929000D03*
X153534400Y-93469000D03*
X153534400Y-96009000D03*
X138314400Y-96009000D03*
X138314400Y-93469000D03*
X138314400Y-90929000D03*
X138314400Y-88389000D03*
X138314400Y-85849000D03*
X138314400Y-83309000D03*
X138314400Y-80769000D03*
X138314400Y-78229000D03*
X138314400Y-75689000D03*
X138314400Y-73149000D03*
X138314400Y-70609000D03*
X138314400Y-68069000D03*
X96800000Y-70510000D03*
X100568252Y-66260497D03*
X93777223Y-67070448D03*
X91893097Y-69195199D03*
X101706903Y-71824801D03*
X161840000Y-81870000D03*
X219868304Y-72432914D03*
X223408990Y-76873809D03*
X213471010Y-78986191D03*
X218440000Y-77930000D03*
X214185162Y-76237649D03*
X33858200Y-81432400D03*
X28781295Y-81255111D03*
X30139166Y-78760980D03*
X36573942Y-76444139D03*
X38935105Y-81609689D03*
X81289428Y-100406823D03*
X74478401Y-99787140D03*
X81246313Y-106086272D03*
X72193687Y-101473728D03*
X76720000Y-103780000D03*
X110280000Y-95990000D03*
X105373097Y-94675199D03*
X114048252Y-91740497D03*
X107257223Y-92550448D03*
X115186903Y-97304801D03*
X263115505Y-81255111D03*
X260399763Y-76266850D03*
X252961695Y-81609689D03*
X254142276Y-79026914D03*
X258038600Y-81432400D03*
X57235610Y-38059809D03*
X65745286Y-34675106D03*
X67173590Y-40172191D03*
X62204600Y-39116000D03*
X59005953Y-35839362D03*
X248240000Y-72820000D03*
X204386903Y-87705199D03*
X199480000Y-89020000D03*
X195142422Y-87552649D03*
X200618651Y-83455696D03*
X194573097Y-90334801D03*
X167970000Y-104700000D03*
%LPC*%
D23*
%TO.C,D11*%
X34878281Y-66028853D03*
X38426119Y-66152747D03*
%TD*%
D24*
%TO.C,2*%
X43640000Y-72840000D03*
%TD*%
%TO.C,4*%
X79860000Y-93140000D03*
%TD*%
%TO.C,6*%
X123930000Y-104700000D03*
%TD*%
D25*
%TO.C,D12*%
X55794788Y-60895757D03*
X59267212Y-61633843D03*
%TD*%
D23*
%TO.C,D21*%
X31931881Y-84977253D03*
X35479719Y-85101147D03*
%TD*%
D26*
%TO.C,D42*%
X191506581Y-101492113D03*
X192959351Y-104343334D03*
X188593419Y-106567887D03*
X187140649Y-103716666D03*
%TD*%
D24*
%TO.C,3*%
X107770000Y-63140000D03*
%TD*%
D27*
%TO.C,SW16*%
X182146903Y-76145199D03*
D28*
X172902422Y-75992649D03*
D27*
X172333097Y-78774801D03*
D28*
X178378651Y-71895696D03*
D29*
X177240000Y-77460000D03*
D30*
X169739015Y-76840281D03*
X181568138Y-71041076D03*
%TD*%
D28*
%TO.C,SW17*%
X190752422Y-69052649D03*
D29*
X195090000Y-70520000D03*
D28*
X196228651Y-64955696D03*
D27*
X199996903Y-69205199D03*
X190183097Y-71834801D03*
D30*
X187589015Y-69900281D03*
X199418138Y-64101076D03*
%TD*%
D28*
%TO.C,SW9*%
X225385162Y-37437649D03*
D27*
X224671010Y-40186191D03*
X234608990Y-38073809D03*
D28*
X231068304Y-33632914D03*
D29*
X229640000Y-39130000D03*
D31*
X222181729Y-38118559D03*
X234298147Y-32946390D03*
%TD*%
D25*
%TO.C,D3*%
X78883388Y-43801557D03*
X82355812Y-44539643D03*
%TD*%
D24*
%TO.C,5*%
X130030000Y-81850000D03*
%TD*%
D25*
%TO.C,D2*%
X59706388Y-42252157D03*
X63178812Y-42990243D03*
%TD*%
D27*
%TO.C,SW29*%
X232581010Y-77476191D03*
X242518990Y-75363809D03*
D28*
X238978304Y-70922914D03*
D29*
X237550000Y-76420000D03*
D28*
X233295162Y-74727649D03*
D31*
X230091729Y-75408559D03*
X242208147Y-70236390D03*
%TD*%
D32*
%TO.C,D17*%
X194285482Y-74459404D03*
X197714518Y-73540596D03*
%TD*%
D33*
%TO.C,D8*%
X209473788Y-44559043D03*
X212946212Y-43820957D03*
%TD*%
D34*
%TO.C,D45*%
X204503803Y-49685580D03*
X205169120Y-52815653D03*
X200376197Y-53834420D03*
X199710880Y-50704347D03*
%TD*%
D27*
%TO.C,SW18*%
X219408990Y-58223809D03*
D28*
X210185162Y-57587649D03*
D29*
X214440000Y-59280000D03*
D27*
X209471010Y-60336191D03*
D28*
X215868304Y-53782914D03*
D31*
X206981729Y-58268559D03*
X219098147Y-53096390D03*
%TD*%
D35*
%TO.C,D5*%
X116925482Y-62060596D03*
X120354518Y-62979404D03*
%TD*%
D27*
%TO.C,SW1*%
X46478905Y-40512489D03*
D29*
X41402000Y-40335200D03*
D28*
X44117742Y-35346939D03*
X37682966Y-37663780D03*
D27*
X36325095Y-40157911D03*
D36*
X34409961Y-37549484D03*
X47417731Y-35462177D03*
%TD*%
D24*
%TO.C,7*%
X118180000Y-112800000D03*
%TD*%
D27*
%TO.C,SW19*%
X228651010Y-58806191D03*
D28*
X229365162Y-56057649D03*
D29*
X233620000Y-57750000D03*
D28*
X235048304Y-52252914D03*
D27*
X238588990Y-56693809D03*
D31*
X226161729Y-56738559D03*
X238278147Y-51566390D03*
%TD*%
D23*
%TO.C,D1*%
X39475681Y-43854653D03*
X43023519Y-43978547D03*
%TD*%
D27*
%TO.C,SW10*%
X255571705Y-40157911D03*
D28*
X252855963Y-35169650D03*
D27*
X245417895Y-40512489D03*
D28*
X246598476Y-37929714D03*
D29*
X250494800Y-40335200D03*
D37*
X243325471Y-38044010D03*
X256155952Y-35054412D03*
%TD*%
D27*
%TO.C,SW35*%
X202706313Y-110123728D03*
D28*
X193632129Y-111896547D03*
X198136885Y-106750551D03*
D29*
X198180000Y-112430000D03*
D27*
X193653687Y-114736272D03*
D38*
X190714083Y-113383366D03*
X201078988Y-105251474D03*
%TD*%
D39*
%TO.C,D37*%
X91779120Y-50494347D03*
X91113803Y-53624420D03*
X86320880Y-52605653D03*
X86986197Y-49475580D03*
%TD*%
D28*
%TO.C,SW12*%
X61833686Y-53293306D03*
D27*
X63261990Y-58790391D03*
D29*
X58293000Y-57734200D03*
D27*
X53324010Y-56678009D03*
D28*
X55094353Y-54457562D03*
D40*
X51890920Y-53776651D03*
X65063530Y-53979830D03*
%TD*%
D41*
%TO.C,D33*%
X107081360Y-124313266D03*
X110058640Y-126246734D03*
%TD*%
D27*
%TO.C,SW26*%
X186536903Y-94685199D03*
X176723097Y-97314801D03*
D29*
X181630000Y-96000000D03*
D28*
X177292422Y-94532649D03*
X182768651Y-90435696D03*
D30*
X174129015Y-95380281D03*
X185958138Y-89581076D03*
%TD*%
D32*
%TO.C,D7*%
X190265482Y-55779404D03*
X193694518Y-54860596D03*
%TD*%
D35*
%TO.C,D15*%
X112005482Y-80470596D03*
X115434518Y-81389404D03*
%TD*%
D28*
%TO.C,SW4*%
X97800000Y-48410000D03*
D27*
X95915874Y-50534751D03*
X105729680Y-53164353D03*
D28*
X104591029Y-47600049D03*
D29*
X100822777Y-51849552D03*
D42*
X94636593Y-47562367D03*
X107780516Y-48454670D03*
%TD*%
D43*
%TO.C,D36*%
X215188463Y-107815833D03*
X218351537Y-106204167D03*
%TD*%
D28*
%TO.C,SW32*%
X91478401Y-108447140D03*
D27*
X89193687Y-110133728D03*
D29*
X93720000Y-112440000D03*
D28*
X98289428Y-109066823D03*
D27*
X98246313Y-114746272D03*
D44*
X88560355Y-106960321D03*
X101231532Y-110565899D03*
%TD*%
D45*
%TO.C,D44*%
X246362668Y-53985471D03*
X246474347Y-57183522D03*
X241577332Y-57354529D03*
X241465653Y-54156478D03*
%TD*%
D28*
%TO.C,SW24*%
X89407223Y-85600448D03*
D27*
X97336903Y-90354801D03*
D29*
X92430000Y-89040000D03*
D28*
X96198252Y-84790497D03*
D27*
X87523097Y-87725199D03*
D42*
X86243816Y-84752815D03*
X99387739Y-85645118D03*
%TD*%
D46*
%TO.C,D34*%
X181744715Y-126200607D03*
X184755285Y-124319393D03*
%TD*%
D27*
%TO.C,SW36*%
X210633687Y-106096272D03*
X219686313Y-101483728D03*
D29*
X215160000Y-103790000D03*
D28*
X210612129Y-103256547D03*
X215116885Y-98110551D03*
D38*
X207694083Y-104743366D03*
X218058988Y-96611474D03*
%TD*%
D25*
%TO.C,D22*%
X51832388Y-79539357D03*
X55304812Y-80277443D03*
%TD*%
D27*
%TO.C,SW15*%
X119576903Y-78774801D03*
D28*
X118438252Y-73210497D03*
D29*
X114670000Y-77460000D03*
D27*
X109763097Y-76145199D03*
D28*
X111647223Y-74020448D03*
D42*
X108483816Y-73172815D03*
X121627739Y-74065118D03*
%TD*%
D47*
%TO.C,D10*%
X248822481Y-44003947D03*
X252370319Y-43880053D03*
%TD*%
D24*
%TO.C,1*%
X51310000Y-46520000D03*
%TD*%
D33*
%TO.C,D29*%
X236543788Y-80309043D03*
X240016212Y-79570957D03*
%TD*%
D28*
%TO.C,SW20*%
X257453363Y-57318450D03*
D27*
X260169105Y-62306711D03*
D28*
X251195876Y-60078514D03*
D29*
X255092200Y-62484000D03*
D27*
X250015295Y-62661289D03*
D37*
X247922871Y-60192810D03*
X260753352Y-57203212D03*
%TD*%
D24*
%TO.C,10*%
X173720000Y-112810000D03*
%TD*%
D32*
%TO.C,D16*%
X176435482Y-81409404D03*
X179864518Y-80490596D03*
%TD*%
D33*
%TO.C,D28*%
X217433788Y-81819043D03*
X220906212Y-81080957D03*
%TD*%
D27*
%TO.C,SW13*%
X72475610Y-58227409D03*
D29*
X77444600Y-59283600D03*
D28*
X74245953Y-56006962D03*
X80985286Y-54842706D03*
D27*
X82413590Y-60339791D03*
D40*
X71042520Y-55326051D03*
X84215130Y-55529230D03*
%TD*%
D28*
%TO.C,SW7*%
X186732422Y-50372649D03*
D27*
X195976903Y-50525199D03*
D29*
X191070000Y-51840000D03*
D27*
X186163097Y-53154801D03*
D28*
X192208651Y-46275696D03*
D30*
X183569015Y-51220281D03*
X195398138Y-45421076D03*
%TD*%
D47*
%TO.C,D30*%
X256366281Y-85101147D03*
X259914119Y-84977253D03*
%TD*%
D48*
%TO.C,D40*%
X104689351Y-103916666D03*
X103236581Y-106767887D03*
X98870649Y-104543334D03*
X100323419Y-101692113D03*
%TD*%
D49*
%TO.C,D38*%
X50324347Y-60746478D03*
X50212668Y-63944529D03*
X45315653Y-63773522D03*
X45427332Y-60575471D03*
%TD*%
D27*
%TO.C,SW23*%
X68487810Y-76896409D03*
D29*
X73456800Y-77952600D03*
D27*
X78425790Y-79008791D03*
D28*
X70258153Y-74675962D03*
X76997486Y-73511706D03*
D40*
X67054720Y-73995051D03*
X80227330Y-74198230D03*
%TD*%
D25*
%TO.C,D13*%
X74946388Y-62445157D03*
X78418812Y-63183243D03*
%TD*%
D27*
%TO.C,SW22*%
X59299590Y-77459391D03*
X49361610Y-75347009D03*
D29*
X54330600Y-76403200D03*
D28*
X51131953Y-73126562D03*
X57871286Y-71962306D03*
D40*
X47928520Y-72445651D03*
X61101130Y-72648830D03*
%TD*%
D27*
%TO.C,SW34*%
X185668084Y-119508010D03*
D29*
X181360000Y-122200000D03*
D28*
X180822052Y-116545921D03*
D27*
X177051916Y-124891990D03*
D28*
X176782942Y-122064950D03*
D50*
X174005584Y-123800436D03*
X183622307Y-114796127D03*
%TD*%
D24*
%TO.C,12*%
X211990000Y-93130000D03*
%TD*%
D25*
%TO.C,D23*%
X70958588Y-81088757D03*
X74431012Y-81826843D03*
%TD*%
D33*
%TO.C,D9*%
X228633788Y-43019043D03*
X232106212Y-42280957D03*
%TD*%
D24*
%TO.C,13*%
X240550000Y-46520000D03*
%TD*%
%TO.C,11*%
X184110000Y-63170000D03*
%TD*%
D32*
%TO.C,D27*%
X198675482Y-92959404D03*
X202104518Y-92040596D03*
%TD*%
D33*
%TO.C,D18*%
X213433788Y-63169043D03*
X216906212Y-62430957D03*
%TD*%
D28*
%TO.C,SW6*%
X173448651Y-53475696D03*
X167972422Y-57572649D03*
D27*
X167403097Y-60354801D03*
X177216903Y-57725199D03*
D29*
X172310000Y-59040000D03*
D30*
X164809015Y-58420281D03*
X176638138Y-52621076D03*
%TD*%
D33*
%TO.C,D19*%
X232613788Y-61639043D03*
X236086212Y-60900957D03*
%TD*%
D51*
%TO.C,D31*%
X73488463Y-106164167D03*
X76651537Y-107775833D03*
%TD*%
D27*
%TO.C,SW5*%
X124496903Y-60364801D03*
D28*
X116567223Y-55610448D03*
D29*
X119590000Y-59050000D03*
D28*
X123358252Y-54800497D03*
D27*
X114683097Y-57735199D03*
D42*
X113403816Y-54762815D03*
X126547739Y-55655118D03*
%TD*%
D35*
%TO.C,D25*%
X107625482Y-99000596D03*
X111054518Y-99919404D03*
%TD*%
%TO.C,D24*%
X89765482Y-92060596D03*
X93194518Y-92979404D03*
%TD*%
D39*
%TO.C,D39*%
X76479120Y-86174347D03*
X75813803Y-89304420D03*
X71020880Y-88285653D03*
X71686197Y-85155580D03*
%TD*%
D28*
%TO.C,SW3*%
X78182953Y-37363362D03*
D29*
X81381600Y-40640000D03*
D28*
X84922286Y-36199106D03*
D27*
X86350590Y-41696191D03*
X76412610Y-39583809D03*
D40*
X74979520Y-36682451D03*
X88152130Y-36885630D03*
%TD*%
D28*
%TO.C,SW11*%
X39494942Y-57495739D03*
D27*
X41856105Y-62661289D03*
D29*
X36779200Y-62484000D03*
D28*
X33060166Y-59812580D03*
D27*
X31702295Y-62306711D03*
D36*
X29787161Y-59698284D03*
X42794931Y-57610977D03*
%TD*%
D32*
%TO.C,D26*%
X180815482Y-99939404D03*
X184244518Y-99020596D03*
%TD*%
D29*
%TO.C,SW33*%
X110530000Y-122210000D03*
D27*
X114838084Y-124901990D03*
D28*
X115376032Y-119247911D03*
D27*
X106221916Y-119518010D03*
D28*
X108644932Y-118036965D03*
D52*
X105867574Y-116301480D03*
X118176287Y-120997704D03*
%TD*%
D27*
%TO.C,SW8*%
X215458990Y-39603809D03*
D28*
X211918304Y-35162914D03*
D29*
X210490000Y-40660000D03*
D27*
X205521010Y-41716191D03*
D28*
X206235162Y-38967649D03*
D31*
X203031729Y-39648559D03*
X215148147Y-34476390D03*
%TD*%
D53*
%TO.C,U1*%
X153534400Y-68069000D03*
X153534400Y-70609000D03*
X153534400Y-73149000D03*
X153534400Y-75689000D03*
X153534400Y-78229000D03*
X153534400Y-80769000D03*
X153534400Y-83309000D03*
X153534400Y-85849000D03*
X153534400Y-88389000D03*
X153534400Y-90929000D03*
X153534400Y-93469000D03*
X153534400Y-96009000D03*
X138314400Y-96009000D03*
X138314400Y-93469000D03*
X138314400Y-90929000D03*
X138314400Y-88389000D03*
X138314400Y-85849000D03*
X138314400Y-83309000D03*
X138314400Y-80769000D03*
X138314400Y-78229000D03*
X138314400Y-75689000D03*
X138314400Y-73149000D03*
X138314400Y-70609000D03*
X138314400Y-68069000D03*
%TD*%
D29*
%TO.C,SW14*%
X96800000Y-70510000D03*
D28*
X100568252Y-66260497D03*
X93777223Y-67070448D03*
D27*
X91893097Y-69195199D03*
X101706903Y-71824801D03*
D42*
X90613816Y-66222815D03*
X103757739Y-67115118D03*
%TD*%
D47*
%TO.C,D20*%
X253419881Y-66152747D03*
X256967719Y-66028853D03*
%TD*%
D24*
%TO.C,8*%
X161840000Y-81870000D03*
%TD*%
D28*
%TO.C,SW28*%
X219868304Y-72432914D03*
D27*
X223408990Y-76873809D03*
X213471010Y-78986191D03*
D29*
X218440000Y-77930000D03*
D28*
X214185162Y-76237649D03*
D31*
X210981729Y-76918559D03*
X223098147Y-71746390D03*
%TD*%
D35*
%TO.C,D4*%
X98165482Y-54870596D03*
X101594518Y-55789404D03*
%TD*%
D32*
%TO.C,D6*%
X171505482Y-62989404D03*
X174934518Y-62070596D03*
%TD*%
D43*
%TO.C,D35*%
X198218463Y-116455833D03*
X201381537Y-114844167D03*
%TD*%
D29*
%TO.C,SW21*%
X33858200Y-81432400D03*
D27*
X28781295Y-81255111D03*
D28*
X30139166Y-78760980D03*
X36573942Y-76444139D03*
D27*
X38935105Y-81609689D03*
D36*
X26866161Y-78646684D03*
X39873931Y-76559377D03*
%TD*%
D35*
%TO.C,D14*%
X94135482Y-73530596D03*
X97564518Y-74449404D03*
%TD*%
D28*
%TO.C,SW31*%
X81289428Y-100406823D03*
X74478401Y-99787140D03*
D27*
X81246313Y-106086272D03*
X72193687Y-101473728D03*
D29*
X76720000Y-103780000D03*
D44*
X71560355Y-98300321D03*
X84231532Y-101905899D03*
%TD*%
D29*
%TO.C,SW25*%
X110280000Y-95990000D03*
D27*
X105373097Y-94675199D03*
D28*
X114048252Y-91740497D03*
X107257223Y-92550448D03*
D27*
X115186903Y-97304801D03*
D42*
X104093816Y-91702815D03*
X117237739Y-92595118D03*
%TD*%
D27*
%TO.C,SW30*%
X263115505Y-81255111D03*
D28*
X260399763Y-76266850D03*
D27*
X252961695Y-81609689D03*
D28*
X254142276Y-79026914D03*
D29*
X258038600Y-81432400D03*
D37*
X250869271Y-79141210D03*
X263699752Y-76151612D03*
%TD*%
D34*
%TO.C,D43*%
X220333803Y-84905580D03*
X220999120Y-88035653D03*
X216206197Y-89054420D03*
X215540880Y-85924347D03*
%TD*%
D51*
%TO.C,D32*%
X90488463Y-114824167D03*
X93651537Y-116435833D03*
%TD*%
D27*
%TO.C,SW2*%
X57235610Y-38059809D03*
D28*
X65745286Y-34675106D03*
D27*
X67173590Y-40172191D03*
D29*
X62204600Y-39116000D03*
D28*
X59005953Y-35839362D03*
D40*
X55802520Y-35158451D03*
X68975130Y-35361630D03*
%TD*%
D24*
%TO.C,14*%
X248240000Y-72820000D03*
%TD*%
D27*
%TO.C,SW27*%
X204386903Y-87705199D03*
D29*
X199480000Y-89020000D03*
D28*
X195142422Y-87552649D03*
X200618651Y-83455696D03*
D27*
X194573097Y-90334801D03*
D30*
X191979015Y-88400281D03*
X203808138Y-82601076D03*
%TD*%
D54*
%TO.C,D41*%
X148322200Y-103225800D03*
X148322200Y-106425800D03*
X143422200Y-106425800D03*
X143422200Y-103225800D03*
%TD*%
D24*
%TO.C,9*%
X167970000Y-104700000D03*
%TD*%
M02*
