M48
METRIC,TZ
T1C1.900
T2C3.000
T3C4.100
T4C4.300
%
G90
G05
T1
X28781Y-81255
X31702Y-62307
X36325Y-40158
X38935Y-81610
X41856Y-62661
X46479Y-40512
X49362Y-75347
X53324Y-56678
X57236Y-38060
X59300Y-77459
X63262Y-58790
X67174Y-40172
X68488Y-76896
X72194Y-101474
X72476Y-58227
X76413Y-39584
X78426Y-79009
X81246Y-106086
X82414Y-60340
X86351Y-41696
X87523Y-87725
X89194Y-110134
X91893Y-69195
X95916Y-50535
X97337Y-90355
X98246Y-114746
X101707Y-71825
X105373Y-94675
X105730Y-53164
X106222Y-119518
X109763Y-76145
X114683Y-57735
X114838Y-124902
X115187Y-97305
X119577Y-78775
X124497Y-60365
X167403Y-60355
X172333Y-78775
X176723Y-97315
X177052Y-124892
X177217Y-57725
X182147Y-76145
X185668Y-119508
X186163Y-53155
X186537Y-94685
X190183Y-71835
X193654Y-114736
X194573Y-90335
X195977Y-50525
X199997Y-69205
X202706Y-110124
X204387Y-87705
X205521Y-41716
X209471Y-60336
X210634Y-106096
X213471Y-78986
X215459Y-39604
X219409Y-58224
X219686Y-101484
X223409Y-76874
X224671Y-40186
X228651Y-58806
X232581Y-77476
X234609Y-38074
X238589Y-56694
X242519Y-75364
X245418Y-40512
X250015Y-62661
X252962Y-81610
X255572Y-40158
X260169Y-62307
X263116Y-81255
T2
X30139Y-78761
X33060Y-59813
X36574Y-76444
X37683Y-37664
X39495Y-57496
X44118Y-35347
X51132Y-73127
X55094Y-54458
X57871Y-71962
X59006Y-35839
X61834Y-53293
X65745Y-34675
X70258Y-74676
X74246Y-56007
X74478Y-99787
X76997Y-73512
X78183Y-37363
X80985Y-54843
X81289Y-100407
X84922Y-36199
X89407Y-85600
X91478Y-108447
X93777Y-67070
X96198Y-84790
X97800Y-48410
X98289Y-109067
X100568Y-66260
X104591Y-47600
X107257Y-92550
X108645Y-118037
X111647Y-74020
X114048Y-91740
X115376Y-119248
X116567Y-55610
X118438Y-73210
X123358Y-54800
X167972Y-57573
X172902Y-75993
X173449Y-53476
X176783Y-122065
X177292Y-94533
X178379Y-71896
X180822Y-116546
X182769Y-90436
X186732Y-50373
X190752Y-69053
X192209Y-46276
X193632Y-111897
X195142Y-87553
X196229Y-64956
X198137Y-106751
X200619Y-83456
X206235Y-38968
X210185Y-57588
X210612Y-103257
X211918Y-35163
X214185Y-76238
X215117Y-98111
X215868Y-53783
X219868Y-72433
X225385Y-37438
X229365Y-56058
X231068Y-33633
X233295Y-74728
X235048Y-52253
X238978Y-70923
X246598Y-37930
X251196Y-60079
X252856Y-35170
X254142Y-79027
X257453Y-57318
X260400Y-76267
T3
X33858Y-81432
X36779Y-62484
X41402Y-40335
X54331Y-76403
X58293Y-57734
X62205Y-39116
X73457Y-77953
X76720Y-103780
X77445Y-59284
X81382Y-40640
X92430Y-89040
X93720Y-112440
X96800Y-70510
X100823Y-51850
X110280Y-95990
X110530Y-122210
X114670Y-77460
X119590Y-59050
X172310Y-59040
X177240Y-77460
X181360Y-122200
X181630Y-96000
X191070Y-51840
X195090Y-70520
X198180Y-112430
X199480Y-89020
X210490Y-40660
X214440Y-59280
X215160Y-103790
X218440Y-77930
X229640Y-39130
X233620Y-57750
X237550Y-76420
X250495Y-40335
X255092Y-62484
X258039Y-81432
T4
X43640Y-72840
X51310Y-46520
X79860Y-93140
X107770Y-63140
X118180Y-112800
X123930Y-104700
X130030Y-81850
X161840Y-81870
X167970Y-104700
X173720Y-112810
X184110Y-63170
X211990Y-93130
X240550Y-46520
X248240Y-72820
T0
M30
