<?xml version="1.0" encoding="UTF-8" standalone="no"?>
<!-- Created with Inkscape (http://www.inkscape.org/) -->

<svg
   width="600mm"
   height="300mm"
   viewBox="0 0 600 300"
   version="1.1"
   id="svg1"
   xml:space="preserve"
   inkscape:version="1.3-dev (eafafb3255, 2022-07-08, custom)"
   sodipodi:docname="600_300.svg"
   xmlns:inkscape="http://www.inkscape.org/namespaces/inkscape"
   xmlns:sodipodi="http://sodipodi.sourceforge.net/DTD/sodipodi-0.dtd"
   xmlns="http://www.w3.org/2000/svg"
   xmlns:svg="http://www.w3.org/2000/svg"><sodipodi:namedview
     id="namedview1"
     pagecolor="#505050"
     bordercolor="#eeeeee"
     borderopacity="1"
     inkscape:showpageshadow="0"
     inkscape:pageopacity="0"
     inkscape:pagecheckerboard="0"
     inkscape:deskcolor="#505050"
     inkscape:document-units="mm"
     showgrid="false"
     inkscape:zoom="0.65701509"
     inkscape:cx="907.13289"
     inkscape:cy="740.47005"
     inkscape:window-width="2560"
     inkscape:window-height="1375"
     inkscape:window-x="0"
     inkscape:window-y="0"
     inkscape:window-maximized="1"
     inkscape:current-layer="layer1" /><defs
     id="defs1" /><g
     inkscape:label="Layer 1"
     inkscape:groupmode="layer"
     id="layer1"><g
       id="Sketch182"
       transform="matrix(0,1,1,0,120.72495,146.34853)"
       style="fill:none;fill-opacity:1;stroke:#ff0000;stroke-opacity:1;stroke-width:0.35277778;stroke-dasharray:none"><path
         id="Sketch182_w0000"
         d="m -15,-39.787511 h 4 v -10 h -4 v 10"
         stroke="#000000"
         stroke-width="0.35 px"
         style="fill:none;fill-opacity:1;fill-rule:evenodd;stroke-width:0.35277778;stroke-miterlimit:4;stroke-dasharray:none;stroke:#ff0000;stroke-opacity:1" /><path
         id="Sketch182_w0001"
         d="m -123.56189,-41.698571 2.23713,-0.07812 -2.23713,0.07812 m 244.88665,-0.07812 2.23713,0.07812 -2.23713,-0.07812 -0.59503,17.039372 A 2,2 0 0 1 118.661,-22.8083 l -1.80875,-0.06321 -0.64158,18.3725428 A 2,2 0 0 1 114.142,-2.56998 l -19.210437,-0.6708478 -0.16583,1.350577 A 2,2 0 0 1 92.5369,-0.148897 l -18.434084,-2.2634213 -0.09017,0.4242176 A 1,1 0 0 1 72.8266,-1.21786 L 52.282458,-5.584654 A 2,2 0 0 1 50.742,-7.95677 l 0.913869,-4.299481 -20.251359,-5.426175 A 1,1 0 0 1 30.6974,-18.9072 l 0.234262,-0.874264 -16.963065,-4.544743 A 3,3 0 0 1 11.8157,-26.5762 L 10,-34.786868 l -10,0.0064 -10,-0.0064 -1.815747,8.210648 a 3,3 0 0 1 -2.152853,2.25002 l -16.963062,4.544736 0.234266,0.874291 A 1,1 0 0 1 -31.4045,-17.6824 l -20.251369,5.426149 0.913882,4.2994784 A 2,2 0 0 1 -52.2825,-5.58465 l -20.544087,4.3667852 A 1,1 0 0 1 -74.0126,-1.9881 l -0.09022,-0.4242183 -18.434086,2.26342111 A 2,2 0 0 1 -94.7657,-1.89025 l -0.165863,-1.3505778 -19.210527,0.6708463 A 2,2 0 0 1 -116.211,-4.49896 l -0.64125,-18.372547 -1.8089,0.06317 A 2,2 0 0 1 -120.73,-24.7373 l -0.59476,-17.039394 m -2.23713,0.07812 A 1,1 0 0 1 -124.596,-42.6631 l -0.73307,-20.98717 A 2,2 0 0 1 -123.4,-65.7189 l 19.99234,-0.698101 a 2,2 0 0 1 2.06866,1.929001 l 0.1147,3.287077 17.857039,-3.79563 a 1,1 0 0 1 1.186061,0.770253 l 0.304213,1.4312 8.366636,-1.778383 -9.231696,-18.118225 A 2,2 0 0 1 -81.868,-85.3817 l 51.767464,-26.37685 a 2,2 0 0 1 2.690036,0.87355 l 12.288139,24.117396 H 0 15.122361 L 27.410542,-110.88452 A 2,2 0 0 1 30.1005,-111.759 l 51.767515,26.377298 A 2,2 0 0 1 82.742,-82.6917 l -9.231649,18.118217 8.366636,1.778383 0.304214,-1.431217 A 1,1 0 0 1 83.3673,-64.9966 l 17.857,3.795677 0.11478,-3.287096 A 2,2 0 0 1 103.408,-66.417 l 19.99209,0.69815 a 2,2 0 0 1 1.92891,2.06855 l -0.73282,20.987238 A 1,1 0 0 1 123.562,-41.6986"
         stroke="#000000"
         stroke-width="0.35 px"
         style="fill:none;fill-opacity:1;fill-rule:evenodd;stroke-width:0.35277778;stroke-miterlimit:4;stroke-dasharray:none;stroke:#ff0000;stroke-opacity:1" /><circle
         cx="-94.602127"
         cy="-21.126415"
         r="1.1"
         stroke="#000000"
         stroke-width="0.35 px"
         style="fill:none;stroke-width:0.35277778;stroke-miterlimit:4;stroke-dasharray:none;fill-opacity:1;stroke:#ff0000;stroke-opacity:1"
         id="circle1" /><circle
         cx="-103.2806"
         cy="-56.915649"
         r="1.1"
         stroke="#000000"
         stroke-width="0.35 px"
         style="fill:none;stroke-width:0.35277778;stroke-miterlimit:4;stroke-dasharray:none;fill-opacity:1;stroke:#ff0000;stroke-opacity:1"
         id="circle2" /><circle
         cx="-38.545033"
         cy="-37.69315"
         r="1.1"
         stroke="#000000"
         stroke-width="0.35 px"
         style="fill:none;stroke-width:0.35277778;stroke-miterlimit:4;stroke-dasharray:none;fill-opacity:1;stroke:#ff0000;stroke-opacity:1"
         id="circle3" /><circle
         cx="-56.612297"
         cy="-73.09771"
         r="1.1"
         stroke="#000000"
         stroke-width="0.35 px"
         style="fill:none;stroke-width:0.35277778;stroke-miterlimit:4;stroke-dasharray:none;fill-opacity:1;stroke:#ff0000;stroke-opacity:1"
         id="circle4" /><circle
         cx="-25.952927"
         cy="-87.848282"
         r="1.1"
         stroke="#000000"
         stroke-width="0.35 px"
         style="fill:none;stroke-width:0.35277778;stroke-miterlimit:4;stroke-dasharray:none;fill-opacity:1;stroke:#ff0000;stroke-opacity:1"
         id="circle5" /><circle
         cx="-22.477625"
         cy="-78.56794"
         r="1.1"
         stroke="#000000"
         stroke-width="0.35 px"
         style="fill:none;stroke-width:0.35277778;stroke-miterlimit:4;stroke-dasharray:none;fill-opacity:1;stroke:#ff0000;stroke-opacity:1"
         id="circle6" /><circle
         cx="-15.851847"
         cy="-53.840191"
         r="1.1"
         stroke="#000000"
         stroke-width="0.35 px"
         style="fill:none;stroke-width:0.35277778;stroke-miterlimit:4;stroke-dasharray:none;fill-opacity:1;stroke:#ff0000;stroke-opacity:1"
         id="circle7" /><circle
         cx="94.602127"
         cy="-21.126415"
         r="1.1"
         stroke="#000000"
         stroke-width="0.35 px"
         style="fill:none;stroke-width:0.35277778;stroke-miterlimit:4;stroke-dasharray:none;fill-opacity:1;stroke:#ff0000;stroke-opacity:1"
         id="circle8" /><circle
         cx="103.2806"
         cy="-56.915649"
         r="1.1"
         stroke="#000000"
         stroke-width="0.35 px"
         style="fill:none;stroke-width:0.35277778;stroke-miterlimit:4;stroke-dasharray:none;fill-opacity:1;stroke:#ff0000;stroke-opacity:1"
         id="circle9" /><circle
         cx="38.545033"
         cy="-37.69315"
         r="1.1"
         stroke="#000000"
         stroke-width="0.35 px"
         style="fill:none;stroke-width:0.35277778;stroke-miterlimit:4;stroke-dasharray:none;fill-opacity:1;stroke:#ff0000;stroke-opacity:1"
         id="circle10" /><circle
         cx="56.612297"
         cy="-73.09771"
         r="1.1"
         stroke="#000000"
         stroke-width="0.35 px"
         style="fill:none;stroke-width:0.35277778;stroke-miterlimit:4;stroke-dasharray:none;fill-opacity:1;stroke:#ff0000;stroke-opacity:1"
         id="circle11" /><circle
         cx="25.952927"
         cy="-87.848282"
         r="1.1"
         stroke="#000000"
         stroke-width="0.35 px"
         style="fill:none;stroke-width:0.35277778;stroke-miterlimit:4;stroke-dasharray:none;fill-opacity:1;stroke:#ff0000;stroke-opacity:1"
         id="circle12" /><circle
         cx="22.477625"
         cy="-78.56794"
         r="1.1"
         stroke="#000000"
         stroke-width="0.35 px"
         style="fill:none;stroke-width:0.35277778;stroke-miterlimit:4;stroke-dasharray:none;fill-opacity:1;stroke:#ff0000;stroke-opacity:1"
         id="circle13" /><circle
         cx="15.851847"
         cy="-53.840191"
         r="1.1"
         stroke="#000000"
         stroke-width="0.35 px"
         style="fill:none;stroke-width:0.35277778;stroke-miterlimit:4;stroke-dasharray:none;fill-opacity:1;stroke:#ff0000;stroke-opacity:1"
         id="circle14" /><title
         id="title14">b'Sketch182'</title></g><g
       id="Sketch182-5"
       transform="matrix(0,1,1,0,229.98783,146.33767)"
       style="fill:none;fill-opacity:1;stroke:#ff0000;stroke-opacity:1;stroke-width:0.35277778;stroke-dasharray:none"><path
         id="Sketch182_w0000-3"
         d="m -15,-39.787511 h 4 v -10 h -4 v 10"
         stroke="#000000"
         stroke-width="0.35 px"
         style="fill:none;fill-opacity:1;fill-rule:evenodd;stroke-width:0.35277778;stroke-miterlimit:4;stroke-dasharray:none;stroke:#ff0000;stroke-opacity:1" /><path
         id="Sketch182_w0001-5"
         d="m -123.56189,-41.698571 2.23713,-0.07812 -2.23713,0.07812 m 244.88665,-0.07812 2.23713,0.07812 -2.23713,-0.07812 -0.59503,17.039372 A 2,2 0 0 1 118.661,-22.8083 l -1.80875,-0.06321 -0.64158,18.3725428 A 2,2 0 0 1 114.142,-2.56998 l -19.210437,-0.6708478 -0.16583,1.350577 A 2,2 0 0 1 92.5369,-0.148897 l -18.434084,-2.2634213 -0.09017,0.4242176 A 1,1 0 0 1 72.8266,-1.21786 L 52.282458,-5.584654 A 2,2 0 0 1 50.742,-7.95677 l 0.913869,-4.299481 -20.251359,-5.426175 A 1,1 0 0 1 30.6974,-18.9072 l 0.234262,-0.874264 -16.963065,-4.544743 A 3,3 0 0 1 11.8157,-26.5762 L 10,-34.786868 l -10,0.0064 -10,-0.0064 -1.815747,8.210648 a 3,3 0 0 1 -2.152853,2.25002 l -16.963062,4.544736 0.234266,0.874291 A 1,1 0 0 1 -31.4045,-17.6824 l -20.251369,5.426149 0.913882,4.2994784 A 2,2 0 0 1 -52.2825,-5.58465 l -20.544087,4.3667852 A 1,1 0 0 1 -74.0126,-1.9881 l -0.09022,-0.4242183 -18.434086,2.26342111 A 2,2 0 0 1 -94.7657,-1.89025 l -0.165863,-1.3505778 -19.210527,0.6708463 A 2,2 0 0 1 -116.211,-4.49896 l -0.64125,-18.372547 -1.8089,0.06317 A 2,2 0 0 1 -120.73,-24.7373 l -0.59476,-17.039394 m -2.23713,0.07812 A 1,1 0 0 1 -124.596,-42.6631 l -0.73307,-20.98717 A 2,2 0 0 1 -123.4,-65.7189 l 19.99234,-0.698101 a 2,2 0 0 1 2.06866,1.929001 l 0.1147,3.287077 17.857039,-3.79563 a 1,1 0 0 1 1.186061,0.770253 l 0.304213,1.4312 8.366636,-1.778383 -9.231696,-18.118225 A 2,2 0 0 1 -81.868,-85.3817 l 51.767464,-26.37685 a 2,2 0 0 1 2.690036,0.87355 l 12.288139,24.117396 H 0 15.122361 L 27.410542,-110.88452 A 2,2 0 0 1 30.1005,-111.759 l 51.767515,26.377298 A 2,2 0 0 1 82.742,-82.6917 l -9.231649,18.118217 8.366636,1.778383 0.304214,-1.431217 A 1,1 0 0 1 83.3673,-64.9966 l 17.857,3.795677 0.11478,-3.287096 A 2,2 0 0 1 103.408,-66.417 l 19.99209,0.69815 a 2,2 0 0 1 1.92891,2.06855 l -0.73282,20.987238 A 1,1 0 0 1 123.562,-41.6986"
         stroke="#000000"
         stroke-width="0.35 px"
         style="fill:none;fill-opacity:1;fill-rule:evenodd;stroke-width:0.35277778;stroke-miterlimit:4;stroke-dasharray:none;stroke:#ff0000;stroke-opacity:1" /><circle
         cx="-94.602127"
         cy="-21.126415"
         r="1.1"
         stroke="#000000"
         stroke-width="0.35 px"
         style="fill:none;stroke-width:0.35277778;stroke-miterlimit:4;stroke-dasharray:none;fill-opacity:1;stroke:#ff0000;stroke-opacity:1"
         id="circle1-6" /><circle
         cx="-103.2806"
         cy="-56.915649"
         r="1.1"
         stroke="#000000"
         stroke-width="0.35 px"
         style="fill:none;stroke-width:0.35277778;stroke-miterlimit:4;stroke-dasharray:none;fill-opacity:1;stroke:#ff0000;stroke-opacity:1"
         id="circle2-2" /><circle
         cx="-38.545033"
         cy="-37.69315"
         r="1.1"
         stroke="#000000"
         stroke-width="0.35 px"
         style="fill:none;stroke-width:0.35277778;stroke-miterlimit:4;stroke-dasharray:none;fill-opacity:1;stroke:#ff0000;stroke-opacity:1"
         id="circle3-9" /><circle
         cx="-56.612297"
         cy="-73.09771"
         r="1.1"
         stroke="#000000"
         stroke-width="0.35 px"
         style="fill:none;stroke-width:0.35277778;stroke-miterlimit:4;stroke-dasharray:none;fill-opacity:1;stroke:#ff0000;stroke-opacity:1"
         id="circle4-1" /><circle
         cx="-25.952927"
         cy="-87.848282"
         r="1.1"
         stroke="#000000"
         stroke-width="0.35 px"
         style="fill:none;stroke-width:0.35277778;stroke-miterlimit:4;stroke-dasharray:none;fill-opacity:1;stroke:#ff0000;stroke-opacity:1"
         id="circle5-2" /><circle
         cx="-22.477625"
         cy="-78.56794"
         r="1.1"
         stroke="#000000"
         stroke-width="0.35 px"
         style="fill:none;stroke-width:0.35277778;stroke-miterlimit:4;stroke-dasharray:none;fill-opacity:1;stroke:#ff0000;stroke-opacity:1"
         id="circle6-7" /><circle
         cx="-15.851847"
         cy="-53.840191"
         r="1.1"
         stroke="#000000"
         stroke-width="0.35 px"
         style="fill:none;stroke-width:0.35277778;stroke-miterlimit:4;stroke-dasharray:none;fill-opacity:1;stroke:#ff0000;stroke-opacity:1"
         id="circle7-0" /><circle
         cx="94.602127"
         cy="-21.126415"
         r="1.1"
         stroke="#000000"
         stroke-width="0.35 px"
         style="fill:none;stroke-width:0.35277778;stroke-miterlimit:4;stroke-dasharray:none;fill-opacity:1;stroke:#ff0000;stroke-opacity:1"
         id="circle8-9" /><circle
         cx="103.2806"
         cy="-56.915649"
         r="1.1"
         stroke="#000000"
         stroke-width="0.35 px"
         style="fill:none;stroke-width:0.35277778;stroke-miterlimit:4;stroke-dasharray:none;fill-opacity:1;stroke:#ff0000;stroke-opacity:1"
         id="circle9-3" /><circle
         cx="38.545033"
         cy="-37.69315"
         r="1.1"
         stroke="#000000"
         stroke-width="0.35 px"
         style="fill:none;stroke-width:0.35277778;stroke-miterlimit:4;stroke-dasharray:none;fill-opacity:1;stroke:#ff0000;stroke-opacity:1"
         id="circle10-6" /><circle
         cx="56.612297"
         cy="-73.09771"
         r="1.1"
         stroke="#000000"
         stroke-width="0.35 px"
         style="fill:none;stroke-width:0.35277778;stroke-miterlimit:4;stroke-dasharray:none;fill-opacity:1;stroke:#ff0000;stroke-opacity:1"
         id="circle11-0" /><circle
         cx="25.952927"
         cy="-87.848282"
         r="1.1"
         stroke="#000000"
         stroke-width="0.35 px"
         style="fill:none;stroke-width:0.35277778;stroke-miterlimit:4;stroke-dasharray:none;fill-opacity:1;stroke:#ff0000;stroke-opacity:1"
         id="circle12-6" /><circle
         cx="22.477625"
         cy="-78.56794"
         r="1.1"
         stroke="#000000"
         stroke-width="0.35 px"
         style="fill:none;stroke-width:0.35277778;stroke-miterlimit:4;stroke-dasharray:none;fill-opacity:1;stroke:#ff0000;stroke-opacity:1"
         id="circle13-2" /><circle
         cx="15.851847"
         cy="-53.840191"
         r="1.1"
         stroke="#000000"
         stroke-width="0.35 px"
         style="fill:none;stroke-width:0.35277778;stroke-miterlimit:4;stroke-dasharray:none;fill-opacity:1;stroke:#ff0000;stroke-opacity:1"
         id="circle14-6" /><title
         id="title14-1">b'Sketch182'</title></g><g
       id="Sketch182-5-2"
       transform="matrix(0,1,1,0,340.21386,147.65352)"
       style="fill:none;fill-opacity:1;stroke:#ff0000;stroke-opacity:1;stroke-width:0.35277778;stroke-dasharray:none"><path
         id="Sketch182_w0000-3-0"
         d="m -15,-39.787511 h 4 v -10 h -4 v 10"
         stroke="#000000"
         stroke-width="0.35 px"
         style="fill:none;fill-opacity:1;fill-rule:evenodd;stroke-width:0.35277778;stroke-miterlimit:4;stroke-dasharray:none;stroke:#ff0000;stroke-opacity:1" /><path
         id="Sketch182_w0001-5-2"
         d="m -123.56189,-41.698571 2.23713,-0.07812 -2.23713,0.07812 m 244.88665,-0.07812 2.23713,0.07812 -2.23713,-0.07812 -0.59503,17.039372 A 2,2 0 0 1 118.661,-22.8083 l -1.80875,-0.06321 -0.64158,18.3725428 A 2,2 0 0 1 114.142,-2.56998 l -19.210437,-0.6708478 -0.16583,1.350577 A 2,2 0 0 1 92.5369,-0.148897 l -18.434084,-2.2634213 -0.09017,0.4242176 A 1,1 0 0 1 72.8266,-1.21786 L 52.282458,-5.584654 A 2,2 0 0 1 50.742,-7.95677 l 0.913869,-4.299481 -20.251359,-5.426175 A 1,1 0 0 1 30.6974,-18.9072 l 0.234262,-0.874264 -16.963065,-4.544743 A 3,3 0 0 1 11.8157,-26.5762 L 10,-34.786868 l -10,0.0064 -10,-0.0064 -1.815747,8.210648 a 3,3 0 0 1 -2.152853,2.25002 l -16.963062,4.544736 0.234266,0.874291 A 1,1 0 0 1 -31.4045,-17.6824 l -20.251369,5.426149 0.913882,4.2994784 A 2,2 0 0 1 -52.2825,-5.58465 l -20.544087,4.3667852 A 1,1 0 0 1 -74.0126,-1.9881 l -0.09022,-0.4242183 -18.434086,2.26342111 A 2,2 0 0 1 -94.7657,-1.89025 l -0.165863,-1.3505778 -19.210527,0.6708463 A 2,2 0 0 1 -116.211,-4.49896 l -0.64125,-18.372547 -1.8089,0.06317 A 2,2 0 0 1 -120.73,-24.7373 l -0.59476,-17.039394 m -2.23713,0.07812 A 1,1 0 0 1 -124.596,-42.6631 l -0.73307,-20.98717 A 2,2 0 0 1 -123.4,-65.7189 l 19.99234,-0.698101 a 2,2 0 0 1 2.06866,1.929001 l 0.1147,3.287077 17.857039,-3.79563 a 1,1 0 0 1 1.186061,0.770253 l 0.304213,1.4312 8.366636,-1.778383 -9.231696,-18.118225 A 2,2 0 0 1 -81.868,-85.3817 l 51.767464,-26.37685 a 2,2 0 0 1 2.690036,0.87355 l 12.288139,24.117396 H 0 15.122361 L 27.410542,-110.88452 A 2,2 0 0 1 30.1005,-111.759 l 51.767515,26.377298 A 2,2 0 0 1 82.742,-82.6917 l -9.231649,18.118217 8.366636,1.778383 0.304214,-1.431217 A 1,1 0 0 1 83.3673,-64.9966 l 17.857,3.795677 0.11478,-3.287096 A 2,2 0 0 1 103.408,-66.417 l 19.99209,0.69815 a 2,2 0 0 1 1.92891,2.06855 l -0.73282,20.987238 A 1,1 0 0 1 123.562,-41.6986"
         stroke="#000000"
         stroke-width="0.35 px"
         style="fill:none;fill-opacity:1;fill-rule:evenodd;stroke-width:0.35277778;stroke-miterlimit:4;stroke-dasharray:none;stroke:#ff0000;stroke-opacity:1" /><circle
         cx="-94.602127"
         cy="-21.126415"
         r="1.1"
         stroke="#000000"
         stroke-width="0.35 px"
         style="fill:none;stroke-width:0.35277778;stroke-miterlimit:4;stroke-dasharray:none;fill-opacity:1;stroke:#ff0000;stroke-opacity:1"
         id="circle1-6-3" /><circle
         cx="-103.2806"
         cy="-56.915649"
         r="1.1"
         stroke="#000000"
         stroke-width="0.35 px"
         style="fill:none;stroke-width:0.35277778;stroke-miterlimit:4;stroke-dasharray:none;fill-opacity:1;stroke:#ff0000;stroke-opacity:1"
         id="circle2-2-7" /><circle
         cx="-38.545033"
         cy="-37.69315"
         r="1.1"
         stroke="#000000"
         stroke-width="0.35 px"
         style="fill:none;stroke-width:0.35277778;stroke-miterlimit:4;stroke-dasharray:none;fill-opacity:1;stroke:#ff0000;stroke-opacity:1"
         id="circle3-9-5" /><circle
         cx="-56.612297"
         cy="-73.09771"
         r="1.1"
         stroke="#000000"
         stroke-width="0.35 px"
         style="fill:none;stroke-width:0.35277778;stroke-miterlimit:4;stroke-dasharray:none;fill-opacity:1;stroke:#ff0000;stroke-opacity:1"
         id="circle4-1-9" /><circle
         cx="-25.952927"
         cy="-87.848282"
         r="1.1"
         stroke="#000000"
         stroke-width="0.35 px"
         style="fill:none;stroke-width:0.35277778;stroke-miterlimit:4;stroke-dasharray:none;fill-opacity:1;stroke:#ff0000;stroke-opacity:1"
         id="circle5-2-2" /><circle
         cx="-22.477625"
         cy="-78.56794"
         r="1.1"
         stroke="#000000"
         stroke-width="0.35 px"
         style="fill:none;stroke-width:0.35277778;stroke-miterlimit:4;stroke-dasharray:none;fill-opacity:1;stroke:#ff0000;stroke-opacity:1"
         id="circle6-7-2" /><circle
         cx="-15.851847"
         cy="-53.840191"
         r="1.1"
         stroke="#000000"
         stroke-width="0.35 px"
         style="fill:none;stroke-width:0.35277778;stroke-miterlimit:4;stroke-dasharray:none;fill-opacity:1;stroke:#ff0000;stroke-opacity:1"
         id="circle7-0-8" /><circle
         cx="94.602127"
         cy="-21.126415"
         r="1.1"
         stroke="#000000"
         stroke-width="0.35 px"
         style="fill:none;stroke-width:0.35277778;stroke-miterlimit:4;stroke-dasharray:none;fill-opacity:1;stroke:#ff0000;stroke-opacity:1"
         id="circle8-9-9" /><circle
         cx="103.2806"
         cy="-56.915649"
         r="1.1"
         stroke="#000000"
         stroke-width="0.35 px"
         style="fill:none;stroke-width:0.35277778;stroke-miterlimit:4;stroke-dasharray:none;fill-opacity:1;stroke:#ff0000;stroke-opacity:1"
         id="circle9-3-7" /><circle
         cx="38.545033"
         cy="-37.69315"
         r="1.1"
         stroke="#000000"
         stroke-width="0.35 px"
         style="fill:none;stroke-width:0.35277778;stroke-miterlimit:4;stroke-dasharray:none;fill-opacity:1;stroke:#ff0000;stroke-opacity:1"
         id="circle10-6-3" /><circle
         cx="56.612297"
         cy="-73.09771"
         r="1.1"
         stroke="#000000"
         stroke-width="0.35 px"
         style="fill:none;stroke-width:0.35277778;stroke-miterlimit:4;stroke-dasharray:none;fill-opacity:1;stroke:#ff0000;stroke-opacity:1"
         id="circle11-0-6" /><circle
         cx="25.952927"
         cy="-87.848282"
         r="1.1"
         stroke="#000000"
         stroke-width="0.35 px"
         style="fill:none;stroke-width:0.35277778;stroke-miterlimit:4;stroke-dasharray:none;fill-opacity:1;stroke:#ff0000;stroke-opacity:1"
         id="circle12-6-1" /><circle
         cx="22.477625"
         cy="-78.56794"
         r="1.1"
         stroke="#000000"
         stroke-width="0.35 px"
         style="fill:none;stroke-width:0.35277778;stroke-miterlimit:4;stroke-dasharray:none;fill-opacity:1;stroke:#ff0000;stroke-opacity:1"
         id="circle13-2-2" /><circle
         cx="15.851847"
         cy="-53.840191"
         r="1.1"
         stroke="#000000"
         stroke-width="0.35 px"
         style="fill:none;stroke-width:0.35277778;stroke-miterlimit:4;stroke-dasharray:none;fill-opacity:1;stroke:#ff0000;stroke-opacity:1"
         id="circle14-6-9" /><title
         id="title14-1-3">b'Sketch182'</title></g><g
       id="Sketch182-5-2-7"
       transform="matrix(0,1,1,0,446.78978,148.21747)"
       style="fill:none;fill-opacity:1;stroke:#ff0000;stroke-opacity:1;stroke-width:0.35277778;stroke-dasharray:none"><path
         id="Sketch182_w0000-3-0-8"
         d="m -15,-39.787511 h 4 v -10 h -4 v 10"
         stroke="#000000"
         stroke-width="0.35 px"
         style="fill:none;fill-opacity:1;fill-rule:evenodd;stroke-width:0.35277778;stroke-miterlimit:4;stroke-dasharray:none;stroke:#ff0000;stroke-opacity:1" /><path
         id="Sketch182_w0001-5-2-4"
         d="m -123.56189,-41.698571 2.23713,-0.07812 -2.23713,0.07812 m 244.88665,-0.07812 2.23713,0.07812 -2.23713,-0.07812 -0.59503,17.039372 A 2,2 0 0 1 118.661,-22.8083 l -1.80875,-0.06321 -0.64158,18.3725428 A 2,2 0 0 1 114.142,-2.56998 l -19.210437,-0.6708478 -0.16583,1.350577 A 2,2 0 0 1 92.5369,-0.148897 l -18.434084,-2.2634213 -0.09017,0.4242176 A 1,1 0 0 1 72.8266,-1.21786 L 52.282458,-5.584654 A 2,2 0 0 1 50.742,-7.95677 l 0.913869,-4.299481 -20.251359,-5.426175 A 1,1 0 0 1 30.6974,-18.9072 l 0.234262,-0.874264 -16.963065,-4.544743 A 3,3 0 0 1 11.8157,-26.5762 L 10,-34.786868 l -10,0.0064 -10,-0.0064 -1.815747,8.210648 a 3,3 0 0 1 -2.152853,2.25002 l -16.963062,4.544736 0.234266,0.874291 A 1,1 0 0 1 -31.4045,-17.6824 l -20.251369,5.426149 0.913882,4.2994784 A 2,2 0 0 1 -52.2825,-5.58465 l -20.544087,4.3667852 A 1,1 0 0 1 -74.0126,-1.9881 l -0.09022,-0.4242183 -18.434086,2.26342111 A 2,2 0 0 1 -94.7657,-1.89025 l -0.165863,-1.3505778 -19.210527,0.6708463 A 2,2 0 0 1 -116.211,-4.49896 l -0.64125,-18.372547 -1.8089,0.06317 A 2,2 0 0 1 -120.73,-24.7373 l -0.59476,-17.039394 m -2.23713,0.07812 A 1,1 0 0 1 -124.596,-42.6631 l -0.73307,-20.98717 A 2,2 0 0 1 -123.4,-65.7189 l 19.99234,-0.698101 a 2,2 0 0 1 2.06866,1.929001 l 0.1147,3.287077 17.857039,-3.79563 a 1,1 0 0 1 1.186061,0.770253 l 0.304213,1.4312 8.366636,-1.778383 -9.231696,-18.118225 A 2,2 0 0 1 -81.868,-85.3817 l 51.767464,-26.37685 a 2,2 0 0 1 2.690036,0.87355 l 12.288139,24.117396 H 0 15.122361 L 27.410542,-110.88452 A 2,2 0 0 1 30.1005,-111.759 l 51.767515,26.377298 A 2,2 0 0 1 82.742,-82.6917 l -9.231649,18.118217 8.366636,1.778383 0.304214,-1.431217 A 1,1 0 0 1 83.3673,-64.9966 l 17.857,3.795677 0.11478,-3.287096 A 2,2 0 0 1 103.408,-66.417 l 19.99209,0.69815 a 2,2 0 0 1 1.92891,2.06855 l -0.73282,20.987238 A 1,1 0 0 1 123.562,-41.6986"
         stroke="#000000"
         stroke-width="0.35 px"
         style="fill:none;fill-opacity:1;fill-rule:evenodd;stroke-width:0.35277778;stroke-miterlimit:4;stroke-dasharray:none;stroke:#ff0000;stroke-opacity:1" /><circle
         cx="-94.602127"
         cy="-21.126415"
         r="1.1"
         stroke="#000000"
         stroke-width="0.35 px"
         style="fill:none;stroke-width:0.35277778;stroke-miterlimit:4;stroke-dasharray:none;fill-opacity:1;stroke:#ff0000;stroke-opacity:1"
         id="circle1-6-3-5" /><circle
         cx="-103.2806"
         cy="-56.915649"
         r="1.1"
         stroke="#000000"
         stroke-width="0.35 px"
         style="fill:none;stroke-width:0.35277778;stroke-miterlimit:4;stroke-dasharray:none;fill-opacity:1;stroke:#ff0000;stroke-opacity:1"
         id="circle2-2-7-0" /><circle
         cx="-38.545033"
         cy="-37.69315"
         r="1.1"
         stroke="#000000"
         stroke-width="0.35 px"
         style="fill:none;stroke-width:0.35277778;stroke-miterlimit:4;stroke-dasharray:none;fill-opacity:1;stroke:#ff0000;stroke-opacity:1"
         id="circle3-9-5-3" /><circle
         cx="-56.612297"
         cy="-73.09771"
         r="1.1"
         stroke="#000000"
         stroke-width="0.35 px"
         style="fill:none;stroke-width:0.35277778;stroke-miterlimit:4;stroke-dasharray:none;fill-opacity:1;stroke:#ff0000;stroke-opacity:1"
         id="circle4-1-9-6" /><circle
         cx="-25.952927"
         cy="-87.848282"
         r="1.1"
         stroke="#000000"
         stroke-width="0.35 px"
         style="fill:none;stroke-width:0.35277778;stroke-miterlimit:4;stroke-dasharray:none;fill-opacity:1;stroke:#ff0000;stroke-opacity:1"
         id="circle5-2-2-1" /><circle
         cx="-22.477625"
         cy="-78.56794"
         r="1.1"
         stroke="#000000"
         stroke-width="0.35 px"
         style="fill:none;stroke-width:0.35277778;stroke-miterlimit:4;stroke-dasharray:none;fill-opacity:1;stroke:#ff0000;stroke-opacity:1"
         id="circle6-7-2-0" /><circle
         cx="-15.851847"
         cy="-53.840191"
         r="1.1"
         stroke="#000000"
         stroke-width="0.35 px"
         style="fill:none;stroke-width:0.35277778;stroke-miterlimit:4;stroke-dasharray:none;fill-opacity:1;stroke:#ff0000;stroke-opacity:1"
         id="circle7-0-8-6" /><circle
         cx="94.602127"
         cy="-21.126415"
         r="1.1"
         stroke="#000000"
         stroke-width="0.35 px"
         style="fill:none;stroke-width:0.35277778;stroke-miterlimit:4;stroke-dasharray:none;fill-opacity:1;stroke:#ff0000;stroke-opacity:1"
         id="circle8-9-9-3" /><circle
         cx="103.2806"
         cy="-56.915649"
         r="1.1"
         stroke="#000000"
         stroke-width="0.35 px"
         style="fill:none;stroke-width:0.35277778;stroke-miterlimit:4;stroke-dasharray:none;fill-opacity:1;stroke:#ff0000;stroke-opacity:1"
         id="circle9-3-7-2" /><circle
         cx="38.545033"
         cy="-37.69315"
         r="1.1"
         stroke="#000000"
         stroke-width="0.35 px"
         style="fill:none;stroke-width:0.35277778;stroke-miterlimit:4;stroke-dasharray:none;fill-opacity:1;stroke:#ff0000;stroke-opacity:1"
         id="circle10-6-3-0" /><circle
         cx="56.612297"
         cy="-73.09771"
         r="1.1"
         stroke="#000000"
         stroke-width="0.35 px"
         style="fill:none;stroke-width:0.35277778;stroke-miterlimit:4;stroke-dasharray:none;fill-opacity:1;stroke:#ff0000;stroke-opacity:1"
         id="circle11-0-6-6" /><circle
         cx="25.952927"
         cy="-87.848282"
         r="1.1"
         stroke="#000000"
         stroke-width="0.35 px"
         style="fill:none;stroke-width:0.35277778;stroke-miterlimit:4;stroke-dasharray:none;fill-opacity:1;stroke:#ff0000;stroke-opacity:1"
         id="circle12-6-1-1" /><circle
         cx="22.477625"
         cy="-78.56794"
         r="1.1"
         stroke="#000000"
         stroke-width="0.35 px"
         style="fill:none;stroke-width:0.35277778;stroke-miterlimit:4;stroke-dasharray:none;fill-opacity:1;stroke:#ff0000;stroke-opacity:1"
         id="circle13-2-2-5" /><circle
         cx="15.851847"
         cy="-53.840191"
         r="1.1"
         stroke="#000000"
         stroke-width="0.35 px"
         style="fill:none;stroke-width:0.35277778;stroke-miterlimit:4;stroke-dasharray:none;fill-opacity:1;stroke:#ff0000;stroke-opacity:1"
         id="circle14-6-9-5" /><title
         id="title14-1-3-4">b'Sketch182'</title></g><g
       id="Sketch182-5-2-7-6"
       transform="matrix(0,1,1,0,551.62903,147.67869)"
       style="fill:none;fill-opacity:1;stroke:#ff0000;stroke-opacity:1;stroke-width:0.35277778;stroke-dasharray:none"><path
         id="Sketch182_w0000-3-0-8-9"
         d="m -15,-39.787511 h 4 v -10 h -4 v 10"
         stroke="#000000"
         stroke-width="0.35 px"
         style="fill:none;fill-opacity:1;fill-rule:evenodd;stroke-width:0.35277778;stroke-miterlimit:4;stroke-dasharray:none;stroke:#ff0000;stroke-opacity:1" /><path
         id="Sketch182_w0001-5-2-4-3"
         d="m -123.56189,-41.698571 2.23713,-0.07812 -2.23713,0.07812 m 244.88665,-0.07812 2.23713,0.07812 -2.23713,-0.07812 -0.59503,17.039372 A 2,2 0 0 1 118.661,-22.8083 l -1.80875,-0.06321 -0.64158,18.3725428 A 2,2 0 0 1 114.142,-2.56998 l -19.210437,-0.6708478 -0.16583,1.350577 A 2,2 0 0 1 92.5369,-0.148897 l -18.434084,-2.2634213 -0.09017,0.4242176 A 1,1 0 0 1 72.8266,-1.21786 L 52.282458,-5.584654 A 2,2 0 0 1 50.742,-7.95677 l 0.913869,-4.299481 -20.251359,-5.426175 A 1,1 0 0 1 30.6974,-18.9072 l 0.234262,-0.874264 -16.963065,-4.544743 A 3,3 0 0 1 11.8157,-26.5762 L 10,-34.786868 l -10,0.0064 -10,-0.0064 -1.815747,8.210648 a 3,3 0 0 1 -2.152853,2.25002 l -16.963062,4.544736 0.234266,0.874291 A 1,1 0 0 1 -31.4045,-17.6824 l -20.251369,5.426149 0.913882,4.2994784 A 2,2 0 0 1 -52.2825,-5.58465 l -20.544087,4.3667852 A 1,1 0 0 1 -74.0126,-1.9881 l -0.09022,-0.4242183 -18.434086,2.26342111 A 2,2 0 0 1 -94.7657,-1.89025 l -0.165863,-1.3505778 -19.210527,0.6708463 A 2,2 0 0 1 -116.211,-4.49896 l -0.64125,-18.372547 -1.8089,0.06317 A 2,2 0 0 1 -120.73,-24.7373 l -0.59476,-17.039394 m -2.23713,0.07812 A 1,1 0 0 1 -124.596,-42.6631 l -0.73307,-20.98717 A 2,2 0 0 1 -123.4,-65.7189 l 19.99234,-0.698101 a 2,2 0 0 1 2.06866,1.929001 l 0.1147,3.287077 17.857039,-3.79563 a 1,1 0 0 1 1.186061,0.770253 l 0.304213,1.4312 8.366636,-1.778383 -9.231696,-18.118225 A 2,2 0 0 1 -81.868,-85.3817 l 51.767464,-26.37685 a 2,2 0 0 1 2.690036,0.87355 l 12.288139,24.117396 H 0 15.122361 L 27.410542,-110.88452 A 2,2 0 0 1 30.1005,-111.759 l 51.767515,26.377298 A 2,2 0 0 1 82.742,-82.6917 l -9.231649,18.118217 8.366636,1.778383 0.304214,-1.431217 A 1,1 0 0 1 83.3673,-64.9966 l 17.857,3.795677 0.11478,-3.287096 A 2,2 0 0 1 103.408,-66.417 l 19.99209,0.69815 a 2,2 0 0 1 1.92891,2.06855 l -0.73282,20.987238 A 1,1 0 0 1 123.562,-41.6986"
         stroke="#000000"
         stroke-width="0.35 px"
         style="fill:none;fill-opacity:1;fill-rule:evenodd;stroke-width:0.35277778;stroke-miterlimit:4;stroke-dasharray:none;stroke:#ff0000;stroke-opacity:1" /><circle
         cx="-94.602127"
         cy="-21.126415"
         r="1.1"
         stroke="#000000"
         stroke-width="0.35 px"
         style="fill:none;stroke-width:0.35277778;stroke-miterlimit:4;stroke-dasharray:none;fill-opacity:1;stroke:#ff0000;stroke-opacity:1"
         id="circle1-6-3-5-7" /><circle
         cx="-103.2806"
         cy="-56.915649"
         r="1.1"
         stroke="#000000"
         stroke-width="0.35 px"
         style="fill:none;stroke-width:0.35277778;stroke-miterlimit:4;stroke-dasharray:none;fill-opacity:1;stroke:#ff0000;stroke-opacity:1"
         id="circle2-2-7-0-4" /><circle
         cx="-38.545033"
         cy="-37.69315"
         r="1.1"
         stroke="#000000"
         stroke-width="0.35 px"
         style="fill:none;stroke-width:0.35277778;stroke-miterlimit:4;stroke-dasharray:none;fill-opacity:1;stroke:#ff0000;stroke-opacity:1"
         id="circle3-9-5-3-5" /><circle
         cx="-56.612297"
         cy="-73.09771"
         r="1.1"
         stroke="#000000"
         stroke-width="0.35 px"
         style="fill:none;stroke-width:0.35277778;stroke-miterlimit:4;stroke-dasharray:none;fill-opacity:1;stroke:#ff0000;stroke-opacity:1"
         id="circle4-1-9-6-2" /><circle
         cx="-25.952927"
         cy="-87.848282"
         r="1.1"
         stroke="#000000"
         stroke-width="0.35 px"
         style="fill:none;stroke-width:0.35277778;stroke-miterlimit:4;stroke-dasharray:none;fill-opacity:1;stroke:#ff0000;stroke-opacity:1"
         id="circle5-2-2-1-5" /><circle
         cx="-22.477625"
         cy="-78.56794"
         r="1.1"
         stroke="#000000"
         stroke-width="0.35 px"
         style="fill:none;stroke-width:0.35277778;stroke-miterlimit:4;stroke-dasharray:none;fill-opacity:1;stroke:#ff0000;stroke-opacity:1"
         id="circle6-7-2-0-4" /><circle
         cx="-15.851847"
         cy="-53.840191"
         r="1.1"
         stroke="#000000"
         stroke-width="0.35 px"
         style="fill:none;stroke-width:0.35277778;stroke-miterlimit:4;stroke-dasharray:none;fill-opacity:1;stroke:#ff0000;stroke-opacity:1"
         id="circle7-0-8-6-7" /><circle
         cx="94.602127"
         cy="-21.126415"
         r="1.1"
         stroke="#000000"
         stroke-width="0.35 px"
         style="fill:none;stroke-width:0.35277778;stroke-miterlimit:4;stroke-dasharray:none;fill-opacity:1;stroke:#ff0000;stroke-opacity:1"
         id="circle8-9-9-3-4" /><circle
         cx="103.2806"
         cy="-56.915649"
         r="1.1"
         stroke="#000000"
         stroke-width="0.35 px"
         style="fill:none;stroke-width:0.35277778;stroke-miterlimit:4;stroke-dasharray:none;fill-opacity:1;stroke:#ff0000;stroke-opacity:1"
         id="circle9-3-7-2-4" /><circle
         cx="38.545033"
         cy="-37.69315"
         r="1.1"
         stroke="#000000"
         stroke-width="0.35 px"
         style="fill:none;stroke-width:0.35277778;stroke-miterlimit:4;stroke-dasharray:none;fill-opacity:1;stroke:#ff0000;stroke-opacity:1"
         id="circle10-6-3-0-3" /><circle
         cx="56.612297"
         cy="-73.09771"
         r="1.1"
         stroke="#000000"
         stroke-width="0.35 px"
         style="fill:none;stroke-width:0.35277778;stroke-miterlimit:4;stroke-dasharray:none;fill-opacity:1;stroke:#ff0000;stroke-opacity:1"
         id="circle11-0-6-6-0" /><circle
         cx="25.952927"
         cy="-87.848282"
         r="1.1"
         stroke="#000000"
         stroke-width="0.35 px"
         style="fill:none;stroke-width:0.35277778;stroke-miterlimit:4;stroke-dasharray:none;fill-opacity:1;stroke:#ff0000;stroke-opacity:1"
         id="circle12-6-1-1-7" /><circle
         cx="22.477625"
         cy="-78.56794"
         r="1.1"
         stroke="#000000"
         stroke-width="0.35 px"
         style="fill:none;stroke-width:0.35277778;stroke-miterlimit:4;stroke-dasharray:none;fill-opacity:1;stroke:#ff0000;stroke-opacity:1"
         id="circle13-2-2-5-8" /><circle
         cx="15.851847"
         cy="-53.840191"
         r="1.1"
         stroke="#000000"
         stroke-width="0.35 px"
         style="fill:none;stroke-width:0.35277778;stroke-miterlimit:4;stroke-dasharray:none;fill-opacity:1;stroke:#ff0000;stroke-opacity:1"
         id="circle14-6-9-5-6" /><title
         id="title14-1-3-4-8">b'Sketch182'</title></g></g></svg>
