<?xml version="1.0" encoding="UTF-8" standalone="no"?>
<!-- Created with Inkscape (http://www.inkscape.org/) -->

<svg
   width="297mm"
   height="210mm"
   viewBox="0 0 297 210"
   version="1.1"
   id="svg1"
   xml:space="preserve"
   sodipodi:docname="silicon_cut_sheet2.svg"
   inkscape:version="1.3-dev (eafafb3255, 2022-07-08, custom)"
   xmlns:inkscape="http://www.inkscape.org/namespaces/inkscape"
   xmlns:sodipodi="http://sodipodi.sourceforge.net/DTD/sodipodi-0.dtd"
   xmlns="http://www.w3.org/2000/svg"
   xmlns:svg="http://www.w3.org/2000/svg"><sodipodi:namedview
     id="namedview1"
     pagecolor="#505050"
     bordercolor="#eeeeee"
     borderopacity="1"
     inkscape:showpageshadow="0"
     inkscape:pageopacity="0"
     inkscape:pagecheckerboard="0"
     inkscape:deskcolor="#505050"
     inkscape:document-units="mm"
     showgrid="false"
     inkscape:zoom="1.3140972"
     inkscape:cx="497.68008"
     inkscape:cy="387.71866"
     inkscape:window-width="2560"
     inkscape:window-height="1375"
     inkscape:window-x="0"
     inkscape:window-y="0"
     inkscape:window-maximized="1"
     inkscape:current-layer="layer1" /><defs
     id="defs1" /><g
     id="layer1"
     transform="translate(-0.01453784,-0.45556396)"><g
       id="Sketch225"
       transform="matrix(1,0,0,-1,151.20589,76.201543)"><path
         id="Sketch225_w0000"
         d="m 97.620454,-22.682256 14.697596,0.513251 -0.52349,14.9908624 -14.990867,-0.5234925 0.364091,-10.4262059"
         stroke="#000000"
         stroke-width="0.35 px"
         style="fill:none;fill-opacity:1;fill-rule:evenodd;stroke-width:0.1;stroke-miterlimit:4;stroke-dasharray:none" /><path
         id="Sketch225_w0001"
         d="m 104.81363,-44.733151 12.08995,0.422191 -0.52349,14.990862 -14.99086,-0.523492 0.51124,-14.639977"
         stroke="#000000"
         stroke-width="0.35 px"
         style="fill:none;fill-opacity:1;fill-rule:evenodd;stroke-width:0.1;stroke-miterlimit:4;stroke-dasharray:none" /><path
         id="Sketch225_w0002"
         d="m 104.38339,-50.082861 0.47877,-13.710207 14.99087,0.523493 -0.5235,14.990862 -13.66087,-0.477048"
         stroke="#000000"
         stroke-width="0.35 px"
         style="fill:none;fill-opacity:1;fill-rule:evenodd;stroke-width:0.1;stroke-miterlimit:4;stroke-dasharray:none" /><path
         id="Sketch225_w0003"
         d="m 70.332572,-6.3708736 3.118675,-14.6722144 -14.672214,-3.118675 -3.118675,14.6722141 14.672214,3.1186753"
         stroke="#000000"
         stroke-width="0.35 px"
         style="fill:none;fill-opacity:1;fill-rule:evenodd;stroke-width:0.1;stroke-miterlimit:4;stroke-dasharray:none" /><path
         id="Sketch225_w0004"
         d="m 91.620454,-19.71293 -13.692816,-2.910498 -3.118675,14.6722143 14.672214,3.1186753 2.826004,-13.2953026"
         stroke="#000000"
         stroke-width="0.35 px"
         style="fill:none;fill-opacity:1;fill-rule:evenodd;stroke-width:0.1;stroke-miterlimit:4;stroke-dasharray:none" /><path
         id="Sketch225_w0005"
         d="m 74.29329,-25.004585 3.118675,-14.672214 -14.672214,-3.118676 -3.118675,14.672214 14.672214,3.118676"
         stroke="#000000"
         stroke-width="0.35 px"
         style="fill:none;fill-opacity:1;fill-rule:evenodd;stroke-width:0.1;stroke-miterlimit:4;stroke-dasharray:none" /><path
         id="Sketch225_w0006"
         d="m 93.58252,-24.127841 2.97805,-14.010623 -14.672214,-3.118676 -3.118675,14.672214 12.850773,2.731517"
         stroke="#000000"
         stroke-width="0.35 px"
         style="fill:none;fill-opacity:1;fill-rule:evenodd;stroke-width:0.1;stroke-miterlimit:4;stroke-dasharray:none" /><path
         id="Sketch225_w0007"
         d="m 78.254007,-43.638297 3.118676,-14.672214 -14.672214,-3.118676 -3.118676,14.672215 14.672214,3.118675"
         stroke="#000000"
         stroke-width="0.35 px"
         style="fill:none;fill-opacity:1;fill-rule:evenodd;stroke-width:0.1;stroke-miterlimit:4;stroke-dasharray:none" /><path
         id="Sketch225_w0008"
         d="m 97.402613,-42.099962 3.118677,-14.672214 -14.672216,-3.118675 -3.118676,14.672214 14.672215,3.118675"
         stroke="#000000"
         stroke-width="0.35 px"
         style="fill:none;fill-opacity:1;fill-rule:evenodd;stroke-width:0.1;stroke-miterlimit:4;stroke-dasharray:none" /><path
         id="Sketch225_w0009"
         d="m 40.652342,-35.414519 13.662667,3.6609 -3.882286,14.488888 -14.488887,-3.882286 3.521354,-13.141873"
         stroke="#000000"
         stroke-width="0.35 px"
         style="fill:none;fill-opacity:1;fill-rule:evenodd;stroke-width:0.1;stroke-miterlimit:4;stroke-dasharray:none" /><path
         id="Sketch225_w0010"
         d="m 35.399142,-38.991531 -14.351597,-3.845499 -3.882285,14.488888 14.488887,3.882285 2.978999,-11.117775"
         stroke="#000000"
         stroke-width="0.35 px"
         style="fill:none;fill-opacity:1;fill-rule:evenodd;stroke-width:0.1;stroke-miterlimit:4;stroke-dasharray:none" /><path
         id="Sketch225_w0011"
         d="m 40.09806,-40.33097 3.73852,-13.952346 14.488887,3.882285 -3.882285,14.488888 -12.742623,-3.414376"
         stroke="#000000"
         stroke-width="0.35 px"
         style="fill:none;fill-opacity:1;fill-rule:evenodd;stroke-width:0.1;stroke-miterlimit:4;stroke-dasharray:none" /><path
         id="Sketch225_w0012"
         d="m 36.58465,-42.866744 3.882286,-14.488887 -14.488888,-3.882286 -3.882285,14.488888 14.488887,3.882285"
         stroke="#000000"
         stroke-width="0.35 px"
         style="fill:none;fill-opacity:1;fill-rule:evenodd;stroke-width:0.1;stroke-miterlimit:4;stroke-dasharray:none" /><path
         id="Sketch225_w0013"
         d="m 62.703944,-68.949833 -14.488888,-3.882286 -3.882286,14.488888 14.488888,3.882286 3.212163,-11.987957"
         stroke="#000000"
         stroke-width="0.35 px"
         style="fill:none;fill-opacity:1;fill-rule:evenodd;stroke-width:0.1;stroke-miterlimit:4;stroke-dasharray:none" /><path
         id="Sketch225_w0014"
         d="m 40.963126,-61.415546 3.882286,-14.488887 -14.488888,-3.882286 -3.882285,14.488888 14.488887,3.882285"
         stroke="#000000"
         stroke-width="0.35 px"
         style="fill:none;fill-opacity:1;fill-rule:evenodd;stroke-width:0.1;stroke-miterlimit:4;stroke-dasharray:none" /><path
         id="Sketch225_w0015"
         d="m 72.478951,-68.300853 6.809857,-13.365097 -13.365098,-6.809858 -6.809857,13.365098 13.365098,6.809857"
         stroke="#000000"
         stroke-width="0.35 px"
         style="fill:none;fill-opacity:1;fill-rule:evenodd;stroke-width:0.1;stroke-miterlimit:4;stroke-dasharray:none" /><path
         id="Sketch225_w0016"
         d="m 55.505276,-76.949372 6.809858,-13.365097 -13.365098,-6.809858 -6.809857,13.365098 13.365097,6.809857"
         stroke="#000000"
         stroke-width="0.35 px"
         style="fill:none;fill-opacity:1;fill-rule:evenodd;stroke-width:0.1;stroke-miterlimit:4;stroke-dasharray:none" /><path
         id="Sketch225_w0017"
         d="m 37.78474,-86.464176 7.948789,-12.720721 -12.720721,-7.948793 -7.948789,12.720725 12.720721,7.948789"
         stroke="#000000"
         stroke-width="0.35 px"
         style="fill:none;fill-opacity:1;fill-rule:evenodd;stroke-width:0.1;stroke-miterlimit:4;stroke-dasharray:none" /><path
         id="Sketch225_w0018"
         d="M 74.006545,-2.0117544 A 1,1 0 0 1 72.8205,-1.24152 L 51.301239,-5.8155756 A 1,1 0 0 1 50.531,-7.00163 l 1.121759,-5.277451 -20.254349,-5.427136 A 1,1 0 0 1 30.6913,-18.931 l 0.283539,-1.058134 -17.579949,-4.710533 A 2,2 0 0 1 11.9744,-26.138 L 10,-33.891535 v -38 H 0 -10 v 38 l -1.974379,7.75355 A 2,2 0 0 1 -13.3949,-24.6997 l -17.579939,4.710566 0.283536,1.058172 A 1,1 0 0 1 -31.3984,-17.7062 l -20.254359,5.427119 1.121756,5.2774461 A 1,1 0 0 1 -51.3012,-5.81558 l -21.519286,4.5740616 A 1,1 0 0 1 -74.0065,-2.01175 l -0.307027,-1.4442392 -16.677417,3.54489425 A 2,2 0 0 1 -93.3631,-1.45157 l -0.393981,-1.8537122 -20.378899,0.711647 A 2,2 0 0 1 -116.205,-4.52262 l -0.70762,-20.276139 -1.8089,0.06317 A 2,2 0 0 1 -120.79,-26.6646 l -0.59514,-17.039587 -1.28521,0.04488 A 1,1 0 0 1 -123.705,-44.6238 l -0.73253,-20.987205 a 2,2 0 0 1 1.92853,-2.068595 l 19.98826,-0.697975 a 2,2 0 0 1 2.06874,1.928975 l 0.17528,5.023906 23.683285,-5.034037 -7.841962,-15.390717 A 2,2 0 0 1 -83.5605,-84.5399 l 31.991954,-16.28091 18.289605,-11.45288 a 2,2 0 0 1 2.757541,0.63569 l 11.646222,18.637392 1.607695,6 H 0 17.267483 l 1.607695,-6 11.646212,-18.637832 a 2,2 0 0 1 2.75751,-0.63556 l 18.289646,11.45319 31.991944,16.280922 a 2,2 0 0 1 0.87491,2.690488 l -7.841965,15.390669 23.683285,5.034037 0.17543,-5.023899 A 2,2 0 0 1 102.521,-68.3776 l 19.98755,0.698015 A 2,2 0 0 1 124.438,-65.611 l -0.73335,20.987203 A 1,1 0 0 1 122.67,-43.6593 l -1.28486,-0.04489 -0.59504,17.039614 a 2,2 0 0 1 -2.0681,1.928973 l -1.80938,-0.06316 -0.70805,20.2761412 A 2,2 0 0 1 114.136,-2.59364 L 93.757081,-3.3052822 93.363062,-1.4515668 A 2,2 0 0 1 90.9909,0.0889051 l -16.677373,-3.5448943 -0.306982,1.4442348"
         stroke="#000000"
         stroke-width="0.35 px"
         style="fill:none;fill-opacity:1;fill-rule:evenodd;stroke-width:0.1;stroke-miterlimit:4;stroke-dasharray:none" /><path
         id="Sketch225_w0019"
         d="M 0,-76.001535 H -3.9991795 A 1,1 0 0 1 -4.99918,-77.0015 l 5e-7,-4.463127 A 1,1 0 0 1 -3.99918,-82.4646 L 0,-82.464627 H 3.9991795 A 1,1 0 0 1 4.99918,-81.4646 l -5e-7,4.463065 A 1,1 0 0 1 3.99918,-76.0015 L 0,-76.001535"
         stroke="#000000"
         stroke-width="0.35 px"
         style="fill:none;fill-opacity:1;fill-rule:evenodd;stroke-width:0.1;stroke-miterlimit:4;stroke-dasharray:none" /><path
         id="Sketch225_w0020"
         d="m -97.620454,-22.682256 -14.697596,0.513251 0.52349,14.9908624 14.990867,-0.5234925 -0.364091,-10.4262059"
         stroke="#000000"
         stroke-width="0.35 px"
         style="fill:none;fill-opacity:1;fill-rule:evenodd;stroke-width:0.1;stroke-miterlimit:4;stroke-dasharray:none" /><path
         id="Sketch225_w0021"
         d="m -104.81363,-44.733151 -12.08995,0.422191 0.52349,14.990862 14.99086,-0.523492 -0.51124,-14.639977"
         stroke="#000000"
         stroke-width="0.35 px"
         style="fill:none;fill-opacity:1;fill-rule:evenodd;stroke-width:0.1;stroke-miterlimit:4;stroke-dasharray:none" /><path
         id="Sketch225_w0022"
         d="m -104.38339,-50.082861 -0.47877,-13.710207 -14.99087,0.523493 0.5235,14.990862 13.66087,-0.477048"
         stroke="#000000"
         stroke-width="0.35 px"
         style="fill:none;fill-opacity:1;fill-rule:evenodd;stroke-width:0.1;stroke-miterlimit:4;stroke-dasharray:none" /><path
         id="Sketch225_w0023"
         d="m -70.332572,-6.3708736 -3.118675,-14.6722144 14.672214,-3.118675 3.118675,14.6722141 -14.672214,3.1186753"
         stroke="#000000"
         stroke-width="0.35 px"
         style="fill:none;fill-opacity:1;fill-rule:evenodd;stroke-width:0.1;stroke-miterlimit:4;stroke-dasharray:none" /><path
         id="Sketch225_w0024"
         d="m -91.620454,-19.71293 13.692816,-2.910498 3.118675,14.6722143 -14.672214,3.1186753 -2.826004,-13.2953026"
         stroke="#000000"
         stroke-width="0.35 px"
         style="fill:none;fill-opacity:1;fill-rule:evenodd;stroke-width:0.1;stroke-miterlimit:4;stroke-dasharray:none" /><path
         id="Sketch225_w0025"
         d="m -74.29329,-25.004585 -3.118675,-14.672214 14.672214,-3.118676 3.118675,14.672214 -14.672214,3.118676"
         stroke="#000000"
         stroke-width="0.35 px"
         style="fill:none;fill-opacity:1;fill-rule:evenodd;stroke-width:0.1;stroke-miterlimit:4;stroke-dasharray:none" /><path
         id="Sketch225_w0026"
         d="m -93.58252,-24.127841 -2.97805,-14.010623 14.672214,-3.118676 3.118675,14.672214 -12.850773,2.731517"
         stroke="#000000"
         stroke-width="0.35 px"
         style="fill:none;fill-opacity:1;fill-rule:evenodd;stroke-width:0.1;stroke-miterlimit:4;stroke-dasharray:none" /><path
         id="Sketch225_w0027"
         d="m -78.254007,-43.638297 -3.118676,-14.672214 14.672214,-3.118676 3.118676,14.672215 -14.672214,3.118675"
         stroke="#000000"
         stroke-width="0.35 px"
         style="fill:none;fill-opacity:1;fill-rule:evenodd;stroke-width:0.1;stroke-miterlimit:4;stroke-dasharray:none" /><path
         id="Sketch225_w0028"
         d="m -97.402613,-42.099962 -3.118677,-14.672214 14.672216,-3.118675 3.118676,14.672214 -14.672215,3.118675"
         stroke="#000000"
         stroke-width="0.35 px"
         style="fill:none;fill-opacity:1;fill-rule:evenodd;stroke-width:0.1;stroke-miterlimit:4;stroke-dasharray:none" /><path
         id="Sketch225_w0029"
         d="m -40.652342,-35.414519 -13.662667,3.6609 3.882286,14.488888 14.488887,-3.882286 -3.521354,-13.141873"
         stroke="#000000"
         stroke-width="0.35 px"
         style="fill:none;fill-opacity:1;fill-rule:evenodd;stroke-width:0.1;stroke-miterlimit:4;stroke-dasharray:none" /><path
         id="Sketch225_w0030"
         d="m -35.399142,-38.991531 14.351597,-3.845499 3.882285,14.488888 -14.488887,3.882285 -2.978999,-11.117775"
         stroke="#000000"
         stroke-width="0.35 px"
         style="fill:none;fill-opacity:1;fill-rule:evenodd;stroke-width:0.1;stroke-miterlimit:4;stroke-dasharray:none" /><path
         id="Sketch225_w0031"
         d="m -40.09806,-40.33097 -3.73852,-13.952346 -14.488887,3.882285 3.882285,14.488888 12.742623,-3.414376"
         stroke="#000000"
         stroke-width="0.35 px"
         style="fill:none;fill-opacity:1;fill-rule:evenodd;stroke-width:0.1;stroke-miterlimit:4;stroke-dasharray:none" /><path
         id="Sketch225_w0032"
         d="m -36.58465,-42.866744 -3.882286,-14.488887 14.488888,-3.882286 3.882285,14.488888 -14.488887,3.882285"
         stroke="#000000"
         stroke-width="0.35 px"
         style="fill:none;fill-opacity:1;fill-rule:evenodd;stroke-width:0.1;stroke-miterlimit:4;stroke-dasharray:none" /><path
         id="Sketch225_w0033"
         d="m -62.703944,-68.949833 14.488888,-3.882286 3.882286,14.488888 -14.488888,3.882286 -3.212163,-11.987957"
         stroke="#000000"
         stroke-width="0.35 px"
         style="fill:none;fill-opacity:1;fill-rule:evenodd;stroke-width:0.1;stroke-miterlimit:4;stroke-dasharray:none" /><path
         id="Sketch225_w0034"
         d="m -40.963126,-61.415546 -3.882286,-14.488887 14.488888,-3.882286 3.882285,14.488888 -14.488887,3.882285"
         stroke="#000000"
         stroke-width="0.35 px"
         style="fill:none;fill-opacity:1;fill-rule:evenodd;stroke-width:0.1;stroke-miterlimit:4;stroke-dasharray:none" /><path
         id="Sketch225_w0035"
         d="m -72.478951,-68.300853 -6.809857,-13.365097 13.365098,-6.809858 6.809857,13.365098 -13.365098,6.809857"
         stroke="#000000"
         stroke-width="0.35 px"
         style="fill:none;fill-opacity:1;fill-rule:evenodd;stroke-width:0.1;stroke-miterlimit:4;stroke-dasharray:none" /><path
         id="Sketch225_w0036"
         d="m -55.505276,-76.949372 -6.809858,-13.365097 13.365098,-6.809858 6.809857,13.365098 -13.365097,6.809857"
         stroke="#000000"
         stroke-width="0.35 px"
         style="fill:none;fill-opacity:1;fill-rule:evenodd;stroke-width:0.1;stroke-miterlimit:4;stroke-dasharray:none" /><path
         id="Sketch225_w0037"
         d="m -37.78474,-86.464176 -7.948789,-12.720721 12.720721,-7.948793 7.948789,12.720725 -12.720721,7.948789"
         stroke="#000000"
         stroke-width="0.35 px"
         style="fill:none;fill-opacity:1;fill-rule:evenodd;stroke-width:0.1;stroke-miterlimit:4;stroke-dasharray:none" /><path
         id="Sketch225_w0038"
         d="m 15,-51.891535 v 11 h -5 5 v -11 H 18.899782 15 m -2.100219,0 H 10 12.899781 v -7.575256 h 6.000001 v 7.575256 m -6.000001,-1.575254 v -6.000002 h 6.000001 v 6.000002"
         stroke="#000000"
         stroke-width="0.35 px"
         style="fill:#000000;fill-opacity:1;fill-rule:evenodd;stroke-width:0.1;stroke-miterlimit:4;stroke-dasharray:none" /><path
         id="Sketch225_w0039"
         d="m 100.01411,-51.011582 5.86888,1.24747 -1.24747,5.868886 -5.868884,-1.24747 -0.686265,-0.14587 0.686265,0.14587 5.868884,1.24747 1.24747,-5.868886 -5.86888,-1.24747 m 0,0 -0.686269,-0.14587 0.686269,0.14587"
         stroke="#000000"
         stroke-width="0.35 px"
         style="fill:#000000;fill-opacity:1;fill-rule:evenodd;stroke-width:0.1;stroke-miterlimit:4;stroke-dasharray:none" /><path
         id="Sketch225_w0040"
         d="m 67.370877,-63.729536 -5.816699,-2.963756 2.901949,-5.695394 5.62479,3.109109 -2.71004,5.550041 m 0,0 2.901948,-5.695394 -2.901948,5.695394"
         stroke="#000000"
         stroke-width="0.35 px"
         style="fill:#000000;fill-opacity:1;fill-rule:evenodd;stroke-width:0.1;stroke-miterlimit:4;stroke-dasharray:none" /><path
         id="Sketch225_w0041"
         d="m 28.70214,-83.295776 -5.088289,-3.179516 3.974394,-6.360361 5.067098,3.202018 -3.953203,6.337859 m 0,0 3.974394,-6.360361 -3.974394,6.360361"
         stroke="#000000"
         stroke-width="0.35 px"
         style="fill:#000000;fill-opacity:1;fill-rule:evenodd;stroke-width:0.1;stroke-miterlimit:4;stroke-dasharray:none" /><path
         id="Sketch225_w0042"
         d="m -97.620454,-18.127841 h 6 v -6 h -6 v 6"
         stroke="#000000"
         stroke-width="0.35 px"
         style="fill:#000000;fill-opacity:1;fill-rule:evenodd;stroke-width:0.1;stroke-miterlimit:4;stroke-dasharray:none" /><path
         id="Sketch225_w0043"
         d="m -98.080371,-45.288566 -0.686265,0.14587 -5.868884,1.24747 -1.24747,-5.868886 5.86888,-1.24747 0.686269,-0.14587"
         stroke="#000000"
         stroke-width="0.35 px"
         style="fill:#000000;fill-opacity:1;fill-rule:evenodd;stroke-width:0.1;stroke-miterlimit:4;stroke-dasharray:none" /><path
         id="Sketch225_w0044"
         d="m -40.291411,-34.067505 5.795555,-1.552914 -1.552914,-5.795555 -5.795555,1.552914 1.552914,5.795555"
         stroke="#000000"
         stroke-width="0.35 px"
         style="fill:#000000;fill-opacity:1;fill-rule:evenodd;stroke-width:0.1;stroke-miterlimit:4;stroke-dasharray:none" /><path
         id="Sketch225_w0045"
         d="m -18.899782,-53.466789 h 6.000001 v -6.000002 h -6.000001 v 6.000002"
         stroke="#000000"
         stroke-width="0.35 px"
         style="fill:#000000;fill-opacity:1;fill-rule:evenodd;stroke-width:0.1;stroke-miterlimit:4;stroke-dasharray:none" /><path
         id="Sketch225_w0046"
         d="m -70.272825,-69.42493 2.901948,5.695394 5.816699,-2.963756 -2.901949,-5.695394"
         stroke="#000000"
         stroke-width="0.35 px"
         style="fill:#000000;fill-opacity:1;fill-rule:evenodd;stroke-width:0.1;stroke-miterlimit:4;stroke-dasharray:none" /><path
         id="Sketch225_w0047"
         d="m -32.676534,-89.656137 3.974394,6.360361 5.088289,-3.179516 -3.974394,-6.360361"
         stroke="#000000"
         stroke-width="0.35 px"
         style="fill:#000000;fill-opacity:1;fill-rule:evenodd;stroke-width:0.1;stroke-miterlimit:4;stroke-dasharray:none" /><path
         id="Sketch225_w0048"
         d="m -22.975863,-75.179367 -3.179516,-5.088289 5.088289,-3.179516 3.179515,5.088289 -5.088288,3.179516"
         stroke="#000000"
         stroke-width="0.35 px"
         style="fill:#000000;fill-opacity:1;fill-rule:evenodd;stroke-width:0.1;stroke-miterlimit:4;stroke-dasharray:none" /><path
         id="Sketch225_w0049"
         d="m 34.495857,-35.620419 5.795555,1.552914 1.552914,-5.795555 -5.795555,-1.552914 -1.552914,5.795555"
         stroke="#000000"
         stroke-width="0.35 px"
         style="fill:#000000;fill-opacity:1;fill-rule:evenodd;stroke-width:0.1;stroke-miterlimit:4;stroke-dasharray:none" /><path
         id="Sketch225_w0050"
         d="m 91.620453,-18.12784 h 6 v -6 h -6 v 6"
         stroke="#000000"
         stroke-width="0.35 px"
         style="fill:#000000;fill-opacity:1;fill-rule:evenodd;stroke-width:0.1;stroke-miterlimit:4;stroke-dasharray:none" /><path
         id="Sketch225_w0051"
         d="m 22.975863,-75.179367 3.179515,-5.088287 -5.088287,-3.17952 -3.179516,5.088287 5.088288,3.17952"
         stroke="#000000"
         stroke-width="0.35 px"
         style="fill:#000000;fill-opacity:1;fill-rule:evenodd;stroke-width:0.1;stroke-miterlimit:4;stroke-dasharray:none" /><title
         id="title1">b'Sketch225'</title><rect
         style="fill:#000000;fill-opacity:1;stroke:#000000;stroke-width:0.1;stroke-dasharray:none;paint-order:markers fill stroke"
         id="rect9"
         width="4.8856888"
         height="10.976856"
         x="10.114235"
         y="40.986683"
         transform="scale(1,-1)" /><rect
         style="fill:#000000;fill-opacity:1;stroke:#000000;stroke-width:0.1;stroke-dasharray:none;paint-order:markers fill stroke"
         id="rect10"
         width="5.988204"
         height="5.9573693"
         x="12.893572"
         y="53.392822"
         transform="scale(1,-1)" /><rect
         style="fill:#000000;fill-opacity:1;stroke:#000000;stroke-width:0.100006;stroke-dasharray:none;paint-order:markers fill stroke"
         id="rect12"
         width="6.544395"
         height="5.9446135"
         x="86.172287"
         y="63.910114"
         transform="matrix(0.97977125,0.20012071,0.21539888,-0.97652615,0,0)" /><rect
         style="fill:#000000;stroke:#000000;stroke-width:0.1;paint-order:markers fill stroke"
         id="rect1"
         width="10.051319"
         height="6.496223"
         x="-5.0152717"
         y="75.968269"
         transform="scale(1,-1)"
         rx="0.013181597"
         ry="0.42002726" /></g><text
       xml:space="preserve"
       style="font-size:3.52778px;font-family:'Black Ops One';-inkscape-font-specification:'Black Ops One';fill:#000000;stroke:#000000;stroke-width:0.1;paint-order:markers fill stroke"
       x="8.490922"
       y="20.105408"
       id="text1"><tspan
         sodipodi:role="line"
         x="8.490922"
         y="20.105408"
         id="tspan43"
         style="font-style:normal;font-variant:normal;font-weight:normal;font-stretch:normal;font-size:3.52778px;font-family:'源ノ角ゴシック JP';-inkscape-font-specification:'源ノ角ゴシック JP'">最初にこの紙に印刷されているプレートの線がミドルプレート (上) と同じサイズで印刷されていることを確認します。 </tspan><tspan
         sodipodi:role="line"
         x="8.490922"
         y="25.041267"
         id="tspan53"
         style="font-style:normal;font-variant:normal;font-weight:normal;font-stretch:normal;font-size:3.52778px;font-family:'源ノ角ゴシック JP';-inkscape-font-specification:'源ノ角ゴシック JP'">同じサイズだった場合、以下の手順を実施します。</tspan><tspan
         sodipodi:role="line"
         x="8.490922"
         y="29.977129"
         id="tspan54"
         style="font-style:normal;font-variant:normal;font-weight:normal;font-stretch:normal;font-size:3.52778px;font-family:'源ノ角ゴシック JP';-inkscape-font-specification:'源ノ角ゴシック JP'" /><tspan
         sodipodi:role="line"
         x="8.490922"
         y="34.912991"
         id="tspan55"
         style="font-style:normal;font-variant:normal;font-weight:normal;font-stretch:normal;font-size:3.52778px;font-family:'源ノ角ゴシック JP';-inkscape-font-specification:'源ノ角ゴシック JP'">1. シリコンシートについている保護シートを両面剥がします。</tspan><tspan
         sodipodi:role="line"
         x="8.490922"
         y="39.84885"
         id="tspan56"
         style="font-style:normal;font-variant:normal;font-weight:normal;font-stretch:normal;font-size:3.52778px;font-family:'源ノ角ゴシック JP';-inkscape-font-specification:'源ノ角ゴシック JP'">2. シリコンカットサポートシート (この紙) にシリコンシートをおきます。 (マスキングテープなどで固定すると切りやすくなります。)</tspan><tspan
         sodipodi:role="line"
         x="8.490922"
         y="44.78471"
         id="tspan57"
         style="font-style:normal;font-variant:normal;font-weight:normal;font-stretch:normal;font-size:3.52778px;font-family:'源ノ角ゴシック JP';-inkscape-font-specification:'源ノ角ゴシック JP'">4. 黒い部分とシリコンシートと一緒に切り抜きます。</tspan><tspan
         sodipodi:role="line"
         x="8.490922"
         y="49.72057"
         id="tspan58"
         style="font-style:normal;font-variant:normal;font-weight:normal;font-stretch:normal;font-size:3.52778px;font-family:'源ノ角ゴシック JP';-inkscape-font-specification:'源ノ角ゴシック JP'">5. ミドルプレート (上) のトッププレート側の保護シートを剥がします。</tspan><tspan
         sodipodi:role="line"
         x="8.490922"
         y="54.656429"
         id="tspan59"
         style="font-style:normal;font-variant:normal;font-weight:normal;font-stretch:normal;font-size:3.52778px;font-family:'源ノ角ゴシック JP';-inkscape-font-specification:'源ノ角ゴシック JP'">6. 手順5で剥がした側がシリコンシートと接するようにミドルプレート (上) をシリコンシートの上に置きます。</tspan><tspan
         sodipodi:role="line"
         x="8.490922"
         y="59.592289"
         id="tspan60"
         style="font-style:normal;font-variant:normal;font-weight:normal;font-stretch:normal;font-size:3.52778px;font-family:'源ノ角ゴシック JP';-inkscape-font-specification:'源ノ角ゴシック JP'">7. ミドルプレート (上) に沿って、シリコンシートをカットします。</tspan><tspan
         sodipodi:role="line"
         x="8.490922"
         y="64.528152"
         id="tspan61"
         style="font-style:normal;font-variant:normal;font-weight:normal;font-stretch:normal;font-size:3.52778px;font-family:'源ノ角ゴシック JP';-inkscape-font-specification:'源ノ角ゴシック JP'">8. 全体を裏返し、シリコンカットサポートシート (この紙) を剥がします。</tspan><tspan
         sodipodi:role="line"
         x="8.490922"
         y="69.464012"
         id="tspan62"
         style="font-style:normal;font-variant:normal;font-weight:normal;font-stretch:normal;font-size:3.52778px;font-family:'源ノ角ゴシック JP';-inkscape-font-specification:'源ノ角ゴシック JP'">9. シリコンシート側にトッププレートをずれないように重ねます。</tspan><tspan
         sodipodi:role="line"
         x="8.490922"
         y="73.873734"
         id="tspan63"
         style="font-style:normal;font-variant:normal;font-weight:normal;font-stretch:normal;font-size:3.52778px;font-family:'源ノ角ゴシック JP';-inkscape-font-specification:'源ノ角ゴシック JP'" /></text><text
       xml:space="preserve"
       style="font-size:4.93889px;font-family:'Source Code Pro';-inkscape-font-specification:'Source Code Pro';fill:#000000;stroke:#000000;stroke-width:0.1;paint-order:markers fill stroke"
       x="3.7724705"
       y="9.3375311"
       id="text10"><tspan
         sodipodi:role="line"
         id="tspan10"
         style="font-size:4.93889px;stroke-width:0.1"
         x="3.7724705"
         y="9.3375311">nowt36 シリコンカットサポートシート</tspan></text><text
       xml:space="preserve"
       style="font-size:4.9389px;font-family:'Source Code Pro';-inkscape-font-specification:'Source Code Pro';fill:#000000;stroke:#000000;stroke-width:0.1;paint-order:markers fill stroke"
       x="186.34558"
       y="51.09433"
       id="text22"><tspan
         sodipodi:role="line"
         id="tspan22"
         style="stroke-width:0.1" /></text></g></svg>
