%TF.GenerationSoftware,KiCad,Pcbnew,(6.0.6)*%
%TF.CreationDate,2022-07-10T10:04:30+09:00*%
%TF.ProjectId,nowt_promicro_plate_B,6e6f7774-5f70-4726-9f6d-6963726f5f70,rev?*%
%TF.SameCoordinates,Original*%
%TF.FileFunction,Soldermask,Bot*%
%TF.FilePolarity,Negative*%
%FSLAX46Y46*%
G04 Gerber Fmt 4.6, Leading zero omitted, Abs format (unit mm)*
G04 Created by KiCad (PCBNEW (6.0.6)) date 2022-07-10 10:04:30*
%MOMM*%
%LPD*%
G01*
G04 APERTURE LIST*
%TA.AperFunction,Profile*%
%ADD10C,0.349999*%
%TD*%
%ADD11C,1.200000*%
%ADD12C,2.300000*%
G04 APERTURE END LIST*
D10*
X42960000Y-56760000D02*
X42985871Y-56746749D01*
X42985871Y-56746749D02*
X43010997Y-56732302D01*
X47090223Y-60863932D02*
X47086407Y-60893959D01*
X47086407Y-60893959D02*
X47084090Y-60924430D01*
X47102199Y-60805357D02*
X47095499Y-60834385D01*
X47095499Y-60834385D02*
X47090223Y-60863932D01*
X37690275Y-61819159D02*
X37721151Y-61818378D01*
X37721151Y-61818378D02*
X37751622Y-61816061D01*
X48196445Y-61266425D02*
X48210893Y-61241299D01*
X48210893Y-61241299D02*
X48224143Y-61215428D01*
X37840225Y-60638052D02*
X37811196Y-60631352D01*
X37811196Y-60631352D02*
X37781649Y-60626075D01*
X37598902Y-60626075D02*
X37569355Y-60631352D01*
X48164111Y-61314293D02*
X48180839Y-61290769D01*
X48180839Y-61290769D02*
X48196445Y-61266425D01*
X42102972Y-56280514D02*
X42106788Y-56310541D01*
X42106788Y-56310541D02*
X42112064Y-56340088D01*
X37540326Y-60638052D02*
X37511854Y-60646137D01*
X43292962Y-66127779D02*
X43287685Y-66098233D01*
X43287685Y-66098233D02*
X43280986Y-66069205D01*
X42413879Y-65691571D02*
X42388753Y-65706019D01*
X42388753Y-65706019D02*
X42364409Y-65721625D01*
X43227459Y-66505146D02*
X43240709Y-66479276D01*
X43240709Y-66479276D02*
X43252724Y-66452698D01*
X37308620Y-60756173D02*
X37286849Y-60775031D01*
X48224143Y-61215428D02*
X48236159Y-61188851D01*
X48236159Y-61188851D02*
X48246902Y-61161604D01*
X48107573Y-60531043D02*
X48086735Y-60511176D01*
X48086735Y-60511176D02*
X48064965Y-60492318D01*
X48246902Y-61161604D02*
X48256335Y-61133726D01*
X48256335Y-61133726D02*
X48264420Y-61105253D01*
X37483976Y-60655570D02*
X37456729Y-60666313D01*
X43081531Y-66682140D02*
X43103302Y-66663282D01*
X43103302Y-66663282D02*
X43124139Y-66643415D01*
X43280986Y-66069205D02*
X43272901Y-66040732D01*
X43272901Y-66040732D02*
X43263467Y-66012854D01*
X42388753Y-66732287D02*
X42413879Y-66746734D01*
X42413879Y-66746734D02*
X42439750Y-66759984D01*
X37331286Y-60738361D02*
X37308620Y-60756173D01*
X37126683Y-61425459D02*
X37137426Y-61452706D01*
X42275611Y-65794891D02*
X42255744Y-65815728D01*
X42255744Y-65815728D02*
X42236885Y-65837499D01*
X43272901Y-66397573D02*
X43280986Y-66369101D01*
X43280986Y-66369101D02*
X43287685Y-66340073D01*
X43162864Y-66600806D02*
X43180677Y-66578140D01*
X43180677Y-66578140D02*
X43197405Y-66554616D01*
X37690275Y-60619162D02*
X37659399Y-60619943D01*
X43287685Y-66340073D02*
X43292962Y-66310526D01*
X43292962Y-66310526D02*
X43296778Y-66280499D01*
X42102972Y-66157807D02*
X42100655Y-66188277D01*
X42100655Y-66188277D02*
X42099875Y-66219153D01*
X37404280Y-60691579D02*
X37379154Y-60706026D01*
X37117250Y-61397581D02*
X37126683Y-61425459D01*
X42126849Y-66040732D02*
X42118764Y-66069205D01*
X42118764Y-66069205D02*
X42112064Y-66098233D01*
X38217859Y-60933167D02*
X38203412Y-60908040D01*
X42761222Y-66816053D02*
X42791249Y-66812238D01*
X42791249Y-66812238D02*
X42820796Y-66806961D01*
X42159041Y-66479276D02*
X42172291Y-66505146D01*
X42172291Y-66505146D02*
X42186739Y-66530273D01*
X37896576Y-60655570D02*
X37868697Y-60646137D01*
X43144006Y-65815728D02*
X43124139Y-65794891D01*
X43124139Y-65794891D02*
X43103302Y-65775024D01*
X42118764Y-56069220D02*
X42112064Y-56098248D01*
X42112064Y-56098248D02*
X42106788Y-56127795D01*
X43124139Y-66643415D02*
X43144006Y-66622577D01*
X43144006Y-66622577D02*
X43162864Y-66600806D01*
X37137426Y-61452706D02*
X37149442Y-61479283D01*
X69351120Y-62855536D02*
X69351120Y-62855536D01*
X42960000Y-65678321D02*
X42933422Y-65666305D01*
X42933422Y-65666305D02*
X42906175Y-65655562D01*
X42878297Y-66792176D02*
X42906175Y-66782743D01*
X42906175Y-66782743D02*
X42933422Y-66772000D01*
X38283362Y-61127787D02*
X38278086Y-61098240D01*
X42340885Y-66699952D02*
X42364409Y-66716680D01*
X42364409Y-66716680D02*
X42388753Y-66732287D01*
X37177139Y-61530280D02*
X37192746Y-61554624D01*
X43299875Y-66219153D02*
X43299875Y-66219153D01*
X43299875Y-66219153D02*
X43299875Y-66219153D01*
X37721151Y-60619943D02*
X37690275Y-60619162D01*
X37430151Y-60678329D02*
X37404280Y-60691579D01*
X42136282Y-66425451D02*
X42147026Y-66452698D01*
X42147026Y-66452698D02*
X42159041Y-66479276D01*
X37266012Y-60794898D02*
X37246145Y-60815736D01*
X48236159Y-60721760D02*
X48224143Y-60695182D01*
X48224143Y-60695182D02*
X48210893Y-60669312D01*
X42219073Y-66578140D02*
X42236885Y-66600806D01*
X42236885Y-66600806D02*
X42255744Y-66622577D01*
X48210893Y-60669312D02*
X48196445Y-60644185D01*
X48196445Y-60644185D02*
X48180839Y-60619842D01*
X37246145Y-60815736D02*
X37227286Y-60837507D01*
X42364409Y-65721625D02*
X42340885Y-65738353D01*
X42340885Y-65738353D02*
X42318219Y-65756165D01*
X42296448Y-66663282D02*
X42318219Y-66682140D01*
X42318219Y-66682140D02*
X42340885Y-66699952D01*
X37286849Y-60775031D02*
X37266012Y-60794898D01*
X42820796Y-66806961D02*
X42849824Y-66800261D01*
X42849824Y-66800261D02*
X42878297Y-66792176D01*
X48280212Y-60893959D02*
X48276397Y-60863932D01*
X48276397Y-60863932D02*
X48271120Y-60834385D01*
X48271120Y-60834385D02*
X48264420Y-60805357D01*
X48264420Y-60805357D02*
X48256335Y-60776885D01*
X48180839Y-60619842D02*
X48164111Y-60596318D01*
X48164111Y-60596318D02*
X48146298Y-60573652D01*
X48256335Y-60776885D02*
X48246902Y-60749007D01*
X48246902Y-60749007D02*
X48236159Y-60721760D01*
X48283310Y-60955305D02*
X48282529Y-60924430D01*
X48282529Y-60924430D02*
X48280212Y-60893959D01*
X42318219Y-65756165D02*
X42296448Y-65775024D01*
X42296448Y-65775024D02*
X42275611Y-65794891D01*
X42099875Y-66219153D02*
X42099875Y-66219153D01*
X42099875Y-66219153D02*
X42100655Y-66250028D01*
X37781649Y-60626075D02*
X37751622Y-60622260D01*
X48146298Y-60573652D02*
X48127440Y-60551881D01*
X48127440Y-60551881D02*
X48107573Y-60531043D01*
X42100655Y-66250028D02*
X42102972Y-66280499D01*
X42102972Y-66280499D02*
X42106788Y-66310526D01*
X47119717Y-60749007D02*
X47110284Y-60776885D01*
X47110284Y-60776885D02*
X47102199Y-60805357D01*
X42820796Y-55631359D02*
X42791249Y-55626083D01*
X42791249Y-55626083D02*
X42761222Y-55622267D01*
X38217859Y-61505154D02*
X38231109Y-61479283D01*
X38231109Y-61479283D02*
X38243125Y-61452706D01*
X37811196Y-61806969D02*
X37840225Y-61800269D01*
X37840225Y-61800269D02*
X37868697Y-61792184D01*
X42985871Y-55691587D02*
X42960000Y-55678336D01*
X42960000Y-55678336D02*
X42933422Y-55666321D01*
X42099875Y-56219168D02*
X42100655Y-56250044D01*
X42100655Y-56250044D02*
X42102972Y-56280514D01*
X37093373Y-61157814D02*
X37091056Y-61188285D01*
X37091056Y-61250036D02*
X37093373Y-61280506D01*
X37540326Y-61800269D02*
X37569355Y-61806969D01*
X37569355Y-61806969D02*
X37598902Y-61812245D01*
X38231109Y-60959037D02*
X38217859Y-60933167D01*
X43081531Y-55756181D02*
X43058865Y-55738369D01*
X43058865Y-55738369D02*
X43035341Y-55721640D01*
X42699875Y-15610083D02*
X28708011Y-15610083D01*
X42549925Y-55638059D02*
X42521453Y-55646144D01*
X42521453Y-55646144D02*
X42493575Y-55655577D01*
X47083309Y-60955305D02*
X47084090Y-60986181D01*
X47084090Y-60986181D02*
X47086407Y-61016651D01*
X48283310Y-60955305D02*
X48283310Y-60955305D01*
X38203412Y-60908040D02*
X38187805Y-60883697D01*
X38153265Y-60837507D02*
X38134407Y-60815736D01*
X56691738Y-15610083D02*
X42699875Y-15610083D01*
X37868697Y-61792184D02*
X37896576Y-61782751D01*
X37896576Y-61782751D02*
X37923823Y-61772008D01*
X37109165Y-61069212D02*
X37102465Y-61098240D01*
X37102465Y-61340080D02*
X37109165Y-61369108D01*
X42730751Y-65619935D02*
X42699875Y-65619154D01*
X42699875Y-65619154D02*
X42699875Y-65619154D01*
X43058865Y-56699967D02*
X43081531Y-56682155D01*
X43081531Y-56682155D02*
X43103302Y-56663297D01*
X37192746Y-60883697D02*
X37177139Y-60908040D01*
X37126683Y-61012862D02*
X37117250Y-61040740D01*
X43252724Y-55985622D02*
X43240709Y-55959045D01*
X43240709Y-55959045D02*
X43227459Y-55933174D01*
X42126849Y-56397588D02*
X42136282Y-56425467D01*
X42136282Y-56425467D02*
X42147026Y-56452713D01*
X42255744Y-55815743D02*
X42236885Y-55837514D01*
X42236885Y-55837514D02*
X42219073Y-55860180D01*
X43058865Y-65738353D02*
X43035341Y-65721625D01*
X43035341Y-65721625D02*
X43010997Y-65706019D01*
X42668999Y-66818370D02*
X42699875Y-66819151D01*
X42699875Y-66819151D02*
X42699875Y-66819151D01*
X38153265Y-61600814D02*
X38171077Y-61578148D01*
X38171077Y-61578148D02*
X38187805Y-61554624D01*
X42699875Y-15610083D02*
X42699875Y-15610083D01*
X28708011Y-15610083D02*
X16048630Y-62855536D01*
X42147026Y-65985607D02*
X42136282Y-66012854D01*
X42136282Y-66012854D02*
X42126849Y-66040732D01*
X38290276Y-61219160D02*
X38290276Y-61219160D01*
X38290276Y-61219160D02*
X38290276Y-61219160D01*
X42364409Y-56716695D02*
X42388753Y-56732302D01*
X42388753Y-56732302D02*
X42413879Y-56746749D01*
X42255744Y-66622577D02*
X42275611Y-66643415D01*
X42275611Y-66643415D02*
X42296448Y-66663282D01*
X42186739Y-66530273D02*
X42202345Y-66554616D01*
X42202345Y-66554616D02*
X42219073Y-66578140D01*
X38278086Y-61340080D02*
X38283362Y-61310534D01*
X38283362Y-61310534D02*
X38287178Y-61280506D01*
X42202345Y-65883689D02*
X42186739Y-65908033D01*
X42186739Y-65908033D02*
X42172291Y-65933159D01*
X43296778Y-56157822D02*
X43292962Y-56127795D01*
X43292962Y-56127795D02*
X43287685Y-56098248D01*
X37483976Y-61782751D02*
X37511854Y-61792184D01*
X37659399Y-60619943D02*
X37628929Y-60622260D01*
X42388753Y-55706034D02*
X42364409Y-55721640D01*
X42364409Y-55721640D02*
X42340885Y-55738369D01*
X38025741Y-60721633D02*
X38001397Y-60706026D01*
X38049265Y-60738361D02*
X38025741Y-60721633D01*
X38187805Y-60883697D02*
X38171077Y-60860173D01*
X16048630Y-62855536D02*
X25432392Y-68719160D01*
X16048630Y-62855536D02*
X16048630Y-62855536D01*
X38253868Y-61012862D02*
X38243125Y-60985615D01*
X37102465Y-61098240D02*
X37097188Y-61127787D01*
X42136282Y-56012869D02*
X42126849Y-56040748D01*
X42126849Y-56040748D02*
X42118764Y-56069220D01*
X38278086Y-61098240D02*
X38271386Y-61069212D01*
X42236885Y-65837499D02*
X42219073Y-65860165D01*
X42219073Y-65860165D02*
X42202345Y-65883689D01*
X37209474Y-61578148D02*
X37227286Y-61600814D01*
X48282529Y-60986181D02*
X48283310Y-60955305D01*
X48283310Y-60955305D02*
X48283310Y-60955305D01*
X48264420Y-61105253D02*
X48271120Y-61076225D01*
X48271120Y-61076225D02*
X48276397Y-61046679D01*
X48276397Y-61046679D02*
X48280212Y-61016651D01*
X48280212Y-61016651D02*
X48282529Y-60986181D01*
X47301653Y-61418292D02*
X47324319Y-61436105D01*
X47324319Y-61436105D02*
X47347843Y-61452833D01*
X42521453Y-65646129D02*
X42493575Y-65655562D01*
X42493575Y-65655562D02*
X42466328Y-65666305D01*
X47220320Y-61336959D02*
X47239178Y-61358730D01*
X47239178Y-61358730D02*
X47259045Y-61379567D01*
X47259045Y-61379567D02*
X47279883Y-61399434D01*
X47279883Y-61399434D02*
X47301653Y-61418292D01*
X37456729Y-60666313D02*
X37430151Y-60678329D01*
X47347843Y-61452833D02*
X47372187Y-61468439D01*
X47372187Y-61468439D02*
X47397313Y-61482887D01*
X47397313Y-61482887D02*
X47423184Y-61496137D01*
X47423184Y-61496137D02*
X47449761Y-61508153D01*
X37690275Y-60619162D02*
X37690275Y-60619162D01*
X47449761Y-61508153D02*
X47477008Y-61518896D01*
X47477008Y-61518896D02*
X47504887Y-61528329D01*
X47504887Y-61528329D02*
X47533359Y-61536414D01*
X47533359Y-61536414D02*
X47562387Y-61543114D01*
X47562387Y-61543114D02*
X47591934Y-61548390D01*
X47591934Y-61548390D02*
X47621961Y-61552206D01*
X47621961Y-61552206D02*
X47652432Y-61554523D01*
X47652432Y-61554523D02*
X47683308Y-61555304D01*
X47683308Y-61555304D02*
X47683308Y-61555304D01*
X47683308Y-61555304D02*
X47714184Y-61554523D01*
X47714184Y-61554523D02*
X47744654Y-61552206D01*
X47744654Y-61552206D02*
X47774682Y-61548390D01*
X47774682Y-61548390D02*
X47804229Y-61543114D01*
X47804229Y-61543114D02*
X47833257Y-61536414D01*
X47833257Y-61536414D02*
X47861730Y-61528329D01*
X47861730Y-61528329D02*
X47889608Y-61518896D01*
X37308620Y-61682147D02*
X37331286Y-61699960D01*
X37286849Y-61663289D02*
X37308620Y-61682147D01*
X48086735Y-61399434D02*
X48107573Y-61379567D01*
X48107573Y-61379567D02*
X48127440Y-61358730D01*
X48042298Y-61436105D02*
X48064965Y-61418292D01*
X48064965Y-61418292D02*
X48086735Y-61399434D01*
X47994430Y-61468439D02*
X48018774Y-61452833D01*
X48018774Y-61452833D02*
X48042298Y-61436105D01*
X47943433Y-61496137D02*
X47969304Y-61482887D01*
X47969304Y-61482887D02*
X47994430Y-61468439D01*
X37628929Y-60622260D02*
X37598902Y-60626075D01*
X47889608Y-61518896D02*
X47916855Y-61508153D01*
X47916855Y-61508153D02*
X47943433Y-61496137D01*
X48127440Y-61358730D02*
X48146298Y-61336959D01*
X48146298Y-61336959D02*
X48164111Y-61314293D01*
X38114540Y-60794898D02*
X38093702Y-60775031D01*
X42106788Y-66310526D02*
X42112064Y-66340073D01*
X42112064Y-66340073D02*
X42118764Y-66369101D01*
X56691738Y-15610083D02*
X56691738Y-15610083D01*
X42439750Y-66759984D02*
X42466328Y-66772000D01*
X42466328Y-66772000D02*
X42493575Y-66782743D01*
X42275611Y-56643430D02*
X42296448Y-56663297D01*
X42296448Y-56663297D02*
X42318219Y-56682155D01*
X37569355Y-60631352D02*
X37540326Y-60638052D01*
X42118764Y-66369101D02*
X42126849Y-66397573D01*
X42126849Y-66397573D02*
X42136282Y-66425451D01*
X37751622Y-60622260D02*
X37721151Y-60619943D01*
X25432392Y-68719160D02*
X25432392Y-68719160D01*
X37379154Y-60706026D02*
X37354810Y-60721633D01*
X38243125Y-60985615D02*
X38231109Y-60959037D01*
X59967358Y-68719160D02*
X59967358Y-68719160D01*
X38025741Y-61716688D02*
X38049265Y-61699960D01*
X38049265Y-61699960D02*
X38071931Y-61682147D01*
X38263301Y-61040740D02*
X38253868Y-61012862D01*
X38001397Y-60706026D02*
X37976271Y-60691579D01*
X69351120Y-62855536D02*
X56691738Y-15610083D01*
X37177139Y-60908040D02*
X37162692Y-60933167D01*
X37090275Y-61219160D02*
X37091056Y-61250036D01*
X37923823Y-60666313D02*
X37896576Y-60655570D01*
X38071931Y-60756173D02*
X38049265Y-60738361D01*
X37227286Y-60837507D02*
X37209474Y-60860173D01*
X37162692Y-60933167D02*
X37149442Y-60959037D01*
X37149442Y-60959037D02*
X37137426Y-60985615D01*
X37117250Y-61040740D02*
X37109165Y-61069212D01*
X37209474Y-60860173D02*
X37192746Y-60883697D01*
X38093702Y-60775031D02*
X38071931Y-60756173D01*
X37868697Y-60646137D02*
X37840225Y-60638052D01*
X42318219Y-56682155D02*
X42340885Y-56699967D01*
X42340885Y-56699967D02*
X42364409Y-56716695D01*
X42668999Y-55619950D02*
X42638528Y-55622267D01*
X42638528Y-55622267D02*
X42608501Y-55626083D01*
X43296778Y-66280499D02*
X43299095Y-66250028D01*
X43299095Y-66250028D02*
X43299875Y-66219153D01*
X42638528Y-56816069D02*
X42668999Y-56818386D01*
X42668999Y-56818386D02*
X42699875Y-56819166D01*
X37354810Y-61716688D02*
X37379154Y-61732294D01*
X42439750Y-55678336D02*
X42413879Y-55691587D01*
X42413879Y-55691587D02*
X42388753Y-55706034D01*
X37976271Y-61746742D02*
X38001397Y-61732294D01*
X38001397Y-61732294D02*
X38025741Y-61716688D01*
X47916855Y-60402458D02*
X47889608Y-60391715D01*
X47889608Y-60391715D02*
X47861730Y-60382282D01*
X47591934Y-60362220D02*
X47562387Y-60367497D01*
X47562387Y-60367497D02*
X47533359Y-60374197D01*
X37192746Y-61554624D02*
X37209474Y-61578148D01*
X42172291Y-65933159D02*
X42159041Y-65959030D01*
X42159041Y-65959030D02*
X42147026Y-65985607D01*
X47423184Y-60414474D02*
X47397313Y-60427724D01*
X47397313Y-60427724D02*
X47372187Y-60442171D01*
X37091056Y-61188285D02*
X37090275Y-61219160D01*
X42296448Y-55775039D02*
X42275611Y-55794906D01*
X42275611Y-55794906D02*
X42255744Y-55815743D01*
X43263467Y-56425467D02*
X43272901Y-56397588D01*
X43272901Y-56397588D02*
X43280986Y-56369116D01*
X42985871Y-66746734D02*
X43010997Y-66732287D01*
X43010997Y-66732287D02*
X43035341Y-66716680D01*
X42159041Y-55959045D02*
X42147026Y-55985622D01*
X42147026Y-55985622D02*
X42136282Y-56012869D01*
X47279883Y-60511176D02*
X47259045Y-60531043D01*
X47259045Y-60531043D02*
X47239178Y-60551881D01*
X42112064Y-56340088D02*
X42118764Y-56369116D01*
X42118764Y-56369116D02*
X42126849Y-56397588D01*
X47239178Y-60551881D02*
X47220320Y-60573652D01*
X47220320Y-60573652D02*
X47202508Y-60596318D01*
X47202508Y-60596318D02*
X47185780Y-60619842D01*
X47185780Y-60619842D02*
X47170173Y-60644185D01*
X43103302Y-65775024D02*
X43081531Y-65756165D01*
X43081531Y-65756165D02*
X43058865Y-65738353D01*
X37751622Y-61816061D02*
X37781649Y-61812245D01*
X37781649Y-61812245D02*
X37811196Y-61806969D01*
X37659399Y-61818378D02*
X37690275Y-61819159D01*
X37690275Y-61819159D02*
X37690275Y-61819159D01*
X47652432Y-60356088D02*
X47621961Y-60358405D01*
X47621961Y-60358405D02*
X47591934Y-60362220D01*
X43180677Y-56578155D02*
X43197405Y-56554632D01*
X43197405Y-56554632D02*
X43213011Y-56530288D01*
X43299875Y-56219168D02*
X43299095Y-56188292D01*
X43299095Y-56188292D02*
X43296778Y-56157822D01*
X42791249Y-65626068D02*
X42761222Y-65622252D01*
X42761222Y-65622252D02*
X42730751Y-65619935D01*
X47170173Y-60644185D02*
X47155726Y-60669312D01*
X47155726Y-60669312D02*
X47142476Y-60695182D01*
X43299095Y-66188277D02*
X43296778Y-66157807D01*
X43296778Y-66157807D02*
X43292962Y-66127779D01*
X47477008Y-60391715D02*
X47449761Y-60402458D01*
X47449761Y-60402458D02*
X47423184Y-60414474D01*
X42219073Y-55860180D02*
X42202345Y-55883704D01*
X42202345Y-55883704D02*
X42186739Y-55908048D01*
X38287178Y-61280506D02*
X38289495Y-61250036D01*
X38289495Y-61250036D02*
X38290276Y-61219160D01*
X47142476Y-60695182D02*
X47130460Y-60721760D01*
X47130460Y-60721760D02*
X47119717Y-60749007D01*
X43010997Y-65706019D02*
X42985871Y-65691571D01*
X42985871Y-65691571D02*
X42960000Y-65678321D01*
X47110284Y-61133726D02*
X47119717Y-61161604D01*
X47119717Y-61161604D02*
X47130460Y-61188851D01*
X43287685Y-56098248D02*
X43280986Y-56069220D01*
X43280986Y-56069220D02*
X43272901Y-56040748D01*
X43240709Y-56479291D02*
X43252724Y-56452713D01*
X43252724Y-56452713D02*
X43263467Y-56425467D01*
X38290276Y-61219160D02*
X38289495Y-61188285D01*
X42186739Y-55908048D02*
X42172291Y-55933174D01*
X42172291Y-55933174D02*
X42159041Y-55959045D01*
X37598902Y-61812245D02*
X37628929Y-61816061D01*
X37628929Y-61816061D02*
X37659399Y-61818378D01*
X38171077Y-60860173D02*
X38153265Y-60837507D01*
X42699875Y-55619169D02*
X42699875Y-55619169D01*
X42699875Y-55619169D02*
X42668999Y-55619950D01*
X43280986Y-56369116D02*
X43287685Y-56340088D01*
X43287685Y-56340088D02*
X43292962Y-56310541D01*
X43180677Y-65860165D02*
X43162864Y-65837499D01*
X43162864Y-65837499D02*
X43144006Y-65815728D01*
X42340885Y-55738369D02*
X42318219Y-55756181D01*
X42318219Y-55756181D02*
X42296448Y-55775039D01*
X42172291Y-56505162D02*
X42186739Y-56530288D01*
X42186739Y-56530288D02*
X42202345Y-56554632D01*
X42761222Y-55622267D02*
X42730751Y-55619950D01*
X42730751Y-55619950D02*
X42699875Y-55619169D01*
X42578954Y-65631344D02*
X42549925Y-65638044D01*
X42549925Y-65638044D02*
X42521453Y-65646129D01*
X42608501Y-66812238D02*
X42638528Y-66816053D01*
X42638528Y-66816053D02*
X42668999Y-66818370D01*
X42638528Y-65622252D02*
X42608501Y-65626068D01*
X42608501Y-65626068D02*
X42578954Y-65631344D01*
X47372187Y-60442171D02*
X47347843Y-60457778D01*
X47347843Y-60457778D02*
X47324319Y-60474506D01*
X37093373Y-61280506D02*
X37097188Y-61310534D01*
X38071931Y-61682147D02*
X38093702Y-61663289D01*
X38093702Y-61663289D02*
X38114540Y-61643422D01*
X42933422Y-66772000D02*
X42960000Y-66759984D01*
X42960000Y-66759984D02*
X42985871Y-66746734D01*
X43162864Y-55837514D02*
X43144006Y-55815743D01*
X43144006Y-55815743D02*
X43124139Y-55794906D01*
X43299095Y-56250044D02*
X43299875Y-56219168D01*
X43299875Y-56219168D02*
X43299875Y-56219168D01*
X47744654Y-60358405D02*
X47714184Y-60356088D01*
X47714184Y-60356088D02*
X47683308Y-60355307D01*
X47185780Y-61290769D02*
X47202508Y-61314293D01*
X47202508Y-61314293D02*
X47220320Y-61336959D01*
X37923823Y-61772008D02*
X37950400Y-61759992D01*
X37950400Y-61759992D02*
X37976271Y-61746742D01*
X47533359Y-60374197D02*
X47504887Y-60382282D01*
X47504887Y-60382282D02*
X47477008Y-60391715D01*
X38243125Y-61452706D02*
X38253868Y-61425459D01*
X38253868Y-61425459D02*
X38263301Y-61397581D01*
X42112064Y-66098233D02*
X42106788Y-66127779D01*
X42106788Y-66127779D02*
X42102972Y-66157807D01*
X43299875Y-56219168D02*
X43299875Y-56219168D01*
X43299875Y-66219153D02*
X43299095Y-66188277D01*
X47324319Y-60474506D02*
X47301653Y-60492318D01*
X47301653Y-60492318D02*
X47279883Y-60511176D01*
X38271386Y-61069212D02*
X38263301Y-61040740D01*
X47683308Y-60355307D02*
X47683308Y-60355307D01*
X47683308Y-60355307D02*
X47652432Y-60356088D01*
X43035341Y-66716680D02*
X43058865Y-66699952D01*
X43058865Y-66699952D02*
X43081531Y-66682140D01*
X47861730Y-60382282D02*
X47833257Y-60374197D01*
X47833257Y-60374197D02*
X47804229Y-60367497D01*
X43213011Y-56530288D02*
X43227459Y-56505162D01*
X43227459Y-56505162D02*
X43240709Y-56479291D01*
X38289495Y-61188285D02*
X38287178Y-61157814D01*
X42236885Y-56600822D02*
X42255744Y-56622592D01*
X42255744Y-56622592D02*
X42275611Y-56643430D01*
X42699875Y-56819166D02*
X42699875Y-56819166D01*
X42699875Y-56819166D02*
X42730751Y-56818386D01*
X42493575Y-55655577D02*
X42466328Y-55666321D01*
X42466328Y-55666321D02*
X42439750Y-55678336D01*
X59967358Y-68719160D02*
X69351120Y-62855536D01*
X42100655Y-56188292D02*
X42099875Y-56219168D01*
X42099875Y-56219168D02*
X42099875Y-56219168D01*
X42466328Y-65666305D02*
X42439750Y-65678321D01*
X42439750Y-65678321D02*
X42413879Y-65691571D01*
X37379154Y-61732294D02*
X37404280Y-61746742D01*
X37354810Y-60721633D02*
X37331286Y-60738361D01*
X47804229Y-60367497D02*
X47774682Y-60362220D01*
X47774682Y-60362220D02*
X47744654Y-60358405D01*
X43292962Y-56310541D02*
X43296778Y-56280514D01*
X43296778Y-56280514D02*
X43299095Y-56250044D01*
X42699875Y-65619154D02*
X42668999Y-65619935D01*
X42668999Y-65619935D02*
X42638528Y-65622252D01*
X43252724Y-66452698D02*
X43263467Y-66425451D01*
X43263467Y-66425451D02*
X43272901Y-66397573D01*
X43197405Y-66554616D02*
X43213011Y-66530273D01*
X43213011Y-66530273D02*
X43227459Y-66505146D01*
X37090275Y-61219160D02*
X37090275Y-61219160D01*
X42202345Y-56554632D02*
X42219073Y-56578155D01*
X42219073Y-56578155D02*
X42236885Y-56600822D01*
X37137426Y-60985615D02*
X37126683Y-61012862D01*
X43272901Y-56040748D02*
X43263467Y-56012869D01*
X43263467Y-56012869D02*
X43252724Y-55985622D01*
X37511854Y-60646137D02*
X37483976Y-60655570D01*
X42699875Y-68719160D02*
X42699875Y-68719160D01*
X37976271Y-60691579D02*
X37950400Y-60678329D01*
X25432392Y-68719160D02*
X42699875Y-68719160D01*
X42906175Y-65655562D02*
X42878297Y-65646129D01*
X42878297Y-65646129D02*
X42849824Y-65638044D01*
X42493575Y-66782743D02*
X42521453Y-66792176D01*
X42521453Y-66792176D02*
X42549925Y-66800261D01*
X42549925Y-66800261D02*
X42578954Y-66806961D01*
X42578954Y-66806961D02*
X42608501Y-66812238D01*
X42849824Y-65638044D02*
X42820796Y-65631344D01*
X42820796Y-65631344D02*
X42791249Y-65626068D01*
X42730751Y-56818386D02*
X42761222Y-56816069D01*
X42761222Y-56816069D02*
X42791249Y-56812253D01*
X42608501Y-55626083D02*
X42578954Y-55631359D01*
X42578954Y-55631359D02*
X42549925Y-55638059D01*
X37266012Y-61643422D02*
X37286849Y-61663289D01*
X43227459Y-55933174D02*
X43213011Y-55908048D01*
X43213011Y-55908048D02*
X43197405Y-55883704D01*
X37404280Y-61746742D02*
X37430151Y-61759992D01*
X37149442Y-61479283D02*
X37162692Y-61505154D01*
X47969304Y-60427724D02*
X47943433Y-60414474D01*
X47943433Y-60414474D02*
X47916855Y-60402458D01*
X38287178Y-61157814D02*
X38283362Y-61127787D01*
X43035341Y-55721640D02*
X43010997Y-55706034D01*
X43010997Y-55706034D02*
X42985871Y-55691587D01*
X37109165Y-61369108D02*
X37117250Y-61397581D01*
X42699875Y-66819151D02*
X42730751Y-66818370D01*
X42730751Y-66818370D02*
X42761222Y-66816053D01*
X38187805Y-61554624D02*
X38203412Y-61530280D01*
X38203412Y-61530280D02*
X38217859Y-61505154D01*
X42413879Y-56746749D02*
X42439750Y-56760000D01*
X42439750Y-56760000D02*
X42466328Y-56772015D01*
X42466328Y-56772015D02*
X42493575Y-56782758D01*
X42493575Y-56782758D02*
X42521453Y-56792191D01*
X38263301Y-61397581D02*
X38271386Y-61369108D01*
X38271386Y-61369108D02*
X38278086Y-61340080D01*
X42147026Y-56452713D02*
X42159041Y-56479291D01*
X42159041Y-56479291D02*
X42172291Y-56505162D01*
X47086407Y-61016651D02*
X47090223Y-61046679D01*
X47090223Y-61046679D02*
X47095499Y-61076225D01*
X47095499Y-61076225D02*
X47102199Y-61105253D01*
X47102199Y-61105253D02*
X47110284Y-61133726D01*
X42699875Y-68719160D02*
X59967358Y-68719160D01*
X42878297Y-55646144D02*
X42849824Y-55638059D01*
X42849824Y-55638059D02*
X42820796Y-55631359D01*
X37331286Y-61699960D02*
X37354810Y-61716688D01*
X42106788Y-56127795D02*
X42102972Y-56157822D01*
X42102972Y-56157822D02*
X42100655Y-56188292D01*
X48064965Y-60492318D02*
X48042298Y-60474506D01*
X48042298Y-60474506D02*
X48018774Y-60457778D01*
X37097188Y-61310534D02*
X37102465Y-61340080D01*
X43144006Y-56622592D02*
X43162864Y-56600822D01*
X43162864Y-56600822D02*
X43180677Y-56578155D01*
X37430151Y-61759992D02*
X37456729Y-61772008D01*
X37456729Y-61772008D02*
X37483976Y-61782751D01*
X42791249Y-56812253D02*
X42820796Y-56806976D01*
X42820796Y-56806976D02*
X42849824Y-56800277D01*
X43213011Y-65908033D02*
X43197405Y-65883689D01*
X43197405Y-65883689D02*
X43180677Y-65860165D01*
X37227286Y-61600814D02*
X37246145Y-61622585D01*
X42578954Y-56806976D02*
X42608501Y-56812253D01*
X42608501Y-56812253D02*
X42638528Y-56816069D01*
X37246145Y-61622585D02*
X37266012Y-61643422D01*
X42849824Y-56800277D02*
X42878297Y-56792191D01*
X42878297Y-56792191D02*
X42906175Y-56782758D01*
X38134407Y-60815736D02*
X38114540Y-60794898D01*
X43240709Y-65959030D02*
X43227459Y-65933159D01*
X43227459Y-65933159D02*
X43213011Y-65908033D01*
X37511854Y-61792184D02*
X37540326Y-61800269D01*
X47130460Y-61188851D02*
X47142476Y-61215428D01*
X47142476Y-61215428D02*
X47155726Y-61241299D01*
X43124139Y-55794906D02*
X43103302Y-55775039D01*
X43103302Y-55775039D02*
X43081531Y-55756181D01*
X43197405Y-55883704D02*
X43180677Y-55860180D01*
X43180677Y-55860180D02*
X43162864Y-55837514D01*
X48018774Y-60457778D02*
X47994430Y-60442171D01*
X47994430Y-60442171D02*
X47969304Y-60427724D01*
X37162692Y-61505154D02*
X37177139Y-61530280D01*
X43010997Y-56732302D02*
X43035341Y-56716695D01*
X43035341Y-56716695D02*
X43058865Y-56699967D01*
X43103302Y-56663297D02*
X43124139Y-56643430D01*
X43124139Y-56643430D02*
X43144006Y-56622592D01*
X42906175Y-56782758D02*
X42933422Y-56772015D01*
X42933422Y-56772015D02*
X42960000Y-56760000D01*
X43263467Y-66012854D02*
X43252724Y-65985607D01*
X43252724Y-65985607D02*
X43240709Y-65959030D01*
X47084090Y-60924430D02*
X47083309Y-60955305D01*
X47083309Y-60955305D02*
X47083309Y-60955305D01*
X37950400Y-60678329D02*
X37923823Y-60666313D01*
X42521453Y-56792191D02*
X42549925Y-56800277D01*
X42549925Y-56800277D02*
X42578954Y-56806976D01*
X47155726Y-61241299D02*
X47170173Y-61266425D01*
X47170173Y-61266425D02*
X47185780Y-61290769D01*
X38114540Y-61643422D02*
X38134407Y-61622585D01*
X38134407Y-61622585D02*
X38153265Y-61600814D01*
X42933422Y-55666321D02*
X42906175Y-55655577D01*
X42906175Y-55655577D02*
X42878297Y-55646144D01*
X37097188Y-61127787D02*
X37093373Y-61157814D01*
D11*
%TO.C,Ref\u002A\u002A*%
X42700000Y-66230000D03*
%TD*%
%TO.C,Ref\u002A\u002A*%
X47680000Y-60970000D03*
%TD*%
%TO.C,Ref\u002A\u002A*%
X37690000Y-61230000D03*
%TD*%
%TO.C,Ref\u002A\u002A*%
X42700000Y-56220000D03*
%TD*%
D12*
%TO.C,REF\u002A\u002A*%
X20680000Y-61020000D03*
%TD*%
%TO.C,REF\u002A\u002A*%
X64730000Y-61000000D03*
%TD*%
%TO.C,REF\u002A\u002A*%
X58610000Y-38190000D03*
%TD*%
%TO.C,REF\u002A\u002A*%
X26820000Y-38180000D03*
%TD*%
M02*
