<?xml version="1.0"?>
<!DOCTYPE svg PUBLIC "-//W3C//DTD SVG 1.1//EN" "http://www.w3.org/Graphics/SVG/1.1/DTD/svg11.dtd">
<svg width="253.85505573643013mm" height="117.68876446984929mm" viewBox="0 0 253.85505573643013 117.68876446984929" xmlns="http://www.w3.org/2000/svg" version="1.1">
<g id="Sketch218" transform="translate(126.927528,2.621385) scale(1,-1)">
<path id="Sketch218_w0000"  d="M 93.75708147168527 -3.3052821546435633 L 93.36306210944879 -1.4515667741945042 A 2 2 0 0 1 90.9909 0.0889051L 74.3135269746317 -3.455989220388873 L 74.00654538098837 -2.01175435228137 A 1 1 0 0 1 72.8205 -1.24152L 51.30123884056455 -5.815575582424227 A 1 1 0 0 1 50.531 -7.00163L 51.6527586911245 -12.279080885076715 L 31.398409796932082 -17.706217248720538 A 1 1 0 0 1 30.6913 -18.931L 30.974839294738672 -19.989133943634233 L 13.394890311062571 -24.699667019702904 A 2 2 0 0 1 11.9744 -26.138L 10.0 -33.891534562477005 L 0.0 -33.891534562477005 L -10.0 -33.891534562477005 L -11.974378743528785 -26.137984554567602 A 2 2 0 0 1 -13.3949 -24.6997L -30.974839294738672 -19.989133943634233 L -30.691303012034766 -18.93096211796971 A 1 1 0 0 1 -31.3984 -17.7062L -51.6527586911245 -12.279080885076715 L -50.531002927375475 -7.001634871850259 A 1 1 0 0 1 -51.3012 -5.81558L -72.82048609156233 -1.2415184390922895 A 1 1 0 0 1 -74.0065 -2.01175L -74.3135269746317 -3.455989220388873 L -90.99094353059672 0.08890505218365718 A 2 2 0 0 1 -93.3631 -1.45157L -93.75708147168527 -3.3052821546435633 L -114.13598460896341 -2.5936351768600816 A 2 2 0 0 1 -116.205 -4.52262L -116.91262369237388 -24.7987585855183 L -118.7215211227016 -24.7355904954233 A 2 2 0 0 1 -120.79 -26.6646L -121.38513818860885 -43.70418677900089 L -122.67035471186684 -43.65930602911887 A 1 1 0 0 1 -123.705 -44.6238L -124.43753446601775 -65.61100475366915 A 2 2 0 0 1 -122.509 -67.6796L -102.52073523811279 -68.37757533484118 A 2 2 0 0 1 -100.452 -66.4486L -100.27671618377829 -61.42469400739034 L -76.59343477230709 -66.45873080496733 L -84.4353969033631 -81.84944799515638 A 2 2 0 0 1 -83.5605 -84.5399L -51.56854623760049 -100.82081004778715 L -33.27894115163277 -112.27368926392344 A 2 2 0 0 1 -30.5214 -111.638L -18.875177877637665 -93.00060826998231 L -17.267482742535105 -87.00060826998231 L 0.0 -87.00060826998231 L 17.267482742535105 -87.00060826998231 L 18.875177877637665 -93.00060826998231 L 30.521389506600386 -111.63844302982709 A 2 2 0 0 1 33.2789 -112.274L 51.56854623760049 -100.82081004778715 L 83.56048951922364 -84.53988778211034 A 2 2 0 0 1 84.4354 -81.8494L 76.59343477230709 -66.45873080496733 L 100.27671618377829 -61.42469400739034 L 100.45215459078003 -66.44859267408955 A 2 2 0 0 1 102.521 -68.3776L 122.50855180526614 -67.67958540100192 A 2 2 0 0 1 124.438 -65.611L 123.70464503553322 -44.62379735949468 A 1 1 0 0 1 122.67 -43.6593L 121.38513818860885 -43.70418677900089 L 120.79010177003437 -26.66457315617491 A 2 2 0 0 1 118.722 -24.7356L 116.91262369237388 -24.7987585855183 L 116.20456525629618 -4.522617837611692 A 2 2 0 0 1 114.136 -2.59364L 93.75708147168527 -3.3052821546435633 " stroke="#000000" stroke-width="0.35 px" style="stroke-width:0.35;stroke-miterlimit:4;stroke-dasharray:none;fill:none;fill-opacity:1;fill-rule: evenodd"/>
<path id="Sketch218_w0001"  d="M 95.72045375332534 -21.12784061748541 C 95.76466393885309 -20.80608062308747 95.43462901729532 -20.04284345007682 94.62045375332538 -20.02784061748541 C 93.80627848935538 -20.0428434500768 93.47624356779762 -20.80608062308748 93.5204537533254 -21.12784061748541 C 93.47624356779758 -21.449600611883344 93.80627848935548 -22.212837784894003 94.62045375332535 -22.227840617485413 C 95.43462901729536 -22.21283778489401 95.7646639388531 -21.44960061188334 95.72045375332533 -21.12784061748541 " stroke="#000000" stroke-width="0.35 px" style="stroke-width:0.35;stroke-miterlimit:4;stroke-dasharray:none;fill:none;fill-opacity:1;fill-rule: evenodd"/>
<path id="Sketch218_w0002"  d="M 103.42481342857387 -47.45340393524475 C 103.46902361410156 -47.131643940846786 103.1389886925439 -46.36840676783617 102.32481342857388 -46.35340393524475 C 101.51063816460405 -46.36840676783616 101.1806032430461 -47.13164394084685 101.22481342857388 -47.453403935244744 C 101.18060324304606 -47.775163929642694 101.5106381646039 -48.53840110265333 102.32481342857388 -48.553403935244745 C 103.1389886925436 -48.53840110265336 103.46902361410164 -47.77516392964271 103.42481342857387 -47.453403935244744 " stroke="#000000" stroke-width="0.35 px" style="stroke-width:0.35;stroke-miterlimit:4;stroke-dasharray:none;fill:none;fill-opacity:1;fill-rule: evenodd"/>
<path id="Sketch218_w0003"  d="M 67.15982851798535 -67.76452698644322 C 67.2040387035131 -67.44276699204529 66.87400378195528 -66.67952981903454 66.05982851798535 -66.66452698644322 C 65.24565325401545 -66.67952981903451 64.91561833245756 -67.4427669920453 64.95982851798536 -67.76452698644322 C 64.91561833245751 -68.08628698084114 65.24565325401544 -68.84952415385179 66.05982851798535 -68.86452698644321 C 66.87400378195525 -68.84952415385183 67.20403870351312 -68.08628698084112 67.15982851798535 -67.76452698644322 " stroke="#000000" stroke-width="0.35 px" style="stroke-width:0.35;stroke-miterlimit:4;stroke-dasharray:none;fill:none;fill-opacity:1;fill-rule: evenodd"/>
<path id="Sketch218_w0004"  d="M 28.847753059749028 -87.4296785405494 C 28.891963245276813 -87.10791854615145 28.56192832371896 -86.34468137314076 27.747753059749027 -86.32967854054941 C 26.933577795779076 -86.34468137314073 26.603542874221215 -87.1079185461515 26.647753059749025 -87.42967854054939 C 26.603542874221247 -87.75143853494738 26.93357779577905 -88.51467570795799 27.747753059749027 -88.52967854054941 C 28.561928323718938 -88.51467570795805 28.891963245276788 -87.75143853494737 28.847753059749028 -87.4296785405494 " stroke="#000000" stroke-width="0.35 px" style="stroke-width:0.35;stroke-miterlimit:4;stroke-dasharray:none;fill:none;fill-opacity:1;fill-rule: evenodd"/>
<path id="Sketch218_w0005"  d="M 23.12147688151683 -79.3132694562243 C 23.165687067044622 -78.99150946182635 22.835652145486765 -78.22827228881573 22.02147688151683 -78.2132694562243 C 21.207301617546868 -78.22827228881576 20.877266695989043 -78.99150946182642 20.921476881516828 -79.3132694562243 C 20.877266695989032 -79.63502945062223 21.207301617546875 -80.39826662363285 22.02147688151683 -80.41326945622433 C 22.83565214548677 -80.39826662363281 23.165687067044605 -79.63502945062221 23.12147688151683 -79.31326945622432 " stroke="#000000" stroke-width="0.35 px" style="stroke-width:0.35;stroke-miterlimit:4;stroke-dasharray:none;fill:none;fill-opacity:1;fill-rule: evenodd"/>
<path id="Sketch218_w0006"  d="M 16.999781469155913 -56.46679087195837 C 17.043991654683712 -56.14503087756042 16.713956733125844 -55.3817937045498 15.89978146915591 -55.366790871958365 C 15.085606205185965 -55.38179370454979 14.755571283628111 -56.14503087756046 14.79978146915591 -56.46679087195838 C 14.75557128362812 -56.788550866356275 15.085606205185963 -57.55178803936698 15.89978146915591 -57.566790871958375 C 16.713956733125855 -57.55178803936698 17.043991654683687 -56.78855086635625 16.999781469155913 -56.46679087195837 " stroke="#000000" stroke-width="0.35 px" style="stroke-width:0.35;stroke-miterlimit:4;stroke-dasharray:none;fill:none;fill-opacity:1;fill-rule: evenodd"/>
<path id="Sketch218_w0007"  d="M 39.270090234062444 -37.74173977157108 C 39.31430041959022 -37.41997977717314 38.984265498032386 -36.6567426041625 38.17009023406244 -36.64173977157108 C 37.355914970092506 -36.6567426041625 37.02588004853465 -37.419979777173175 37.07009023406245 -37.74173977157108 C 37.02588004853466 -38.06349976596905 37.35591497009248 -38.82673693897967 38.170090234062435 -38.84173977157109 C 38.98426549803235 -38.82673693897965 39.3143004195902 -38.063499765969 39.27009023406244 -37.74173977157108 " stroke="#000000" stroke-width="0.35 px" style="stroke-width:0.35;stroke-miterlimit:4;stroke-dasharray:none;fill:none;fill-opacity:1;fill-rule: evenodd"/>
<path id="Sketch218_w0008"  d="M -93.52045375332538 -21.12784061748541 C -93.4762435677975 -20.80608062308747 -93.80627848935548 -20.04284345007682 -94.62045375332535 -20.02784061748541 C -95.43462901729532 -20.0428434500768 -95.76466393885312 -20.80608062308748 -95.72045375332534 -21.12784061748541 C -95.76466393885318 -21.449600611883344 -95.43462901729531 -22.212837784894003 -94.62045375332538 -22.227840617485413 C -93.80627848935538 -22.21283778489401 -93.47624356779762 -21.44960061188334 -93.5204537533254 -21.12784061748541 " stroke="#000000" stroke-width="0.35 px" style="stroke-width:0.35;stroke-miterlimit:4;stroke-dasharray:none;fill:none;fill-opacity:1;fill-rule: evenodd"/>
<path id="Sketch218_w0009"  d="M -101.22481342857388 -47.45340393524475 C -101.18060324304605 -47.131643940846786 -101.5106381646039 -46.36840676783617 -102.32481342857388 -46.35340393524475 C -103.13898869254365 -46.36840676783616 -103.46902361410163 -47.13164394084685 -103.42481342857387 -47.453403935244744 C -103.46902361410166 -47.775163929642694 -103.13898869254385 -48.53840110265333 -102.32481342857388 -48.553403935244745 C -101.51063816460407 -48.53840110265336 -101.18060324304604 -47.77516392964271 -101.22481342857388 -47.453403935244744 " stroke="#000000" stroke-width="0.35 px" style="stroke-width:0.35;stroke-miterlimit:4;stroke-dasharray:none;fill:none;fill-opacity:1;fill-rule: evenodd"/>
<path id="Sketch218_w0010"  d="M -64.95982851798536 -67.76452698644322 C -64.91561833245748 -67.44276699204529 -65.24565325401544 -66.67952981903454 -66.05982851798535 -66.66452698644322 C -66.87400378195522 -66.67952981903451 -67.20403870351316 -67.4427669920453 -67.15982851798535 -67.76452698644322 C -67.20403870351318 -68.08628698084114 -66.87400378195528 -68.84952415385179 -66.05982851798535 -68.86452698644321 C -65.24565325401547 -68.84952415385183 -64.91561833245754 -68.08628698084112 -64.95982851798536 -67.76452698644322 " stroke="#000000" stroke-width="0.35 px" style="stroke-width:0.35;stroke-miterlimit:4;stroke-dasharray:none;fill:none;fill-opacity:1;fill-rule: evenodd"/>
<path id="Sketch218_w0011"  d="M -26.647753059749025 -87.4296785405494 C -26.603542874221226 -87.10791854615145 -26.93357779577906 -86.34468137314076 -27.747753059749027 -86.32967854054941 C -28.56192832371893 -86.34468137314073 -28.89196324527679 -87.1079185461515 -28.847753059749028 -87.42967854054939 C -28.891963245276834 -87.75143853494738 -28.56192832371896 -88.51467570795799 -27.747753059749027 -88.52967854054941 C -26.933577795779073 -88.51467570795805 -26.603542874221212 -87.75143853494737 -26.647753059749025 -87.4296785405494 " stroke="#000000" stroke-width="0.35 px" style="stroke-width:0.35;stroke-miterlimit:4;stroke-dasharray:none;fill:none;fill-opacity:1;fill-rule: evenodd"/>
<path id="Sketch218_w0012"  d="M -20.921476881516828 -79.3132694562243 C -20.877266695989025 -78.99150946182635 -21.20730161754688 -78.22827228881573 -22.02147688151683 -78.2132694562243 C -22.835652145486755 -78.22827228881576 -23.165687067044637 -78.99150946182642 -23.12147688151683 -79.3132694562243 C -23.165687067044626 -79.63502945062223 -22.835652145486772 -80.39826662363285 -22.02147688151683 -80.41326945622433 C -21.207301617546875 -80.39826662363281 -20.877266695989032 -79.63502945062221 -20.921476881516828 -79.31326945622432 " stroke="#000000" stroke-width="0.35 px" style="stroke-width:0.35;stroke-miterlimit:4;stroke-dasharray:none;fill:none;fill-opacity:1;fill-rule: evenodd"/>
<path id="Sketch218_w0013"  d="M -14.799781469155912 -56.46679087195837 C -14.75557128362811 -56.14503087756042 -15.085606205185968 -55.3817937045498 -15.89978146915591 -55.366790871958365 C -16.713956733125848 -55.38179370454979 -17.043991654683694 -56.14503087756046 -16.999781469155913 -56.46679087195838 C -17.043991654683715 -56.788550866356275 -16.71395673312585 -57.55178803936698 -15.899781469155911 -57.566790871958375 C -15.085606205185968 -57.55178803936698 -14.755571283628104 -56.78855086635625 -14.799781469155912 -56.46679087195837 " stroke="#000000" stroke-width="0.35 px" style="stroke-width:0.35;stroke-miterlimit:4;stroke-dasharray:none;fill:none;fill-opacity:1;fill-rule: evenodd"/>
<path id="Sketch218_w0014"  d="M -37.07009023406244 -37.74173977157108 C -37.025880048534646 -37.41997977717314 -37.35591497009247 -36.6567426041625 -38.170090234062435 -36.64173977157108 C -38.98426549803233 -36.6567426041625 -39.3143004195902 -37.419979777173175 -39.27009023406244 -37.74173977157108 C -39.314300419590225 -38.06349976596905 -38.98426549803241 -38.82673693897967 -38.17009023406244 -38.84173977157109 C -37.35591497009251 -38.82673693897965 -37.02588004853465 -38.063499765969 -37.07009023406244 -37.74173977157108 " stroke="#000000" stroke-width="0.35 px" style="stroke-width:0.35;stroke-miterlimit:4;stroke-dasharray:none;fill:none;fill-opacity:1;fill-rule: evenodd"/>
<path id="Sketch218_w0015"  d="M -11.0 -41.89 A 1 1 0 0 1 -12 -40.89L -13.999999999999995 -40.89 A 1 1 0 0 1 -15 -41.89L -14.999999999999995 -50.88999999999997 A 1 1 0 0 1 -14 -51.89L -11.999999999999922 -51.88999999999997 A 1 1 0 0 1 -11 -50.89L -11.0 -41.89 " stroke="#000000" stroke-width="0.35 px" style="stroke-width:0.35;stroke-miterlimit:4;stroke-dasharray:none;fill:none;fill-opacity:1;fill-rule: evenodd"/>
<title>b'Sketch218'</title>
</g>
</svg>