<?xml version="1.0"?>
<!DOCTYPE svg PUBLIC "-//W3C//DTD SVG 1.1//EN" "http://www.w3.org/Graphics/SVG/1.1/DTD/svg11.dtd">
<svg width="129.47752786821508mm" height="115.24998941360977mm" viewBox="0 0 129.47752786821508 115.24998941360977" xmlns="http://www.w3.org/2000/svg" version="1.1">
<g id="Sketch206" transform="translate(125.708140,1.401997) scale(1,-1)">
<path id="Sketch206_w0000"  d="M -4.72721135882432 -75.94003585806172 L -4.72721135882432 -82.94003557806172 Q -4.694315881956397 -83.16523213435478 -4.467211369224316 -83.1800355684617 L 0.0 -83.18003556846173 L 1.9000000000000001 -85.08003799999999 L 0.0 -87.00060826998231 L -17.267482742535105 -87.00060826998231 L -18.875177877637665 -93.00060826998231 L -30.521389506600386 -111.63844302982709 A 2 2 0 0 0 -33.2789 -112.274L -51.56854623760049 -100.82081004778715 L -83.56048951922364 -84.53988778211034 A 2 2 0 0 0 -84.4354 -81.8494L -76.59343477230709 -66.45873080496733 L -100.27671618377829 -61.42469400739034 L -100.45215459078003 -66.44859267408955 A 2 2 0 0 0 -102.521 -68.3776L -122.50855180526614 -67.67958540100192 A 2 2 0 0 0 -124.438 -65.611L -123.70464503553322 -44.62379735949468 A 1 1 0 0 0 -122.67 -43.6593L -121.38513818860885 -43.70418677900089 L -120.79010177003437 -26.66457315617491 A 2 2 0 0 0 -118.722 -24.7356L -116.91262369237388 -24.7987585855183 L -116.20456525629618 -4.522617837611692 A 2 2 0 0 0 -114.136 -2.59364L -93.75708147168527 -3.3052821546435633 L -93.36306210944879 -1.4515667741945049 A 2 2 0 0 0 -90.9909 0.0889051L -74.3135269746317 -3.455989220388873 L -74.00654538098837 -2.0117543522813706 A 1 1 0 0 0 -72.8205 -1.24152L -51.30123884056455 -5.815575582424227 A 1 1 0 0 0 -50.531 -7.00163L -51.6527586911245 -12.279080885076715 L -31.398409796932082 -17.706217248720538 A 1 1 0 0 0 -30.6913 -18.931L -30.974839294738672 -19.989133943634233 L -13.394890311062571 -24.699667019702904 A 2 2 0 0 0 -11.9744 -26.138L -10.0 -33.891534562477005 L 0.0 -33.891534562477005 L -2.4999999999999996 -51.78044935341171 L 2.5000000000000004 -68.78044935341171 L 0.0 -75.680038 L -4.487211368424312 -75.68003586846172 " stroke="#000000" stroke-width="0.35 px" style="stroke-width:0.35;stroke-miterlimit:4;stroke-dasharray:none;fill:none;fill-opacity:1;fill-rule: evenodd"/>
<circle cx="-94.62045375332536" cy="-21.12784061748541" r="3.0" stroke="#000000" stroke-width="0.35 px" style="stroke-width:0.35;stroke-miterlimit:4;stroke-dasharray:none;fill:none"/>
<path id="Sketch206_w0002"  d="M -99.14742758201552 -44.918803098911084 Q -99.37454310688202 -44.904158321789936 -99.436241 -45.123222 L -99.64544417574483 -46.10396686483564 A 3 3 0 1 1 -104.772 -49.1881L -107.246223 -49.101501 L -107.44610125006855 -49.0945199318824 L -115.64110692226832 -48.80834394332945 " stroke="#000000" stroke-width="0.35 px" style="stroke-width:0.35;stroke-miterlimit:4;stroke-dasharray:none;fill:none;fill-opacity:1;fill-rule: evenodd"/>
<path id="Sketch206_w0003"  d="M -77.47756344881014 -64.30074432363341 Q -77.49220793356142 -64.52785824230082 -77.273148 -64.589554 L -68.73721371627 -66.4111576724693 A 3 3 0 1 1 -68.2765 -65.7431L -66.921249 -59.367729 C -66.76206053109033 -59.297220954870184 -68.44025183807457 -58.52799554214569 -69.97279774900076 -57.96900357690305 L -69.36777477320169 -55.1225946907594 L -66.5018018878406 -55.73177566639217 " stroke="#000000" stroke-width="0.35 px" style="stroke-width:0.35;stroke-miterlimit:4;stroke-dasharray:none;fill:none;fill-opacity:1;fill-rule: evenodd"/>
<circle cx="-27.747753059749027" cy="-87.4296785405494" r="2.5" stroke="#000000" stroke-width="0.35 px" style="stroke-width:0.35;stroke-miterlimit:4;stroke-dasharray:none;fill:none"/>
<circle cx="-22.02147688151683" cy="-79.3132694562243" r="2.5" stroke="#000000" stroke-width="0.35 px" style="stroke-width:0.35;stroke-miterlimit:4;stroke-dasharray:none;fill:none"/>
<circle cx="-15.899781469155913" cy="-56.46679087195837" r="2.5" stroke="#000000" stroke-width="0.35 px" style="stroke-width:0.35;stroke-miterlimit:4;stroke-dasharray:none;fill:none"/>
<circle cx="-38.17009023406244" cy="-37.74173977157108" r="2.5" stroke="#000000" stroke-width="0.35 px" style="stroke-width:0.35;stroke-miterlimit:4;stroke-dasharray:none;fill:none"/>
<path id="Sketch206_w0008"  d="M -8.846411194056316 -40.90123725961372 L -6.406411291656326 -40.90123725961372 Q -6.153123255623475 -40.92794921238087 -6.126411302856326 -41.18123724841373 L -6.126411302856326 -71.62123603081372 Q -6.153123255623475 -71.8745240668466 -6.406411291656326 -71.90123601961375 L -8.848421193975923 -71.90324601953333 Q -9.101709230008776 -71.8765340667662 -9.128421182775924 -71.62324603073331 L -9.126411182856316 -41.18123724841372 Q -9.099699230089168 -40.92794921238086 -8.846411194056316 -40.90123725961372 " stroke="#000000" stroke-width="0.35 px" style="stroke-width:0.35;stroke-miterlimit:4;stroke-dasharray:none;fill:none;fill-opacity:1;fill-rule: evenodd"/>
<path id="Sketch206_w0009"  d="M -11.082011104632329 -52.087836812149725 L -11.082011104632329 -41.087837252149725 L -15.082010944632316 -41.087837252149725 L -15.082010944632316 -52.087836812149725 L -11.082011104632329 -52.087836812149725 " stroke="#000000" stroke-width="0.35 px" style="stroke-width:0.35;stroke-miterlimit:4;stroke-dasharray:none;fill:none;fill-opacity:1;fill-rule: evenodd"/>
<path id="Sketch206_w0010"  d="M -4.487211368424312 -75.67974586847333 Q -4.712407924717384 -75.7126413453413 -4.72721135882432 -75.93974585807332 " stroke="#000000" stroke-width="0.35 px" style="stroke-width:0.35;stroke-miterlimit:4;stroke-dasharray:none;fill:none;fill-opacity:1;fill-rule: evenodd"/>
<path id="Sketch206_w0011"  d="M -76.93187247063778 -56.510253635253044 Q -76.87923366771115 -56.79982127620913 -76.02218350702532 -57.45371259751468 L -77.47756444881009 -64.30074532363336 " stroke="#000000" stroke-width="0.35 px" style="stroke-width:0.35;stroke-miterlimit:4;stroke-dasharray:none;fill:none;fill-opacity:1;fill-rule: evenodd"/>
<path id="Sketch206_w0012"  d="M -93.85296779379391 -40.765859265028844 L -102.64760644200837 -40.45874427731344 " stroke="#000000" stroke-width="0.35 px" style="stroke-width:0.35;stroke-miterlimit:4;stroke-dasharray:none;fill:none;fill-opacity:1;fill-rule: evenodd"/>
<path id="Sketch206_w0013"  d="M -93.85296779379391 -40.765860265028806 Q -93.62676049796963 -40.74084369447431 -93.60403980375105 -40.51439427508745 " stroke="#000000" stroke-width="0.35 px" style="stroke-width:0.35;stroke-miterlimit:4;stroke-dasharray:none;fill:none;fill-opacity:1;fill-rule: evenodd"/>
<path id="Sketch206_w0014"  d="M -46.39628369206136 -73.49086295602865 L -38.55543000569551 -77.48597579622412 Q -38.35979486344584 -77.60226677019216 -38.43272001060393 -77.81785578294893 L -41.610659883486335 -84.05490553346692 " stroke="#000000" stroke-width="0.35 px" style="stroke-width:0.35;stroke-miterlimit:4;stroke-dasharray:none;fill:none;fill-opacity:1;fill-rule: evenodd"/>
<path id="Sketch206_w0015"  d="M -46.72816267878619 -73.61356695112048 L -49.90609655166884 -79.85061570163853 " stroke="#000000" stroke-width="0.35 px" style="stroke-width:0.35;stroke-miterlimit:4;stroke-dasharray:none;fill:none;fill-opacity:1;fill-rule: evenodd"/>
<path id="Sketch206_w0016"  d="M -46.3961506920667 -73.49060195603909 Q -46.611736002856276 -73.41767471352232 -46.72802967879153 -73.61330495113097 " stroke="#000000" stroke-width="0.35 px" style="stroke-width:0.35;stroke-miterlimit:4;stroke-dasharray:none;fill:none;fill-opacity:1;fill-rule: evenodd"/>
<path id="Sketch206_w0017"  d="M -53.36544741329479 -30.739181666095966 Q -53.138332375848776 -30.753825708407906 -53.07663442484733 -30.534761674272765 " stroke="#000000" stroke-width="0.35 px" style="stroke-width:0.35;stroke-miterlimit:4;stroke-dasharray:none;fill:none;fill-opacity:1;fill-rule: evenodd"/>
<path id="Sketch206_w0018"  d="M -60.43331013058028 -21.569006032903005 Q -60.660424856798684 -21.55436212848764 -60.7221221190278 -21.773426024726206 " stroke="#000000" stroke-width="0.35 px" style="stroke-width:0.35;stroke-miterlimit:4;stroke-dasharray:none;fill:none;fill-opacity:1;fill-rule: evenodd"/>
<path id="Sketch206_w0019"  d="M -96.94410467014845 -8.100623571638323 L -99.70242355981568 -8.004301575491205 L -99.90230155182056 -7.997321575770403 L -108.09730722402031 -7.711145587217445 " stroke="#000000" stroke-width="0.35 px" style="stroke-width:0.35;stroke-miterlimit:4;stroke-dasharray:none;fill:none;fill-opacity:1;fill-rule: evenodd"/>
<path id="Sketch206_w0020"  d="M -108.23243121861537 -19.603674111516284 L -108.12633722285912 -16.565526233042203 L -111.06454610533076 -16.462921237146404 Q -111.29099539332037 -16.44020131891771 -111.31601209527213 -16.213994247103486 L -111.23609209846893 -13.925389338647683 L -113.124940022915 -13.859428341286122 Q -113.3513890813529 -13.836708291661429 -113.3764050128564 -13.610501351243204 " stroke="#000000" stroke-width="0.35 px" style="stroke-width:0.35;stroke-miterlimit:4;stroke-dasharray:none;fill:none;fill-opacity:1;fill-rule: evenodd"/>
<path id="Sketch206_w0021"  d="M -96.69263868020707 -8.349551561681203 L -96.81094867547469 -11.737486426163805 Q -96.8336692742864 -11.963934940957543 -97.05987566551761 -11.988951416105202 " stroke="#000000" stroke-width="0.35 px" style="stroke-width:0.35;stroke-miterlimit:4;stroke-dasharray:none;fill:none;fill-opacity:1;fill-rule: evenodd"/>
<path id="Sketch206_w0022"  d="M -101.37499249291292 -20.083287092331762 L -107.98096622867396 -19.852602101559164 " stroke="#000000" stroke-width="0.35 px" style="stroke-width:0.35;stroke-miterlimit:4;stroke-dasharray:none;fill:none;fill-opacity:1;fill-rule: evenodd"/>
<path id="Sketch206_w0023"  d="M -113.01894102715497 -10.250930485626043 L -110.9202201111038 -10.324219482694485 C -110.6965201896837 -9.037238445894578 -109.3977033047594 -7.834968544576444 -108.09730722402031 -7.711146587217403 " stroke="#000000" stroke-width="0.35 px" style="stroke-width:0.35;stroke-miterlimit:4;stroke-dasharray:none;fill:none;fill-opacity:1;fill-rule: evenodd"/>
<path id="Sketch206_w0024"  d="M -97.05987566551761 -11.988952416105164 L -97.67949864073267 -11.967314416970684 L -97.84736463401805 -16.774384224687882 " stroke="#000000" stroke-width="0.35 px" style="stroke-width:0.35;stroke-miterlimit:4;stroke-dasharray:none;fill:none;fill-opacity:1;fill-rule: evenodd"/>
<path id="Sketch206_w0025"  d="M -98.09629262406091 -17.025850214629244 L -101.02450750693231 -16.923594218719483 L -101.12606550287 -19.831821102390403 Q -101.14878610168175 -20.058269617184138 -101.37499249291292 -20.083286092331807 " stroke="#000000" stroke-width="0.35 px" style="stroke-width:0.35;stroke-miterlimit:4;stroke-dasharray:none;fill:none;fill-opacity:1;fill-rule: evenodd"/>
<path id="Sketch206_w0026"  d="M -113.37605701287032 -13.600507351642964 L -113.26786901719784 -10.502395475567443 " stroke="#000000" stroke-width="0.35 px" style="stroke-width:0.35;stroke-miterlimit:4;stroke-dasharray:none;fill:none;fill-opacity:1;fill-rule: evenodd"/>
<path id="Sketch206_w0027"  d="M -98.09630262406051 -17.026150214617243 Q -97.87009124468689 -17.001132283256233 -97.84737463401765 -16.774678224676123 " stroke="#000000" stroke-width="0.35 px" style="stroke-width:0.35;stroke-miterlimit:4;stroke-dasharray:none;fill:none;fill-opacity:1;fill-rule: evenodd"/>
<path id="Sketch206_w0028"  d="M -108.23272421860364 -19.603664111516682 Q -108.20770828710015 -19.829871051934916 -107.98125922866225 -19.852591101559607 " stroke="#000000" stroke-width="0.35 px" style="stroke-width:0.35;stroke-miterlimit:4;stroke-dasharray:none;fill:none;fill-opacity:1;fill-rule: evenodd"/>
<path id="Sketch206_w0029"  d="M -96.69233868021908 -8.349561561680805 Q -96.71735728662432 -8.123350955509073 -96.94381067016019 -8.100634571637883 " stroke="#000000" stroke-width="0.35 px" style="stroke-width:0.35;stroke-miterlimit:4;stroke-dasharray:none;fill:none;fill-opacity:1;fill-rule: evenodd"/>
<path id="Sketch206_w0030"  d="M -113.01893102715536 -10.250636485637802 Q -113.24513864816127 -10.275652643942982 -113.26785801719828 -10.502102475579164 " stroke="#000000" stroke-width="0.35 px" style="stroke-width:0.35;stroke-miterlimit:4;stroke-dasharray:none;fill:none;fill-opacity:1;fill-rule: evenodd"/>
<path id="Sketch206_w0031"  d="M -95.18508874050909 -26.25009184565956 L -93.13097982267345 -26.686706828194964 C -92.68719654217455 -25.458122444467698 -91.19933906766687 -24.49965432540716 -89.89719695202476 -24.60352491152224 L -81.87638627285719 -26.308400843327206 L -81.6807562806824 -26.349983841663885 L -78.98106938866988 -26.92381981871044 " stroke="#000000" stroke-width="0.35 px" style="stroke-width:0.35;stroke-miterlimit:4;stroke-dasharray:none;fill:none;fill-opacity:1;fill-rule: evenodd"/>
<path id="Sketch206_w0032"  d="M -78.7766493968467 -27.212632807157924 L -79.48147036865385 -30.528552674521123 Q -79.54316866429674 -30.747615182347193 -79.77028235710137 -30.732971666344362 L -80.37673433284328 -30.60406667150056 L -81.37678929284107 -35.30895648330497 " stroke="#000000" stroke-width="0.35 px" style="stroke-width:0.35;stroke-miterlimit:4;stroke-dasharray:none;fill:none;fill-opacity:1;fill-rule: evenodd"/>
<path id="Sketch206_w0033"  d="M -81.66560128128859 -35.51337647512816 L -84.53157416664968 -34.9041954994954 L -85.13659714244875 -37.75060438563904 Q -85.19829485111764 -37.9696676511313 -85.42540913089627 -37.955024377462244 L -91.89096487227405 -36.580727432434124 " stroke="#000000" stroke-width="0.35 px" style="stroke-width:0.35;stroke-miterlimit:4;stroke-dasharray:none;fill:none;fill-opacity:1;fill-rule: evenodd"/>
<path id="Sketch206_w0034"  d="M -96.11842770317551 -29.486768716192486 L -95.47390172895655 -26.454511837482762 " stroke="#000000" stroke-width="0.35 px" style="stroke-width:0.35;stroke-miterlimit:4;stroke-dasharray:none;fill:none;fill-opacity:1;fill-rule: evenodd"/>
<path id="Sketch206_w0035"  d="M -94.06738878521708 -30.178315688530603 L -95.91608771126911 -29.785362704248726 Q -96.13515084983925 -29.72366485504181 -96.12050670309236 -29.496550715801206 " stroke="#000000" stroke-width="0.35 px" style="stroke-width:0.35;stroke-miterlimit:4;stroke-dasharray:none;fill:none;fill-opacity:1;fill-rule: evenodd"/>
<path id="Sketch206_w0036"  d="M -81.66566428128607 -35.513669475116444 Q -81.4385455512469 -35.528313074436966 -81.37685029283864 -35.30924448329344 " stroke="#000000" stroke-width="0.35 px" style="stroke-width:0.35;stroke-miterlimit:4;stroke-dasharray:none;fill:none;fill-opacity:1;fill-rule: evenodd"/>
<path id="Sketch206_w0037"  d="M -78.7763563968584 -27.212694807155444 Q -78.76171279753787 -26.985576077116256 -78.98078138868141 -26.923880818708 " stroke="#000000" stroke-width="0.35 px" style="stroke-width:0.35;stroke-miterlimit:4;stroke-dasharray:none;fill:none;fill-opacity:1;fill-rule: evenodd"/>
<path id="Sketch206_w0038"  d="M -95.18502774051152 -26.24980384567108 Q -95.41214322439963 -26.23515917260741 -95.473840728959 -26.454223837494283 " stroke="#000000" stroke-width="0.35 px" style="stroke-width:0.35;stroke-miterlimit:4;stroke-dasharray:none;fill:none;fill-opacity:1;fill-rule: evenodd"/>
<path id="Sketch206_w0039"  d="M -36.17980010072074 -21.500625035638244 L -38.84575999408233 -20.786284064211884 L -39.03893998635513 -20.734520066282442 L -46.959536669531246 -18.612204151175085 " stroke="#000000" stroke-width="0.35 px" style="stroke-width:0.35;stroke-miterlimit:4;stroke-dasharray:none;fill:none;fill-opacity:1;fill-rule: evenodd"/>
<path id="Sketch206_w0040"  d="M -35.99078010828151 -21.799740023673642 L -36.86818007318553 -25.074228892694084 Q -36.94125725496504 -25.289758740713374 -37.16729006122114 -25.26325288513313 L -37.76616003726633 -25.102784891551842 L -39.011079987469515 -29.748887705707723 " stroke="#000000" stroke-width="0.35 px" style="stroke-width:0.35;stroke-miterlimit:4;stroke-dasharray:none;fill:none;fill-opacity:1;fill-rule: evenodd"/>
<path id="Sketch206_w0041"  d="M -39.31019997550473 -29.937911698146763 L -42.14035986229834 -29.17957172848036 L -42.89352983217154 -31.990416616046566 Q -42.96660701395102 -32.20594646406586 -43.19263982020712 -32.17944060848561 L -49.57741056481629 -30.468646676917366 " stroke="#000000" stroke-width="0.35 px" style="stroke-width:0.35;stroke-miterlimit:4;stroke-dasharray:none;fill:none;fill-opacity:1;fill-rule: evenodd"/>
<path id="Sketch206_w0042"  d="M -52.32635645485843 -19.979767096472564 L -50.297912535996204 -20.523287074731766 C -49.79043835223201 -19.319612401281145 -48.254457948710645 -18.440326313230173 -46.959536669531246 -18.612203151175123 " stroke="#000000" stroke-width="0.35 px" style="stroke-width:0.35;stroke-miterlimit:4;stroke-dasharray:none;fill:none;fill-opacity:1;fill-rule: evenodd"/>
<path id="Sketch206_w0043"  d="M -60.433311 -21.569006 L -53.384041 -23.025074 L -52.625471442893826 -20.168791088911604 " stroke="#000000" stroke-width="0.35 px" style="stroke-width:0.35;stroke-miterlimit:4;stroke-dasharray:none;fill:none;fill-opacity:1;fill-rule: evenodd"/>
<path id="Sketch206_w0044"  d="M -39.310279975501516 -29.938201698135167 Q -39.08423633832642 -29.964713985105053 -39.01115998746633 -29.749171705696362 " stroke="#000000" stroke-width="0.35 px" style="stroke-width:0.35;stroke-miterlimit:4;stroke-dasharray:none;fill:none;fill-opacity:1;fill-rule: evenodd"/>
<path id="Sketch206_w0045"  d="M -35.99049010829313 -21.799818023670525 Q -35.96398020661623 -21.573776626811036 -36.179520100731935 -21.50070103563521 " stroke="#000000" stroke-width="0.35 px" style="stroke-width:0.35;stroke-miterlimit:4;stroke-dasharray:none;fill:none;fill-opacity:1;fill-rule: evenodd"/>
<path id="Sketch206_w0046"  d="M -52.32628045486149 -19.979483096483925 Q -52.552317407722185 -19.952972612320924 -52.62539544289689 -20.168507088922965 " stroke="#000000" stroke-width="0.35 px" style="stroke-width:0.35;stroke-miterlimit:4;stroke-dasharray:none;fill:none;fill-opacity:1;fill-rule: evenodd"/>
<path id="Sketch206_w0047"  d="M -57.54036624629805 -89.71411530709852 L -56.16023530150329 -87.00545541544493 L -58.77979519672087 -85.67071546883452 Q -58.97542631964352 -85.55442147062878 -58.902498191812754 -85.33883548210972 L -57.862860233398294 -83.29843556372572 L -59.54686316603815 -82.44039559804733 Q -59.7424942889608 -82.32410159984161 -59.669566161130035 -82.10851561132253 " stroke="#000000" stroke-width="0.35 px" style="stroke-width:0.35;stroke-miterlimit:4;stroke-dasharray:none;fill:none;fill-opacity:1;fill-rule: evenodd"/>
<path id="Sketch206_w0048"  d="M -42.325559854890315 -84.39133552000973 L -43.86458979332912 -87.41185539918892 Q -43.9808857384003 -87.60748303933394 -44.19646978005392 -87.53455539428093 L -44.748899757956735 -87.25308540553974 L -46.93259067060907 -91.53882523411013 " stroke="#000000" stroke-width="0.35 px" style="stroke-width:0.35;stroke-miterlimit:4;stroke-dasharray:none;fill:none;fill-opacity:1;fill-rule: evenodd"/>
<path id="Sketch206_w0049"  d="M -47.26446965733393 -91.66152522920213 L -49.87511855290796 -90.33133528240973 L -51.19623050006348 -92.92416517869653 Q -51.312526122856525 -93.11979193354239 -51.52810948678831 -93.04686517378853 L -57.417662251206195 -90.04598529382372 " stroke="#000000" stroke-width="0.35 px" style="stroke-width:0.35;stroke-miterlimit:4;stroke-dasharray:none;fill:none;fill-opacity:1;fill-rule: evenodd"/>
<path id="Sketch206_w0050"  d="M -57.92577723088161 -79.21477572707212 L -56.054663305726166 -80.16815568893693 C -55.30801930981027 -79.09629565963972 -53.62279045843192 -78.55557473818035 -52.3919024522366 -78.99292573594613 " stroke="#000000" stroke-width="0.35 px" style="stroke-width:0.35;stroke-miterlimit:4;stroke-dasharray:none;fill:none;fill-opacity:1;fill-rule: evenodd"/>
<path id="Sketch206_w0051"  d="M -59.6650271613116 -82.09960561167892 L -58.25765621760644 -79.33748572216373 " stroke="#000000" stroke-width="0.35 px" style="stroke-width:0.35;stroke-miterlimit:4;stroke-dasharray:none;fill:none;fill-opacity:1;fill-rule: evenodd"/>
<path id="Sketch206_w0052"  d="M -47.264605657328474 -91.66179522919133 Q -47.049015289093134 -91.73472214698734 -46.932723670603764 -91.53908523409974 " stroke="#000000" stroke-width="0.35 px" style="stroke-width:0.35;stroke-miterlimit:4;stroke-dasharray:none;fill:none;fill-opacity:1;fill-rule: evenodd"/>
<path id="Sketch206_w0053"  d="M -57.540628246287554 -89.71397530710414 Q -57.6135560518489 -89.9295617659374 -57.41792425119573 -90.04585529382894 " stroke="#000000" stroke-width="0.35 px" style="stroke-width:0.35;stroke-miterlimit:4;stroke-dasharray:none;fill:none;fill-opacity:1;fill-rule: evenodd"/>
<path id="Sketch206_w0054"  d="M -57.92564423088692 -79.21451572708253 Q -58.14123283389952 -79.14159074042496 -58.25752321761175 -79.33722572217413 " stroke="#000000" stroke-width="0.35 px" style="stroke-width:0.35;stroke-miterlimit:4;stroke-dasharray:none;fill:none;fill-opacity:1;fill-rule: evenodd"/>
<path id="Sketch206_w0055"  d="M -44.57257976500952 -58.69107154802032 L -47.23853565837129 -57.976730576593965 L -47.43172065064388 -57.924966578664524 L -55.35231333382015 -55.80265066355716 " stroke="#000000" stroke-width="0.35 px" style="stroke-width:0.35;stroke-miterlimit:4;stroke-dasharray:none;fill:none;fill-opacity:1;fill-rule: evenodd"/>
<path id="Sketch206_w0056"  d="M -60.40124713186279 -63.36352036112237 L -59.808552155570595 -61.15155044960116 L -61.63415208254659 -60.66238246916788 Q -61.849686559148665 -60.58930443399319 -61.82317607498564 -60.36326748113248 " stroke="#000000" stroke-width="0.35 px" style="stroke-width:0.35;stroke-miterlimit:4;stroke-dasharray:none;fill:none;fill-opacity:1;fill-rule: evenodd"/>
<path id="Sketch206_w0057"  d="M -44.38355977257032 -58.99018653605572 L -45.26094973747473 -62.26467540507616 Q -45.3340294516521 -62.48021320387001 -45.56006972550992 -62.45369939751521 L -46.15894170155505 -62.29323140393393 L -47.403861651758234 -66.93933421808981 " stroke="#000000" stroke-width="0.35 px" style="stroke-width:0.35;stroke-miterlimit:4;stroke-dasharray:none;fill:none;fill-opacity:1;fill-rule: evenodd"/>
<path id="Sketch206_w0058"  d="M -47.70297663979363 -67.12835821052884 L -50.53313952658712 -66.37001824086245 L -51.28630249646059 -69.18086312842864 Q -51.35938094445102 -69.39639695178357 -51.58541748449599 -69.36988712086769 L -57.97018722910519 -67.65909318929944 " stroke="#000000" stroke-width="0.35 px" style="stroke-width:0.35;stroke-miterlimit:4;stroke-dasharray:none;fill:none;fill-opacity:1;fill-rule: evenodd"/>
<path id="Sketch206_w0059"  d="M -58.15921122154424 -67.35997820126404 L -57.37240125301665 -64.42356331872065 L -60.21222313942377 -63.66263534915777 Q -60.427758362788865 -63.58955787452625 -60.40124813186276 -63.36352036112237 " stroke="#000000" stroke-width="0.35 px" style="stroke-width:0.35;stroke-miterlimit:4;stroke-dasharray:none;fill:none;fill-opacity:1;fill-rule: evenodd"/>
<path id="Sketch206_w0060"  d="M -60.71913311914736 -57.170213608854645 L -58.69068920028511 -57.71373358711384 C -58.18321501652094 -56.51005891366322 -56.64723461299954 -55.63077282561224 -55.35231333382015 -55.80264966355721 " stroke="#000000" stroke-width="0.35 px" style="stroke-width:0.35;stroke-miterlimit:4;stroke-dasharray:none;fill:none;fill-opacity:1;fill-rule: evenodd"/>
<path id="Sketch206_w0061"  d="M -61.82058707508921 -60.35360748151888 L -61.01824810718276 -57.359237601293685 " stroke="#000000" stroke-width="0.35 px" style="stroke-width:0.35;stroke-miterlimit:4;stroke-dasharray:none;fill:none;fill-opacity:1;fill-rule: evenodd"/>
<path id="Sketch206_w0062"  d="M -47.70305363979057 -67.12864821051724 Q -47.477012989701024 -67.15515731710474 -47.4039376517552 -66.93961821807844 " stroke="#000000" stroke-width="0.35 px" style="stroke-width:0.35;stroke-miterlimit:4;stroke-dasharray:none;fill:none;fill-opacity:1;fill-rule: evenodd"/>
<path id="Sketch206_w0063"  d="M -58.159496221532834 -67.35990220126709 Q -58.18600645245894 -67.58593971467099 -57.970471229093846 -67.65901718930249 " stroke="#000000" stroke-width="0.35 px" style="stroke-width:0.35;stroke-miterlimit:4;stroke-dasharray:none;fill:none;fill-opacity:1;fill-rule: evenodd"/>
<path id="Sketch206_w0064"  d="M -44.38326977258194 -58.99026453605261 Q -44.35675987090502 -58.76422313919312 -44.572299765020716 -58.691147548017284 " stroke="#000000" stroke-width="0.35 px" style="stroke-width:0.35;stroke-miterlimit:4;stroke-dasharray:none;fill:none;fill-opacity:1;fill-rule: evenodd"/>
<path id="Sketch206_w0065"  d="M -60.71905711915039 -57.169929608866006 Q -60.9450940720111 -57.143419124703 -61.01817210718579 -57.358953601305046 " stroke="#000000" stroke-width="0.35 px" style="stroke-width:0.35;stroke-miterlimit:4;stroke-dasharray:none;fill:none;fill-opacity:1;fill-rule: evenodd"/>
<path id="Sketch206_w0066"  d="M -22.33258065460953 -47.11107201122032 L -24.998540547971118 -46.39673103979396 L -25.19172054024392 -46.34496704186452 L -33.11231022342034 -44.222651126757164 " stroke="#000000" stroke-width="0.35 px" style="stroke-width:0.35;stroke-miterlimit:4;stroke-dasharray:none;fill:none;fill-opacity:1;fill-rule: evenodd"/>
<path id="Sketch206_w0067"  d="M -35.91921011114434 -55.779978664464046 L -35.13240014261672 -52.84356378192064 L -37.97222002902393 -52.082635812357765 Q -38.187758986225205 -52.00956114048005 -38.161250021462735 -51.783520824322366 L -37.568550045170724 -49.571550912801165 L -39.39414997214672 -49.082382932367885 Q -39.609688929347996 -49.00930826049017 -39.583179964585526 -48.78326794433249 " stroke="#000000" stroke-width="0.35 px" style="stroke-width:0.35;stroke-miterlimit:4;stroke-dasharray:none;fill:none;fill-opacity:1;fill-rule: evenodd"/>
<path id="Sketch206_w0068"  d="M -22.14356066217033 -47.41018699925573 L -23.02095062707474 -50.684675868276166 Q -23.0940303412521 -50.90021366707 -23.320070615109927 -50.873699860715206 L -23.91894059115512 -50.71323186713393 L -25.163860541358332 -55.35933468128981 " stroke="#000000" stroke-width="0.35 px" style="stroke-width:0.35;stroke-miterlimit:4;stroke-dasharray:none;fill:none;fill-opacity:1;fill-rule: evenodd"/>
<path id="Sketch206_w0069"  d="M -25.46298052939352 -55.54835867372884 L -28.29314041618713 -54.79001870406245 L -29.04630038606072 -57.600863591628645 Q -29.119380100238104 -57.816401390422484 -29.345420374095937 -57.78988758406768 L -35.73019011870514 -56.079093652499445 " stroke="#000000" stroke-width="0.35 px" style="stroke-width:0.35;stroke-miterlimit:4;stroke-dasharray:none;fill:none;fill-opacity:1;fill-rule: evenodd"/>
<path id="Sketch206_w0070"  d="M -38.47913000874752 -45.59021407205464 L -36.450690089885114 -46.13373405031385 C -35.943215698048434 -44.9300580751304 -34.407232552886995 -44.05077147115247 -33.11231022342034 -44.2226501267572 " stroke="#000000" stroke-width="0.35 px" style="stroke-width:0.35;stroke-miterlimit:4;stroke-dasharray:none;fill:none;fill-opacity:1;fill-rule: evenodd"/>
<path id="Sketch206_w0071"  d="M -39.580589964689125 -48.77360794471888 L -38.77824999678273 -45.77923806449368 " stroke="#000000" stroke-width="0.35 px" style="stroke-width:0.35;stroke-miterlimit:4;stroke-dasharray:none;fill:none;fill-opacity:1;fill-rule: evenodd"/>
<path id="Sketch206_w0072"  d="M -25.463050529390728 -55.548648673717246 Q -25.237014359900783 -55.575153009855015 -25.163940541355117 -55.359618681278455 " stroke="#000000" stroke-width="0.35 px" style="stroke-width:0.35;stroke-miterlimit:4;stroke-dasharray:none;fill:none;fill-opacity:1;fill-rule: evenodd"/>
<path id="Sketch206_w0073"  d="M -35.91950011113272 -55.77990266446709 Q -35.94600907589519 -56.00594298062476 -35.730470118693916 -56.079017652502486 " stroke="#000000" stroke-width="0.35 px" style="stroke-width:0.35;stroke-miterlimit:4;stroke-dasharray:none;fill:none;fill-opacity:1;fill-rule: evenodd"/>
<path id="Sketch206_w0074"  d="M -22.14327066218192 -47.410264999252604 Q -22.11676076050501 -47.184223602393125 -22.332300654620724 -47.11114801121728 " stroke="#000000" stroke-width="0.35 px" style="stroke-width:0.35;stroke-miterlimit:4;stroke-dasharray:none;fill:none;fill-opacity:1;fill-rule: evenodd"/>
<path id="Sketch206_w0075"  d="M -38.47906000875034 -45.589930072066004 Q -38.705093227811204 -45.563423563266994 -38.77816999678592 -45.77895406450504 " stroke="#000000" stroke-width="0.35 px" style="stroke-width:0.35;stroke-miterlimit:4;stroke-dasharray:none;fill:none;fill-opacity:1;fill-rule: evenodd"/>
<path id="Sketch206_w0076"  d="M -62.72478703892119 -27.8578007813512 L -70.74559771808876 -26.152924849546245 C -72.04773983373082 -26.049054263431156 -73.53559730823866 -27.007522382491693 -73.97938058873743 -28.236106766218967 L -76.03348950657309 -27.799491783683564 " stroke="#000000" stroke-width="0.35 px" style="stroke-width:0.35;stroke-miterlimit:4;stroke-dasharray:none;fill:none;fill-opacity:1;fill-rule: evenodd"/>
<path id="Sketch206_w0077"  d="M -72.94378563016124 -37.841315382010606 L -72.31173365544333 -34.867746500953366 L -75.18748754041317 -34.256486525403766 Q -75.40655220530003 -34.194789020844354 -75.39190753223636 -33.96767353695628 L -74.91578955128108 -31.727715626554605 L -76.76448847733312 -31.33476264227272 Q -76.98355161590321 -31.273064793065785 -76.96890746915636 -31.0459506538252 " stroke="#000000" stroke-width="0.35 px" style="stroke-width:0.35;stroke-miterlimit:4;stroke-dasharray:none;fill:none;fill-opacity:1;fill-rule: evenodd"/>
<path id="Sketch206_w0078"  d="M -62.51400204735259 -37.062776413152164 L -65.37997493271368 -36.453595437519404 L -65.98499790851275 -39.300004323663046 Q -66.04669561718164 -39.51906758915529 -66.27380989696027 -39.50442431548625 L -72.73936563833803 -38.130127370458126 " stroke="#000000" stroke-width="0.35 px" style="stroke-width:0.35;stroke-miterlimit:4;stroke-dasharray:none;fill:none;fill-opacity:1;fill-rule: evenodd"/>
<path id="Sketch206_w0079"  d="M -62.22519005890507 -36.85835642132896 L -61.22513509890729 -32.153466609524564 L -60.61868312316537 -32.282371604368365 Q -60.391569430360704 -32.2970151203712 -60.32987113471785 -32.07795261254512 " stroke="#000000" stroke-width="0.35 px" style="stroke-width:0.35;stroke-miterlimit:4;stroke-dasharray:none;fill:none;fill-opacity:1;fill-rule: evenodd"/>
<path id="Sketch206_w0080"  d="M -76.96682846923952 -31.036168654216482 L -76.32230249502055 -28.003911775506765 " stroke="#000000" stroke-width="0.35 px" style="stroke-width:0.35;stroke-miterlimit:4;stroke-dasharray:none;fill:none;fill-opacity:1;fill-rule: evenodd"/>
<path id="Sketch206_w0081"  d="M -62.51406504735007 -37.06306941314045 Q -62.28694631731092 -37.07771301246096 -62.22525105890264 -36.85864442131744 " stroke="#000000" stroke-width="0.35 px" style="stroke-width:0.35;stroke-miterlimit:4;stroke-dasharray:none;fill:none;fill-opacity:1;fill-rule: evenodd"/>
<path id="Sketch206_w0082"  d="M -72.94407263014975 -37.84125438201304 Q -72.95871677689661 -38.068368521253646 -72.73965363832653 -38.13006637046055 " stroke="#000000" stroke-width="0.35 px" style="stroke-width:0.35;stroke-miterlimit:4;stroke-dasharray:none;fill:none;fill-opacity:1;fill-rule: evenodd"/>
<path id="Sketch206_w0083"  d="M -76.03342850657552 -27.79920378369509 Q -76.26054399046362 -27.78455911063141 -76.32224149502301 -28.003623775518285 " stroke="#000000" stroke-width="0.35 px" style="stroke-width:0.35;stroke-miterlimit:4;stroke-dasharray:none;fill:none;fill-opacity:1;fill-rule: evenodd"/>
<path id="Sketch206_w0084"  d="M -80.02128934706107 -46.46849103692357 L -77.96718042922544 -46.90510601945896 C -77.52339714872656 -45.67652163573168 -76.03553967421888 -44.718053516671155 -74.73339755857677 -44.82192410278624 L -66.7125868794092 -46.526800034591204 L -66.51695688723441 -46.56838303292788 L -63.81726999522189 -47.14221900997445 " stroke="#000000" stroke-width="0.35 px" style="stroke-width:0.35;stroke-miterlimit:4;stroke-dasharray:none;fill:none;fill-opacity:1;fill-rule: evenodd"/>
<path id="Sketch206_w0085"  d="M -76.93158547064925 -56.51031463525061 L -76.29953349593131 -53.53674575419336 L -79.17528738090115 -52.92548577864376 Q -79.39435204578803 -52.86378827408434 -79.37970737272437 -52.636672790196286 L -78.90358939176909 -50.3967148797946 L -80.75228831782113 -50.003761895512724 Q -80.97135145639122 -49.9420640463058 -80.95670730964437 -49.714949907065204 " stroke="#000000" stroke-width="0.35 px" style="stroke-width:0.35;stroke-miterlimit:4;stroke-dasharray:none;fill:none;fill-opacity:1;fill-rule: evenodd"/>
<path id="Sketch206_w0086"  d="M -63.61285000339868 -47.43103199842192 L -64.31767097520583 -50.74695186578512 Q -64.3793692708487 -50.9660143736112 -64.60648296365335 -50.95137085760837 L -65.21293493939527 -50.82246586276457 L -66.21298989939308 -55.527355674568966 " stroke="#000000" stroke-width="0.35 px" style="stroke-width:0.35;stroke-miterlimit:4;stroke-dasharray:none;fill:none;fill-opacity:1;fill-rule: evenodd"/>
<path id="Sketch206_w0087"  d="M -80.95462830972752 -49.705167907456484 L -80.31010233550856 -46.67291102874677 " stroke="#000000" stroke-width="0.35 px" style="stroke-width:0.35;stroke-miterlimit:4;stroke-dasharray:none;fill:none;fill-opacity:1;fill-rule: evenodd"/>
<path id="Sketch206_w0088"  d="M -66.50186488783808 -55.73206866638044 Q -66.27474615779889 -55.74671226570095 -66.21305089939065 -55.527643674557446 " stroke="#000000" stroke-width="0.35 px" style="stroke-width:0.35;stroke-miterlimit:4;stroke-dasharray:none;fill:none;fill-opacity:1;fill-rule: evenodd"/>
<path id="Sketch206_w0089"  d="M -63.61255700341039 -47.43109399841944 Q -63.597913404089894 -47.20397526838025 -63.81698199523339 -47.142280009972005 " stroke="#000000" stroke-width="0.35 px" style="stroke-width:0.35;stroke-miterlimit:4;stroke-dasharray:none;fill:none;fill-opacity:1;fill-rule: evenodd"/>
<path id="Sketch206_w0090"  d="M -80.02122834706353 -46.46820303693509 Q -80.24834383095161 -46.45355836387141 -80.31004133551099 -46.67262302875829 " stroke="#000000" stroke-width="0.35 px" style="stroke-width:0.35;stroke-miterlimit:4;stroke-dasharray:none;fill:none;fill-opacity:1;fill-rule: evenodd"/>
<path id="Sketch206_w0091"  d="M -99.14748858201307 -44.919091098899564 L -97.09337966417743 -45.35570608143497 C -96.64959638367861 -44.127121697707686 -95.16173890917088 -43.16865357864715 -93.85959679352878 -43.272524164762245 L -85.8387861143612 -44.9774000965672 L -85.64315612218641 -45.01898309490389 L -82.94346923017389 -45.592819071950444 " stroke="#000000" stroke-width="0.35 px" style="stroke-width:0.35;stroke-miterlimit:4;stroke-dasharray:none;fill:none;fill-opacity:1;fill-rule: evenodd"/>
<path id="Sketch206_w0092"  d="M -96.05778470560125 -54.960914697226606 L -95.42573273088331 -51.987345816169366 L -98.30148661585315 -51.376085840619766 Q -98.52055128074005 -51.31438833606036 -98.50590660767637 -51.08727285217228 L -98.029785 -48.847317 L -99.53144198607455 -48.547513611753125 A 3 3 0 0 0 -104.252 -49.7526L -104.368721 -52.86261 Q -104.37880196197943 -53.06379736463545 -104.6036753637656 -53.086149772217205 " stroke="#000000" stroke-width="0.35 px" style="stroke-width:0.35;stroke-miterlimit:4;stroke-dasharray:none;fill:none;fill-opacity:1;fill-rule: evenodd"/>
<path id="Sketch206_w0093"  d="M -82.73904923835067 -45.881632060397926 L -83.44387021015785 -49.197551927761126 Q -83.50556850580072 -49.416614435587185 -83.73268219860537 -49.40197091958437 L -84.3391341743473 -49.273065924740564 L -85.33918913434508 -53.97795573654496 " stroke="#000000" stroke-width="0.35 px" style="stroke-width:0.35;stroke-miterlimit:4;stroke-dasharray:none;fill:none;fill-opacity:1;fill-rule: evenodd"/>
<path id="Sketch206_w0094"  d="M -85.6280011227926 -54.182375728368164 L -88.49397400815369 -53.573194752735404 L -89.09899698395276 -56.419603638879046 Q -89.16069469262162 -56.63866690437129 -89.38780897240028 -56.62402363070225 L -95.85336471377803 -55.249726685674126 " stroke="#000000" stroke-width="0.35 px" style="stroke-width:0.35;stroke-miterlimit:4;stroke-dasharray:none;fill:none;fill-opacity:1;fill-rule: evenodd"/>
<path id="Sketch206_w0095"  d="M -85.62806412279008 -54.18266872835645 Q -85.40094539275091 -54.19731232767697 -85.33925013434265 -53.97824373653344 " stroke="#000000" stroke-width="0.35 px" style="stroke-width:0.35;stroke-miterlimit:4;stroke-dasharray:none;fill:none;fill-opacity:1;fill-rule: evenodd"/>
<path id="Sketch206_w0096"  d="M -96.05807170558975 -54.96085369722904 Q -96.07271585233659 -55.18796783646963 -95.85365271376651 -55.24966568567656 " stroke="#000000" stroke-width="0.35 px" style="stroke-width:0.35;stroke-miterlimit:4;stroke-dasharray:none;fill:none;fill-opacity:1;fill-rule: evenodd"/>
<path id="Sketch206_w0097"  d="M -82.73875623836241 -45.881694060395446 Q -82.72411263904189 -45.654575330356266 -82.94318123018539 -45.592880071948 " stroke="#000000" stroke-width="0.35 px" style="stroke-width:0.35;stroke-miterlimit:4;stroke-dasharray:none;fill:none;fill-opacity:1;fill-rule: evenodd"/>
<path id="Sketch206_w0098"  d="M -17.41258085140953 -28.701072747620323 L -20.078540744771118 -27.986731776193963 L -20.27172073704392 -27.93496777826452 L -28.192310420220338 -25.812651863157164 " stroke="#000000" stroke-width="0.35 px" style="stroke-width:0.35;stroke-miterlimit:4;stroke-dasharray:none;fill:none;fill-opacity:1;fill-rule: evenodd"/>
<path id="Sketch206_w0099"  d="M -30.999210307944338 -37.36997940086405 L -30.212400339416718 -34.433564518320644 L -33.05222022582393 -33.672636548757765 Q -33.26775918302518 -33.59956187688006 -33.241250218262735 -33.37352156072237 L -32.648550241970725 -31.161551649201165 L -34.47415016894672 -30.672383668767885 Q -34.68968912614798 -30.59930899689017 -34.663180161385526 -30.373268680732487 " stroke="#000000" stroke-width="0.35 px" style="stroke-width:0.35;stroke-miterlimit:4;stroke-dasharray:none;fill:none;fill-opacity:1;fill-rule: evenodd"/>
<path id="Sketch206_w0100"  d="M -17.22356085897033 -29.00018773565572 L -18.10095082387474 -32.274676604676166 Q -18.1740305380521 -32.490214403470006 -18.400070811909927 -32.463700597115206 L -18.99894078795512 -32.30323260353392 L -20.243860738158332 -36.9493354176898 " stroke="#000000" stroke-width="0.35 px" style="stroke-width:0.35;stroke-miterlimit:4;stroke-dasharray:none;fill:none;fill-opacity:1;fill-rule: evenodd"/>
<path id="Sketch206_w0101"  d="M -20.54298072619352 -37.13835941012884 L -23.37314061298713 -36.38001944046245 L -24.126300582860722 -39.190864328028646 Q -24.199380297038104 -39.406402126822485 -24.425420570895938 -39.37988832046768 L -30.81019031550514 -37.669094388899445 " stroke="#000000" stroke-width="0.35 px" style="stroke-width:0.35;stroke-miterlimit:4;stroke-dasharray:none;fill:none;fill-opacity:1;fill-rule: evenodd"/>
<path id="Sketch206_w0102"  d="M -33.55913020554752 -27.180214808454643 L -31.530690286685115 -27.723734786713848 C -31.023215894848448 -26.52005881153039 -29.48723274968697 -25.640772207552494 -28.192310420220338 -25.812650863157202 " stroke="#000000" stroke-width="0.35 px" style="stroke-width:0.35;stroke-miterlimit:4;stroke-dasharray:none;fill:none;fill-opacity:1;fill-rule: evenodd"/>
<path id="Sketch206_w0103"  d="M -34.660590161489125 -30.363608681118883 L -33.858250193582734 -27.369238800893683 " stroke="#000000" stroke-width="0.35 px" style="stroke-width:0.35;stroke-miterlimit:4;stroke-dasharray:none;fill:none;fill-opacity:1;fill-rule: evenodd"/>
<path id="Sketch206_w0104"  d="M -20.543050726190728 -37.138649410117246 Q -20.31701455670077 -37.165153746255044 -20.243940738155118 -36.94961941767844 " stroke="#000000" stroke-width="0.35 px" style="stroke-width:0.35;stroke-miterlimit:4;stroke-dasharray:none;fill:none;fill-opacity:1;fill-rule: evenodd"/>
<path id="Sketch206_w0105"  d="M -30.99950030793272 -37.36990340086708 Q -31.02600927269517 -37.59594371702477 -30.810470315493916 -37.669018388902494 " stroke="#000000" stroke-width="0.35 px" style="stroke-width:0.35;stroke-miterlimit:4;stroke-dasharray:none;fill:none;fill-opacity:1;fill-rule: evenodd"/>
<path id="Sketch206_w0106"  d="M -17.22327085898192 -29.000265735652604 Q -17.19676095730501 -28.774224338793115 -17.412300851420724 -28.70114874761729 " stroke="#000000" stroke-width="0.35 px" style="stroke-width:0.35;stroke-miterlimit:4;stroke-dasharray:none;fill:none;fill-opacity:1;fill-rule: evenodd"/>
<path id="Sketch206_w0107"  d="M -33.55906020555034 -27.179930808465997 Q -33.78509342461119 -27.153424299666966 -33.85817019358592 -27.368954800905044 " stroke="#000000" stroke-width="0.35 px" style="stroke-width:0.35;stroke-miterlimit:4;stroke-dasharray:none;fill:none;fill-opacity:1;fill-rule: evenodd"/>
<path id="Sketch206_w0108"  d="M -72.09648966405308 -9.155892529427565 L -70.04238074621745 -9.592507511962964 C -69.59859746571858 -8.363923128235701 -68.11073999121088 -7.405455009175155 -66.80859787556875 -7.509325595290239 L -58.78778719640121 -9.214201527095202 L -58.592157204226396 -9.255784525431885 L -55.892470312213874 -9.829620502478445 " stroke="#000000" stroke-width="0.35 px" style="stroke-width:0.35;stroke-miterlimit:4;stroke-dasharray:none;fill:none;fill-opacity:1;fill-rule: evenodd"/>
<path id="Sketch206_w0109"  d="M -69.00678578764123 -19.197716127754603 L -68.37473381292332 -16.224147246697363 L -71.25048769789316 -15.612887271147763 Q -71.46955236278002 -15.551189766588363 -71.45490768971635 -15.324074282700284 L -70.97878970876107 -13.084116372298602 L -72.82748863481311 -12.691163388016722 Q -73.0465517733832 -12.629465538809795 -73.03190762663635 -12.402351399569202 " stroke="#000000" stroke-width="0.35 px" style="stroke-width:0.35;stroke-miterlimit:4;stroke-dasharray:none;fill:none;fill-opacity:1;fill-rule: evenodd"/>
<path id="Sketch206_w0110"  d="M -55.68805032039069 -10.118433490925923 L -56.39287129219784 -13.434353358289123 Q -56.45456958784071 -13.653415866115202 -56.68168328064536 -13.638772350112365 L -57.28813525638728 -13.509867355268565 L -58.28819021638509 -18.214757167072964 " stroke="#000000" stroke-width="0.35 px" style="stroke-width:0.35;stroke-miterlimit:4;stroke-dasharray:none;fill:none;fill-opacity:1;fill-rule: evenodd"/>
<path id="Sketch206_w0111"  d="M -58.57700220483261 -18.419177158896165 L -61.44297509019367 -17.809996183263404 L -62.04799806599277 -20.656405069407043 Q -62.10969577466163 -20.875468334899296 -62.33681005444029 -20.860825061230244 L -68.80236579581805 -19.486528116202123 " stroke="#000000" stroke-width="0.35 px" style="stroke-width:0.35;stroke-miterlimit:4;stroke-dasharray:none;fill:none;fill-opacity:1;fill-rule: evenodd"/>
<path id="Sketch206_w0112"  d="M -73.0298286267195 -12.392569399960482 L -72.38530265250057 -9.360312521250762 " stroke="#000000" stroke-width="0.35 px" style="stroke-width:0.35;stroke-miterlimit:4;stroke-dasharray:none;fill:none;fill-opacity:1;fill-rule: evenodd"/>
<path id="Sketch206_w0113"  d="M -58.57706520483009 -18.419470158884444 Q -58.34994647479091 -18.43411375820497 -58.28825121638263 -18.21504516706144 " stroke="#000000" stroke-width="0.35 px" style="stroke-width:0.35;stroke-miterlimit:4;stroke-dasharray:none;fill:none;fill-opacity:1;fill-rule: evenodd"/>
<path id="Sketch206_w0114"  d="M -69.00707278762977 -19.197655127757045 Q -69.02171693437661 -19.42476926699763 -68.80265379580652 -19.48646711620455 " stroke="#000000" stroke-width="0.35 px" style="stroke-width:0.35;stroke-miterlimit:4;stroke-dasharray:none;fill:none;fill-opacity:1;fill-rule: evenodd"/>
<path id="Sketch206_w0115"  d="M -55.6877573204024 -10.118495490923443 Q -55.673113721081876 -9.891376760884254 -55.8921823122254 -9.82968150247601 " stroke="#000000" stroke-width="0.35 px" style="stroke-width:0.35;stroke-miterlimit:4;stroke-dasharray:none;fill:none;fill-opacity:1;fill-rule: evenodd"/>
<path id="Sketch206_w0116"  d="M -72.09642866405551 -9.155604529439092 Q -72.32354414794358 -9.140959856375408 -72.385241652503 -9.360024521262282 " stroke="#000000" stroke-width="0.35 px" style="stroke-width:0.35;stroke-miterlimit:4;stroke-dasharray:none;fill:none;fill-opacity:1;fill-rule: evenodd"/>
<path id="Sketch206_w0117"  d="M -101.56690448523645 -30.249422685686326 L -104.32522337490369 -30.1531006895392 L -104.52510136690856 -30.146120689818403 L -112.72010703910831 -29.85994470126544 " stroke="#000000" stroke-width="0.35 px" style="stroke-width:0.35;stroke-miterlimit:4;stroke-dasharray:none;fill:none;fill-opacity:1;fill-rule: evenodd"/>
<path id="Sketch206_w0118"  d="M -112.85523103370336 -41.75247322556429 L -112.74913703794712 -38.7143253470902 L -115.68734592041876 -38.61172035119441 Q -115.91379520840837 -38.589000432965705 -115.93881191036012 -38.36279336115149 L -115.85889191355693 -36.07418845269569 L -117.747739838003 -36.00822745533412 Q -117.9741888964409 -35.98550740570943 -117.99920482794441 -35.759300465291204 " stroke="#000000" stroke-width="0.35 px" style="stroke-width:0.35;stroke-miterlimit:4;stroke-dasharray:none;fill:none;fill-opacity:1;fill-rule: evenodd"/>
<path id="Sketch206_w0119"  d="M -105.99779230800092 -42.23208620637976 L -112.60376604376196 -42.00140121560717 " stroke="#000000" stroke-width="0.35 px" style="stroke-width:0.35;stroke-miterlimit:4;stroke-dasharray:none;fill:none;fill-opacity:1;fill-rule: evenodd"/>
<path id="Sketch206_w0120"  d="M -117.64174084224297 -32.399729599674046 L -115.5430199261918 -32.473018596742484 C -115.31932000477168 -31.186037559942566 -114.02050311984749 -29.983767658624444 -112.7201070391083 -29.859945701265403 " stroke="#000000" stroke-width="0.35 px" style="stroke-width:0.35;stroke-miterlimit:4;stroke-dasharray:none;fill:none;fill-opacity:1;fill-rule: evenodd"/>
<path id="Sketch206_w0121"  d="M -117.99885682795832 -35.749306465690964 L -117.89066883228584 -32.65119458961544 " stroke="#000000" stroke-width="0.35 px" style="stroke-width:0.35;stroke-miterlimit:4;stroke-dasharray:none;fill:none;fill-opacity:1;fill-rule: evenodd"/>
<path id="Sketch206_w0122"  d="M -112.85552403369164 -41.75246322556468 Q -112.83050810218809 -41.97867016598292 -112.60405904375025 -42.00139021560761 " stroke="#000000" stroke-width="0.35 px" style="stroke-width:0.35;stroke-miterlimit:4;stroke-dasharray:none;fill:none;fill-opacity:1;fill-rule: evenodd"/>
<path id="Sketch206_w0123"  d="M -101.31513849530708 -30.498360675728804 Q -101.34015710171232 -30.272150069557064 -101.56661048524819 -30.249433685685887 " stroke="#000000" stroke-width="0.35 px" style="stroke-width:0.35;stroke-miterlimit:4;stroke-dasharray:none;fill:none;fill-opacity:1;fill-rule: evenodd"/>
<path id="Sketch206_w0124"  d="M -105.99779230800092 -42.23208520637981 Q -105.77158591676977 -42.207068731232155 -105.748865317958 -41.9806202164384 " stroke="#000000" stroke-width="0.35 px" style="stroke-width:0.35;stroke-miterlimit:4;stroke-dasharray:none;fill:none;fill-opacity:1;fill-rule: evenodd"/>
<path id="Sketch206_w0125"  d="M -117.64173084224336 -32.3994355996858 Q -117.86793846324927 -32.42445175799097 -117.89065783228628 -32.65090158962717 " stroke="#000000" stroke-width="0.35 px" style="stroke-width:0.35;stroke-miterlimit:4;stroke-dasharray:none;fill:none;fill-opacity:1;fill-rule: evenodd"/>
<path id="Sketch206_w0126"  d="M -25.415350531298714 -94.69329510793133 L -27.755960437674332 -93.23072516643413 L -27.925570430889934 -93.12473517067372 L -34.87957015272994 -88.77940534448692 " stroke="#000000" stroke-width="0.35 px" style="stroke-width:0.35;stroke-miterlimit:4;stroke-dasharray:none;fill:none;fill-opacity:1;fill-rule: evenodd"/>
<path id="Sketch206_w0127"  d="M -40.94284991019873 -99.01107493522012 L -39.33189997463671 -96.43300503834293 L -41.82515987490632 -94.87504510066132 Q -42.009909093534944 -94.74214338666005 -41.918469871173926 -94.53373511431373 L -40.70495991971433 -92.59170519199492 L -42.30776985560192 -91.59015523205693 Q -42.49251907423054 -91.45725351805564 -42.401079851869525 -91.24884524570933 " stroke="#000000" stroke-width="0.35 px" style="stroke-width:0.35;stroke-miterlimit:4;stroke-dasharray:none;fill:none;fill-opacity:1;fill-rule: evenodd"/>
<path id="Sketch206_w0128"  d="M -25.322040535031135 -95.03461509427854 L -27.11846046317433 -97.90949497928332 Q -27.251362380957318 -98.09424345251773 -27.459770449521926 -98.00280497555093 L -27.985560428490317 -97.67425498869292 L -30.534480326533526 -101.75336482552854 " stroke="#000000" stroke-width="0.35 px" style="stroke-width:0.35;stroke-miterlimit:4;stroke-dasharray:none;fill:none;fill-opacity:1;fill-rule: evenodd"/>
<path id="Sketch206_w0129"  d="M -30.875790312881122 -101.84667482179613 L -33.36057021348992 -100.29401488390252 L -34.90263015180753 -102.76183478518972 Q -35.03553206959053 -102.94658325842411 -35.243940138155125 -102.85514478145733 L -40.849539913931125 -99.35238492156773 " stroke="#000000" stroke-width="0.35 px" style="stroke-width:0.35;stroke-miterlimit:4;stroke-dasharray:none;fill:none;fill-opacity:1;fill-rule: evenodd"/>
<path id="Sketch206_w0130"  d="M -40.41171993144394 -88.51810535493892 L -38.63082000267994 -89.63093531042573 C -37.793601734140786 -88.62822477998145 -36.06765877270975 -88.23643285212356 -34.87957015272994 -88.77939534448733 " stroke="#000000" stroke-width="0.35 px" style="stroke-width:0.35;stroke-miterlimit:4;stroke-dasharray:none;fill:none;fill-opacity:1;fill-rule: evenodd"/>
<path id="Sketch206_w0131"  d="M -42.39577985208152 -91.24036524604853 L -40.75302991779154 -88.61141535120652 " stroke="#000000" stroke-width="0.35 px" style="stroke-width:0.35;stroke-miterlimit:4;stroke-dasharray:none;fill:none;fill-opacity:1;fill-rule: evenodd"/>
<path id="Sketch206_w0132"  d="M -30.87595031287472 -101.84693482178572 Q -30.667531631969496 -101.93837807372242 -30.53463032652752 -101.75361482551854 " stroke="#000000" stroke-width="0.35 px" style="stroke-width:0.35;stroke-miterlimit:4;stroke-dasharray:none;fill:none;fill-opacity:1;fill-rule: evenodd"/>
<path id="Sketch206_w0133"  d="M -40.94309991018872 -99.01091493522652 Q -41.03453913254974 -99.21932320757284 -40.849789913921114 -99.35222492157415 " stroke="#000000" stroke-width="0.35 px" style="stroke-width:0.35;stroke-miterlimit:4;stroke-dasharray:none;fill:none;fill-opacity:1;fill-rule: evenodd"/>
<path id="Sketch206_w0134"  d="M -25.32178053504154 -95.03476509427253 Q -25.230345668056096 -94.8263525996692 -25.415100531308724 -94.69345510792493 " stroke="#000000" stroke-width="0.35 px" style="stroke-width:0.35;stroke-miterlimit:4;stroke-dasharray:none;fill:none;fill-opacity:1;fill-rule: evenodd"/>
<path id="Sketch206_w0135"  d="M -40.41155993145031 -88.51785535494892 Q -40.619968203796645 -88.42641613258792 -40.75286991779794 -88.61116535121653 " stroke="#000000" stroke-width="0.35 px" style="stroke-width:0.35;stroke-miterlimit:4;stroke-dasharray:none;fill:none;fill-opacity:1;fill-rule: evenodd"/>
<path id="Sketch206_w0136"  d="M -40.20257993980954 -40.16107228922032 L -42.86853983317113 -39.44673131779396 L -43.06171982544393 -39.39496731986453 L -50.982313508620166 -37.27265140475716 " stroke="#000000" stroke-width="0.35 px" style="stroke-width:0.35;stroke-miterlimit:4;stroke-dasharray:none;fill:none;fill-opacity:1;fill-rule: evenodd"/>
<path id="Sketch206_w0137"  d="M -56.031247306662806 -44.833521102322365 L -55.43855233037061 -42.62155119080116 L -57.26415225734661 -42.132383210367884 Q -57.47968673394864 -42.05930517519319 -57.45317624978563 -41.833268222332485 " stroke="#000000" stroke-width="0.35 px" style="stroke-width:0.35;stroke-miterlimit:4;stroke-dasharray:none;fill:none;fill-opacity:1;fill-rule: evenodd"/>
<path id="Sketch206_w0138"  d="M -40.01355994737034 -40.46018727725573 L -40.89094991227472 -43.734676146276165 Q -40.9640296264521 -43.95021394507002 -41.190069900309936 -43.9237001387152 L -41.78893987635513 -43.76323214513393 L -43.03385982655831 -48.40933495928981 " stroke="#000000" stroke-width="0.35 px" style="stroke-width:0.35;stroke-miterlimit:4;stroke-dasharray:none;fill:none;fill-opacity:1;fill-rule: evenodd"/>
<path id="Sketch206_w0139"  d="M -43.33297981459353 -48.59835895172884 L -46.16313970138714 -47.840018982062446 L -46.91630267126061 -50.650863869628644 Q -46.98938111925105 -50.8663976929836 -47.21541765929601 -50.839887862067684 L -53.60018740390521 -49.129093930499444 " stroke="#000000" stroke-width="0.35 px" style="stroke-width:0.35;stroke-miterlimit:4;stroke-dasharray:none;fill:none;fill-opacity:1;fill-rule: evenodd"/>
<path id="Sketch206_w0140"  d="M -53.78921139634423 -48.829978942464045 L -53.002401427816636 -45.89356405992064 L -55.84222331422376 -45.132636090357764 Q -56.05775853758884 -45.05955861572625 -56.03124830666275 -44.833521102322365 " stroke="#000000" stroke-width="0.35 px" style="stroke-width:0.35;stroke-miterlimit:4;stroke-dasharray:none;fill:none;fill-opacity:1;fill-rule: evenodd"/>
<path id="Sketch206_w0141"  d="M -56.34913329394735 -38.64021435005464 L -54.320689375085124 -39.18373432831385 C -53.81321519132095 -37.98005965486324 -52.277234787799564 -37.10077356681224 -50.982313508620166 -37.2726504047572 " stroke="#000000" stroke-width="0.35 px" style="stroke-width:0.35;stroke-miterlimit:4;stroke-dasharray:none;fill:none;fill-opacity:1;fill-rule: evenodd"/>
<path id="Sketch206_w0142"  d="M -57.450587249889196 -41.82360822271888 L -56.648248281982774 -38.82923834249368 " stroke="#000000" stroke-width="0.35 px" style="stroke-width:0.35;stroke-miterlimit:4;stroke-dasharray:none;fill:none;fill-opacity:1;fill-rule: evenodd"/>
<path id="Sketch206_w0143"  d="M -43.33304981459074 -48.598648951717244 Q -43.107013645100764 -48.625153287855014 -43.03393982655513 -48.409618959278454 " stroke="#000000" stroke-width="0.35 px" style="stroke-width:0.35;stroke-miterlimit:4;stroke-dasharray:none;fill:none;fill-opacity:1;fill-rule: evenodd"/>
<path id="Sketch206_w0144"  d="M -53.78949639633285 -48.829902942467086 Q -53.81600662725896 -49.05594045587096 -53.600471403893835 -49.129017930502485 " stroke="#000000" stroke-width="0.35 px" style="stroke-width:0.35;stroke-miterlimit:4;stroke-dasharray:none;fill:none;fill-opacity:1;fill-rule: evenodd"/>
<path id="Sketch206_w0145"  d="M -40.01326994738193 -40.4602652772526 Q -39.98676004570501 -40.23422388039312 -40.20229993982073 -40.161148289217294 " stroke="#000000" stroke-width="0.35 px" style="stroke-width:0.35;stroke-miterlimit:4;stroke-dasharray:none;fill:none;fill-opacity:1;fill-rule: evenodd"/>
<path id="Sketch206_w0146"  d="M -56.34905729395041 -38.639930350066 Q -56.575094246811105 -38.613419865903005 -56.64817228198581 -38.82895434250504 " stroke="#000000" stroke-width="0.35 px" style="stroke-width:0.35;stroke-miterlimit:4;stroke-dasharray:none;fill:none;fill-opacity:1;fill-rule: evenodd"/>
<path id="Sketch206_w0147"  d="M -115.77623091686337 -60.70087246762829 L -115.67013692110712 -57.66272458915421 L -118.60834580357877 -57.560119593258406 Q -118.83479509156834 -57.53739967502972 -118.85981179352012 -57.31119260321549 L -118.77989179671692 -55.022587694759686 L -120.668739721163 -54.95662669739812 Q -120.89518877960089 -54.933906647773426 -120.9202047111044 -54.707699707355204 " stroke="#000000" stroke-width="0.35 px" style="stroke-width:0.35;stroke-miterlimit:4;stroke-dasharray:none;fill:none;fill-opacity:1;fill-rule: evenodd"/>
<path id="Sketch206_w0148"  d="M -108.91879219116092 -61.18048544844376 L -115.52476592692196 -60.94980045767116 " stroke="#000000" stroke-width="0.35 px" style="stroke-width:0.35;stroke-miterlimit:4;stroke-dasharray:none;fill:none;fill-opacity:1;fill-rule: evenodd"/>
<path id="Sketch206_w0149"  d="M -120.56274072540296 -51.348128841738045 L -118.46401980935181 -51.421417838806484 C -118.24031988793162 -50.13443680200654 -116.94150300300753 -48.93216690068848 -115.64110692226834 -48.8083449433294 " stroke="#000000" stroke-width="0.35 px" style="stroke-width:0.35;stroke-miterlimit:4;stroke-dasharray:none;fill:none;fill-opacity:1;fill-rule: evenodd"/>
<path id="Sketch206_w0150"  d="M -104.6036753637656 -53.08615077221717 L -105.22329833898067 -53.06451277308268 L -105.39116433226604 -57.87158258079988 " stroke="#000000" stroke-width="0.35 px" style="stroke-width:0.35;stroke-miterlimit:4;stroke-dasharray:none;fill:none;fill-opacity:1;fill-rule: evenodd"/>
<path id="Sketch206_w0151"  d="M -105.64009232230893 -58.12304857074125 L -108.56830720518033 -58.02079257483149 L -108.669865201118 -60.92901945850241 Q -108.69258579992974 -61.15546797329616 -108.91879219116092 -61.180484448443806 " stroke="#000000" stroke-width="0.35 px" style="stroke-width:0.35;stroke-miterlimit:4;stroke-dasharray:none;fill:none;fill-opacity:1;fill-rule: evenodd"/>
<path id="Sketch206_w0152"  d="M -120.91985671111831 -54.69770570775496 L -120.81166871544585 -51.59959383167944 " stroke="#000000" stroke-width="0.35 px" style="stroke-width:0.35;stroke-miterlimit:4;stroke-dasharray:none;fill:none;fill-opacity:1;fill-rule: evenodd"/>
<path id="Sketch206_w0153"  d="M -105.64010232230851 -58.12334857072925 Q -105.41389094293488 -58.098330639368214 -105.39117433226565 -57.871876580788125 " stroke="#000000" stroke-width="0.35 px" style="stroke-width:0.35;stroke-miterlimit:4;stroke-dasharray:none;fill:none;fill-opacity:1;fill-rule: evenodd"/>
<path id="Sketch206_w0154"  d="M -115.77652391685164 -60.70086246762868 Q -115.75150798534814 -60.92706940804689 -115.52505892691025 -60.94978945767161 " stroke="#000000" stroke-width="0.35 px" style="stroke-width:0.35;stroke-miterlimit:4;stroke-dasharray:none;fill:none;fill-opacity:1;fill-rule: evenodd"/>
<path id="Sketch206_w0155"  d="M -120.56273072540336 -51.3478348417498 Q -120.78893834640927 -51.372851000054986 -120.81165771544627 -51.59930083169117 " stroke="#000000" stroke-width="0.35 px" style="stroke-width:0.35;stroke-miterlimit:4;stroke-dasharray:none;fill:none;fill-opacity:1;fill-rule: evenodd"/>
<path id="Sketch206_w0156"  d="M -74.92577655088161 -70.554779073472 L -73.05466262572617 -71.5081590353368 C -72.3080197191089 -70.43629769795612 -70.62279051962989 -69.89557482441333 -69.3919017722366 -70.33292508234616 L -62.08564806448675 -74.05564793343724 L -61.90744607161483 -74.14644592980532 L -59.44826816998196 -75.39945587968492 " stroke="#000000" stroke-width="0.35 px" style="stroke-width:0.35;stroke-miterlimit:4;stroke-dasharray:none;fill:none;fill-opacity:1;fill-rule: evenodd"/>
<path id="Sketch206_w0157"  d="M -74.54036556629805 -81.05411565349853 L -73.16023462150329 -78.34545576184493 L -75.77979451672087 -77.01071581523453 Q -75.97542563964352 -76.89442181702881 -75.90249751181275 -76.67883582850973 L -74.8628595533983 -74.63843591012572 L -76.54686248603815 -73.78039294444744 Q -76.7424927236468 -73.6640992685122 -76.66956548113004 -73.44851395772261 " stroke="#000000" stroke-width="0.35 px" style="stroke-width:0.35;stroke-miterlimit:4;stroke-dasharray:none;fill:none;fill-opacity:1;fill-rule: evenodd"/>
<path id="Sketch206_w0158"  d="M -59.32556417489013 -75.73133586640972 L -60.864592113328996 -78.75185574558893 Q -60.98088773612204 -78.94748250043479 -61.19647110005383 -78.87455574068093 L -61.74889507795689 -78.59308575193973 L -63.932589990609074 -82.87882558051012 " stroke="#000000" stroke-width="0.35 px" style="stroke-width:0.35;stroke-miterlimit:4;stroke-dasharray:none;fill:none;fill-opacity:1;fill-rule: evenodd"/>
<path id="Sketch206_w0159"  d="M -64.26446897733393 -83.00152557560213 L -66.87511787290796 -81.67133562880971 L -68.19622982006348 -84.26416552509653 Q -68.31252544285651 -84.4597922799424 -68.52810880678831 -84.38686552018852 L -74.4176615712062 -81.38598564022372 " stroke="#000000" stroke-width="0.35 px" style="stroke-width:0.35;stroke-miterlimit:4;stroke-dasharray:none;fill:none;fill-opacity:1;fill-rule: evenodd"/>
<path id="Sketch206_w0160"  d="M -76.6650264813116 -73.439603958079 L -75.25765553760644 -70.67748306856384 " stroke="#000000" stroke-width="0.35 px" style="stroke-width:0.35;stroke-miterlimit:4;stroke-dasharray:none;fill:none;fill-opacity:1;fill-rule: evenodd"/>
<path id="Sketch206_w0161"  d="M -64.26460497732847 -83.00179557559133 Q -64.04901460909316 -83.07472249338733 -63.93272299060377 -82.87908558049972 " stroke="#000000" stroke-width="0.35 px" style="stroke-width:0.35;stroke-miterlimit:4;stroke-dasharray:none;fill:none;fill-opacity:1;fill-rule: evenodd"/>
<path id="Sketch206_w0162"  d="M -74.54062756628755 -81.05397565350412 Q -74.6135553718489 -81.26956211233741 -74.41792357119573 -81.38585564022893 " stroke="#000000" stroke-width="0.35 px" style="stroke-width:0.35;stroke-miterlimit:4;stroke-dasharray:none;fill:none;fill-opacity:1;fill-rule: evenodd"/>
<path id="Sketch206_w0163"  d="M -59.32529717490081 -75.73147586640412 Q -59.25237170548067 -75.51588732396846 -59.44800616999245 -75.39959587967932 " stroke="#000000" stroke-width="0.35 px" style="stroke-width:0.35;stroke-miterlimit:4;stroke-dasharray:none;fill:none;fill-opacity:1;fill-rule: evenodd"/>
<path id="Sketch206_w0164"  d="M -74.92564355088692 -70.55451807348244 Q -75.14122886167651 -70.4815908309657 -75.25752253761175 -70.67722106857433 " stroke="#000000" stroke-width="0.35 px" style="stroke-width:0.35;stroke-miterlimit:4;stroke-dasharray:none;fill:none;fill-opacity:1;fill-rule: evenodd"/>
<path id="Sketch206_w0165"  d="M -26.722580479009537 -65.64107127002032 L -29.388540372371125 -64.92673029859397 L -29.581720364643928 -64.87496630066452 L -37.502310047820316 -62.75265038555716 " stroke="#000000" stroke-width="0.35 px" style="stroke-width:0.35;stroke-miterlimit:4;stroke-dasharray:none;fill:none;fill-opacity:1;fill-rule: evenodd"/>
<path id="Sketch206_w0166"  d="M -40.30920993554432 -74.30997792326404 L -39.522399967016725 -71.37356304072065 L -42.36221985342394 -70.61263507115777 Q -42.57775881062521 -70.53956039928005 -42.55124984586271 -70.31352008312237 L -41.95854986957073 -68.10155017160116 L -43.78414979654673 -67.61238219116788 Q -43.999688753748 -67.53930751929016 -43.97317978898553 -67.31326720313248 " stroke="#000000" stroke-width="0.35 px" style="stroke-width:0.35;stroke-miterlimit:4;stroke-dasharray:none;fill:none;fill-opacity:1;fill-rule: evenodd"/>
<path id="Sketch206_w0167"  d="M -26.533560486570337 -65.94018625805572 L -27.41095045147472 -69.21467512707616 Q -27.4840301656521 -69.43021292587 -27.710070439509934 -69.40369911951521 L -28.308940415555128 -69.24323112593393 L -29.55386036575834 -73.88933394008981 " stroke="#000000" stroke-width="0.35 px" style="stroke-width:0.35;stroke-miterlimit:4;stroke-dasharray:none;fill:none;fill-opacity:1;fill-rule: evenodd"/>
<path id="Sketch206_w0168"  d="M -29.852980353793527 -74.07835793252885 L -32.683140240587136 -73.32001796286244 L -33.43630021046073 -76.13086585042853 Q -33.50938216679903 -76.34640066217362 -33.735420198495916 -76.31988584286773 L -40.12018994310512 -74.60909591129933 " stroke="#000000" stroke-width="0.35 px" style="stroke-width:0.35;stroke-miterlimit:4;stroke-dasharray:none;fill:none;fill-opacity:1;fill-rule: evenodd"/>
<path id="Sketch206_w0169"  d="M -42.869129833147525 -64.12021333085465 L -40.84068991428512 -64.66373330911384 C -40.333215522448434 -63.46005733393036 -38.797232377286996 -62.58077072995252 -37.502310047820316 -62.752649385557206 " stroke="#000000" stroke-width="0.35 px" style="stroke-width:0.35;stroke-miterlimit:4;stroke-dasharray:none;fill:none;fill-opacity:1;fill-rule: evenodd"/>
<path id="Sketch206_w0170"  d="M -43.97058978908913 -67.30360720351888 L -43.16824982118274 -64.30923732329369 " stroke="#000000" stroke-width="0.35 px" style="stroke-width:0.35;stroke-miterlimit:4;stroke-dasharray:none;fill:none;fill-opacity:1;fill-rule: evenodd"/>
<path id="Sketch206_w0171"  d="M -29.853050353790735 -74.07864793251724 Q -29.627014184300776 -74.10515226865502 -29.553940365755125 -73.88961794007844 " stroke="#000000" stroke-width="0.35 px" style="stroke-width:0.35;stroke-miterlimit:4;stroke-dasharray:none;fill:none;fill-opacity:1;fill-rule: evenodd"/>
<path id="Sketch206_w0172"  d="M -40.30949993553273 -74.30990192326709 Q -40.33600810520839 -74.53594149265454 -40.12046994309392 -74.60901591130252 " stroke="#000000" stroke-width="0.35 px" style="stroke-width:0.35;stroke-miterlimit:4;stroke-dasharray:none;fill:none;fill-opacity:1;fill-rule: evenodd"/>
<path id="Sketch206_w0173"  d="M -26.533270486581927 -65.94026425805261 Q -26.506760584905017 -65.71422286119311 -26.72230047902073 -65.64114727001729 " stroke="#000000" stroke-width="0.35 px" style="stroke-width:0.35;stroke-miterlimit:4;stroke-dasharray:none;fill:none;fill-opacity:1;fill-rule: evenodd"/>
<path id="Sketch206_w0174"  d="M -42.86905983315032 -64.119929330866 Q -43.09509305221118 -64.093422822067 -43.16816982118593 -64.30895332330505 " stroke="#000000" stroke-width="0.35 px" style="stroke-width:0.35;stroke-miterlimit:4;stroke-dasharray:none;fill:none;fill-opacity:1;fill-rule: evenodd"/>
<path id="Sketch206_w0175"  d="M -91.27348889697308 -7.631892590387565 L -89.21937997913744 -8.068507572922964 C -88.77559669863857 -6.839923189195706 -87.28773922413086 -5.881455070135166 -85.98559710848876 -5.98532565625024 L -77.96478642932121 -7.690201588055203 L -77.76915643714639 -7.731784586391882 L -75.06946954513387 -8.305620563438442 " stroke="#000000" stroke-width="0.35 px" style="stroke-width:0.35;stroke-miterlimit:4;stroke-dasharray:none;fill:none;fill-opacity:1;fill-rule: evenodd"/>
<path id="Sketch206_w0176"  d="M -88.18378502056123 -17.673716188714604 L -87.55173304584332 -14.700147307657364 L -90.42748693081316 -14.088887332107763 Q -90.64655159570006 -14.027189827548362 -90.63190692263635 -13.800074343660285 L -90.15578894168107 -11.560116433258603 L -92.00448786773313 -11.167163448976723 Q -92.22355100630324 -11.105465599769804 -92.20890685955635 -10.878351460529203 " stroke="#000000" stroke-width="0.35 px" style="stroke-width:0.35;stroke-miterlimit:4;stroke-dasharray:none;fill:none;fill-opacity:1;fill-rule: evenodd"/>
<path id="Sketch206_w0177"  d="M -74.86504955331068 -8.594433551885924 L -75.56987052511784 -11.910353419249123 Q -75.63156882076073 -12.129415927075195 -75.85868251356536 -12.114772411072362 L -76.46513448930727 -11.985867416228565 L -77.46518944930509 -16.690757228032965 " stroke="#000000" stroke-width="0.35 px" style="stroke-width:0.35;stroke-miterlimit:4;stroke-dasharray:none;fill:none;fill-opacity:1;fill-rule: evenodd"/>
<path id="Sketch206_w0178"  d="M -77.7540014377526 -16.895177219856162 L -80.61997432311367 -16.285996244223405 L -81.22499729891277 -19.132405130367044 Q -81.28669500758163 -19.351468395859293 -81.51380928736029 -19.336825122190245 L -87.97936502873804 -17.962528177162124 " stroke="#000000" stroke-width="0.35 px" style="stroke-width:0.35;stroke-miterlimit:4;stroke-dasharray:none;fill:none;fill-opacity:1;fill-rule: evenodd"/>
<path id="Sketch206_w0179"  d="M -92.20682785963953 -10.868569460920483 L -91.56230188542057 -7.836312582210763 " stroke="#000000" stroke-width="0.35 px" style="stroke-width:0.35;stroke-miterlimit:4;stroke-dasharray:none;fill:none;fill-opacity:1;fill-rule: evenodd"/>
<path id="Sketch206_w0180"  d="M -77.75406443775009 -16.895470219844444 Q -77.52694570771091 -16.910113819164962 -77.46525044930263 -16.691045228021448 " stroke="#000000" stroke-width="0.35 px" style="stroke-width:0.35;stroke-miterlimit:4;stroke-dasharray:none;fill:none;fill-opacity:1;fill-rule: evenodd"/>
<path id="Sketch206_w0181"  d="M -88.18407202054976 -17.673655188717042 Q -88.19871616729661 -17.900769327957647 -87.97965302872652 -17.962467177164562 " stroke="#000000" stroke-width="0.35 px" style="stroke-width:0.35;stroke-miterlimit:4;stroke-dasharray:none;fill:none;fill-opacity:1;fill-rule: evenodd"/>
<path id="Sketch206_w0182"  d="M -74.8647565533224 -8.594495551883444 Q -74.85011295400189 -8.367376821844259 -75.0691815451454 -8.30568156343601 " stroke="#000000" stroke-width="0.35 px" style="stroke-width:0.35;stroke-miterlimit:4;stroke-dasharray:none;fill:none;fill-opacity:1;fill-rule: evenodd"/>
<path id="Sketch206_w0183"  d="M -91.27342789697553 -7.631604590399082 Q -91.50054338086359 -7.6169599173354126 -91.562240885423 -7.836024582222283 " stroke="#000000" stroke-width="0.35 px" style="stroke-width:0.35;stroke-miterlimit:4;stroke-dasharray:none;fill:none;fill-opacity:1;fill-rule: evenodd"/>
<path id="Sketch206_w0184"  d="M -102.647606 -40.458744 L -105.69104625609258 -40.333758763598254 L -105.748863 -41.980621 " stroke="#000000" stroke-width="0.35 px" style="stroke-width:0.35;stroke-miterlimit:4;stroke-dasharray:none;fill:none;fill-opacity:1;fill-rule: evenodd"/>
<path id="Sketch206_w0185"  d="M -101.31514 -30.498362 L -101.4038783506417 -32.99544108276576 L -94.71830442893904 -33.23171935207981 L -94.06739 -30.178316 " stroke="#000000" stroke-width="0.35 px" style="stroke-width:0.35;stroke-miterlimit:4;stroke-dasharray:none;fill:none;fill-opacity:1;fill-rule: evenodd"/>
<path id="Sketch206_w0186"  d="M -93.604042 -40.514393 L -93.46569570299441 -36.289433742766384 L -91.890968 -36.580727 " stroke="#000000" stroke-width="0.35 px" style="stroke-width:0.35;stroke-miterlimit:4;stroke-dasharray:none;fill:none;fill-opacity:1;fill-rule: evenodd"/>
<path id="Sketch206_w0187"  d="M -60.722122 -21.773426 L -62.054310006366634 -28.003970905176125 L -62.724789 -27.857801 " stroke="#000000" stroke-width="0.35 px" style="stroke-width:0.35;stroke-miterlimit:4;stroke-dasharray:none;fill:none;fill-opacity:1;fill-rule: evenodd"/>
<path id="Sketch206_w0188"  d="M -60.329872 -32.077953 L -59.757631771581046 -29.377533028547102 L -53.365448 -30.739182 " stroke="#000000" stroke-width="0.35 px" style="stroke-width:0.35;stroke-miterlimit:4;stroke-dasharray:none;fill:none;fill-opacity:1;fill-rule: evenodd"/>
<path id="Sketch206_w0189"  d="M -49.577412 -30.468647 L -52.889718127330404 -29.72983437405062 L -53.076633 -30.534761 " stroke="#000000" stroke-width="0.35 px" style="stroke-width:0.35;stroke-miterlimit:4;stroke-dasharray:none;fill:none;fill-opacity:1;fill-rule: evenodd"/>
<path id="Sketch206_w0190"  d="M -42.325562 -84.391335 L -41.610661 -84.054909 " stroke="#000000" stroke-width="0.35 px" style="stroke-width:0.35;stroke-miterlimit:4;stroke-dasharray:none;fill:none;fill-opacity:1;fill-rule: evenodd"/>
<path id="Sketch206_w0191"  d="M -52.391903 -78.992928 L -49.906097 -79.850616 " stroke="#000000" stroke-width="0.35 px" style="stroke-width:0.35;stroke-miterlimit:4;stroke-dasharray:none;fill:none;fill-opacity:1;fill-rule: evenodd"/>
<title>b'Sketch206'</title>
</g>
</svg>