M48
; DRILL file {KiCad (6.0.6)} date 2022年07月10日 22時01分46秒
; FORMAT={-:-/ absolute / metric / decimal}
; #@! TF.CreationDate,2022-07-10T22:01:46+09:00
; #@! TF.GenerationSoftware,Kicad,Pcbnew,(6.0.6)
; #@! TF.FileFunction,NonPlated,1,2,NPTH
FMAT,2
METRIC
; #@! TA.AperFunction,NonPlated,NPTH,ComponentDrill
T1C1.900
; #@! TA.AperFunction,NonPlated,NPTH,ComponentDrill
T2C3.000
; #@! TA.AperFunction,NonPlated,NPTH,ComponentDrill
T3C4.100
; #@! TA.AperFunction,NonPlated,NPTH,ComponentDrill
T4C4.300
%
G90
G05
T1
X28.781Y-81.255
X31.702Y-62.307
X36.325Y-40.158
X38.935Y-81.61
X41.856Y-62.661
X46.479Y-40.512
X49.362Y-75.347
X53.324Y-56.678
X57.236Y-38.06
X59.3Y-77.459
X63.262Y-58.79
X67.174Y-40.172
X68.488Y-76.896
X72.194Y-101.474
X72.476Y-58.227
X76.413Y-39.584
X78.426Y-79.009
X81.246Y-106.086
X82.414Y-60.34
X86.351Y-41.696
X87.523Y-87.725
X89.194Y-110.134
X91.893Y-69.195
X95.916Y-50.535
X97.337Y-90.355
X98.246Y-114.746
X101.707Y-71.825
X105.373Y-94.675
X105.73Y-53.164
X106.222Y-119.518
X109.763Y-76.145
X114.683Y-57.735
X114.838Y-124.902
X115.187Y-97.305
X119.577Y-78.775
X124.497Y-60.365
X167.403Y-60.355
X172.333Y-78.775
X176.723Y-97.315
X177.052Y-124.892
X177.217Y-57.725
X182.147Y-76.145
X185.668Y-119.508
X186.163Y-53.155
X186.537Y-94.685
X190.183Y-71.835
X193.654Y-114.736
X194.573Y-90.335
X195.977Y-50.525
X199.997Y-69.205
X202.706Y-110.124
X204.387Y-87.705
X205.521Y-41.716
X209.471Y-60.336
X210.634Y-106.096
X213.471Y-78.986
X215.459Y-39.604
X219.409Y-58.224
X219.686Y-101.484
X223.409Y-76.874
X224.671Y-40.186
X228.651Y-58.806
X232.581Y-77.476
X234.609Y-38.074
X238.589Y-56.694
X242.519Y-75.364
X245.418Y-40.512
X250.015Y-62.661
X252.962Y-81.61
X255.572Y-40.158
X260.169Y-62.307
X263.116Y-81.255
T2
X30.139Y-78.761
X33.06Y-59.813
X36.574Y-76.444
X37.683Y-37.664
X39.495Y-57.496
X44.118Y-35.347
X51.132Y-73.127
X55.094Y-54.458
X57.871Y-71.962
X59.006Y-35.839
X61.834Y-53.293
X65.745Y-34.675
X70.258Y-74.676
X74.246Y-56.007
X74.478Y-99.787
X76.997Y-73.512
X78.183Y-37.363
X80.985Y-54.843
X81.289Y-100.407
X84.922Y-36.199
X89.407Y-85.6
X91.478Y-108.447
X93.777Y-67.07
X96.198Y-84.79
X97.8Y-48.41
X98.289Y-109.067
X100.568Y-66.26
X104.591Y-47.6
X107.257Y-92.55
X108.645Y-118.037
X111.647Y-74.02
X114.048Y-91.74
X115.376Y-119.248
X116.567Y-55.61
X118.438Y-73.21
X123.358Y-54.8
X167.972Y-57.573
X172.902Y-75.993
X173.449Y-53.476
X176.783Y-122.065
X177.292Y-94.533
X178.379Y-71.896
X180.822Y-116.546
X182.769Y-90.436
X186.732Y-50.373
X190.752Y-69.053
X192.209Y-46.276
X193.632Y-111.897
X195.142Y-87.553
X196.229Y-64.956
X198.137Y-106.751
X200.619Y-83.456
X206.235Y-38.968
X210.185Y-57.588
X210.612Y-103.257
X211.918Y-35.163
X214.185Y-76.238
X215.117Y-98.111
X215.868Y-53.783
X219.868Y-72.433
X225.385Y-37.438
X229.365Y-56.058
X231.068Y-33.633
X233.295Y-74.728
X235.048Y-52.253
X238.978Y-70.923
X246.598Y-37.93
X251.196Y-60.079
X252.856Y-35.17
X254.142Y-79.027
X257.453Y-57.318
X260.4Y-76.267
T3
X33.858Y-81.432
X36.779Y-62.484
X41.402Y-40.335
X54.331Y-76.403
X58.293Y-57.734
X62.205Y-39.116
X73.457Y-77.953
X76.72Y-103.78
X77.445Y-59.284
X81.382Y-40.64
X92.43Y-89.04
X93.72Y-112.44
X96.8Y-70.51
X100.823Y-51.85
X110.28Y-95.99
X110.53Y-122.21
X114.67Y-77.46
X119.59Y-59.05
X172.31Y-59.04
X177.24Y-77.46
X181.36Y-122.2
X181.63Y-96.0
X191.07Y-51.84
X195.09Y-70.52
X198.18Y-112.43
X199.48Y-89.02
X210.49Y-40.66
X214.44Y-59.28
X215.16Y-103.79
X218.44Y-77.93
X229.64Y-39.13
X233.62Y-57.75
X237.55Y-76.42
X250.495Y-40.335
X255.092Y-62.484
X258.039Y-81.432
T4
X43.64Y-72.84
X51.31Y-46.52
X79.86Y-93.14
X107.77Y-63.14
X118.18Y-112.8
X123.93Y-104.7
X130.03Y-81.85
X161.84Y-81.87
X167.97Y-104.7
X173.72Y-112.81
X184.11Y-63.17
X211.99Y-93.13
X240.55Y-46.52
X248.24Y-72.82
T0
M30
