<?xml version="1.0"?>
<!DOCTYPE svg PUBLIC "-//W3C//DTD SVG 1.1//EN" "http://www.w3.org/Graphics/SVG/1.1/DTD/svg11.dtd">
<svg width="255.6713057534304mm" height="116.84476548054089mm" viewBox="0 0 255.6713057534304 116.84476548054089" xmlns="http://www.w3.org/2000/svg" version="1.1">
<g id="Sketch180" transform="translate(127.835653,2.362151) scale(1,-1)">
<path id="Sketch180_w0000"  d="M 123.56189169360906 -41.69857104072709 L 121.32475535297326 -41.77669356307182 L 123.56189169360903 -41.69857104072722 M -121.32475535297326 -41.776693563071944 L -123.56189169360903 -41.69857104072722 L -121.32475535297326 -41.77669356307182 L -120.72972737886107 -24.737321758006342 A 2 2 0 0 0 -118.661 -22.8083L -116.85224931131913 -22.87150718699639 L -116.21066597368667 -4.4989641982990545 A 2 2 0 0 0 -114.142 -2.56998L -94.93156251464774 -3.240827775369907 L -94.76573251208364 -1.890250802121907 A 2 2 0 0 0 -92.5369 -0.148897L -74.10281632285555 -2.412318271776397 L -74.0126460983789 -1.98810071296873 A 1 1 0 0 0 -72.8266 -1.21786L -52.2824584205714 -5.584654033266778 A 2 2 0 0 0 -50.742 -7.95677L -51.65586896494016 -12.256251188397707 L -31.404510002576902 -17.682426241427407 A 1 1 0 0 0 -30.6974 -18.9072L -30.931661719035336 -19.78146426024258 L -13.968640832442187 -24.32608307082399 A 3 3 0 0 0 -11.8158 -26.5761L -10.0 -34.786868405477236 L -10.0 -73.78686840547724 L 0.0 -73.78686840547724 L 10.0 -73.78686840547724 L 10.0 -34.786868405477236 L 11.815773308147914 -26.576101363650192 A 3 3 0 0 0 13.9686 -24.3261L 30.931661719035336 -19.78146426024258 L 30.69739609022114 -18.90717302044511 A 1 1 0 0 0 31.4045 -17.6824L 51.65586896494016 -12.256251188397707 L 50.74198659419324 -7.956772612118843 A 2 2 0 0 0 52.2825 -5.58465L 72.82658680895285 -1.2178647997796515 A 1 1 0 0 0 74.0126 -1.9881L 74.10281632285555 -2.412318271776397 L 92.53690151952875 -0.14889718880072578 A 2 2 0 0 0 94.7657 -1.89025L 94.93156251464774 -3.240827775369907 L 114.14208532635391 -2.5699815375474437 A 2 2 0 0 0 116.211 -4.49896L 116.85224931131913 -22.87150718699639 L 118.6611467315283 -22.80833909725473 A 2 2 0 0 0 120.73 -24.7373L 121.32475535297326 -41.77669356307182 M -123.56189169360906 -41.69857104072709 A 1 1 0 0 1 -124.596 -42.6631L -125.32907144776 -63.65026976527712 A 2 2 0 0 1 -123.4 -65.7189L -103.40766356682587 -66.41700128415896 A 2 2 0 0 1 -101.339 -64.488L -101.22429501184206 -61.20092302070084 L -83.3672605186795 -64.996552822686 A 1 1 0 0 1 -82.1812 -64.2263L -81.87698663630954 -62.795099756369424 L -73.51035051052641 -64.57348313987848 L -82.74204705057639 -82.6917076682623 A 2 2 0 0 1 -81.868 -85.3817L -30.10053603001647 -111.75854983598137 A 2 2 0 0 1 -27.4105 -110.885L -15.122360760295063 -86.76760434864978 L 0.0 -86.76760434864978 L 15.122360760295063 -86.76760434864978 L 27.4105419805068 -110.8845177921738 A 2 2 0 0 1 30.1005 -111.759L 81.86801500676881 -85.38170171777197 A 2 2 0 0 1 82.742 -82.6917L 73.51035051052641 -64.57348313987848 L 81.87698663630954 -62.795099756369424 L 82.18120122925347 -64.22631690949693 A 1 1 0 0 1 83.3673 -64.9966L 101.22429501184206 -61.20092302070084 L 101.33908291949311 -64.48801862340734 A 2 2 0 0 1 103.408 -66.417L 123.40008878700839 -65.71885041260988 A 2 2 0 0 1 125.329 -63.6503L 124.59618201727544 -42.663062371102775 A 1 1 0 0 1 123.562 -41.6986" stroke="#000000" stroke-width="0.35 px" style="stroke-width:0.35;stroke-miterlimit:4;stroke-dasharray:none;fill:none;fill-opacity:1;fill-rule: evenodd"/>
<path id="Sketch180_w0001"  d="M 81.50933886972138 -41.82651555042243 L 78.18275185510032 -26.176153907269953 L 92.98206521070708 -23.0304627880101 A 2.5 2.5 0 0 0 92.2301 -20.3368L 77.10845772349988 -22.19346838090141 L 75.15854821135827 -6.312729996435279 L 91.03928659582441 -4.362820484293671 L 92.87559545587119 -19.318355814469815 A 2.5 2.5 0 0 0 96.7335 -19.8198L 96.29264839982415 -7.195735786180474 L 112.28290165889285 -6.637343838922395 L 112.84129360615093 -22.627597097991075 L 96.85104034708225 -23.185989045249173 L 96.81944422271408 -22.28119442359885 A 2.5 2.5 0 0 0 93.9816 -23.5482L 97.15970051287384 -38.49992853580133 L 81.50933886972138 -41.82651555042243 " stroke="#000000" stroke-width="0.35 px" style="stroke-width:0.35;stroke-miterlimit:4;stroke-dasharray:none;fill:none;fill-opacity:1;fill-rule: evenodd"/>
<path id="Sketch180_w0002"  d="M 97.79383119865955 -41.483278695326874 L 82.1434695555071 -44.80986570994796 L 85.47005657012816 -60.4602273531004 L 100.79710079950922 -57.2023635753461 A 2.5 2.5 0 0 1 105.14 -58.5867L 105.27145588731634 -62.349478045074164 L 121.26170914638502 -61.79108609781606 L 120.70331719912691 -45.800832838747375 L 104.71306394005823 -46.359224786005484 L 105.01896029206561 -55.11895021478642 A 2.5 2.5 0 0 1 100.907 -56.1303L 97.79383119865955 -41.483278695326874 " stroke="#000000" stroke-width="0.35 px" style="stroke-width:0.35;stroke-miterlimit:4;stroke-dasharray:none;fill:none;fill-opacity:1;fill-rule: evenodd"/>
<path id="Sketch180_w0003"  d="M 54.80283590688392 -35.276117208520944 L 40.62910635561096 -39.07395654949442 A 2.5 2.5 0 0 1 40.371 -35.9855L 54.93348214790247 -32.083518393218064 L 50.79237936688451 -16.62871222779247 L 35.337564164240675 -20.769695203681803 L 39.22774805418671 -35.28817412829832 A 2.5 2.5 0 0 1 36.1386 -37.0156L 32.5165230002677 -23.497906683245514 L 17.061709707416995 -27.63901137405124 L 21.202814398222714 -43.09382466690194 L 36.42337705532019 -39.01548724401207 A 2.5 2.5 0 0 1 39.5046 -40.0017L 43.48912730483893 -54.872035192177385 L 58.94394059768967 -50.73093050137166 L 54.80283590688392 -35.276117208520944 " stroke="#000000" stroke-width="0.35 px" style="stroke-width:0.35;stroke-miterlimit:4;stroke-dasharray:none;fill:none;fill-opacity:1;fill-rule: evenodd"/>
<path id="Sketch180_w0004"  d="M 71.00619195243047 -68.46955229491948 L 58.296008153697635 -74.94571443842004 A 2.5 2.5 0 0 1 57.617 -70.8085L 63.322416750711646 -69.27973262638358 L 59.18131205990592 -53.824919333532875 L 43.726498767055205 -57.966024024338616 L 47.86760345786093 -73.42083731718934 L 54.59757178116987 -71.61754776172634 A 2.5 2.5 0 0 1 57.1177 -75.5461L 56.75008762004421 -75.7334002968971 L 64.01393562202178 -89.98950462928336 L 78.27003995440803 -82.72565662730577 L 71.00619195243047 -68.46955229491948 " stroke="#000000" stroke-width="0.35 px" style="stroke-width:0.35;stroke-miterlimit:4;stroke-dasharray:none;fill:none;fill-opacity:1;fill-rule: evenodd"/>
<circle cx="25.95292676838706" cy="-87.84828482130274" r="2.5" stroke="#000000" stroke-width="0.35 px" style="stroke-width:0.35;stroke-miterlimit:4;stroke-dasharray:none;fill:none"/>
<circle cx="22.477625232218365" cy="-78.56794020600037" r="2.5" stroke="#000000" stroke-width="0.35 px" style="stroke-width:0.35;stroke-miterlimit:4;stroke-dasharray:none;fill:none"/>
<circle cx="15.851847025597294" cy="-53.840191228137414" r="2.5" stroke="#000000" stroke-width="0.35 px" style="stroke-width:0.35;stroke-miterlimit:4;stroke-dasharray:none;fill:none"/>
<path id="Sketch180_w0008"  d="M 116.8019546213679 -26.875459631352463 L 117.360346568626 -42.86571289042117 L 101.37009330955729 -43.424104837679266 L 100.8117013622992 -27.433851578610557 L 116.8019546213679 -26.875459631352463 " stroke="#000000" stroke-width="0.35 px" style="stroke-width:0.35;stroke-miterlimit:4;stroke-dasharray:none;fill:none;fill-opacity:1;fill-rule: evenodd"/>
<path id="Sketch180_w0009"  d="M 70.72379075750405 -5.754190269365311 L 74.05037777212512 -21.404551912517764 L 58.40001612897268 -24.73113892713884 L 55.07342911435161 -9.080777283986402 L 70.72379075750405 -5.754190269365311 " stroke="#000000" stroke-width="0.35 px" style="stroke-width:0.35;stroke-miterlimit:4;stroke-dasharray:none;fill:none;fill-opacity:1;fill-rule: evenodd"/>
<path id="Sketch180_w0010"  d="M 74.68450845791082 -24.387902072043307 L 78.01109547253189 -40.03826371519574 L 62.360733829379456 -43.364850729816816 L 59.03414681475837 -27.714489086664386 L 74.68450845791082 -24.387902072043307 " stroke="#000000" stroke-width="0.35 px" style="stroke-width:0.35;stroke-miterlimit:4;stroke-dasharray:none;fill:none;fill-opacity:1;fill-rule: evenodd"/>
<path id="Sketch180_w0011"  d="M 78.64522615831758 -43.02161387472131 L 81.97181317293865 -58.67197551787373 L 66.32145152978622 -61.99856253249483 L 62.99486451516515 -46.3482008893424 L 78.64522615831758 -43.02161387472131 " stroke="#000000" stroke-width="0.35 px" style="stroke-width:0.35;stroke-miterlimit:4;stroke-dasharray:none;fill:none;fill-opacity:1;fill-rule: evenodd"/>
<path id="Sketch180_w0012"  d="M 36.8949991585233 -42.046708708394505 L 41.03610384932904 -57.50152200124522 L 25.581290556478336 -61.642626692050946 L 21.440185865672593 -46.18781339920023 L 36.8949991585233 -42.046708708394505 " stroke="#000000" stroke-width="0.35 px" style="stroke-width:0.35;stroke-miterlimit:4;stroke-dasharray:none;fill:none;fill-opacity:1;fill-rule: evenodd"/>
<path id="Sketch180_w0013"  d="M 41.273475411408235 -60.59551083864005 L 25.818662118557548 -64.73661552944579 L 29.959766809363273 -80.19142882229647 L 45.414580102213975 -76.05032413149075 L 41.273475411408235 -60.59551083864005 " stroke="#000000" stroke-width="0.35 px" style="stroke-width:0.35;stroke-miterlimit:4;stroke-dasharray:none;fill:none;fill-opacity:1;fill-rule: evenodd"/>
<path id="Sketch180_w0014"  d="M 54.0325177086779 -77.11807131716087 L 61.29636571065547 -91.37417564954711 L 47.040261378269214 -98.63802365152472 L 39.776413376291664 -84.38191931913846 L 54.0325177086779 -77.11807131716087 " stroke="#000000" stroke-width="0.35 px" style="stroke-width:0.35;stroke-miterlimit:4;stroke-dasharray:none;fill:none;fill-opacity:1;fill-rule: evenodd"/>
<path id="Sketch180_w0015"  d="M 37.058843365062415 -85.76659033416864 L 44.32269136703999 -100.02269466655488 L 30.066587034653722 -107.28654266853249 L 22.802739032676147 -93.03043833614622 L 37.058843365062415 -85.76659033416864 " stroke="#000000" stroke-width="0.35 px" style="stroke-width:0.35;stroke-miterlimit:4;stroke-dasharray:none;fill:none;fill-opacity:1;fill-rule: evenodd"/>
<path id="Sketch180_w0016"  d="M -15.0 -39.78751134078954 L -11.0 -39.78751134078954 L -11.0 -49.78751134078954 L -15.0 -49.78751134078954 L -15.0 -39.78751134078954 " stroke="#000000" stroke-width="0.35 px" style="stroke-width:0.35;stroke-miterlimit:4;stroke-dasharray:none;fill:none;fill-opacity:1;fill-rule: evenodd"/>
<path id="Sketch180_w0017"  d="M -96.81944422271408 -22.28119442359885 A 2.5 2.5 0 0 1 -93.9816 -23.5482L -97.15970051287384 -38.49992853580133 L -81.50933886972138 -41.82651555042243 L -78.18275185510032 -26.176153907269953 L -92.98206521070708 -23.0304627880101 A 2.5 2.5 0 0 1 -92.2301 -20.3368L -77.10845772349988 -22.19346838090141 L -75.15854821135827 -6.312729996435279 L -91.03928659582441 -4.362820484293671 L -92.87559545587119 -19.318355814469815 A 2.5 2.5 0 0 1 -96.7335 -19.8198L -96.29264839982415 -7.195735786180474 L -112.28290165889285 -6.637343838922395 L -112.84129360615093 -22.627597097991075 L -96.85104034708225 -23.185989045249173 L -96.81944422271408 -22.28119442359885 " stroke="#000000" stroke-width="0.35 px" style="stroke-width:0.35;stroke-miterlimit:4;stroke-dasharray:none;fill:none;fill-opacity:1;fill-rule: evenodd"/>
<path id="Sketch180_w0018"  d="M -105.14005701946887 -58.58670677812988 A 2.5 2.5 0 0 1 -100.797 -57.2024L -85.47005657012816 -60.4602273531004 L -82.1434695555071 -44.80986570994796 L -97.79383119865955 -41.483278695326874 L -100.90715596668383 -56.13032033831066 A 2.5 2.5 0 0 1 -105.019 -55.119L -104.71306394005823 -46.359224786005484 L -120.70331719912691 -45.800832838747375 L -121.26170914638502 -61.79108609781606 L -105.27145588731634 -62.349478045074164 L -105.14005701946887 -58.58670677812988 " stroke="#000000" stroke-width="0.35 px" style="stroke-width:0.35;stroke-miterlimit:4;stroke-dasharray:none;fill:none;fill-opacity:1;fill-rule: evenodd"/>
<path id="Sketch180_w0019"  d="M -50.79237936688451 -16.62871222779247 L -54.93348214790247 -32.083518393218064 L -40.37096925554489 -35.98553191520332 A 2.5 2.5 0 0 1 -40.6291 -39.074L -54.80283590688392 -35.276117208520944 L -58.94394059768967 -50.73093050137166 L -43.48912730483893 -54.872035192177385 L -39.50462009633362 -40.00165166669201 A 2.5 2.5 0 0 1 -36.4234 -39.0155L -21.202814398222714 -43.09382466690194 L -17.061709707416995 -27.63901137405124 L -32.5165230002677 -23.497906683245514 L -36.138587140351525 -37.01563424613738 A 2.5 2.5 0 0 1 -39.2277 -35.2882L -35.337564164240675 -20.769695203681803 L -50.79237936688451 -16.62871222779247 " stroke="#000000" stroke-width="0.35 px" style="stroke-width:0.35;stroke-miterlimit:4;stroke-dasharray:none;fill:none;fill-opacity:1;fill-rule: evenodd"/>
<path id="Sketch180_w0020"  d="M -59.18131205990592 -53.824919333532875 L -63.322416750711646 -69.27973262638358 L -57.617017079003205 -70.80848984238719 A 2.5 2.5 0 0 1 -58.296 -74.9457L -71.00619195243047 -68.46955229491948 L -78.27003995440803 -82.72565662730577 L -64.01393562202178 -89.98950462928336 L -56.75008762004421 -75.7334002968971 L -57.11770107582081 -75.54609188472614 A 2.5 2.5 0 0 1 -54.5976 -71.6175L -47.86760345786093 -73.42083731718934 L -43.726498767055205 -57.966024024338616 L -59.18131205990592 -53.824919333532875 " stroke="#000000" stroke-width="0.35 px" style="stroke-width:0.35;stroke-miterlimit:4;stroke-dasharray:none;fill:none;fill-opacity:1;fill-rule: evenodd"/>
<circle cx="-25.95292676838706" cy="-87.84828482130274" r="2.5" stroke="#000000" stroke-width="0.35 px" style="stroke-width:0.35;stroke-miterlimit:4;stroke-dasharray:none;fill:none"/>
<circle cx="-22.477625232218365" cy="-78.56794020600037" r="2.5" stroke="#000000" stroke-width="0.35 px" style="stroke-width:0.35;stroke-miterlimit:4;stroke-dasharray:none;fill:none"/>
<circle cx="-15.851847025597294" cy="-53.840191228137414" r="2.5" stroke="#000000" stroke-width="0.35 px" style="stroke-width:0.35;stroke-miterlimit:4;stroke-dasharray:none;fill:none"/>
<path id="Sketch180_w0024"  d="M -116.8019546213679 -26.875459631352463 L -117.360346568626 -42.86571289042117 L -101.37009330955729 -43.424104837679266 L -100.8117013622992 -27.433851578610557 L -116.8019546213679 -26.875459631352463 " stroke="#000000" stroke-width="0.35 px" style="stroke-width:0.35;stroke-miterlimit:4;stroke-dasharray:none;fill:none;fill-opacity:1;fill-rule: evenodd"/>
<path id="Sketch180_w0025"  d="M -70.72379075750405 -5.754190269365311 L -74.05037777212512 -21.404551912517764 L -58.40001612897268 -24.73113892713884 L -55.07342911435161 -9.080777283986402 L -70.72379075750405 -5.754190269365311 " stroke="#000000" stroke-width="0.35 px" style="stroke-width:0.35;stroke-miterlimit:4;stroke-dasharray:none;fill:none;fill-opacity:1;fill-rule: evenodd"/>
<path id="Sketch180_w0026"  d="M -74.68450845791082 -24.387902072043307 L -78.01109547253189 -40.03826371519574 L -62.360733829379456 -43.364850729816816 L -59.03414681475837 -27.714489086664386 L -74.68450845791082 -24.387902072043307 " stroke="#000000" stroke-width="0.35 px" style="stroke-width:0.35;stroke-miterlimit:4;stroke-dasharray:none;fill:none;fill-opacity:1;fill-rule: evenodd"/>
<path id="Sketch180_w0027"  d="M -78.64522615831758 -43.02161387472131 L -81.97181317293865 -58.67197551787373 L -66.32145152978622 -61.99856253249483 L -62.99486451516515 -46.3482008893424 L -78.64522615831758 -43.02161387472131 " stroke="#000000" stroke-width="0.35 px" style="stroke-width:0.35;stroke-miterlimit:4;stroke-dasharray:none;fill:none;fill-opacity:1;fill-rule: evenodd"/>
<path id="Sketch180_w0028"  d="M -36.8949991585233 -42.046708708394505 L -41.03610384932904 -57.50152200124522 L -25.581290556478336 -61.642626692050946 L -21.440185865672593 -46.18781339920023 L -36.8949991585233 -42.046708708394505 " stroke="#000000" stroke-width="0.35 px" style="stroke-width:0.35;stroke-miterlimit:4;stroke-dasharray:none;fill:none;fill-opacity:1;fill-rule: evenodd"/>
<path id="Sketch180_w0029"  d="M -41.273475411408235 -60.59551083864005 L -25.818662118557548 -64.73661552944579 L -29.959766809363273 -80.19142882229647 L -45.414580102213975 -76.05032413149075 L -41.273475411408235 -60.59551083864005 " stroke="#000000" stroke-width="0.35 px" style="stroke-width:0.35;stroke-miterlimit:4;stroke-dasharray:none;fill:none;fill-opacity:1;fill-rule: evenodd"/>
<path id="Sketch180_w0030"  d="M -54.0325177086779 -77.11807131716087 L -61.29636571065547 -91.37417564954711 L -47.040261378269214 -98.63802365152472 L -39.776413376291664 -84.38191931913846 L -54.0325177086779 -77.11807131716087 " stroke="#000000" stroke-width="0.35 px" style="stroke-width:0.35;stroke-miterlimit:4;stroke-dasharray:none;fill:none;fill-opacity:1;fill-rule: evenodd"/>
<path id="Sketch180_w0031"  d="M -37.058843365062415 -85.76659033416864 L -44.32269136703999 -100.02269466655488 L -30.066587034653722 -107.28654266853249 L -22.802739032676147 -93.03043833614622 L -37.058843365062415 -85.76659033416864 " stroke="#000000" stroke-width="0.35 px" style="stroke-width:0.35;stroke-miterlimit:4;stroke-dasharray:none;fill:none;fill-opacity:1;fill-rule: evenodd"/>
<title>b'Sketch180'</title>
</g>
</svg>