0
SECTION
2
HEADER
9
$INSUNITS
70
4
0
ENDSEC
0
SECTION
2
TABLES
0
TABLE
2
LTYPE
0
LTYPE
72
65
70
64
2
CONTINUOUS
3
______
73
0
40
0
0
ENDTAB
0
TABLE
2
LAYER
0
ENDTAB
0
ENDSEC
0
SECTION
2
ENTITIES
0
LINE
8
0
10
40.8083973
20
-58.692529
11
54.7551231
21
-59.9127094
0
LINE
8
0
10
39.5882169
20
-72.6392548
11
53.5349427
21
-73.8594352
0
LINE
8
0
10
40.8083973
20
-58.692529
11
39.5882169
21
-72.6392548
0
LINE
8
0
10
54.7551231
20
-59.9127094
11
53.5349427
21
-73.8594352
0
LINE
8
0
10
35.0703247
20
-80.5641511
11
49.0170505
21
-81.7843315
0
LINE
8
0
10
33.8501443
20
-94.5108769
11
47.7968701
21
-95.7310573
0
LINE
8
0
10
35.0703247
20
-80.5641511
11
33.8501443
21
-94.5108769
0
LINE
8
0
10
49.0170505
20
-81.7843315
11
47.7968701
21
-95.7310573
0
LINE
8
0
10
31.1327068
20
-99.3424221
11
45.0794326
21
-100.5626025
0
LINE
8
0
10
29.9125264
20
-113.2891479
11
43.8592522
21
-114.5093283
0
LINE
8
0
10
31.1327068
20
-99.3424221
11
29.9125264
21
-113.2891479
0
LINE
8
0
10
45.0794326
20
-100.5626025
11
43.8592522
21
-114.5093283
0
LINE
8
0
10
82.1548414
20
-60.127016
11
95.677803
21
-63.7504826
0
LINE
8
0
10
78.5313748
20
-73.6499776
11
92.0543364
21
-77.2734442
0
LINE
8
0
10
82.1548414
20
-60.127016
11
78.5313748
21
-73.6499776
0
LINE
8
0
10
95.677803
20
-63.7504826
11
92.0543364
21
-77.2734442
0
LINE
8
0
10
63.1129891
20
-57.5886285
11
76.6359507
21
-61.2120951
0
LINE
8
0
10
59.4895225
20
-71.1115901
11
73.0124841
21
-74.7350567
0
LINE
8
0
10
63.1129891
20
-57.5886285
11
59.4895225
21
-71.1115901
0
LINE
8
0
10
76.6359507
20
-61.2120951
11
73.0124841
21
-74.7350567
0
LINE
8
0
10
77.2243386
20
-78.527903
11
90.7473002
21
-82.1513696
0
LINE
8
0
10
73.600872
20
-92.0508646
11
87.1238336
21
-95.6743312
0
LINE
8
0
10
77.2243386
20
-78.527903
11
73.600872
21
-92.0508646
0
LINE
8
0
10
90.7473002
20
-82.1513696
11
87.1238336
21
-95.6743312
0
LINE
8
0
10
58.1824863
20
-75.9895155
11
71.7054479
21
-79.6129821
0
LINE
8
0
10
54.5590197
20
-89.5124771
11
68.0819813
21
-93.1359437
0
LINE
8
0
10
58.1824863
20
-75.9895155
11
54.5590197
21
-89.5124771
0
LINE
8
0
10
71.7054479
20
-79.6129821
11
68.0819813
21
-93.1359437
0
LINE
8
0
10
72.2938358
20
-96.92879
11
85.8167974
21
-100.5522566
0
LINE
8
0
10
68.6703692
20
-110.4517516
11
82.1933308
21
-114.0752182
0
LINE
8
0
10
72.2938358
20
-96.92879
11
68.6703692
21
-110.4517516
0
LINE
8
0
10
85.8167974
20
-100.5522566
11
82.1933308
21
-114.0752182
0
LINE
8
0
10
53.2519835
20
-94.3904025
11
66.7749451
21
-98.0138691
0
LINE
8
0
10
49.6285169
20
-107.9133641
11
63.1514785
21
-111.5368307
0
LINE
8
0
10
53.2519835
20
-94.3904025
11
49.6285169
21
-107.9133641
0
LINE
8
0
10
66.7749451
20
-98.0138691
11
63.1514785
21
-111.5368307
0
LINE
8
0
10
101.424744
20
-72.0650859
11
114.7395353
21
-76.3913238
0
LINE
8
0
10
97.0985061
20
-85.3798772
11
110.4132974
21
-89.7061151
0
LINE
8
0
10
101.424744
20
-72.0650859
11
97.0985061
21
-85.3798772
0
LINE
8
0
10
114.7395353
20
-76.3913238
11
110.4132974
21
-89.7061151
0
LINE
8
0
10
119.8007069
20
-80.2391373
11
133.1154982
21
-84.5653752
0
LINE
8
0
10
115.474469
20
-93.5539286
11
128.7892603
21
-97.8801665
0
LINE
8
0
10
119.8007069
20
-80.2391373
11
115.474469
21
-93.5539286
0
LINE
8
0
10
133.1154982
20
-84.5653752
11
128.7892603
21
-97.8801665
0
LINE
8
0
10
96.4438516
20
-90.4770512
11
109.7586429
21
-94.8032891
0
LINE
8
0
10
92.1176137
20
-103.7918425
11
105.432405
21
-108.1180804
0
LINE
8
0
10
96.4438516
20
-90.4770512
11
92.1176137
21
-103.7918425
0
LINE
8
0
10
109.7586429
20
-94.8032891
11
105.432405
21
-108.1180804
0
LINE
8
0
10
113.9139331
20
-98.3567639
11
127.2287244
21
-102.6830018
0
LINE
8
0
10
109.5876952
20
-111.6715552
11
122.9024865
21
-115.9977931
0
LINE
8
0
10
113.9139331
20
-98.3567639
11
109.5876952
21
-111.6715552
0
LINE
8
0
10
127.2287244
20
-102.6830018
11
122.9024865
21
-115.9977931
0
LINE
8
0
10
91.1006067
20
-108.7712811
11
104.415398
21
-113.097519
0
LINE
8
0
10
86.7743688
20
-122.0860724
11
100.0891601
21
-126.4123103
0
LINE
8
0
10
91.1006067
20
-108.7712811
11
86.7743688
21
-122.0860724
0
LINE
8
0
10
104.415398
20
-113.097519
11
100.0891601
21
-126.4123103
0
LINE
8
0
10
108.5706882
20
-116.6509937
11
121.8854795
21
-120.9772316
0
LINE
8
0
10
104.2444503
20
-129.965785
11
117.5592416
21
-134.2920229
0
LINE
8
0
10
108.5706882
20
-116.6509937
11
104.2444503
21
-129.965785
0
LINE
8
0
10
121.8854795
20
-120.9772316
11
117.5592416
21
-134.2920229
0
LINE
8
0
10
73.3138018
20
-123.4358922
11
86.4694984
21
-128.2241742
0
LINE
8
0
10
68.5255198
20
-136.5915888
11
81.6812164
21
-141.3798708
0
LINE
8
0
10
73.3138018
20
-123.4358922
11
68.5255198
21
-136.5915888
0
LINE
8
0
10
86.4694984
20
-128.2241742
11
81.6812164
21
-141.3798708
0
LINE
8
0
10
93.0974829
20
-131.4554296
11
105.2218385
21
-138.4554296
0
LINE
8
0
10
86.0974829
20
-143.5797852
11
98.2218385
21
-150.5797852
0
LINE
8
0
10
93.0974829
20
-131.4554296
11
86.0974829
21
-143.5797852
0
LINE
8
0
10
105.2218385
20
-138.4554296
11
98.2218385
21
-150.5797852
0
LINE
8
0
10
110.2355423
20
-141.8979667
11
121.703671
21
-149.9280368
0
LINE
8
0
10
102.2054722
20
-153.3660954
11
113.6736009
21
-161.3961655
0
LINE
8
0
10
110.2355423
20
-141.8979667
11
102.2054722
21
-153.3660954
0
LINE
8
0
10
121.703671
20
-149.9280368
11
113.6736009
21
-161.3961655
0
LINE
8
0
10
27.9709795
20
-161.1720661
11
133.8199836
21
-161.1720661
0
LINE
8
0
10
27.9709795
20
-56.6368426
11
133.8199836
21
-56.6368426
0
LINE
8
0
10
27.9709795
20
-161.1720661
11
27.9709795
21
-56.6368426
0
LINE
8
0
10
133.8199836
20
-161.1720661
11
133.8199836
21
-56.6368426
0
ENDSEC
0
EOF