<?xml version="1.0" encoding="UTF-8" standalone="no"?>
<!-- Created with Inkscape (http://www.inkscape.org/) -->

<svg
   width="297mm"
   height="210mm"
   viewBox="0 0 297 210"
   version="1.1"
   id="svg1"
   xml:space="preserve"
   sodipodi:docname="silicon_cut_sheet.svg"
   inkscape:version="1.3-dev (eafafb3255, 2022-07-08, custom)"
   xmlns:inkscape="http://www.inkscape.org/namespaces/inkscape"
   xmlns:sodipodi="http://sodipodi.sourceforge.net/DTD/sodipodi-0.dtd"
   xmlns="http://www.w3.org/2000/svg"
   xmlns:svg="http://www.w3.org/2000/svg"><sodipodi:namedview
     id="namedview1"
     pagecolor="#505050"
     bordercolor="#eeeeee"
     borderopacity="1"
     inkscape:showpageshadow="0"
     inkscape:pageopacity="0"
     inkscape:pagecheckerboard="0"
     inkscape:deskcolor="#505050"
     inkscape:document-units="mm"
     showgrid="false"
     inkscape:zoom="1.3140972"
     inkscape:cx="501.48497"
     inkscape:cy="379.34789"
     inkscape:window-width="2560"
     inkscape:window-height="1375"
     inkscape:window-x="0"
     inkscape:window-y="0"
     inkscape:window-maximized="1"
     inkscape:current-layer="layer1" /><defs
     id="defs1" /><g
     id="layer1"
     transform="translate(-0.01453784,-0.45556396)"><text
       xml:space="preserve"
       style="font-size:3.52778px;font-family:'Black Ops One';-inkscape-font-specification:'Black Ops One';fill:#000000;stroke:#000000;stroke-width:0.1;paint-order:markers fill stroke"
       x="8.490922"
       y="20.105408"
       id="text1"><tspan
         sodipodi:role="line"
         x="8.490922"
         y="20.105408"
         style="font-style:normal;font-variant:normal;font-weight:normal;font-stretch:normal;font-size:3.52778px;font-family:'源ノ角ゴシック JP';-inkscape-font-specification:'源ノ角ゴシック JP'"
         id="tspan5">最初にこの紙に印刷されているプレートの線がミドルプレート (上) と同じサイズで印刷されていることを確認します。 </tspan><tspan
         sodipodi:role="line"
         x="8.490922"
         y="25.041267"
         id="tspan53"
         style="font-style:normal;font-variant:normal;font-weight:normal;font-stretch:normal;font-size:3.52778px;font-family:'源ノ角ゴシック JP';-inkscape-font-specification:'源ノ角ゴシック JP'">同じサイズだった場合、以下の手順を実施します。</tspan><tspan
         sodipodi:role="line"
         x="8.490922"
         y="29.977129"
         id="tspan54"
         style="font-style:normal;font-variant:normal;font-weight:normal;font-stretch:normal;font-size:3.52778px;font-family:'源ノ角ゴシック JP';-inkscape-font-specification:'源ノ角ゴシック JP'" /><tspan
         sodipodi:role="line"
         x="8.490922"
         y="34.912991"
         id="tspan55"
         style="font-style:normal;font-variant:normal;font-weight:normal;font-stretch:normal;font-size:3.52778px;font-family:'源ノ角ゴシック JP';-inkscape-font-specification:'源ノ角ゴシック JP'">1. シリコンシートについている保護シートを両面剥がします。</tspan><tspan
         sodipodi:role="line"
         x="8.490922"
         y="39.84885"
         id="tspan56"
         style="font-style:normal;font-variant:normal;font-weight:normal;font-stretch:normal;font-size:3.52778px;font-family:'源ノ角ゴシック JP';-inkscape-font-specification:'源ノ角ゴシック JP'">2. シリコンカットサポートシート (この紙) にシリコンシートをおきます。 (マスキングテープなどで固定すると切りやすくなります。)</tspan><tspan
         sodipodi:role="line"
         x="8.490922"
         y="44.78471"
         id="tspan57"
         style="font-style:normal;font-variant:normal;font-weight:normal;font-stretch:normal;font-size:3.52778px;font-family:'源ノ角ゴシック JP';-inkscape-font-specification:'源ノ角ゴシック JP'">4. 黒い部分とシリコンシートと一緒に切り抜きます。</tspan><tspan
         sodipodi:role="line"
         x="8.490922"
         y="49.72057"
         id="tspan58"
         style="font-style:normal;font-variant:normal;font-weight:normal;font-stretch:normal;font-size:3.52778px;font-family:'源ノ角ゴシック JP';-inkscape-font-specification:'源ノ角ゴシック JP'">5. ミドルプレート (上) のトッププレート側の保護シートを剥がします。</tspan><tspan
         sodipodi:role="line"
         x="8.490922"
         y="54.656429"
         id="tspan59"
         style="font-style:normal;font-variant:normal;font-weight:normal;font-stretch:normal;font-size:3.52778px;font-family:'源ノ角ゴシック JP';-inkscape-font-specification:'源ノ角ゴシック JP'">6. 手順5で剥がした側がシリコンシートと接するようにミドルプレート (上) をシリコンシートの上に置きます。</tspan><tspan
         sodipodi:role="line"
         x="8.490922"
         y="59.592289"
         id="tspan60"
         style="font-style:normal;font-variant:normal;font-weight:normal;font-stretch:normal;font-size:3.52778px;font-family:'源ノ角ゴシック JP';-inkscape-font-specification:'源ノ角ゴシック JP'">7. ミドルプレート (上) に沿って、シリコンシートをカットします。</tspan><tspan
         sodipodi:role="line"
         x="8.490922"
         y="64.528152"
         style="font-style:normal;font-variant:normal;font-weight:normal;font-stretch:normal;font-size:3.52778px;font-family:'源ノ角ゴシック JP';-inkscape-font-specification:'源ノ角ゴシック JP'"
         id="tspan3">8. ミドルプレート (上) のもう片方の保護シートを剥がします。 (両方の保護シートが剥がれている状態です。) </tspan><tspan
         sodipodi:role="line"
         x="8.490922"
         y="69.464012"
         id="tspan61"
         style="font-style:normal;font-variant:normal;font-weight:normal;font-stretch:normal;font-size:3.52778px;font-family:'源ノ角ゴシック JP';-inkscape-font-specification:'源ノ角ゴシック JP'">9. 全体を裏返し、シリコンカットサポートシート (この紙) を剥がします。</tspan><tspan
         sodipodi:role="line"
         x="8.490922"
         y="74.399872"
         id="tspan62"
         style="font-style:normal;font-variant:normal;font-weight:normal;font-stretch:normal;font-size:3.52778px;font-family:'源ノ角ゴシック JP';-inkscape-font-specification:'源ノ角ゴシック JP'">10. シリコンシート側にトッププレートをずれないように重ねます。</tspan><tspan
         sodipodi:role="line"
         x="8.490922"
         y="78.809601"
         id="tspan63"
         style="font-style:normal;font-variant:normal;font-weight:normal;font-stretch:normal;font-size:3.52778px;font-family:'源ノ角ゴシック JP';-inkscape-font-specification:'源ノ角ゴシック JP'" /></text><text
       xml:space="preserve"
       style="font-size:4.93889px;font-family:'Source Code Pro';-inkscape-font-specification:'Source Code Pro';fill:#000000;stroke:#000000;stroke-width:0.1;paint-order:markers fill stroke"
       x="3.7724705"
       y="9.3375311"
       id="text10"><tspan
         sodipodi:role="line"
         id="tspan10"
         style="font-size:4.93889px;stroke-width:0.1"
         x="3.7724705"
         y="9.3375311">nowt36 シリコンカットサポートシート</tspan></text><text
       xml:space="preserve"
       style="font-size:4.9389px;font-family:'Source Code Pro';-inkscape-font-specification:'Source Code Pro';fill:#000000;stroke:#000000;stroke-width:0.1;paint-order:markers fill stroke"
       x="186.34558"
       y="51.09433"
       id="text22"><tspan
         sodipodi:role="line"
         id="tspan22"
         style="stroke-width:0.1" /></text><g
       id="Sketch189"
       transform="matrix(1,0,0,-1,147.89334,78.661463)"><path
         id="Sketch189_w0000"
         d="m -123.56189,-41.698571 2.23713,-0.07812 -2.23713,0.07812 m 244.88665,-0.07812 2.23713,0.07812 -2.23713,-0.07812 -0.59503,17.039372 A 2,2 0 0 1 118.661,-22.8083 l -1.80875,-0.06321 -0.64158,18.3725428 A 2,2 0 0 1 114.142,-2.56998 l -19.210437,-0.6708478 -0.16583,1.350577 A 2,2 0 0 1 92.5369,-0.148897 l -18.434084,-2.2634213 -0.09017,0.4242176 A 1,1 0 0 1 72.8266,-1.21786 L 52.282458,-5.584654 A 2,2 0 0 1 50.742,-7.95677 l 0.913869,-4.299481 -20.251359,-5.426175 A 1,1 0 0 1 30.6974,-18.9072 l 0.234262,-0.874264 -16.963021,-4.544619 A 3,3 0 0 1 11.8158,-26.5761 L 10,-34.786868 v -39 H 0 -10 v 39 l -1.815773,8.210767 A 3,3 0 0 1 -13.9686,-24.3261 l -16.963062,4.544636 0.234266,0.874291 A 1,1 0 0 1 -31.4045,-17.6824 l -20.251369,5.426149 0.913882,4.2994784 A 2,2 0 0 1 -52.2825,-5.58465 l -20.544087,4.3667852 A 1,1 0 0 1 -74.0126,-1.9881 l -0.09022,-0.4242183 -18.434086,2.26342111 A 2,2 0 0 1 -94.7657,-1.89025 l -0.165863,-1.3505778 -19.210527,0.6708463 A 2,2 0 0 1 -116.211,-4.49896 l -0.64125,-18.372547 -1.8089,0.06317 A 2,2 0 0 1 -120.73,-24.7373 l -0.59476,-17.039394 m -2.23713,0.07812 A 1,1 0 0 1 -124.596,-42.6631 l -0.73307,-20.98717 A 2,2 0 0 1 -123.4,-65.7189 l 19.99234,-0.698101 a 2,2 0 0 1 2.06866,1.929001 l 0.1147,3.287077 17.857039,-3.79563 a 1,1 0 0 1 1.186061,0.770253 l 0.304213,1.4312 8.366636,-1.778383 -9.231696,-18.118225 A 2,2 0 0 1 -81.868,-85.3817 l 51.767464,-26.37685 a 2,2 0 0 1 2.690036,0.87355 l 12.288139,24.117396 H 0 15.122361 L 27.410542,-110.88452 A 2,2 0 0 1 30.1005,-111.759 l 51.767515,26.377298 A 2,2 0 0 1 82.742,-82.6917 l -9.231649,18.118217 8.366636,1.778383 0.304214,-1.431217 A 1,1 0 0 1 83.3673,-64.9966 l 17.857,3.795677 0.11478,-3.287096 A 2,2 0 0 1 103.408,-66.417 l 19.99209,0.69815 a 2,2 0 0 1 1.92891,2.06855 l -0.73282,20.987238 A 1,1 0 0 1 123.562,-41.6986"
         stroke="#000000"
         stroke-width="0.35 px"
         style="fill:none;fill-opacity:1;fill-rule:evenodd;stroke-width:0.1;stroke-miterlimit:4;stroke-dasharray:none" /><path
         id="Sketch189_w0001"
         d="m -96.819444,-22.281194 -0.0316,-0.904795 -15.990246,0.558392 0.55839,15.9902532 15.990248,-0.558392 -0.440842,-12.6240432"
         stroke="#000000"
         stroke-width="0.35 px"
         style="fill:none;fill-opacity:1;fill-rule:evenodd;stroke-width:0.1;stroke-miterlimit:4;stroke-dasharray:none" /><path
         id="Sketch189_w0002"
         d="m -116.80195,-26.87546 -0.5584,-15.990253 15.99026,-0.558392 0.55839,15.990253 -15.99025,0.558392"
         stroke="#000000"
         stroke-width="0.35 px"
         style="fill:none;fill-opacity:1;fill-rule:evenodd;stroke-width:0.1;stroke-miterlimit:4;stroke-dasharray:none" /><path
         id="Sketch189_w0003"
         d="m -105.14006,-58.586707 -0.1314,-3.762771 -15.99025,0.558392 0.55839,15.990253 15.99026,-0.558392 -0.3059,-8.759725"
         stroke="#000000"
         stroke-width="0.35 px"
         style="fill:none;fill-opacity:1;fill-rule:evenodd;stroke-width:0.1;stroke-miterlimit:4;stroke-dasharray:none" /><path
         id="Sketch189_w0004"
         d="m -92.230116,-20.336762 15.121658,-1.856706 1.94991,15.880738 -15.880739,1.9499095 -1.836308,-14.9555355"
         stroke="#000000"
         stroke-width="0.35 px"
         style="fill:none;fill-opacity:1;fill-rule:evenodd;stroke-width:0.1;stroke-miterlimit:4;stroke-dasharray:none" /><path
         id="Sketch189_w0005"
         d="m -70.723791,-5.7541903 -3.326587,-15.6503617 15.650362,-3.326587 3.326587,15.6503617 -15.650362,3.326587"
         stroke="#000000"
         stroke-width="0.35 px"
         style="fill:none;fill-opacity:1;fill-rule:evenodd;stroke-width:0.1;stroke-miterlimit:4;stroke-dasharray:none" /><path
         id="Sketch189_w0006"
         d="m -74.684508,-24.387902 -3.326587,-15.650362 15.650361,-3.326587 3.326587,15.650362 -15.650361,3.326587"
         stroke="#000000"
         stroke-width="0.35 px"
         style="fill:none;fill-opacity:1;fill-rule:evenodd;stroke-width:0.1;stroke-miterlimit:4;stroke-dasharray:none" /><path
         id="Sketch189_w0007"
         d="m -93.981609,-23.548183 -3.178092,-14.951746 15.650362,-3.326587 3.326587,15.650362 -14.799313,3.145691"
         stroke="#000000"
         stroke-width="0.35 px"
         style="fill:none;fill-opacity:1;fill-rule:evenodd;stroke-width:0.1;stroke-miterlimit:4;stroke-dasharray:none" /><path
         id="Sketch189_w0008"
         d="m -78.645226,-43.021614 -3.326587,-15.650362 15.650361,-3.326587 3.326587,15.650362 -15.650361,3.326587"
         stroke="#000000"
         stroke-width="0.35 px"
         style="fill:none;fill-opacity:1;fill-rule:evenodd;stroke-width:0.1;stroke-miterlimit:4;stroke-dasharray:none" /><path
         id="Sketch189_w0009"
         d="m -100.7971,-57.202364 15.327043,-3.257863 3.326587,15.650361 -15.650361,3.326587 -3.113329,-14.647041"
         stroke="#000000"
         stroke-width="0.35 px"
         style="fill:none;fill-opacity:1;fill-rule:evenodd;stroke-width:0.1;stroke-miterlimit:4;stroke-dasharray:none" /><path
         id="Sketch189_w0010"
         d="m -40.370969,-35.985532 -14.562513,3.902014 4.141103,15.454806 15.454815,-4.140983 -3.890184,-14.518479"
         stroke="#000000"
         stroke-width="0.35 px"
         style="fill:none;fill-opacity:1;fill-rule:evenodd;stroke-width:0.1;stroke-miterlimit:4;stroke-dasharray:none" /><path
         id="Sketch189_w0011"
         d="m -36.423377,-39.015487 15.220563,-4.078338 4.141104,15.454814 -15.454813,4.141104 -3.622064,-13.517727"
         stroke="#000000"
         stroke-width="0.35 px"
         style="fill:none;fill-opacity:1;fill-rule:evenodd;stroke-width:0.1;stroke-miterlimit:4;stroke-dasharray:none" /><path
         id="Sketch189_w0012"
         d="m -39.50462,-40.001652 -3.984507,-14.870383 -15.454814,4.141104 4.141105,15.454814 14.17373,-3.79784"
         stroke="#000000"
         stroke-width="0.35 px"
         style="fill:none;fill-opacity:1;fill-rule:evenodd;stroke-width:0.1;stroke-miterlimit:4;stroke-dasharray:none" /><path
         id="Sketch189_w0013"
         d="m -36.894999,-42.046709 -4.141105,-15.454813 15.454813,-4.141105 4.141105,15.454814 -15.454813,4.141104"
         stroke="#000000"
         stroke-width="0.35 px"
         style="fill:none;fill-opacity:1;fill-rule:evenodd;stroke-width:0.1;stroke-miterlimit:4;stroke-dasharray:none" /><path
         id="Sketch189_w0014"
         d="m -54.597572,-71.617548 6.729969,-1.803289 4.141104,15.454813 -15.454813,4.141105 -4.140079,-15.455089 5.704374,-1.528482"
         stroke="#000000"
         stroke-width="0.35 px"
         style="fill:none;fill-opacity:1;fill-rule:evenodd;stroke-width:0.1;stroke-miterlimit:4;stroke-dasharray:none" /><path
         id="Sketch189_w0015"
         d="m -41.273475,-60.595511 15.454813,-4.141105 -4.141105,-15.454813 -15.454813,4.141105 4.141105,15.454813"
         stroke="#000000"
         stroke-width="0.35 px"
         style="fill:none;fill-opacity:1;fill-rule:evenodd;stroke-width:0.1;stroke-miterlimit:4;stroke-dasharray:none" /><path
         id="Sketch189_w0016"
         d="m -57.117701,-75.546092 0.367613,-0.187308 -7.263848,-14.256105 -14.256104,7.263848 7.26414,14.255956 12.709892,-6.476013"
         stroke="#000000"
         stroke-width="0.35 px"
         style="fill:none;fill-opacity:1;fill-rule:evenodd;stroke-width:0.1;stroke-miterlimit:4;stroke-dasharray:none" /><path
         id="Sketch189_w0017"
         d="m -54.032518,-77.118071 -7.263848,-14.256105 14.256105,-7.263848 7.263848,14.256105 -14.256105,7.263848"
         stroke="#000000"
         stroke-width="0.35 px"
         style="fill:none;fill-opacity:1;fill-rule:evenodd;stroke-width:0.1;stroke-miterlimit:4;stroke-dasharray:none" /><path
         id="Sketch189_w0018"
         d="m -37.032036,-85.72498 -7.290655,-14.29771 14.256104,-7.26385 7.249533,14.238963 -14.214982,7.322597"
         stroke="#000000"
         stroke-width="0.35 px"
         style="fill:none;fill-opacity:1;fill-rule:evenodd;stroke-width:0.1;stroke-miterlimit:4;stroke-dasharray:none" /><path
         id="Sketch189_w0019"
         d="m -97.013357,-18.54069 -0.174498,-4.996954 4.996954,-0.174498 0.174498,4.996954 -4.996954,0.174498"
         stroke="#000000"
         stroke-width="0.35 px"
         style="fill:#000000;fill-opacity:1;fill-rule:evenodd;stroke-width:0.1;stroke-miterlimit:4;stroke-dasharray:none" /><path
         id="Sketch189_w0020"
         d="m -105.69183,-54.329922 -0.1745,-4.996954 4.99695,-0.174497 0.1745,4.996954 -4.99695,0.174497"
         stroke="#000000"
         stroke-width="0.35 px"
         style="fill:#000000;fill-opacity:1;fill-rule:evenodd;stroke-width:0.1;stroke-miterlimit:4;stroke-dasharray:none" /><path
         id="Sketch189_w0021"
         d="m -41.60689,-39.460921 4.829631,-1.294085 1.294086,4.829631 -4.829632,1.294086 -1.294085,-4.829632"
         stroke="#000000"
         stroke-width="0.35 px"
         style="fill:#000000;fill-opacity:1;fill-rule:evenodd;stroke-width:0.1;stroke-miterlimit:4;stroke-dasharray:none" /><path
         id="Sketch189_w0022"
         d="m -58.380063,-70.035849 -1.294096,-4.82963 4.82963,-1.294095 1.294095,4.829629 -4.829629,1.294096"
         stroke="#000000"
         stroke-width="0.35 px"
         style="fill:#000000;fill-opacity:1;fill-rule:evenodd;stroke-width:0.1;stroke-miterlimit:4;stroke-dasharray:none" /><path
         id="Sketch189_w0023"
         d="m -29.634398,-89.535742 2.603875,5.054769 4.444908,-2.289716 -2.603875,-5.054769"
         stroke="#000000"
         stroke-width="0.35 px"
         style="fill:#000000;fill-opacity:1;fill-rule:evenodd;stroke-width:0.1;stroke-miterlimit:4;stroke-dasharray:none" /><path
         id="Sketch189_w0024"
         d="m -24.245392,-75.506078 4.829629,-1.294095 -1.294095,-4.829629 -4.829629,1.294095 1.294095,4.829629"
         stroke="#000000"
         stroke-width="0.35 px"
         style="fill:#000000;fill-opacity:1;fill-rule:evenodd;stroke-width:0.1;stroke-miterlimit:4;stroke-dasharray:none" /><path
         id="Sketch189_w0025"
         d="m -18.351847,-51.340191 h 5 v -5 h -5 v 5"
         stroke="#000000"
         stroke-width="0.35 px"
         style="fill:#000000;fill-opacity:1;fill-rule:evenodd;stroke-width:0.1;stroke-miterlimit:4;stroke-dasharray:none" /><path
         id="Sketch189_w0026"
         d="m 96.819444,-22.281194 0.0316,-0.904795 15.990246,0.558392 -0.55839,15.9902532 -15.990248,-0.558392 0.440842,-12.6240432"
         stroke="#000000"
         stroke-width="0.35 px"
         style="fill:none;fill-opacity:1;fill-rule:evenodd;stroke-width:0.1;stroke-miterlimit:4;stroke-dasharray:none" /><path
         id="Sketch189_w0027"
         d="m 116.80195,-26.87546 0.5584,-15.990253 -15.99026,-0.558392 -0.55839,15.990253 15.99025,0.558392"
         stroke="#000000"
         stroke-width="0.35 px"
         style="fill:none;fill-opacity:1;fill-rule:evenodd;stroke-width:0.1;stroke-miterlimit:4;stroke-dasharray:none" /><path
         id="Sketch189_w0028"
         d="m 105.14006,-58.586707 0.1314,-3.762771 15.99025,0.558392 -0.55839,15.990253 -15.99026,-0.558392 0.3059,-8.759725"
         stroke="#000000"
         stroke-width="0.35 px"
         style="fill:none;fill-opacity:1;fill-rule:evenodd;stroke-width:0.1;stroke-miterlimit:4;stroke-dasharray:none" /><path
         id="Sketch189_w0029"
         d="m 92.230116,-20.336762 -15.121658,-1.856706 -1.94991,15.880738 15.880739,1.9499095 1.836308,-14.9555355"
         stroke="#000000"
         stroke-width="0.35 px"
         style="fill:none;fill-opacity:1;fill-rule:evenodd;stroke-width:0.1;stroke-miterlimit:4;stroke-dasharray:none" /><path
         id="Sketch189_w0030"
         d="m 70.723791,-5.7541903 3.326587,-15.6503617 -15.650362,-3.326587 -3.326587,15.6503617 15.650362,3.326587"
         stroke="#000000"
         stroke-width="0.35 px"
         style="fill:none;fill-opacity:1;fill-rule:evenodd;stroke-width:0.1;stroke-miterlimit:4;stroke-dasharray:none" /><path
         id="Sketch189_w0031"
         d="m 74.684508,-24.387902 3.326587,-15.650362 -15.650361,-3.326587 -3.326587,15.650362 15.650361,3.326587"
         stroke="#000000"
         stroke-width="0.35 px"
         style="fill:none;fill-opacity:1;fill-rule:evenodd;stroke-width:0.1;stroke-miterlimit:4;stroke-dasharray:none" /><path
         id="Sketch189_w0032"
         d="m 93.981609,-23.548183 3.178092,-14.951746 -15.650362,-3.326587 -3.326587,15.650362 14.799313,3.145691"
         stroke="#000000"
         stroke-width="0.35 px"
         style="fill:none;fill-opacity:1;fill-rule:evenodd;stroke-width:0.1;stroke-miterlimit:4;stroke-dasharray:none" /><path
         id="Sketch189_w0033"
         d="m 78.645226,-43.021614 3.326587,-15.650362 -15.650361,-3.326587 -3.326587,15.650362 15.650361,3.326587"
         stroke="#000000"
         stroke-width="0.35 px"
         style="fill:none;fill-opacity:1;fill-rule:evenodd;stroke-width:0.1;stroke-miterlimit:4;stroke-dasharray:none" /><path
         id="Sketch189_w0034"
         d="m 100.7971,-57.202364 -15.327043,-3.257863 -3.326587,15.650361 15.650361,3.326587 3.113329,-14.647041"
         stroke="#000000"
         stroke-width="0.35 px"
         style="fill:none;fill-opacity:1;fill-rule:evenodd;stroke-width:0.1;stroke-miterlimit:4;stroke-dasharray:none" /><path
         id="Sketch189_w0035"
         d="m 40.370969,-35.985532 14.562513,3.902014 -4.141103,15.454806 -15.454815,-4.140983 3.890184,-14.518479"
         stroke="#000000"
         stroke-width="0.35 px"
         style="fill:none;fill-opacity:1;fill-rule:evenodd;stroke-width:0.1;stroke-miterlimit:4;stroke-dasharray:none" /><path
         id="Sketch189_w0036"
         d="m 36.423377,-39.015487 -15.220563,-4.078338 -4.141104,15.454814 15.454813,4.141104 3.622064,-13.517727"
         stroke="#000000"
         stroke-width="0.35 px"
         style="fill:none;fill-opacity:1;fill-rule:evenodd;stroke-width:0.1;stroke-miterlimit:4;stroke-dasharray:none" /><path
         id="Sketch189_w0037"
         d="m 39.50462,-40.001652 3.984507,-14.870383 15.454814,4.141104 -4.141105,15.454814 -14.17373,-3.79784"
         stroke="#000000"
         stroke-width="0.35 px"
         style="fill:none;fill-opacity:1;fill-rule:evenodd;stroke-width:0.1;stroke-miterlimit:4;stroke-dasharray:none" /><path
         id="Sketch189_w0038"
         d="m 36.894999,-42.046709 4.141105,-15.454813 -15.454813,-4.141105 -4.141105,15.454814 15.454813,4.141104"
         stroke="#000000"
         stroke-width="0.35 px"
         style="fill:none;fill-opacity:1;fill-rule:evenodd;stroke-width:0.1;stroke-miterlimit:4;stroke-dasharray:none" /><path
         id="Sketch189_w0039"
         d="m 54.597572,-71.617548 -6.729969,-1.803289 -4.141104,15.454813 15.454813,4.141105 4.140079,-15.455089 -5.704374,-1.528482"
         stroke="#000000"
         stroke-width="0.35 px"
         style="fill:none;fill-opacity:1;fill-rule:evenodd;stroke-width:0.1;stroke-miterlimit:4;stroke-dasharray:none" /><path
         id="Sketch189_w0040"
         d="m 41.273475,-60.595511 -15.454813,-4.141105 4.141105,-15.454813 15.454813,4.141105 -4.141105,15.454813"
         stroke="#000000"
         stroke-width="0.35 px"
         style="fill:none;fill-opacity:1;fill-rule:evenodd;stroke-width:0.1;stroke-miterlimit:4;stroke-dasharray:none" /><path
         id="Sketch189_w0041"
         d="m 57.117701,-75.546092 -0.367613,-0.187308 7.263848,-14.256105 14.256104,7.263848 -7.26414,14.255956 -12.709892,-6.476013"
         stroke="#000000"
         stroke-width="0.35 px"
         style="fill:none;fill-opacity:1;fill-rule:evenodd;stroke-width:0.1;stroke-miterlimit:4;stroke-dasharray:none" /><path
         id="Sketch189_w0042"
         d="m 54.032518,-77.118071 7.263848,-14.256105 -14.256105,-7.263848 -7.263848,14.256105 14.256105,7.263848"
         stroke="#000000"
         stroke-width="0.35 px"
         style="fill:none;fill-opacity:1;fill-rule:evenodd;stroke-width:0.1;stroke-miterlimit:4;stroke-dasharray:none" /><path
         id="Sketch189_w0043"
         d="m 37.032036,-85.72498 7.290655,-14.29771 -14.256104,-7.26385 -7.249533,14.238963 14.214982,7.322597"
         stroke="#000000"
         stroke-width="0.35 px"
         style="fill:none;fill-opacity:1;fill-rule:evenodd;stroke-width:0.1;stroke-miterlimit:4;stroke-dasharray:none" /><path
         id="Sketch189_w0044"
         d="m 97.013357,-18.54069 0.174498,-4.996954 -4.996954,-0.174498 -0.174498,4.996954 4.996954,0.174498"
         stroke="#000000"
         stroke-width="0.35 px"
         style="fill:#000000;fill-opacity:1;fill-rule:evenodd;stroke-width:0.1;stroke-miterlimit:4;stroke-dasharray:none" /><path
         id="Sketch189_w0045"
         d="m 105.69183,-54.329922 0.1745,-4.996954 -4.99695,-0.174497 -0.1745,4.996954 4.99695,0.174497"
         stroke="#000000"
         stroke-width="0.35 px"
         style="fill:#000000;fill-opacity:1;fill-rule:evenodd;stroke-width:0.1;stroke-miterlimit:4;stroke-dasharray:none" /><path
         id="Sketch189_w0046"
         d="m 41.60689,-39.460921 -4.829631,-1.294085 -1.294086,4.829631 4.829632,1.294086 1.294085,-4.829632"
         stroke="#000000"
         stroke-width="0.35 px"
         style="fill:#000000;fill-opacity:1;fill-rule:evenodd;stroke-width:0.1;stroke-miterlimit:4;stroke-dasharray:none" /><path
         id="Sketch189_w0047"
         d="m 58.380063,-70.035849 1.294096,-4.82963 -4.82963,-1.294095 -1.294095,4.829629 4.829629,1.294096"
         stroke="#000000"
         stroke-width="0.35 px"
         style="fill:#000000;fill-opacity:1;fill-rule:evenodd;stroke-width:0.1;stroke-miterlimit:4;stroke-dasharray:none" /><path
         id="Sketch189_w0048"
         d="m 29.634398,-89.535742 -2.603875,5.054769 -4.444908,-2.289716 2.603875,-5.054769"
         stroke="#000000"
         stroke-width="0.35 px"
         style="fill:#000000;fill-opacity:1;fill-rule:evenodd;stroke-width:0.1;stroke-miterlimit:4;stroke-dasharray:none" /><path
         id="Sketch189_w0049"
         d="m 24.245392,-75.506078 -4.829629,-1.294095 1.294095,-4.829629 4.829629,1.294095 -1.294095,4.829629"
         stroke="#000000"
         stroke-width="0.35 px"
         style="fill:#000000;fill-opacity:1;fill-rule:evenodd;stroke-width:0.1;stroke-miterlimit:4;stroke-dasharray:none" /><path
         id="Sketch189_w0050"
         d="m 18.351847,-51.340191 h -5 v -5 h 5 v 5"
         stroke="#000000"
         stroke-width="0.35 px"
         style="fill:#000000;fill-opacity:1;fill-rule:evenodd;stroke-width:0.1;stroke-miterlimit:4;stroke-dasharray:none" /><title
         id="title1">b'Sketch189'</title></g><text
       xml:space="preserve"
       style="font-size:3.52777px;font-family:'源ノ角ゴシック JP';-inkscape-font-specification:'源ノ角ゴシック JP';fill:#000000;stroke:#000000;stroke-width:0.1;stroke-opacity:1;paint-order:markers fill stroke"
       x="272.85178"
       y="200.15642"
       id="text2"><tspan
         sodipodi:role="line"
         id="tspan1"
         style="stroke:#000000;stroke-width:0.1;stroke-opacity:1"
         x="272.85178"
         y="200.15642">rev1</tspan></text></g></svg>
